<svg xmlns="http://www.w3.org/2000/svg" width="789.04" height="506.65" viewBox="0 0 789.04 506.65"><title>Ollie_Logo</title><path d="M422.76,580.34a69.94,69.94,0,1,1-69.94-69.94A69.94,69.94,0,0,1,422.76,580.34ZM747.1,510.4A69.94,69.94,0,1,0,817,580.34,69.94,69.94,0,0,0,747.1,510.4Zm197.22,69.94c0,108.88-88.34,197.14-197.22,197.14A196.44,196.44,0,0,1,613.16,725L550,793.7l-63.2-68.77a196.39,196.39,0,0,1-134,52.55c-108.88,0-197.14-88.26-197.14-197.14A196.68,196.68,0,0,1,220,434.64l-64.51-70.19H298.85a446.77,446.77,0,0,1,502.67,0h143L880,434.64A196.68,196.68,0,0,1,944.32,580.34Zm-458.08,0A133.42,133.42,0,1,0,352.82,713.75,133.43,133.43,0,0,0,486.24,580.34ZM698.05,381.17a384.92,384.92,0,0,0-296.12,0C486.14,413.37,550,488.7,550,576.5,550,488.71,613.85,413.38,698.05,381.17ZM880.51,580.34A133.41,133.41,0,1,0,747.1,713.75,133.42,133.42,0,0,0,880.51,580.34Z" transform="translate(-155.48 -287.05)"/></svg>