<svg xmlns="http://www.w3.org/2000/svg" viewBox="0 0 100 100"><g id="Sarlahi"><path d="M30.34,9a.08.08,0,0,1,.07,0l.1,0,.27,0c.35-.07.68-.2,1-.29a2.32,2.32,0,0,1,.46,0,.6.6,0,0,0,.39-.12c.09-.08.19-.23.33-.2a.62.62,0,0,1,.22.1,2.67,2.67,0,0,0,.26.09,2.54,2.54,0,0,1,.46.17,1.42,1.42,0,0,1,.39.29,5.09,5.09,0,0,1,.53.83,4.93,4.93,0,0,0,.58.8,2.47,2.47,0,0,0,.37.35c.13.09.28.16.41.26a1.33,1.33,0,0,0,.41.25c.16,0,.33,0,.49.09a6.28,6.28,0,0,0,1,.24h.26l.27,0a2.92,2.92,0,0,1,.51,0,3.89,3.89,0,0,1,.92.44l.43.22c.13.06.26.1.38.17a.86.86,0,0,1,.29.28.2.2,0,0,0,.14.11.65.65,0,0,0,.24,0,1.94,1.94,0,0,1,.48,0l.2.08.22.12a.6.6,0,0,1,.24.32A1.58,1.58,0,0,0,43,14c.1.13.2.26.29.4s.18.28.27.42a1.91,1.91,0,0,0,.29.41.93.93,0,0,1,.13.15.45.45,0,0,1,0,.23.79.79,0,0,1-.13.45c-.07.13-.15.24-.21.37a.59.59,0,0,0-.07.39,1.45,1.45,0,0,0,.09.22,2.18,2.18,0,0,1,.09.23c.07.17.15.32.22.48a3.7,3.7,0,0,0,.25.43c.09.14.17.28.25.43a2.36,2.36,0,0,0,.28.42l.3.41c.1.14.21.25.3.39a1.13,1.13,0,0,0,.12.18c0,.07.11.07.19,0a1.45,1.45,0,0,1,.22-.09.85.85,0,0,0,.22-.09c.06,0,.08-.1.14-.13a1.22,1.22,0,0,0,.17-.15,1,1,0,0,1,.34-.27,1.6,1.6,0,0,1,.48-.11l.51-.05a4.89,4.89,0,0,0,.53-.09c.15,0,.29,0,.36-.2a.31.31,0,0,0,0-.21c0-.07-.09-.14-.08-.22s.14-.12.22-.11a.72.72,0,0,0,.33,0c.13-.07.15-.22.22-.34a.42.42,0,0,0,.08-.18.4.4,0,0,1,.07-.21.19.19,0,0,1,.16-.1l.24,0a.91.91,0,0,0,.23,0,.27.27,0,0,0,.13-.1.78.78,0,0,1,.3-.24,1,1,0,0,1,.79.1.91.91,0,0,1,.16.11c.06.05.11.09.18.05a1,1,0,0,0,.18-.1,1.71,1.71,0,0,1,.23-.13c.32-.17.64-.33,1-.48l.48-.23a1.63,1.63,0,0,1,.45-.2,2.26,2.26,0,0,1,.26,0,1.33,1.33,0,0,1,.28,0,1.13,1.13,0,0,1,.47.15c.29.21.56.43.83.65s.57.44.85.66c.56.43,1.07.91,1.62,1.35a6.44,6.44,0,0,0,.84.61c.3.18.62.34.93.51a1.84,1.84,0,0,1,.39.28,1.23,1.23,0,0,1,.26.37c.07.14.12.3.18.45a2.35,2.35,0,0,0,.22.45,1.11,1.11,0,0,0,.25.36,1,1,0,0,0,.18.1l.21.14a1.85,1.85,0,0,0,1,.12,1.5,1.5,0,0,1,.51.07c.16,0,.31.12.47.18a2.65,2.65,0,0,0,.49.2.69.69,0,0,0,.47,0c.3-.15.56-.37.87-.52a3.53,3.53,0,0,1,1-.28,2.36,2.36,0,0,1,.53,0l.56,0a3.3,3.3,0,0,1,1,.2,2.61,2.61,0,0,1,.43.24l.44.25a4.21,4.21,0,0,1,.45.28l.44.27.19.15c.06.06.11.12.17.17a.49.49,0,0,0,.28.13s.21,0,.12.08-.24.15-.21.31a.26.26,0,0,0,.09.16.72.72,0,0,0,.19.11,2,2,0,0,0,.46.17,5.5,5.5,0,0,0,1.06.14h.53a1.36,1.36,0,0,1,.49.08,1,1,0,0,1,.16.12.69.69,0,0,1,.17.17,1.66,1.66,0,0,1,.06.21.74.74,0,0,1,0,.25,3.07,3.07,0,0,1,0,.53,3,3,0,0,0,0,.52.54.54,0,0,0,0,.21,1.59,1.59,0,0,0,.13.22c.1.15.19.31.27.46a1.66,1.66,0,0,1,.12.5.72.72,0,0,1-.09.45,1.48,1.48,0,0,1-.29.37c-.12.13-.24.25-.37.37a4.31,4.31,0,0,0-.37.37,2.41,2.41,0,0,0-.29.4,2.13,2.13,0,0,0-.18.94,4.73,4.73,0,0,1,0,.52A1.72,1.72,0,0,1,73,32a4.19,4.19,0,0,0-.33,1,1.36,1.36,0,0,0,.09.48,1.72,1.72,0,0,0,.23.42l.28.35a2,2,0,0,1,.21.41,2.11,2.11,0,0,1,.14.49,1.25,1.25,0,0,1,0,.51,2.3,2.3,0,0,0-.23.88.6.6,0,0,0,.26.37c.12.1.26.17.39.27a2.11,2.11,0,0,1,.35.32.54.54,0,0,1,.11.18.69.69,0,0,1,0,.25,4.51,4.51,0,0,0,.07.53,3.76,3.76,0,0,0,.13.48c0,.14.17.21.27.3a1,1,0,0,0,.16.12.63.63,0,0,0,.24,0,4.62,4.62,0,0,0,1,0,8,8,0,0,1,1.08-.13,2.1,2.1,0,0,1,1,.17,1.7,1.7,0,0,1,.39.27,1.24,1.24,0,0,1,.25.39c.08.16.14.32.22.47a4,4,0,0,1,.21.47c0,.07,0,.15.08.22a.77.77,0,0,0,.14.21,2.28,2.28,0,0,0,.38.3,1.54,1.54,0,0,0,.42.17l.47.16.45.15a3.74,3.74,0,0,0,.48.12,2.23,2.23,0,0,1,.45.08l.18.08a.44.44,0,0,0,.23,0l.21,0a1,1,0,0,0,.24,0c.07,0,.12-.06.19,0s.13.18,0,.26l-.21.12a2.09,2.09,0,0,1-.48.22c-.17.06-.34.11-.5.18a2.85,2.85,0,0,0-.45.25l-.42.25c-.13.1-.25.2-.38.32a4,4,0,0,0-.35.36c-.12.13-.22.27-.34.4a3.52,3.52,0,0,1-.79.53,2.18,2.18,0,0,1-.47.21c-.16,0-.33.07-.5.11a3.08,3.08,0,0,0-.47.19,1.31,1.31,0,0,0-.4.22,2.66,2.66,0,0,0-.32.35,4.27,4.27,0,0,1-.8.67,1.5,1.5,0,0,1-.42.21l-.49.13a.63.63,0,0,1-.23,0,1.89,1.89,0,0,0-.23,0,.66.66,0,0,0-.24,0l-.24.06a1.4,1.4,0,0,0-.49.15.51.51,0,0,0-.16.13.59.59,0,0,1-.19.13l-.46.22a2.49,2.49,0,0,1-.47.21.85.85,0,0,0-.22,0,1,1,0,0,1-.24.09l-.23,0-.23.09a2.58,2.58,0,0,0-.46.18l-.41.26a.79.79,0,0,0-.26.38,2.25,2.25,0,0,1-.33.87,1.34,1.34,0,0,1-.38.28l-.45.25a4.09,4.09,0,0,0-.46.25c-.13.09-.25.2-.39.29a2,2,0,0,0-.39.24,2.59,2.59,0,0,0-.31.35c-.1.14-.2.26-.3.39a3.81,3.81,0,0,0-.29.41,2.88,2.88,0,0,1-.3.39,3.15,3.15,0,0,0-.31.41c-.18.28-.3.6-.5.87s-.43.52-.62.8-.18.28-.28.4a1.56,1.56,0,0,1-.35.33,1.6,1.6,0,0,1-.45.23,3.68,3.68,0,0,0-.45.21.83.83,0,0,0-.34.3,1.27,1.27,0,0,0-.08.44,1.94,1.94,0,0,0,.24,1,.9.9,0,0,1,.08.21.57.57,0,0,1,0,.26,1,1,0,0,1-.05.24.49.49,0,0,1-.11.2,1.89,1.89,0,0,1-.31.25.26.26,0,0,0-.09.34,1.87,1.87,0,0,0,.28.35l.36.39a4.08,4.08,0,0,0,.36.36A1.8,1.8,0,0,1,65,61a2.13,2.13,0,0,1,.15.49,3.15,3.15,0,0,1,0,.53,2.27,2.27,0,0,1-.09.52.66.66,0,0,0,0,.44,1.54,1.54,0,0,0,.23.39,2.13,2.13,0,0,0,.34.33c.12.12.25.24.37.37a1.83,1.83,0,0,0,.35.33.91.91,0,0,0,.79,0c.14-.06.25-.07.35,0a.82.82,0,0,1,.21.4,1.4,1.4,0,0,1,0,.5,1.73,1.73,0,0,0,0,.51,1.3,1.3,0,0,0,.37.82l.17.11c.07.05.13.11.2.15s.28.2.41.31a2.13,2.13,0,0,1,.33.34,1.43,1.43,0,0,0,.38.31c.27.16.58.28.86.44a.91.91,0,0,1,.38.32c0,.06,0,.13.08.19a1.33,1.33,0,0,0,.14.19c.09.12.13.27.22.4l.15.17.16.18a2.73,2.73,0,0,0,.35.33,1.09,1.09,0,0,1,.22.41c.06.16.14.32.2.49a2.48,2.48,0,0,0,.2.44c.08.13.15.27.24.39a2.28,2.28,0,0,0,.33.36,3.85,3.85,0,0,0,.79.66,3.17,3.17,0,0,0,.46.19l.49.17a2.77,2.77,0,0,0,.5.1,2.44,2.44,0,0,1,.46.07.57.57,0,0,1,.33.26,4.09,4.09,0,0,1,.25.46,1.88,1.88,0,0,0,.22.42c0,.06.1.12.14.19s.1.15.15.22a2.19,2.19,0,0,0,.34.34,3,3,0,0,1,.35.36c.1.13.19.27.3.39s.23.19.32.3.08.14.12.2a1.66,1.66,0,0,0,.16.21l.33.37a3.79,3.79,0,0,1,.3.4c.1.15.18.3.28.45a4.56,4.56,0,0,1,.24.44,1,1,0,0,1,.1.46,2.84,2.84,0,0,0,.06.5c0,.17.11.34.15.51a1.75,1.75,0,0,0,.19.42c.09.15.17.3.27.45s.19.29.28.43.19.3.28.45a7.21,7.21,0,0,1,.49.91c.13.32.2.66.3,1,0,.15.09.31.16.47s.16.25.21.4a3.68,3.68,0,0,0,.15.47,1.18,1.18,0,0,0,.26.37c.26.24.55.44.82.66s.27.22.42.32.28.18.42.28.24.21.36.31a3.65,3.65,0,0,1,.37.29,2.92,2.92,0,0,1,.32.38,2.51,2.51,0,0,1,.26.45,2.42,2.42,0,0,1,.17,1,4.61,4.61,0,0,1,0,.53,2.54,2.54,0,0,1-.17.46,1.53,1.53,0,0,1-.19.41.53.53,0,0,1-.32.19,3.31,3.31,0,0,1-.54.06,4.73,4.73,0,0,0-.53,0,4,4,0,0,0-1,.28c-.34.11-.68.19-1,.27l-1.06.29a3.86,3.86,0,0,1-.49.09l-.55.08a4.55,4.55,0,0,1-.53,0,4.81,4.81,0,0,1-.53-.07,2.86,2.86,0,0,0-.51-.09.88.88,0,0,1-.23,0,.28.28,0,0,1-.17-.11.25.25,0,0,1,0-.37,1.33,1.33,0,0,1,.39-.21l.22-.1a1.24,1.24,0,0,0,.18-.14,2,2,0,0,1,.37-.22.57.57,0,0,0,.25-.32,1.16,1.16,0,0,0,0-.49,2,2,0,0,0-.19-.48c0-.08-.07-.15-.1-.22s0-.16-.08-.23a.36.36,0,0,0-.14-.16,1.54,1.54,0,0,1-.17-.19,1,1,0,0,0-.12-.16,1,1,0,0,0-.22-.14c-.26-.12-.55-.2-.8-.33a.66.66,0,0,1-.28-.24.62.62,0,0,1,0-.46,3.89,3.89,0,0,1,0-.49,5.17,5.17,0,0,1,.11-.54,1.5,1.5,0,0,1,.14-.47,3,3,0,0,1,.28-.41,1,1,0,0,0,.2-.38.67.67,0,0,0-.07-.44.66.66,0,0,0-.15-.14l-.25-.15a2.25,2.25,0,0,0-.45-.19c-.16-.06-.32-.11-.48-.18a3.54,3.54,0,0,1-.41-.26,2.36,2.36,0,0,1-.67-.69c-.22-.29-.43-.58-.62-.89l-.27-.46c-.09-.15-.18-.3-.26-.45s-.13-.31-.21-.46l-.25-.45a1.14,1.14,0,0,0-.26-.36,1.33,1.33,0,0,0-.41-.25l-.51-.13a3,3,0,0,1-.5-.17,1.91,1.91,0,0,1-.41-.26,3.62,3.62,0,0,0-.43-.24l-.45-.19a1.36,1.36,0,0,1-.41-.26,1.14,1.14,0,0,1-.15-.16.39.39,0,0,1,0-.24,2.39,2.39,0,0,1,.2-.43l.13-.22a.39.39,0,0,0,.07-.23.76.76,0,0,0-.08-.21c0-.08-.07-.17-.11-.25a4.13,4.13,0,0,1-.39-1,1.74,1.74,0,0,1,.06-1,1.44,1.44,0,0,1,.23-.4,1.49,1.49,0,0,0,.23-.43.58.58,0,0,0,0-.45.94.94,0,0,0-.29-.34.91.91,0,0,0-.42-.17l-.53-.1-1.07-.25a3,3,0,0,1-1-.37q-.2-.14-.39-.3a1.94,1.94,0,0,1-.37-.33l-.29-.36a1,1,0,0,0-.16-.12.38.38,0,0,0-.24,0,3.32,3.32,0,0,1-1-.17,4.16,4.16,0,0,1-.5-.16,1.29,1.29,0,0,0-.5-.14,2.41,2.41,0,0,0-.52.11,3.71,3.71,0,0,0-.47.16c-.34.12-.67.21-1,.32a2.68,2.68,0,0,1-.49.11.73.73,0,0,0-.41.23l-.17.15-.19.14c-.12.1-.24.22-.36.33a2.48,2.48,0,0,1-.37.29l-.42.28a4.37,4.37,0,0,1-1.87.75,6.52,6.52,0,0,1-2.16-.05l-.5-.13a1,1,0,0,1-.44-.18A1.94,1.94,0,0,1,54,72c-.07-.16-.15-.32-.21-.47a1.79,1.79,0,0,0-.25-.45.4.4,0,0,0-.13-.13.44.44,0,0,0-.23,0h-.25a.49.49,0,0,1-.24,0,1.86,1.86,0,0,1-.2-.1,2,2,0,0,1-.19-.12A1.64,1.64,0,0,1,52,70.3c-.08-.15-.16-.3-.23-.46a1.18,1.18,0,0,0-.26-.37,2.09,2.09,0,0,0-.91-.3,1.4,1.4,0,0,1-.42-.18.58.58,0,0,1-.17-.14.43.43,0,0,0-.16-.14,1.61,1.61,0,0,0-.48-.08,4.41,4.41,0,0,0-.52,0,4.59,4.59,0,0,0-.51.1l-.48.14c-.16,0-.32,0-.48,0a.8.8,0,0,0-.42.21c-.13.1-.25.22-.37.33l-.42.33a2.74,2.74,0,0,0-.36.32,2,2,0,0,0-.28.44,1.7,1.7,0,0,1-.54.65,1,1,0,0,1-.94.13.89.89,0,0,1-.41-.21A1.18,1.18,0,0,1,43.5,71a1.45,1.45,0,0,0-.17-.18l-.4-.35a1.19,1.19,0,0,0-.41-.26.68.68,0,0,0-.77.34,2.27,2.27,0,0,1-.29.4,1,1,0,0,1-.16.12.47.47,0,0,1-.24,0,4.89,4.89,0,0,0-.53.09,2.35,2.35,0,0,1-.53,0c-.35,0-.71,0-1.07,0h-1.1a1.61,1.61,0,0,1-.49-.07,1.47,1.47,0,0,1-.42-.24.72.72,0,0,0-.2-.09,1.51,1.51,0,0,1-.22-.11c-.13-.09-.25-.19-.38-.27a2.53,2.53,0,0,0-.91-.35c-.36-.07-.72-.1-1.07-.15a5.55,5.55,0,0,1-1-.3c-.29-.11-.59-.22-.88-.36a3.06,3.06,0,0,1-.8-.52c-.24-.22-.44-.48-.68-.7a1.75,1.75,0,0,0-.39-.28,1.7,1.7,0,0,1-.38-.26,1.58,1.58,0,0,0-.36-.26.9.9,0,0,1-.35-.29c-.08-.13-.13-.27-.22-.39L29,66.37a1.43,1.43,0,0,1-.14-.2c-.09-.13-.25-.15-.38-.22L28,65.7a1.5,1.5,0,0,1-.4-.25c-.11-.11-.22-.23-.34-.33a1.21,1.21,0,0,1-.16-.16,1.49,1.49,0,0,1-.15-.2,2,2,0,0,0-.34-.37c-.13-.11-.27-.21-.41-.31s-.26-.21-.4-.3a2.33,2.33,0,0,0-.91-.3,2.62,2.62,0,0,0-.56,0l-.25,0a.85.85,0,0,1-.23,0c-.14,0,0-.25,0-.33s0-.33.07-.49a1,1,0,0,1,.54-.59,1.8,1.8,0,0,1,.92-.08,2.94,2.94,0,0,0,.51,0l.25,0a.83.83,0,0,0,.27,0,1.35,1.35,0,0,0,.38-.26,3,3,0,0,1,.41-.29,1.59,1.59,0,0,0,.38-.29,3,3,0,0,0,.32-.39l.16-.18a1.27,1.27,0,0,0,.13-.19.23.23,0,0,1,.14-.13c.06,0,.13,0,.17-.12a.4.4,0,0,1,.14-.15l.21-.14c.14-.1.28-.18.42-.27a.82.82,0,0,0,.31-.33,2.28,2.28,0,0,0,.11-.45,2.86,2.86,0,0,0,.09-.51c0-.17,0-.34,0-.51a.53.53,0,0,0,0-.22,2.34,2.34,0,0,1-.09-.24c0-.17-.11-.33-.15-.5s-.07-.35-.12-.52l-.09-.21a.24.24,0,0,1,0-.2c0-.08,0-.13,0-.21a2.11,2.11,0,0,1,0-.25,3.43,3.43,0,0,0,.06-.55c0-.16,0-.32,0-.49a.62.62,0,0,0-.11-.37C29.14,54,29.07,54,29,54a.88.88,0,0,0-.21-.12c-.13-.06-.24-.11-.29-.25s-.06-.3-.11-.44a2,2,0,0,1,0-.24,1.55,1.55,0,0,0-.06-.23,1.52,1.52,0,0,0-.3-.32,1.4,1.4,0,0,1-.26-.39c-.07-.16-.16-.32-.23-.48a1.58,1.58,0,0,0-.24-.39c-.2-.24-.46-.41-.67-.63a.75.75,0,0,1-.23-.37l0-.24a1,1,0,0,1,0-.24.61.61,0,0,1,.23-.34c.13-.11.28-.18.41-.28a.51.51,0,0,0,.22-.34.37.37,0,0,0-.22-.33,1,1,0,0,0-.45-.1,1.07,1.07,0,0,1-.25,0L26,48.15a1,1,0,0,1-.23-.06,1.47,1.47,0,0,0-.22-.1,2.78,2.78,0,0,1-.49-.08.82.82,0,0,1-.42-.58,1.83,1.83,0,0,1,0-.47.75.75,0,0,0,0-.47.6.6,0,0,0-.32-.29C24.15,46,24,46,23.89,46a1.37,1.37,0,0,1-.34-.34c-.11-.13-.23-.26-.35-.38s-.43-.49-.66-.71a7.08,7.08,0,0,0-.83-.61l-.42-.3a3,3,0,0,1-.4-.31,2.75,2.75,0,0,1-.54-.8c-.08-.15-.15-.3-.23-.46a2,2,0,0,0-.25-.42c-.11-.11-.25-.18-.35-.3a1,1,0,0,1-.22-.41,2.24,2.24,0,0,0-.28-.76.75.75,0,0,0-.36-.22.73.73,0,0,1-.37-.19.57.57,0,0,1-.14-.42c0-.16-.06-.33,0-.49a4,4,0,0,0,.09-.48.26.26,0,0,0-.24-.26,2.83,2.83,0,0,1-.4-.08.74.74,0,0,1-.33-.28,1.81,1.81,0,0,1-.3-.32,1.56,1.56,0,0,1-.16-.49.89.89,0,0,0-.12-.42c-.08-.12-.2-.2-.28-.33a1.06,1.06,0,0,1-.13-.46l0-.23a2.45,2.45,0,0,1,0-.27A.67.67,0,0,0,16,34.8a.45.45,0,0,0-.4-.1,4.05,4.05,0,0,0-.5.12l-.23,0a.3.3,0,0,1-.16.05c-.05,0,0-.08,0-.11s-.05-.08-.11-.09a.67.67,0,0,1-.31-.07c-.14-.08-.1-.26-.08-.39a2.42,2.42,0,0,1,.06-.46.49.49,0,0,1,.26-.32,1.69,1.69,0,0,1,.45-.14,2.27,2.27,0,0,1,.52-.09,2.3,2.3,0,0,1,.26,0h.29c.18,0,.35,0,.53.07a4.93,4.93,0,0,0,.54,0,7.73,7.73,0,0,0,1.08.07,2.84,2.84,0,0,0,.49-.1,1.41,1.41,0,0,0,.42-.26c.27-.2.55-.4.84-.59a2.1,2.1,0,0,1,.42-.22,4.21,4.21,0,0,1,.49-.09c.17,0,.33-.11.5-.15a.82.82,0,0,0,.42-.2.55.55,0,0,1,.17-.13,2,2,0,0,1,.24-.05l.51-.12.51-.14a3,3,0,0,1,.52,0,5.5,5.5,0,0,1,1.08.13,1,1,0,0,0,.24,0,.73.73,0,0,0,.23-.09.62.62,0,0,0,.26-.33.29.29,0,0,0,0-.2,1.83,1.83,0,0,0-.08-.25,3.9,3.9,0,0,0-.2-.47,2.32,2.32,0,0,1-.19-.47,4.7,4.7,0,0,1-.12-.51,5.39,5.39,0,0,0-.24-1,.57.57,0,0,0-.28-.29l-.4-.23-.47-.23-.44-.25a.27.27,0,0,1-.15-.13.93.93,0,0,1,0-.24c0-.17-.06-.34-.08-.51a4.69,4.69,0,0,1,0-.53,4.19,4.19,0,0,1,0-.5,1.6,1.6,0,0,1,.19-.45c.08-.14.16-.29.25-.43s.41-.56.62-.83A11.73,11.73,0,0,0,25.23,22c.18-.31.31-.63.46-.95a2.38,2.38,0,0,1,.48-.77,2.19,2.19,0,0,1,.82-.48,3.29,3.29,0,0,0,.44-.16,1.38,1.38,0,0,0,.34-.3.84.84,0,0,0,.16-.43,2.86,2.86,0,0,0,.09-.51c0-.17,0-.35,0-.53s0-.34,0-.51a3.84,3.84,0,0,1,.19-1,9,9,0,0,1,.42-1,10.28,10.28,0,0,0,.63-2,6.61,6.61,0,0,1,.23-1,3.36,3.36,0,0,1,.22-.42,1.63,1.63,0,0,0,.18-.46,6,6,0,0,0,.16-1,4.6,4.6,0,0,1,.06-.52,4.58,4.58,0,0,1,.15-.49,1,1,0,0,0,0-.24S30.29,9,30.34,9Z"/></g></svg>