<svg xmlns="http://www.w3.org/2000/svg" viewBox="0 0 100 100"><g id="Baara"><path d="M51.53,25.41s.09,0,.15.1.16.22.24.32l.35.36.71.7a12.07,12.07,0,0,1,1.26,1.42,3,3,0,0,1,.43.76,2,2,0,0,1,.09.93c0,.31-.1.62-.1.94a2.27,2.27,0,0,0,.12.82,1.57,1.57,0,0,0,1.14,1,5.16,5.16,0,0,0,.88.11,7.77,7.77,0,0,1,1,.14,10.62,10.62,0,0,1,1.83.61,3.07,3.07,0,0,0,1.77.39,1.85,1.85,0,0,0,.74-.43,2.29,2.29,0,0,1,.78-.47A4.08,4.08,0,0,1,64.71,33l1,.14a3.38,3.38,0,0,0,1,.1,1.9,1.9,0,0,0,.84-.36c.26-.17.52-.35.77-.54.47-.37.82-.94,1.36-1.21a4.22,4.22,0,0,1,.86-.24,4.55,4.55,0,0,1,1-.22,3,3,0,0,1,1.72.71c.53.37,1.06.73,1.57,1.12s1,.87,1.52,1.3A9.81,9.81,0,0,0,77.86,35a1.72,1.72,0,0,1,.61.56,2,2,0,0,1,.21.72c.09.61.14,1.23.29,1.83a9,9,0,0,0,.71,1.83c.29.59.53,1.2.79,1.8a8.62,8.62,0,0,0,.43.86,2.33,2.33,0,0,1,.34.87,1.2,1.2,0,0,0,.23.78.7.7,0,0,0,.71.14A1.61,1.61,0,0,1,83,44.2a1,1,0,0,1,.54.33,3.6,3.6,0,0,1,.43.52,2.81,2.81,0,0,0,.54.55,2.54,2.54,0,0,1,.6.53,3.56,3.56,0,0,1,.33.68.62.62,0,0,0,.59.36,2,2,0,0,1,.78,0l.4.14a1.62,1.62,0,0,0,.44,0,1.59,1.59,0,0,1,.89.1c.29.18,0,.46,0,.71s.27.37.36.6-.32.64-.57.8-.31.19-.46.3-.48.41-.72.62a7.75,7.75,0,0,0-1.3,1.13,1.15,1.15,0,0,0-.17,1.4,1.61,1.61,0,0,0,1.49.6,3.81,3.81,0,0,0,.79-.31c.28-.1.52,0,.79.07a6.25,6.25,0,0,0,.86-.08.64.64,0,0,1,.59.3.8.8,0,0,1-.16.78,2.78,2.78,0,0,1-.59.64,3.12,3.12,0,0,1-.72.48c-.18.09-.49.17-.41.44s.35.38.55.47a2.91,2.91,0,0,1,.79.39,1.8,1.8,0,0,1,.54.74,3,3,0,0,1,.14.94,2.05,2.05,0,0,0,.77,1.44,4.67,4.67,0,0,0,.67.5,3,3,0,0,0,.88.29,2.11,2.11,0,0,0,.9.08c.07,0,.21-.06.26,0s-.08.21-.13.26a7.82,7.82,0,0,0-1.16,1.47,7.41,7.41,0,0,1-1.2,1.42c-.24.2-.5.38-.76.56a1.77,1.77,0,0,1-.73.41,1.88,1.88,0,0,0-.33,0,1.35,1.35,0,0,0-.35.28c-.23.19-.5.34-.75.52a1.67,1.67,0,0,0-.61.63,3,3,0,0,0-.19.78,1.82,1.82,0,0,1-.26.75,1,1,0,0,1-.74.34,4.92,4.92,0,0,1-.93-.11c-.35,0-.7-.1-1-.13-.68-.07-1.36-.15-2-.18a5.32,5.32,0,0,0-1.94.25,6.9,6.9,0,0,0-.87.41l-.43.22c-.14.06-.28.09-.43.14s-.21.07-.17.19.15.16.24.21c.26.16.53.34.79.52a2.4,2.4,0,0,1,1,1.23,2,2,0,0,0,.33.77,1.69,1.69,0,0,0,.72.36c.23.1.41.3.64.4s.26.06.39.1a1.21,1.21,0,0,1,.39.24c.23.2.45.42.69.61a2.22,2.22,0,0,1,.61.53c.14.23,0,.38-.25.4s-.3,0-.45,0a2.6,2.6,0,0,0-.47.09,4,4,0,0,1-.92.17,1.55,1.55,0,0,1-.87-.32,2.63,2.63,0,0,0-.89-.39,4,4,0,0,0-1-.06c-.67,0-1.35,0-2,.07s-1.35.19-2,.31c-.34.06-.66.15-1,.23a5.57,5.57,0,0,1-1,.11c-.68,0-1.36,0-2,0a3.4,3.4,0,0,1-1.87-.19,4.14,4.14,0,0,1-1.14-1.18c-.38-.47-.84-.89-1.22-1.36a3.43,3.43,0,0,1-.44-.7,2.15,2.15,0,0,0-.35-.67,2.06,2.06,0,0,0-.77-.38c-.3-.1-.62-.19-.93-.26s-.66-.08-1-.11a8.54,8.54,0,0,1-1-.17,6.1,6.1,0,0,0-1-.17,4.84,4.84,0,0,0-.85,0,2.1,2.1,0,0,1-.75,0,1.39,1.39,0,0,1-.61-.49,3.93,3.93,0,0,0-1.07-1.19,1.41,1.41,0,0,0-.86-.08,2.12,2.12,0,0,1-.94-.06A10.37,10.37,0,0,0,55,67.09a2.72,2.72,0,0,0-.94.1c-.31.07-.63.09-.94.14a2.1,2.1,0,0,0-.8.3,1.69,1.69,0,0,1-.77.35,4.63,4.63,0,0,1-1-.14c-.33,0-.67-.08-1-.12a8.28,8.28,0,0,0-2-.06A.8.8,0,0,0,47,68a2.55,2.55,0,0,0-.21.81,4,4,0,0,1-.65,1.67c-.19.24-.42.46-.6.71s-.32.51-.51.75a2.24,2.24,0,0,1-1.57.75c-.32,0-.65.06-1,.12s-.65.13-1,.2a10.31,10.31,0,0,1-2,.24,20.62,20.62,0,0,0-2.08,0,7,7,0,0,0-1.9.47,10.13,10.13,0,0,1-1.78.7A7,7,0,0,1,30,73.93a15.81,15.81,0,0,0-1.85-.68,2.63,2.63,0,0,0-1,0,7.77,7.77,0,0,1-1,.06,2.77,2.77,0,0,1-.95-.1,2.53,2.53,0,0,0-.94-.18,7.8,7.8,0,0,0-1,.13,8.59,8.59,0,0,1-1,.08c-.67,0-1.35.07-2,.09a14.9,14.9,0,0,1-2.11-.09c-.67-.07-1.35-.18-2-.22s-1.32,0-2-.12a1.7,1.7,0,0,1-1.29-.74,1.19,1.19,0,0,0-.5-.54.57.57,0,0,0-.65.15c-.15.2-.12.49-.29.67s-.47.06-.65-.07-.49-.43-.74-.64-.51-.39-.77-.57a4.76,4.76,0,0,0-.82-.46c-.3-.14-.61-.25-.91-.38a2.7,2.7,0,0,1-1.23-1.06,1.58,1.58,0,0,1,.1-1.65,3.58,3.58,0,0,1,1.28-1.13A6.54,6.54,0,0,1,9.5,65.9a3.46,3.46,0,0,0,1.66-.7,6.81,6.81,0,0,0,.64-.67,2,2,0,0,1,.67-.56A12.62,12.62,0,0,1,14,63.66c.13,0,.37-.13.32-.31s-.32-.22-.48-.23a4.15,4.15,0,0,1-.7-.07.81.81,0,0,1-.63-.5c-.15-.57.92-.53,1.23-.56s1.56-.08,1.07-.62c-.17-.18-.43-.28-.49-.55a1,1,0,0,1,.31-.8,14.86,14.86,0,0,1,1.28-1.46,7.38,7.38,0,0,0,.65-.73,5.16,5.16,0,0,0,.51-.8c.2-.37.44-.81.87-.94a1.2,1.2,0,0,1,.79.07c.3.1.59.22.89.29a5.3,5.3,0,0,0,1.86.13c.62-.06,1.14-.39,1.74-.5a1.73,1.73,0,0,1,.9.09,4.14,4.14,0,0,0,.91.27,2.55,2.55,0,0,0,1.69-.56,2.68,2.68,0,0,1,.79-.36,1.57,1.57,0,0,1,.91.1,14.78,14.78,0,0,0,1.83.66,1.87,1.87,0,0,0,.91,0,1.41,1.41,0,0,0,.67-.51,4.08,4.08,0,0,0,.48-.74c.14-.27.22-.56.34-.84a2.07,2.07,0,0,1,1.2-1,4,4,0,0,0,.7-.32,1.42,1.42,0,0,0,.28-.22,1,1,0,0,1,.3-.27,1.28,1.28,0,0,1,.82,0c.33.06.67.11,1,.15.69.07,1.38.15,2.08.21a8.7,8.7,0,0,0,1,0c.34,0,.68,0,1,0s.64.08,1,.09a2.41,2.41,0,0,0,.95-.23,1.45,1.45,0,0,1,.82-.1,1.07,1.07,0,0,1,.57.37,2.15,2.15,0,0,1,.38.61.8.8,0,0,0,.47.5c.63.15.54-1.06.55-1.4a6.67,6.67,0,0,1,.13-1c.07-.32.17-.64.23-1a2.44,2.44,0,0,0-.4-1.76,12.08,12.08,0,0,0-1-1.56,6.76,6.76,0,0,0-.63-.68,2.78,2.78,0,0,1-.5-.68.73.73,0,0,0-.58-.48c-.28,0-.58.21-.85.07s-.41-.41-.61-.6a1.4,1.4,0,0,0-.78-.35,1.23,1.23,0,0,1-.72-.23c-.2-.19-.19-.48-.27-.73-.16-.54-.73-.56-1.18-.4-.24.08-.5.29-.75.17a2.68,2.68,0,0,1-.28-.18,1,1,0,0,0-.42-.11.68.68,0,0,1-.58-.26.61.61,0,0,1,.16-.71,4,4,0,0,1,1.48-.62,4.87,4.87,0,0,0,.8-.38.85.85,0,0,0,.44-.57c.07-.31.11-.63.18-.94a3.37,3.37,0,0,0,.16-.94,3.7,3.7,0,0,0-.63-1.54,2.65,2.65,0,0,1,0-1.88c.15-.65.25-1.32.4-2a3.89,3.89,0,0,1,.67-1.61c.37-.47.9-.78,1.27-1.25A14,14,0,0,0,42.34,29,3,3,0,0,1,43.48,28a1.84,1.84,0,0,0,.59-.48,3.24,3.24,0,0,1,.57-.65c.23-.19.48-.35.72-.54.44-.35,1-.85,1.58-.71a2.27,2.27,0,0,1,.77.4,6,6,0,0,0,1.74.67c.49.12,1.09.31,1.5-.09a1.27,1.27,0,0,0,.36-.73C51.33,25.69,51.39,25.39,51.53,25.41Z"/></g></svg>