<svg xmlns="http://www.w3.org/2000/svg" viewBox="0 0 100 100"><g id="Baara"><path d="M6.75,36.84c0-.21.28-.33.49-.37a3,3,0,0,1,.9.05,5.78,5.78,0,0,1,.89.29,1.13,1.13,0,0,0,.81,0c.17-.06.42-.19.38-.41a.87.87,0,0,0-.22-.32c-.11-.1-.23-.19-.35-.28s-.51-.34-.73-.54a10.06,10.06,0,0,1-1.28-1.41,3.3,3.3,0,0,0-.59-.59,2.79,2.79,0,0,1-.65-.53c-.06-.07-.15-.19-.1-.28s.26-.05.35,0a2,2,0,0,0,.91.06,4.37,4.37,0,0,1,1-.13,1.42,1.42,0,0,0,.82-.34,1.49,1.49,0,0,0,.32-.24c.09-.11.13-.24.21-.34s.19-.11.27-.18a.47.47,0,0,0,.14-.32c0-.32-.05-.66,0-1s0-.66.07-1c0-.16,0-.32.05-.48a2.08,2.08,0,0,0,.07-.5c0-.19-.14-.45,0-.62a.93.93,0,0,1,.38-.2,2.36,2.36,0,0,1,.45-.08,1.94,1.94,0,0,1,.88.19c.28.14.53.32.81.46s.57.26.84.41a2,2,0,0,0,.92.29h.48a1.08,1.08,0,0,1,.44,0c.23.1.25.38.31.59a1.12,1.12,0,0,0,.49.62c.21.12.38,0,.51-.16a6.17,6.17,0,0,0,.38-.72A5.65,5.65,0,0,1,17.8,28a1.93,1.93,0,0,0,.38-.85c.05-.63-.51-1-1-1.21-.29-.12-.54-.31-.84-.42a1.46,1.46,0,0,1-.39-.16c-.12-.09-.24-.2-.35-.3a3.25,3.25,0,0,1-.51-.72,2.17,2.17,0,0,1-.27-.93,2.58,2.58,0,0,1,.52-1.72,2.11,2.11,0,0,1,1.47-.89,2.07,2.07,0,0,0,.89-.16,1.1,1.1,0,0,1,.89-.1,7.08,7.08,0,0,1,.88.31,1.67,1.67,0,0,0,.44.17,1.87,1.87,0,0,0,.47,0,3.3,3.3,0,0,1,1,.09l.42.11c.15,0,.25-.07.37-.15a1.54,1.54,0,0,1,.84-.35c.14,0,.29,0,.43,0a1,1,0,0,0,.5-.17.77.77,0,0,1,1.15,0,2.24,2.24,0,0,0,.38.29,2.47,2.47,0,0,0,.75.4,2,2,0,0,0,.86-.14c.31-.07.61-.13.91-.22a1.85,1.85,0,0,0,.69-.44,2.8,2.8,0,0,1,.67-.47,3.34,3.34,0,0,1,.87-.31,2.43,2.43,0,0,1,.93,0,1.18,1.18,0,0,1,.43.19c.09.05.52.18.53.32s-.3,0-.43.07a.27.27,0,0,0-.2.23c-.07.3.07.59.05.88a2.74,2.74,0,0,1-.34.81.92.92,0,0,0,.11.85,6.84,6.84,0,0,1,.41.81,3.1,3.1,0,0,1,.18,1c0,.34.06.67.08,1a.59.59,0,0,1-.25.56c-.2.13-.47.15-.65.33a.89.89,0,0,0-.18.77,2.39,2.39,0,0,0,.12.46,1.09,1.09,0,0,1,.06.44c0,.32.2.58.17.91,0,.09-.09.25-.05.34s.25.12.35.17A2.62,2.62,0,0,1,32,30c.13.08.24.18.36.27a2.59,2.59,0,0,0,.79.37,1,1,0,0,1,.56.48,6.63,6.63,0,0,1,.21.88,1.49,1.49,0,0,0,.17.39c.08.15.2.26.29.41a1.61,1.61,0,0,1,.21.86,3.25,3.25,0,0,0,0,.44,1.76,1.76,0,0,1,0,.46.39.39,0,0,0,0,.24c.05.08.19,0,.26,0a2.6,2.6,0,0,1,.88-.07,5.57,5.57,0,0,0,1,0,2.08,2.08,0,0,1,.86,0,3.88,3.88,0,0,0,.81.28,2.45,2.45,0,0,0,1-.19c.31-.1.63-.18.95-.26a6.16,6.16,0,0,1,1.05-.14,2.22,2.22,0,0,0,.87-.24,2.39,2.39,0,0,0,.67-.6,3.09,3.09,0,0,1,.63-.62,1.55,1.55,0,0,1,.75-.34,1.83,1.83,0,0,1,.9.07,1.27,1.27,0,0,1,.28.24,2.12,2.12,0,0,0,.38.29c.25.14.52.23.77.36a1.16,1.16,0,0,1,.32.2,3.37,3.37,0,0,1,.29.35,1.3,1.3,0,0,0,.68.44,6.61,6.61,0,0,0,1,.18,2.1,2.1,0,0,1,1.63.75c.08.13.14.27.21.4s.18.3.27.44a2.21,2.21,0,0,0,.61.71,2.41,2.41,0,0,1,1.12,1.15,2.1,2.1,0,0,1,.14.9.82.82,0,0,1-.4.69c-.5.33-1.14.32-1.65.62a.5.5,0,0,0-.31.59,1.86,1.86,0,0,0,.49.69c.2.21.27.5.46.72a2.44,2.44,0,0,0,.65.51.75.75,0,0,1,.47.54,1.23,1.23,0,0,1-.2.72,3.73,3.73,0,0,0-.46.73,2.91,2.91,0,0,1-.29.86c-.18.26-.42.46-.59.72a1.12,1.12,0,0,0-.13.86c.07.31.16.61.24.92a1.1,1.1,0,0,0,.39.67c.23.16.52.14.76.27a1.48,1.48,0,0,1,.55.56.78.78,0,0,0,.21.29.71.71,0,0,0,.35,0,4.49,4.49,0,0,0,1-.08,1.56,1.56,0,0,0,.8-.32,2.65,2.65,0,0,1,.72-.52c.3-.12.63-.19.93-.33a3.82,3.82,0,0,1,.86-.36,3.54,3.54,0,0,1,1-.1,4,4,0,0,1,.91.22,3.63,3.63,0,0,1,.83.43,4.25,4.25,0,0,1,.76.58c.18.17.32.36.58.38a1,1,0,0,0,.43-.1c.11-.05.23-.15.37-.11s.18.15.27.23a.51.51,0,0,0,.39.14,3.46,3.46,0,0,0,1-.17A1.41,1.41,0,0,1,65,50a1.72,1.72,0,0,1,.7.55c.32.44.58,1.12,1.24,1.07a1.75,1.75,0,0,1,.85,0,.76.76,0,0,1,.45.52c.08.27.07.57.3.76a1.1,1.1,0,0,0,.7.2,16.21,16.21,0,0,1,2.08.27c.32,0,.63.15,1,.19a5.37,5.37,0,0,0,1.06,0,9.45,9.45,0,0,1,1.07-.07,1.36,1.36,0,0,1,.4,0,2.52,2.52,0,0,1,.42.24,4.56,4.56,0,0,0,.88.45,1.19,1.19,0,0,0,.46.06.89.89,0,0,1,.43,0,2.84,2.84,0,0,1,.85.47,1.41,1.41,0,0,0,.74.37,1.05,1.05,0,0,0,.71-.29,1.76,1.76,0,0,1,.39-.19c.13-.06.26-.15.4-.2a3.29,3.29,0,0,1,.88-.13,3.37,3.37,0,0,1,.95.09,4.7,4.7,0,0,1,.94.31c.14.07.28.16.42.22s.32.12.47.18c.54.25.94.71,1.47,1a2.92,2.92,0,0,0,.36.17c.13,0,.29,0,.34.12s-.06.58.14.85c.06.09.16.15.23.25a.55.55,0,0,1,0,.47,1.37,1.37,0,0,0,0,.85c.05.13.14.24.2.36a4.74,4.74,0,0,1,.15.5c0,.13.12.25.18.38a2.5,2.5,0,0,0,.15.38,7.69,7.69,0,0,0,.61.66,2.37,2.37,0,0,0,.71.47,6.32,6.32,0,0,0,.92.33,2.26,2.26,0,0,1,.8.45,2.53,2.53,0,0,0,.68.54,3.38,3.38,0,0,0,.84.09c.27,0,.41.23.62.37s.23.1.34.16a4.93,4.93,0,0,1,.46.23A1.58,1.58,0,0,1,93.72,65a3,3,0,0,1-.16.79,2.83,2.83,0,0,1-.14.41,1.07,1.07,0,0,0-.1.39.22.22,0,0,1-.1.2c-.14.1-.31.18-.46.27a4.78,4.78,0,0,0-.78.58,11,11,0,0,0-1.33,1.31,1.54,1.54,0,0,0-.38.79,6.77,6.77,0,0,1,0,.9,7.07,7.07,0,0,1-.36.79,1.82,1.82,0,0,0-.1.45c0,.16-.09.3-.12.45a.71.71,0,0,0,0,.41,2.35,2.35,0,0,1-.1,1.38,1.32,1.32,0,0,1-.26.36c-.1.12-.18.25-.27.37a3.55,3.55,0,0,1-.65.69,7.47,7.47,0,0,1-.74.51c-.25.14-.52.27-.77.43a2.11,2.11,0,0,0-.66.6,6.28,6.28,0,0,0-.39.83,8.35,8.35,0,0,1-.46.89c-.16.27-.36.52-.52.79s-.24.5-.52.64a1.61,1.61,0,0,1-.36.1,1.78,1.78,0,0,1-.51.06.87.87,0,0,1-.38-.2,2.37,2.37,0,0,0-.28-.27,1.16,1.16,0,0,0-.82,0,4,4,0,0,1-.9.16.83.83,0,0,1-.66-.39,6.36,6.36,0,0,1-.34-.75c-.14-.28-.19-.58-.33-.86a2,2,0,0,0-.56-.68c-.25-.2-.48-.41-.72-.64a3.28,3.28,0,0,0-.78-.56,4.93,4.93,0,0,0-.77-.44,2.21,2.21,0,0,1-.76-.36c-.18-.15-.3-.44-.58-.3a1.34,1.34,0,0,0-.33.3c-.11.12-.21.24-.33.35a2.73,2.73,0,0,1-.79.46,5.34,5.34,0,0,1-.75.39,1.23,1.23,0,0,1-.86-.14,3.28,3.28,0,0,0-.88-.24,2.26,2.26,0,0,0-.45,0,1,1,0,0,0-.4.17,2.39,2.39,0,0,0-.34.21.93.93,0,0,1-.38.17c-.27,0-.38-.19-.46-.41a3.61,3.61,0,0,0-.3-.73.51.51,0,0,0-.25-.23l-.18,0a.73.73,0,0,1-.25-.08c-.53-.25-1.1-.68-1.72-.45-.28.1-.53.34-.85.3a.38.38,0,0,1-.33-.45c0-.22.31-.43.17-.65s-.43-.27-.66-.36-.39-.25-.32-.52.3-.55.38-.85a3.21,3.21,0,0,0-.28-1.8,1.79,1.79,0,0,0-.38-.72c-.2-.18-.48,0-.66.1s-.58.32-.87.48-.57.33-.87.46a1.24,1.24,0,0,1-.84.13.77.77,0,0,1-.49-.56c-.07-.24-.08-.49-.16-.72a.88.88,0,0,0-.51-.54,1.35,1.35,0,0,1-.65-.5.49.49,0,0,1-.09-.35,1.68,1.68,0,0,0,0-.45.47.47,0,0,0-.57-.33,3.25,3.25,0,0,0-.84.35,2.52,2.52,0,0,1-1.78.53,7,7,0,0,1-1-.15c-.31,0-.62-.06-.93-.1a3.29,3.29,0,0,1-.93-.2,1.74,1.74,0,0,0-.45-.11c-.17,0-.34,0-.51,0a5.94,5.94,0,0,0-1.64.53c-.33.12-.83.29-1.1,0s-.17-.55-.29-.81A1,1,0,0,0,49,67a5.49,5.49,0,0,1-.78-.26,1.22,1.22,0,0,1-.47-.62,2.09,2.09,0,0,0-.35-.68,2.29,2.29,0,0,0-.78-.39c-.14,0-.26-.11-.39-.15a1,1,0,0,1-.37-.18,4.5,4.5,0,0,1-.58-.66c-.09-.11-.17-.23-.27-.33a3.07,3.07,0,0,1-.34-.29,1.2,1.2,0,0,1-.18-.31.78.78,0,0,0-.28-.29,2.54,2.54,0,0,1-.57-.65,4.33,4.33,0,0,0-.69-.66,5.25,5.25,0,0,0-.8-.47q-.44-.26-.84-.54a8.79,8.79,0,0,1-1.44-1.28,1.66,1.66,0,0,1-.25-.34c-.07-.15-.11-.27-.29-.29l-.39-.08a1,1,0,0,0-.46.05,3.57,3.57,0,0,0-.83.35c-.27.18-.54.36-.79.56a5.51,5.51,0,0,0-.67.6c-.22.24-.44.45-.68.67a4.34,4.34,0,0,1-.72.56,1.59,1.59,0,0,1-.76.34.51.51,0,0,1-.33-.19.69.69,0,0,0-.36-.21,2.87,2.87,0,0,0-1,0,1.5,1.5,0,0,1-1-.12c-.13-.07-.24-.17-.37-.25a2.53,2.53,0,0,0-.45-.19.67.67,0,0,1-.31-.17.45.45,0,0,1-.05-.36c0-.31.2-.58.25-.88a.73.73,0,0,0,0-.36c-.06-.13-.21-.19-.32-.27a.86.86,0,0,1-.26-.34c-.06-.13-.07-.28-.13-.42a3.82,3.82,0,0,0-.5-.78,2.93,2.93,0,0,0-.55-.67,4.37,4.37,0,0,0-.78-.47.78.78,0,0,1-.49-.62,2,2,0,0,0-.25-.82.93.93,0,0,0-.67-.43c-.32-.09-.64-.17-.94-.28a1.89,1.89,0,0,1-.7-.44.73.73,0,0,0-.74-.25c-.29.07-.54.28-.84.33a2,2,0,0,1-.89-.19,1.44,1.44,0,0,1-.77-.45c-.12-.15-.23-.56-.46-.58s-.23.1-.34.12a.41.41,0,0,1-.19,0,1.9,1.9,0,0,1-.25,0c-.12,0-.2-.16-.3-.22s-.24-.12-.33-.27a7.71,7.71,0,0,1-.39-.82,1.47,1.47,0,0,0-.6-.61c-.25-.16-.46-.37-.7-.55a2,2,0,0,0-.81-.36,3.05,3.05,0,0,0-1,0,2.13,2.13,0,0,1-1,0,.79.79,0,0,1-.51-.5c-.09-.28-.12-.58-.21-.86a7.09,7.09,0,0,0-.37-.9c-.13-.32-.27-.64-.41-1a9.23,9.23,0,0,0-.42-.9,3.53,3.53,0,0,0-.21-.32.64.64,0,0,0-.37-.15,3.54,3.54,0,0,0-.46,0l-.48,0a3,3,0,0,1-.73,0c-.25-.06-.32-.31-.36-.54a1.1,1.1,0,0,1,0-.44c0-.15.1-.28.12-.43a1.34,1.34,0,0,0,0-.4,1.18,1.18,0,0,0-.26-.37,1.49,1.49,0,0,1-.35-.8,3.77,3.77,0,0,0-.06-.89c-.09-.3-.34-.43-.54-.64A2.44,2.44,0,0,0,9,40a4.26,4.26,0,0,0-.78-.28,2,2,0,0,1-.71-.34A.58.58,0,0,1,7.33,39c0-.13,0-.25-.08-.35A1.88,1.88,0,0,1,7,38.39a1,1,0,0,1,0-.49,2.4,2.4,0,0,0-.23-.9A.3.3,0,0,1,6.75,36.84Z"/></g></svg>