<svg xmlns="http://www.w3.org/2000/svg" viewBox="0 0 100 100"><g id="Sarlahi"><path d="M28.4,37.47s0,0,.05,0l.11,0a2.36,2.36,0,0,1,.46,0h.22a.3.3,0,0,0,.17-.08.26.26,0,0,0,.09-.15,1.74,1.74,0,0,0,.05-.22.78.78,0,0,1,0-.22l.09-.21.1-.19a.38.38,0,0,1,.11-.16.88.88,0,0,1,.17,0c.07,0,.11,0,.18,0a.44.44,0,0,0,.15.08l.21,0a1.81,1.81,0,0,0,.23,0,.31.31,0,0,0,.15-.08.19.19,0,0,0,.09-.14,1.62,1.62,0,0,0,0-.22.25.25,0,0,1,.1-.16.7.7,0,0,1,.17-.13.79.79,0,0,1,.42-.1,1.27,1.27,0,0,1,.43.09,1.08,1.08,0,0,0,.43.1h.2a.69.69,0,0,0,.19-.1c.12-.08.23-.17.34-.26a4,4,0,0,1,.35-.26,1.1,1.1,0,0,1,.39-.12l.46-.09.21,0a1.57,1.57,0,0,1,.23,0,10.67,10.67,0,0,1,.82.34,1.62,1.62,0,0,0,.42.15l.22,0a.54.54,0,0,0,.22,0,1.11,1.11,0,0,0,.19-.09,1.17,1.17,0,0,1,.2-.06.65.65,0,0,0,.2,0l.2-.1a1.49,1.49,0,0,1,.43-.08l.2-.08a.78.78,0,0,1,.22,0,3.73,3.73,0,0,1,.47,0,3.54,3.54,0,0,0,.46,0h.21a.65.65,0,0,0,.2,0,1.4,1.4,0,0,0,.16-.1.43.43,0,0,0,.13-.17,2.52,2.52,0,0,1,.24-.33,1.63,1.63,0,0,0,.11-.17.55.55,0,0,1,.13-.17,1.53,1.53,0,0,0,.27-.3,2.54,2.54,0,0,0,.23-.34,1.53,1.53,0,0,0,.11-.42,1.6,1.6,0,0,1,0-.21c0-.07,0-.15,0-.21a.54.54,0,0,1,.1-.16,1.15,1.15,0,0,1,.17-.14c.13-.08.24-.18.37-.26l.18-.11.17-.14a1.76,1.76,0,0,1,.37-.23l.18-.1.23-.07.41-.17c.13-.06.27-.08.4-.13a1.08,1.08,0,0,0,.18-.11l.19-.15a6.05,6.05,0,0,1,.68-.55l.41-.23a2,2,0,0,1,.42-.19l.44-.14c.15-.05.29-.11.44-.15s.31-.07.47-.11a.66.66,0,0,0,.2-.06c.07,0,.11-.09.17-.12l.18-.06L47.7,29l.2-.05a.18.18,0,0,0,.14-.11,3.71,3.71,0,0,1,.23-.32.83.83,0,0,1,.34-.2,1.31,1.31,0,0,0,.36-.21,1.82,1.82,0,0,0,.31-.31,2.76,2.76,0,0,0,.18-.39.83.83,0,0,1,.25-.28,1,1,0,0,1,.17-.1,1.22,1.22,0,0,1,.19-.12l.21-.08.23-.06a7.91,7.91,0,0,1,1-.11,2.09,2.09,0,0,0,.43-.11,2.32,2.32,0,0,1,.46-.07l.46,0,.23,0a.78.78,0,0,0,.21,0,.58.58,0,0,1,.17-.06c.07,0,.13,0,.19.06s.27.11.39.19l.16.13a.72.72,0,0,0,.19.11l.19.08a.85.85,0,0,0,.23,0c.16,0,.31-.05.47-.06s.31,0,.46,0l.46,0h.47l.49,0,.45,0c.14,0,.28-.08.43-.11a.45.45,0,0,1,.2,0l.22.07a1.2,1.2,0,0,1,.37.15.74.74,0,0,1,.12.13.61.61,0,0,0,.15.12l.13.12a1.08,1.08,0,0,0,.18.11,1.11,1.11,0,0,0,.19.09l.22,0a5.38,5.38,0,0,0,1,.06,2.86,2.86,0,0,0,.91-.16,1.11,1.11,0,0,0,.19-.09c.07,0,.13-.08.19-.11a1.28,1.28,0,0,1,.43-.1,1.16,1.16,0,0,0,.41-.09,1.34,1.34,0,0,0,.31-.27c.09-.11.17-.24.25-.36a1,1,0,0,0,.12-.16.69.69,0,0,1,.1-.19l.26-.33a.37.37,0,0,0,.1-.34.91.91,0,0,0-.11-.16A.52.52,0,0,1,63.8,25a.26.26,0,0,1,0-.19c0-.07,0-.14,0-.2a1.15,1.15,0,0,1,.06-.17.14.14,0,0,1,.11-.1l.22,0,.25,0,.48,0,.48,0a5.78,5.78,0,0,1,.93,0,2.39,2.39,0,0,1,.85.33,1.94,1.94,0,0,0,.43.12,1.48,1.48,0,0,0,.47,0l.48-.05a1.77,1.77,0,0,0,.46-.08l.43-.15.44-.13a2.42,2.42,0,0,1,.46-.06l.47-.05a5.94,5.94,0,0,1,.94-.06l.47,0h.48c.32,0,.63.06.95.1.15,0,.3.06.45.09a3.43,3.43,0,0,1,.44.09,7.1,7.1,0,0,0,.92.17c.32.05.63.1.94.17.15,0,.29.09.44.13l.21.05.19.1c.11.08.23.15.35.22a1.76,1.76,0,0,1,.31.3l.12.17c0,.06,0,.13.08.2s.15.24.2.38a1.39,1.39,0,0,0,.06.19.21.21,0,0,0,0,.06l.07.07c0,.06,0,.08-.09.1a.44.44,0,0,0-.16.14.38.38,0,0,1-.1.12l-.16.1a3.48,3.48,0,0,1-.36.22,2.18,2.18,0,0,1-.44.11,1,1,0,0,0-.41.14.91.91,0,0,1-.16.11l-.2.11a.83.83,0,0,0-.31.28c-.07.12-.17.23-.25.35s-.12.26-.2.38a3.07,3.07,0,0,1-.29.34l-.3.34c-.1.13-.2.25-.29.38a2.12,2.12,0,0,0-.24.37,1.47,1.47,0,0,0-.13.42,1.55,1.55,0,0,0,0,.22,1.7,1.7,0,0,0,0,.22,1.5,1.5,0,0,0,.1.43.4.4,0,0,0,.1.18,1.14,1.14,0,0,0,.15.16L75,32l.21.11a3.2,3.2,0,0,0,.43.17l.44.14.19.06a.48.48,0,0,1,.16.08.69.69,0,0,1,.1.17l.12.21a3.39,3.39,0,0,1,.18.39,2.39,2.39,0,0,1,.09.45c0,.16,0,.31.08.46a4.33,4.33,0,0,0,.25.87.88.88,0,0,0,.09.2l.14.19a1.36,1.36,0,0,1,.17.39,2.28,2.28,0,0,1,.11.45,1.64,1.64,0,0,1,0,.22,1.89,1.89,0,0,1,0,.23c-.06.31-.12.62-.21.93,0,.15-.09.3-.13.45a2.64,2.64,0,0,1-.13.46c0,.14-.11.28-.17.41s-.16.26-.23.4a5.18,5.18,0,0,0-.36.84,1.87,1.87,0,0,0-.07.22.53.53,0,0,0,0,.22,3.59,3.59,0,0,0,0,.47,4.24,4.24,0,0,1,.1.46,2.32,2.32,0,0,1-.06.45,3.54,3.54,0,0,1-.08.45l-.12.45a3.52,3.52,0,0,1-.13.43c-.06.13-.15.25-.22.38s-.08.28-.2.3l-.21,0h-.24a3.12,3.12,0,0,1-.91-.17c-.15,0-.3-.11-.44-.15a.92.92,0,0,0-.43,0,1.52,1.52,0,0,0-.42.16l-.19.1a.62.62,0,0,0-.17.11l-.14.16a1.22,1.22,0,0,0-.15.17,3.3,3.3,0,0,0-.26.39,1.66,1.66,0,0,0-.2.4,1.29,1.29,0,0,0-.1.44,1.5,1.5,0,0,0,0,.2.35.35,0,0,0,.05.2.53.53,0,0,0,.13.13l.17.18a2.42,2.42,0,0,0,.33.31,2.08,2.08,0,0,0,.38.22,9,9,0,0,0,.86.33,2.11,2.11,0,0,0,.43.12l.22,0,.22,0a1.61,1.61,0,0,0,.22,0l.22,0h.22l.23,0a1.29,1.29,0,0,1,.71.35c.11.1.21.21.31.32a2.6,2.6,0,0,1,.26.32,1.14,1.14,0,0,1,.1.19l.09.2a1.72,1.72,0,0,0,.07.21.78.78,0,0,0,.11.2l.23.39c.08.13.17.26.26.38l.12.17.09.21c.06.14.14.27.21.4a1,1,0,0,0,.23.35l.15.11a.33.33,0,0,0,.19.06,1.91,1.91,0,0,0,.47,0,3.4,3.4,0,0,0,.46-.08c.31-.06.62-.09.94-.13l.45-.09a3,3,0,0,0,.42-.16,1.52,1.52,0,0,1,.43-.12.5.5,0,0,1,.21,0l.24,0a1.84,1.84,0,0,1,.41.16,1.87,1.87,0,0,1,.4.2l.82.51.4.24a3,3,0,0,0,.39.22c.13.06.28.09.4.16a.78.78,0,0,1,.32.25c.09.13.17.26.25.39l.21.42a7.29,7.29,0,0,0,.46.81,3.18,3.18,0,0,0,.27.37,2,2,0,0,0,.33.31l.39.25a1.31,1.31,0,0,0,.39.2l.45.1.45.09a1.17,1.17,0,0,1,.38.17l.16.12.16.14a1,1,0,0,1,.16.33l.15.43c.05.15.1.29.16.44l.09.19a.66.66,0,0,1,.08.21,1.53,1.53,0,0,0,.16.37,2.09,2.09,0,0,0,.14.17s.09.11.14.17l.14.12.14.1a.25.25,0,0,0,.17,0h.22l.42-.09h.18a1.06,1.06,0,0,0,.19-.06,1.4,1.4,0,0,1,.41-.06,1.46,1.46,0,0,1,.22,0h.64a.58.58,0,0,1,.18,0c.16.06.14.13.06.25a.48.48,0,0,0-.08.18,1.17,1.17,0,0,1-.05.2.41.41,0,0,1-.12.17.86.86,0,0,1-.14.13l-.2.11a1.49,1.49,0,0,1-.14.12,1.63,1.63,0,0,1-.19.09l-.16.13-.16.15c-.11.1-.18.23-.29.33l-.14.15-.14.19c-.09.1-.2.18-.3.28l-.15.15-.18.14-.39.28a2.46,2.46,0,0,0-.34.29l-.34.32a2.42,2.42,0,0,1-.33.31,3,3,0,0,1-.37.25,1.06,1.06,0,0,1-.42.15h-.22a.36.36,0,0,1-.2-.08.94.94,0,0,0-.4-.16,1,1,0,0,0-.43.06.27.27,0,0,0-.13.1s-.06.1-.11.14-.12,0-.18.05-.1.09-.15.12-.28,0-.41.08a.72.72,0,0,1-.21.05s-.12,0-.15,0,0,.13-.05.19,0,.11.05.17l.28.38.29.37a1.63,1.63,0,0,1,.11.17,1.8,1.8,0,0,1,.08.21.41.41,0,0,1,0,.19l0,.23c0,.15-.06.3-.1.45a1.51,1.51,0,0,1-.13.41c-.08.13-.16.26-.25.38a7.74,7.74,0,0,1-.55.73l-.15.13a.31.31,0,0,1-.16.1.71.71,0,0,1-.2,0,.78.78,0,0,1-.22,0,1.94,1.94,0,0,1-.42-.17l-.2-.08-.23,0a1.05,1.05,0,0,0-.43-.07l-.2.07-.22.07a3.26,3.26,0,0,0-.75.47c-.23.19-.46.4-.71.58a1,1,0,0,1-.37.21,3.43,3.43,0,0,1-.44.09l-1,.2-.22,0h-.25c-.15,0-.3,0-.45,0s-.31,0-.47,0l-.22,0h-.24c-.31,0-.62-.08-.94-.07a.57.57,0,0,1-.13,0c-.06,0-.07,0-.06-.1s.12-.24.13-.38a1.47,1.47,0,0,0,0-.21.66.66,0,0,0,0-.24,1.39,1.39,0,0,0-.22-.37,1.78,1.78,0,0,0-.32-.29,2.8,2.8,0,0,0-.35-.25,1.48,1.48,0,0,0-.41-.17l-.45-.09-.21-.06-.21,0a1,1,0,0,1-.37-.21.56.56,0,0,0-.15-.1.24.24,0,0,1-.09-.15.78.78,0,0,1,0-.43,1.08,1.08,0,0,1,.08-.19c0-.06,0-.11,0-.16a1.14,1.14,0,0,0-.15-.16c0-.07-.11-.13-.16-.19l-.15-.17s-.08-.1-.15-.12a1.41,1.41,0,0,1-.39-.19l-.16-.11-.2-.1L73,64l-.22,0-.21,0-.24,0a2.54,2.54,0,0,1-.44-.15,9.43,9.43,0,0,0-.9-.29,3.22,3.22,0,0,1-.44-.14l-.42-.19L70,63a.59.59,0,0,1-.18-.13,1.78,1.78,0,0,1-.29-.32l-.25-.36a2.91,2.91,0,0,0-.3-.31c-.22-.21-.55-.13-.83-.14a2.44,2.44,0,0,1-.46-.07l-.2-.06-.24-.07-.93-.22-.45-.11-.44-.17c-.14-.06-.29-.1-.44-.15a.66.66,0,0,0-.2-.06h-.23a1.69,1.69,0,0,0-.44.12l-.45.14-.43.16-.2.09a.59.59,0,0,0-.17.1l-.11.15a.46.46,0,0,0-.1.18.28.28,0,0,0,0,.18.47.47,0,0,0,.13.15l.16.12a.3.3,0,0,1,.12.15.47.47,0,0,1,0,.17v.22A1.17,1.17,0,0,1,63,63a1.42,1.42,0,0,1-.07.22,1.15,1.15,0,0,1-.18.39c-.09.11-.21.2-.31.3l-.14.14-.18.14c-.12.09-.24.19-.37.27l-.37.23a1.88,1.88,0,0,0-.36.24,3.28,3.28,0,0,0-.31.34,1.93,1.93,0,0,0-.29.35c0,.05-.07.12-.11.17a.47.47,0,0,1-.15.13,1,1,0,0,1-.38.15.65.65,0,0,1-.2,0,.58.58,0,0,1-.21-.07l-.18-.11A1,1,0,0,0,59,65.8a1.77,1.77,0,0,0-.44-.11H57.41a.38.38,0,0,1-.21,0l-.15-.12a1.18,1.18,0,0,0-.19-.11,2.42,2.42,0,0,1-.39-.21c-.13-.07-.26-.14-.4-.2s-.26-.15-.39-.2a3.17,3.17,0,0,0-.44-.12c-.15,0-.31-.06-.47-.09l-.48-.07a6.25,6.25,0,0,0-1-.1l-.47,0a3.93,3.93,0,0,1-.49,0,3,3,0,0,1-.91-.13l-.2-.06-.21-.08a.46.46,0,0,1-.27-.29c0-.06,0-.12-.05-.18a2,2,0,0,0-.11-.2l-.11-.17a.43.43,0,0,0-.13-.17l-.17-.11L50,62.94a1.19,1.19,0,0,0-.42-.11l-.45-.12a1.17,1.17,0,0,1-.2-.06l-.19-.12a.24.24,0,0,1-.09-.13c0-.07,0-.14,0-.2s-.07-.28-.2-.31a.38.38,0,0,0-.18,0,.64.64,0,0,0-.18.1.18.18,0,0,1-.07,0s0,0-.08,0-.1.06-.15.1l-.15.13s-.1.06-.11.13,0,.14,0,.22a1.6,1.6,0,0,1,0,.21,1.74,1.74,0,0,1-.11.18,2.12,2.12,0,0,1-.11.21,3.19,3.19,0,0,1-.26.38l-.15.16a1,1,0,0,1-.15.14l-.18.11-.21.12-.19.11a.81.81,0,0,0-.18.12s0,0,0,0l-.1,0a.68.68,0,0,0-.2.07,7.46,7.46,0,0,1-.8.4c-.15.06-.3.1-.45.15a1.57,1.57,0,0,1-.43.09,3.46,3.46,0,0,1-.46,0,2.18,2.18,0,0,1-.44-.11c-.3-.08-.58-.2-.87-.29s-.57-.14-.85-.24l-.41-.19-.43-.19a5.22,5.22,0,0,0-.86-.32l-.46-.11a3.54,3.54,0,0,0-.45-.08,3.7,3.7,0,0,0-.47,0,2.54,2.54,0,0,0-.47.07l-.21.05a1.29,1.29,0,0,0-.21.06.28.28,0,0,0-.13.11,1,1,0,0,0-.13.16,1.54,1.54,0,0,1-.08.19,1.06,1.06,0,0,1-.12.2,1.74,1.74,0,0,1-.11.18l-.11.21a.81.81,0,0,1-.12.14l-.18.17-.32.33a3.28,3.28,0,0,1-.34.31l-.35.23a.92.92,0,0,1-.4.15l-.46,0-.22,0a1.62,1.62,0,0,0-.22,0,2.87,2.87,0,0,0-.4.18,1.06,1.06,0,0,1-.43.08,1.15,1.15,0,0,0-.45.11l-.44.17c-.14,0-.3.07-.44.12a1.69,1.69,0,0,1-.44.12h-.22a1,1,0,0,0-.23,0,4.88,4.88,0,0,0-.82.26.67.67,0,0,0-.3.25,1.16,1.16,0,0,0-.13.37,1.52,1.52,0,0,1-.06.2l0,.08-.06.07a.33.33,0,0,0,0,.17.91.91,0,0,1,0,.23,1.54,1.54,0,0,1-.08.19,1.21,1.21,0,0,1-.09.2,1.59,1.59,0,0,1-.13.13l-.05.07s0,.07,0,.09-.08,0-.12,0l-.16-.07-.19-.1c-.07,0-.13-.07-.2,0a1,1,0,0,0-.16.12,1.14,1.14,0,0,0-.15.16s-.06.1-.1.13l-.08,0-.11,0a.34.34,0,0,1-.31-.15.35.35,0,0,1-.06-.14,1,1,0,0,0-.07-.15c0-.05-.1-.05-.15-.08a.14.14,0,0,0-.09,0,.24.24,0,0,0-.08.06.91.91,0,0,1-.16.11.47.47,0,0,1-.21.06l-.46,0a.41.41,0,0,0-.22,0l-.2.09a1,1,0,0,0-.36.22,1.84,1.84,0,0,0-.15.35l-.06.19a.2.2,0,0,1-.09.16.22.22,0,0,1-.16,0,.48.48,0,0,1-.2-.07c-.05,0-.09-.08-.15,0l-.14.13a.71.71,0,0,1-.15.15c-.06,0-.13,0-.2,0a.85.85,0,0,0-.42,0,.34.34,0,0,0-.14.09.26.26,0,0,1-.19,0,.76.76,0,0,1-.21,0,.15.15,0,0,0-.18,0,.88.88,0,0,0-.15.12l-.07,0a.08.08,0,0,0,0,.09.94.94,0,0,1,0,.44l0,.09a.18.18,0,0,0,0,.09.06.06,0,0,0,0,.07l.06.09c.08.11.2.18.29.29s.07.1.1.16,0,.11,0,.16a.12.12,0,0,1-.11.09l-.09,0a.31.31,0,0,0-.1,0c-.12.09-.24.17-.35.27a1.15,1.15,0,0,0-.25.33,1.72,1.72,0,0,0-.07.21.8.8,0,0,1-.07.2s-.09.1-.14.1,0,0,0,0l-.06-.09a.69.69,0,0,1-.1-.19,1.51,1.51,0,0,0-.09-.18,1.3,1.3,0,0,0-.26-.31.65.65,0,0,0-.17-.08.49.49,0,0,0-.19-.07h-.18a.32.32,0,0,0-.16.09.62.62,0,0,0-.14.14.7.7,0,0,0-.08.2.51.51,0,0,1-.21.32l-.17.07-.22.09a1.66,1.66,0,0,0-.21.06.7.7,0,0,1-.2.08,1,1,0,0,0-.34.23l-.13.15-.16.15a.75.75,0,0,0-.25.28.34.34,0,0,0,0,.2c0,.07,0,.14.05.21a.48.48,0,0,1,0,.17.39.39,0,0,1-.11.17,3,3,0,0,1-.33.27,2.37,2.37,0,0,1-.35.19.48.48,0,0,0-.17.1.64.64,0,0,1-.19.08.14.14,0,0,1-.09,0l-.08,0-.21-.11-.16-.11a.42.42,0,0,0-.22,0,.42.42,0,0,1-.19,0,.82.82,0,0,1-.17-.11c-.05,0-.1-.07-.12-.13a1.42,1.42,0,0,0-.08-.18,2.43,2.43,0,0,0-.24-.32.64.64,0,0,0-.13-.15,1.88,1.88,0,0,0-.18-.12,3,3,0,0,0-.37-.25,3.61,3.61,0,0,0-.42-.16L14.41,74a3.52,3.52,0,0,0-.42-.15l-.44-.13a1.21,1.21,0,0,1-.2-.09.55.55,0,0,1-.17-.13,1.07,1.07,0,0,1-.14-.16.41.41,0,0,1-.12-.17c0-.06,0-.13-.05-.2a2.09,2.09,0,0,0-.08-.23,2.75,2.75,0,0,0-.2-.38c-.16-.25-.36-.46-.53-.7a.4.4,0,0,0-.13-.13s-.09,0-.1-.1a.19.19,0,0,0,0-.09s0,0-.06-.07l-.18-.16L11.38,71a.3.3,0,0,1-.11-.14.25.25,0,0,1,0-.19.49.49,0,0,0,0-.21,1.78,1.78,0,0,0-.08-.45,3.75,3.75,0,0,0-.16-.43,1.9,1.9,0,0,0-.2-.37,1.15,1.15,0,0,0-.14-.17l-.12-.18c0-.07-.07-.13-.1-.19l-.14-.18a.61.61,0,0,1-.12-.16.69.69,0,0,1-.1-.19.44.44,0,0,1,0-.2.49.49,0,0,1,.07-.19s.08-.08.11-.13a1.74,1.74,0,0,0,.1-.19.64.64,0,0,1,.11-.16.71.71,0,0,0,.15-.15.88.88,0,0,1,.12-.15l.06-.07.09-.06a.27.27,0,0,0,0-.15.45.45,0,0,0,0-.2c0-.07,0-.13-.05-.2a1,1,0,0,0-.09-.18.62.62,0,0,1-.09-.38l0-.45a.48.48,0,0,0-.05-.18.85.85,0,0,0-.16-.17,2.33,2.33,0,0,0-.35-.27l-.38-.26c-.13-.08-.27-.15-.41-.22L9,64l-.43-.19a8.58,8.58,0,0,1-.82-.37l-.38-.25A3.48,3.48,0,0,1,7,62.91a4,4,0,0,1-.3-.28c0-.05-.08-.1-.13-.16a.06.06,0,0,1,0-.07s0-.07,0-.11.07-.1.1-.16a.35.35,0,0,0,.06-.19,1.19,1.19,0,0,0-.06-.42.41.41,0,0,1,0-.22,1.74,1.74,0,0,1,0-.22,1.88,1.88,0,0,1,.16-.39l.06-.18a1,1,0,0,0,.1-.18,1.55,1.55,0,0,0,0-.21c0-.08,0-.16,0-.25a1.33,1.33,0,0,0,0-.45A.61.61,0,0,0,7,59.09c-.1-.11-.22-.18-.31-.3a.66.66,0,0,1-.12-.17.18.18,0,0,1,0-.1.22.22,0,0,1,0-.11.7.7,0,0,1,.5-.55h.21a.91.91,0,0,0,.23,0l.22,0a2,2,0,0,0,.24-.05l.2-.07.23-.09.18-.08a.31.31,0,0,1,.21,0,3.29,3.29,0,0,0,.94.08c.16,0,.31,0,.46-.06a.71.71,0,0,0,.21,0l.09,0s.06,0,.06,0,0-.05,0-.07a.2.2,0,0,1,0-.08.24.24,0,0,0-.1-.14A.53.53,0,0,1,10.2,57a.22.22,0,0,1,0-.16s.06-.06.1-.08l.21-.08a2.54,2.54,0,0,1,.45-.13c.1,0,.26,0,.29.13a1.29,1.29,0,0,0,0,.19.36.36,0,0,0,0,.1v.12s.1.08.15.1l.2.11a1.11,1.11,0,0,0,.19.09.81.81,0,0,0,.22,0c.16,0,.32,0,.48,0a3.62,3.62,0,0,0,.46-.06l.22,0a.61.61,0,0,1,.23,0,1.58,1.58,0,0,1,.43.1.58.58,0,0,0,.41,0,.25.25,0,0,0,.13-.12.46.46,0,0,0,0-.2.8.8,0,0,0-.08-.16,1.09,1.09,0,0,0-.13-.17c-.1-.11-.22-.19-.33-.29l-.32-.31a.93.93,0,0,1-.13-.15l-.13-.18c-.08-.12-.19-.24-.28-.36a1.91,1.91,0,0,1-.25-.33,1.4,1.4,0,0,1-.16-.4c0-.07,0-.15,0-.22a.46.46,0,0,1,0-.2,1.21,1.21,0,0,1,.09-.2,1.18,1.18,0,0,0,.11-.19.61.61,0,0,1,.12-.15l.17-.17.15-.15.15-.16a1,1,0,0,0,.21-.35.74.74,0,0,1,.22-.33.71.71,0,0,1,.36-.17c.06,0,.13,0,.18,0a.16.16,0,0,1,.07.07l.09.1.14.16c.05.05.09.12.14.17a.67.67,0,0,0,.35.19l.2.07a1,1,0,0,0,.24,0,.27.27,0,0,0,.17-.06l.17-.13a.6.6,0,0,0,.14-.37l0-.21a.67.67,0,0,0,0-.24c0-.07,0-.13,0-.2a2.09,2.09,0,0,1,0-.25,1.62,1.62,0,0,0,0-.22.5.5,0,0,1,0-.21,1.16,1.16,0,0,1,.24-.34.54.54,0,0,1,.16-.1l.21-.07a1.94,1.94,0,0,0,.42-.17l.17-.11.21-.09.19-.1a1.77,1.77,0,0,1,.17-.12.44.44,0,0,0,.16-.1l.14-.16c0-.06.09-.11.13-.16l.06-.09a.2.2,0,0,1,0-.08.36.36,0,0,1,.17-.07.54.54,0,0,1,.22,0,1.38,1.38,0,0,1,.2,0h.23a1.28,1.28,0,0,0,.43-.1,1.39,1.39,0,0,0,.34-.24l.15-.14a1,1,0,0,0,.14-.15,1.33,1.33,0,0,0,.05-.19,1.76,1.76,0,0,1,.09-.2c0-.14.06-.29.11-.43a1,1,0,0,1,.23-.31.83.83,0,0,1,.14-.13.59.59,0,0,1,.2-.07.53.53,0,0,0,.17-.08l.18-.13a.41.41,0,0,0,.17-.48,1.15,1.15,0,0,0-.14-.17c0-.05-.1-.09-.15-.14l-.18-.16a2.53,2.53,0,0,0-.36-.2l-.18-.09-.22,0a1,1,0,0,1-.39-.16.32.32,0,0,1-.11-.12.51.51,0,0,1-.06-.2.77.77,0,0,1,.1-.42.33.33,0,0,0,0-.2,1.76,1.76,0,0,0,0-.23.49.49,0,0,0-.05-.2.37.37,0,0,1,0-.21.34.34,0,0,1,.09-.15.61.61,0,0,1,.16-.09,1.06,1.06,0,0,1,.19-.06h.24A2.32,2.32,0,0,0,21,44l.46-.07a1.91,1.91,0,0,0,.41-.11L22,43.7a.7.7,0,0,0,.17-.13.27.27,0,0,0,.11-.15,1.87,1.87,0,0,0,.07-.22,1.17,1.17,0,0,1,.06-.2.93.93,0,0,1,.13-.15s.07-.1.13-.09a1.74,1.74,0,0,1,.22.05c.15,0,.3,0,.46.06a3.66,3.66,0,0,1,.44.13l.2.07.23,0c.06,0,.11,0,.16-.07a1.14,1.14,0,0,0,.16-.15.85.85,0,0,0,.18-.37,2.84,2.84,0,0,1,.09-.42,1.34,1.34,0,0,1,.07-.18.24.24,0,0,1,.15-.11,1.87,1.87,0,0,1,.41-.09.7.7,0,0,0,.2-.08l.18-.09a1.07,1.07,0,0,0,.16-.14l.15-.14a.22.22,0,0,0,.07-.17,1.64,1.64,0,0,0,0-.22,1.47,1.47,0,0,1,0-.21.29.29,0,0,1,.07-.18.32.32,0,0,1,.13-.1l.17-.12a1.75,1.75,0,0,0,.32-.29l.34-.28.37-.27a1.44,1.44,0,0,0,.33-.27l.13-.15a1.14,1.14,0,0,1,.15-.16.48.48,0,0,0,.08-.16c0-.08.05-.16.08-.23a3.24,3.24,0,0,0,.13-.41.41.41,0,0,0,0-.19l-.09-.2,0-.09A.2.2,0,0,1,28.4,37.47Z"/></g></svg>