<svg xmlns="http://www.w3.org/2000/svg" viewBox="0 0 100 100"><g id="Sarlahi"><path d="M43.51,14.8l.06.08a2.42,2.42,0,0,0,.68.55,2.29,2.29,0,0,1,.64.6,1.32,1.32,0,0,0,.48.61,1.79,1.79,0,0,0,.39.13c.16.05.3.11.46.15a.38.38,0,0,1,.25.18,1.38,1.38,0,0,1,.23.39,2.49,2.49,0,0,0,.33.77,1.37,1.37,0,0,0,.29.3,1.32,1.32,0,0,0,.44.13,2.63,2.63,0,0,0,.49.06,2,2,0,0,1,.48.05c.31.07.58.25.89.33a3.78,3.78,0,0,0,1,.09c.35,0,.7,0,1.06-.06a2.34,2.34,0,0,0,.45-.07,1.11,1.11,0,0,1,.47-.08,1.46,1.46,0,0,1,.41.11,1,1,0,0,0,.46.12.41.41,0,0,0,.27-.26,1.62,1.62,0,0,1,.21-.36,1.3,1.3,0,0,1,.8-.33,1.38,1.38,0,0,1,.87.19,1.34,1.34,0,0,1,.51.66,1.19,1.19,0,0,0,.57.54.91.91,0,0,0,.83.08c.32-.13.65-.18,1-.28l.45-.13c.17,0,.35,0,.52-.09a2.49,2.49,0,0,0,.77-.52c.21-.19.38-.49.18-.75a1.38,1.38,0,0,0-.74-.46,1.86,1.86,0,0,1-.42-.12s-.12-.07-.14-.12,0-.12.06-.17a.46.46,0,0,1,.24-.19l.46-.19a6.17,6.17,0,0,1,1-.3,5.51,5.51,0,0,0,.87-.28A1.17,1.17,0,0,0,62,16l.14-.13.18-.13c.09-.07.15-.15.24,0a.35.35,0,0,0,.29.16,1.89,1.89,0,0,1,.34.09.57.57,0,0,1,.32.25c.16.25.49.24.75.32a2.8,2.8,0,0,1,.81.45,1.4,1.4,0,0,0,.43.2,1.45,1.45,0,0,0,.45.13c.32,0,.61-.11.92-.1a.5.5,0,0,1,.37.15c.1.1.16.23.25.33s.62.09.89.08a2,2,0,0,1,.9.26,7.91,7.91,0,0,0,.89.41,1.3,1.3,0,0,1,.67.28c.25.27.35.71.7.87a1,1,0,0,0,.74-.07,1.35,1.35,0,0,1,1,0,2.64,2.64,0,0,1,.37.2.43.43,0,0,0,.41,0,2.49,2.49,0,0,0,.4-.2,1.4,1.4,0,0,0,.28-.31,1.54,1.54,0,0,1,.69-.49c.27-.12.51-.31.78-.4.61-.21,1.26.23,1.76.52.27.15.56.25.84.38a2.77,2.77,0,0,1,.37.22,1.28,1.28,0,0,0,.43.14,1.44,1.44,0,0,0,.46,0,2.28,2.28,0,0,1,.44-.05c.09,0,.31,0,.29.13s0,.07,0,.11.12.06.17.1.21.17.33.23a1.09,1.09,0,0,0,.46.12,1.06,1.06,0,0,1,.74.33l.26.27a.45.45,0,0,1,.19.38c0,.31-.26.57-.09.88a2.8,2.8,0,0,0,.25.35c.1.13.18.27.28.4a.88.88,0,0,1,.28.75c0,.14-.1.28-.14.43s-.08.35-.14.52a1.08,1.08,0,0,1-.41.61,2.47,2.47,0,0,1-.87.32.38.38,0,0,0-.29.15.56.56,0,0,0,0,.4c.07.23.26.34.38.54a.63.63,0,0,1,.06.38,3.41,3.41,0,0,0-.1.46c0,.12.11.22.16.33s.12.27.18.4l.09.21a1.77,1.77,0,0,1,.06.17c0,.07.08.11.11.18a.44.44,0,0,1,0,.23.89.89,0,0,1-.16.34,1,1,0,0,0-.11.44c0,.14-.07.28-.08.42a.73.73,0,0,1-.16.42,3.29,3.29,0,0,1-.23.33c-.07.07-.22.17-.13.27a.83.83,0,0,0,.18.13l.17.13a4,4,0,0,1,.29.29,1.06,1.06,0,0,0,.62.42c.15,0,.3,0,.44,0a1.11,1.11,0,0,0,.44.05c.15,0,.29-.05.44-.05a2.59,2.59,0,0,1,.48,0c.15,0,.29.08.45.1a3.15,3.15,0,0,0,.44,0,1.48,1.48,0,0,0,.78-.26l.4-.27c.09-.06.22-.21.33-.2s0,.07,0,.1a.17.17,0,0,0,0,.13c.09.11.21.21.31.31a3,3,0,0,0,.24.26.9.9,0,0,0,.39.16,2,2,0,0,0,.42,0,2.32,2.32,0,0,1,.46.07l.87.23a3.93,3.93,0,0,1,1.4.81,5,5,0,0,1,1,1.21c.17.29.32.59.48.88.5,1,.16,1.89,0,2.9,0,.33-.1.67-.17,1a2.76,2.76,0,0,1-.23.94,4.93,4.93,0,0,1-.59.62,1.74,1.74,0,0,0-.43.8,1.39,1.39,0,0,0,.28.89,7.68,7.68,0,0,0,.55.81c.3.45.83,1.1.47,1.65a6.6,6.6,0,0,1-.56.72c-.2.23-.4.48-.6.7a.83.83,0,0,1-.68.37,2.13,2.13,0,0,1-.43-.13l-.5-.17a2.39,2.39,0,0,0-1.87-.11,1,1,0,0,0-.3.27.83.83,0,0,0-.23.38,1.77,1.77,0,0,0,0,.46,2,2,0,0,0,.09.5,16.43,16.43,0,0,0,.87,1.79,1.33,1.33,0,0,1,.13.43,2.15,2.15,0,0,1,.07.5,1.69,1.69,0,0,1-.37.79c-.13.25-.29.57-.13.83a1.45,1.45,0,0,1,.18.35,1.19,1.19,0,0,1,0,.46c-.08.67-.67,1-1.17,1.3s-1.08.8-1.66,1.12a3.23,3.23,0,0,1-.85.32,4.25,4.25,0,0,0-.92.28,7.23,7.23,0,0,1-.89.42,4.73,4.73,0,0,0-.91.34,3.32,3.32,0,0,0-.36.26,3.37,3.37,0,0,1-.36.3,1.25,1.25,0,0,1-.83,0,2,2,0,0,0-1,0,3.47,3.47,0,0,0-.72.42c-.2.13-.41.25-.47.5a2.07,2.07,0,0,0,0,.5v.5c0,.35,0,.69,0,1a7.46,7.46,0,0,1-.1,1.05,8,8,0,0,1-.26,1,1.37,1.37,0,0,1-.48.67,6.83,6.83,0,0,0-.73.6,2.15,2.15,0,0,0-.54.66,3.91,3.91,0,0,0-.22.88,1.13,1.13,0,0,0,0,.45,2,2,0,0,1,.12.46.61.61,0,0,1-.07.38.75.75,0,0,1-.35.26l-.44.1a2,2,0,0,0-.47.16l-.42.18a2,2,0,0,0-.35.24,1.66,1.66,0,0,1-.82.2,1.2,1.2,0,0,0-.76.35c-.22.22-.42.47-.62.71l-.67.77c-.21.24-.38.5-.57.76s-.41.5-.61.75a3.86,3.86,0,0,0-.49.83c-.13.3-.25.61-.39.91a1.29,1.29,0,0,1-.59.61,7.19,7.19,0,0,0-.78.27,1.89,1.89,0,0,0-.31.25.73.73,0,0,0-.25.35c0,.24,0,.57-.25.69a3,3,0,0,1-.41.09l-.52.13a3.07,3.07,0,0,0-.83.21c-.16.08-.42.21-.43.43s.23.36.39.45a2.67,2.67,0,0,1,.68.52,1.36,1.36,0,0,1,.23.32.35.35,0,0,1,0,.33c-.12.25-.4.37-.62.52s-.48.4-.73.6a4.5,4.5,0,0,1-.83.53c-.29.15-.56.34-.86.47a5.08,5.08,0,0,1-.94.28,1.58,1.58,0,0,0-.37.11.81.81,0,0,0-.3.28,3,3,0,0,0-.21.4c-.07.14-.16.26-.24.39s-.14.6-.37.79a1.46,1.46,0,0,1-.9.19,4.05,4.05,0,0,0-.92.1c-.31.09-.58.28-.89.39a5.86,5.86,0,0,0-.88.33c-.27.15-.49.38-.76.53a1.69,1.69,0,0,1-.87.28c-.34,0-.67,0-1,0a6.26,6.26,0,0,0-1,.12,1.11,1.11,0,0,0-.36.13,2.4,2.4,0,0,0-.28.27,1.68,1.68,0,0,1-.29.24l-.18.1c-.06,0-.1.11-.16.15a.79.79,0,0,1-.4.07,2,2,0,0,0-.48.1,2.21,2.21,0,0,1-.91.18,3.36,3.36,0,0,1-.82-.3,1.09,1.09,0,0,0-.9.05.67.67,0,0,1-.64.07c-.24-.14-.16-.46-.09-.67a1.14,1.14,0,0,0,.08-.81.31.31,0,0,0-.29-.17c-.1,0-.26-.06-.35,0a.53.53,0,0,0-.11.15.91.91,0,0,1-.11.16,1.73,1.73,0,0,1-.2.32c-.19.18-.56,0-.75-.07a1.74,1.74,0,0,1-.36-.24c-.12-.11-.22-.24-.33-.36a1.45,1.45,0,0,0-.85-.36c-.33-.06-.68-.07-1-.1l-.49,0c-.19,0-.37,0-.56,0l-.46,0a3,3,0,0,0-.52.06,3.4,3.4,0,0,1-.46.08,3,3,0,0,1-.52,0,5.65,5.65,0,0,1-1-.19c-.32-.09-.65-.16-1-.22a4.65,4.65,0,0,1-1-.27,7.68,7.68,0,0,0-1.79-.71,1.54,1.54,0,0,0-.9.11,3.72,3.72,0,0,0-.76.56c-.25.2-.5.41-.77.59a7.94,7.94,0,0,1-.88.43,6.2,6.2,0,0,1-.9.35,6.85,6.85,0,0,1-1,.13l-1,.1c-.35,0-.69.09-1,.13a3.43,3.43,0,0,1-1,0c-.27,0-.38-.27-.46-.51l-.27-.82a2.46,2.46,0,0,1-.1-.47,1.37,1.37,0,0,0-.13-.48,2.23,2.23,0,0,0-.6-.66,4.69,4.69,0,0,1-.69-.56,3.4,3.4,0,0,1-.38-.67.69.69,0,0,0-.22-.23c-.11-.06-.23-.06-.31-.16s-.1-.21-.2-.29a.71.71,0,0,0-.43-.08,3.74,3.74,0,0,0-.95.11l-.45.08a.72.72,0,0,1-.46,0,1.06,1.06,0,0,1-.31-.29,1.53,1.53,0,0,1-.22-.42c-.11-.31-.22-.61-.34-.92a1,1,0,0,0-.49-.63,2.85,2.85,0,0,0-.81-.21,2.2,2.2,0,0,1-.82-.42,4.28,4.28,0,0,1-1-1.47,1.17,1.17,0,0,0-.54-.6l-.34-.14A4,4,0,0,1,16.6,74l-.83-.53a2.81,2.81,0,0,0-.39-.19,1.76,1.76,0,0,0-.5-.13,3.69,3.69,0,0,0-.92.25c-.32.08-.65.1-1,.17a1.57,1.57,0,0,1-.86,0c-.26-.11-.36-.36-.48-.6s-.33-.54-.5-.82a3,3,0,0,1-.21-.4c-.07-.15-.11-.31-.19-.46a2.08,2.08,0,0,0-.27-.32,1.75,1.75,0,0,0-.32-.29,1.53,1.53,0,0,0-.84-.25,4.49,4.49,0,0,1-1-.15,3.54,3.54,0,0,1-.88-.36,2,2,0,0,1-.33-.25l-.18-.18c-.05-.06-.12-.11-.16-.17a1,1,0,0,1,.09-.81,1.64,1.64,0,0,1,1.24-1.07,3.42,3.42,0,0,1,.94.24,3.93,3.93,0,0,0,.48.06.64.64,0,0,0,.36,0,1.38,1.38,0,0,0,.23-.39,2.89,2.89,0,0,0,.18-.44,6.85,6.85,0,0,0,.19-.9,7.3,7.3,0,0,0-.08-.92,2.29,2.29,0,0,1,.29-.95,5.91,5.91,0,0,0,.42-.88c.1-.31.18-.63.26-.94a1.94,1.94,0,0,0,.09-1,1.47,1.47,0,0,0-.14-.4c-.06-.14-.16-.26-.23-.4a3.16,3.16,0,0,1-.24-.95,2.61,2.61,0,0,0-.27-.86.87.87,0,0,0-.22-.32,1.27,1.27,0,0,0-.41-.15,2,2,0,0,1-.78-.34A1.22,1.22,0,0,1,9,56.26a5.43,5.43,0,0,1,.58-.69c.09-.11.19-.22.27-.34s.14-.27.23-.4a1.74,1.74,0,0,1,.65-.55,1.93,1.93,0,0,1,.47-.13,1.55,1.55,0,0,0,.4-.17c.23-.13.38-.37.65-.46a1,1,0,0,1,.35,0,.86.86,0,0,1,.38.16,2,2,0,0,0,.88.16,3.53,3.53,0,0,0,.46,0c.17,0,.32-.1.48-.13s.28,0,.42,0a.75.75,0,0,0,.39-.19.81.81,0,0,1,.82-.19c.27.1.53.29.82.15a1.69,1.69,0,0,0,.32-.28,1.36,1.36,0,0,1,.39-.27,1.88,1.88,0,0,1,.39-.16c.16-.05.32-.07.47-.11s.41-.35.57-.58a2.1,2.1,0,0,1,.63-.63,2.85,2.85,0,0,1,.87-.44c.17-.05.34-.06.5-.1l.45-.11a2,2,0,0,0,.44-.13c.15-.08.28-.18.42-.27s.59-.29.88-.43a2.15,2.15,0,0,1,.89-.31c.31,0,.62.06.93,0a1.26,1.26,0,0,0,.42-.12c.13-.06.25-.16.38-.23a1.92,1.92,0,0,0,.38-.25c.1-.1.19-.21.31-.31a1.33,1.33,0,0,1,.86-.3,1.55,1.55,0,0,1,.86.28c.24.18.4.44.64.62a2.38,2.38,0,0,0,.84.35c.15,0,.31.06.46.09a4.21,4.21,0,0,0,.48.12c.32,0,.37-.37.53-.57s.42-.42.62-.65a1.33,1.33,0,0,0,.22-.34.82.82,0,0,1,.24-.36.75.75,0,0,1,.38-.13,3.19,3.19,0,0,1,.53-.06,12.69,12.69,0,0,0,2-.36,2.27,2.27,0,0,1,1,0,1.58,1.58,0,0,1,.36.14.64.64,0,0,0,.41,0c.29-.06.46-.34.69-.5s.24-.17.37-.24a3.17,3.17,0,0,1,.42-.19,8.44,8.44,0,0,0,.84-.45,2,2,0,0,0,.65-.62,1.76,1.76,0,0,0,.21-.85c0-.33.07-.68.09-1a2.19,2.19,0,0,0,0-.51,1.49,1.49,0,0,1,0-.47,1.22,1.22,0,0,1,.16-.37c.08-.13.21-.23.28-.37a1,1,0,0,0,.07-.42,2.3,2.3,0,0,1,.1-.51,3.19,3.19,0,0,0,.17-1c0-.16,0-.32,0-.48a2.17,2.17,0,0,0,0-.36.41.41,0,0,0-.11-.26.62.62,0,0,0-.39-.16,3.23,3.23,0,0,1-.88-.37c-.28-.15-.54-.35-.81-.53a8.93,8.93,0,0,1-.77-.48,1.35,1.35,0,0,1-.25-.28.86.86,0,0,1-.09-.47,3.44,3.44,0,0,0,0-.46c0-.16,0-.33,0-.5a1.22,1.22,0,0,0-.09-.46,1.45,1.45,0,0,1-.13-.45c0-.31.32-.5.32-.81s-.21-.58-.06-.84c.06-.1.17-.2.13-.33a.61.61,0,0,0-.25-.3,2,2,0,0,1-.54-.72c-.07-.13-.13-.27-.19-.4s-.14-.26-.2-.4a2,2,0,0,1-.09-.42,1.05,1.05,0,0,0-.17-.41,2,2,0,0,0-.74-.45,3.18,3.18,0,0,1-.73-.55l-.72-.66a1,1,0,0,1-.39-.74,1.45,1.45,0,0,1,.45-.76c.22-.23.44-.44.64-.69a5.47,5.47,0,0,0,.52-.74c.07-.13.14-.26.2-.39a1.13,1.13,0,0,0,.12-.47,3.17,3.17,0,0,0-.12-.41.88.88,0,0,1,0-.48,1.08,1.08,0,0,0-.24-.84c-.07-.1-.16-.21-.12-.34a.45.45,0,0,1,.24-.23c.1-.05.2-.08.3-.12a1.42,1.42,0,0,0,.33-.21,3.19,3.19,0,0,0,.56-.7l.3-.44a1.78,1.78,0,0,0,.24-.39,1.53,1.53,0,0,0,.07-.47,2.42,2.42,0,0,1,.07-.47c0-.13.09-.25.14-.38a1,1,0,0,1,.29-.36c.23-.22.49-.41.74-.61a3,3,0,0,1,.38-.24,1.18,1.18,0,0,0,.33-.3c.08-.12.19-.22.28-.33s.19-.25.3-.37.43-.46.65-.68a2.48,2.48,0,0,1,.71-.58,7.48,7.48,0,0,0,.82-.35,5.46,5.46,0,0,0,.64-.53.61.61,0,0,1,.3-.15A.26.26,0,0,1,43.51,14.8Z"/></g></svg>