<svg xmlns="http://www.w3.org/2000/svg" viewBox="0 0 100 100"><g id="Sarlahi"><path d="M52.05,14.16l.12-.09a4,4,0,0,0,.82-.58c.1-.09.23-.17.25-.31a.79.79,0,0,0-.17-.46c-.15-.27-.4-.57-.35-.9a2,2,0,0,1,.16-.4,2.78,2.78,0,0,1,.18-.48,1.43,1.43,0,0,1,.9-.42c.35,0,.71,0,1-.13a2.72,2.72,0,0,1,.57,0,5.25,5.25,0,0,0,.56,0,1.61,1.61,0,0,1,.49,0c.17,0,.33.11.5.15a2.18,2.18,0,0,0,1.07-.11,1.88,1.88,0,0,0,.42-.14c.16-.09.3-.2.46-.3l.46-.3A4.9,4.9,0,0,1,60,9.34,5.76,5.76,0,0,1,61,9c.17,0,.32-.11.48-.16a.51.51,0,0,1,.42,0c.22.13.3.4.49.56a1.17,1.17,0,0,0,.82.17,1.27,1.27,0,0,0,.88-.3c.11-.11.21-.22.33-.32l.4-.3a1,1,0,0,1,.93-.18,1.76,1.76,0,0,0,.45.12h.56a2.78,2.78,0,0,0,.5,0,1.46,1.46,0,0,0,.5-.16,2.93,2.93,0,0,0,.43-.23c.16-.1.3-.22.45-.32a1.55,1.55,0,0,1,.46-.24.76.76,0,0,1,.49.06c.13.07.23.17.36.24a1.45,1.45,0,0,0,.5.15c.38.07.75.14,1.12.23a2.94,2.94,0,0,0,1.06.13c.71-.11,1.13-.73,1.75-1a1,1,0,0,1,.93.24,1.14,1.14,0,0,1,.55.69c.06.35,0,.69.2,1a1.92,1.92,0,0,0,.71.55,1.55,1.55,0,0,1,.7.48,2.35,2.35,0,0,1,.17.44c.06.17.13.33.2.49a1.26,1.26,0,0,0,.44.64,1.29,1.29,0,0,0,1,0,1.86,1.86,0,0,1,1,.05,3.57,3.57,0,0,1,.45.19,2.59,2.59,0,0,0,.52.16c.16,0,.31.09.47.12s.35,0,.53,0a3.79,3.79,0,0,1,.42.18.59.59,0,0,0,.45,0,5.38,5.38,0,0,1,.51-.2,2.14,2.14,0,0,1,.47-.15,2.78,2.78,0,0,1,.5,0,4.9,4.9,0,0,0,.54,0c.35,0,.7-.14,1-.17a3.44,3.44,0,0,1,1,.17,2.7,2.7,0,0,1,.9.36c.34.25.72.73.34,1.12-.09.09-.21.15-.23.29a1,1,0,0,0,.08.46c.05.17.13.34.18.51a3.84,3.84,0,0,1,.08,1.07,6.74,6.74,0,0,1-.13,1.1c0,.18,0,.36-.08.53a3.42,3.42,0,0,1-.18.54,2.48,2.48,0,0,0-.2,1,2.35,2.35,0,0,1,0,.53,1.1,1.1,0,0,1-.19.48,1.52,1.52,0,0,1-.68.57,3.25,3.25,0,0,1-1,.3,4,4,0,0,1-1.14.09,1.53,1.53,0,0,1-.47-.11,4.9,4.9,0,0,1-.48-.31,1.65,1.65,0,0,0-.44-.22.86.86,0,0,0-.5,0c-.12,0-.24.08-.25.22s.12.31.17.46a1.55,1.55,0,0,1,0,.48,1,1,0,0,0,.13.48,1.52,1.52,0,0,1,0,1,1.23,1.23,0,0,1-.46.68c-.27.17-.57.22-.75.51s-.31.65-.52.95a1.57,1.57,0,0,0-.4.79.47.47,0,0,0,.15.41.87.87,0,0,1,.16.45,2.33,2.33,0,0,1,.1,1.05,1.86,1.86,0,0,1-.19.46,4.91,4.91,0,0,1-.28.5c-.1.13-.21.25-.32.37a3.7,3.7,0,0,0-.33.36.87.87,0,0,0-.08.48c0,.19,0,.39,0,.59a3,3,0,0,1-.08.52A4.77,4.77,0,0,0,80,32c0,.18,0,.36,0,.54s-.1.35-.13.54a4.67,4.67,0,0,0,.09,1.12,2.61,2.61,0,0,1,0,.48.49.49,0,0,1-.21.37,8.8,8.8,0,0,1-.9.6,2.9,2.9,0,0,0-.41.27.93.93,0,0,0-.26.39,6.91,6.91,0,0,0-.3,1c-.07.34-.22.66-.28,1a3.15,3.15,0,0,0,0,.53.69.69,0,0,1-.09.47c-.08.12-.18.22-.25.34s-.17.33-.27.49-.2.3-.29.46a2.82,2.82,0,0,0-.19.51,3.1,3.1,0,0,0-.14,1c0,.36.15.71.2,1.07a7.76,7.76,0,0,0,.16,1.06,2.13,2.13,0,0,1,.11.5,1.89,1.89,0,0,1,0,.58,1.18,1.18,0,0,0,0,.46,1,1,0,0,0,.21.44,5.75,5.75,0,0,1,.63.84,6.19,6.19,0,0,0,.52.9,7.68,7.68,0,0,0,.78.6c.12.11.21.23.33.34a1,1,0,0,0,.45.21,1.38,1.38,0,0,1,.39.23c.14.11.28.21.41.33s.23.23.34.35a3,3,0,0,0,.4.3c.12.08.18.2.34.18a.69.69,0,0,1,.25,0,1.36,1.36,0,0,1,.29.06,2.34,2.34,0,0,0,.5.14,2.44,2.44,0,0,0,.54,0c.37,0,.72-.12,1.09-.11l.58,0a2.06,2.06,0,0,1,.55.06,1.78,1.78,0,0,1,.44.21A1.74,1.74,0,0,1,86,51c.06.06,0,.12,0,.19a.23.23,0,0,0,.15.26l.41.19a2.62,2.62,0,0,1,.88.41,2.7,2.7,0,0,1,.53.81c.15.31.26.63.41.94a2,2,0,0,1,.24,1c0,.38,0,.75,0,1.13,0,.19,0,.37,0,.56a3.39,3.39,0,0,1,0,.55c-.05.15-.13.29-.19.44s-.14.35-.21.53a5.73,5.73,0,0,0-.36,1,8.83,8.83,0,0,1-.16,1,1.23,1.23,0,0,1-.57.66c-.12.08-.3.15-.36.28s0,.13,0,.2-.06.19-.09.28c-.11.35-.15.71-.23,1.07,0,.09-.11.27,0,.31a.22.22,0,0,1,.13.06,1.48,1.48,0,0,1,.13.21c.18.3.4.59.58.89s.19.32.29.47.21.3.32.45a7.78,7.78,0,0,1,.5.89l.55,1a4,4,0,0,1,.42,1c.09.37.11.75.17,1.12,0,.17.06.34.08.52a3.77,3.77,0,0,1,0,.58,5,5,0,0,0,0,.55,3.09,3.09,0,0,0,.08.61,1.94,1.94,0,0,1,0,1.07l-.19.48a2.05,2.05,0,0,1-.18.49,2.69,2.69,0,0,1-.3.37,1.73,1.73,0,0,0-.25.44c-.06.16-.11.32-.17.47a3.62,3.62,0,0,1-.25.48,6,6,0,0,1-.6.89l-.3.36c-.11.15-.19.31-.29.46a3.11,3.11,0,0,1-.63.76c-.11.09-.23.17-.33.27a2.08,2.08,0,0,0-.3.43c-.08.14-.18.26-.27.4s-.06.3-.09.46a1.8,1.8,0,0,1-.47.75c-.24.27-.54.49-.79.75a8.48,8.48,0,0,0-.63.82,3.31,3.31,0,0,0-.29.47c-.08.16-.14.33-.23.48a2.23,2.23,0,0,1-.74.62,1.47,1.47,0,0,0-.37.24,1.09,1.09,0,0,0-.19.39.35.35,0,0,0,.08.38.63.63,0,0,1,.23.36.35.35,0,0,1-.08.34.77.77,0,0,1-.36.23,4.18,4.18,0,0,1-1.06,0c-.38,0-.77,0-1.15,0a3,3,0,0,0-1.06.18c-.15.06-.31.13-.47.18a2.06,2.06,0,0,1-.55.06,5,5,0,0,0-1.09.11,2.44,2.44,0,0,0-.89.46,3.41,3.41,0,0,1-.86.6.58.58,0,0,1-.41,0,.82.82,0,0,0-.49,0l-1.07.16a9.83,9.83,0,0,1-1.09.13c-.73,0-1.24-.6-1.77-1a3,3,0,0,1-.4-.33,1.83,1.83,0,0,1-.13-.16,1.25,1.25,0,0,1-.16-.24.86.86,0,0,1,0-.45,3.57,3.57,0,0,1,.11-.55,4.82,4.82,0,0,0,.16-1.14,2.37,2.37,0,0,0-.21-1,2.22,2.22,0,0,0-.65-.68c-.29-.23-.58-.47-.88-.68-.14-.1-.26-.22-.44-.21a4.18,4.18,0,0,1-1.08,0,2.73,2.73,0,0,0-.57,0,8,8,0,0,0-1.08.25l-.52.14a5.17,5.17,0,0,1-.51.18,7.74,7.74,0,0,1-1.08.06,4.37,4.37,0,0,0-.52.12l-.53.14a1.87,1.87,0,0,0-.79.63,3.66,3.66,0,0,0-.48.84.67.67,0,0,1-.25.3c-.11.08-.2.19-.32.09a2.13,2.13,0,0,1-.29-.31c-.11-.12-.21-.25-.31-.38a.83.83,0,0,0-.3-.26.3.3,0,0,0-.37,0,1.91,1.91,0,0,0-.59.73,6.16,6.16,0,0,1-.87,1.85,3.88,3.88,0,0,1-.8.54,5,5,0,0,0-.86.65,5.37,5.37,0,0,0-.66.77,1.77,1.77,0,0,1-.33.34,1.74,1.74,0,0,1-.47.24c-.31.12-.63.19-1,.28a1.24,1.24,0,0,0-.37.17,1,1,0,0,0-.28.38,8.47,8.47,0,0,0-.32,1,2.22,2.22,0,0,1-.55.87c-.24.27-.51.5-.77.75a8.28,8.28,0,0,1-.82.75c-.13.09-.24.19-.38.27s-.31.14-.45.23c-.3.18-.56.41-.86.58a.81.81,0,0,1-.45.15.77.77,0,0,1-.41-.23,5.42,5.42,0,0,0-.83-.59,4.17,4.17,0,0,0-.46-.26c-.16-.09-.3-.2-.46-.29a2.78,2.78,0,0,0-1-.29,7,7,0,0,0-1.12,0,2.56,2.56,0,0,0-1,.26c-.31.15-.59.37-.9.52a1,1,0,0,1-.92-.11,2.48,2.48,0,0,0-1-.28,1.68,1.68,0,0,1-.94-.12,3.85,3.85,0,0,1-.38-.23,1.09,1.09,0,0,1-.29-.41c-.16-.29-.25-.62-.41-.91a1.58,1.58,0,0,0-.68-.6c-.32-.18-.65-.33-.95-.53a19.7,19.7,0,0,1-1.67-1.35c-.58-.48-1.19-.93-1.77-1.4-.12-.1-.24-.21-.37-.3a1.14,1.14,0,0,0-.47-.16,1.59,1.59,0,0,0-.53,0,1.52,1.52,0,0,0-.5.19l-1,.48-.51.28-.2.11a.2.2,0,0,1-.25,0,1,1,0,0,0-.91-.21.73.73,0,0,0-.3.25.52.52,0,0,1-.48.09c-.13,0-.22,0-.28.13s0,.14-.07.21a.87.87,0,0,1-.1.24.45.45,0,0,1-.24.25c-.11,0-.23,0-.35,0s-.11.14-.07.24a.3.3,0,0,1,0,.34c-.13.16-.38.17-.57.2a9.38,9.38,0,0,0-1.05.12c-.35.09-.51.38-.79.58a2.83,2.83,0,0,1-.4.17.17.17,0,0,1-.17,0c-.07,0-.1-.12-.14-.18a8.39,8.39,0,0,0-.62-.82,8.42,8.42,0,0,1-.56-.9,10,10,0,0,1-.45-.93.9.9,0,0,1-.12-.48,1.06,1.06,0,0,1,.19-.45c.13-.22.32-.6.14-.84,0-.07-.12-.11-.17-.17A.91.91,0,0,1,20.6,84c-.11-.15-.2-.31-.3-.47a4.52,4.52,0,0,1-.55-.82.66.66,0,0,0-.25-.38,1.11,1.11,0,0,0-.43-.19,1.71,1.71,0,0,0-.45,0,.39.39,0,0,1-.39-.13,1,1,0,0,0-.35-.3l-.51-.24a4.3,4.3,0,0,1-.43-.21,2.94,2.94,0,0,0-.46-.25A1.16,1.16,0,0,0,16,81a3,3,0,0,1-.6,0,5.06,5.06,0,0,1-.52-.08l-.54-.15a4.7,4.7,0,0,1-.51-.12,1.64,1.64,0,0,1-.48-.27,3.81,3.81,0,0,1-.41-.29,2.72,2.72,0,0,1-.37-.39,5.78,5.78,0,0,1-.59-.87,2.24,2.24,0,0,0-.64-.79,1.68,1.68,0,0,0-.42-.17c-.17-.06-.35-.12-.51-.19s-.1,0-.1-.07.07-.06.1-.08a1.38,1.38,0,0,0,.34-.3,2.81,2.81,0,0,1,.31-.29,1.18,1.18,0,0,1,.49-.16,8.25,8.25,0,0,1,1.1-.13c.37,0,.74,0,1.11,0a1.42,1.42,0,0,0,.54,0,2.92,2.92,0,0,0,.49-.19,4.44,4.44,0,0,0,.81-.55,3.13,3.13,0,0,1,1-.46,4.34,4.34,0,0,0,.48-.14,5.24,5.24,0,0,0,.48-.23,2.47,2.47,0,0,1,1-.31c.33,0,.66,0,1,0a.88.88,0,0,0,.76-.43c.06-.13.09-.26.14-.39a1.7,1.7,0,0,1,.22-.45,10.63,10.63,0,0,1,.53-.93.67.67,0,0,1,.37-.27c.16,0,.34-.08.51-.12a4.42,4.42,0,0,0,1-.33c.32-.16.62-.35.93-.52a6.43,6.43,0,0,0,.9-.56c.3-.23.57-.48.86-.7l.42-.29a1.48,1.48,0,0,0,.4-.35c.08-.12.17-.26.11-.4a1.53,1.53,0,0,0-.26-.4,2.79,2.79,0,0,0-.75-.62c-.22-.12-.65-.35-.55-.67a.55.55,0,0,1,.24-.26,3.07,3.07,0,0,1,.46-.27,2,2,0,0,1,.54-.09,5.07,5.07,0,0,0,.56-.13l.51-.13a.71.71,0,0,0,.44-.17c.22-.25.05-.64.24-.91a2.65,2.65,0,0,1,.29-.29,1.12,1.12,0,0,1,.36-.28l.49-.16a2.11,2.11,0,0,0,.48-.17,1.56,1.56,0,0,0,.61-.73,9.92,9.92,0,0,1,1-1.93c.2-.26.42-.51.64-.77s.41-.57.62-.85.48-.57.73-.85.48-.55.71-.84a1.68,1.68,0,0,1,.75-.62,2.72,2.72,0,0,1,.49-.13c.16,0,.33,0,.5-.06a.86.86,0,0,0,.41-.16c.14-.09.27-.2.42-.28a6,6,0,0,1,1-.4,1.76,1.76,0,0,0,.88-.33.82.82,0,0,0,.14-.91,1.53,1.53,0,0,1-.11-.47,2.1,2.1,0,0,1,.08-.56,3.26,3.26,0,0,1,.34-1,2,2,0,0,1,.31-.33l.36-.37a8.73,8.73,0,0,1,.77-.59,1.53,1.53,0,0,0,.51-.78,7.34,7.34,0,0,0,.28-1,13.42,13.42,0,0,0,.2-2.28c0-.39,0-.79,0-1.18a1.27,1.27,0,0,1,0-.43.79.79,0,0,1,.32-.36l.43-.26a3.07,3.07,0,0,1,.43-.26,1.94,1.94,0,0,1,1-.17,3.23,3.23,0,0,1,.53.08.92.92,0,0,0,.52,0,1.43,1.43,0,0,0,.39-.15,3.89,3.89,0,0,0,.39-.32,2.59,2.59,0,0,1,.9-.51,10.13,10.13,0,0,0,1-.35c.33-.14.65-.34,1-.47s.67-.15,1-.24a6.87,6.87,0,0,0,1.89-1c.31-.23.62-.46.95-.66a5.63,5.63,0,0,0,.81-.57,1.51,1.51,0,0,0,.45-1.58,3.11,3.11,0,0,0-.22-.4.58.58,0,0,1,0-.5,6.12,6.12,0,0,1,.49-.91,1.11,1.11,0,0,0,.15-.43,1.89,1.89,0,0,0-.08-.53,3.85,3.85,0,0,0-.36-1,9.55,9.55,0,0,1-.89-1.85,2.31,2.31,0,0,1-.08-1,1.13,1.13,0,0,1,.23-.45,1.26,1.26,0,0,1,.35-.34,1.5,1.5,0,0,1,.46-.17,2.09,2.09,0,0,1,.56-.06,3.84,3.84,0,0,1,1.1.26l1,.36a.66.66,0,0,0,.48,0,1.46,1.46,0,0,0,.44-.29c.25-.24.45-.52.68-.78s.49-.56.71-.86a1.21,1.21,0,0,0,.22-.42,1.81,1.81,0,0,0,0-.52,1.08,1.08,0,0,0-.2-.47c-.09-.16-.2-.31-.3-.47s-.43-.59-.63-.89a3.76,3.76,0,0,1-.47-.94c-.2-.7.33-1.29.8-1.73a1.48,1.48,0,0,0,.53-.81c0-.14.05-.29.07-.43s.07-.39.1-.58c.06-.38.1-.75.18-1.12s.16-.72.23-1.08a5.11,5.11,0,0,0,.13-1.11,1.31,1.31,0,0,0-.07-.44,3.23,3.23,0,0,0-.25-.49,11.49,11.49,0,0,0-1.13-1.84,6.11,6.11,0,0,0-1.57-1.34,3.6,3.6,0,0,0-1-.42c-.33-.09-.66-.19-1-.27a10.3,10.3,0,0,1-1.1-.13c-.32-.1-.5-.39-.73-.62a1.25,1.25,0,0,1-.26-.3A.21.21,0,0,1,52.05,14.16Z"/></g></svg>