<svg xmlns="http://www.w3.org/2000/svg" viewBox="0 0 100 100"><g id="Baara"><path d="M70.94,41.55a.25.25,0,0,1,.15.08c.09.11.07.29.09.42a1.19,1.19,0,0,0,.3.64c.39.39.89.23,1.37.1.16,0,.37-.14.54-.06s.15.32.14.51a1.46,1.46,0,0,0,.39,1.16,2.08,2.08,0,0,1,.38.55,3.13,3.13,0,0,1,.07.81A2.25,2.25,0,0,0,75.1,47a8.51,8.51,0,0,0,1.18,1.07,3.71,3.71,0,0,0,1.51.54,3.32,3.32,0,0,1,.69.24,2.1,2.1,0,0,0,.78.17.69.69,0,0,1,.53.21c.15.13.22.22.43.18s.36-.19.56-.22a.88.88,0,0,1,.53.08c.53.25.79.87,1.35,1.08a.86.86,0,0,0,.45,0c.2,0,.39-.18.6-.17s.25.14.36.28a.72.72,0,0,0,.62.25,4.3,4.3,0,0,1,1.4.39,5.39,5.39,0,0,1,1.56.51.77.77,0,0,1,.09,1.1c-.24.39-.77.62-.93,1.06s.42.79.82.92,1.07.37,1.61.52,1,.14,1.5.29.83.61,1.26.95.78.3,1.06.59a1.52,1.52,0,0,1,.33,1.21c-.07.4-.33.74-.38,1.15a14.23,14.23,0,0,1,0,1.6c-.06.24-.17.47-.21.72a2,2,0,0,0,.14.87,6.53,6.53,0,0,1,.53,1.54c.06.54,0,1.09,0,1.63,0,.35.34.84,0,1.13a1.22,1.22,0,0,1-.68.19c-.26,0-.52.09-.78.12a2.71,2.71,0,0,1-1.57-.33,7.33,7.33,0,0,0-1.64-.6,5.22,5.22,0,0,0-1.67.12c-.49,0-.91,0-1.32.3a2.93,2.93,0,0,1-1.34.85c-.47.1-.92-.12-1.39,0s-.89.37-1.43.26a5,5,0,0,0-.79-.1c-.28,0-.57,0-.86,0a2.18,2.18,0,0,0-1.46.31,1.42,1.42,0,0,0-.38,1,8,8,0,0,1-.17,1.7c-.33,1.08-1.59.61-2.38.46a8.35,8.35,0,0,0-1.73,0,13.64,13.64,0,0,1-1.81,0,23,23,0,0,1-3.51-.49A6.49,6.49,0,0,0,67,70.52a5,5,0,0,0-1.67.22,2.55,2.55,0,0,0-1,.91c-.34.44-.69.86-1,1.29s-.74.9-1.08,1.37-.52.89-.84,1.29-.7.58-1,.92a2.15,2.15,0,0,0-.4,1.58c0,.4.06.8-.29,1.08a3.49,3.49,0,0,1-1.48.51,8.65,8.65,0,0,1-1.76.14,4.45,4.45,0,0,1-1.5-.14,2.12,2.12,0,0,1-.94-.91,4.31,4.31,0,0,0-1.33-1.11,26.2,26.2,0,0,1-2.76-1.87A10.08,10.08,0,0,0,47.09,74a3,3,0,0,0-1.51-.22,2.49,2.49,0,0,1-.85.11,1.61,1.61,0,0,1-.63-.4c-.85-.69-1.74-1.34-2.6-2-.43-.35-.91-.62-1.37-.94a5.84,5.84,0,0,1-1.2-1.13,17.82,17.82,0,0,0-2.49-2.34c-.86-.69-1.84-1.2-2.68-1.91a12.15,12.15,0,0,0-2.61-1.91,7.69,7.69,0,0,0-3.44-.32,14.18,14.18,0,0,1-1.59-.12,5.19,5.19,0,0,1-1.71-.33,12.64,12.64,0,0,1-1.14-.77c-.43-.27-.93-.35-1.36-.61s-.77-.64-1.22-.89-1.05-.49-1.57-.73C18,59,16.88,58.41,15.8,57.8S13.94,56.56,13,55.93A17.41,17.41,0,0,0,10,54.34c-.51-.23-1-.45-1.54-.66-.22-.09-.45-.17-.68-.24a2,2,0,0,1-.63-.23c-.38-.26,0-.53.26-.64.5-.2,1.06-.24,1.43-.67s.17-.82-.22-1.14a6.65,6.65,0,0,1-1.21-1,1.35,1.35,0,0,1-.28-.56c0-.28.11-.46.19-.71.2-.55-.54-.65-.55-1.17,0-.2.08-.39.06-.58s-.14-.29-.29-.44c-.34-.35.32-.43.34-.76s-.3-.66-.43-1a1,1,0,0,1,.34-1.15c.63-.5,1.59-.5,2-1.3A6.81,6.81,0,0,0,9,40.59a12.84,12.84,0,0,1,.63-1.7,3.27,3.27,0,0,1,1.52-2c.79-.37,2.15-.36,2.5-1.31.12-.34.15-.71.6-.7s.52.1.79-.08a1.64,1.64,0,0,0,.49-.56,3.13,3.13,0,0,1,.7-1,1.55,1.55,0,0,0,.47-.41c.12-.17.18-.39.36-.52.49-.38,1,0,1.5.17A.94.94,0,0,0,19.71,32c.25-.41.32-.86.72-1.17.19-.15.41-.27.61-.42s.43-.38.65-.57A5.64,5.64,0,0,1,23,29a9.41,9.41,0,0,1,1.62-.64A5.7,5.7,0,0,0,26,27.92a9.92,9.92,0,0,0,1.37-1,2,2,0,0,0,.79-1.23,13.43,13.43,0,0,1,0-1.68c.21-.86,1.07-1.3,1.64-1.91.84-.89,1.66-2.57,3.12-1.61a15.91,15.91,0,0,0,1.36.89,14.64,14.64,0,0,0,1.57.69,1.49,1.49,0,0,0,.75.12c.24-.05.43-.24.68-.14s.48.51.82.63c.49.15.93-.09,1.35.3a3.24,3.24,0,0,0,.53.45c.22.13.45.24.67.36a5.38,5.38,0,0,1,1.3.87,4.64,4.64,0,0,1,.82,1.23c.18.36.41.7.86.51.19-.08.34-.26.53-.36a1.08,1.08,0,0,1,.64-.11,8.17,8.17,0,0,1,1.74.48,7.94,7.94,0,0,1,2.9,1.35c.42.36.77.8,1.22,1.13s.84.48,1,.94a4.53,4.53,0,0,1,.08,1.22c0,.25.17.33.41.35a5.65,5.65,0,0,0,.82,0,2.8,2.8,0,0,0,.63-.23,1.11,1.11,0,0,1,.65,0c.48.14.9.46,1.37.63.93.35,2.11.43,2.81,1.21a5,5,0,0,1,.63,1.07,2.59,2.59,0,0,0,1,1.11,11.28,11.28,0,0,1,1.12.84,5,5,0,0,0,1.42.8,6.55,6.55,0,0,1,1.36.51c.39.25.6.68,1,.94a4.3,4.3,0,0,0,.57.28,6.58,6.58,0,0,1,.67.4,7.74,7.74,0,0,1,.73.43,3.77,3.77,0,0,1,.56.57c.31.34.67.61,1,.95a1.71,1.71,0,0,0,1.33.77,2.73,2.73,0,0,0,.69-.14A.81.81,0,0,1,70.94,41.55Z"/></g></svg>