<svg id="Parsa" xmlns="http://www.w3.org/2000/svg" viewBox="0 0 100 100"><path d="M32.22,10.12h.06l.22.08.45.16.91.31a6.65,6.65,0,0,1,.83.35,2,2,0,0,0,.4.17l.2.06a.87.87,0,0,0,.22.05c.13,0,.23-.13.3-.21a3.18,3.18,0,0,1,.26-.35,1.85,1.85,0,0,1,.14-.14.7.7,0,0,1,.16-.14.79.79,0,0,1,.36-.11c.16,0,.31,0,.46,0a3.75,3.75,0,0,0,.47-.05,2.3,2.3,0,0,0,.43-.12,3,3,0,0,1,.42-.15A3.47,3.47,0,0,1,39,10a1.31,1.31,0,0,1,.44.07c.13,0,.2.14.27.25a.8.8,0,0,1,0,.41V11a.2.2,0,0,0,0,.17.43.43,0,0,0,.24.1,6.77,6.77,0,0,0,.89.21c.31.05.62.11.94.13a2.43,2.43,0,0,0,.47,0,1.13,1.13,0,0,0,.41-.11c.13-.06.24-.16.38-.21a2,2,0,0,1,.42-.13,5.75,5.75,0,0,1,.92-.18,13.36,13.36,0,0,0,1.89-.23,3.83,3.83,0,0,0,.79-.38,2.85,2.85,0,0,1,.85-.29l.45-.06a.41.41,0,0,1,.34.13.62.62,0,0,0,.36.14l.46,0c.31,0,.61-.1.92-.11s.62,0,.93.06a5.63,5.63,0,0,1,.93.12,1.56,1.56,0,0,1,.78.33,2.14,2.14,0,0,1,.28.32,1.28,1.28,0,0,1,.21.38c0,.13,0,.28,0,.42a2.26,2.26,0,0,0,.11.43,5.24,5.24,0,0,1,.21.89,4.63,4.63,0,0,0,.18.9l.15.41a1.9,1.9,0,0,0,.2.37l.28.35c.1.12.19.24.28.37s.38.46.59.68.21.21.33.3a1.92,1.92,0,0,0,.39.17,5.38,5.38,0,0,0,.89.27,1.46,1.46,0,0,1,.2,0,.61.61,0,0,1,.15.13c.09.11.2.22.3.32a.53.53,0,0,1,.13.13.31.31,0,0,1,0,.19,1.54,1.54,0,0,0,0,.43.48.48,0,0,0,.08.18l.1.2.2.39c.15.27.35.49.52.74s.18.24.27.37a1.85,1.85,0,0,0,.23.34,1.38,1.38,0,0,0,.33.2l.39.22a4.28,4.28,0,0,1,.71.54c.11.1.22.19.31.29a1.65,1.65,0,0,1,.2.37c.06.14.13.27.19.41a2.2,2.2,0,0,1,.12.44,2.17,2.17,0,0,0,.09.41,1.36,1.36,0,0,0,.24.35c.19.24.38.49.58.72s.41.45.63.66a3.52,3.52,0,0,0,.72.49,3,3,0,0,0,.42.16,2.29,2.29,0,0,0,.44.09c.15,0,.3,0,.45,0a3.43,3.43,0,0,1,.44.09c.29.09.58.19.88.27l.46.12.42.1c.14,0,.17.18.21.3a1.79,1.79,0,0,1,0,.46v.23a1.89,1.89,0,0,1,0,.23c0,.14.09.24.17.35s.17.23.26.35a.68.68,0,0,0,.29.24,2.9,2.9,0,0,0,.41.16l.45.18a.5.5,0,0,0,.21.05.64.64,0,0,0,.19-.08c.13-.07.27-.12.39-.2a3,3,0,0,0,.37-.25.84.84,0,0,1,.33-.19.55.55,0,0,1,.22,0l.23,0,.46,0,.94.12a15.18,15.18,0,0,0,1.9.14,4.14,4.14,0,0,0,.93-.1c.29-.08.58-.18.87-.25a2.26,2.26,0,0,1,.44-.08h1a.67.67,0,0,1,.39.07,4.06,4.06,0,0,1,.36.26l.18.12a1.07,1.07,0,0,1,.19.13.51.51,0,0,1,.13.31c0,.14.07.28.11.42a6.05,6.05,0,0,0,.77,1.6l.26.37a1.28,1.28,0,0,0,.28.29c.09.07.27.11.28.23a.66.66,0,0,1,0,.2l0,.25a7.28,7.28,0,0,0-.07.93,3.39,3.39,0,0,1,0,.45,3.13,3.13,0,0,1-.1.44,1.51,1.51,0,0,1-.13.41c-.06.12-.15.23-.21.35s0,.29-.11.42-.16.25-.23.37a7.82,7.82,0,0,0-.43.81c-.12.27-.24.55-.34.83a2.59,2.59,0,0,0-.09.88,2.32,2.32,0,0,1-.06.44c0,.14-.1.29-.14.43a1.9,1.9,0,0,1-.15.42l-.22.41c-.16.26-.32.5-.49.75a3.35,3.35,0,0,0-.21.36c-.07.15-.13.29-.19.44s-.25.57-.37.86a6,6,0,0,1-.44.78c-.18.25-.37.48-.56.71s-.37.48-.54.73a3.07,3.07,0,0,0-.23.39.9.9,0,0,0-.05.4,1.34,1.34,0,0,1,0,.2.81.81,0,0,1,0,.22c0,.12-.18.17-.27.23-.26.16-.52.34-.78.49-.55.31-1.1.6-1.64.91-.28.16-.56.31-.83.48s-.53.31-.79.49l-.36.27a1.38,1.38,0,0,0-.31.28c-.1.12-.17.25-.26.37a1.8,1.8,0,0,0-.21.35c-.06.14-.11.28-.16.42a.75.75,0,0,0-.09.41c0,.15.07.29.1.44a3.15,3.15,0,0,0,.11.44c.09.27.39.38.53.62l.09.18a1.87,1.87,0,0,1,.07.22.9.9,0,0,1-.06.43c-.07.3-.13.6-.2.9a2.12,2.12,0,0,0-.05.44c0,.15,0,.3,0,.45a1.27,1.27,0,0,1,0,.2,1.41,1.41,0,0,1-.06.22c0,.15.12.19.2.27a1.22,1.22,0,0,1,.25.31.44.44,0,0,1,0,.4.78.78,0,0,1-.24.33,2.6,2.6,0,0,0-.32.26,3.22,3.22,0,0,0-.55.67,9,9,0,0,1-.5.76c-.08.12-.18.24-.26.37a1.11,1.11,0,0,0-.18.38l-.06.21c0,.06-.06.13,0,.19s.07,0,.12.06h.23a.83.83,0,0,0,.22,0,.9.9,0,0,0,.22-.06c.14,0,.27-.11.41-.15A.64.64,0,0,1,70,59l.19.07a.24.24,0,0,1,.13.09.32.32,0,0,1,0,.17l0,.25a1.47,1.47,0,0,0,.07.41c.09.26.34.42.49.65a1.59,1.59,0,0,1,.18.37,1.09,1.09,0,0,1,.11.43,3.67,3.67,0,0,0,0,.46.37.37,0,0,1,0,.18.25.25,0,0,1-.11.12,3,3,0,0,1-.3.19l-.37.26a7.2,7.2,0,0,1-.74.48,4.07,4.07,0,0,1-.82.31,3.06,3.06,0,0,0-.79.39c-.12.08-.11.2-.13.33a.25.25,0,0,0,0,.17.93.93,0,0,0,.15.13,2.24,2.24,0,0,1,.32.3l.13.16a1,1,0,0,1,.13.18c.08.12-.07.18-.15.25a1.2,1.2,0,0,1-.34.21,2.88,2.88,0,0,1-.42.11.48.48,0,0,0-.29.19c-.08.12-.15.26-.23.38l-.26.4c-.16.25-.34.49-.48.76a6.42,6.42,0,0,0-.37.85,9.21,9.21,0,0,1-.34.87,2.81,2.81,0,0,0-.19.39,1.62,1.62,0,0,0,0,.2.49.49,0,0,0,0,.21c0,.11.2.13.29.2a.84.84,0,0,1,.22.31c.07.13.15.25.21.37a.89.89,0,0,1,.08.17c0,.08,0,.15,0,.22a4.63,4.63,0,0,1,0,.91,3.41,3.41,0,0,1-.1.46L66.3,73c-.06.3-.1.61-.14.92a.75.75,0,0,0,0,.21.62.62,0,0,0,.07.19l.22.36a1.74,1.74,0,0,0,.11.18,1.51,1.51,0,0,1,.1.17.31.31,0,0,1,0,.19,1,1,0,0,0,0,.17c0,.08,0,.19-.1.24l-.17,0-.23.07-.43.13a.4.4,0,0,0-.15.09,1.83,1.83,0,0,1-.13.16s-.08.08-.09.13,0,.11,0,.16.17.23.26.35l.25.38a.6.6,0,0,0,.27.2l.43.17a1.38,1.38,0,0,0,.4.1,1.33,1.33,0,0,1,.2,0,.19.19,0,0,1,.13.1.46.46,0,0,1,.11.33c0,.07-.05.13-.07.19a1.87,1.87,0,0,1-.07.22.58.58,0,0,1-.23.26l-.34.28a.42.42,0,0,0-.15.31,2.16,2.16,0,0,0,0,.44c0,.15,0,.3.08.46a6.74,6.74,0,0,0,.2.89c0,.13.11.27.15.41s-.07.22-.16.32-.19.23-.28.35l-.13.15a.23.23,0,0,0-.06.18,1.4,1.4,0,0,0,.09.17,1.23,1.23,0,0,1,.21.62c0,.11,0,.22-.11.26l-.13,0a1.52,1.52,0,0,0-.2.06,1.69,1.69,0,0,1-.45.07,1.24,1.24,0,0,0-.43,0,.75.75,0,0,0-.17.1A.28.28,0,0,0,65,84c0,.06,0,.08.09.1a.83.83,0,0,1,.21.06,1.87,1.87,0,0,1,.4.2l.2.11a.62.62,0,0,1,.17.11,1.51,1.51,0,0,1,.09.18l.09.21.09.19a.46.46,0,0,1,.07.16.29.29,0,0,1-.07.18.2.2,0,0,1-.11.13c-.09,0-.22-.07-.3,0s0,.11,0,.16,0,.14,0,.22a.39.39,0,0,0,.16.29c.1.1.19.21.3.31a2.22,2.22,0,0,0,.35.25,1.18,1.18,0,0,1,.19.11l.17.09s.07.07,0,.1l-.2,0a4.71,4.71,0,0,1-.92,0,17.19,17.19,0,0,1-1.9-.17l-.93-.15a7.54,7.54,0,0,0-1,0,4.13,4.13,0,0,0-.93.08l-.44.12-.46.11a3.54,3.54,0,0,1-.44.11.7.7,0,0,1-.42-.09L59.07,87l-.44-.12a9.1,9.1,0,0,0-.91-.16l-.46,0-.47,0c-.31,0-.6.13-.92.12-.14,0-.29,0-.44,0a1.87,1.87,0,0,0-.42.13,2.93,2.93,0,0,0-.4.19c-.12.08-.22.18-.33.27a.59.59,0,0,1-.17.1,1.64,1.64,0,0,1-.22,0h-.48l-.48,0c-.14,0-.27,0-.39.05l-.14.12a.14.14,0,0,0,0,.15c0,.06,0,.12.08.19a1.63,1.63,0,0,0,.09.19,1,1,0,0,0,.13.16,1.58,1.58,0,0,1,.12.15.33.33,0,0,1,0,.19,1.34,1.34,0,0,0,0,.2c0,.14-.15.2-.25.28a1.17,1.17,0,0,1-.36.21,1.48,1.48,0,0,1-.42.07l-.46,0a2.46,2.46,0,0,0-.47,0l-.48,0a2.36,2.36,0,0,0-.44.07,2,2,0,0,0-.4.17,8.29,8.29,0,0,1-.83.31.93.93,0,0,1-.44,0L47.78,90c-.31,0-.62-.1-.93-.17l-.92-.19-.46-.09a1.85,1.85,0,0,0-.47,0l-.48,0a1,1,0,0,1-.42,0c-.14,0-.27-.12-.4-.16s-.21,0-.15-.14a1.42,1.42,0,0,1,.12-.13s.09-.11.14-.17a1.3,1.3,0,0,1,.31-.21c.06,0,.16,0,.2-.11s0-.06,0-.09l-.13-.12a.58.58,0,0,1-.13-.14.26.26,0,0,1,0-.17c0-.14,0-.29.09-.43s.11-.24.15-.37a.43.43,0,0,0-.06-.38.6.6,0,0,1-.09-.13c0-.06,0-.09.07-.11a2.16,2.16,0,0,1,.37-.19,1.55,1.55,0,0,1,.43,0,3.71,3.71,0,0,1,.47,0l.22,0c.06,0,.14,0,.19,0s.07-.08.09-.12,0-.13.08-.19a1.46,1.46,0,0,0,.12-.39.44.44,0,0,1,.05-.15c0-.06.1-.08.16-.11l.4-.19a1.79,1.79,0,0,1,.39-.13.64.64,0,0,0,.35-.17,1.35,1.35,0,0,0,.27-.32.56.56,0,0,0,0-.4c0-.13,0-.26-.14-.33l-.16-.09a1.39,1.39,0,0,0-.21-.11,1.94,1.94,0,0,0-.42,0c-.64,0-1.27-.07-1.91-.11l-.94-.08c-.31,0-.62-.09-.93-.1a4.69,4.69,0,0,1-.92-.05l-.44-.14-.44-.12a9.21,9.21,0,0,1-.9-.25,6.22,6.22,0,0,1-.83-.38c-.27-.15-.52-.32-.8-.46L38.64,82a.2.2,0,0,1-.06-.18,1,1,0,0,1,0-.17.14.14,0,0,1,.1-.13l.17-.06a1.24,1.24,0,0,0,.2-.1l.18-.11a2,2,0,0,0,.19-.12.12.12,0,0,0,0-.14c0-.07,0-.15,0-.22a.61.61,0,0,0-.22-.33.69.69,0,0,0-.4-.08c-.16,0-.31,0-.47,0-.31,0-.63-.08-.94-.14l-1.88-.38q-.45-.09-.9-.15a.78.78,0,0,1-.58-.29A.83.83,0,0,1,34,79a1.14,1.14,0,0,1,0-.45c0-.14.08-.28.12-.42a.84.84,0,0,1,.16-.33c.09-.11.21-.2.31-.3l.32-.34a1.53,1.53,0,0,0,.26-.31.84.84,0,0,0,0-.42,1.63,1.63,0,0,0,0-.44c0-.13-.14-.24-.2-.36a2.13,2.13,0,0,1-.18-.41,2,2,0,0,0-.13-.41,2.74,2.74,0,0,0-.23-.36c-.08-.13-.15-.26-.24-.38a5.58,5.58,0,0,0-.58-.61,1.29,1.29,0,0,0-.3-.27c-.12-.07-.25-.12-.38-.18a1.07,1.07,0,0,0-.39-.14,3.23,3.23,0,0,0-.44,0,2.55,2.55,0,0,1-.87-.18c-.15-.06-.28-.13-.43-.18l-.44-.13a3.59,3.59,0,0,1-.43-.14c-.14-.06-.28-.13-.43-.18a6.49,6.49,0,0,0-.89-.25,7.06,7.06,0,0,0-.91-.11,6.29,6.29,0,0,0-1,0c-.31,0-.62.07-.94.12l-.46.08a.94.94,0,0,1-.44,0,3.36,3.36,0,0,1-.81-.33c-.12-.07-.23-.14-.36-.2a1.79,1.79,0,0,0-.39-.13,3.54,3.54,0,0,0-.45-.08.88.88,0,0,0-.42.08l-.19.05H22a.31.31,0,0,1-.19,0,.88.88,0,0,1-.12-.15.56.56,0,0,1-.16-.29,1.74,1.74,0,0,0-.05-.39.49.49,0,0,0-.21-.26,2.2,2.2,0,0,0-.36-.13,2.92,2.92,0,0,0-.38-.14,2,2,0,0,0-.41-.06l-.44,0c-.33,0-.28-.16-.19-.43a1.11,1.11,0,0,1,.16-.35.75.75,0,0,1,.34-.21,1,1,0,0,1,.42,0,2.26,2.26,0,0,1,.41.15L21,69a.18.18,0,0,0,.16,0s.08-.09.12-.13l.13-.17.3-.32c.21-.22.41-.44.64-.64l.72-.61.34-.28a3.1,3.1,0,0,0,.27-.34c.17-.24.36-.47.51-.73a2.05,2.05,0,0,1,.24-.36l.3-.35a2.34,2.34,0,0,1,.32-.31c.11-.09.23-.17.34-.27a2.73,2.73,0,0,0,.27-.31c.08-.12.17-.22.24-.33a1.4,1.4,0,0,0,.16-.4c0-.14.07-.29.11-.43.08-.31.13-.62.19-.92l.06-.21s.05-.11,0-.16-.09,0-.14,0a.64.64,0,0,1-.2,0l-.93.11a5.57,5.57,0,0,0-.9.2c-.29.09-.57.21-.86.29l-.44.11a.77.77,0,0,1-.45,0l-.21-.07c-.05,0-.12,0-.15-.08s0-.11.06-.15l.14-.15c.19-.24.35-.49.52-.75s.33-.51.48-.78l.44-.84c.15-.28.31-.56.47-.83s.34-.53.51-.8c.66-1.05,1.22-2.17,1.85-3.23a16.73,16.73,0,0,0,.86-1.62c0-.11.08-.24.22-.23a2,2,0,0,0,.42.05,1.3,1.3,0,0,0,.38-.17l.41-.2a3.1,3.1,0,0,0,.63-.57,1.81,1.81,0,0,0,.25-.3c.07-.14.12-.28.19-.41a1.46,1.46,0,0,0,.16-.39c0-.15,0-.3,0-.45,0-.32.07-.63.11-.94a2.24,2.24,0,0,1,.12-.73,1,1,0,0,1,.66-.46l.43-.18a3.42,3.42,0,0,0,.4-.17,3.9,3.9,0,0,0,.36-.25,1.07,1.07,0,0,0,.28-.28c.08-.12.14-.24.21-.37a1,1,0,0,0,.11-.41.75.75,0,0,0,0-.42c-.07-.13-.16-.25-.23-.38s-.3-.54-.46-.81-.33-.51-.48-.77a2,2,0,0,1-.18-.4,1.69,1.69,0,0,1,0-.45c0-.31,0-.63,0-1v-.46a2.26,2.26,0,0,1,0-.45,5.5,5.5,0,0,1,.27-.9c.19-.61.38-1.22.58-1.82s.39-1.21.56-1.82c.05-.13.08-.28.13-.41a2.12,2.12,0,0,1,.23-.35l.28-.36.12-.16a.19.19,0,0,0,.06-.17.53.53,0,0,0-.13-.13l-.15-.16a.44.44,0,0,1-.12-.35.6.6,0,0,0,0-.19.55.55,0,0,1,0-.22,1.19,1.19,0,0,1,.09-.15,2.14,2.14,0,0,0,.13-.19,2.31,2.31,0,0,1,.25-.36,1.92,1.92,0,0,0,.28-.29.62.62,0,0,0,.11-.4c0-.14-.08-.28-.11-.42a3.69,3.69,0,0,1-.08-.46c0-.15,0-.3,0-.45a1.74,1.74,0,0,0-.11-.39,3.71,3.71,0,0,1-.06-.45.89.89,0,0,1,0-.43c0-.13.14-.24.2-.37a1.09,1.09,0,0,0,.05-.44,1.32,1.32,0,0,1,0-.44c.08-.29.23-.55.32-.84s.07-.29.12-.43a1.59,1.59,0,0,0,.07-.2c0-.07,0-.14,0-.2a.46.46,0,0,1,.11-.16.88.88,0,0,0,.12-.17,2.14,2.14,0,0,0,.2-.4,1.27,1.27,0,0,0,0-.43,1.26,1.26,0,0,1,.08-.43,1.7,1.7,0,0,0,.13-.4c0-.15,0-.3,0-.45s0-.31,0-.46a2.11,2.11,0,0,0-.09-.45c-.05-.15-.1-.3-.16-.44s-.13-.28-.2-.41a2.59,2.59,0,0,0-.25-.39c-.08-.12-.18-.23-.27-.35A5.8,5.8,0,0,1,34,22c-.12-.29-.24-.58-.37-.87-.24-.57-.49-1.15-.69-1.74-.1-.3-.2-.59-.28-.9a4.09,4.09,0,0,0-.29-.83,1.89,1.89,0,0,1-.18-.41c0-.15-.06-.3-.09-.45a3.66,3.66,0,0,0-.13-.87,2.64,2.64,0,0,0-.2-.37,2.42,2.42,0,0,0-.27-.36c-.2-.22-.42-.41-.63-.62a.92.92,0,0,1-.24-.34.4.4,0,0,1,0-.19c0-.08.06-.16.08-.23a1.79,1.79,0,0,1,.13-.39,1.53,1.53,0,0,1,.27-.3c.11-.11.2-.23.3-.35s.19-.2.28-.31a1.42,1.42,0,0,0,.39-.68,3,3,0,0,0,0-.84c0-.14,0-.28,0-.42s0-.13,0-.19a.35.35,0,0,1,.06-.17S32.19,10.13,32.22,10.12Z"/></svg>