<svg xmlns="http://www.w3.org/2000/svg" viewBox="0 0 100 100"><g id="Baara"><path d="M34.88,13.09c.33-.25.81,0,1.61,1a20.52,20.52,0,0,0,1.58,2.25,4.32,4.32,0,0,0,1.49.73c.62.22,1.22.51,1.83.74a17,17,0,0,0,1.87.46A6.85,6.85,0,0,1,45,19a12.61,12.61,0,0,0,1.48.82,15.33,15.33,0,0,1,2,.85,11.15,11.15,0,0,0,1.34.78c.59.25,1.23.41,1.53,1,.22.46.19.9.54,1.31a8,8,0,0,1,.94,1.36,3.86,3.86,0,0,0,.93,1.26,2.9,2.9,0,0,0,1.71.46,2.47,2.47,0,0,1,1.54.43c.39.34.57.86,1,1.18a8.09,8.09,0,0,0,1.56.7,11.86,11.86,0,0,1,1.67.84c1,.62,1.58,1.64,2.63,2.18a4.46,4.46,0,0,1,1.36.85c.4.46.56,1.1,1.19,1.3s1,0,1.55.25a4.7,4.7,0,0,1,1.39,1,16,16,0,0,0,3,2.19c1.15.67,2.22,1.46,3.35,2.15a37.42,37.42,0,0,1,3.17,2.6c1,.79,2.13,1.74,3.48,1.69a2.76,2.76,0,0,1,1.48.19,4.33,4.33,0,0,1,1.14,1,12.46,12.46,0,0,0,5.86,3.69,16.24,16.24,0,0,0,1.73.45c.38.07,1.44,0,1.65.41s-.41.95-.61,1.23a4.23,4.23,0,0,0-.68,1.89,9.8,9.8,0,0,1-.56,1.74,13.33,13.33,0,0,0-.41,1.5c-.33,1.2-1.75.31-2.48,0a8.15,8.15,0,0,1-1.51-.88,2,2,0,0,0-1.48-.54A2.24,2.24,0,0,0,85.15,56,7.62,7.62,0,0,1,84,57.27a3,3,0,0,0-1,1.23,7.06,7.06,0,0,0-.15,1.6A3.11,3.11,0,0,1,81,62.47c-1.06.56-2.26.74-3.34,1.28A7.12,7.12,0,0,0,74.73,66c-.25.4-.47.94-.94,1.12s-1-.32-1.56-.24-.8.58-1.11.89-.67.91-1.05,1.34-.74.35-1.19.52-.52.62-.8,1c-.72.86-2.11.62-2.91,1.4a3.27,3.27,0,0,0-.74,1.29,21.16,21.16,0,0,0-.7,2,5.42,5.42,0,0,1-.49,1.62,2.44,2.44,0,0,1-1.21.85c-.4.19-.9.43-1,.91s.37.84.45,1.31-.45.49-.26,1a2.62,2.62,0,0,1,.2.79,1.34,1.34,0,0,0,.26.72c.38.51.17.59,0,1.13s.33,1,.72,1.29,1.73,1,.95,1.76a3.22,3.22,0,0,1-1.14.57c-.52.21-.83.43-1.37.13-.89-.51-2.17-1-2.39-2.14a3.44,3.44,0,0,1,.12-1.46A6.22,6.22,0,0,0,59,82.14c0-1-1.24-1.35-2-1.67s-1.81-.71-2.12-1.63c-.18-.56-.09-1.18-.26-1.75a2.77,2.77,0,0,0-1-1.35,6.79,6.79,0,0,0-3.34-1.23,9,9,0,0,0-2,0,10.12,10.12,0,0,1-2-.11,1.17,1.17,0,0,0-1.13.33c-.27.29-.73.8-.57,1.23s.63.29.86.6-.15,1-.42,1.27a4.05,4.05,0,0,1-3.15,1,5.71,5.71,0,0,0-1.75.2c-.53.17-1.08.74-1.67.63a.66.66,0,0,1-.39-1c.25-.41,1-.37,1.11-.88a1.55,1.55,0,0,0-.79-1.17c-.41-.15-.62.36-1.06.12s-1-.53-1.12-.87c-.19-.57.59-.59,1-.55s.91.24,1.31,0,.17-.78,0-1.19a4.46,4.46,0,0,1-.17-1.71,2.88,2.88,0,0,0-.61-1.61,14.75,14.75,0,0,0-2.66-2.45,29.47,29.47,0,0,1-5.57-5.53c-.68-1-1.69-1.81-1.91-3s.25-2.39.1-3.58-1.22-2.12-1.79-3.14A5.28,5.28,0,0,0,25,51.71,3.26,3.26,0,0,0,23.45,51c-2.8-.66-5.68-.92-8.5-1.49-1.37-.28-2.74-.5-4.11-.73a8.34,8.34,0,0,1-3.61-1.46A10.56,10.56,0,0,0,6,46.67c-.49-.27-.28-.76-.07-1.16.55-1.12,1.31-2.12,1.81-3.26S8.2,40,9.35,39.37a8.87,8.87,0,0,0,1.35-.91,14.14,14.14,0,0,1,1.64-1,15.89,15.89,0,0,0,3-2.43c.82-.83,1.1-2,2-2.71.43-.35.91-.63,1.33-1a7.13,7.13,0,0,0,1.21-1.47,15.39,15.39,0,0,1,2.32-3,9.64,9.64,0,0,0,2.27-2.74,15.7,15.7,0,0,1,1.88-3.47,2.92,2.92,0,0,1,1.53-.83,3.56,3.56,0,0,0,1.65-.87,6.18,6.18,0,0,1,1.27-1,10,10,0,0,0,1.54-.76c.47-.37.88-.86,1.33-1.27a1.68,1.68,0,0,0,.54-1A3.29,3.29,0,0,1,34.88,13.09Z"/></g></svg>