<svg id="Parsa" xmlns="http://www.w3.org/2000/svg" viewBox="0 0 100 100"><path d="M89.92,23.48l1.72,1.14.32,1c-.25.8-.73,2.44-.95,3.26.13.75.27,2.62.32,3.41a21.47,21.47,0,0,1-1,6.2,7.16,7.16,0,0,1-1.26,3,8.58,8.58,0,0,1-3.65.66l-1.61.32-1.41,1A117.2,117.2,0,0,0,77,54c-1.08,2.68-1.94,6.29-3.53,8.75l-1.57,1c-.73.14-2.16.49-2.86.71a11.86,11.86,0,0,0-4.44,3.68l-.82,1.14-1.1.55c-1.8.1-4.23-.42-6-.27a13.85,13.85,0,0,0-2.71,1.57,33.37,33.37,0,0,1-7.76,2.39c-.82.35-2.83,1.24-3.65,1.57a20,20,0,0,0-4.28,1.45,5,5,0,0,0-1.14-1.88A6.65,6.65,0,0,0,35,72.4,11.23,11.23,0,0,0,33,70.28c-.44-.26-1.46-.76-1.93-1a11.88,11.88,0,0,0-2.19-2.12,11,11,0,0,0-2.08-2.39,5.69,5.69,0,0,0-1.42-1.26c-.93-1.53-2.52-2.23-3.8-2.94a32.06,32.06,0,0,0-6.67-2.71A6.76,6.76,0,0,0,13,56.63a11.24,11.24,0,0,1-1.88-.55,4.36,4.36,0,0,1-.83-2.27,3.76,3.76,0,0,0-.94-1.42L8,52.63a8,8,0,0,0,1-2.94,4.14,4.14,0,0,0,.31-1.57,16.53,16.53,0,0,1,3.18-4.51,9.87,9.87,0,0,1,4.9-2c2.26-1,4.63-3,6.87-4.08.61-.33,2.47-1,3.13-1.3.47-.28,1.63-1.1,2.08-1.41,1.92-1.6,4.34-2.78,5.89-4.83.15-.6.55-1.81.78-2.39l1-.55a12,12,0,0,0,2.2-.27,10,10,0,0,1,2.39-.71,39.27,39.27,0,0,1,4-1.84,10.41,10.41,0,0,1,4.16.11,16,16,0,0,1,4,1,17.59,17.59,0,0,0,2.87,1.72,5.25,5.25,0,0,1,1.57.55,11.55,11.55,0,0,0,4.16-.86l.47.43c.5,0,3.54.72,4,.43A62,62,0,0,0,75.6,26a19.21,19.21,0,0,0,2.08-.43,29,29,0,0,1,3.49-.12C83.91,24.93,87.16,24,89.92,23.48Z"/></svg>