<?xml version="1.0" encoding="UTF-8"?>
<svg width="700pt" height="700pt" version="1.1" viewBox="0 0 700 700" xmlns="http://www.w3.org/2000/svg">
 <path d="m505.05 363.09v9.6602c0.14062 1.4414 0.14062 2.8984 0 4.3398-1.8906 9.5195-10.988 13.16-18.48 17.5-3.6406 2.1016-2.0312 7.4219-5.8086 10.5-5.1797 4.2695-11.898 1.3281-16.238 4.1289h-0.003907c-2.293 2.2227-3.9805 4.9922-4.8984 8.0508-2.125 3.4531-5.1484 6.2617-8.75 8.1211-1.0039 0.68359-1.9609 1.4336-2.8711 2.2383-0.69922 0.76953-1.3984 1.6094-2.0312 2.4492-3.3477 4.0664-7.1523 7.7305-11.34 10.922l-0.55859 0.55859c-0.074218 0.32422-0.074218 0.66016 0 0.98047v21.559 0.003906c0.53125 3.2031 1.5195 6.3164 2.9414 9.2383 1.5312 4.5078 3.4766 8.8672 5.8086 13.02 2.6406 4.168 3.8438 9.0859 3.4297 14 0 4.4805 1.5391 11.621-2.3086 14.699-7.1328 5.7461-13.867 11.969-20.16 18.621-3.2148 3.5977-6.1172 7.4648-8.6797 11.551-2.8711 4.1992-1.1914 10.359-1.0508 14.98 0.027344 7.0234-0.44141 14.039-1.4023 21l-0.91016 12.949v-1.4688c-0.65234-0.69531-1.1758-1.5-1.5391-2.3828-2.2383-4.8281-3.0781-10.922-9.1719-10.922l0.003906 0.003906c-3.9805 0.25391-7.9258 0.9375-11.762 2.0312-6.0273 1.375-11.91 3.3203-17.57 5.8086-6.6211 3.1211-13.48 5.7188-20.508 7.7695-3.25 1.0391-6.5742 1.8359-9.9414 2.3789-0.45703 0.14062-0.94531 0.14062-1.3984 0-0.37109-0.19531-0.70312-0.45312-0.98047-0.76953-0.91016-1.0508-1.9609-3.2188-3.5703-3.0781s-2.8008 2.3789-3.7109 3.2188c-6.3008 5.25-13.512 5.1094-21 7.6992-5.7539 1.8398-11.391 4.0391-16.871 6.582-2.8008 1.4688-5.3906 4.8281-8.6797 5.0391-2.9414-0.28906-5.832-0.94531-8.6094-1.9609-2.1367-0.28516-4.2422-0.75391-6.3008-1.3984-2.1016-0.91016-1.75-0.76953-2.1719-2.9414s-0.83984-6.5781-4.4102-7h0.003906c-1.418-0.21094-2.8555-0.21094-4.2695 0-6.1797-0.28125-12.223-1.9062-17.711-4.7578l1.2617-1.4688c2.8008-3.2188 2.3086-4.8281 3.7812-8.75l-0.003906-0.003907c2.0586-5.5156 4.6133-10.832 7.6289-15.891 3.207-6.9297 4.832-14.484 4.7617-22.117 0.21484-5.9336 0.003906-11.879-0.62891-17.781-4.9688-1.5391-11.41-3.7109-8.75-10.148 1.2617-3.2188 3.5703-5.8789 4.8281-9.0312 1.75-4.2695-0.48828-3.7812-4.1992-6.0195s-8.9609-3.9219-10.781-7.4219c-2.7305-5.25 1.4688-16.66 2.3086-22.328h0.003906c0.63672-3.9961 2.3008-7.7617 4.8281-10.922 0.35156-0.55859 4.7617-7 4.7617-7-2.75-2.9648-5.2578-6.1484-7.4922-9.5195-1.4453-3.0703-2.707-6.2266-3.7773-9.4492-3.3945-6.4492-9.1719-11.32-16.102-13.582-6.3711-2.7305-14.488-3.6406-19.391-8.75-3.2188-3.3594-12.039-7.8398-9.5195-13.09 3.3594-7 12.879-9.8711 15.539-17.922v0.003906c3.5977-8.457 3.4727-18.035-0.34766-26.391-0.47266-0.63281-0.82812-1.3438-1.0508-2.1016-0.13672-0.78516-0.13672-1.5898 0-2.3789 0.42188-3.1484 0.76953-6.3711 1.1914-9.5195 0.83984-7 8.2617-8.8203 9.8711-14h-0.003907c1.4688-7.207 1.4688-14.633 0-21.84-0.27344-2.3516-2.1289-4.2031-4.4805-4.4805-4.4805-0.55859-5.7383 0-7.9805-3.9883-2.2383-3.9883-3.7109-7-5.7383-10.641-3.9219-6.3711-7.9102-7.7695-3.2891-15.121 3.9883-6.2305 5.5312-8.8906 13.23-9.1016v0.003907c5.4023 0.070312 10.801 0.41797 16.168 1.0469 4.6914 0.35156 10.43-3.9219 14.629-5.8789 2.6016-2.4297 4.7578-5.2969 6.3711-8.4688 1.9141-3.3125 3.1289-6.9805 3.5703-10.781 0.76953-7 7-10.922 12.531-14.629 1.8203-1.1914 0-3.4297 0-4.9688 0-1.5391-10.43-3.5-11.969-3.9883-3.1484-1.0508-7-7.4883-9.5898-9.8711l-0.003907-0.003906c-0.66406-0.58984-1.2109-1.3047-1.6094-2.0977-0.24609-0.65234-0.38672-1.3359-0.41797-2.0312-0.59766-3.9648-0.94922-7.9609-1.0508-11.969 0-5.9492 0.48828-7.6289-6.1602-7.4219-5.3906 0-10.852-7-14.629-10.148-3.7812-3.1484 2.5898-13.441 3.6406-17.078 1.0508-3.6406-4.2695-4.0586-6.5781-6.1602l-0.003906-0.003906c-4.3789-4.7617-7.8438-10.289-10.219-16.309-3.1055-7.8711-4.7422-16.246-4.832-24.711h2.8711c1.8789-0.27344 3.7148-0.79297 5.4609-1.5391 1.6797-0.48828 3.3594-0.98047 5.0391-1.6094 2.793-0.95703 5.4883-2.1758 8.0508-3.6406 5.1094-3.2422 9.2656-7.7812 12.039-13.16 0.66016-2.4141 1.5508-4.7578 2.6602-7 0 0 0.42188-0.55859 0.69922-0.42188 0.28125 0.14062 0 0 0.42188 0 0.98047 1.6797 1.0508 3.7109 2.0312 5.3906h-0.003906c2.5703 3.582 6.0508 6.4102 10.082 8.1914 3.9492 2.1445 8.1289 3.8359 12.461 5.0391 8.6094 2.5 17.664 3.0977 26.527 1.75 6.5781-1.0508 13.441-3.1484 20.02-3.5703 4.8242-0.59375 9.7109 0.3125 14 2.5898 7.9648-7.4102 17.77-12.551 28.391-14.891 10.625-2.3359 21.68-1.7891 32.02 1.5938 4.6914 1.5391 9.9414 5.0391 9.4492 9.9414-0.35156 3.7109-3.7812 6.1602-6.3008 8.8906-11.48 12.949-1.2617 33.879 12.25 44.73 13.512 10.852 30.871 18.969 37.66 35-1.2617 8.0508-2.5195 16.031-3.8516 24.012l0.003906-0.007813c-0.55859 2.6562-0.55859 5.3984 0 8.0508 1.1914 4.5508 5.3906 7.4883 8.6094 10.988 12.25 13.441 9.1016 34.301 5.25 52.078v0.003907c18.52 10.379 32.312 27.508 38.5 47.812 0.61719 3.8203 2.5781 7.2969 5.5312 9.7969l4.6914-0.83984c3.5977 2.2383 6.2773 5.6914 7.5586 9.7305 0.94531 4.0586 1.2969 8.2305 1.0508 12.391z"/>
</svg>
