<svg id="Parsa" xmlns="http://www.w3.org/2000/svg" viewBox="0 0 100 100"><path d="M80.91,25.7c-.31.67-1.84.9-1.72,1.71a17.15,17.15,0,0,1,2.44,2.82c.21.05.49-.08.64.15s-.09.44-.22.59c-.5.54-.68,1.27-1.13,1.85s.77,1.16,1.19,1.57c.83.64,1.66-.35,2.54-.29,1.55.43,3-1.07,4.54-.37.7.51,1.18,1.27,2,1.58,1,.5,1.48,1.29.78,2.32.11.29.55.32.69.63s-.53-.06-.57,0c-.57,0-.57.81-1,1.09-.72.29-.89.87-1.26,1.44a6.21,6.21,0,0,0-1.68.64c-.4,0-.34-.7-.75-.81s-.69.28-.91.59-.72.58-.91,1c-.43,1,.78,1.29,1.19,2,1,1.13-.12,2.28-.15,3.52-.09.62-.84.65-1.16,1.09-.52,1-1.57,1-2.56.8-1.11.73-1.22,2.66-1.12,4,.33,1.54,1.29,2.93,1.31,4.53-1,2.1.72,3.34,2.51,4,0,.2-.24.46-.48.38a11.73,11.73,0,0,0-4.37.26,2.38,2.38,0,0,0-1.78,0c-.64.06-.58-.87-.93-1.22a3.81,3.81,0,0,0-2.4-.73c-.77,0-1.45-.49-2.23-.48A6,6,0,0,1,71.61,60c-.3-.27-.55-.74-1-.55s-.73.87-.68,1.39-.68.85-.66,1.48c-.41,1.27-2.89,1.5-.17,2.17.3.7-1,.27-.93.77,0,.3-.08.6,0,.88.2.31.33.78-.26.67-.27,0-.34.08-.34.29s-.18,0-.23-.06c-.64-.5-1.46,0-2.15.15-.4.35-.95.48-1.32.85a1.67,1.67,0,0,1-.5.67c-.23.25-.91.21-.88.62.1.08,0,.19-.1.22-.61.46-.87-.43-1.42-.53s-1.15-.08-1.51-.62a3.73,3.73,0,0,0-2.13-.31c-.38.33-.81,0-1.23.25a6.28,6.28,0,0,0-1.73,0c-.55-.13-1-.69-1.57-.59-1.47.51-3,0-4.41-.24a13,13,0,0,0-2.61-1c-.23-.06-.58-.19-.75,0-.14.53-.48.18-.73-.08s-1-.5-1.17-1c.16-1.13.1-2.62-1-3.29-1.19-.12-.26-.84-1-1.43-.5-.62-1.27-.4-1.91-.35-.45-.67-1,.12-1.32.56.12,1-1.53.47-1.39-.31.19-.44-.32-.83-.11-1.23s0-.73-.32-.84c-.59-.22-1.21.18-1.79-.08-.34-.31-.8-.17-1.19-.32a2.16,2.16,0,0,0-1.88-.85,1.08,1.08,0,0,1-.2-1.68,2.06,2.06,0,0,1,.11-.85c0-1.15-1.46-.4-2-.07a.94.94,0,0,1-1.26-.57c-.47-.31-1.42-.33-1.69.25S26.29,55.53,26,56a2.17,2.17,0,0,1-1.06,1.31c-.91.07-1.84.18-1.75,1.37a1,1,0,0,1-.49.55.55.55,0,0,0-.28.65c.07.19.23.38,0,.53s-.38.12-.44.33a.48.48,0,0,1-.4.5,22.18,22.18,0,0,0-3,.89,4.33,4.33,0,0,0-2.12-.69,1.89,1.89,0,0,0-1.76.07c-.31.05-.57-.18-.84-.3-.56-.28-1.12.09-1.64.29s-.64-.28-.85-.57-.55,0-.83-.07c-.58,0-.05-.37.12-.62a3.26,3.26,0,0,0,.36-3c0-.85,1-.91,1.58-1.29,1.1-.5,1.79-1.7.51-2.46-.92-.61-1.34.65-2.12.88-1.69.88-2.65-1.15-1.79-2.49.25-.44.76-.33,1.2-.33,3.08.3,6.25.18,9.36.4a18.6,18.6,0,0,1,4.86-.71c1.6.07,3.68-.22,4.08-2.06,3.93-5.53,10.51-7.61,16.47-10.11a23,23,0,0,0,2.49-1.37c.44-.87,1.4-1,2.28-1.08.66-.22,1.12.17,1.46.69,1.7,1.83,4.71-.06,6.18-1.34a3.59,3.59,0,0,0-.46-2.58c-.1-.74,1-.71,1.38-1.09s.75-1.24,1.32-1.62c.55,0,1,.76,1.55.57s.22-1-.16-1.35c-.79-1-2.36-.48-3.11-1.44-1.07-1.4.41-3.9,2.17-3.25.65.12,1.2-.3,1.83-.31a7.62,7.62,0,0,0,2.32.34c.44.09.81.42,1.26.47.61,0,.79-.77.93-1.25.31-1.49,2.1-.16,2.92-.85.5-.39.37-1.1.64-1.61s1-.46,1.41-.82c.61-1.07,1.38-1.89,2.65-1a1,1,0,0,0,.82.16c.42-.21.88-.76,1.32-.25s.83.79,1.22,1.16a1.71,1.71,0,0,1,.8.22.37.37,0,0,1,.15.3c.08.45.68.44.94.77s.3,1.11.4,1.68S80.68,25.19,80.91,25.7Z"/></svg>