<svg xmlns="http://www.w3.org/2000/svg" viewBox="0 0 100 100"><g id="Sarlahi"><path d="M91.89,29.33s0,0-.07,0a3.86,3.86,0,0,0-.9.07.91.91,0,0,0-.17.09,2.12,2.12,0,0,1-.21.11.38.38,0,0,0-.15.09.59.59,0,0,0-.11.19,2,2,0,0,1-.11.2c0,.06,0,.13-.08.19a.21.21,0,0,1-.14.1h-.1l-.11,0c-.13,0-.17-.15-.22-.25l-.1-.18c0-.05-.07-.11-.14-.13h-.2a.09.09,0,0,0-.09.08.87.87,0,0,0,0,.23,1,1,0,0,1,0,.24,1.52,1.52,0,0,0,0,.21c0,.09,0,.17,0,.25l0,.2a2.34,2.34,0,0,0,0,.26.26.26,0,0,1-.09.17l-.17.08a.38.38,0,0,0-.27.24,1.25,1.25,0,0,0,0,.19.39.39,0,0,0,0,.24.8.8,0,0,0,.08.16l.12.23c.07.14.13.28.19.42a1.43,1.43,0,0,1,.12.45.62.62,0,0,1-.16.38.88.88,0,0,0-.12.15.52.52,0,0,0-.07.21.56.56,0,0,0,.17.37.54.54,0,0,0,.15.15l.2.11.4.24c.13.08.26.16.38.25a3.17,3.17,0,0,1,.34.28.71.71,0,0,1,.12.18,1.28,1.28,0,0,1,.11.2.49.49,0,0,1,.06.17.23.23,0,0,1,0,.2l-.12.18c0,.06-.07.13-.11.2a.73.73,0,0,0-.06.21,1.64,1.64,0,0,0,0,.22,1.79,1.79,0,0,1,0,.23.34.34,0,0,1,0,.1.2.2,0,0,1,0,.11c0,.06-.09.07-.13.09l-.23.1a.86.86,0,0,1-.41.1.44.44,0,0,1-.19-.07l-.14-.15a3.47,3.47,0,0,0-.37-.3,1.92,1.92,0,0,0-.38-.25.65.65,0,0,0-.2,0l-.23,0a1.66,1.66,0,0,0-.21.06.76.76,0,0,0-.18.09.88.88,0,0,1-.15.12,2,2,0,0,1-.22.09,2.23,2.23,0,0,1-.43.16l-.47.1-.46.09a1.74,1.74,0,0,0-.22,0,.52.52,0,0,0-.17.13,1.85,1.85,0,0,0-.21.33.44.44,0,0,0-.07.19.34.34,0,0,0,.07.19,2.09,2.09,0,0,1,.14.17c0,.06.07.12.11.17l.17.14a1.33,1.33,0,0,0,.19.14,2.88,2.88,0,0,1,.33.28c.1.11.18.23.27.35a.54.54,0,0,1,.11.18,1.6,1.6,0,0,1,0,.23c0,.16,0,.32.06.48s0,.32,0,.48a.81.81,0,0,0,0,.22,1.8,1.8,0,0,0,.08.21.36.36,0,0,0,.18.27,1,1,0,0,0,.43,0l.2,0a1,1,0,0,0,.24-.07.82.82,0,0,1,.22,0,.3.3,0,0,1,.21,0,.83.83,0,0,1,.15.11.34.34,0,0,1,.09.19c0,.15-.09.26-.14.39l-.08.2a2.12,2.12,0,0,1-.11.21c-.08.14-.16.28-.23.42s-.14.28-.22.42a2.13,2.13,0,0,1-.29.31l-.35.32-.36.29-.77.61c-.24.2-.49.38-.75.56a3,3,0,0,1-.8.41l-.44.15a3.19,3.19,0,0,1-.44.13,2.63,2.63,0,0,1-.49,0,1.78,1.78,0,0,0-.45.08l-.21.07a.48.48,0,0,0-.19.09L81.9,47l-.19.11a3.25,3.25,0,0,0-.43.18,1.12,1.12,0,0,0-.26.32.53.53,0,0,0,0,.41c0,.16.08.31.13.46a3.38,3.38,0,0,0,.18.44l.09.18a.54.54,0,0,1,.08.21c0,.08,0,.15,0,.23v.24c0,.16,0,.32,0,.47s0,.33-.07.49,0,.32,0,.47a3.55,3.55,0,0,1,0,.46c0,.13-.13.2-.26.23a1.68,1.68,0,0,0-.44.07l-.17.1-.21.13a.94.94,0,0,0-.18.12.71.71,0,0,1-.18.12.44.44,0,0,1-.2,0l-.23-.05c-.16,0-.32-.08-.48-.1a2.47,2.47,0,0,0-.47,0l-.48,0a1.18,1.18,0,0,0-.45.1,1.47,1.47,0,0,0-.37.24c-.11.09-.2.21-.3.31a.7.7,0,0,1-.17.13l-.2.09a1.83,1.83,0,0,1-.46.12,9.4,9.4,0,0,0-.92.2c-.31.08-.61.19-.92.28s-.61.17-.92.24a6.31,6.31,0,0,1-1,.15l-.48,0-.21,0a2.09,2.09,0,0,1-.25,0l-.47,0h-.5c-.15,0-.31,0-.47,0h-.23l-.23,0a1.2,1.2,0,0,0-.39.2,2.57,2.57,0,0,0-.37.28c-.12.1-.22.21-.33.31l-.34.31c-.11.1-.21.21-.31.32a.93.93,0,0,1-.36.26h-.2l-.24,0-.2-.09-.21-.09c-.06,0-.1,0-.15,0l-.17.14-.15.12c0,.05,0,.11,0,.18a1.35,1.35,0,0,1,0,.45,1.28,1.28,0,0,1-.14.43,1.25,1.25,0,0,1-.26.3.41.41,0,0,0-.12.14.67.67,0,0,0-.09.21,1.06,1.06,0,0,1-.16.38.23.23,0,0,1-.15.07l-.23,0-.22,0-.23,0a1.19,1.19,0,0,0-.44.17c-.06,0-.1.08-.16.11a.78.78,0,0,1-.2.11l-.2.08-.22.09a1.82,1.82,0,0,1-.46.06c-.16,0-.32.07-.48.08a1.92,1.92,0,0,0-.86.13.49.49,0,0,0-.23.31.35.35,0,0,0,0,.2.2.2,0,0,0,.08.14.92.92,0,0,0,.29.11l.45.1.46.12.48.08.2,0a.46.46,0,0,1,.18.13.93.93,0,0,1,.14.14.29.29,0,0,1,.07.18,1.18,1.18,0,0,1,0,.46l-.07.18a2.29,2.29,0,0,0-.1.23c0,.06,0,.13-.07.2l-.08.21c-.06.13-.19.18-.3.25a3.48,3.48,0,0,1-.43.22,3.26,3.26,0,0,1-.44.15c-.3.09-.61.14-.91.25l-.44.17L60.2,63l-.92.24-.22.06-.23.1c-.13.06-.28.07-.42.12l-.4.17a.64.64,0,0,0-.32.22.56.56,0,0,0-.07.38,1.64,1.64,0,0,0,.13.43c.12.26.29.49.42.75a1.59,1.59,0,0,0,.45.61,1.88,1.88,0,0,1,.18.12l.17.14a1.33,1.33,0,0,0,.37.2,9.24,9.24,0,0,0,.89.29l.44.16a3.83,3.83,0,0,1,.43.17,1.9,1.9,0,0,1,.39.23,3.1,3.1,0,0,1,.34.27.46.46,0,0,0,.07.07l0,.07c0,.06,0,.11-.08.15a.54.54,0,0,1-.16.1l-.21.06a2.58,2.58,0,0,1-.48,0,2.57,2.57,0,0,0-.48,0l-.46.08a3.69,3.69,0,0,0-.45.11,3.26,3.26,0,0,1-.44.15,3.73,3.73,0,0,1-.44.08l-.47,0a3.65,3.65,0,0,0-.46.07l-.19.07a.83.83,0,0,0-.17.15.25.25,0,0,0-.08.15.31.31,0,0,1-.11.18l-.14.16a.23.23,0,0,0-.07.18,1.8,1.8,0,0,0,0,.22c0,.07,0,.15,0,.23a1.52,1.52,0,0,1,0,.21,2.1,2.1,0,0,0,.06.24,2.32,2.32,0,0,1,0,.46c0,.16,0,.31,0,.46a3.73,3.73,0,0,1,0,.47.74.74,0,0,0,.06.41,1.4,1.4,0,0,0,.26.33c.1.12.17.24.26.36l.13.17a2.39,2.39,0,0,1,.13.21,2.4,2.4,0,0,0,.23.38c.08.13.16.25.23.39a2.07,2.07,0,0,1,.13.89c0,.16,0,.31,0,.47a.85.85,0,0,1-.12.41,2.59,2.59,0,0,1-.64.64c-.13.08-.26.16-.4.23s-.27.13-.4.21L57,77.1a1.14,1.14,0,0,0-.15.16,1.51,1.51,0,0,1-.09.18.7.7,0,0,1-.14.16l-.11.16a.59.59,0,0,1-.18.13,2.49,2.49,0,0,1-.4.2.42.42,0,0,1-.22,0,1.81,1.81,0,0,1-.23,0,1.25,1.25,0,0,0-.47.07,1.62,1.62,0,0,0-.37.19.43.43,0,0,1-.32.14,1.17,1.17,0,0,1-.2-.06.6.6,0,0,0-.23,0l-.23,0h-.26c-.16,0-.31,0-.47,0l-.23,0h-.23a1.8,1.8,0,0,1-.41-.14l-.47-.16a2.66,2.66,0,0,1-.74-.4.64.64,0,0,1-.23-.26.28.28,0,0,1,0-.2,1.55,1.55,0,0,1,.07-.23,1.67,1.67,0,0,0,.08-.2,2.1,2.1,0,0,0,.06-.24,3.69,3.69,0,0,1,.11-.45L51,76a1.19,1.19,0,0,1,.08-.2.8.8,0,0,0,.07-.2.59.59,0,0,0,0-.23A.29.29,0,0,0,51,75.2a.78.78,0,0,0-.2-.11A2.59,2.59,0,0,0,50.4,75l-.11,0-.09,0a.09.09,0,0,1,0-.08s0-.08,0-.12a2.13,2.13,0,0,0,0-.44.77.77,0,0,0-.46-.57,2.75,2.75,0,0,1-.41-.11.68.68,0,0,1-.33-.25s-.06-.1-.09-.15,0-.14-.08-.2a.49.49,0,0,0-.31-.25,1,1,0,0,0-.45,0l-.47.08a3.28,3.28,0,0,0-.86.31c-.15.06-.29.14-.43.21a3.64,3.64,0,0,0-.39.23,2.19,2.19,0,0,1-.4.21,3.81,3.81,0,0,1-.44.15,3.07,3.07,0,0,1-1,.13,2,2,0,0,1-.87-.2,2.71,2.71,0,0,1-.35-.24l-.35-.24-.38-.27-.39-.25-.19-.12-.22-.1-.43-.16L40,72.2a.86.86,0,0,1-.38-.22.75.75,0,0,1-.09-.15.31.31,0,0,0-.14-.16,2.71,2.71,0,0,0-.37-.21.54.54,0,0,0-.21,0l-.23,0-.45.15a1.31,1.31,0,0,1-.44.07,6,6,0,0,1-.95-.06,8,8,0,0,1-1-.19l-.46-.11a2.59,2.59,0,0,1-.45-.14,6.47,6.47,0,0,1-.82-.44l-.39-.23a1.15,1.15,0,0,0-.41-.17,1.46,1.46,0,0,0-.22,0,.93.93,0,0,0-.23,0l-.46.13-1,.24-.46.13-.2,0a.46.46,0,0,1-.23-.06,3.11,3.11,0,0,1-.4-.22c-.14-.08-.27-.17-.42-.24a3.43,3.43,0,0,0-.83-.3A1.76,1.76,0,0,0,28.4,70l-.49,0c-.32,0-.64,0-1,0-.15,0-.31,0-.47.06a1.84,1.84,0,0,0-.47.07,3,3,0,0,0-.41.19l-.42.19-.42.19a2,2,0,0,0-.4.24,1,1,0,0,0-.14.15.54.54,0,0,1-.15.15.42.42,0,0,1-.19,0,1.07,1.07,0,0,1-.25,0,1.76,1.76,0,0,1-.2-.09l-.21-.1-.45-.18a2.41,2.41,0,0,0-.45-.16,3.62,3.62,0,0,0-.46-.06,4.51,4.51,0,0,0-1,.05A5.8,5.8,0,0,0,20,71a6.76,6.76,0,0,0-.89.33l-.18.08a1,1,0,0,1-.2.11,2.1,2.1,0,0,1-.42.09l-.21,0a.47.47,0,0,1-.21-.06,1.36,1.36,0,0,1-.39-.22,3.65,3.65,0,0,1-.53-.71,4.88,4.88,0,0,0-.59-.69c-.21-.22-.46-.4-.67-.62s-.2-.23-.31-.33L15,68.63c-.11-.11-.21-.21-.31-.33a2.2,2.2,0,0,0-.3-.31L14,67.72c-.12-.1-.25-.19-.36-.3l-.13-.15-.15-.17a4.05,4.05,0,0,1-.21-.35c-.18-.24-.43-.43-.6-.67s-.25-.55-.43-.79c0-.06-.09-.12-.13-.19l-.15-.18-.17-.12-.19-.15a2.9,2.9,0,0,0-.36-.25l-.4-.21-.21-.1L10.31,64l-.45-.12a3.73,3.73,0,0,0-.46-.09,2.27,2.27,0,0,0-.45,0,.62.62,0,0,1-.4,0,3.64,3.64,0,0,1-.35-.24l-.15-.12C8,63.34,8,63.3,8,63.24s.08-.1.12-.14A.65.65,0,0,1,8.26,63l.19-.11a.9.9,0,0,0,.18-.15c.11-.11.2-.22.31-.32a3.26,3.26,0,0,0,.31-.33c.1-.12.2-.24.29-.37a1.09,1.09,0,0,1,.13-.17,1.15,1.15,0,0,0,.14-.17.67.67,0,0,1,.24-.31l.16-.06.2-.08a3.12,3.12,0,0,1,.43-.15.52.52,0,0,0,.2-.09l.18-.12a.79.79,0,0,0,.3-.2c.05-.06.07-.13.11-.18a.64.64,0,0,1,.15-.13A1.26,1.26,0,0,1,12,59.9l.19-.08a1.4,1.4,0,0,1,.38-.16c.13,0,.24.09.36.12a.7.7,0,0,1,.2.08l.2.09.22.08a1.18,1.18,0,0,0,.19.11c.14.08.29.13.43.2l.42.21.2.09a1.07,1.07,0,0,1,.16.14c.12.1.22.21.33.31a1.9,1.9,0,0,0,.37.26,1.61,1.61,0,0,0,.4.17l.22,0,.22,0a2.33,2.33,0,0,0,.46,0h.49l.21,0a1,1,0,0,1,.24,0c.15,0,.3.05.45.08a1.92,1.92,0,0,1,.42.16l.22.08a.88.88,0,0,0,.23.07,1.47,1.47,0,0,0,.21,0,.59.59,0,0,1,.23,0s.1.05.14,0,0,0,0,0l0-.11a1.11,1.11,0,0,1,.09-.19c0-.06.1-.11.15-.17a1,1,0,0,0,.12-.16c0-.06.08-.13.11-.2a.45.45,0,0,0,0-.2s0-.08,0-.11a.57.57,0,0,1,0-.13.29.29,0,0,1,.11-.11.93.93,0,0,0,.15-.13l.13-.16.18-.16.14-.15.18-.17a2.42,2.42,0,0,1,.39-.21l.44-.17c.15,0,.31-.07.46-.12l.21-.06.23-.06.19-.08.22-.11a.81.81,0,0,0,.33-.21.59.59,0,0,0,.08-.41.3.3,0,0,0,0-.18.52.52,0,0,0-.17-.12,1.35,1.35,0,0,1-.26-.32A2.14,2.14,0,0,0,23,57.5c-.11-.12-.22-.24-.31-.36s-.17-.24-.27-.36a1.34,1.34,0,0,1-.22-.36,3.61,3.61,0,0,1-.16-.42,1.8,1.8,0,0,1-.06-.22,1,1,0,0,1,0-.24,3.53,3.53,0,0,1,0-.46,3.5,3.5,0,0,0,.07-.45,1.77,1.77,0,0,0,0-.23c0-.08,0-.15,0-.23A1.6,1.6,0,0,0,22,54c0-.08,0-.16-.05-.23a1.17,1.17,0,0,0-.05-.2,2,2,0,0,1-.05-.24,2.09,2.09,0,0,0-.19-.4,2.28,2.28,0,0,0-.2-.38,1.45,1.45,0,0,0-.32-.29,2.35,2.35,0,0,1-.33-.3,2.39,2.39,0,0,1-.28-.35l-.12-.17a1.14,1.14,0,0,0-.16-.15.32.32,0,0,1-.1-.17.88.88,0,0,1-.07-.23.66.66,0,0,1,0-.2,1.92,1.92,0,0,1,0-.24l0-.1a.16.16,0,0,0,0-.1,1.52,1.52,0,0,1,0-.21,1.46,1.46,0,0,0,0-.22l.06-.22c0-.16.09-.31.15-.46s.23-.52.49-.52.38.22.49.37l.25.33a2.56,2.56,0,0,1,.22.39c.06.14.11.28.17.41a.49.49,0,0,0,.28.25,1.48,1.48,0,0,0,.42.07h.47a2.44,2.44,0,0,1,.47,0,1,1,0,0,1,.42.12,2.33,2.33,0,0,1,.35.27,3.11,3.11,0,0,1,.31.32,2.45,2.45,0,0,0,.29.35l.16.13a1.1,1.1,0,0,0,.18.14.65.65,0,0,0,.2,0h.25a.93.93,0,0,0,.44,0,1.25,1.25,0,0,0,.4-.2.55.55,0,0,0,.19-.32,3.4,3.4,0,0,0,.06-.46c0-.15,0-.31.06-.46a2,2,0,0,0,0-.49l0-.21a.51.51,0,0,0-.06-.21.74.74,0,0,0-.12-.13.47.47,0,0,1-.06-.2c0-.15,0-.31,0-.46a1.89,1.89,0,0,0-.11-.47,1,1,0,0,0-.2-.36l-.14-.14a.75.75,0,0,1-.1-.2.47.47,0,0,1-.06-.21.52.52,0,0,1,0-.21.38.38,0,0,1,.09-.18l.18-.15.37-.29.34-.3a.66.66,0,0,0,.14-.15.78.78,0,0,0,0-.21,1.85,1.85,0,0,0,0-.23,2,2,0,0,0,0-.24,1.47,1.47,0,0,1,0-.21.61.61,0,0,0,0-.23l0-.08s0-.07,0-.11a.76.76,0,0,0-.06-.2,1.52,1.52,0,0,1-.06-.2,1.7,1.7,0,0,1,0-.22l0-.23a1.94,1.94,0,0,0,0-.24.74.74,0,0,1,0-.21.93.93,0,0,1,.05-.24,1.46,1.46,0,0,0,0-.22.68.68,0,0,1,.07-.2c.07-.13.16-.26.23-.39a2.59,2.59,0,0,0,.29-.89,7.07,7.07,0,0,0,0-.92,2.87,2.87,0,0,1,.11-.92.3.3,0,0,1,.1-.17,1,1,0,0,1,.18-.09,2.14,2.14,0,0,0,.42-.16.83.83,0,0,0,.16-.12l.16-.15a.91.91,0,0,0,.09-.17,1.18,1.18,0,0,1,.13-.18,3.19,3.19,0,0,0,.26-.38c.08-.13.16-.26.23-.4a.66.66,0,0,0,.09-.43.53.53,0,0,0-.08-.17.78.78,0,0,1-.11-.2.81.81,0,0,1,0-.22,1.43,1.43,0,0,1,0-.22l0-.12s0,0,0,0,0,0,.05,0l.07.06a.4.4,0,0,0,.15.1.5.5,0,0,0,.21,0,.31.31,0,0,1,.19,0,1.13,1.13,0,0,1,.18.12l.19.1a.21.21,0,0,0,.17.06c.15,0,.25-.14.38-.2l.19-.07.2-.13a3.07,3.07,0,0,0,.34-.29.4.4,0,0,0,.09-.35,1.59,1.59,0,0,1-.07-.2.35.35,0,0,1,.06-.22.92.92,0,0,1,.29-.3c.1-.1.19-.21.3-.31a1,1,0,0,1,.16-.12,1.11,1.11,0,0,1,.19-.09l.45-.16.19-.07a.57.57,0,0,0,.19-.1.67.67,0,0,0,.15-.32.68.68,0,0,1,.22-.31.23.23,0,0,1,.16-.08.54.54,0,0,1,.22,0,.65.65,0,0,1,.17.08.48.48,0,0,1,.19.09,1.26,1.26,0,0,1,.25.31c.06.13.12.26.19.39s.06.12.12.11a.32.32,0,0,0,.14-.14,1.27,1.27,0,0,0,.06-.18,1.13,1.13,0,0,1,.33-.54l.19-.14.17-.14a.35.35,0,0,1,.18,0,.21.21,0,0,0,.12-.29.62.62,0,0,0-.14-.19l-.16-.15a1.83,1.83,0,0,1-.13-.16c0-.06,0-.1,0-.17a.7.7,0,0,0,.08-.2.55.55,0,0,0,0-.22c0-.06,0-.15,0-.21a.54.54,0,0,1,.12-.09l.08-.06s.05-.06.09-.07.14,0,.2,0a.5.5,0,0,0,.21,0,.44.44,0,0,0,.17-.08.56.56,0,0,1,.18-.07.75.75,0,0,1,.21,0,1.87,1.87,0,0,1,.22.07c.14,0,.24-.09.32-.19s.08-.1.13-.12.12.05.17.07.27.1.36,0a1.12,1.12,0,0,0,.12-.32,1,1,0,0,1,.17-.38,1,1,0,0,1,.34-.2.86.86,0,0,1,.4-.13c.17,0,.32,0,.48,0a.71.71,0,0,0,.37-.15c.05,0,.1-.1.16-.09l.09,0,.09,0c.08.07.09.18.13.27a.33.33,0,0,0,.28.21,1,1,0,0,0,.18,0,.22.22,0,0,0,.13-.12.64.64,0,0,1,.13-.15l.15-.14a.24.24,0,0,1,.19-.07,1.51,1.51,0,0,1,.22.11l.2.09s.12.07.17,0,0-.1.08-.14A.77.77,0,0,0,43,30l.09-.19a1.43,1.43,0,0,0,.08-.22.82.82,0,0,0,0-.22.17.17,0,0,1,0-.1.23.23,0,0,1,.07-.1.58.58,0,0,0,.08-.18c0-.08,0-.15,0-.23a.8.8,0,0,1,.17-.36,1.05,1.05,0,0,1,.35-.21c.15-.06.3-.1.45-.15a2.56,2.56,0,0,1,.46-.11c.16,0,.32,0,.47-.06a3.52,3.52,0,0,0,.43-.13c.16-.05.31-.09.46-.15s.29-.12.44-.16a.8.8,0,0,1,.21-.05h.24a1.16,1.16,0,0,0,.41-.13,1.1,1.1,0,0,1,.42-.14c.16,0,.31,0,.47,0a2.42,2.42,0,0,0,.46-.06,1.79,1.79,0,0,0,.39-.2,2.66,2.66,0,0,0,.38-.28,3.22,3.22,0,0,0,.32-.32l.33-.32a1.07,1.07,0,0,0,.14-.16,2,2,0,0,0,.12-.19l.25-.42a1.65,1.65,0,0,1,.2-.37.37.37,0,0,1,.13-.12.74.74,0,0,1,.21-.07,2.52,2.52,0,0,1,.46-.1,3.1,3.1,0,0,1,1,0,7.24,7.24,0,0,1,.92.22c.31.1.6.24.89.36a6.55,6.55,0,0,0,.86.37c.31.09.62.15.92.26a8.87,8.87,0,0,0,.87.29,2.48,2.48,0,0,0,.94,0,3.76,3.76,0,0,0,.87-.31l.42-.22a.91.91,0,0,1,.17-.09l.21-.07a.2.2,0,0,0,.08,0s0-.05.07-.07a.93.93,0,0,1,.19-.11l.42-.24a1.87,1.87,0,0,0,.61-.61l.24-.4a1.11,1.11,0,0,0,.09-.19.79.79,0,0,0,.06-.22,1.29,1.29,0,0,1,0-.19.36.36,0,0,1,.14-.16,1.42,1.42,0,0,0,.13-.12.36.36,0,0,1,.16-.11.29.29,0,0,0,.1,0l.08-.06.18-.1a.25.25,0,0,1,.17,0,.21.21,0,0,1,.14.12.56.56,0,0,1,.05.34.25.25,0,0,0,.06.16l.18.11a1.8,1.8,0,0,0,.41.14l.47.11a.65.65,0,0,1,.2,0l.21.12a1,1,0,0,1,.32.26l.11.18.12.19a1.46,1.46,0,0,1,.07.19.66.66,0,0,0,.08.21.7.7,0,0,0,.33.2l.21.06.23.07a2.12,2.12,0,0,0,.45.07l.49,0c.32,0,.64,0,1,0a7.84,7.84,0,0,1,1,.11c.31,0,.63.09.93.17a3.36,3.36,0,0,1,.45.14c.15.06.29.14.43.21l.4.22c.14.08.28.13.41.21a.61.61,0,0,1,.16.12.27.27,0,0,0,.17.08h1a2.58,2.58,0,0,1,.48,0,1.57,1.57,0,0,1,.42.13,3.84,3.84,0,0,0,.4.21.7.7,0,0,0,.43,0,1,1,0,0,0,.36-.19,1.86,1.86,0,0,0,.23-.32,3,3,0,0,1,.29-.33c.1-.11.18-.22.29-.32s.25-.17.38-.25.28-.16.41-.25l.38-.28.15-.12.17-.18a2.06,2.06,0,0,0,.29-.3,2,2,0,0,0,.18-.42,2.16,2.16,0,0,0,.1-.44.59.59,0,0,0-.07-.37c-.09-.11-.22-.18-.32-.28a.31.31,0,0,1-.07-.35c0-.06.08-.11.11-.16a.81.81,0,0,1,.16-.16,2.44,2.44,0,0,1,.41-.18l.45-.16a3.29,3.29,0,0,1,.91-.23.75.75,0,0,1,.21,0l.23.08.44.16.45.16.47.1.93.23a4.12,4.12,0,0,0,.47.13,2.59,2.59,0,0,0,.47,0,2.57,2.57,0,0,1,.48,0,.49.49,0,0,1,.19.07.67.67,0,0,1,.15.14,7.25,7.25,0,0,1,.54.7,1.42,1.42,0,0,0,.31.29,2.5,2.5,0,0,0,.39.23c.14.06.29.13.44.18l.45.12q.45.13.9.3a2.15,2.15,0,0,0,.45.14l.46.07a2,2,0,0,1,.41.14,2.45,2.45,0,0,1,.38.24,1.21,1.21,0,0,0,.2.09.52.52,0,0,1,.2.09l.12.13a1.46,1.46,0,0,0,.16.19l.16.17a.44.44,0,0,1,.12.15.45.45,0,0,1,0,.19.66.66,0,0,0-.06.2.73.73,0,0,0,0,.41.23.23,0,0,0,.1.12l.19.13a1.09,1.09,0,0,0,.33.19l.45.1.41.08a1.2,1.2,0,0,1,.37.15,3,3,0,0,1,.66.47,1.39,1.39,0,0,1,.23.31,1.33,1.33,0,0,1,.13.62.41.41,0,0,1,0,.11l0,.1a.62.62,0,0,0-.07.19A.22.22,0,0,1,91.89,29.33Z"/></g></svg>