<svg xmlns="http://www.w3.org/2000/svg" viewBox="0 0 100 100"><g id="Baara"><path d="M92,34.32a.77.77,0,0,1-.09.56,2.1,2.1,0,0,0-.23.8c0,.35,0,.69,0,1s0,.7.08,1,0,.69.07,1a3.64,3.64,0,0,0,.11.93,2.74,2.74,0,0,0,.47.83,2.44,2.44,0,0,1,.23.33,2.17,2.17,0,0,1,.13.5,2.58,2.58,0,0,1,0,1,2.18,2.18,0,0,1-.28.86,2.13,2.13,0,0,1-.64.55c-.29.2-.59.38-.87.58-.55.37-1.09.78-1.63,1.17a3.71,3.71,0,0,0-.66.59c-.21.26-.41.54-.6.81a8.31,8.31,0,0,0-1,1.75,20.29,20.29,0,0,0-.59,2,5,5,0,0,1-.32.92c-.15.27-.35.5-.52.75a4.42,4.42,0,0,0-.43.8c-.05.14-.1.28-.14.42a4.21,4.21,0,0,0-.09.49,5.62,5.62,0,0,0-.1,2,9.34,9.34,0,0,0,.47,2c.12.31.27.61.39.92s.19.66.3,1,.23.67.34,1a9.06,9.06,0,0,0,.34,1c.15.31.27.64.41,1a3.61,3.61,0,0,0,.48.8,1.2,1.2,0,0,0,.26.29l.37.23a4.36,4.36,0,0,1,.75.52,3.9,3.9,0,0,1,.59.75,2.39,2.39,0,0,1,.37.75,1.33,1.33,0,0,1,0,.4,3.4,3.4,0,0,1-.09.46,1.07,1.07,0,0,1-.25.32l-.31.36a2.28,2.28,0,0,1-.74.47c-.32.16-.64.33-1,.48a6.24,6.24,0,0,0-.92.4,4.33,4.33,0,0,0-.74.53L85.7,70a1.76,1.76,0,0,0-.23.37,2.11,2.11,0,0,0-.16.34,2.81,2.81,0,0,0-.09.49c0,.32.06.63,0,.94a1.62,1.62,0,0,1-.09.38,1,1,0,0,1-.21.28.75.75,0,0,1-.37.2,4.22,4.22,0,0,0-.45.18l-.92.42-1,.4c-.32.13-.64.29-1,.39a3.24,3.24,0,0,1-1,.13c-.36,0-.71-.06-1.07-.1l-.5-.07a4.18,4.18,0,0,0-.51-.07,2.51,2.51,0,0,0-.89.24,2.74,2.74,0,0,0-.71.65c-.23.25-.46.5-.68.76a4,4,0,0,0-.58.73,2.53,2.53,0,0,1-.2.36,2.67,2.67,0,0,1-.38.37c-.09.07-.23.15-.28.27a2.51,2.51,0,0,0-.08.49c0,.34-.09.68-.12,1s0,.66-.06,1a1.81,1.81,0,0,1-.43.73c-.16.22-.4.42-.42.71s0,.3,0,.45a2.81,2.81,0,0,0,.09.49c.09.3.21.6.31.9l.12.43a.45.45,0,0,1,0,.36,1.68,1.68,0,0,1-.46.63,4,4,0,0,1-.82.47,5.26,5.26,0,0,0-.85.44,1.55,1.55,0,0,0-.33.24l-.27.31a.4.4,0,0,0-.13.32c0,.17,0,.33,0,.5a2,2,0,0,1-.3.92.56.56,0,0,1-.3.17l-.51.18-.46.17a2,2,0,0,0-.4.16,2.26,2.26,0,0,0-.29.25c-.11.09-.11.25-.14.38a.55.55,0,0,0,0,.38,3.16,3.16,0,0,0,.16.43,2.6,2.6,0,0,1,.16.34,1,1,0,0,1-.08.39,1.32,1.32,0,0,1-.15.39c-.06.13-.16.16-.28.22a.52.52,0,0,1-.33.11,2.83,2.83,0,0,1-.5,0,3,3,0,0,1-.92-.31,9.17,9.17,0,0,1-.87-.48,5.81,5.81,0,0,0-.89-.38c-.31-.12-.62-.27-.93-.41a4.05,4.05,0,0,0-1-.24c-.34-.06-.67-.1-1-.18a3.39,3.39,0,0,1-.43-.11,2,2,0,0,1-.45-.25,6.12,6.12,0,0,1-.79-.54,2.56,2.56,0,0,0-.67-.55,3.15,3.15,0,0,0-1-.19,5.65,5.65,0,0,1-1-.17,4.45,4.45,0,0,1-.86-.39,6,6,0,0,0-.86-.47.7.7,0,0,1-.29-.25,2,2,0,0,0-.3-.34l-.73-.64a5.66,5.66,0,0,0-1.71-1c-.31-.12-.63-.21-.94-.32a6.82,6.82,0,0,0-1-.27,7.48,7.48,0,0,0-2.06,0c-.69.07-1.37.21-2.06.23a3.27,3.27,0,0,0-.44,0c-.17,0-.33.09-.5.12a1.89,1.89,0,0,0-.41.1,4.43,4.43,0,0,0-.45.2c-.14.07-.29.14-.42.22s-.25.19-.38.28-.25.14-.36.22-.24.22-.37.31l-.76.6-.37.28c-.12.09-.25.16-.37.26s-.14.21-.24.29a2.05,2.05,0,0,1-.39.2,2.67,2.67,0,0,1-.89.19,3.17,3.17,0,0,1-.92-.1,3.65,3.65,0,0,1-.41-.18,4,4,0,0,1-.42-.2,4.71,4.71,0,0,1-.77-.58c-.26-.22-.51-.45-.76-.68l-.74-.71a2.35,2.35,0,0,0-.33-.3,1.89,1.89,0,0,0-.41-.18,5.56,5.56,0,0,1-1.68-.9c-.24-.21-.46-.42-.7-.62a5.58,5.58,0,0,1-.73-.64,4.58,4.58,0,0,1-.61-.71,2.26,2.26,0,0,1-.18-.39c-.07-.15-.15-.29-.23-.44s-.31-.56-.49-.83a6.78,6.78,0,0,0-.62-.69.44.44,0,0,1-.06-.32,4.19,4.19,0,0,1,0-.5,1.62,1.62,0,0,1,.35-.79,4.53,4.53,0,0,1,.61-.54A4.48,4.48,0,0,0,32,76.8a4.63,4.63,0,0,0,.57-.75,1.55,1.55,0,0,0,.2-.9c0-.35,0-.69-.06-1a2.28,2.28,0,0,1,0-.52c0-.16.1-.32.13-.49s0-.3.05-.45.08-.35.12-.52,0-.15.05-.22,0-.21.08-.26.16,0,.22,0h.3a4.57,4.57,0,0,0,1-.06,1.06,1.06,0,0,0,.39-.13.87.87,0,0,0,.22-.31c.06-.12.1-.26.15-.39s.15-.3.19-.46a5.43,5.43,0,0,0,0-1,3.18,3.18,0,0,0-.17-1,3.55,3.55,0,0,0-.44-.78,2.63,2.63,0,0,0-.66-.67,2.18,2.18,0,0,1-.36-.26,2.3,2.3,0,0,0-.37-.32,5,5,0,0,1-.82-.57c-.23-.2-.49-.38-.73-.58l-.37-.3a1.38,1.38,0,0,1-.3-.29,2.92,2.92,0,0,1-.34-.86,1,1,0,0,0-.19-.36,1.78,1.78,0,0,1-.17-.4c0-.15-.1-.29-.15-.44s-.09-.34-.14-.51a5.44,5.44,0,0,0-.33-1c-.15-.3-.33-.59-.5-.87-.35-.58-.74-1.13-1.05-1.73-.07-.12-.16-.22-.22-.34a3.59,3.59,0,0,1-.12-.47,2.61,2.61,0,0,1-.23-1,1.68,1.68,0,0,0-.23-.9c-.16-.27-.34-.54-.5-.82a4.46,4.46,0,0,0-.58-.79l-.33-.39a1.7,1.7,0,0,1-.26-.34c-.13-.27-.42-.42-.6-.65s-.15-.22-.24-.32L25,52a4.5,4.5,0,0,1-.65-.66,5,5,0,0,1-.46-.67c-.13-.29-.26-.56-.42-.84a.84.84,0,0,0-.62-.46c-.32-.08-.65,0-1-.14a10.28,10.28,0,0,1-1-.34,4,4,0,0,1-1.51-1.13c-.1-.1-.21-.2-.3-.31s-.14-.26-.22-.38a1.93,1.93,0,0,1-.22-.36c-.06-.16-.11-.32-.17-.47s-.12-.28-.18-.42a3.2,3.2,0,0,0-.17-.43c-.14-.23-.41-.36-.58-.58a1.61,1.61,0,0,0-.24-.29,1.22,1.22,0,0,1-.25-.31c-.07-.12-.11-.25-.18-.37a2,2,0,0,1-.27-.38.75.75,0,0,0-.18-.31,1.56,1.56,0,0,0-.34-.23,8.92,8.92,0,0,0-.86-.47,2,2,0,0,1-.76-.52,3.31,3.31,0,0,0-.3-.34c-.12-.1-.24-.18-.35-.28a2.62,2.62,0,0,0-.34-.24,2.71,2.71,0,0,0-.35-.24,1,1,0,0,1-.44-.63,8.67,8.67,0,0,1-.21-.88,1.59,1.59,0,0,1,0-.43,1.43,1.43,0,0,0,0-.46.94.94,0,0,0-.38-.65c-.13-.08-.26,0-.38,0a1.4,1.4,0,0,1-.45.1.94.94,0,0,1-.78-.33c-.1-.1-.18-.22-.29-.31s-.24-.2-.35-.31a3,3,0,0,0-.31-.31,1.6,1.6,0,0,1-.28-.35.94.94,0,0,1-.2-.35A1.1,1.1,0,0,1,9,35.56c0-.12.08-.23.11-.35a5.11,5.11,0,0,0,.05-.55A3.6,3.6,0,0,0,9,33.73a1,1,0,0,0-.17-.37A2.49,2.49,0,0,0,8.61,33l-.28-.28A3.51,3.51,0,0,1,8,32.37c-.18-.23-.4-.44-.59-.67s-.27-.42-.05-.6a1.48,1.48,0,0,0,.56-.55A2.21,2.21,0,0,0,8,30.18a.72.72,0,0,0,0-.46,3,3,0,0,1-.31-1.82.55.55,0,0,1,.18-.31,2.92,2.92,0,0,1,.37-.24A8.19,8.19,0,0,1,9,27a2.65,2.65,0,0,0,.66-.54c.2-.22.31-.48.51-.7a4.5,4.5,0,0,0,.28-.37l.32-.39a6.24,6.24,0,0,0,.49-.83,4.75,4.75,0,0,1,.5-.76,6.6,6.6,0,0,0,.56-.72,5,5,0,0,1,.54-.74c.1-.11.15-.23.24-.33s.22-.23.32-.35a.74.74,0,0,1,.31-.21,3.11,3.11,0,0,0,.38-.25c.12-.09.22-.19.35-.27l.45-.24.38-.18c.14-.07.25-.17.38-.24a1.52,1.52,0,0,0,.62-.56c.13-.28.14-.6.25-.89a2,2,0,0,1,.21-.37,1.72,1.72,0,0,1,.33-.26,2.58,2.58,0,0,1,.75-.4c.14-.05.29-.07.43-.13s.32-.06.48-.12A1.47,1.47,0,0,1,19,17a.77.77,0,0,1,.15,0,1.54,1.54,0,0,0,.45-.17c.27-.12.54-.29.82-.39a.73.73,0,0,0,.3-.22.84.84,0,0,1,.35-.21,7.26,7.26,0,0,1,.9-.2.67.67,0,0,1,.37,0,.8.8,0,0,0,.43,0l.46-.12a1.27,1.27,0,0,0,.44-.15,7.4,7.4,0,0,0,.79-.55,7.38,7.38,0,0,0,.68-.69,1.92,1.92,0,0,1,.28-.29,1.78,1.78,0,0,1,.44-.21c.13-.06.26-.14.39-.19a2.16,2.16,0,0,1,.44-.1,3.19,3.19,0,0,0,.86-.27,6.54,6.54,0,0,0,.84-.52,3.09,3.09,0,0,0,.68-.67,4.32,4.32,0,0,1,.67-.68,3,3,0,0,1,.74-.53,2.54,2.54,0,0,0,.34-.23,1.79,1.79,0,0,1,.42-.2c.28-.11.56-.2.84-.29a4,4,0,0,0,.85-.49c.59-.39,1.19-.75,1.77-1.16.06,0,.11-.09.18,0A1.39,1.39,0,0,1,35,8.6a3.37,3.37,0,0,1,.3.36.92.92,0,0,1,.07.4c0,.17,0,.34.05.51,0,.32,0,.65.07,1a2.14,2.14,0,0,1-.25,1,6.22,6.22,0,0,1-.39.87,6.34,6.34,0,0,1-.57.79,12.88,12.88,0,0,0-1.18,1.57,3.21,3.21,0,0,0-.36.83,4.59,4.59,0,0,0,0,1,3.38,3.38,0,0,1-.11,1,6.15,6.15,0,0,0-.18,1c0,.32-.15.62-.19.95a2,2,0,0,0,.13.9,2.7,2.7,0,0,1,.08.41.73.73,0,0,0,.26.42,1.94,1.94,0,0,0,.63.58,4.28,4.28,0,0,0,1.89.42,3.3,3.3,0,0,1,1,0l.5.13c.17.05.34.08.5.14s.29.14.43.19a3,3,0,0,0,.5.1,2.09,2.09,0,0,1,.81.42c.24.2.46.43.71.63a3,3,0,0,0,.37.25,2.09,2.09,0,0,0,.4.19,1,1,0,0,0,.33.06c.11,0,.21-.12.31-.18s.43-.39.66-.56a1.37,1.37,0,0,1,.9-.24,1.63,1.63,0,0,0,.86-.33.9.9,0,0,1,.3-.17c.12,0,.26.05.38.08.3.08.54.27.83.36a6.42,6.42,0,0,0,1,.2,8.16,8.16,0,0,0,2,0,3.2,3.2,0,0,0,.9-.31,3.65,3.65,0,0,1,.92-.35l1-.17c.33-.05.66-.08,1-.15a8.76,8.76,0,0,0,.95-.31,1.85,1.85,0,0,1,.4-.12,2.37,2.37,0,0,1,.46,0c.11,0,.16.11.23.19s.2.2.29.31a7.25,7.25,0,0,0,.54.7,8.81,8.81,0,0,1,.66.71,2.18,2.18,0,0,1,.43.79c0,.1,0,.23.14.27l.45.18c.31.12.63.17.93.29a1.11,1.11,0,0,1,.32.21.55.55,0,0,1,.24.28c0,.12.09.24.12.37a2.2,2.2,0,0,1,0,.36c0,.22.37.3.55.28a2.45,2.45,0,0,0,.38,0,1.23,1.23,0,0,0,.38-.19.71.71,0,0,1,.38-.09c.17,0,.35,0,.52,0a2,2,0,0,1,.41.14c.14.06.29.09.42.16a1.84,1.84,0,0,1,.6.61,1.33,1.33,0,0,0,.65.52,2.52,2.52,0,0,0,.89.18,4.77,4.77,0,0,0,1.92-.55,5.86,5.86,0,0,1,1.85-.62,6.92,6.92,0,0,1,2,.08,1.5,1.5,0,0,1,.43.1,4.73,4.73,0,0,1,.45.23,2.33,2.33,0,0,1,.72.48c.41.48.76,1,1.14,1.53a9.68,9.68,0,0,0,1.43,1.28,10.37,10.37,0,0,1,1.39,1.42,2.61,2.61,0,0,0,.7.58,1.15,1.15,0,0,0,.39.18l.49.11,1,.19a4,4,0,0,1,1,.24,5,5,0,0,1,.81.46,5.81,5.81,0,0,1,.67.64,1.79,1.79,0,0,0,.85.39c.33.07.66.12,1,.17s.7.07,1,.11a2.6,2.6,0,0,0,1,0l.22-.07a.68.68,0,0,0,.2-.07c.08-.05.1-.19.15-.27.13-.24.24-.45.54-.47a3.25,3.25,0,0,0,.44,0,2.69,2.69,0,0,0,.45-.16.75.75,0,0,0,.25-.25c.1-.12.19-.25.3-.36a1.5,1.5,0,0,1,.68-.36,1,1,0,0,1,.39-.06c.14,0,.28.07.43.1a1.88,1.88,0,0,0,.47,0,1.13,1.13,0,0,0,.41,0c.28-.09.51-.29.79-.36a2.63,2.63,0,0,1,.48-.06,3.18,3.18,0,0,1,.43-.06,1.22,1.22,0,0,1,.38.13,2,2,0,0,1,.37.21,5,5,0,0,0,.6.33C91.71,34,91.9,34.15,92,34.32Z"/></g></svg>