<svg xmlns="http://www.w3.org/2000/svg" viewBox="0 0 100 100"><g id="Baara"><path d="M6.19,30.43a1,1,0,0,1-.1-.93c.14-.32.36-.58.49-.91a13.47,13.47,0,0,0,.54-2A2.71,2.71,0,0,1,7.81,25a4.16,4.16,0,0,0,.64-.54,3.06,3.06,0,0,0,.4-.81c.57-1.35,1.64-1.38,2.93-1.53a3.28,3.28,0,0,0,1.59-.84,1.93,1.93,0,0,1,1.76-.53,4.17,4.17,0,0,0,1,.28c.39,0,.78-.12,1.17-.13.62,0,1,.42,1.41.78a1.5,1.5,0,0,0,1.78.28c.54-.28,1-.78,1.58-.91a3.19,3.19,0,0,1,2,.39,2,2,0,0,0,.9.35,2.35,2.35,0,0,0,.82-.24,2,2,0,0,1,1.87.11,5.21,5.21,0,0,0,.94.48,4,4,0,0,0,1.14.17,2,2,0,0,0,.83-.12,4,4,0,0,1,.9-.4c.32-.07.63-.18.95-.25a3.57,3.57,0,0,1,1.22,0c.74.09,1.46-.17,2.2-.11s.68.57.68,1.08A2.26,2.26,0,0,0,37,24.3c.91.93,2.29.72,3.37,1.28.91.47,1.36,1.55,2.33,1.93a1.93,1.93,0,0,0,.79.13,1.46,1.46,0,0,0,.54-.12c.11-.05.2-.18.32-.21.29-.09.38.28.43.49a3.19,3.19,0,0,0,.35.95,4.15,4.15,0,0,0,1.3,1.49,1.89,1.89,0,0,0,.9.27c.19,0,.48-.05.64.08s0,.34-.18.43-.5.28-.47.61c.05.51.65.76,1,1,.71.39,2.22,1.85,2.7.47a1.85,1.85,0,0,1,.33-.79,1.62,1.62,0,0,1,.89-.4,1.28,1.28,0,0,1,1.32.5c.11.22,0,.92.36,1s.42-.37.55-.49c.28-.26.59-.47.87-.74s.48-.45.7-.7.36-.68.64-.88.46,0,.61.23a1,1,0,0,1,.06.93c-.08.2-.27.48-.11.68s.52.08.72,0c.66-.23,1.33-.4,2-.59s1.07-.15,1.31.47.16,1.36.52,1.95c.58,1,1.94.93,2.67,1.76.43.49.73,1,1.43,1.09a1.75,1.75,0,0,1,.83.25,4.25,4.25,0,0,1,.81.83c.41.48.37,1.25,1.08,1.4.36.08.73.08,1.09.18s.7.29,1.06.42c.7.24,1.41.38,2.09.68a4.29,4.29,0,0,0,2.19.46,4.78,4.78,0,0,1,1,0,9,9,0,0,1,1.13.3c.14,0,.42,0,.46.22s-.35.32-.5.4a4.34,4.34,0,0,0-.72.56,3.3,3.3,0,0,0-.81.72A1.68,1.68,0,0,0,75.4,45a2.67,2.67,0,0,0,2.35,1.28,5.42,5.42,0,0,1,.9,0c.33.07.47.31.63.58s.34.49.51.73a4.56,4.56,0,0,0,.68.83,1.94,1.94,0,0,0,1.69.36c.28-.07.51-.3.8-.34a.37.37,0,0,1,.47.44,1.63,1.63,0,0,1-.4.77c-.24.32-.49.63-.75.94a11.18,11.18,0,0,0-.79.91c-.09.13-.21.32-.16.48s.38.18.57.25a1.72,1.72,0,0,1,.63.57c.25.3.5.6.74.91a14.48,14.48,0,0,1,1.34,1.87,3.93,3.93,0,0,1,.37.93,3.12,3.12,0,0,1,0,1.18c-.07.61.25.85.8,1,.25.07.51.08.65.33a1.83,1.83,0,0,0,.14.28c.07.1.2.16.24.29.15.41-.57.34-.79.35s-1.06.12-.76.55a.81.81,0,0,0,.56.23c.13,0,.54,0,.59.16s-.86.35-1,.39c-.66.18-1,.88-1.59,1.13A16.84,16.84,0,0,0,82,63a1.75,1.75,0,0,0-1,1.36A1.51,1.51,0,0,0,82,65.63a5.2,5.2,0,0,1,1.62,1c.22.2.73.74,1,.32.09-.16.09-.43.28-.51s.45.22.58.39a2.14,2.14,0,0,0,1.7.62,23.59,23.59,0,0,0,4.6.11c.37,0,.74-.09,1.12-.11a1.43,1.43,0,0,1,.84.11c.57.34-.12,1-.46,1.19a8.3,8.3,0,0,1-1.82.75c-.35.11-.71.22-1.06.35a5.57,5.57,0,0,1-1.06.38c-.61.1-1.27-.11-1.84.18a1,1,0,0,0-.5.55c-.11.26-.18.53-.53.48a1,1,0,0,1-.62-.51c-.19-.31-.3-.55-.67-.67s-.56-.09-.72-.37-.13-.53-.41-.64a2.9,2.9,0,0,0-1.06,0l-1.24,0c-.55,0-1.09-.12-1.64-.11a1,1,0,0,0-.66.19c-.25.21-.32.59-.48.86a1.31,1.31,0,0,1-1.12.71c-.56,0-1.59-.19-2,.31s0,.92.14,1.28a14.24,14.24,0,0,1,.53,2.14c0,.19.18.47,0,.66s-.35.12-.48,0-.35-.19-.62-.08a2.47,2.47,0,0,1-.94.37c-.33,0-.65,0-1,0s-.65.08-.87-.15-.35-.68-.76-.32c-.23.21-.37.45-.67.58s-.69.2-1,.33a1.63,1.63,0,0,1-1,.13,1,1,0,0,0-.89.13,1.44,1.44,0,0,1-.77.4,4.79,4.79,0,0,1-1-.11,1.8,1.8,0,0,0-1,.29,4.37,4.37,0,0,1-1,.34c-.79.18-1.57.35-2.35.58a17.55,17.55,0,0,1-2.21.58,3.7,3.7,0,0,1-2-.1,2,2,0,0,0-.86-.26,5.5,5.5,0,0,0-1.21.23,14.23,14.23,0,0,1-2.09.61,2.25,2.25,0,0,0-.9.31,1.94,1.94,0,0,1-1,.24A6,6,0,0,1,50,78.88a21.4,21.4,0,0,1-2.18-1,19.93,19.93,0,0,1-3.68-2.3A6.79,6.79,0,0,1,42.72,74a4.74,4.74,0,0,0-1.23-1.61,9.9,9.9,0,0,0-1.82-.89c-.7-.3-1.38-.63-2.06-1a37.31,37.31,0,0,1-4-2.46,35.39,35.39,0,0,0-3.8-2.65c-.65-.34-1.3-.65-1.91-1A11.77,11.77,0,0,1,26.21,63a5,5,0,0,0-1.82-1.17,19.58,19.58,0,0,1-2.19-.76l-.95-.46a2.47,2.47,0,0,0-1-.37c-.34,0-.52.25-.82.37a1.47,1.47,0,0,1-1,0,4.28,4.28,0,0,1-1.79-.68c-.22-.21-.38-.48-.58-.7a7.66,7.66,0,0,0-.83-.78c-.54-.45-1.12-.87-1.63-1.37s-1-1.15-1.48-1.73c-.14-.18-.44-.4-.46-.64s.05-.2.12-.3a1.1,1.1,0,0,0,.16-.56c0-.59,0-1.41.42-1.86s1-.28,1.44-.3a3.93,3.93,0,0,1,1,.07,1.91,1.91,0,0,0,1.05-.16,2.46,2.46,0,0,1,1,0,1.45,1.45,0,0,0,.9-.29,4.44,4.44,0,0,1,.7-.6,2.91,2.91,0,0,1,1-.14,4.67,4.67,0,0,1,2.1.22c.35.12.67.31,1,.42a2.28,2.28,0,0,0,1.13,0c.23,0,.57,0,.76-.17s.09-.52.05-.76a11.17,11.17,0,0,0-.31-2.3,2.56,2.56,0,0,1-.27-1c0-.39.16-.76.15-1.16a3.94,3.94,0,0,1,0-1,5.94,5.94,0,0,0,.3-.9,1,1,0,0,0-.16-.71,1.55,1.55,0,0,0-.67-.46c-.58-.33-.87-.9-1.56-1a14.49,14.49,0,0,1-2.07-.49c-.31-.11-1-.32-.88-.78s1.15-.91.88-1.58-.9-.49-1.36-.62-.6-.27-.92-.33-.54,0-.77-.17-.27-.28-.57-.21a.93.93,0,0,1-.83,0c-.39-.27-.63-1-1.21-.89-.23,0-.46.3-.69.24s-.13-.12-.2-.18a.61.61,0,0,0-.45-.14,1.52,1.52,0,0,1-.72-.22,3.23,3.23,0,0,0-1-.25A3.3,3.3,0,0,1,9.66,35a3.66,3.66,0,0,1-.54-.64A2.17,2.17,0,0,1,9,33.45a1.47,1.47,0,0,0-.43-.74,1.09,1.09,0,0,1-.21-.8c0-.87-.84-.2-1.33-.28S6.38,30.88,6.19,30.43Z"/></g></svg>