<svg xmlns="http://www.w3.org/2000/svg" viewBox="0 0 100 100"><g id="Sarlahi"><path d="M85.19,48.28c.11,0,.15,0,.22-.15s.09-.29.16-.43c.17-.31.41-.56.56-.88s.33-.65.5-1c.39-.72.35-2-.61-2.19a1.88,1.88,0,0,0-.85.06c-.26,0-.68,0-.7-.3s.15-.46.18-.69a1.22,1.22,0,0,0-.31-.92,1.53,1.53,0,0,1-.45-.75.63.63,0,0,1,.13-.43,2.45,2.45,0,0,0,.24-.52c.2-.64.21-1.48-.51-1.79a4.92,4.92,0,0,0-.85-.17.81.81,0,0,1-.61-.61,2.24,2.24,0,0,0-.51-1,2,2,0,0,0-.86-.63.68.68,0,0,1-.33-.13.55.55,0,0,1-.14-.39c0-.36,0-.73,0-1.1a8.86,8.86,0,0,1,0-1c0-.16.07-.35-.06-.47l-.13-.1c-.07-.07-.11-.16-.18-.23s-.29-.15-.42-.25a.89.89,0,0,0-.31-.19A.94.94,0,0,1,79,32c-.13-.09-.07-.24,0-.37s.05-.23-.06-.3-.21,0-.29-.11.15-.49.24-.66a.35.35,0,0,0,.05-.31c0-.11-.12-.19-.13-.31s.36-.54.18-.74-.29-.09-.41-.1a.79.79,0,0,1-.42-.12,2.92,2.92,0,0,0-.37-.24c-.17-.08-.35-.1-.51-.17a.56.56,0,0,1-.34-.26c-.07-.13-.06-.27-.13-.4a1.21,1.21,0,0,0-.7-.44,7.11,7.11,0,0,0-1-.28,4.76,4.76,0,0,1-.52-.1,1.79,1.79,0,0,0-.57-.16c-.38,0-.76.05-1.14.06s-.83,0-1.24,0a2.77,2.77,0,0,0-1.2.21,1.19,1.19,0,0,0-.48.23c-.1.12-.16.23-.35.2a4.43,4.43,0,0,1-.45-.2.68.68,0,0,1-.4-.23.57.57,0,0,1-.08-.42c0-.13.14-.19.25-.25s.26-.12.25-.27-.19-.27-.27-.39-.12-.21-.26-.26-.4-.12-.59-.17a1.22,1.22,0,0,1-.46-.13,1.49,1.49,0,0,1-.3-.41c-.09-.13-.54-.42-.45-.6a.44.44,0,0,1,.13.24.49.49,0,0,1-.08-.49c.07-.12.2-.23,0-.36a.53.53,0,0,0-.39,0,6.15,6.15,0,0,1-.75.1,4.52,4.52,0,0,0-.52,0c-.16,0-.3.13-.46.17a1.09,1.09,0,0,1-.44,0c-.23,0-.46,0-.69-.07s-.14-.08-.18-.21a.49.49,0,0,0-.18-.32c-.13-.1-.28-.16-.41-.26a4.19,4.19,0,0,0-.59-.42,1.44,1.44,0,0,0-.42-.11c-.2,0-.39-.09-.59-.14a1.88,1.88,0,0,0-1.15,0,1.71,1.71,0,0,1-.57.21c-.16,0-.28-.09-.42-.13s-.37,0-.54-.13a1.22,1.22,0,0,1-.27-.36,1,1,0,0,0-.78-.38,2.25,2.25,0,0,0-.58,0,1.31,1.31,0,0,1-.52,0c-.23-.06-.16-.34-.12-.52a1.26,1.26,0,0,0,.05-.33c0-.18-.2-.23-.35-.3l-.55-.28A1.58,1.58,0,0,1,55,20a.83.83,0,0,1-.17-.32,1.11,1.11,0,0,1-.15-.61c0-.12.08-.26,0-.36a.48.48,0,0,0-.32-.11,1.43,1.43,0,0,1-.29,0c-.14-.06-.19-.21-.24-.36a1.17,1.17,0,0,0-.5-.7A1.92,1.92,0,0,1,53,17.3c-.11-.11-.12-.29-.23-.41s-.17-.08-.31-.07-.17-.06-.23-.19-.5-.31-.76-.41-.07-.43-.22-.69-.21-.14-.35-.19a1.52,1.52,0,0,1-.44-.31c-.12-.12-.19-.27-.3-.4a4,4,0,0,0-.3-.28c-.11-.11-.14-.24-.3-.29a2.6,2.6,0,0,1-.26,0A1,1,0,0,1,49,13.9c-.29-.22-.55-.49-.85-.71-.12-.09-.2-.21-.31-.31a1.57,1.57,0,0,0-.49-.27c-.28-.13-.57-.35-.86-.12-.1.08-.17.2-.29.26a.86.86,0,0,1-.57.07c-.12,0-.22-.1-.34-.13s-.26,0-.31-.23,0-.26-.15-.36a1,1,0,0,0-.51-.12.54.54,0,0,1-.27-.11c-.11-.11,0-.23,0-.36.08-.39-.43-.41-.68-.56s-.42-.46-.71-.6a1.16,1.16,0,0,1-.44-.27.72.72,0,0,0-.32-.2c-.17-.06-.3-.16-.47-.22a2,2,0,0,1-.4-.11c-.15-.09-.22-.26-.38-.34a.89.89,0,0,0-.48-.08c-.29,0-.38-.19-.56-.39s-.57-.22-.73-.52c-.07-.11-.09-.27-.24-.28s-.37.18-.52.25a.57.57,0,0,1-.46,0,1.08,1.08,0,0,1-.41-.41,1,1,0,0,1-.19-.4c0-.11,0-.28-.12-.35s-.22,0-.31,0-.35-.07-.5.07-.09.17-.21.2a3.25,3.25,0,0,1-.54,0,1.8,1.8,0,0,0-1.1.22c-.13.09-.21.18-.38.16s-.32,0-.48,0-.51-.08-.54.18.06.22,0,.34a1.83,1.83,0,0,1-.38.23c-.14.1-.2.27-.35.37s-.32,0-.47.12a1.75,1.75,0,0,1-.42.29.7.7,0,0,1-.43,0c-.13,0-.29-.09-.37,0s-.08.26-.15.38a2,2,0,0,1-.76.58.32.32,0,0,0-.14.32.73.73,0,0,1-.14.45,3.34,3.34,0,0,1-.25.4c-.1.14-.06.2.1.26a2.14,2.14,0,0,1,.43.21,1.89,1.89,0,0,1,.2.2,1.13,1.13,0,0,0,.16.26c.12.1.25,0,.37,0a3.64,3.64,0,0,1,.46-.3c.37-.18.75-.31,1.11-.5a4.16,4.16,0,0,0,.93-.67c.28-.28.52-.6.82-.86A2.12,2.12,0,0,1,34,9.7a1,1,0,0,1,.53-.08h.58a2.38,2.38,0,0,0,.52-.15,1.34,1.34,0,0,1,1,.16c.32.12.69-.07,1,.21s.24.45.43.63.48.34.54.64-.07.69.17,1,.57.31.38.54-.15.12-.17.25a.54.54,0,0,0,.14.44c.23.21.63.41.61.77,0,.17,0,.2.08.33a.89.89,0,0,1,.23.44,1.13,1.13,0,0,0,.1.37c.1.14.31.15.46.19a2.71,2.71,0,0,1,.79.56,1.41,1.41,0,0,1,.54.88c.1.36.17.73.28,1.09,0,.14.11.28.14.43a.33.33,0,0,1,0,.17c0,.06-.09.1-.11.15s.21.18.27.25.08.22.16.32a.55.55,0,0,1,.13.17c0,.08,0,.17.05.25s.21.17.34.23.3.19.45.26a2.6,2.6,0,0,0,.4.1c.32.09.48.43.81.49a1.54,1.54,0,0,0,.95-.06.33.33,0,0,1,.32,0c.18.05.43,0,.59.09s.16.18.28.23a2.32,2.32,0,0,0,.46.07.69.69,0,0,1,.38.19c.05.05.08.13.13.19a1.21,1.21,0,0,0,.28.18c.33.16.63.35.95.51a1.74,1.74,0,0,1,.33.18.44.44,0,0,1,.13.46c0,.37.26.46.58.54a1.28,1.28,0,0,0,.55,0,4.37,4.37,0,0,1,.5-.09.76.76,0,0,1,.72.46,2.68,2.68,0,0,1,.11.55c0,.14.15.26.18.4s-.1.35-.11.52a1.24,1.24,0,0,0,.11.42c0,.13,0,.28.09.4s.19.15.32.18c.37.09.54.41.78.67a2.57,2.57,0,0,1,.34.4,2.83,2.83,0,0,0,.32.45,2.32,2.32,0,0,1,.61.9,3.31,3.31,0,0,0,.12.42,2.33,2.33,0,0,0,.38.51A5.61,5.61,0,0,0,57,30.92c.11.06.25.1.32.21s0,.24.18.29.31,0,.47.09a1.19,1.19,0,0,1,.33.45,2.8,2.8,0,0,0,.3.46,1.75,1.75,0,0,1,.22.43.7.7,0,0,0,.36.34.55.55,0,0,1,.14.09c.08.08.08.18.13.28s.26.19.36.32.14.29.23.43a3.61,3.61,0,0,0,.85.85c.21.18.58.36.64.65a.8.8,0,0,0,.19.44l.4.45a5.29,5.29,0,0,0,.41.41,1.12,1.12,0,0,1,.21.17,1.37,1.37,0,0,0,.16.18c.1.09.22.13.3.24a.77.77,0,0,1,.09.47c0,.13,0,.27,0,.4a2.5,2.5,0,0,0,.13.54,1.18,1.18,0,0,0,.17.4,1.3,1.3,0,0,1,.15.18,1.76,1.76,0,0,1,0,.33.93.93,0,0,0,.16.35c.11.17.09.24,0,.42s-.06.26-.17.35a1.1,1.1,0,0,1-.56.13.87.87,0,0,0-.39.1c-.15.09-.25.23-.42.27a3.69,3.69,0,0,0-.58.09c-.17.07-.32.18-.49.25s-.33.05-.48.11a1,1,0,0,0-.28.18c-.08.06-.24.18-.24.29s.18.15.28.21a.36.36,0,0,1,.14.4,1.1,1.1,0,0,1-.07.36c-.08.16-.27.19-.42.27s-.28.24-.45.27a.63.63,0,0,1-.24,0,1,1,0,0,0-.24,0,.45.45,0,0,1-.36,0c-.06-.05-.09-.14-.16-.17a.35.35,0,0,0-.2,0,.48.48,0,0,0-.37.09c-.09.08-.1.15-.22.18s-.26,0-.36.11,0,.19-.11.28-.38.17-.53.22a1.39,1.39,0,0,0-.72.57c-.06.11-.06.25-.14.36s-.36.21-.5.36-.15.23-.24.33-.28.1-.33.24,0,.23,0,.35a1.77,1.77,0,0,1-.17.12.7.7,0,0,0-.19.26,3.17,3.17,0,0,1-.59.82.77.77,0,0,1-.45.22,2.45,2.45,0,0,0-.55.13c-.28.1-.62.14-.79.4a.86.86,0,0,0-.21.4c0,.09,0,.15,0,.24s-.1.09-.15.14a.34.34,0,0,0-.11.42.94.94,0,0,1,0,.41c0,.18.08.26.16.4a.45.45,0,0,1,0,.46c-.08.14-.23.23-.31.38s-.12.33-.19.5a3.44,3.44,0,0,1-.21.49,2.31,2.31,0,0,1-.46.53,3.17,3.17,0,0,1-.36.28,1.52,1.52,0,0,1-.43.24,1.18,1.18,0,0,1-.46,0,2.73,2.73,0,0,0-.7,0c-.15,0-.32-.09-.46-.07s-.27.2-.35.33c-.2.31-.29.62-.62.8a3.45,3.45,0,0,0-.81.66.64.64,0,0,1-.35.25,2.09,2.09,0,0,0-.4.19,2.24,2.24,0,0,0-.71.66,2.65,2.65,0,0,1-.33.34c-.12.13-.1.28-.18.42s-.26.23-.39.33a1.64,1.64,0,0,1-.42.26,1.6,1.6,0,0,1-.49,0l-.61.06a3.47,3.47,0,0,0-.55.08,1.76,1.76,0,0,1-.4.06,2.58,2.58,0,0,1-1-.31c-.15-.08-.3-.09-.41-.22s-.14-.25-.33-.31a2.9,2.9,0,0,0-.42-.12,1.61,1.61,0,0,0-.69.06,3.41,3.41,0,0,0-.46.05,4.09,4.09,0,0,0-.47.23,2.53,2.53,0,0,1-1,.25,1.31,1.31,0,0,0-.84.4,4.3,4.3,0,0,0-.82.83c-.1.14-.18.29-.28.44a4,4,0,0,1-.34.38,2.21,2.21,0,0,0-.3.45,4.75,4.75,0,0,0-.17.49c-.07.18-.22.28-.32.44a1.43,1.43,0,0,0-.19.44,3.63,3.63,0,0,0-.38,1.09,2.3,2.3,0,0,0,.12.45c0,.16,0,.32,0,.48s.16.3.15.47-.17.32-.24.47c-.14.33-.18.7-.35,1s-.48.38-.7.62a.65.65,0,0,0-.19.32c0,.15.12.19.23.24.4.15-.07.38-.26.47a.38.38,0,0,0-.23.18c0,.06,0,.13,0,.19a.67.67,0,0,1-.14.19c-.1.13-.12.19,0,.32s.18.35-.06.4-.25,0-.38,0-.14.24-.3.3-.24,0-.37-.06a.3.3,0,0,0-.33.18,1,1,0,0,0-.11.34c0,.09,0,.23-.05.3s-.31,0-.44.08-.15.27-.26.39-.22.11-.37.14-.15.12-.16.28c0,.33-.45.43-.73.49s-.69,0-.91.23-.13.24-.25.33-.26.14-.36.28a4.36,4.36,0,0,0-.23.42c-.06.15,0,.19.07.28.26.23-.27.33-.36.5s0,.2-.17.25-.11,0-.14,0,.06.12.09.16.18.25.08.38-.3.1-.44.07l-.32-.08a3.2,3.2,0,0,0-.54,0,.49.49,0,0,1-.35-.11,3.76,3.76,0,0,0-.58-.25c-.16-.06-.31-.15-.48-.21a1.51,1.51,0,0,0-.56,0,2.74,2.74,0,0,0-.64,0,1.9,1.9,0,0,0-.52.24.76.76,0,0,1-.88-.12c-.13-.13-.32-.67-.58-.49-.1.07-.14.23-.22.32a3.46,3.46,0,0,0-.22.31.61.61,0,0,1-.39.22,3.38,3.38,0,0,1-.57.12,1.35,1.35,0,0,0-.45,0c-.11.06-.13.15-.18.25-.17.36-.43-.1-.62-.17s-.14,0-.11.11.1.15,0,.31a.33.33,0,0,0-.06.29c0,.14.15.3,0,.41s-.19,0-.23.13.11.27.07.42-.1.1-.18.15a.62.62,0,0,0-.34.46c0,.14,0,.29-.08.41s-.23.15-.26.29.36.61-.06.67c-.14,0-.19-.08-.29-.15a.33.33,0,0,0-.31-.1.47.47,0,0,0-.37.71c0,.1.11.21,0,.28s-.3,0-.43,0-.35.07-.54.08a1.1,1.1,0,0,1-.57,0c-.33-.12-.48.24-.49.52a2,2,0,0,0,0,.49c0,.16.19.23.31.33s.2.24.09.4-.21.18-.27.31a.56.56,0,0,0,.39.78c.15,0,.48,0,.57.15s-.36.22-.37.42.11.2.16.27a1.37,1.37,0,0,1,.13.48c.09.37.39.63.46,1s0,.65.09.92.17.15.28.22a.37.37,0,0,1,.11.43c-.06.29-.19.59.09.81.12.1.34.09.43.23a.4.4,0,0,1,0,.32c0,.27,0,.42.27.5a3,3,0,0,1,.39.08c.14.05.14.15.22.26s.57,0,.82.12.14.51.47.5c.16,0,.31,0,.39.14s-.05.36-.11.52A.45.45,0,0,0,18,89a.87.87,0,0,0,.39.29c.32.16.09.51.18.79,0,.13.09.21,0,.34a.57.57,0,0,1-.5.25.49.49,0,0,0-.41.09,1.39,1.39,0,0,0-.25.38,1,1,0,0,0-.07.41.49.49,0,0,1,0,.21c0,.09-.16.16-.17.26s.12.24.16.35,0,.31.09.45.23.13.38.11a2.07,2.07,0,0,0,.5,0c.23-.1.21-.44.29-.64s.13-.28.27-.31.31.09.46.12.3,0,.35-.2a.53.53,0,0,1,.12-.3c.28-.27.69,0,1,0s.55-.26.81-.42A1.42,1.42,0,0,1,22.7,91a3.15,3.15,0,0,0,1,.34A11.77,11.77,0,0,0,24.88,91c.37,0,.75.06,1.1,0s.56-.48.76-.73a1.92,1.92,0,0,0,.45-.9,1.31,1.31,0,0,1,.69-.79,5.45,5.45,0,0,1,1-.49,3.71,3.71,0,0,0,1-.59A3,3,0,0,1,30.8,87c.38-.13.76-.21,1.13-.36a3.88,3.88,0,0,0,.45-.14c.13-.06.18-.16.27-.27.22-.28.62-.33.83-.65a2.18,2.18,0,0,1,.24-.42,1,1,0,0,1,.41-.25,8,8,0,0,1,1.19-.22l1.1-.16a.76.76,0,0,1,.47,0,3.57,3.57,0,0,0,.56.33,1,1,0,0,0,.42,0l.67,0a7,7,0,0,0,1.3-.09,1,1,0,0,1,1,.23,1.54,1.54,0,0,0,1,.4,2.22,2.22,0,0,0,1-.13c.19-.06.37-.15.56-.21a2.12,2.12,0,0,0,.54-.17,2.62,2.62,0,0,0,.66-.84.38.38,0,0,0,.07-.45c-.08-.16-.15-.23-.09-.42.1-.34.53-.25.81-.28a4.23,4.23,0,0,1,1.18,0c.4.08.68.36,1.1.36A4.45,4.45,0,0,0,48.85,83a6.38,6.38,0,0,1,2.42-.18,24.79,24.79,0,0,1,2.56.41,3,3,0,0,1,1,.32,1.74,1.74,0,0,1,.7.92c.05.14.12.26.29.25s.21-.06.32-.06a1.27,1.27,0,0,1,.45.19,1.69,1.69,0,0,0,.54.12,6.62,6.62,0,0,0,1.09-.13,2.18,2.18,0,0,0,.57-.08,3.39,3.39,0,0,0,.39-.27c.36-.2.65.07,1,.14s.57-.25.81-.44a3.83,3.83,0,0,1,1-.38c.34-.15.46-.48.69-.74a3.12,3.12,0,0,1,1.79-.91,3.46,3.46,0,0,0,1-.33c.38-.21.76-.42,1.15-.61a1.73,1.73,0,0,1,1-.19,1.86,1.86,0,0,0,1.11-.22,6.06,6.06,0,0,0,.86-.65,1.24,1.24,0,0,1,1-.24,1.74,1.74,0,0,1,.81.49,2.33,2.33,0,0,0,.94.6c.2.06.4.1.6.14a1.44,1.44,0,0,0,.53.11c.15,0,.22-.14.29-.26a2.59,2.59,0,0,1,.37-.5,2.88,2.88,0,0,0,.59-.76.78.78,0,0,1,.75-.45c.33,0,.66,0,1-.09s.86-.19,1.3-.27a2.2,2.2,0,0,1,1.08,0,.77.77,0,0,0,.9-.19,14.22,14.22,0,0,1,1.78-1,1.7,1.7,0,0,0,.64-.69,6.4,6.4,0,0,0,.21-1.86c0-.17,0-.34,0-.52,0-.38.3-.58.43-.91a1.3,1.3,0,0,0,.07-.48,3.5,3.5,0,0,1,.13-.56,5.19,5.19,0,0,0,.11-1.18c0-.26,0-.55-.24-.67s-.27-.06-.39-.1a2.63,2.63,0,0,1-.6-.25c-.33-.19-.63-.42-1-.61a2.47,2.47,0,0,1-.76-.55,1.77,1.77,0,0,1-.19-1c0-.21,0-.43,0-.64s-.14-.35-.18-.54c-.07-.37.29-.54.3-.88s-.1-.39-.11-.59.11-.27.15-.44-.11-.3-.23-.41a1.53,1.53,0,0,1-.32-.35A4.6,4.6,0,0,1,79,63.48a2,2,0,0,0-.32-.83,4.6,4.6,0,0,0-.86-.5,5.91,5.91,0,0,1-.81-.69,1.72,1.72,0,0,1-.66-.87c-.06-.33.21-.63.41-.86a11,11,0,0,0,.79-.88,3.2,3.2,0,0,0,.55-1,1,1,0,0,0,0-.52,1.44,1.44,0,0,1,0-.62c0-.35-.12-.5-.27-.78s.1-.48.39-.59a1.67,1.67,0,0,0,.75-.64,5,5,0,0,0,.59-.92,6.18,6.18,0,0,0,.2-1,1.82,1.82,0,0,1,.61-.91,10.35,10.35,0,0,1,.94-.64,5.28,5.28,0,0,0,.75-.87c.25-.27.49-.55.76-.81a2.51,2.51,0,0,1,.86-.52,2.51,2.51,0,0,0,.8-.48c.19-.19.39-.4.68-.31Z"/></g></svg>