<svg id="Parsa" xmlns="http://www.w3.org/2000/svg" viewBox="0 0 100 100"><path d="M67.71,9a2.87,2.87,0,0,0,1.65,1.1,3,3,0,0,0,1,2.92,13.17,13.17,0,0,0,3.12,2.43c1,1.14.9,2.8,3,1.83a4.39,4.39,0,0,1,.91,1,10.63,10.63,0,0,0,1.42,1.08c.38.51.6,1.2,1,1.7a14.12,14.12,0,0,1,1.42,1.66,3.39,3.39,0,0,1-.9,2.76c-.33.24-.84.39-1.07.76a6.67,6.67,0,0,0-.3,2.26c-.08.34-.18.77-.24,1.11a1.23,1.23,0,0,0-.28.91c-1.11.73-2.65.87-3.45,2.06-.46.52-1.34,1-1.21,1.78,1.11,2.07.34,2.27-1.57,2.89a14,14,0,0,0-2.11.67c-.49.23-.44.72-.31,1.15.55,1.56-.28,1.66-1.45,2.3a15.23,15.23,0,0,0-2.21.67,9.74,9.74,0,0,0-2,.49,9.31,9.31,0,0,1-.82.84,7,7,0,0,1-1.17,1.43,4.56,4.56,0,0,0-1.8.63c-.33.26-.54.69-.86.95s-1.13.65-1.53.9c-.64-.06-1.45.54-2.08.43a3,3,0,0,1-1.18-.24,10.77,10.77,0,0,1-1.37-.2c.39.75.71,1.71,1.14,2.43a5.66,5.66,0,0,1,1.31,1.62l.51,0a3.31,3.31,0,0,1,.24,1.89,3.79,3.79,0,0,1,0,2.4,5,5,0,0,0-.86,1.46,4.5,4.5,0,0,0,.08,1.32,6.33,6.33,0,0,0-.07,1,10.84,10.84,0,0,0-.08,2.48,7.11,7.11,0,0,1,.28,1.46c.29,1,.11,2.09.56,3a9.87,9.87,0,0,1,1,1.7,7.57,7.57,0,0,1,.16,1.5A4.34,4.34,0,0,0,57,71.27a21.15,21.15,0,0,0-.77,2.61A3.57,3.57,0,0,1,60,73.41a.9.9,0,0,1,.31.77,7.13,7.13,0,0,0,.59,1,3.19,3.19,0,0,0,1.34.59c.33,0,.72.14,1.06.17a2.74,2.74,0,0,1,1.53.3c1.17.43,2,1.56,3.21,1.84.79.28.8,1.6,1.73,1.59s1.74-.85,2.66-.45c.63.18,1.3-.48,1.88-.08a1.69,1.69,0,0,1,.71,0,4,4,0,0,0,1.32-.63,12.18,12.18,0,0,0,1.81.17c.34,0,.9-.05,1.25,0s1-.26,1.48-.31a3.35,3.35,0,0,1,1.18,0,.41.41,0,0,1,.47-.07c.28-.29.76,0,1.1-.1a12.64,12.64,0,0,0,2.5-.67c.62.29.71.78.83,1.39s.56,1.32.27,2c-.36.88-1.18.43-1.87.46a2.18,2.18,0,0,1-1.61.38c-1.05.44-.65,1.74-1,2.62a5.49,5.49,0,0,1-2.23,1.32c-1.55.82-2.35,2.49-3.1,4a5.74,5.74,0,0,0-1.79.25,3.24,3.24,0,0,1-1.83.61c-.7.08-1.5.68-2.16.25a6.82,6.82,0,0,0-1.32-1.36c-.27-.14-1-.15-1.3-.31-1.3-.23-2.83-.5-4.16-.72-.5-.22-.1-1-.21-1.42l-.33-.1v0c-.49-.14-1,.25-1.51.31-1-.13-1.75-.95-2.67-1.17a6.08,6.08,0,0,0-1.64.19,24.83,24.83,0,0,1-3.06.64,3.45,3.45,0,0,0-4.09.89c-1,.32-2.09.81-3,1.09-.91-.08-2-.15-2.79-.25-.79-.27-1.45-1.14-2.25-1.1a2.3,2.3,0,0,0-1,.45,10.65,10.65,0,0,1-.84,1.44v0c-1.13,2-1.18,2.22-3,.61A10.41,10.41,0,0,0,36.73,89,5.58,5.58,0,0,0,34,88.21c-.84.26-1.36,1.24-2.14,1.64-.52.26-1.05,1-1.68.92a2.22,2.22,0,0,1-.2-1.64c-.15-.38-.66-.6-.95-.83.08-.44.53-.9.5-1.36-.2-1-1.13-1.53-2-1.93-1-.43-1.52-1.61-2.56-2a7.86,7.86,0,0,0-3.4.67,12.31,12.31,0,0,1-2.35.05c-.71.13-1.41.65-2.15.64a6.46,6.46,0,0,1-1.88-1.28.91.91,0,0,1-.47-.68,10.77,10.77,0,0,0,1.16-2.1c.19-.35.65-.72.81-1.08l-.12-.35c-.26-.14-.63,0-.9-.14a3.57,3.57,0,0,1-.44-.79,6.39,6.39,0,0,0-1.06-1.21,9.46,9.46,0,0,0-1.58-1.7c.53-.92,1.75-1.21,2.37-2a3.69,3.69,0,0,0,1.89.42,2.77,2.77,0,0,1,1.57.51c.35.15.52.56.83.77s.64.06.9.16c.74.07,1.45.94,2.19.37.24-.32.43-.74.82-.91s1.07.09,1.53-.21.87-.8,1.21-1.27a1.44,1.44,0,0,1,1.33.7c1.32.07.18-1.45.22-2.1.14-1-1-2.6-1.35-3.5-.19-.28-.65-.42-.78-.72a7.33,7.33,0,0,0-1.23-1.64c-.11-.29,0-.7-.28-.93s-.83-.41-1.06-.79a6.68,6.68,0,0,1-.41-2.47c0-.34-.17-.94-.13-1.28.22-.53.16-1.22.55-1.68a6.45,6.45,0,0,1,.81-1.77A1,1,0,0,1,24,56c.89-.65,2.08-.92,3-1.48.29-.26.65-.83,1-1a2.63,2.63,0,0,0,1.17-1.71c.14-.37.68-.63.94-.91a3,3,0,0,0,2.12-.74,4.31,4.31,0,0,0-.32-.77c-.09-.55.29-1,.39-1.56a3.24,3.24,0,0,1-.41-1.91c.14-.45.61-.72.9-1s0-1,.23-1.49a6.48,6.48,0,0,1,.46-.81,11.55,11.55,0,0,1,.43-1.11c.25-.83.57-1.67.89-2.47.21-.33.13-.86.55-1a2,2,0,0,0,.14-.73c0-.13.31-.34.4-.42a3.19,3.19,0,0,1,1.57.55,7.07,7.07,0,0,0,2.59.12c.69.1,1.38.53,2.05.69,1,.11,2.16.42,3.07-.19.44-.46.39-1.26.88-1.71.56-.73,1.65-.22,2.4-.5,1.37-.21.38-1.81.73-2.61a7.66,7.66,0,0,0,.75-1.71,7,7,0,0,0,.42-1.39c.12-.28.32-.65.43-.94a2.19,2.19,0,0,0,.07-2.71c-.34-.39-.81-.86-.71-1.42,1.15-.81,2-2.1,3.09-3a31.79,31.79,0,0,0,2.71-2.34,16.86,16.86,0,0,0,3-2.75c.39-.41.21-1.25.08-1.74a3.43,3.43,0,0,1,.26-2.12c.94-1.82,3-2.62,4.68-3.64A19.49,19.49,0,0,1,67.71,9Z"/></svg>