<?xml version="1.0" encoding="UTF-8"?>
<svg width="700pt" height="700pt" version="1.1" viewBox="0 0 700 700" xmlns="http://www.w3.org/2000/svg">
 <path d="m604.87 556.99-0.69922 2.1719c-11.527 0.62891-23.082 0.13672-34.512-1.4688-1.2812-0.070312-2.5664-0.070312-3.8516 0-5.6719 0.55859-10.57 4.8281-16.172 5.9492h0.003906c-7.3203 1.3398-14.746 2.0195-22.191 2.0312-4.6914 0-4.6914-8.1211-6.5117-11.129-3.7812-6.5781-12.391-5.0391-18.691-4.9688-8.75 0-14 4.7617-21.559 7.9805l0.003906-0.003907c-5.6641 2.5156-11.734 3.9844-17.922 4.3398-2.6172-0.13672-5.2188-0.51172-7.7695-1.1211-9.6602-1.6094-19.672-1.2617-29.191-3.3594-5.1094-1.1211-9.1016-5.1094-14.352-5.1797-7 0-14.559-1.9609-20.16 1.75-9.8008 6.3711-15.262 19.809-26.039 24.5h0.003907c-3.3789 0.625-6.8438 0.625-10.223 0-9.4492 0-9.1016-3.7109-21 0h-0.62891c-3.3594 0.62891-7.9102 2.9414-11.059 0.91016-1.2617-0.83984-2.8008-7.5586-2.8711-7.5586-6.0898 0-11.828 3.7812-18.129 2.2383-2.1016-0.48828-1.1914 0-2.5195-1.8203h-0.003906c-0.97656-1.7109-1.7734-3.5156-2.3789-5.3906-1.5977-4.9258-4.5-9.3281-8.3984-12.738-3.9883-3.2188-8.5391-5.4609-12.602-8.3984-4.0586-2.9414-10.219-7-14.559-5.5312-14 4.4102-28 9.1719-42 14.559-0.53125 0.23828-1.1016 0.37891-1.6797 0.42188-0.66797-0.03125-1.3047-0.27734-1.8203-0.70312-8.2305-5.4766-16.812-10.414-25.691-14.77-3.2188-1.3281-3.2188-0.48828-6.0898 2.0312s-5.4609 4.7617-8.0508 7-9.6602 11.27-14.559 10.711c-8.1211-0.42188-20.648 0-26.738-6.3008-1.8203-1.8203-3.5703-3.7812-5.3906-5.6719-1.1328-1.2695-2.375-2.4414-3.7109-3.5-5.0547-3.043-10.492-5.3945-16.172-7l-0.35156-4.6914 0.003906 0.003906c1.5273-8.5078 0.92578-17.262-1.75-25.48-1.1328-3.582-3.6523-6.5586-7-8.2617l-5.0391-0.42187 1.3281-18.828c1.4453-10.059 2.125-20.215 2.0312-30.379 0-7-2.5898-15.82 1.5391-21.77 3.7344-5.9375 7.9492-11.555 12.602-16.801 9.1523-9.6562 18.926-18.707 29.258-27.09 5.6016-4.5508 3.1484-14.84 3.5-21.422 0.46484-7-1.3242-13.969-5.1094-19.879-3.375-6.0352-6.2109-12.363-8.4688-18.898-2.0234-4.2695-3.4609-8.7891-4.2695-13.441v-31.359c-0.14062-0.45703-0.14062-0.94531 0-1.3984 0.14844-0.35937 0.39062-0.67578 0.69922-0.91016 5.8945-4.7656 11.227-10.191 15.891-16.172 0.87891-1.3125 1.8633-2.5547 2.9375-3.7109 1.2734-1.168 2.6328-2.2461 4.0625-3.2188 5.2461-2.6406 9.6562-6.6875 12.738-11.691 1.2734-4.4375 3.6875-8.4688 7-11.688 6.2305-4.1289 16.102 0 23.59-6.0195 5.3906-4.6211 3.0781-12.25 8.3984-15.262 10.852-6.4414 24.078-11.691 26.809-25.48h0.003906c0.46484-2.0898 0.65234-4.2305 0.55859-6.3711v-14c0.42578-6.082-0.070313-12.191-1.4688-18.129-1.8906-6.3711-2.1719-8.2617-7.6289-11.898l0.69922-2.3086c14-0.55859 14-11.691 28-10.078 7 0.76953 11.621 6.0898 17.5 9.0312 23.238 11.27 52.078-16.66 75.32-5.25 17.012 8.3984 19.602 37.801 29.609 52.43v-0.003906c1.7383 2.5117 3.707 4.8555 5.8789 7 1.8828 2.4922 4.4688 4.3672 7.4219 5.3906 3.6406 0.91016 3.7812-3.1484 4.9688-5.4609 0.23828-0.21484 0.60156-0.21484 0.83984 0v0.42188-0.003906c0.51562 4.375 0.25391 8.8086-0.76953 13.09-0.45312 2.0664-1.1094 4.0859-1.9609 6.0195-0.8125 1.8711-1.7227 3.6914-2.7305 5.4609-1.4219 2.0117-2.7109 4.1172-3.8477 6.3008-1.6328 4.7344-2.5312 9.6914-2.6602 14.699-0.92578 6.2148-1.4648 12.48-1.6094 18.762-0.5 3.0508-0.03125 6.1836 1.3359 8.957 1.3672 2.7734 3.5664 5.0508 6.293 6.5117 0.98047 0.91016 3.5703 2.1719 4.1289 3.3594 0.69922 3.1836 0.69922 6.4805 0 9.6602-0.10547 0.85938-0.10547 1.7305 0 2.5898 1.4531 4.9609 4.043 9.5156 7.5586 13.301 6.0898 7 14.422 10.781 19.879 18.621h0.003907c4.1914 5.8359 6.8828 12.617 7.8398 19.738 1.1211 7.6992 0 15.469 0.42188 23.102h-0.003906c0.089844 0.95703 0.375 1.8867 0.83984 2.7305 1.0625 1.2031 2.4102 2.1172 3.9219 2.6602 3.4531 1.8047 6.3359 4.5352 8.3281 7.8828 1.9883 3.3516 3.0078 7.1914 2.9414 11.086 0 7-0.35156 14.629-0.42188 21.84 0 3.3594-2.6602 10.711 1.8203 12.32 4.7891 0.62891 9.6367 0.62891 14.422 0l6.5117 5.8789c2.1719 0.62891 9.8008-10.57 12.039-11.691 3.8516-1.9609 5.25 2.4492 8.5391 3.1484 7 1.3984 5.6016-9.1016 8.9609-11.828v0.003906c0.42969-0.24219 0.87109-0.44922 1.3281-0.63281 4.5312-1.6875 9.2227-2.9062 14-3.6406l-2.5898 2.4492v0.003906c-3.9453 4.7461-3.9453 11.633 0 16.379 5.8242 3.3359 11.914 6.1914 18.199 8.5391 4.4102 2.0312 17.922 6.0195 18.621 10.57 1.3281 8.3281-3.4297 18.199-3.8516 26.672-0.18359 12.602 2.8789 25.039 8.8906 36.117 0.3125 0.5625 0.50391 1.1836 0.5625 1.8203 0.039062 0.44141 0.039062 0.88672 0 1.332-2.5195 7-5.1094 14-7.9102 21-1.3281 3.2188-4.1992 11.199 0.55859 12.531 9.3789 2.4492 19.391-3.2891 28-6.3008 4.6211-1.75 11.129 3.2188 15.051 5.4609v-0.003906c5.457 3.1094 10.223 7.3047 14 12.32 3.2539 4.4258 5.6758 9.4062 7.1406 14.699z"/>
</svg>
