<svg id="Parsa" xmlns="http://www.w3.org/2000/svg" viewBox="0 0 100 100"><path d="M81.07,37.07a.43.43,0,0,1-.09.25,1,1,0,0,1-.52.47,1.67,1.67,0,0,1-.83,0c-.29,0-.59-.14-.84.05a2.25,2.25,0,0,0-.56.63,2.5,2.5,0,0,1-.59.58,2.06,2.06,0,0,1-.79.34,5.31,5.31,0,0,1-.89,0c-.12,0-.25,0-.3.14a2.4,2.4,0,0,0,0,.46,2.79,2.79,0,0,1-.22.86c0,.09-.1.22-.21.25a.67.67,0,0,1-.43-.09,1.92,1.92,0,0,1-.54-.56,2.34,2.34,0,0,0-.73-.51l-.37-.19-.48-.18a3.29,3.29,0,0,1-.33-.23,2.54,2.54,0,0,0-.41-.18,4.38,4.38,0,0,0-.88-.23,3,3,0,0,1-.88-.23,2.69,2.69,0,0,1-.63-.48c-.2-.2-.39-.42-.59-.61s-.49-.39-.72-.6c-.44-.38-.79-.9-1.4-1a1.3,1.3,0,0,1-.78-.32,1.33,1.33,0,0,1-.27-.66c0-.26-.13-.48-.39-.57a1.05,1.05,0,0,0-.72.08,3.29,3.29,0,0,0-1.25,1,2.91,2.91,0,0,0-.39.79,7.54,7.54,0,0,0-.29.92,3.35,3.35,0,0,1-.28.88,4.76,4.76,0,0,1-.5.68,2,2,0,0,0-.37.8,1.61,1.61,0,0,0,0,.87,8.46,8.46,0,0,0,.41.79q.22.44.48.84c.36.56.73,1.11,1.09,1.66.72,1.1,1.59,2.1,2.31,3.19a1.34,1.34,0,0,1,.29.79l0,1a2.87,2.87,0,0,1-.24,1c-.1.31-.16.64-.24,1a4,4,0,0,1-.28.89,4.22,4.22,0,0,1-.45.73A6.16,6.16,0,0,0,64,54a5.76,5.76,0,0,0-.33,1.93c0,.33,0,.65,0,1a6,6,0,0,0,.08,1,6.63,6.63,0,0,0,.57,1.8c.28.59.64,1.13,1,1.69a9.14,9.14,0,0,0,1,1.62,5.87,5.87,0,0,0,.7.71c.23.2.45.42.69.61.42.32,1,.43,1.38.76a2.31,2.31,0,0,1,.64,1.57,2,2,0,0,0,.3.85,5.29,5.29,0,0,0,.52.65,3.92,3.92,0,0,1,.55.67,2.28,2.28,0,0,1,.26.8,15.06,15.06,0,0,1,0,1.9c0,.33.07.64.09,1a2.7,2.7,0,0,1-.12.89,2.82,2.82,0,0,1-.94,1.4c-.43.36-1,.62-1.39,1a6.38,6.38,0,0,0-1.12,1.41,13.3,13.3,0,0,1-1.17,1.32,10.22,10.22,0,0,0-1.1,1.27,7.38,7.38,0,0,0-.73,1.62,6.45,6.45,0,0,0-.27,1,3.12,3.12,0,0,1-.25.84c0,.06-.09.15-.17.1A.41.41,0,0,1,64,83a8.35,8.35,0,0,0-.43-.77L63,81.37a2.49,2.49,0,0,0-.45-.66c-.45-.4-1.17-.29-1.72-.3A5.67,5.67,0,0,1,59,80.07a18.59,18.59,0,0,1-1.78-.75c-.6-.3-1.2-.59-1.82-.84a14.1,14.1,0,0,1-1.84-.78,1.56,1.56,0,0,1-.59-.55,2.65,2.65,0,0,0-.52-.63,1.66,1.66,0,0,0-.78-.3c-.31-.06-.62-.13-.93-.18-.67-.1-1.35-.17-2-.3s-1.22-.44-1.84-.6a2.8,2.8,0,0,0-1-.13,1.63,1.63,0,0,1-.44,0A.7.7,0,0,0,45,75c-.14.06-.27.13-.41.18s-.29.1-.44.15a3.47,3.47,0,0,0-.45.17,1.52,1.52,0,0,0-.37.3.77.77,0,0,1-.7.25c-.31,0-.62-.08-.94-.09s-.68,0-1,0l-.46,0a1.5,1.5,0,0,1-.46-.09,2.76,2.76,0,0,0-1.75,0,6.94,6.94,0,0,0-.77.39l-.39.22a1.07,1.07,0,0,1-.41.18c-.28,0-.58-.13-.85,0a2,2,0,0,0-.58.6,3.94,3.94,0,0,0-.29.9,1.65,1.65,0,0,0,0,1,2.19,2.19,0,0,1,.16.75c0,.31-.27.38-.5.52a1.59,1.59,0,0,0-.58.57,1.06,1.06,0,0,0-.09.35,3.54,3.54,0,0,1-.07.47c0,.23-.1.4-.36.4a2,2,0,0,1-.62-.16,2.06,2.06,0,0,0-.92-.16,3.55,3.55,0,0,1-.46,0c-.16,0-.31-.08-.47-.09s-.2,0-.21.13a1,1,0,0,0,.06.42c.06.14.35.33.18.5s-.32.09-.45.09a4.7,4.7,0,0,0-.75,0,5.06,5.06,0,0,0-.93.23l-.9.33a2.77,2.77,0,0,0-.78.46,5.21,5.21,0,0,0-.5.66,1,1,0,0,1-.72.32.75.75,0,0,0-.56.46,6.17,6.17,0,0,1-.3.75,1,1,0,0,1-.63.44,2.07,2.07,0,0,1-.43,0,1,1,0,0,0-.44.11c-.26.12-.51.26-.76.39a.67.67,0,0,1-.37,0,.33.33,0,0,0-.3.16,7.84,7.84,0,0,0-.5.64,3.47,3.47,0,0,1-.44.64,2.81,2.81,0,0,1-.7.48,1,1,0,0,1-.8.15c-.26-.08-.84-.48-.45-.75a.8.8,0,0,0,.28-.24.42.42,0,0,0,.12-.3c0-.12-.17-.16-.22-.27s.16-.48.31-.63a3.34,3.34,0,0,0,.45-.83,1.76,1.76,0,0,0,.23-.89,2.69,2.69,0,0,0-.25-.88,2.09,2.09,0,0,0-.19-.4c-.06-.1-.14-.19-.2-.3a.54.54,0,0,1-.1-.33c0-.13.13-.22.2-.33a.72.72,0,0,0-.07-.73,1.08,1.08,0,0,1-.16-.3.5.5,0,0,1,.09-.37.8.8,0,0,1,.18-.23.71.71,0,0,1,.38-.05l.4.05a.4.4,0,0,0,.36-.17,1.41,1.41,0,0,0,.24-.72c0-.25-.06-.57.19-.74s.42-.12.61-.24a2.41,2.41,0,0,0,.62-.57.71.71,0,0,1,.27-.22,1.35,1.35,0,0,1,.4,0,.89.89,0,0,0,.67-.3,3,3,0,0,1,.52-.6c.26-.19.5-.38.77-.54a3.14,3.14,0,0,0,.68-.52,1,1,0,0,1,.32-.24c.09,0,.32,0,.35-.11s0-.09,0-.13a.54.54,0,0,1,0-.18c0-.15.07-.26,0-.38s-.4-.31-.3-.59a.74.74,0,0,0,0-.44,1.09,1.09,0,0,1-.06-.44.57.57,0,0,1,.23-.32c.11-.1.22-.21.34-.3a2.56,2.56,0,0,1,.35-.22,1.38,1.38,0,0,0,.34-.3,1,1,0,0,0,.28-.8c-.11-.57-.77-.8-1.17-1.12s-.56-1-.85-1.52a7.07,7.07,0,0,1-.43-.76,1.15,1.15,0,0,1,.09-.87A9.92,9.92,0,0,0,26,66.39c.14-.65.2-1.31.29-2,0-.33.09-.67.14-1a4.79,4.79,0,0,0,.11-1,2.53,2.53,0,0,0-.29-.88,8.36,8.36,0,0,1-.39-.86c-.05-.15-.1-.3-.14-.46a.53.53,0,0,1,0-.39,2,2,0,0,1,.26-.32c.1-.13.21-.26.32-.38s.44-.42.65-.65a9.15,9.15,0,0,0,.62-.75,2.55,2.55,0,0,0,.44-.75,1.6,1.6,0,0,0,.11-.43,2.26,2.26,0,0,0,0-.45,3.59,3.59,0,0,0-.24-.85,1.47,1.47,0,0,0-.35-.73c-.07-.07-.15-.15-.09-.25s.07-.08.11-.12a1.37,1.37,0,0,0,.16-.18c.2-.25.42-.48.61-.73a2.77,2.77,0,0,0,.43-.77,5.53,5.53,0,0,0,.28-.9,5.06,5.06,0,0,0,.09-1c0-.14,0-.28,0-.42a1.87,1.87,0,0,1,.14-.44,3,3,0,0,0,.08-.95,1.5,1.5,0,0,1,.09-.42,1,1,0,0,1,.24-.33.86.86,0,0,0,.17-.66,3.11,3.11,0,0,0-.2-.74c-.08-.28,0-.57-.08-.84a.78.78,0,0,0-.57-.46,4.47,4.47,0,0,1-.81-.25,3,3,0,0,1-.74-.41,4.18,4.18,0,0,1-.53-.72c-.17-.27-.38-.51-.55-.78a4.42,4.42,0,0,1-.41-.88c-.11-.3-.23-.61-.35-.92l-.36-.92a1.82,1.82,0,0,1-.17-1,.76.76,0,0,1,.17-.35,4,4,0,0,1,.31-.27,1.56,1.56,0,0,0,.23-.34l.24-.4a5.06,5.06,0,0,0,.47-1.87c.07-.66.26-1.29.36-1.94.05-.33.09-.65.12-1a6,6,0,0,1,.1-.95,9.44,9.44,0,0,1,.32-.89,5.69,5.69,0,0,0,.2-.91,15.48,15.48,0,0,1,.3-1.91c.09-.32.18-.63.29-.93s.21-.6.28-.91a5.67,5.67,0,0,0,.08-2,2.29,2.29,0,0,0-.19-.82,1.09,1.09,0,0,1-.15-.35,1.42,1.42,0,0,1,0-.46,1.63,1.63,0,0,1,.32-.71,8.17,8.17,0,0,1,.49-.71,4.77,4.77,0,0,1,.61-.66c.2-.2.41-.39.59-.61l.25-.36c.07-.11.17-.21.15-.36a2.07,2.07,0,0,0-.14-.42.59.59,0,0,0-.14-.31,1.14,1.14,0,0,0-.36-.1,4.59,4.59,0,0,1-.48-.17,1,1,0,0,1-.52-.4c-.2-.44.64-.36.86-.36s.65,0,1,0a.63.63,0,0,0,.38-.11c.11-.1.21-.23.31-.34s.41-.46.6-.7a5.27,5.27,0,0,1,.57-.68,2.48,2.48,0,0,0,.88-1.24,1.08,1.08,0,0,0-.22-.79,2.66,2.66,0,0,0-.64-.51c-.23-.15-.45-.25-.51-.56a2.77,2.77,0,0,1,.06-1,2.18,2.18,0,0,1,.34-.78,2.47,2.47,0,0,1,.6-.56c.08,0,.16-.13.25-.06a1.86,1.86,0,0,1,.23.32,2.54,2.54,0,0,0,.73.56c.26.14.55.22.82.35a5,5,0,0,1,.78.52,1.77,1.77,0,0,1,.52.6,4.85,4.85,0,0,1,.3.91c.16.67.29,1.35.44,2A3.79,3.79,0,0,0,38,17.61c.19.25.43.47.64.7a8.07,8.07,0,0,1,.58.73,9.6,9.6,0,0,0,1.07,1.46,2.54,2.54,0,0,0,.77.43,4,4,0,0,0,.91.29c.32.06.65.06,1,.09s.67,0,1,0a5.55,5.55,0,0,1,1,0,8.59,8.59,0,0,0,1,.08,11.34,11.34,0,0,1,2,.2,4.49,4.49,0,0,0,1,.09l1,0c.34,0,.68,0,1,0s.7-.08,1.06-.1c.67-.05,1.35,0,2,0a14.08,14.08,0,0,1,2,.19q1,.18,2,.42a8.08,8.08,0,0,1,1.76.7c.59.31,1.15.65,1.72,1s1.11.72,1.7,1a8.64,8.64,0,0,0,.88.38,7.18,7.18,0,0,1,.83.42,14,14,0,0,0,1.81.67,17.15,17.15,0,0,0,1.86.67,3,3,0,0,0,.43.09,1.33,1.33,0,0,1,.44.09c.24.14.29.45.5.61a1.26,1.26,0,0,0,.38.15c.11,0,.29.05.36.17a3.4,3.4,0,0,1,.07.34.76.76,0,0,0,.31.33,5,5,0,0,0,.77.37,9.5,9.5,0,0,1,.89.48l.82.47.4.28a2.93,2.93,0,0,1,.34.24c.22.21.14.47.18.73a.57.57,0,0,0,.48.43,2,2,0,0,1,.82.26l.35.23a4.11,4.11,0,0,0,.46.15,1.49,1.49,0,0,1,.64.46,3.49,3.49,0,0,0,.49.59,8.4,8.4,0,0,0,1.75.8,4.61,4.61,0,0,1,.86.43.83.83,0,0,1,.27.19.43.43,0,0,1,0,.37,3.47,3.47,0,0,0-.28.76.77.77,0,0,0,.33.68A1.58,1.58,0,0,1,81,37,.36.36,0,0,1,81.07,37.07Z"/></svg>