<svg id="Parsa" xmlns="http://www.w3.org/2000/svg" viewBox="0 0 100 100"><path d="M88,33.73a6.44,6.44,0,0,0,.36,1.62,1.5,1.5,0,0,0,1.66.23c.3.21.51.61.85.78.67.29,1.56.72,1.38,1.6l.24.3a5.69,5.69,0,0,1,.71.07c.18.47-.18,1-.38,1.38a4.33,4.33,0,0,0-.38,1.17,2.37,2.37,0,0,0,.24,1.49c.15.82-.28,1.72-.16,2.53a4.74,4.74,0,0,1-.4,2.34,10.78,10.78,0,0,0-.38,2,4.83,4.83,0,0,1-.45.72c-.11.39-.44,1,0,1.28l-.65.69c-.24,0-.58,0-.82,0a2.91,2.91,0,0,1-1.34.18,9.79,9.79,0,0,1-1.8-.11l-.7-.43c-.7-.25-1.57.56-2.17-.11.13-1.68-1.57-1.38-2.71-1.48-.57-.29-.69-.75-1.32-.93a2.08,2.08,0,0,0-1.59.84,1.67,1.67,0,0,1-1.41,1.3c-.63.36-.45,1.07-.54,1.67.05.39-.57.87-.51,1.25s.53.42.77.71c0,.53-.61.82-.93,1.17a3.68,3.68,0,0,0-.19,1.4,1.12,1.12,0,0,0,0,.7c.09.33,0,.75.13,1.08a1.75,1.75,0,0,0,.65,1c.32.25.83.47,1,.86a3.91,3.91,0,0,1-.31,1.33,1.76,1.76,0,0,1-1.07.46,5.47,5.47,0,0,0-2,1.08,6.36,6.36,0,0,0-1.27.84,3.57,3.57,0,0,1-1.32,1c-.77.35-1.64.05-2.43.1a2.52,2.52,0,0,0-1,.47,4.25,4.25,0,0,0-.87.58c-.48.33-.47,1.11-.48,1.64a9.8,9.8,0,0,1-1,1.65,2.92,2.92,0,0,0-.67.48c-.54.34-.81,1-1.26,1.38-.69.5-.36,1.55-.75,2.22a3.56,3.56,0,0,1-.29.7c-.07.14-.32.29-.36.44a.85.85,0,0,1-.25.62,3.88,3.88,0,0,1-.67.06l-.25.49a2.17,2.17,0,0,0-1.1.15c-.55,1-1.95.62-2.88.93s-1.81.7-2.73.91c-.49.18-1.1,0-1.54.36-.82.17-1.71.27-2.52.44-.31,0-.71.7-.93.89s-.44.5-.67.65a8,8,0,0,0-.67.63c-.46.45-1.08.79-1.57,1.2a16.36,16.36,0,0,1-1.36,1.4,4.41,4.41,0,0,0-.68.83,7,7,0,0,0-.1,1,3.94,3.94,0,0,0-.21.69,2.36,2.36,0,0,1-.68.86.94.94,0,0,0-.26,1.18c.26.8-.72.83-1.05,1.32s-.6.74-.89,1.07a3.93,3.93,0,0,1-1.34,1.38l-.25-.07a.91.91,0,0,1,.17-.34v-.32c-.18-.23-.54-.4-.67-.66s-.36-.68-.65-.87A1.94,1.94,0,0,0,36.84,89,10.86,10.86,0,0,1,35,89.4a2.45,2.45,0,0,0-1.22-.33c-.34,0-.65.32-1,.37a3.91,3.91,0,0,0-2.24.18c-.34-.07-.58-.41-.89-.54a6.57,6.57,0,0,0-1.87-.28,6.29,6.29,0,0,1-1.66.4,4.07,4.07,0,0,1-.7-.4,2.16,2.16,0,0,0-.46-.39c-.32-.24-.81-.17-1.09-.47a6.57,6.57,0,0,1,.5-1.81l-.49-.71A3.4,3.4,0,0,0,24,83.5a6.07,6.07,0,0,1-1.58-2.19c-.09-.44-.13-1.33-.24-1.92a2.56,2.56,0,0,0-.13-1.26c0-.35-.32-.57-.57-.75a6.5,6.5,0,0,0-1.26.44,1.83,1.83,0,0,1-.75.51,9.57,9.57,0,0,0-1.4-.61,7.76,7.76,0,0,1,0,1.08c-.19.41-.56.92-.78,1.32a3.26,3.26,0,0,0,0,1.08c0,.12,0,.32.16.39L17,82a1.73,1.73,0,0,1-1-.13,3.44,3.44,0,0,1-.7-1.64,12.47,12.47,0,0,1-1.62-.1,1.43,1.43,0,0,0-1.29,0,1.18,1.18,0,0,1-1.07.47c-.23,0-.83,0-1.06,0-.48-.16-1.09-.49-1.56-.68s-1.36-.16-2-.28c.22-.16.22-.51.26-.75.41-.94,1.46-1.29,2.31-1.72,0-.42.33-.76.44-1.15a1.17,1.17,0,0,1,.53-.72,3.5,3.5,0,0,0,.55-.17,1.75,1.75,0,0,1,.39.28l.32-.09.11-.25a.56.56,0,0,0-.18-.25.5.5,0,0,1,.08-.44c.3-.5,1-.61,1.43-.9a7.46,7.46,0,0,0,1.52-1.16c.12-.26-.09-.5-.26-.67-.69-1.17-1.29-1.41-.12-2.59l.22.17c.39-.07.85.18,1.25.17a5,5,0,0,0,2-.64l.17-.31c-.1-.52-.61-.94-.68-1.48.13-.43.69-.73.76-1.14-.14-.38-.29-.84-.4-1.23a.71.71,0,0,1-.08-.53c.1-.27.42-.44.64-.61A5.76,5.76,0,0,0,19.46,62a9.3,9.3,0,0,1,.8-1.17c.43-1.36,1.58-.79,2.41-.17a2.66,2.66,0,0,0,1.54-.58c.43-.07,1-.33,1.42-.39a5.83,5.83,0,0,1,2,.24c.32,0,.83.11,1.07-.17a5.85,5.85,0,0,1,1.09-1.24l.05-.27c-.39-.58-1.13-.91-1.6-1.43a1.6,1.6,0,0,1-.08-1.57,4.21,4.21,0,0,0,.49-1,7.81,7.81,0,0,0-.58-.71c-.14-.29.1-.77.11-1.08a1.55,1.55,0,0,0-.3-.74,4.7,4.7,0,0,0-.73-1.12c-.53-.52-1.32-1.35-.71-2.08A7,7,0,0,1,28.27,47a2.88,2.88,0,0,0,.42-1.18,1.61,1.61,0,0,1,.81-1,1.39,1.39,0,0,0,.88-.87,7.53,7.53,0,0,1,1.18-2.11c.53-.65,1.82-.94,1.73-1.93a.56.56,0,0,1-.19-.31l.16-.28.28-.07a1,1,0,0,0,.94.12c.15-.14.4-.28.56-.41a4.78,4.78,0,0,1,1.19-.61c.82-.32,1.78-.4,2.61-.69a2,2,0,0,0,1.28-.79c.13-.79-.67-1.25-1.23-1.62a6.75,6.75,0,0,1-.81-1A4.37,4.37,0,0,1,38,32.8c0-1.7-1.16-3.19-2-4.6a5.08,5.08,0,0,1-1.65-2.33c.35-.29,1.31-.73,1.41-1.49a7.8,7.8,0,0,1-.2-1.74,2.63,2.63,0,0,1,.14-1,6,6,0,0,1,.64-.59,1,1,0,0,0-.37-1,15.17,15.17,0,0,1-1.29-2.54,6.69,6.69,0,0,1,.79-.44c.23-.2.66-.51,1-.44.54.24,1,.76,1.68.76.77.23,1.52-.37,2.14-.74.1-.28.4-.82.46-1.1A5.15,5.15,0,0,1,41,14.51a1,1,0,0,1,.72-.26c.3-.2.35-.67.45-1a2.65,2.65,0,0,0,1.07-.51c.3-.24.62-.67.94-.89.8-.36,1.83-.37,2.54-.94v-.35a2.82,2.82,0,0,1-.62-.88,2.32,2.32,0,0,0-.13-1.33c.07-.72,1-.89,1.55-.78a2.09,2.09,0,0,1,.81,1.27,4.68,4.68,0,0,1,.53.92,5.54,5.54,0,0,0-.21.8c.14.36.16.95.33,1.3s.81.68,1.07,1.1A12.31,12.31,0,0,1,51,14.32a2,2,0,0,1,.56,1.09,6,6,0,0,0,.3.84c0,.1-.05.59-.06.67-.41.25-1,.13-1.45.26-.58.33-.46,1.1-.48,1.66a7.22,7.22,0,0,0,.61,1.21,7.53,7.53,0,0,0,.44,1.61,4.78,4.78,0,0,1,.63,1.86c.21.52.85.94.91,1.51l-.47.42a7.45,7.45,0,0,0-.13,1.88,7,7,0,0,1,.12,2.14,3.17,3.17,0,0,0,1.56,2.4,4.08,4.08,0,0,0,1.86-.42,5.15,5.15,0,0,1,1.7-.29,3,3,0,0,1,1.76.31c.57.06,1.23-.22,1.78,0a5.44,5.44,0,0,1,1.17,2c.21.26.59.52.82.75a2.07,2.07,0,0,0,.73.68c.66-.1,1-.8,1.44-1.27a1,1,0,0,1,.84-.61,2.73,2.73,0,0,0,.15.56c.11.22.44.55.42.81l-.13.14a.67.67,0,0,0-.4.2c.23.19.64.12.82.4.36.31.5,1.16,1.12.9a4.74,4.74,0,0,1,2.68-.21,3.29,3.29,0,0,1,1.9,1.4,14.83,14.83,0,0,1,2.66,2.53A8.23,8.23,0,0,0,77,39.68l.84,0a1.85,1.85,0,0,0,.77.08,4.89,4.89,0,0,0,.62-.58,7.54,7.54,0,0,0,1.15-.64,3.45,3.45,0,0,1,.77-.65c.14-.13.33-.39.48-.52a1.08,1.08,0,0,0,.3-1.18,1,1,0,0,1,.15-1.15c.81-.25,1.71-.38,2.53-.59a6,6,0,0,0,1-.53C86.28,33.68,87.15,34,88,33.73Z"/></svg>