<svg xmlns="http://www.w3.org/2000/svg" viewBox="0 0 100 100"><g id="Baara"><path d="M35.64,17.77c0-.07.19-.06.27-.08a5.46,5.46,0,0,1,.69-.1,1.32,1.32,0,0,1,.66.24,2.75,2.75,0,0,0,.57.2.8.8,0,0,0,.56-.16,1.86,1.86,0,0,1,.53-.3c.22-.06.45,0,.68,0a.45.45,0,0,0,.21-.12.4.4,0,0,0,0-.24.34.34,0,0,1,0-.2.42.42,0,0,1,.22-.08c.36,0,.77.22,1.12,0,.14-.07.2-.27.36-.28s.34.14.47.25.23.18.39.12a.65.65,0,0,0,.23-.13c.06-.06.11-.18.19-.21a3.2,3.2,0,0,1,.19.37,1.54,1.54,0,0,0,.34.38c.08,0,.21.08.25.17s-.1.27-.16.38,0,.23,0,.33a.46.46,0,0,1-.05.2c0,.05-.12.18-.1.24s.19.08.26.14.06.11.1.16a1.54,1.54,0,0,0,.17.19c.1.09.22.16.33.25a.69.69,0,0,0,.43.16,1.31,1.31,0,0,0,.86-.4c.1-.1.17-.08.29-.07s.33,0,.49,0a.45.45,0,0,1,.3.24c.07.13.1.15.25.15a1.53,1.53,0,0,0,.74-.37.52.52,0,0,1,.36-.12c.08,0,.16.15.18.23a.61.61,0,0,0,.11.29.67.67,0,0,0,.28.19c.21.13,0,.6.3.63a.59.59,0,0,0,.32-.05c.13-.06.22-.16.37-.16a.44.44,0,0,1,.33.13,1.41,1.41,0,0,1,.15.48c0,.27,0,.66.31.82a3,3,0,0,0,.45.16,2.49,2.49,0,0,0,.45.18c.14,0,.31,0,.43,0a.35.35,0,0,1,.19.25c0,.12,0,.24.07.35a1.61,1.61,0,0,0,.25.42,1.27,1.27,0,0,0,.41.32,1.37,1.37,0,0,0,.5.21.55.55,0,0,0,.42-.07c.13-.13,0-.33,0-.48s.13,0,.19,0a1,1,0,0,0,.24,0c.19,0,.28-.14.4-.28s.18-.19.33-.17a1.47,1.47,0,0,0,.46.07.34.34,0,0,0,.25-.28c0-.14-.09-.42.13-.43a.69.69,0,0,1,.42.22c.12.1.28.29.44.27s.23-.18.37-.24.35,0,.53.06a4.51,4.51,0,0,1,.52,0,1.17,1.17,0,0,1,.48.25.45.45,0,0,1,.2.39,1.42,1.42,0,0,1-.19.48c-.12.24-.29.66.13.71.14,0,.28,0,.42,0s.26.15.41.19a1,1,0,0,0,.42-.1.43.43,0,0,0,.34-.28c.07-.17,0-.33,0-.5s.17-.2.31-.2a.28.28,0,0,0,.2,0c.06,0,.09-.12.18-.09s.1.1.15.13a.81.81,0,0,0,.27.05l.57.08a2.3,2.3,0,0,0,.26,0c.06,0,.17,0,.21.05s0,.38-.08.48a.62.62,0,0,0-.07.46,1.16,1.16,0,0,0,.62.51,2.85,2.85,0,0,0,1,.44c.4,0,.81,0,1.21.05.07,0,.09,0,.14.07a.69.69,0,0,0,.18.16c.17.12.24.29.46.32s.34-.06.51,0a.56.56,0,0,1,.29.42.31.31,0,0,1-.14.33,1.11,1.11,0,0,1-.4.13,1.19,1.19,0,0,1-.53-.09,1,1,0,0,0-.41-.1.21.21,0,0,0-.2.2,2.61,2.61,0,0,0,0,.28,1.45,1.45,0,0,1-.09.22.49.49,0,0,0,0,.44,1.26,1.26,0,0,0,.35.34.84.84,0,0,1,.21.38c.06.16.19.28.26.44a.92.92,0,0,1,0,.52.69.69,0,0,0,0,.47c.07.16.21.19.35.25a2,2,0,0,1,.44.33c.27.21.61,0,.9-.07a.42.42,0,0,1,.25,0,1,1,0,0,0,.25.11c.16,0,.34-.11.5-.14a.91.91,0,0,0,.42-.14c.14-.1.26-.23.46-.16s.32.15.5.21a2,2,0,0,1,.49.27c.16.1.34.18.5.28s.33.1.36.27a3.68,3.68,0,0,1,.07.58.71.71,0,0,1-.16.48,1.09,1.09,0,0,0-.1.48.57.57,0,0,0,.2.45c.11.11.25.18.33.32a1.07,1.07,0,0,0,.22.37,1,1,0,0,0,.52.11c.1,0,.17,0,.19.12a.52.52,0,0,1,0,.28.5.5,0,0,0,.12.42,1.63,1.63,0,0,1,.2.47c.06.35.45.19.67.38a.5.5,0,0,0,.37.15l.63.07a2.94,2.94,0,0,0,.59.05,2,2,0,0,0,.55,0c.16,0,.19,0,.22.15a4.68,4.68,0,0,0,.17.53.7.7,0,0,0,.2.4,1.43,1.43,0,0,0,.21.12c.06,0,.17.06.21.12s-.29.25-.35.43.08.43.08.63-.16.24-.29.3-.33,0-.36.21,0,.11.07.17a.75.75,0,0,1,.1.2.58.58,0,0,1,.09.25,1.43,1.43,0,0,0,0,.29,2.45,2.45,0,0,0,.08.29c0,.08,0,.28.06.33s.18,0,.25,0a.31.31,0,0,1,.25.13c.1.14.19.31.38.33a1.31,1.31,0,0,1,.59.1c.09.05.11.11.17.2a.88.88,0,0,1,.12.15c.1.18,0,.41.06.61a2.17,2.17,0,0,1,.07.24.5.5,0,0,1,0,.27c-.06.15,0,.37-.1.51s-.24.08-.28.2a1.07,1.07,0,0,0,0,.43.21.21,0,0,0,.13.2s.2,0,.24.07,0,.14,0,.2a.24.24,0,0,0,.1.23c.12.07.35,0,.38.15s0,.17,0,.25a.28.28,0,0,0,.06.09c.06.06.1,0,.18,0s0,.23.07.32a.5.5,0,0,0,.29.22c.12,0,.19.09.21.22a1.17,1.17,0,0,0,0,.26c.1.25.34.26.56.14s.43-.4.75-.36a.41.41,0,0,1,.25.18l.23.26c.11.11,0,.24,0,.38a.25.25,0,0,0,.14.24,1.14,1.14,0,0,0,.36.15.59.59,0,0,1,.33.23c.1.11.17.21.32.23s.29-.05.4,0,0,.13,0,.2a.28.28,0,0,0,0,.15c0,.11.18.15.24.26s0,.23,0,.35.27.12.32.28,0,.2-.14.26a.53.53,0,0,0-.24.23c0,.09,0,.18,0,.27a1.41,1.41,0,0,0,0,.46.36.36,0,0,0,.24.18,2.14,2.14,0,0,1,.41.25.7.7,0,0,1,.3.29c.06.12.09.21.23.25a3.11,3.11,0,0,0,.44.07,1.4,1.4,0,0,1,.45.06c.11,0,.17.15.31.13s.26-.15.4-.2a.62.62,0,0,1,.38,0c.13,0,.24,0,.33.13a.25.25,0,0,1,.09.27,1.27,1.27,0,0,0-.07.38c0,.1.13.12.22.16s.27.13.31.25,0,.26,0,.38a.43.43,0,0,0,.24.27,1.29,1.29,0,0,0,.84.24,2.33,2.33,0,0,0,.72-.32.38.38,0,0,1,.59.14c.15.26.42.39.6.62a3.79,3.79,0,0,0,.31.37.87.87,0,0,0,.4.26,1.58,1.58,0,0,0,.86-.26,1.61,1.61,0,0,0,.37-.32c.12-.11.22-.25.34-.38s.21-.23.31-.37.41.31.45.42a.42.42,0,0,1,0,.31.49.49,0,0,0,.2.64,3,3,0,0,0,.32.1.81.81,0,0,1,.29.19.49.49,0,0,1,.13.27c0,.16,0,.31,0,.47s.22.53.22.82a.5.5,0,0,1-.36.53.7.7,0,0,1-.35,0c-.1,0-.22-.12-.33-.11s-.25.06-.37.07a.41.41,0,0,0-.35.15.61.61,0,0,0-.06.35,1.1,1.1,0,0,1-.07.36c-.1.2-.34.32-.5.11s-.18-.52-.34-.29c-.06.07-.06.16-.1.24a.66.66,0,0,1-.24.23,5.32,5.32,0,0,1-.79.29c-.2.07-.42.2-.31.44s.36.24.5.42a.64.64,0,0,1,.13.37,2.47,2.47,0,0,0,.11.36c0,.13.08.25.13.38a.51.51,0,0,1,.06.38c-.1.23-.4.29-.59.41a.62.62,0,0,0-.25.6c0,.22.07.5-.09.67s-.17.13-.23.22,0,.25,0,.38-.06.25-.08.37a.26.26,0,0,0,.12.23c.26.23-.05.37,0,.62a.61.61,0,0,0,.13.31c.08.11.05.18,0,.29a1,1,0,0,0-.09.37c0,.16,0,.32,0,.48a1.44,1.44,0,0,1-.27.78.37.37,0,0,1-.52,0,.61.61,0,0,0-.27-.18.53.53,0,0,0-.37.07c-.37.21-.43.69-.6,1a3.45,3.45,0,0,1-.41.59,3.3,3.3,0,0,0-.22.3,1.54,1.54,0,0,1-.26.25,1.73,1.73,0,0,1-.3.16c-.12.07-.23.16-.36.22a.61.61,0,0,0-.27.18,1.63,1.63,0,0,0-.17.38,1.86,1.86,0,0,1-.37.62c-.19.19-.41.36-.6.55l-.67.69-.31.29c-.09.1-.14.22-.24.32s-.44.4-.65.62a6.44,6.44,0,0,1-.61.55,1,1,0,0,0-.38.6c-.07.29.14.48.21.75a1.4,1.4,0,0,1,0,.81c-.06.19-.15.5-.37.57a.3.3,0,0,1-.27,0,.58.58,0,0,0-.38-.1.46.46,0,0,0-.29.15.53.53,0,0,0,0,.39,3,3,0,0,1,0,.42,1.87,1.87,0,0,1-.07.4,1.51,1.51,0,0,0,.07.89c.05.1.13.19.18.3s.08.28.12.42a1.16,1.16,0,0,1,0,.84A.81.81,0,0,1,80,79c-.14,0-.28,0-.41.06s-.28.09-.42.13c-.51.15-.8.78-1.37.79a6.71,6.71,0,0,0-1.82.33,8.94,8.94,0,0,1-.88.27,7.2,7.2,0,0,1-.93,0,1.67,1.67,0,0,0-1.26.91,3.24,3.24,0,0,1-.17.32c-.08.11-.18.21-.26.32a2.18,2.18,0,0,1-.25.28.78.78,0,0,1-.39.12,3.31,3.31,0,0,1-.89-.14,3,3,0,0,0-.89-.1c-.32,0-.63.14-.95.17-.14,0-.28,0-.42,0a2,2,0,0,0-.42.07,2.35,2.35,0,0,0-.37.14l-.49.16a7.87,7.87,0,0,0-.81.3,2.06,2.06,0,0,1-.33.17.75.75,0,0,1-.42,0c-.3-.06-.58-.11-.88-.14a1,1,0,0,1-.62-.34,1.68,1.68,0,0,0-.25-.29c-.1-.07-.2-.09-.28-.19a1.16,1.16,0,0,0-.44-.44.77.77,0,0,0-.7.15c-.09.07-.13.17-.22.25a1.84,1.84,0,0,1-.31.2,1.18,1.18,0,0,1-.33.12.63.63,0,0,1-.35-.11,1.4,1.4,0,0,1-.37-.17,3.7,3.7,0,0,0-.33-.21,2.06,2.06,0,0,0-.35-.12L60,81.9a3.44,3.44,0,0,0-.82-.22c-.13,0-.25,0-.38,0a3.42,3.42,0,0,1-.45,0L58,81.61a1.29,1.29,0,0,0-.39,0c-.12,0-.2,0-.28.11s-.14.23-.24.31a.66.66,0,0,0-.35-.21,2.12,2.12,0,0,0-.71.07,4.06,4.06,0,0,1-.7.09.67.67,0,0,1-.53-.25,5.45,5.45,0,0,1-.46-1.18,1.22,1.22,0,0,0-.36-.53,4.15,4.15,0,0,1-.59-.52A1.24,1.24,0,0,1,53,79c0-.12,0-.16-.18-.15a.72.72,0,0,0-.29.06c-.19.09-.32.23-.54.19a4.26,4.26,0,0,1-1.39-.45l-.31-.17a2.14,2.14,0,0,0-.32-.2c-.39-.13-.81.2-1.21.06-.19-.07-.28-.26-.45-.35a.79.79,0,0,0-.26-.08,1.61,1.61,0,0,1-.36-.15.84.84,0,0,0-.59-.15,4.35,4.35,0,0,1-.72,0l-.27,0a.39.39,0,0,1-.23-.15,6.91,6.91,0,0,1-.51-.57,3.52,3.52,0,0,0-.52-.5.45.45,0,0,0-.19-.11c-.11,0-.24,0-.34,0s-.12-.12-.18-.18A.77.77,0,0,0,44,76a.41.41,0,0,0-.19-.12,1.57,1.57,0,0,0-.28.06l-.71.1a.46.46,0,0,1-.26,0c-.12-.05-.14-.12-.28-.14l-.73-.08-.37,0a.53.53,0,0,0-.28,0,1.06,1.06,0,0,0-.21.16.74.74,0,0,1-.24.11,1.71,1.71,0,0,1-.71,0,1.13,1.13,0,0,1-.32,0,1.2,1.2,0,0,1-.24-.15c-.06,0-.16-.1-.23-.06s-.09.16,0,.25.18.28.05.46a.84.84,0,0,1-1.06.16,1.13,1.13,0,0,0-.57-.25h-.36c-.13,0-.24.07-.36.09s-.14-.11-.12-.2.11-.17.15-.25-.06-.26-.21-.23l-.27.06a1.74,1.74,0,0,1-.39,0,.58.58,0,0,0-.32,0c-.11,0-.13.07-.24,0a.58.58,0,0,0-.29,0,.74.74,0,0,0-.32.16q-.29.19-.57.36a1.19,1.19,0,0,1-.61.14,1.58,1.58,0,0,0-1.18.25,1.25,1.25,0,0,1-.47.31.75.75,0,0,1-.53,0,1.07,1.07,0,0,1-.38-.41,3.85,3.85,0,0,1-.39-.68c-.11-.22-.22-.43-.34-.63a1.9,1.9,0,0,0-.4-.53.68.68,0,0,0-.59-.1,1.65,1.65,0,0,1-.7,0,1.79,1.79,0,0,1-.56-.3,1.28,1.28,0,0,0-.29-.13,1.06,1.06,0,0,1-.34-.12A.35.35,0,0,1,27,74c-.05-.08-.06-.17-.11-.26a.54.54,0,0,1-.07-.52A.62.62,0,0,1,27,73a1.51,1.51,0,0,0,.21-.23.8.8,0,0,0,.16-.6.61.61,0,0,1,0-.3c0-.07.11-.13.12-.22a.55.55,0,0,0-.21-.47,2.61,2.61,0,0,1-.41-.52.92.92,0,0,0-.37-.41c-.14-.09-.36,0-.48-.16a.8.8,0,0,1-.11-.25,3.78,3.78,0,0,0-.17-.35c-.23-.44-.57-.8-.8-1.23a3.14,3.14,0,0,1-.22-.58,6.16,6.16,0,0,1-.09-.72,1.32,1.32,0,0,0-.26-.53,1.06,1.06,0,0,0-.19-.23c-.1-.08-.22-.13-.32-.22a.56.56,0,0,0-.52-.21c-.23,0-.43.18-.65.24a3,3,0,0,1-1.42,0c-.24,0-.48,0-.71-.11l-.33-.08c-.14,0-.29,0-.43,0a2.46,2.46,0,0,1-.65-.26l-.31-.14a2.39,2.39,0,0,1-.37-.15c0-.06.05-.13,0-.2a.48.48,0,0,0-.07-.24,1.3,1.3,0,0,0-.42-.42,1.86,1.86,0,0,0-.57-.21c-.25-.07-.5-.13-.75-.21-.42-.13-.82-.33-1.25-.45a1.27,1.27,0,0,0-.28,0l-.27,0c-.24,0-.45-.11-.69-.16a3.18,3.18,0,0,0-.69,0,3.85,3.85,0,0,0-.68,0,2.93,2.93,0,0,0-1.09.69c-.36.28-.68.6-1,.88a.36.36,0,0,1-.2.11,1,1,0,0,1-.23,0c-.23,0-.46-.07-.7-.09A2.94,2.94,0,0,1,9,64.78a1.66,1.66,0,0,1-.29-.1,1.06,1.06,0,0,1-.21-.16,1.73,1.73,0,0,0-.55-.2,2.08,2.08,0,0,0-.65-.17c-.16,0-.36.12-.52.06s-.25-.27-.33-.43a.75.75,0,0,1-.11-.28,2.3,2.3,0,0,1,0-.37,1.51,1.51,0,0,1,.23-.61A4.74,4.74,0,0,0,6.67,62c.06-.23.23-.4.3-.64a2.14,2.14,0,0,0,0-.62,4.72,4.72,0,0,0-.08-.63A1.3,1.3,0,0,1,7,59.44a2.6,2.6,0,0,0,.23-.58c0-.09,0-.18,0-.27a1.28,1.28,0,0,1,.11-.27c.07-.2,0-.41.08-.61s.24-.35.33-.56a1.39,1.39,0,0,0,0-.73c0-.23-.07-.45-.1-.68a.47.47,0,0,1,.16-.5,1.2,1.2,0,0,1,.58-.18A.73.73,0,0,0,9,54.81c.1-.14.13-.32.23-.47A.92.92,0,0,1,9.7,54a2,2,0,0,1,.55-.1,2.07,2.07,0,0,0,.64-.12c.2-.06.4-.15.61-.2a4.06,4.06,0,0,1,.69-.08,3.71,3.71,0,0,1,.67.07,1.42,1.42,0,0,0,.57.12,1.63,1.63,0,0,1,.65.12.94.94,0,0,0,.29,0,.51.51,0,0,0,.31-.11,2,2,0,0,1,1.21-.28,2.84,2.84,0,0,0,.65,0,3.55,3.55,0,0,0,.64-.17c.19-.07.35-.2.54-.26a2.25,2.25,0,0,0,.58-.22,2.82,2.82,0,0,0,.44-.47A1.42,1.42,0,0,0,19,51.7c0-.15-.14-.28-.25-.37s-.35-.14-.52-.24S18.1,51,18,50.94a1.79,1.79,0,0,0-.32-.13c-.21-.08-.38-.21-.58-.3-.35-.15-.67-.37-.69-.78a1.05,1.05,0,0,0-.1-.58c-.1-.17-.26-.3-.35-.48s-.09-.16-.08-.23a1.41,1.41,0,0,1,.06-.22c.06-.24-.08-.4-.11-.63-.07-.43.39-.63.65-.87a1.1,1.1,0,0,0,.35-.45c.07-.2.07-.42.13-.63a1.35,1.35,0,0,1,.24-.46,1.16,1.16,0,0,1,.49-.32,5,5,0,0,0,.62-.29c.2-.1.41-.18.6-.29a1.34,1.34,0,0,0,.37-.34,1.05,1.05,0,0,0,.18-.54,2.13,2.13,0,0,0-.12-1.12,1.21,1.21,0,0,0-.4-.44,2,2,0,0,1-.46-.51,1.45,1.45,0,0,1-.22-.49,1.76,1.76,0,0,1,0-.23c0-.1,0-.2,0-.31a1.52,1.52,0,0,0-.72-1c-.27-.15-.85-.32-.8-.72A1.46,1.46,0,0,1,17,38a3.38,3.38,0,0,0,.29-.64,2.19,2.19,0,0,0,.17-.55c0-.07-.05-.25,0-.3s.28-.1.37-.11.45,0,.68-.09a1.8,1.8,0,0,0,.64-.26,1.27,1.27,0,0,1,.58-.17c.25,0,.49-.07.75-.09a6.3,6.3,0,0,1,1.44,0,.38.38,0,0,1,.34.25,1.62,1.62,0,0,1-.08.65,1.42,1.42,0,0,0-.08.54.38.38,0,0,0,.21.36c.19.11.41.15.6.25a1.82,1.82,0,0,0,.62.24.44.44,0,0,0,.41-.14l.42-.45c.23-.26.61-.26.93-.34a1.46,1.46,0,0,0,.51-.3,1.38,1.38,0,0,0,.37-.49,1.18,1.18,0,0,1,.28-.45,1,1,0,0,1,.57-.18,1.61,1.61,0,0,0,1-.32c.3-.3.24-.76.48-1.1s.47-.79.74-1.18c.08-.1.23-.26.2-.41a1.2,1.2,0,0,0-.18-.26c-.07-.09-.13-.19-.2-.29a.33.33,0,0,1-.08-.27c0-.12,0-.24,0-.35s0-.5.05-.75a1.43,1.43,0,0,1,.09-.54.35.35,0,0,1,.41-.22,3,3,0,0,0,1.26-.18,2.14,2.14,0,0,1,.27-.09l.26,0c.22,0,.36-.2.55-.28a1.56,1.56,0,0,1,.61-.09.53.53,0,0,0,.48-.25c.1-.16.05-.36.1-.54s.25-.34.37-.49.26-.37.39-.56a1.91,1.91,0,0,1,.41-.49,3.46,3.46,0,0,1,.52-.32.45.45,0,0,0,.3-.45,2.47,2.47,0,0,0-.12-.59c0-.21-.12-.42-.17-.64s-.16-.43-.23-.65a4.39,4.39,0,0,0-.26-.63c-.09-.16-.21-.29-.29-.46a3.07,3.07,0,0,1-.21-.67,3.93,3.93,0,0,1-.12-.67,1.08,1.08,0,0,1,.16-.63,1,1,0,0,1,.44-.28,4.2,4.2,0,0,1,.6-.3,3.81,3.81,0,0,1,.57-.19.34.34,0,0,0,.32-.36c0-.2,0-.41-.06-.61a5.65,5.65,0,0,0,0-.71c0-.23,0-.47,0-.7a2.44,2.44,0,0,1,0-.38A.05.05,0,0,1,35.64,17.77Z"/></g></svg>