<svg xmlns="http://www.w3.org/2000/svg" viewBox="0 0 100 100"><g id="Sarlahi"><polygon points="60.45 10.82 60.69 11.2 60.81 11.36 60.82 11.36 61.03 11.37 61.24 11.49 61.49 11.85 61.75 12.4 61.94 12.62 62.15 12.89 62.25 12.98 62.35 13.06 62.71 13.33 63.01 13.59 63.37 13.84 63.72 14.28 63.88 14.55 63.97 14.72 64.02 15.11 64.13 15.51 64.18 15.81 64.34 16.2 64.5 16.77 64.66 17.16 64.86 17.6 65.11 17.77 65.62 17.86 66.52 17.84 67.31 17.71 68.41 17.61 69.27 17.52 70.41 17.42 71.36 17.23 72.11 16.93 73.06 16.48 73.75 16.13 74.16 15.81 74.55 15.51 75 15.15 75.4 14.8 75.69 14.58 76.09 14.4 76.74 14.3 77.19 14.35 77.94 14.51 78.4 14.69 79.05 15.03 79.51 15.25 80.01 15.46 80.36 15.59 80.91 15.71 81.26 15.76 81.87 15.88 82.52 16.05 83.53 16.31 84.12 16.36 84.57 16.4 85.38 16.26 85.97 16.16 86.72 16.2 87.38 16.15 88.12 16.19 88.83 16.24 89.54 16.31 90.13 16.4 90.64 16.57 91 16.79 91.24 17.09 91.59 17.44 92.01 17.7 92.25 17.83 92.81 17.95 93.15 17.87 93.26 17.65 93.5 17.3 93.79 16.89 94.45 16.94 94.6 17.03 94.71 17.25 94.75 17.47 94.71 17.94 94.61 18.29 94.51 18.6 94.46 19 94.57 19.25 94.88 19.39 95.22 19.39 95.47 19.3 95.77 19.17 95.97 19.07 96.42 19.02 96.92 19.11 97.18 19.24 97.42 19.38 97.99 19.55 97.98 19.8 97.93 19.94 97.88 20.2 97.78 20.42 97.74 20.78 97.69 21.13 97.65 21.65 97.6 22.04 97.46 22.61 97.36 22.88 97.21 23.1 97.01 23.5 96.87 23.98 96.73 24.82 96.34 26.26 95.95 27.19 95.7 27.71 95.51 28.15 95.36 28.68 95.27 29.48 95.28 30.69 95.08 31.58 94.69 32.02 93.99 32.28 93.39 32.55 92.94 32.94 92.7 33.34 92.5 33.78 92.16 34.54 91.76 35.23 91.13 36.15 90.44 36.99 89.74 37.92 89.29 38.81 89.26 40.02 89.41 41 90.07 41.39 90.78 41.73 91.39 42.12 91.58 42.6 91.74 43.43 91.94 44.26 92.26 44.91 92.47 45.53 92.21 46.01 91.82 46.19 91.37 46.11 90.72 46.02 90.02 45.98 89.62 46.03 89.27 46.12 88.96 46.22 88.67 46.3 88.1 46.41 88 46.52 87.89 46.62 87.77 46.7 87.63 46.75 87.47 46.78 87.32 46.83 87.19 46.87 87.04 46.93 86.89 46.97 86.74 47.01 86.58 47.01 86.43 47.03 86.29 47.08 86.15 47.14 86.02 47.21 85.89 47.29 85.76 47.36 85.64 47.45 85.52 47.53 85.39 47.62 85.27 47.69 85.14 47.77 85.02 47.86 84.9 47.96 84.79 48.04 84.67 48.13 84.55 48.21 84.41 48.3 84.28 48.34 84.12 48.37 83.97 48.41 83.82 48.44 83.67 48.47 83.51 48.48 83.37 48.47 83.21 48.45 83.05 48.44 82.89 48.43 82.75 48.41 82.59 48.38 82.44 48.37 82.28 48.34 82.13 48.36 81.97 48.33 81.82 48.31 81.66 48.28 81.52 48.26 81.36 48.25 81.2 48.22 81.06 48.22 80.9 48.22 80.74 48.22 80.59 48.19 80.44 48.2 80.29 48.24 80.13 48.25 79.97 48.27 79.83 48.31 79.68 48.37 79.53 48.41 79.39 48.45 79.12 48.7 79.1 48.84 79.07 48.98 79.05 49.11 79.02 49.26 79.01 49.39 79 49.52 78.99 49.66 79.01 49.78 79.14 49.87 79.29 49.9 79.45 49.93 79.62 49.98 79.55 50.17 79.77 50.11 79.91 50.07 80.07 50.04 80.22 49.99 80.36 49.95 80.52 49.94 80.67 49.91 80.82 49.89 80.97 49.93 81.09 50.01 81.18 50.13 81.24 50.26 81.29 50.39 81.3 50.52 81.3 50.66 81.3 50.79 81.32 50.92 81.35 51.06 81.35 51.19 81.4 51.33 81.43 51.46 81.47 51.59 81.55 51.7 81.65 51.81 81.75 51.92 81.83 52.03 81.91 52.15 81.96 52.29 81.96 52.42 81.98 52.55 82.02 52.69 82.05 52.82 82.1 52.94 82.15 53.08 82.21 53.2 82.32 53.3 82.43 53.4 82.54 53.49 82.61 53.61 82.71 53.72 82.84 53.78 83.08 53.86 83.22 53.88 83.37 53.91 83.51 53.93 83.61 54 83.66 54.13 83.67 54.25 83.65 54.38 83.62 54.5 83.59 54.62 83.55 54.74 83.54 54.88 83.56 55 83.59 55.12 83.62 55.26 83.64 55.38 83.64 55.51 83.64 55.63 83.7 55.76 83.78 55.85 83.88 55.95 84 56.02 84.13 56.07 84.28 56.11 84.41 56.14 84.53 56.22 84.62 56.31 84.69 56.44 84.74 56.55 84.8 56.67 84.85 56.79 84.89 56.91 84.92 57.03 84.95 57.15 84.98 57.29 85.03 57.4 85.09 57.52 85.14 57.64 85.25 57.74 85.36 57.87 85.48 57.95 85.59 58.03 85.69 58.12 85.76 58.23 85.83 58.35 85.9 58.49 85.96 58.61 86.02 58.72 86.08 58.84 86.14 58.95 86.2 59.08 86.26 59.2 86.32 59.31 86.38 59.43 86.44 59.54 86.52 59.65 86.58 59.77 86.65 59.88 86.74 59.98 86.85 60.06 86.96 60.16 87.07 60.24 87.17 60.32 87.3 60.4 87.41 60.48 87.52 60.56 87.63 60.65 87.73 60.73 87.84 60.8 87.97 60.89 88.08 60.96 88.2 61.05 88.31 61.12 88.43 61.19 88.54 61.28 88.65 61.36 88.76 61.45 88.85 61.55 88.95 61.63 89.05 61.73 89.15 61.84 89.22 61.94 89.31 62.05 89.39 62.14 89.49 62.25 89.58 62.34 89.68 62.43 89.78 62.53 89.86 62.63 89.95 62.74 90.03 62.84 90.14 62.96 90.23 63.07 90.33 63.16 90.44 63.24 90.57 63.3 90.72 63.31 90.86 63.35 90.97 63.42 91.08 63.51 91.17 63.6 91.24 63.72 91.29 63.85 91.3 63.97 91.26 64.09 91.25 64.22 91.25 64.34 91.25 64.48 91.25 64.6 91.25 64.73 91.29 64.86 91.32 64.98 91.39 65.1 91.45 65.21 91.52 65.32 91.62 65.43 91.73 65.5 91.87 65.54 92.02 65.56 92.15 65.59 92.31 65.6 92.44 65.62 92.56 65.71 92.7 65.74 92.83 65.78 92.98 65.82 93.11 65.85 93.26 65.88 93.41 65.86 93.55 65.88 93.7 65.91 93.84 65.94 93.98 65.99 94.1 66.05 94.2 66.14 94.26 66.27 94.27 66.39 94.23 66.52 94.17 66.63 94.09 66.73 93.96 66.8 93.84 66.89 93.73 66.96 93.61 67.03 93.48 67.14 93.25 67.45 93.26 67.57 93.27 67.7 93.28 67.82 93.31 67.96 93.32 68.08 93.34 68.2 93.42 68.32 93.5 68.42 93.59 68.52 93.69 68.63 93.78 68.71 93.89 68.8 93.99 68.89 94.1 68.98 94.21 69.06 94.29 69.16 94.38 69.27 94.46 69.38 94.55 69.48 94.62 69.59 94.67 69.71 94.71 69.83 94.78 69.94 94.83 70.06 94.89 70.19 94.95 70.29 94.99 70.43 95.06 70.54 95.16 70.67 95.25 70.77 95.36 70.85 95.46 70.94 95.56 71.04 95.63 71.16 95.66 71.28 95.66 71.4 95.68 71.53 95.72 71.66 95.77 71.78 95.79 71.9 95.81 72.03 95.85 72.16 95.9 72.28 95.97 72.39 96.09 72.46 96.23 72.5 96.35 72.57 96.45 72.65 96.57 72.73 96.68 72.83 96.74 72.93 96.78 73.06 96.76 73.19 96.79 73.31 96.81 73.44 96.82 73.57 96.82 73.7 96.82 73.82 96.82 73.96 96.8 74.08 96.78 74.2 96.78 74.33 96.75 74.45 96.74 74.58 96.74 74.71 96.7 74.83 96.79 74.95 96.74 75.08 96.76 75.2 96.82 75.32 96.88 75.43 96.91 75.56 96.93 75.68 96.96 75.81 96.99 75.94 97.03 76.06 97.07 76.18 97.08 76.3 97.13 76.44 97.18 76.55 97.21 76.68 97.24 76.8 97.29 76.92 97.35 77.03 97.36 77.17 97.35 77.29 97.36 77.42 97.36 77.55 97.36 77.68 97.36 77.8 97.35 77.94 97.33 78.06 97.32 78.19 97.3 78.31 97.26 78.43 97.22 78.57 97.2 78.69 97.19 78.82 97.15 78.93 97.08 79.05 97.01 79.16 96.91 79.26 96.8 79.35 96.68 79.41 96.56 79.48 96.45 79.56 96.33 79.64 96.2 79.71 96.11 79.8 96 79.88 95.88 79.95 95.83 80.09 95.69 80.14 95.57 80.2 95.48 80.3 95.45 80.42 95.35 80.51 95.25 80.61 95.17 80.72 95.1 80.83 95.01 80.93 94.93 81.03 94.83 81.14 94.74 81.23 94.66 81.34 94.56 81.44 94.44 81.5 94.31 81.56 94.2 81.63 94.09 81.72 93.98 81.8 93.87 81.89 93.76 81.96 93.65 82.05 93.53 82.13 93.41 82.2 93.27 82.25 93.13 82.24 92.98 82.25 92.83 82.28 92.7 82.29 92.55 82.28 92.41 82.25 92.26 82.23 92.11 82.2 91.97 82.2 91.83 82.2 91.69 82.2 91.54 82.2 91.4 82.22 91.25 82.25 91.12 82.29 90.98 82.35 90.86 82.42 90.77 82.52 90.68 82.62 90.59 82.73 90.52 82.84 90.46 82.95 90.41 83.07 90.38 83.2 90.38 83.33 90.39 83.46 90.36 83.58 90.31 83.7 90.3 83.98 90 84.01 89.45 84.14 89.1 84.14 88.61 84.06 88.16 83.84 87.81 83.79 87.47 83.75 86.57 83.67 85.87 83.67 85.28 83.53 84.88 83.45 84.43 83.28 84.08 83.14 83.64 83.01 83.14 82.79 82.78 82.57 82.44 82.4 82.19 82.27 81.89 82.22 81.64 82.27 81.3 82.57 81.1 82.92 80.9 83.06 80.45 83.36 80.06 83.63 79.7 83.8 79.51 83.93 79.21 84.1 78.91 84.32 78.62 84.63 78.46 84.81 78.27 85.11 78.12 85.25 77.77 85.64 77.53 85.69 77.17 85.6 76.72 85.52 76.18 85.42 75.84 85.33 75.53 85.25 75.24 85.25 74.84 85.38 74.5 85.47 74.19 85.6 73.9 85.82 73.6 86.04 73.26 86.31 72.86 86.56 72.45 86.88 72.21 87.1 72.02 87.27 71.81 87.49 71.81 87.73 71.37 87.75 70.97 87.72 70.65 87.51 70.05 87.19 69.77 87.22 69.56 87.24 69.36 87.3 69.19 87.41 69.01 87.5 68.85 87.62 68.67 87.7 68.52 87.83 68.37 87.95 68.21 88.06 68.11 87.97 67.92 88.06 67.72 88.12 67.51 88.16 67.31 88.2 67.1 88.18 66.91 88.13 66.71 88.06 66.53 87.97 66.35 87.88 66.16 87.79 65.97 87.72 65.77 87.64 65.59 87.57 65.43 87.45 65.31 87.3 65.15 87.25 64.96 87.17 64.76 87.11 64.56 87.07 64.35 87.05 64.14 87.03 63.94 87.05 63.73 87.06 63.52 87.07 63.32 87.11 63.12 87.17 62.91 87.21 62.71 87.22 62.51 87.29 62.33 87.39 62.2 87.52 62.04 87.66 61.91 87.79 61.8 87.95 61.7 88.11 61.58 88.25 61.42 88.39 61.25 88.47 61.04 88.42 60.93 88.33 60.79 88.2 60.69 88.03 60.64 87.86 60.54 87.69 60.42 87.53 60.23 87.47 60.03 87.5 59.85 87.59 59.67 87.69 59.48 87.78 59.3 87.72 59.24 87.53 59.16 87.36 59 87.28 58.78 87.3 58.68 87.46 58.7 87.64 58.74 87.83 58.72 88.01 58.69 88.18 58.47 88.17 58.29 88.09 58.1 88.01 57.93 87.91 57.77 87.79 57.59 87.7 57.39 87.62 57.21 87.55 57.01 87.46 56.83 87.39 56.64 87.31 56.44 87.24 56.43 87.03 56.38 86.86 56.39 86.68 56.42 86.5 56.44 86.32 56.49 86.14 56.55 85.97 56.61 85.78 56.69 85.61 56.76 85.44 56.84 85.27 56.98 85.13 57.05 84.95 57.11 84.78 57.16 84.6 57.11 84.46 57.04 84.29 56.94 84.13 56.83 83.97 56.7 83.84 56.56 83.69 56.41 83.57 56.25 83.46 56.06 83.37 55.88 83.28 55.69 83.23 55.48 83.19 55.27 83.15 55.07 83.13 54.86 83.12 54.65 83.06 54.45 83.06 54.25 83 54.06 82.94 53.88 82.85 53.73 82.73 53.57 82.59 53.46 82.45 53.38 82.28 53.24 82.13 53.1 82 52.91 81.92 52.72 81.86 52.51 81.84 52.31 81.89 52.11 81.9 51.93 82 51.76 82.11 51.59 82.22 51.47 82.36 51.37 82.52 51.27 82.68 51.17 82.9 51.06 83.06 50.99 83.24 50.89 83.4 50.78 83.54 50.7 83.71 50.6 83.87 50.52 84.04 50.41 84.2 50.31 84.36 50.23 84.53 50.15 84.7 50.04 84.86 49.95 85.02 49.86 85.19 49.8 85.37 49.8 85.55 49.81 85.73 49.81 85.92 49.81 86.1 49.79 86.28 49.71 86.45 49.64 86.62 49.53 86.78 49.4 86.93 49.25 87.05 49.12 87.19 49 87.34 48.91 87.51 48.78 87.66 48.67 87.81 48.59 87.98 48.55 88.16 48.47 88.34 48.4 88.51 48.35 88.68 48.29 88.86 48.17 89.01 48.01 89.12 47.83 89.18 47.21 89.02 46.98 88.91 46.83 88.78 46.71 88.63 46.59 88.48 46.53 88.3 46.45 88.13 46.34 87.98 46.17 87.88 46 87.77 45.83 87.67 45.67 87.55 45.52 87.44 45.4 87.28 45.27 87.13 45.16 86.97 45.09 86.8 45.12 86.62 45.16 86.44 45.21 86.27 45.26 86.09 45.27 85.9 45.26 85.72 45.23 85.54 45.16 85.37 45.08 85.2 44.98 85.04 44.86 84.88 44.71 84.75 44.62 84.59 44.6 84.41 44.62 84.22 44.64 84.04 44.66 83.86 44.7 83.68 44.66 83.51 44.59 83.33 44.51 83.15 44.41 83 44.31 82.84 44.2 82.68 44.08 82.53 43.94 82.4 43.77 82.29 43.58 82.2 43.39 82.12 43.2 82.03 43.02 81.96 42.84 81.86 42.66 81.77 42.49 81.67 42.37 81.52 42.18 81.43 42.02 81.31 41.87 81.18 41.7 81.09 41.5 81.01 41.3 80.98 41.09 80.96 40.89 80.95 40.64 80.98 40.42 80.95 40.22 80.9 40.03 80.84 39.82 80.83 39.62 80.78 39.41 80.73 39.21 80.7 39.01 80.66 38.8 80.61 38.61 80.56 38.4 80.5 38.22 80.43 38.02 80.34 37.84 80.26 37.69 80.14 37.63 79.95 37.63 79.77 37.73 79.61 37.85 79.47 37.97 79.31 38.08 79.16 38.16 78.99 38.22 78.81 38.24 78.63 38.16 78.51 38 78.4 37.81 78.31 37.62 78.24 37.41 78.22 37.21 78.17 37.01 78.11 36.83 78.01 36.66 77.91 36.45 77.75 36.33 77.59 36.22 77.45 36.09 77.3 35.93 77.18 35.75 77.09 35.56 77.01 35.38 76.94 35.17 76.86 34.98 76.8 34.79 76.74 34.58 76.72 34.3 76.67 34.09 76.69 33.88 76.72 33.68 76.71 33.47 76.68 33.27 76.67 33.06 76.71 32.86 76.78 32.72 76.9 32.56 77.02 32.4 77.14 32.22 77.19 32.02 77.12 31.84 77.02 31.67 76.92 31.48 76.85 31.28 76.78 31.07 76.72 30.88 76.69 30.67 76.72 30.47 76.78 30.26 76.79 30.05 76.79 29.85 76.8 29.64 76.84 29.43 76.85 29.21 76.84 29.01 76.84 28.8 76.81 28.62 76.73 28.46 76.61 28.32 76.46 28.17 76.35 28.01 76.23 27.84 76.12 27.63 76.08 27.43 76.06 27.22 76.04 27.01 76.03 26.8 76.05 26.6 76.07 26.39 76.08 26.18 76.08 25.98 76.05 25.78 75.95 25.67 75.78 25.53 75.7 25.43 75.56 25.27 75.44 25.13 75.31 24.97 75.27 24.63 75.22 24.23 75.27 23.68 75.32 23.32 75.28 22.87 75.16 22.53 75.03 22.08 74.86 21.78 74.77 21.57 74.64 21.27 74.53 21.15 74.48 21.01 74.42 20.9 74.36 20.79 74.28 20.68 74.21 20.59 74.13 20.46 74.05 20.36 73.99 20.23 73.92 20.13 73.86 20.02 73.79 19.91 73.71 19.8 73.63 19.7 73.56 19.6 73.47 19.5 73.38 19.39 73.3 19.29 73.23 19.19 73.15 19.08 73.07 18.98 72.98 18.9 72.89 18.82 72.78 18.76 72.67 18.71 72.56 18.68 72.45 18.65 72.33 18.62 72.18 18.53 72.08 18.45 71.98 18.36 71.89 18.27 71.79 18.19 71.69 18.11 71.6 18.02 71.51 17.93 71.41 17.85 71.32 17.76 71.22 17.68 71.12 17.59 71.02 17.51 70.94 17.42 70.84 17.34 70.74 17.25 70.65 17.17 70.55 17.08 70.45 17 70.36 16.91 70.27 16.84 70.16 16.77 70.06 16.68 69.97 16.56 69.91 16.45 69.83 16.34 69.76 16.24 69.67 16.17 69.58 16.1 69.47 16.02 69.36 15.96 69.25 15.9 69.14 15.84 69.04 15.74 68.94 15.63 68.88 15.51 68.81 15.39 68.76 15.26 68.71 15.14 68.68 14.99 68.66 14.86 68.68 14.72 68.68 14.58 68.66 14.46 68.63 14.33 68.57 14.21 68.51 14.1 68.43 13.99 68.35 13.89 68.26 13.81 68.17 13.74 68.07 13.68 67.96 13.62 67.85 13.55 67.74 13.48 67.64 13.38 67.54 13.29 67.46 13.2 67.36 13.12 67.27 13.02 67.19 12.89 67.19 12.76 67.13 12.63 67.09 12.39 67.06 12.27 67.01 12.13 66.97 12 66.92 11.88 66.88 11.74 66.84 11.61 66.8 11.49 66.77 11.35 66.74 11.22 66.7 11.09 66.66 10.96 66.59 10.84 66.56 10.7 66.53 10.56 66.51 10.43 66.49 10.29 66.45 10.16 66.45 10.03 66.45 9.88 66.45 9.75 66.44 9.61 66.41 9.48 66.4 9.33 66.39 9.2 66.38 9.06 66.36 8.93 66.34 8.8 66.3 8.66 66.27 8.53 66.25 8.38 66.23 8.25 66.22 8.12 66.21 7.98 66.24 7.85 66.28 7.73 66.33 7.61 66.39 7.48 66.45 7.39 66.55 7.29 66.62 7.18 66.69 7.06 66.77 6.92 66.81 6.85 66.72 6.56 66.5 6.16 66.23 5.76 66.06 5.56 65.97 5.05 65.79 4.6 65.66 4.15 65.53 3.6 65.27 3.31 65 3.1 64.88 2.86 64.61 2.65 64.21 2.36 63.69 2.2 63.43 2.06 63.08 2.01 62.68 2.11 62.42 2.31 62.24 2.65 62.12 2.91 61.98 3.31 61.9 3.71 61.72 4.41 61.55 5.06 61.36 5.66 61.19 6.21 60.97 7.11 60.76 7.81 60.49 8.36 60.15 8.81 59 8.76 58.43 8.41 58.08 8.05 57.99 7.51 57.91 6.91 57.74 6.3 57.6 6.11 57.47 6.06 57.2 6.16 56.95 6.3 56.81 6.61 56.68 6.96 56.64 7.36 56.64 7.86 56.55 8.31 56.51 8.66 56.38 9.05 56.2 9.36 55.99 9.71 55.85 10.26 55.77 10.71 55.67 10.85 55.45 10.96 55.11 11.06 54.89 11.3 54.67 11.51 54.4 11.66 53.92 11.71 53.61 11.71 53.26 12.17 52.87 12.62 53.04 12.81 53.14 13.12 53.17 13.26 53.17 13.41 53.09 13.57 52.96 13.76 52.79 13.96 52.57 14.42 52.17 14.81 51.78 15.21 51.47 15.61 51.25 16.27 51.2 16.67 51.25 17.22 51.25 17.81 51.3 18.21 51.3 18.36 51.25 19.16 51.2 20.11 51.03 21.01 50.81 21.67 50.6 22.42 50.38 23.12 50.24 23.57 50.16 23.97 49.99 24.18 49.82 24.47 49.5 24.82 49.25 25.17 49.11 25.82 49.08 26.48 49.06 27.02 49.2 27.57 49.29 27.88 49.08 28.47 48.72 29.03 48.64 29.23 48.5 29.27 48.06 29.27 47.54 29.32 47.1 29.38 46.75 29.43 46.18 29.43 45.61 29.24 45.22 29.08 44.87 28.84 43.99 28.84 43.81 28.89 43.72 29.12 43.41 29.44 43.26 29.71 43.15 30 42.95 30.15 42.83 30.77 42.64 31.41 42.6 31.83 42.52 32.9 42.15 33.05 42.07 33.25 41.97 34.08 41.4 34.8 40.81 35.78 40.03 36.34 39.5 36.39 39.44 36.78 38.71 37.12 38.08 37.21 37.83 37.33 37.64 37.33 37.55 37.32 37.43 37.27 37.35 37.26 37.3 37.01 37.12 36.66 37.12 36.35 37.21 36 37.25 35.65 37.25 35.45 37.16 35.26 36.68 35.26 36.29 35.26 36.11 35.21 35.53 35.11 34.97 34.66 34.4 34.26 34.1 33.86 33.74 33.82 33.66 33.8 33.65 33.53 33.27 33.55 33.14 33.82 32.61 34.04 32.44 34.85 32.28 35.59 32.12 36.17 31.86 36.34 31.7 36.73 31.57 37.16 31.62 37.5 31.8 38 32.19 38.29 32.48 38.56 32.55 39.03 32.4 39.36 32.24 39.36 32.24 39.36 32.1 39.36 31.97 39.31 31.66 39.31 31.36 39.46 31.04 39.66 30.7 39.62 30.44 39.36 29.96 38.96 29.61 38.52 29.34 38.12 29.07 37.72 28.85 37.46 28.51 37.41 28.33 37.46 28.16 37.51 28.03 37.67 27.86 37.81 27.59 37.81 27.29 37.72 27.02 37.57 26.66 37.41 26.36 37.22 25.97 37.27 25.57 37.32 25.43 37.43 25.31 37.81 25.13 37.88 25.01 37.92 24.69 37.97 24.44 37.97 24.13 38.02 23.82 38.02 23.56 38.02 23.38 38.07 23.26 38.42 23.29 38.63 23.6 38.73 23.82 38.83 23.91 39.18 23.95 39.27 23.87 39.32 23.73 39.42 23.56 39.53 23.34 39.63 23.17 39.77 23.07 39.98 22.99 40.17 22.86 40.33 22.82 40.58 22.77 40.98 22.77 41.19 22.77 41.38 22.73 41.63 22.73 41.83 22.73 42.13 22.77 42.49 22.82 42.89 22.82 43.28 22.77 43.79 22.78 44.19 22.73 44.58 22.73 46.49 22.34 46.69 22.26 46.89 22.13 47.09 21.99 47.54 21.6 48.1 21.16 48.64 20.86 48.9 20.78 49.25 20.68 49.65 20.78 49.95 20.81 50.3 21 50.85 21.16 51.2 21.13 51.45 20.91 51.6 20.73 51.81 20.47 52 20.2 52.16 19.98 52.31 19.77 52.51 19.41 52.61 19.02 52.71 18.59 52.76 18.11 52.66 17.89 52.61 17.76 52.51 17.62 52.37 17.44 52.21 17.22 52.11 17.1 51.97 16.92 51.76 16.61 51.87 16.26 52.11 16.26 52.32 16.18 52.51 16.18 52.72 16.14 52.82 16.04 52.96 15.96 53.12 15.92 53.27 15.74 53.36 15.65 53.67 15.57 53.97 15.57 54.22 15.65 54.52 15.84 54.73 15.84 54.87 15.84 55.23 15.74 55.58 15.53 55.77 15.4 56.03 15.18 56.22 14.96 56.43 14.78 56.83 14.39 57.08 14.22 57.63 13.82 57.94 13.51 58.18 13.29 58.34 13.07 58.58 12.82 58.79 12.55 59.19 12.2 59.45 12.08 59.59 11.94 59.9 11.77 60.14 11.51 60.2 11.25 60.25 11.07 60.45 10.82"/></g></svg>