<svg xmlns="http://www.w3.org/2000/svg" viewBox="0 0 100 100"><g id="Baara"><polygon points="17.16 64.7 16.92 64.55 16.49 64.25 16.55 63.89 16.75 63.47 16.96 63.27 17.07 63.08 17.31 62.74 17.57 62.68 18.41 62.49 18.62 62.15 19.66 61.3 19.94 61.55 20.58 61.51 20.71 61.62 21.02 61.68 21.3 61.87 21.62 61.77 22.33 61.55 22.68 60.98 23.11 60.79 22.72 60.3 22.98 59.73 23.02 58.98 22.85 58.67 22.93 58.11 22.93 57.65 22.63 57.27 21.73 57.73 21.34 57.65 20.65 57.8 20.26 57.54 19.61 57.05 19.36 57.09 18.67 56.75 18.79 56.18 19.31 55.84 19.1 55.76 18.75 55.61 18.23 55.84 18.41 56.18 17.93 56.33 16.55 55.95 15.13 55.84 14.4 55.61 13.92 55.61 13.84 55.35 13.84 55.2 12.11 54.44 10.99 53.91 10.21 53.38 9.09 53.53 8.58 53.34 7.97 53.34 7.5 52.66 7.02 52.89 6.64 52.17 5.3 51.83 5.77 51.12 6.25 50.51 6.55 50.13 6.94 50.21 7.89 50.36 8.1 49.94 8.45 50.25 9.14 50.13 9.57 50.25 10.17 49.83 10.99 49.91 11.68 50.1 12.11 50.32 12.8 50.44 13.15 51.15 13.88 51.46 14.57 51.61 15.04 51.42 15.52 51.61 15.95 52.14 16.42 52.36 17.11 52.82 17.54 52.85 17.59 53.16 18.19 53.27 18.84 53.16 19.79 53.57 20.3 53.31 20.86 52.66 22.03 51.76 22.68 51.04 23.24 50.89 23.75 51 24.18 50.7 25.13 50.47 25.35 50.13 25.52 49.42 25.48 48.59 25.95 48.13 26.86 48.02 27.42 47.85 27.4 47.55 27.16 47.21 27.16 46.75 27.22 46.11 27.5 45.43 26.99 44.98 26.06 44.58 26.04 44.22 26.08 43.68 25.82 43.05 25.8 42.64 25.69 42.36 25.69 42.19 25.69 41.81 25.67 41.13 25.24 41.13 24.79 41.09 24.34 41.47 23.62 41.51 22.89 41.34 22.05 41.37 21.77 41.09 21.55 40.98 21.42 40.92 21.12 41.02 21.08 40.49 21.25 39.98 21.21 39.28 20.89 39.07 20.93 38.73 20.97 38.37 20.71 38.17 20.63 37.98 20.78 37.9 21.19 38 21.3 37.81 21.3 37.62 21.53 37.62 21.71 37.39 22.03 37.17 22.33 37.03 22.7 36.77 23 36.47 23.37 36.35 23.67 36.3 23.88 35.98 24.12 35.79 23.97 35.39 24.29 35.09 24.74 35.11 25.09 34.88 25.41 34.52 25.54 34.32 25.84 34.26 25.91 34.02 26.32 33.71 26.56 33.52 26.97 33.3 27.05 33.13 27.27 33.03 27.94 32.81 27.94 32.2 27.55 31.6 27.29 30.7 27.72 30.39 28.37 29.53 28.63 28.89 28.54 28.47 28.67 27.94 29.14 27.26 30.05 27.11 30.31 26.43 30.74 25.61 31.69 25.27 32.38 25.68 32.68 26.32 33.33 26.92 33.76 27.3 34.58 27.45 35.31 26.96 36.08 26.36 36.86 26.13 37.72 25.83 37.94 26.1 38.17 26.65 38.73 26.99 39.27 27.11 39.83 27.43 40.43 27.79 41.01 27.93 41.5 27.9 42.22 27.78 42.69 27.77 43.07 27.99 43.42 28.39 43.74 28.87 44.09 29.52 44.29 29.85 44.34 29.98 44.85 30.96 45.27 31.56 45.68 32.07 46.23 32.29 46.83 32.25 47.41 31.95 47.92 31.49 48.46 31.26 48.92 31.19 49.84 31.23 50.49 31.18 51.16 30.85 51.87 30.41 52.4 30.06 52.83 29.96 53.38 30.13 53.7 29.98 54.07 29.96 54.36 30.05 54.84 30.09 55.15 30.06 55.57 29.94 55.91 30.13 55.9 30.26 55.74 30.52 55.53 30.91 55.66 31.25 56.24 31.08 56.89 31.05 57.35 31.04 57.89 31.34 58.37 31.65 58.99 31.77 59.55 31.61 60.03 31.35 60.26 30.92 60.19 30.6 60.04 30.39 59.92 30.13 60.16 29.85 60.56 30.01 60.87 30.28 61.7 30.41 62.42 30.4 63.2 30.17 63.75 29.76 64.58 29.92 65.64 30.03 66.45 30.13 66.82 30.41 68.15 30.28 69.12 30.09 69.71 30.5 70.06 30.95 70.88 31.02 71.52 31.56 72.04 32.11 72.81 33.05 73.3 33.45 74.01 33.41 74.91 33.41 75.62 33.29 76.81 33.84 77.53 34.03 77.91 34.45 78.34 34.72 79.21 34.73 79.91 34.53 80.54 34.57 81.11 34.92 82.18 35.48 82.95 35.79 83.45 35.92 84.2 36.08 84.59 36.14 85.07 35.87 85.43 35.67 86.04 35.61 86.44 36.52 86.93 36.94 87.62 37.64 88.06 37.9 88.54 38.75 88.8 39.41 88.98 40.15 89.41 41 89.88 41.36 90.37 41.41 91.17 41.33 92.59 41.09 93.21 41.17 93.6 41.48 93.61 41.53 93.62 41.74 93.61 42.83 93.88 43.81 94.03 44.72 94.45 45.37 94.61 45.98 94.7 46.68 94.63 47.11 94.46 47.27 93.74 47.55 93.62 48.17 93.64 48.82 93.54 49.29 93.16 49.77 92.38 50.01 91.81 49.9 91.26 49.84 90.94 50.24 91.01 50.81 91.11 51.25 91.12 51.89 91.18 52.36 90.99 52.83 90.73 53.15 90.2 54.2 90.17 54.97 90.03 55.4 89.84 55.4 89.64 55.28 89.43 55.14 89.15 54.99 88.82 54.92 88.45 54.92 88.09 54.95 87.76 54.99 87.43 55.13 87.11 55.24 86.7 55.46 86.45 55.6 86.04 56 85.68 56.25 85.27 56.39 84.98 56.46 84.61 56.53 84.37 56.61 84.04 56.68 83.76 56.79 83.59 56.79 83.43 56.79 83.27 56.75 82.98 56.61 82.61 56.39 82.41 56.25 82.12 56.07 81.96 55.89 81.76 55.74 81.55 55.67 81.31 55.7 80.9 55.85 80.65 55.99 80.37 56.14 80.17 56.14 79.84 56.1 79.55 56.1 79.27 56.21 79.06 56.28 78.82 56.42 78.65 56.53 78.57 56.6 78.45 56.71 77.96 56.6 77.47 56.5 77.23 56.46 76.94 56.46 76.74 56.46 76.61 56.46 76.21 56.53 75.8 56.39 75.71 56.32 75.39 56.24 75.27 56.17 75.02 56.06 74.74 55.99 74.57 55.92 74.24 55.88 73.76 55.96 73.47 56.14 73.27 56.21 72.78 56.21 72.37 56.28 72.12 56.35 71.67 56.53 71.18 56.93 71.06 57.07 70.78 57.43 70.61 57.79 70.41 58.22 70.33 58.65 70.29 59.16 70.33 59.52 70.49 59.95 70.57 60.24 70.78 60.56 70.94 60.85 71.19 61.14 71.51 61.39 71.76 61.57 72.13 61.67 72.45 61.85 72.78 62.07 73.06 62.14 73.59 62.43 73.72 62.54 74 62.83 74.13 63.15 74.21 63.37 74.17 63.69 74.08 63.9 73.92 64.23 73.76 64.48 73.64 64.62 73.47 64.98 73.35 65.24 73.19 65.56 73.07 65.85 72.94 66.1 72.66 66.49 72.45 66.57 72.21 66.46 71.88 66.17 71.68 65.81 71.6 65.49 71.47 65.2 71.27 65.06 70.9 65.06 70.66 65.02 70.22 65.05 70.19 65.04 69.51 64.87 69.05 64.62 68.16 64.22 67.47 63.79 67.04 63.58 66.43 63.48 66.01 63.52 65.31 63.83 65.29 64.11 65.29 64.14 65.34 64.39 65.36 64.62 65.35 64.63 65.31 64.84 65.31 64.95 65.27 65.16 65.23 65.42 65.23 65.56 65.23 65.74 65.19 65.89 65.19 66.17 65.15 66.39 65.15 66.68 65.15 67 65.15 67.22 65.19 67.4 65.19 67.61 65.19 67.72 65.19 68.01 65.07 68.29 64.87 68.4 64.75 68.44 64.66 68.62 64.54 68.8 64.47 68.93 64.04 69.21 63.5 69.53 63.46 69.56 63.4 69.55 63.12 69.55 62.87 69.55 62.59 69.59 62.26 69.63 61.85 69.73 61.57 69.77 61.2 69.7 60.95 69.63 60.75 69.59 60.55 69.66 60.63 69.95 60.91 70.24 61.28 70.49 61.57 70.71 61.81 70.92 61.93 71.07 62.14 71.35 62.43 71.71 62.59 71.89 62.83 72.22 63.08 72.43 63.4 72.72 63.61 72.9 63.89 73.15 64.14 73.29 64.34 73.47 64.55 73.62 64.79 73.8 65.08 74.19 65 74.41 64.79 74.59 64.42 74.73 64.18 74.73 63.73 74.63 63.32 74.48 62.96 74.34 62.51 74.27 62.26 74.23 61.98 74.23 61.65 74.23 61.41 74.3 61.16 74.48 61.07 74.65 59.85 74.41 59.08 74.35 58.45 74.38 57.87 74.49 57.47 74.46 56.39 74.47 56.26 74.44 55.87 74.4 55.32 74.44 54.71 74.32 54.51 74.15 54.44 74.1 53.77 73.77 52.95 73.39 52.08 72.89 51.45 72.52 50.73 72.19 50.23 72.08 49.36 71.98 48.17 71.94 47.46 71.76 46.03 71.63 45.18 71.29 44.5 71.08 43.68 70.74 43.15 70.45 42.68 70.03 42.55 69.84 42.52 69.79 42.21 69.72 41.59 69.77 40.74 69.72 40.02 69.87 39.19 70.28 38.67 70.56 38.23 70.65 37.68 70.58 37.12 70.39 36.2 70.49 35.64 70.74 34.85 71 34.24 71.41 33.54 71.7 32.71 71.82 31.94 71.82 30.97 71.72 30.11 71.75 29.3 71.69 28.75 71.34 28.15 70.85 27.5 70.42 26.56 70.58 25.85 70.86 25 70.68 24.53 70.22 24.19 69.92 23.42 69.93 22.6 70.04 21.46 69.5 20.87 69.13 20.23 68.87 19.64 68.87 19.04 68.63 18.72 68.27 18.43 67.75 18.14 67.24 17.89 66.81 17.46 66.44 17.33 66.12 17.3 65.78 17.31 65.39 17.32 65.22 17.28 64.91 17.16 64.7"/></g></svg>