<svg viewBox="0 0 100 100" xmlns="http://www.w3.org/2000/svg"><path d="m44.49 31.85c.45.21.69 0 1.11 0 .14.14.25.44.43.52.35-.12.72-.41 1.09-.2a.56.56 0 0 0 .61.34 5.39 5.39 0 0 0 1.47-1.13 1.51 1.51 0 0 1 .65-.37l.39-.58c.75-.41 1.62.14 2.32.37.23.32-.06.72 0 1.06l.19.18a5.6 5.6 0 0 0 .7-.2c.11-.12.33-.27.5-.21a5.08 5.08 0 0 1 .58.72c.28.14.67.27.88 0a1.25 1.25 0 0 1 .39-.71 1.11 1.11 0 0 1 .47.17c.1.55-.74.93-.39 1.46.92.27 1.86-.61 2.81-.4a1.23 1.23 0 0 1 .81.24 3.08 3.08 0 0 0 .5.89l.23-.07c.12-.3.38-.64.74-.55a3.62 3.62 0 0 1 .85-.44c.79 0 1.65.49 2.43.14a1 1 0 0 1 1.2-.17c.25.33 0 1 .5 1.16.34-.14.23-.54.58-.64a1.29 1.29 0 0 1 .73.4.56.56 0 0 0 .74.28c.38-.87 1.52-.84 2.32-.65a2.27 2.27 0 0 0 1.27.76c.25 0 .59-.26.85-.23s.27.54.41.75c.46 0 .89-.35 1.32-.41a2.41 2.41 0 0 1 1.73.1c.32.32.42.88.81 1.13 1.44 1 0 2 .11 3.23.11.9 1 1.3 1.7 1.71a2 2 0 0 1 .38 1.5 1.69 1.69 0 0 0 .34 1.54 5.31 5.31 0 0 0 .61 1.06c.22.3.76.4 1.08.55a2.33 2.33 0 0 0 .5.31 3.18 3.18 0 0 0 1.39-.68 2.47 2.47 0 0 0 .85-.21 4 4 0 0 0 .74-1.6c.19-.93.38-1.33 1-1.53a1.85 1.85 0 0 1 1.62 0 4.28 4.28 0 0 1 1.5.61 6.83 6.83 0 0 1 .65 1 7 7 0 0 0 1.74.66c.12.75.34 1.78 1.26 1.81v.15a1.18 1.18 0 0 0 -.64.34c-.16.32.09.86.25 1.13.5 1.67.85 2.7-1 3.6-1.41.49-2.85 1.69-4.37 1.64a3.17 3.17 0 0 1 -2.21-1.08 2.72 2.72 0 0 0 -.61-.7c-.49-.34-1.23 0-1.78 0a3 3 0 0 0 -1.75.63 6.69 6.69 0 0 1 -.7.89c-.23.12-.68.33-.91.42-1.23.58-2.73 1.46-4 2a17.9 17.9 0 0 0 -3.69 1.48c-2.21.9-4.83 1.62-6.79 3a16.94 16.94 0 0 0 -3 2.32 20.21 20.21 0 0 0 -3.82 3.26l-1.16 1.49a2.36 2.36 0 0 1 -1.22 1.8 2.63 2.63 0 0 1 -1.88.83c-1.48.12-3.3 0-4.77.26a27.62 27.62 0 0 0 -3.09.71 31.59 31.59 0 0 1 -4-.2c-2.78-.14-6.49-.19-9.29-.11a5.4 5.4 0 0 1 -.09-2l-.9-.73-1.88.8-1.88-.9c-.26-.53-1.31-2.21-1.06-2.84l-.57-.57v-1.14l-1.64.15-.57-.52 1.38-3.63-.49-1.67a28.83 28.83 0 0 1 -3.6 0l-1.32-1.33-1.31.14-1.72-1.06-3.1-.72a2.51 2.51 0 0 1 -1.55-.3l-1.07.3-1.08-.36a2 2 0 0 1 -1.56 0l.64-.85c-1-2.24.62-3 2.46-3.75 1.28.23 2.71-.38 4-.44a7.48 7.48 0 0 1 3.63 1c.41.07 1.27.18 1.68.21a1.45 1.45 0 0 0 1.28.17 1.62 1.62 0 0 0 .26-1.11c.3-.4.21-1 .46-1.34l1.17.09a5.71 5.71 0 0 1 .94-.29c.63-.07 1.5 0 2.14 0a10.61 10.61 0 0 1 2.36.41c.33 0 .57-.5.77-.71.82.32 1.61 1.08 2.56 1-.14-1.37 2.14-1.69 3.07-2.23a19.94 19.94 0 0 0 3.1-.6 7.76 7.76 0 0 0 1.52-.05 2.27 2.27 0 0 0 .34-1.66 11.9 11.9 0 0 1 1.18-3.07 9.27 9.27 0 0 0 1.35-1.38 3.91 3.91 0 0 1 .68-1.35c.41-.55.42-1.39 1-1.82-.54-.33-.5-1.22-.54-1.8.07-.5.52-1.09.7-1.58z"/></svg>