<svg xmlns="http://www.w3.org/2000/svg" viewBox="0 0 100 100"><g id="Baara"><path d="M21.62,8.64a.76.76,0,0,1,.21-.18l.43-.28a6.73,6.73,0,0,1,.89-.53c.12-.06.26-.15.39-.08s.28.17.43.24a2.73,2.73,0,0,0,1,.13,5.23,5.23,0,0,0,1.12,0,2.11,2.11,0,0,0,.82-.5c.08-.07.2-.17.31-.08s.11.21.17.31.44.33.63.52a1.78,1.78,0,0,0,.74.56,2.7,2.7,0,0,0,1.06,0l.58-.05a2,2,0,0,1,.54,0,1.83,1.83,0,0,0,.52.09,4.94,4.94,0,0,0,.53-.1,2.86,2.86,0,0,1,1.09-.06,2.51,2.51,0,0,1,.89.42c.31.19.63.37.93.59a1.54,1.54,0,0,1,.63.73c.13.32.07.71.24,1s.54.42.81.57a3.43,3.43,0,0,1,.43.32.73.73,0,0,1,.26.32,1.1,1.1,0,0,1,.05.4c0,.13,0,.27.07.36a1.3,1.3,0,0,0,.9.31c.31,0,.72-.07,1,.16s.19.25.31.35a.9.9,0,0,0,.42.19c.24.05.57.08.56.4s-.3.58-.42.85a.8.8,0,0,0-.07.48,1.88,1.88,0,0,1,0,.58,3,3,0,0,0-.1.52c0,.12,0,.3.06.39a.65.65,0,0,0,.44.09,2.35,2.35,0,0,1,.53,0,2.21,2.21,0,0,1,.9.46,1.66,1.66,0,0,1,.32.33,2,2,0,0,0,.31.39,1.46,1.46,0,0,0,.9.33,8.67,8.67,0,0,1,1.14,0,5.5,5.5,0,0,1,1.05.31,3.71,3.71,0,0,0,1,.26,4.4,4.4,0,0,1,1.08.28,11.86,11.86,0,0,1,2,1c.29.18.58.37.89.53a7.53,7.53,0,0,0,1,.39,16.31,16.31,0,0,1,2,1,1.25,1.25,0,0,0,.45.18.53.53,0,0,0,.42-.17,1.94,1.94,0,0,1,.31-.26,1.91,1.91,0,0,1,.52-.19c.34-.07.71,0,1.05-.1a2.12,2.12,0,0,0,.94-.39,1.5,1.5,0,0,1,.39-.22,3,3,0,0,1,.59-.13,1,1,0,0,1,.45.06.83.83,0,0,0,.54,0,7,7,0,0,1,.89-.38c.34-.08.7-.09,1.05-.17s.6-.17.78.05a1.87,1.87,0,0,1,.22.39,2.08,2.08,0,0,1,.19.49c0,.13.07.27.21.32a.73.73,0,0,0,.46,0,8.5,8.5,0,0,0,1-.42,9.1,9.1,0,0,1,1-.29,4.29,4.29,0,0,0,1-.43c.09-.05.29-.12.31-.23s-.11-.26-.19-.34-.37-.38-.23-.67a3,3,0,0,1,.62-.75c.27-.26.5-.56.75-.84a18,18,0,0,1,1.59-1.56c.27-.22.5-.49.77-.73a1.29,1.29,0,0,1,.36-.25c.15-.05.31,0,.42-.17s.1-.55.3-.76a1.25,1.25,0,0,1,.37-.22,1.36,1.36,0,0,0,.43-.29c.22-.24.34-.56.57-.78a.31.31,0,0,1,.32-.1,5.29,5.29,0,0,1,.54.13,1.71,1.71,0,0,1,.77.39c.19.16.39.44.67.42a1.36,1.36,0,0,0,.48-.16l.49-.24c.32-.15.64-.31,1-.48l.48-.22a2.35,2.35,0,0,1,.43-.19,1.84,1.84,0,0,1,1.66.9,3.6,3.6,0,0,0,.56.82c.13.1.28.16.41.26a.49.49,0,0,1,.2.35c.07.31.35.51.52.77s.14.27.24.38a.87.87,0,0,0,.42.23,3,3,0,0,0,1.11.09l.56-.05a2.45,2.45,0,0,1,.54,0,.47.47,0,0,1,.36.25.59.59,0,0,1,0,.47c0,.13-.11.31-.06.43a.48.48,0,0,0,.34.21l.24,0a.68.68,0,0,1,.2,0c.13,0,.07.26.06.37a1.42,1.42,0,0,1-.13.53,3,3,0,0,0-.2.49,1.87,1.87,0,0,1-.52.85,2.82,2.82,0,0,1-.39.29,3,3,0,0,0-.38.23.31.31,0,0,0-.11.38.81.81,0,0,0,.3.28.9.9,0,0,1,.27.24c.1.15,0,.29-.05.43-.12.3.1.51.32.67s.4.31.37.59a.74.74,0,0,1-.16.41c-.1.12-.25.23-.23.4a3.69,3.69,0,0,0,.17.42,1.45,1.45,0,0,1,.05.55,4.64,4.64,0,0,1-.11.51c-.05.16-.08.32-.12.48a.51.51,0,0,1-.57.42c-.27,0-.63-.24-.87,0s-.19.42-.22.63a1.93,1.93,0,0,1-.35.95,2.33,2.33,0,0,0-.47.84c-.08.36-.16.72-.23,1.09a.92.92,0,0,1-.46.66,1.2,1.2,0,0,1-.42.17,1.51,1.51,0,0,1-.56,0,3.7,3.7,0,0,1-.48-.09,2.17,2.17,0,0,0-.5-.13.92.92,0,0,0-.74.26,2,2,0,0,0-.26.39c-.1.17-.21.34-.29.51a4.17,4.17,0,0,1-.41.85,9.86,9.86,0,0,1-.79.66.64.64,0,0,0-.2.38c0,.18.14.25.28.32l.42.2a4.09,4.09,0,0,1,.46.25c.29.21.1.59.07.88a3.15,3.15,0,0,0,.21,1.09c0,.14.11.29.15.44a.81.81,0,0,1,0,.27c0,.11,0,.23,0,.35s0,.14,0,.22a1.06,1.06,0,0,0,0,.23.78.78,0,0,0,.22.37l.38.36a1.54,1.54,0,0,0,.19.17,1.14,1.14,0,0,1,.16.15c.07.11-.06.28-.11.38s-.2.32-.28.49a3.28,3.28,0,0,0-.17.5c-.07.2-.13.39-.19.59-.11.35-.25.69-.33,1.05a3.44,3.44,0,0,1-.32,1,1.23,1.23,0,0,1-.3.38.7.7,0,0,1-.43.07c-.38,0-.76,0-1.14,0a3.19,3.19,0,0,0-2.07.63l-.45.24-.47.32a10.29,10.29,0,0,0-.86.61,2.91,2.91,0,0,0-1.09,1.73,2.63,2.63,0,0,0,.07,1.08,1.43,1.43,0,0,1,0,1,6.85,6.85,0,0,1-1.52,1.52c-.28.23-.57.45-.84.7s-.52.52-.81.74a16,16,0,0,0-1.72,1.46,10.85,10.85,0,0,1-1.52,1.51c-.12.09-.17.15-.16.29a.67.67,0,0,0,.11.37,8.58,8.58,0,0,1,.52.71,1.78,1.78,0,0,1,.23,1,3.21,3.21,0,0,1-.44,1,5,5,0,0,0-.37,1,1.38,1.38,0,0,1-.14.49,2.32,2.32,0,0,0-.16.44c-.13.34-.35.64-.48,1a2.31,2.31,0,0,0,.06,1,.75.75,0,0,1-.23.71,1.49,1.49,0,0,1-.93.21c-.34,0-.71-.09-1,.13a1.57,1.57,0,0,0-.51.78,2.83,2.83,0,0,1-.14.41.9.9,0,0,1-.27.28,1.55,1.55,0,0,1-.94.23,7.75,7.75,0,0,1-1.08-.11,5.44,5.44,0,0,1-1-.35,1.91,1.91,0,0,0-.53-.16,2.53,2.53,0,0,0-.55,0,2.1,2.1,0,0,1-.56,0l-.54-.07a1,1,0,0,1-.48-.14,1.25,1.25,0,0,0-.41-.22l-.45-.09a.34.34,0,0,0-.38.15.66.66,0,0,0-.12.38.65.65,0,0,1,0,.2.74.74,0,0,1-.16.19.68.68,0,0,0-.18.38,2.78,2.78,0,0,1-.18.48c-.12.34-.29.66-.39,1a3.64,3.64,0,0,1-.14.47c-.06.19-.15.36-.21.54s-.1.3-.16.45l-.25.44a1.94,1.94,0,0,0-.17.42,3.87,3.87,0,0,0,0,.48.87.87,0,0,1-.1.39,1.62,1.62,0,0,1-.32.32,1,1,0,0,0-.25.3.85.85,0,0,0-.06.5,1.51,1.51,0,0,0,.08.48,2,2,0,0,1,.21.5.74.74,0,0,1-.1.43,1.46,1.46,0,0,0-.16.5.62.62,0,0,0,.08.44c.06.14.2.29.1.44a1,1,0,0,1-.39.25,3.13,3.13,0,0,1-.54.19c-.17,0-.34,0-.5.06a.77.77,0,0,0-.36.23,2.08,2.08,0,0,0-.32.27,1.43,1.43,0,0,0-.19.44,1.65,1.65,0,0,1-.57.85,2.48,2.48,0,0,0-.36.28c-.12.12-.21.26-.32.39a1.42,1.42,0,0,1-.31.29,2.57,2.57,0,0,1-.53.25c-.35.14-.68.32-1,.47s-.66.26-.79.58a4.45,4.45,0,0,1-.16.42c-.09.17-.19.34-.28.53a3.52,3.52,0,0,0-.18.45c-.06.18-.16.34-.23.52a1.35,1.35,0,0,0-.11.45c0,.2-.11.38-.12.58a2.63,2.63,0,0,0,.06.48,4.3,4.3,0,0,1,0,.62,3.31,3.31,0,0,0,.06.55c0,.19.06.39.09.58a1.5,1.5,0,0,0,.15.42,1,1,0,0,0,.38.31c.23.13.48.27.54.54a2.57,2.57,0,0,0,.08.4,1.07,1.07,0,0,0,.32.38,3.42,3.42,0,0,1,.54.82.76.76,0,0,0,.29.3.87.87,0,0,1,.36.35c.19.32.32.67.49,1a4.69,4.69,0,0,1,.43,1,2.11,2.11,0,0,1,0,.5,2,2,0,0,0,.13.58,1.62,1.62,0,0,1,.17.72.31.31,0,0,1-.55.16,1.13,1.13,0,0,0-.34-.27A.71.71,0,0,0,46,90.8a.31.31,0,0,0-.26.19,2.65,2.65,0,0,1-.26.39,1.73,1.73,0,0,1-.79.49c-.31.09-.63-.07-.93.1s-.33.42-.53.6a.69.69,0,0,1-.78.05L42,92.43a2.67,2.67,0,0,0-.48-.15c-.17,0-.33,0-.49-.07a.77.77,0,0,1-.4-.29,1.13,1.13,0,0,0-.37-.32c-.14-.08-.28-.17-.43-.24a2.81,2.81,0,0,0-1.08-.12,1.63,1.63,0,0,1-.53-.12,1.79,1.79,0,0,1-.45-.19,1.83,1.83,0,0,1-.33-.35c-.11-.12-.16-.26-.26-.39s-.21-.25-.3-.38a.94.94,0,0,1-.15-.49,2.9,2.9,0,0,0,0-.51c0-.17-.08-.33-.11-.5a1,1,0,0,0-.57-.61,1.44,1.44,0,0,1-.41-.21c-.11-.12-.08-.27-.14-.4a.53.53,0,0,0-.31-.22,4.42,4.42,0,0,0-.5-.1.43.43,0,0,1-.28-.23,1.83,1.83,0,0,0-.35-.33c-.13-.12-.28-.23-.41-.36a1.62,1.62,0,0,0-.32-.32c-.29-.17-.57,0-.79.22a.77.77,0,0,1-.82.13c-.31-.12-.59-.32-.91-.42a1,1,0,0,0-.95.14,2.84,2.84,0,0,0-.61.77,1.32,1.32,0,0,1-.25.38,1.11,1.11,0,0,1-.44.2,1.52,1.52,0,0,0-.45.16c-.14.08-.23.16-.41.1s-.31-.11-.48-.15S27,87,27,86.91a.31.31,0,0,1,0-.19,1.17,1.17,0,0,0,.09-.24c0-.11.15-.28,0-.33s-.62,0-.66-.31c0-.18,0-.37-.08-.56a.84.84,0,0,0-.16-.43.7.7,0,0,1-.1-.16.57.57,0,0,1,0-.26,1.93,1.93,0,0,1,.11-.53c.12-.29.32-.55.17-.87-.05-.12-.17-.19-.23-.31s0-.26-.13-.36a.53.53,0,0,0-.39-.15,1.13,1.13,0,0,1-.25,0,2.4,2.4,0,0,1-.28,0,2.24,2.24,0,0,0-.52,0,3.81,3.81,0,0,1-.59,0c-.16,0-.31-.07-.48-.08a2.72,2.72,0,0,0-.56.09c-.05,0-.09,0-.13,0s0-.18,0-.24a.43.43,0,0,1,0-.25c0-.06.11-.09.16-.15s.11-.22,0-.3a.88.88,0,0,0-.44-.14,10.48,10.48,0,0,1-1.11-.25L21,80.7a1.64,1.64,0,0,1-.48-.23.62.62,0,0,1-.23-.32.82.82,0,0,0-.33-.38,2.66,2.66,0,0,0-1-.26.42.42,0,0,1-.32-.18c-.07-.1-.17-.27-.31-.29a.3.3,0,0,0-.2.08.64.64,0,0,1-.24.1,1.13,1.13,0,0,1-.55,0,4.6,4.6,0,0,1-.5-.13L16.26,79a3.25,3.25,0,0,1-.43-.18c-.13-.07-.27-.13-.33-.28a.86.86,0,0,1,0-.45,1.4,1.4,0,0,0,0-.54,1,1,0,0,1-.06-.49,2.85,2.85,0,0,1,.13-.48,1.06,1.06,0,0,1,.28-.35,1.94,1.94,0,0,1,.37-.33,4.37,4.37,0,0,1,.43-.22,5.88,5.88,0,0,0,.51-.36c.28-.22.59-.41.85-.65a3.72,3.72,0,0,0,.65-.83l.21-.43a2.78,2.78,0,0,0,.24-.49c0-.16,0-.33,0-.49s.11-.38.14-.58,0-.33,0-.49a2,2,0,0,1,.21-.47,4,4,0,0,1,.56-.88c.11-.13.23-.25.35-.37s.18-.24.32-.28.72-.06.82-.35a.84.84,0,0,0-.06-.47,1.63,1.63,0,0,1-.1-.57,1,1,0,0,0,0-.46c-.06-.13-.22-.16-.33-.2s-.65-.35-.43-.59a.57.57,0,0,1,.37-.12,1.63,1.63,0,0,1,.58.13c.17.05.35.12.52.16a.84.84,0,0,0,.56-.1c.33-.16.68-.29,1-.42.7-.28,1.4-.54,2.12-.76a1.52,1.52,0,0,0,.82-.49,2.13,2.13,0,0,0,.23-.42,3,3,0,0,1,.29-.41c.19-.26.12-.61.37-.83a1.59,1.59,0,0,1,.78-.3,1.66,1.66,0,0,0,.49-.16.85.85,0,0,0,.4-.3c.16-.27.23-.57.53-.73a8,8,0,0,1,.85-.48,2.87,2.87,0,0,0,.89-.36,3.39,3.39,0,0,0,.66-.75c.1-.15.21-.29.3-.44a1.63,1.63,0,0,0,.14-.49.82.82,0,0,1,.2-.42c.12-.12.25-.21.38-.32s.55-.47.83-.71a3.41,3.41,0,0,0,.71-.76,1.67,1.67,0,0,0,.28-1,4.68,4.68,0,0,0-.18-1.11c0-.19-.09-.38-.13-.57a1,1,0,0,1,0-.56,2.6,2.6,0,0,1,.16-.47,3.42,3.42,0,0,1,.23-.42c.11-.14.24-.25.34-.39a2.27,2.27,0,0,0,.27-.44,8.1,8.1,0,0,0,.34-1,1.9,1.9,0,0,0,.19-1.05c-.07-.36-.24-.69-.31-1a1.64,1.64,0,0,1,0-.54,1,1,0,0,1,.16-.45,13.44,13.44,0,0,0,1.06-1.93c.07-.17.15-.34.21-.51s.08-.36.14-.55.13-.34.17-.52a1.16,1.16,0,0,1,.16-.4c.2-.26.56-.32.84-.44a2.33,2.33,0,0,0,.76-.63,1.41,1.41,0,0,0,.42-.86c0-.33-.34-.57-.57-.76a3.88,3.88,0,0,1-.73-.67,1,1,0,0,1-.22-.41c0-.17,0-.35-.07-.52a1,1,0,0,0-.16-.44c-.1-.14-.23-.27-.34-.41-.23-.3-.46-.6-.71-.89-.11-.13-.22-.26-.34-.38s-.29-.22-.42-.34a3.79,3.79,0,0,1-.65-.74,5.78,5.78,0,0,1-.39-1,2.33,2.33,0,0,0-.58-.87,2.26,2.26,0,0,0-1.94-.34,1.3,1.3,0,0,1-1-.11,1.47,1.47,0,0,1-.32-.29c-.12-.14-.25-.29-.36-.44s-.27-.64-.45-.94a3.74,3.74,0,0,0-.68-.8,1.91,1.91,0,0,0-.41-.29,4.6,4.6,0,0,0-.52-.19.88.88,0,0,1-.29-.25,1.39,1.39,0,0,0-.15-.19c-.05-.06-.12-.11-.12-.2a2,2,0,0,1,0-.23,2.09,2.09,0,0,0,0-.25,4.58,4.58,0,0,1,0-.53,1.24,1.24,0,0,1,.11-.45,3,3,0,0,0,.25-.51,1.4,1.4,0,0,0-.16-1c-.06-.14-.14-.27-.2-.4a5.52,5.52,0,0,0-.26-.55,2.46,2.46,0,0,1-.22-.34,3.23,3.23,0,0,1-.11-.54,1.62,1.62,0,0,1,0-.44.56.56,0,0,0-.07-.5,1.19,1.19,0,0,0-.31-.23c-.13-.08-.28-.11-.35-.26a1,1,0,0,1-.06-.41c0-.21,0-.42,0-.64s0-.74-.07-1.1a5.79,5.79,0,0,0-.27-1.07c-.05-.17-.09-.35-.15-.52l-.19-.54a2.77,2.77,0,0,1-.11-1.11,3.23,3.23,0,0,1,.08-.53.64.64,0,0,0-.05-.49,7.31,7.31,0,0,1-.61-.85c-.05-.14-.07-.29-.13-.42a.89.89,0,0,0-.3-.31l-.34-.19c-.11-.07-.31-.18-.34-.32s.12-.19.18-.26a.37.37,0,0,0,.13-.43c-.13-.28-.46-.4-.67-.61a1.28,1.28,0,0,1-.35-.91,1.73,1.73,0,0,1,.1-.45,1.48,1.48,0,0,1,.27-.43c.15-.19.25-.42,0-.55a2.36,2.36,0,0,0-.58-.15,2.89,2.89,0,0,1-1-.33,2.79,2.79,0,0,1-.7-.67c-.23-.3-.47-.59-.67-.9a1.23,1.23,0,0,1-.19-.44.65.65,0,0,1,.15-.5,3.28,3.28,0,0,1,.31-.34.56.56,0,0,0,.12-.4A.42.42,0,0,1,21.62,8.64Z"/></g></svg>