<svg xmlns="http://www.w3.org/2000/svg" viewBox="0 0 100 100"><g id="Baara"><path d="M27,25.06c0-.16.07-.36.05-.55a6.47,6.47,0,0,0-.32-1.12c-.12-.37-.48-1.05.08-1.22.22-.06.47,0,.7-.09a6.08,6.08,0,0,0,1.1-.34A7.6,7.6,0,0,0,31.73,19a3.38,3.38,0,0,1,1.53-1.22,4,4,0,0,1,.91-.06l1.33,0c.7,0,1.44,0,2.14.09a5.6,5.6,0,0,0,1,.13c.36-.05.59-.34.92-.46s.5,0,.79.07a1.13,1.13,0,0,0,.64-.16,2.8,2.8,0,0,1,.79-.21c.45,0,.46-.19.64-.54s.3-.43.22-.79a5.28,5.28,0,0,0-.28-.79c-.2-.49-.44-1.12.09-1.47s.93-.33,1.19-.81-.07-1.12.63-1.37a1.38,1.38,0,0,1,.94,0,2.78,2.78,0,0,0,1,.13c.56-.06,1.14.16,1.68,0s.6-.66,1-1a6.36,6.36,0,0,1,2-.64,5,5,0,0,1,1.89-.57c.3,0,.47.05.68-.18s.28-.36.6-.4A4.32,4.32,0,0,1,55.67,9c.32.09.57.32.88.42a7.32,7.32,0,0,0,1.05.1c.59.09,1.2.38,1.72,0S60,8.35,60.64,8.24a4,4,0,0,1,2,.57,12.48,12.48,0,0,1,1.81.95.55.55,0,0,1,.17.89c-.27.27-.7.32-1,.6s.08.62.44.71a4.32,4.32,0,0,0,.68.19,2.31,2.31,0,0,0,.37,0,.87.87,0,0,1,.61.24,2.19,2.19,0,0,0,.73.37c.25.07.52.23.77.28s.32-.06.42-.25a1.68,1.68,0,0,1,.65-.67c.52-.31,1-.77,1.59-.42s1.15.84,1.8,1.16A1.77,1.77,0,0,0,73.4,13c.22-.15.26-.43.47-.59a.84.84,0,0,1,.8-.08c.5.16,1,.47,1.44.67.27.11.52.24.79.37a2.08,2.08,0,0,1,.79.48c.42.53.14,1-.24,1.5a1.2,1.2,0,0,0-.31.8A7.64,7.64,0,0,0,77,17c0,.6.84.45,1.25.55.62.15.94.73,1.55.84a4.54,4.54,0,0,0,2.14-.4,1.92,1.92,0,0,1,1-.05c.34.09.64.32,1,.38.58.11.88-.34,1.36-.54,1-.42,1.73.11,1.48,1.07a5.4,5.4,0,0,0-.15,1.2,2,2,0,0,1-.12,1,1.24,1.24,0,0,1-.79.52c-.33.1-.68.07-1,.16a3.46,3.46,0,0,0-1,.66,1.39,1.39,0,0,0-.62.67,4.4,4.4,0,0,0-.2,1.14,3.44,3.44,0,0,0,.27,1.18,3.63,3.63,0,0,1,.05,1.14c0,.78.73,1.24.74,2s-.15,1.51.52,2a2.69,2.69,0,0,0,1.8.5c.26,0,.55-.18.7.09s0,.63.06.92a2.49,2.49,0,0,1-.12,1.18,10.52,10.52,0,0,0-.53,1,3.91,3.91,0,0,1-.41,1,4.64,4.64,0,0,0-.67,1.08,2.19,2.19,0,0,0,.07,1.19,3.37,3.37,0,0,1,.12,1.18c0,.27-.12.64.09.86s.61.06.85-.06a5.14,5.14,0,0,1,2.17-.56,2.43,2.43,0,0,1,1.13.19c.31.15.54.43.86.56a5,5,0,0,1,.91.34c.36.26.39.65.53,1a7.8,7.8,0,0,1,.43,1,1.36,1.36,0,0,1-.27,1.08A6.74,6.74,0,0,0,91.06,45,4.67,4.67,0,0,0,91,46.16c0,.39.14.78.14,1.17a1.38,1.38,0,0,1-.35.8,4.06,4.06,0,0,0-.51,1.12c-.13.38-.22.77-.32,1.16s-.33.89-.45,1.34-.16.79-.25,1.18-.27.73-.34,1.11c-.15.76.63,1.27.48,2.06,0,.17-.09.53-.3.56s-.23-.08-.31-.12-.38-.16-.57-.22a7.52,7.52,0,0,0-2.52-.45,2.4,2.4,0,0,0-1.82,1l-.8.91a5.21,5.21,0,0,1-.67.74c-.33.25-.53.12-.85-.05a10.22,10.22,0,0,0-1.07-.34,2,2,0,0,1-.74-.59c-.25-.28-.54-.18-.88-.22a1.75,1.75,0,0,0-.56,0,2.1,2.1,0,0,1-.51.11,5.42,5.42,0,0,1-1.27-.12,1.37,1.37,0,0,0-1,0,3,3,0,0,0-.8.92,2.67,2.67,0,0,0-.48,1c-.06.38,0,.78,0,1.16-.1.69-.75,1.18-1.26,1.59a1.23,1.23,0,0,1-1,.26,2.44,2.44,0,0,0-1,0c-.69.21-.8,1.12-.94,1.71-.19.82-.88,1-1.55,1.39a2.67,2.67,0,0,0-.81.56c-.2.23-.33.54-.6.68-.71.37-1.52-.2-2-.64s-.88-1.09-1.48-1.43c-.24-.13-.57-.16-.76-.37s-.29-.47-.73-.47a2.44,2.44,0,0,1-1-.08,3.69,3.69,0,0,0-1.18-.42,1.29,1.29,0,0,0-1.5,1.11,6.67,6.67,0,0,0-.13,1c.05.33.28.64.37,1a2.06,2.06,0,0,1-.82,2.07,3.71,3.71,0,0,1-.81.62,2.92,2.92,0,0,1-1.13.22c-.69,0-1.31,0-1.72.64a7.58,7.58,0,0,0-.45,1,5,5,0,0,0-.41,1,2.48,2.48,0,0,1-1.28,1.55c-.58.37-.91.94-1.45,1.35-.71.55-1.35.17-2.14,0a2.21,2.21,0,0,0-1.17,0,3.78,3.78,0,0,0-1,.66,4.21,4.21,0,0,1-1.15.44,5.31,5.31,0,0,0-1.06.61A15.61,15.61,0,0,0,42,78.09c-.2.21-.28.55-.57.64s-.65,0-1,.1-.74.23-1.12.29a6,6,0,0,1-1.47.06c-.64,0-1.5-.28-1.81.49-.11.28,0,.61-.2.87s-.49.35-.69.58c-.49.56.2,1.38-.4,1.86a3.09,3.09,0,0,1-.89.34,1.64,1.64,0,0,0-.75.7c-.2.28-.43.53-.61.82a13.26,13.26,0,0,0-.56,1.21,2.41,2.41,0,0,1-1.44,1.44.69.69,0,0,0-.54.65,5.66,5.66,0,0,1-.36,1c-.25.71-.2,1.65-.93,2.08a5.74,5.74,0,0,1-2.32.52c-.33,0-.4-.09-.48-.4s-.21-.44-.56-.35a4.7,4.7,0,0,1-.82.21,2.77,2.77,0,0,1-1.18-.15c-.36-.14-.7-.34-1.06-.46s-.85-.25-1.28-.38a1.7,1.7,0,0,0-1.15-.11c-.33.13-.61.48-1,.51-.68.06-1.22-1-1.44-1.52-.15-.33-.24-.68-.4-1a2.87,2.87,0,0,1-.27-1.19c0-.38.07-.75,0-1.14s-.1-.63-.17-.94a1.56,1.56,0,0,0-1.11-1.4,2,2,0,0,1-1.32-1.55c-.1-.38-.16-.76-.27-1.13a5.28,5.28,0,0,0-.6-1.27c-.42-.73.11-1.33.34-2a9.92,9.92,0,0,1,1.17-2.35c.22-.36.41-.73.62-1.09s.45-.59.66-.9a.8.8,0,0,0,.11-.85c-.17-.35-.39-.52-.32-.94a1.75,1.75,0,0,0,.06-1,1.24,1.24,0,0,0-.78-.81c-.77-.29-1.6-.45-2.38-.69s-1.52-.73-2.31-1a2.21,2.21,0,0,0-1.14-.11c-.27,0-.88.28-1.12.15,0-.35.1-.68.06-1a4.25,4.25,0,0,0-.26-1c-.11-.27-.29-.5-.38-.79a2.23,2.23,0,0,1,0-1.09,3.66,3.66,0,0,0,.1-.81c0-.25-.07-.5-.07-.75A.69.69,0,0,1,8,61.73c.35-.18.61,0,.94.13.52.16.76-.29.9-.71a2.38,2.38,0,0,0,0-1.78,1.38,1.38,0,0,1,.12-1.68,5.84,5.84,0,0,1,.81-.68c.3-.24.57-.51.84-.77.45-.45.82-1,1.26-1.4s1.06-1.11,1.63-1.62a5,5,0,0,0,1.24-1.48,3.38,3.38,0,0,1,.41-.83,2.22,2.22,0,0,1,.72-.48,3.72,3.72,0,0,0,1.23-.92,6.73,6.73,0,0,0,1.1-1.69c.21-.53.51-1.45,1.23-1.45.56,0,1,.76,1.52.2s.39-1.3.43-1.87a4.17,4.17,0,0,1,.19-.85c.09-.34-.19-.46-.23-.78s.27-.53.23-.82-.32-.31-.37-.52.16-.49.13-.74-.21-.43.06-.72.35-.28.42-.58a4.28,4.28,0,0,0,0-.8c0-.7.34-.88.9-1.19s.52-.7.31-1.25a5,5,0,0,1-.33-.89,1.21,1.21,0,0,0-.37-.84c-.28-.23-1-.52-.59-1a2.13,2.13,0,0,1,.94-.4,2.74,2.74,0,0,0,.94-.42.9.9,0,0,0,.28-.44c0-.12.09-.34.26-.34.42,0,.26,1.06.94.72s.13-1.16.54-1.54c.2-.19.52-.16.77-.2a1.59,1.59,0,0,1,.91.11.82.82,0,0,0,1.11-.58c.11-.61-.39-1.13-.34-1.73,0-.36.13-.67-.12-1a1.24,1.24,0,0,0-.65-.39c-.6-.22-.84-.48-.69-1.12a1.48,1.48,0,0,0,.07-.78c-.12-.33-.38-.26-.57-.46A.19.19,0,0,1,27,25.06Z"/></g></svg>