<svg xmlns="http://www.w3.org/2000/svg" viewBox="0 0 100 100"><g id="Baara"><path d="M16.17,25.5a2.2,2.2,0,0,1,.4.62,2.18,2.18,0,0,0,.5.63,1.89,1.89,0,0,0,.66.21,3.12,3.12,0,0,0,.73.24,3.49,3.49,0,0,1,1.44.09,2,2,0,0,1,.56.44c.16.18.25.41.42.58a1.23,1.23,0,0,0,.49.23l.8.3.82.25.82.32c.23.09.44.23.68.32a1.24,1.24,0,0,0,.83,0c.55-.16,1.07-.44,1.62-.63a1.87,1.87,0,0,0,.68-.33,3.81,3.81,0,0,0,.52-.61,2.55,2.55,0,0,1,1.13-1,6.62,6.62,0,0,1,.62-.24l.34-.13a1,1,0,0,1,.28-.12c.17,0,.32.1.47.17s.24.1.36.17.22.18.34.27a3.55,3.55,0,0,0,1.36.71,3.48,3.48,0,0,0,1.69-.15,5,5,0,0,1,.76-.21,3,3,0,0,1,.79,0,3.08,3.08,0,0,1,.74.11c.26.08.51.22.76.31a3.9,3.9,0,0,0,.76.13,1.61,1.61,0,0,1,.75.34,2.42,2.42,0,0,1,.51.5.91.91,0,0,0,.61.38c.44,0,.8-.48,1.07-.75a1.86,1.86,0,0,1,1.22-.69c.56,0,1.09.19,1.66.13A1.08,1.08,0,0,0,45,28c.21-.15.35-.33.62-.34a1.11,1.11,0,0,1,.61.2,2.36,2.36,0,0,1,.65.34,1.53,1.53,0,0,1,.24.59,7.59,7.59,0,0,0,.34.83c.12.22.28.41.41.62s.09.26.16.31.24-.06.35-.12a4.52,4.52,0,0,1,.73-.16,3.8,3.8,0,0,0,.8-.28,12.43,12.43,0,0,0,1.49-.78c.2-.12.38-.27.59-.37a1.59,1.59,0,0,1,.77-.15,4.09,4.09,0,0,0,.7,0,.89.89,0,0,0,.52-.28c.18-.17.4-.29.58-.46a1.75,1.75,0,0,1,.57-.39c.44-.16.9-.25,1.34-.4s.94-.49,1.44-.69a5.33,5.33,0,0,0,.63-.32,6.07,6.07,0,0,0,.73-.47,4,4,0,0,0,.5-.51,3.09,3.09,0,0,1,.54-.48A3,3,0,0,1,61.64,24a5.82,5.82,0,0,1,.73.07,3.47,3.47,0,0,0,.85-.1c.28-.06.56-.12.83-.2a5.91,5.91,0,0,1,.76-.29c.24,0,.38.06.59.17a2.33,2.33,0,0,0,.79.23,7.31,7.31,0,0,0,.81,0c.29,0,.59.06.88.08a3,3,0,0,0,.79,0c.25-.05.5-.12.75-.16a3.08,3.08,0,0,1,2,.47,4,4,0,0,1,.47.22c.41.23.82.47,1.24.68s.67.42,1,.61.55.21.81.35.31.36.48.56.6.19.84.33.49.57.71.85a7.81,7.81,0,0,0,.87.75q.47.45.9.93c.29.31.55.64.86.92a2.83,2.83,0,0,1,.59.93,8.84,8.84,0,0,0,.58,1c.11.15.26.25.37.39a3.09,3.09,0,0,1,.25.42c0,.06.17.18.15.26s-.08.11-.13.15-.37.35-.55.53a7.27,7.27,0,0,0-1.32,2,3.27,3.27,0,0,0-.19,1.13,2.64,2.64,0,0,1-.15.55,3.08,3.08,0,0,0-.11.74A1.25,1.25,0,0,1,79,39a4,4,0,0,1-.24.46,7.82,7.82,0,0,1-.65,1.21,6.72,6.72,0,0,1-.74.86,5.85,5.85,0,0,1-1,.75c-.31.2-.57.46-.87.66a7.89,7.89,0,0,0-1.13.65c-.12.11-.22.23-.34.35a1.81,1.81,0,0,0-.37.41,1.77,1.77,0,0,0-.12.41,2,2,0,0,0-.14.72c0,.2.11.38.15.58a1.4,1.4,0,0,1,0,.5c0,.3-.13.87.14,1.1a1.45,1.45,0,0,0,.35.18,2.81,2.81,0,0,0,.56.25c.41.12.83.23,1.24.33a2.69,2.69,0,0,0,1.19.13,1.71,1.71,0,0,0,.57-.25.3.3,0,0,1,.39.06,3.68,3.68,0,0,1,.31.38.65.65,0,0,0,.48.21,9,9,0,0,1,1.34.32.9.9,0,0,1,.43.28,1.41,1.41,0,0,1,.31.49.62.62,0,0,0,.28.36,2.83,2.83,0,0,0,.47.29,17.69,17.69,0,0,0,2.71.71,2.42,2.42,0,0,1,.69.22c.13.09.06.32,0,.44s-.27.18-.31.36a1.14,1.14,0,0,0,0,.26,1.18,1.18,0,0,0,0,.42,1.24,1.24,0,0,0,.43-.06L85.7,53a3.19,3.19,0,0,1,.87.11,3.09,3.09,0,0,0,.8-.06,5.61,5.61,0,0,1,.92.06,3.06,3.06,0,0,0,.4.07,1.11,1.11,0,0,0,.37-.07.8.8,0,0,1,.52.13c.22.11.19.37.27.57a.89.89,0,0,0,.21.35.91.91,0,0,1,.21.23,1.13,1.13,0,0,1,0,.68c-.1.27-.24.52-.32.79a2.64,2.64,0,0,0-.13.68.74.74,0,0,0,.18.59,1.23,1.23,0,0,1,.26.66c0,.29.09.57.12.86.07.59.75.3,1.11.53,0,.2-.12.51-.19.7s-.2.34-.09.48.44.18.62.23a2.06,2.06,0,0,1,.7.23c0,.11-.18.2-.24.3a2.54,2.54,0,0,0-.17.46c-.1.38-.18.76-.28,1.13a1.41,1.41,0,0,1-1.22,1.08c-.72,0-1.43-.18-2.15-.17a1.17,1.17,0,0,0-.77.21,1.44,1.44,0,0,0-.52.8,5.93,5.93,0,0,1-.3.93,1.46,1.46,0,0,1-.55.78.76.76,0,0,1-.74.1c-.34-.11-.66-.27-1-.41a2.38,2.38,0,0,0-.9-.25,5.79,5.79,0,0,1-1,0c-.68-.09-1.31-.46-2-.49s-1.16.41-1.78.47c-.18,0-.36,0-.54,0a1.71,1.71,0,0,1-.55,0,2.87,2.87,0,0,0-1-.11,2.3,2.3,0,0,0-1.49,1,3,3,0,0,0-.92,1.68A3.48,3.48,0,0,0,75,70.4a1.66,1.66,0,0,0,.67.62,3.61,3.61,0,0,0,1.07.24,4.89,4.89,0,0,1,2,.65A3.26,3.26,0,0,1,80,73.22c.14.28.32.55.12.83a.88.88,0,0,1-.77.41,2.65,2.65,0,0,1-1-.45c-.25-.15-.64-.45-1-.42s-.23.18-.33.3l-.36.49c-.23.31-.42.64-.65.94a2.13,2.13,0,0,1-.72.71c-.15.07-.31.12-.46.2a2.9,2.9,0,0,1-.51.29c0-.21-.11-.18-.3-.22a.83.83,0,0,1-.38-.14,2.06,2.06,0,0,1-.52-.78,4,4,0,0,1-.17-.83c0-.11,0-.24-.14-.3a1.8,1.8,0,0,0-.35-.08c-.34-.1-.67-.23-1-.33a1.62,1.62,0,0,1-.42-.2.64.64,0,0,1-.23-.31,2.27,2.27,0,0,0-.26-.35c-.1-.15-.19-.31-.3-.45a1.94,1.94,0,0,0-.73-.5,5,5,0,0,0-1-.31l-.49-.16a3.88,3.88,0,0,0-.58-.09,1.2,1.2,0,0,0-.37,0,2.05,2.05,0,0,0-.49.18,1.65,1.65,0,0,0-.83.5,1.8,1.8,0,0,0-.16.38c0,.15-.14.26-.19.4-.13.33-.07.7-.19,1a8.77,8.77,0,0,1-.45.86,1.45,1.45,0,0,1-.2.34.85.85,0,0,1-.48.24,2.42,2.42,0,0,0-.84.26,3.25,3.25,0,0,1-.87.49,1.24,1.24,0,0,1-.46.11.79.79,0,0,1-.38-.18,5.16,5.16,0,0,0-1-.47c-.6-.26-.8-.93-1.1-1.46a3.46,3.46,0,0,1-.45-.85,2.76,2.76,0,0,1,0-1.11,2.41,2.41,0,0,0-.14-1,1.1,1.1,0,0,0-.56-.73c-.28-.14-.54-.32-.81-.49a1.54,1.54,0,0,1-.64-.65,2.46,2.46,0,0,1-.28-1.06.69.69,0,0,1,.08-.32,5.12,5.12,0,0,0,.21-.59c.21-.6.61-1.31.14-1.91a6.78,6.78,0,0,0-.69-.62,3.11,3.11,0,0,1-.53-.85.86.86,0,0,0-.55-.44,3.52,3.52,0,0,0-.79-.13,3.09,3.09,0,0,0-1,.18c-.33.1-.61.3-.95.39a.92.92,0,0,1-.37,0c-.13,0-.15-.1-.19-.21s-.17-.64-.46-.66-.55.23-.83.27a1.38,1.38,0,0,1-.84-.27c-.25-.17-.43-.48-.71-.59a1.89,1.89,0,0,0-.4-.08,4.34,4.34,0,0,0-.62-.06,3.3,3.3,0,0,0-1,.24.64.64,0,0,0-.33.3c-.07.09-.12.25-.21.32a.56.56,0,0,1-.71-.09,2.12,2.12,0,0,0-.67-.59.42.42,0,0,0-.63.21c0,.13,0,.22-.15.32a.24.24,0,0,1-.34.06c-.48-.27,0-1-.54-1.3a1.6,1.6,0,0,0-.78-.09c-.26,0-.41.3-.66.38a2.3,2.3,0,0,1-1,.06c-.4-.06-.78-.21-1.18-.26a1.44,1.44,0,0,0-.93.21,2.74,2.74,0,0,1-.36.23c-.15.08-.33,0-.48.07a1.18,1.18,0,0,0-.41.5c-.06.09-.14.19-.26.18s-.23-.2-.31-.31-.22-.61-.49-.77a2.06,2.06,0,0,0-1-.2,3.16,3.16,0,0,0-1,.14c-.16,0-.31.14-.46.2a5.09,5.09,0,0,1-.56.14c-.26.06-.66.2-.89,0s-.12-.54,0-.74a1.68,1.68,0,0,0,.39-.73.26.26,0,0,0-.17-.32.8.8,0,0,0-.34-.07c-.26,0-.35.43-.42.63a.52.52,0,0,1-.61.4.9.9,0,0,1-.61-.39c-.14-.19-.33-.6-.59-.63a.51.51,0,0,0-.37.15.94.94,0,0,1-.31.17c-.25.09-.64.27-.8,0s0-.5.08-.75a.63.63,0,0,0,0-.33c-.05-.17-.12-.16-.28-.21s-.54-.26-.84-.34a2.9,2.9,0,0,0-1-.21,1,1,0,0,0-.75.32c-.15.19-.21.46-.45.56a2.46,2.46,0,0,0-.77.51,10.44,10.44,0,0,1-.77.71,2.52,2.52,0,0,1-.79.46c-.34.08-.43-.09-.64-.31a.59.59,0,0,0-.7-.09c-.2.1-.54.36-.74.16s-.18-.4-.35-.48-.58.14-.85.08a8,8,0,0,1-.95-.3c-.23-.09-.57-.31-.83-.23a.35.35,0,0,0-.22.39,1.54,1.54,0,0,0,.17.31.64.64,0,0,1,.11.16c0,.07-.11.13-.16.17-.27.21-.59,0-.88-.08s-.7-.18-1-.3A2.7,2.7,0,0,1,15,59.84a1,1,0,0,0-.61-.46c-.37-.06-.76,0-1.13,0a2.43,2.43,0,0,1-.92-.22c-.28-.14-.34-.46-.68-.47a3.62,3.62,0,0,0-.87.08,6.74,6.74,0,0,1-1.1,0,3,3,0,0,0-.88.19c-.24.1-.55-.11-.71-.3s-.08-.51-.13-.76-.3-.53-.41-.81a.5.5,0,0,1,.19-.61,1.7,1.7,0,0,1,.79-.4c.28-.05.63.07.9-.05s.49-.44.72-.62a2.16,2.16,0,0,1,1-.33c.4-.06.8-.09,1.21-.17.15,0,.32,0,.37-.18s.06-.39.11-.58a3.9,3.9,0,0,0,.18-1,2.16,2.16,0,0,0-.3-1,4.66,4.66,0,0,1-.36-1c-.08-.35-.14-.68-.19-1a2.84,2.84,0,0,0-.1-.49c0-.19-.14-.36-.2-.55a3,3,0,0,1,.24-2,4.1,4.1,0,0,1,.53-.71,2.3,2.3,0,0,0,.41-.83,1.16,1.16,0,0,0,0-.82,2.33,2.33,0,0,1-.3-.86,1,1,0,0,1,.41-.64c.3-.22.63-.43.94-.66a6.82,6.82,0,0,0,.79-.63l.33-.36c.11-.11.24-.18.36-.29A2.3,2.3,0,0,0,16,40.5c.11-.29.09-.56.38-.75.61-.38,1.34-.1,2-.22a4,4,0,0,0,1-.32,3.18,3.18,0,0,0,.4-.23.9.9,0,0,0,.2-.14c.09-.08.09-.11,0-.23s-.17-.27-.25-.41-.1-.28-.18-.4a1.34,1.34,0,0,0-.75-.48,3.22,3.22,0,0,0-1-.15,7.65,7.65,0,0,1-1.07,0,.88.88,0,0,1-.72-.48,5.63,5.63,0,0,1-.41-1c-.08-.22-.15-.65-.36-.78a1.63,1.63,0,0,0-.37-.13,1.92,1.92,0,0,0-.48-.15,1,1,0,0,0-.72.29c-.29.22-.54.49-.82.72a.71.71,0,0,1-.64.2c-.35-.11-.69-.24-1-.36s-.62-.12-.78-.33a1,1,0,0,1-.2-.82,2,2,0,0,0,0-1,1.35,1.35,0,0,1-.22-.89,1.78,1.78,0,0,1,.33-.74,5.4,5.4,0,0,0,.63-.73c.33-.57-.59-.92-.95-1.17-.19-.14-.34-.19-.29-.45A1.18,1.18,0,0,1,9.72,29a.87.87,0,0,1,.32-.25,2.7,2.7,0,0,1,1-.19,2.17,2.17,0,0,0,.91-.42c.26-.19.49-.46.76-.62a2.53,2.53,0,0,1,.48-.19l.5-.17A.52.52,0,0,0,14,27a1.83,1.83,0,0,0,.14-.32c.07-.13.13-.27.19-.41s.06-.26.16-.32a1.22,1.22,0,0,1,.38-.13,1.7,1.7,0,0,1,.44-.08,3.93,3.93,0,0,0,.48-.06l.17,0C16,25.61,16.08,25.53,16.17,25.5Z"/></g></svg>