<svg xmlns="http://www.w3.org/2000/svg" viewBox="0 0 100 100"><g id="Baara"><path d="M13.61,48l.06-.06c.11-.06.22-.07.31-.16a1.86,1.86,0,0,0,.32-.5c0-.08.11-.17,0-.26s-.17-.07-.19-.2a.94.94,0,0,1,.19-.51c.11-.19.34-.39.3-.63a1.58,1.58,0,0,0-.38-.58,3.39,3.39,0,0,0-.57-.63l-1.36-1.17a6.05,6.05,0,0,1-.6-.52,4.49,4.49,0,0,1-.5-.65,3.06,3.06,0,0,1-.35-.64,1.13,1.13,0,0,1,.11-.8,4,4,0,0,0,.29-.75,5.41,5.41,0,0,0,0-.9,3.3,3.3,0,0,1,.52-1.61,2.61,2.61,0,0,0,.33-.67,2.29,2.29,0,0,0,0-.37A.91.91,0,0,0,12,36a3,3,0,0,0-.4-.6,2.43,2.43,0,0,0-.6-.51,9.71,9.71,0,0,0-1.58-.79l-.75-.36-.36-.21c-.09-.06-.29-.13-.35-.22s.2-.4.3-.5.4-.41.58-.63c.32-.39.64-1,1.16-1.12a.65.65,0,0,1,.63.11c.21.16.33.4.54.56a1.5,1.5,0,0,0,1.35.37,2.84,2.84,0,0,0,.61-.35,6,6,0,0,1,.81-.39,3.45,3.45,0,0,1,1.62-.24c.28,0,.55.11.82.16a1.43,1.43,0,0,0,.82,0c.18-.08.47-.12.56-.3s.08-.27.13-.39.13-.28.19-.41a4.1,4.1,0,0,1,1-1.23,3,3,0,0,0,.48-.53c.35-.55.44-.68,1.1-.39.26.11.45.32.7.44a3,3,0,0,0,1.67.09,2.26,2.26,0,0,1,.82,0c.22.05.35.23.52.37.44.36,1-.12,1.35-.34a6.14,6.14,0,0,0,1.35-1.14c.42-.41.84-.82,1.29-1.2a6.07,6.07,0,0,1,1.35-.89,4.63,4.63,0,0,1,.74-.26,1.34,1.34,0,0,1,.4-.07,2.86,2.86,0,0,1,.42.1c.11,0,.22,0,.32,0s.15.09.19.19a2.27,2.27,0,0,0,.45.66,13.15,13.15,0,0,0,1.21,1.15c.45.36,1,.65,1.42,1,.23.15.44.27.68.4a2.26,2.26,0,0,1,.67.43c.19.18.41.33.6.51a5,5,0,0,1,.58.71,1.51,1.51,0,0,0,.22.28c.09.08.2.14.29.21s.28.43.44.64a5.79,5.79,0,0,0,.51.48,6.64,6.64,0,0,1,.58.71,3.37,3.37,0,0,0,.48.52,2.3,2.3,0,0,0,.7.29l.78.35a1.5,1.5,0,0,1,.61.44,2.31,2.31,0,0,1,.32.65,1.65,1.65,0,0,0,.43.69c.39.36.94.33,1.37.6a2,2,0,0,1,.65,1.3c.13.51.69.59,1.14.49a13.25,13.25,0,0,0,1.62-.63,3.93,3.93,0,0,1,.82-.2h.4c.16,0,.31,0,.47,0a3,3,0,0,1,.76.24,5.07,5.07,0,0,0,.88.17c.27,0,.54.07.81.08a7.77,7.77,0,0,1,1,.14,4.63,4.63,0,0,0,1.74,0,2.76,2.76,0,0,0,.75-.25c.25-.13.48-.29.72-.42s.48-.2.72-.3a1,1,0,0,1,.32-.11.87.87,0,0,1,.41.14.61.61,0,0,1,.23.63,1.69,1.69,0,0,0-.07.38.68.68,0,0,0,.15.37,1.33,1.33,0,0,0,.51.46,3.48,3.48,0,0,1,.68.38c.37.34.36.81.46,1.27a1,1,0,0,0,.93.88,3.28,3.28,0,0,0,1.39-.47,16,16,0,0,0,1.39-.79c.26-.16.65-.47,1-.36s.31.32.4.5a5.85,5.85,0,0,1,.33.82A5.3,5.3,0,0,1,65,42.33a1.72,1.72,0,0,1-.17.7c-.1.21-.23.39-.31.61a.7.7,0,0,0,0,.55.78.78,0,0,0,.6.36,1.54,1.54,0,0,1,.56.31c.2.19.13.32,0,.52a.75.75,0,0,0-.13.63.46.46,0,0,0,.52.34,1.93,1.93,0,0,0,.69-.26,1.75,1.75,0,0,1,.8-.22,3.22,3.22,0,0,1,1.51.58,1.1,1.1,0,0,0,.37.16c.12,0,.24,0,.35,0a.83.83,0,0,1,.46.49c.09.24.17.49.27.73s.13.42.33.51a.69.69,0,0,0,.59-.08c.1-.05.2-.13.3-.19s.25-.12.37-.18a1.24,1.24,0,0,1,.77-.22,5.46,5.46,0,0,1,.88.17,7.3,7.3,0,0,1,.79.26,1.26,1.26,0,0,0,.81.1,2.67,2.67,0,0,0,.63-.32c.23-.13.48-.24.72-.37a3.15,3.15,0,0,0,.65-.42c.22-.19.4-.42.6-.63a.5.5,0,0,1,.55-.22c.21.07.35.35.52.49a1.87,1.87,0,0,0,.66.29,2.79,2.79,0,0,1,.72.34,5,5,0,0,0,.64.36,4.1,4.1,0,0,1,.68.5l.66.62c.22.19.45.36.66.57a2.75,2.75,0,0,1,.73,1.31c.07.24.22.44.3.67a3.11,3.11,0,0,0,.37.78,1.05,1.05,0,0,0,.53.45,1.72,1.72,0,0,0,.87,0c.29-.07.59-.14.88-.18a1.23,1.23,0,0,1,.76.06c.19.11.31.31.5.43s.39.1.37.22-.3.25-.38.31a2.93,2.93,0,0,0-.52.59,1.77,1.77,0,0,1-.52.5,1.62,1.62,0,0,0-.56.45,1.33,1.33,0,0,0-.14.71,4.56,4.56,0,0,1-.14.9,7.27,7.27,0,0,0-.22.8,3.07,3.07,0,0,0,.1.9,2,2,0,0,1,0,.42.57.57,0,0,0,0,.34,1.24,1.24,0,0,0,.65.28,3.65,3.65,0,0,0,.81.08,2.49,2.49,0,0,1,.86.08,1.25,1.25,0,0,1,.55.41,2.62,2.62,0,0,0,.22.25,1,1,0,0,0,.36.15.82.82,0,0,1,.51.34,2.23,2.23,0,0,0,.19.24,2.82,2.82,0,0,0,.38.21,2.37,2.37,0,0,1,.66.52,3.5,3.5,0,0,0,.3.24c.11.1.2.23.32.33s.36.24.17.43a1.42,1.42,0,0,0-.4.65c-.15.51-.06,1.06-.38,1.52a3.21,3.21,0,0,1-1.15.83,2.64,2.64,0,0,1-.37.2c-.12,0-.25,0-.37.09a.57.57,0,0,0-.33.49c0,.22,0,.42-.16.59a2.47,2.47,0,0,1-.68.41,1.39,1.39,0,0,0-.31.18,1.15,1.15,0,0,1-.26.19,1.83,1.83,0,0,1-.87,0,4.23,4.23,0,0,0-.87,0,2.41,2.41,0,0,1-.89-.06,1.59,1.59,0,0,0-.66-.18,1.53,1.53,0,0,0-.69.26,4.35,4.35,0,0,1-.57.38c-.27.12-.52.28-.8.4a5,5,0,0,1-.77.28c-.31.07-.62.12-.93.18a2,2,0,0,1-1.61-.12c-.21-.14-.39-.31-.62-.44a8.59,8.59,0,0,1-.73-.5c-.41-.3-.76-.66-1.15-1a1.57,1.57,0,0,0-1.62-.11,9.44,9.44,0,0,0-1.4.84,4.51,4.51,0,0,0-1.2,1.06c-.33.44-.48,1-.83,1.39a4.54,4.54,0,0,1-1.4,1,5.23,5.23,0,0,1-.7.37,1.35,1.35,0,0,0-.61.41,2.34,2.34,0,0,0-.34.69.73.73,0,0,0,0,.36c0,.09.16.14,0,.2a.75.75,0,0,1-.53-.06c-.28-.1-.5-.26-.76-.38s-.47-.16-.63,0a2.26,2.26,0,0,0-.23.29l-.29.34a1,1,0,0,1-.58.33,2.33,2.33,0,0,1-.83-.05c-.25,0-.5,0-.75-.08a1.43,1.43,0,0,1-.65-.35,2.23,2.23,0,0,1-.5-.56,1.31,1.31,0,0,0-.21-.27c-.09-.09-.2-.15-.26-.27a6.65,6.65,0,0,0-.27-.61,2.32,2.32,0,0,0-.63-.49,6.59,6.59,0,0,0-.71-.34,4.23,4.23,0,0,0-.78-.27,2.89,2.89,0,0,0-.83,0,3.21,3.21,0,0,0-.84.24,5.33,5.33,0,0,1-1.74.08,2,2,0,0,0-1.4.52.83.83,0,0,0-.23.64,3.38,3.38,0,0,0,0,.45,1,1,0,0,0,.06.42c.1.2.31.33.43.52s0,.47-.07.7a1.5,1.5,0,0,1-.54.49,2,2,0,0,1-.7.33,7.75,7.75,0,0,1-1.73.23,5.67,5.67,0,0,1-1.75-.42,1.36,1.36,0,0,0-.35,0,.58.58,0,0,1-.31-.08.83.83,0,0,0-.68-.13.94.94,0,0,1-.64,0c-.23-.08-.43-.18-.67,0a1.66,1.66,0,0,1-.56.29,1.4,1.4,0,0,1-.81-.07,1.57,1.57,0,0,1-.63-.41,1.16,1.16,0,0,1-.2-.24,1.69,1.69,0,0,1-.07-.38.92.92,0,0,1,.28-.65,4.68,4.68,0,0,1,.5-.6c.19-.17.43-.29.64-.45a7,7,0,0,0,.63-.59,4.72,4.72,0,0,1,.69-.48,1.37,1.37,0,0,0,.29-.25c.07-.09.2-.22.21-.34s-.23-.27-.3-.4a.58.58,0,0,1,0-.61c0-.08.06-.14,0-.21a.82.82,0,0,0-.33-.15,1.55,1.55,0,0,0-.36-.08,1.47,1.47,0,0,0-.42.06.53.53,0,0,1-.33,0c-.1,0-.17-.13-.27-.17a1.67,1.67,0,0,0-.39,0l-.51,0c-.24,0-.29-.11-.38-.32a3.52,3.52,0,0,0-.34-.67,1.21,1.21,0,0,0-.53-.42,1.4,1.4,0,0,1-.51-.54,2,2,0,0,0-.51-.56c-.17-.12-.47-.34-.68-.29s-.37.25-.59.27a.77.77,0,0,1-.36-.09.59.59,0,0,1-.29-.2,1.87,1.87,0,0,1-.09-.67,3,3,0,0,0-.33-.75c-.11-.23-.23-.45-.35-.67s-.2-.53-.3-.79c-.22-.55-.51-1.06-.78-1.58a3.84,3.84,0,0,1-.33-.85c-.06-.3-.13-.61-.19-.91a6,6,0,0,1-.13-.85,2.23,2.23,0,0,0-.14-.85,1.26,1.26,0,0,0-.44-.53c-.24-.16-.51-.28-.76-.43a7.76,7.76,0,0,1-1.31-1.12,8.06,8.06,0,0,0-1.33-1.08c-.49-.33-1-.69-1.45-1a6.51,6.51,0,0,0-.74-.39,1.11,1.11,0,0,0-.74-.11l-.93.24a3.72,3.72,0,0,0-.79.22,2.43,2.43,0,0,0-.48.48,6.15,6.15,0,0,1-.64.61,7.33,7.33,0,0,1-.64.45,5.2,5.2,0,0,1-.69.38,1.75,1.75,0,0,1-.82,0l-.94-.14a5.25,5.25,0,0,0-.88-.09,5.74,5.74,0,0,0-.93.06,2.07,2.07,0,0,0-.71.32c-.23.15-.41.35-.62.51a.82.82,0,0,1-.61.1,3.11,3.11,0,0,1-.9-.21,12.47,12.47,0,0,0-1.71-.63,9.27,9.27,0,0,0-1.74-.27,1.71,1.71,0,0,1-.7-.16c-.12-.07-.22-.16-.33-.23a1.48,1.48,0,0,1-.32-.21.73.73,0,0,1-.11-.29c0-.13-.07-.25-.11-.37a1.89,1.89,0,0,1,0-.82,6.58,6.58,0,0,0,.13-.89,2,2,0,0,0-.25-.82,5.42,5.42,0,0,0-1-1.27c-.4-.44-.81-.86-1.23-1.29l-.31-.31a1.85,1.85,0,0,1-.28-.28A.19.19,0,0,1,13.61,48Z"/></g></svg>