<svg xmlns="http://www.w3.org/2000/svg" viewBox="0 0 100 100"><g id="Baara"><path d="M17,26.88a.5.5,0,0,0-.12-.23c-.06-.06-.13-.08-.19-.14s-.14-.15-.1-.22.39-.1.53-.1a4.06,4.06,0,0,0,.6,0c.18,0,.33.08.51,0a.5.5,0,0,0,.34-.39.25.25,0,0,1,0-.17l.16-.16a.2.2,0,0,0,.08-.14c0-.08-.07-.09-.13-.09a.51.51,0,0,1-.4-.14,1.62,1.62,0,0,0-.44-.34,4.87,4.87,0,0,0-.53-.21l-.26-.07c-.11,0-.17-.05-.14-.18a3.58,3.58,0,0,1,.25-.42.58.58,0,0,0,.06-.26.68.68,0,0,1,.08-.34l.12-.22a1.46,1.46,0,0,1,.07-.19c.11-.18.34-.09.51-.09s.42,0,.63,0,.28,0,.37.15a1.17,1.17,0,0,1,.09.24c0,.1.08.17.2.12a.32.32,0,0,0,.14-.16A.31.31,0,0,1,19.6,23,.44.44,0,0,1,20,23a1.94,1.94,0,0,1,.47.34,2.07,2.07,0,0,0,.39.33c.17.1.37.16.55.25a1.14,1.14,0,0,1,.41.31c.11.15.18.31.27.46a2.22,2.22,0,0,0,.86.72c.38.18.8,0,1.19,0a2.63,2.63,0,0,1,1.17.29l.48.28a1.1,1.1,0,0,0,.54.12l.64,0a1.27,1.27,0,0,0,.58,0c.05,0,.21-.11.22-.17s-.06-.17-.09-.22a1.73,1.73,0,0,1-.33-.47,1.23,1.23,0,0,1,0-.54c0-.22.06-.44.1-.66s.08-.3.25-.38.28-.09.34-.24A.58.58,0,0,0,28,23a2.92,2.92,0,0,1-.13-.42c0-.11.12-.27.21-.34a.62.62,0,0,1,.53-.08,5.74,5.74,0,0,1,1.12.53,2.44,2.44,0,0,0,1,.47,1.11,1.11,0,0,0,1-.35.62.62,0,0,1,.32-.32.4.4,0,0,0,.16-.47c-.07-.17-.13-.34-.19-.51s-.14-.34,0-.49a.41.41,0,0,1,.43-.07,2.52,2.52,0,0,1,.61.18c.38.17.8.25,1.19.41s.74.39,1.14.52.84.16,1.25.28.8.3,1.19.46a4.63,4.63,0,0,1,.54.29,1.36,1.36,0,0,0,.52.24c.33.05.75,0,.86.41a1.93,1.93,0,0,0,.17.53c.09.14.29.17.44.23a2.81,2.81,0,0,1,.5.22,1,1,0,0,0,.57.22,5.07,5.07,0,0,1,.56.13,2.42,2.42,0,0,0,.6.09c.45,0,.9-.1,1.35-.12h.65a2.15,2.15,0,0,1,.62.08,1.45,1.45,0,0,1,.47.3,1.9,1.9,0,0,1,.19.21.41.41,0,0,0,.24.11,4.32,4.32,0,0,0,1.19.05,3.41,3.41,0,0,0,.55-.05c.18,0,.29-.16.46-.23.34-.14.77.11,1.06.28a2.31,2.31,0,0,1,.42.34c.15.14.25.32.4.46a3.73,3.73,0,0,0,.48.33,3.84,3.84,0,0,0,.53.28,6.22,6.22,0,0,0,1.2.31l.6.12a3.68,3.68,0,0,0,.66.06.72.72,0,0,0,.5-.06.8.8,0,0,0,.33-.35c.06-.13.08-.27.25-.31a.42.42,0,0,1,.4.22c0,.06.07.12.15.15s.16,0,.22.08.1.11.09.17a1.17,1.17,0,0,1-.15.32c0,.13,0,.16.07.23a.62.62,0,0,0,.22.1,3.73,3.73,0,0,1,.63.18,1.92,1.92,0,0,1,.45.29,3.61,3.61,0,0,1,.45.42c.19.25.4.55.76.46a1.18,1.18,0,0,0,.48-.26,1.06,1.06,0,0,0,.22-.48,2.5,2.5,0,0,1,.23-.5,1,1,0,0,1,.39-.32.82.82,0,0,1,.46-.08,1.37,1.37,0,0,1,.48.31.4.4,0,0,0,.15.1.79.79,0,0,0,.3-.05,3,3,0,0,1,.32-.07.92.92,0,0,1,.36.07c.17.06.33.16.51.22a.81.81,0,0,0,.22.07c.06,0,.09,0,.11-.06a3.43,3.43,0,0,1,.19-.48,1.9,1.9,0,0,1,.41-.34c.06,0,.12-.08.13-.16a.91.91,0,0,1,0-.17c0-.16.27-.18.4-.24s.71-.44.92-.12a4.67,4.67,0,0,0,.3.43.69.69,0,0,0,.46.17,1.67,1.67,0,0,1,.55.09A.66.66,0,0,1,66,28a1.76,1.76,0,0,1,.09.51c0,.19.18.32.29.47a3.41,3.41,0,0,1,.37.39c.07.14-.19.27-.12.44a1,1,0,0,0,.13.16c.06.07.11.15.16.22a1,1,0,0,1,.23.51c0,.1,0,.12-.1.17a.8.8,0,0,0-.18.19,2.06,2.06,0,0,0-.32.47,1.87,1.87,0,0,1-.08.28.67.67,0,0,1-.14.19,1.46,1.46,0,0,0-.17.24l-.07.14c0,.08,0,.1,0,.16a1.11,1.11,0,0,1,.32.36,1.67,1.67,0,0,1,.15.54c0,.36-.4.47-.66.59a.48.48,0,0,0-.26.39,1.77,1.77,0,0,0,0,.23.29.29,0,0,1-.07.24c-.08.1-.23.23-.21.37s.2.23.3.35.22.27.34.39a.54.54,0,0,0,.46.12c.2,0,.39-.09.59-.11a.39.39,0,0,1,.39.27,1.76,1.76,0,0,1,.07.56,1.38,1.38,0,0,0,.17.53,2.34,2.34,0,0,0,.84.68,2.63,2.63,0,0,0,1,.56,1.38,1.38,0,0,0,.53-.09,3.24,3.24,0,0,1,.62-.12c.1,0,.2,0,.3,0a.28.28,0,0,1,.2.13c.1.12,0,.25,0,.39a3.71,3.71,0,0,0,.11.58.27.27,0,0,1,0,.23c0,.09-.13.18-.19.27a.33.33,0,0,0-.11.32c0,.17.19.2.34.22a1.53,1.53,0,0,1,.56.13,2.57,2.57,0,0,1,.5.24.49.49,0,0,1,.15.17c0,.08,0,.17-.06.24a3.68,3.68,0,0,1-.34.44c-.11.13-.15.29-.27.41a2.51,2.51,0,0,1-.54.28,5.64,5.64,0,0,0-.53.31l-.24.17a.69.69,0,0,1-.28.11c-.1,0-.25.17-.19.27a.49.49,0,0,0,.45.17.57.57,0,0,1,.26,0,.83.83,0,0,1,.22.14,1.16,1.16,0,0,1,.18.2l.06.09c0,.07,0,.08-.08.12s-.33.23-.38.39a1,1,0,0,0,.07.55.38.38,0,0,1-.09.43l-.21.15a.73.73,0,0,1-.29.07.46.46,0,0,0-.3.17c-.1.14,0,.3,0,.46a1.49,1.49,0,0,0,.46.87c.06,0,.1,0,.17,0a1.22,1.22,0,0,1,.26-.06,4.36,4.36,0,0,0,.58-.19.86.86,0,0,1,.55,0,3.13,3.13,0,0,0,.6.16,1.71,1.71,0,0,0,.55,0c.1,0,.19-.07.29-.1a.71.71,0,0,1,.29,0,1.84,1.84,0,0,0,.62,0,1.91,1.91,0,0,0,.56-.26c.17-.1.32-.24.49-.32s.32,0,.47.12.24.27.36.41a1.09,1.09,0,0,0,.18.19.89.89,0,0,0,.31.11c.37.07.8-.13,1.14.07s.24.6.38.9a1.48,1.48,0,0,0,.78.68,1.08,1.08,0,0,0,.5.09,1,1,0,0,0,.55-.13,4.51,4.51,0,0,0,.37-.39.5.5,0,0,1,.5-.21,1,1,0,0,1,.5.19,4,4,0,0,1,.47.45,1.71,1.71,0,0,1,.34.47.51.51,0,0,0,.07.15,1.64,1.64,0,0,0,.22.14,2.82,2.82,0,0,1,.46.23,1.16,1.16,0,0,1,.35.44,1.82,1.82,0,0,1,.07.25c0,.08,0,.17.06.22a.28.28,0,0,0,.25,0,.7.7,0,0,1,.25,0h.3c.08,0,.25,0,.28-.05s0-.2,0-.25a.75.75,0,0,1,0-.26c0-.19.21-.63.42-.34A.8.8,0,0,0,85,50a.16.16,0,0,0,.15,0,.93.93,0,0,0,.23,0,1.1,1.1,0,0,1,.26-.06c.14,0,.23.14.31.24a2.92,2.92,0,0,0,.41.45l.91.7a5.18,5.18,0,0,1,.4.41c.14.14.26.29.39.44a2.56,2.56,0,0,0,1,.49l.51.26c.11.07.38.26.52.19s.19-.25.34-.23.26.17.38.27a2.24,2.24,0,0,1,.38.31.86.86,0,0,1,.13.48.41.41,0,0,0,.26.39c.15.06.37.07.46.23a.79.79,0,0,0,.14.18,2.24,2.24,0,0,0,.27.13c.37.15.6.17.42.62a2.69,2.69,0,0,1-.16.45,1.61,1.61,0,0,1-.34.35l-.44.44a.77.77,0,0,1-.37.24,1.29,1.29,0,0,0-.44.1c-.13.09-.06.26,0,.38a4.76,4.76,0,0,1,.1.52.7.7,0,0,1-.47.71c-.24.07-.65.14-.67.47,0,.16.1.3.11.47s-.06.34-.07.5c0,.35.27.68.16,1a2.35,2.35,0,0,1-.68.83c-.19.2-.51.44-.37.75a.7.7,0,0,0,.15.19,1.18,1.18,0,0,1,.11.19.53.53,0,0,1,.06.46c-.06.16-.2.24-.29.37a2,2,0,0,0-.24.45.75.75,0,0,1-.1.17.91.91,0,0,1-.17.09,1.93,1.93,0,0,1-.55.14c-.16,0-.31.11-.47.15a2.1,2.1,0,0,1-.56.07,1,1,0,0,0-.88.29.41.41,0,0,0-.07.37c0,.06.08.1.11.16a.53.53,0,0,1,.08.27c0,.15,0,.35,0,.47s.21.22.3.34a.57.57,0,0,1,.14.41.73.73,0,0,1-.2.39l-.3.38a1,1,0,0,0-.27.39,1.36,1.36,0,0,0,0,.45,1,1,0,0,0,.18.5,3.5,3.5,0,0,1,.62.77.86.86,0,0,1,.09.27,1,1,0,0,1,0,.23,2.81,2.81,0,0,1-.16.49c-.08.16-.19.29-.27.45a1.79,1.79,0,0,1-.3.42,1.75,1.75,0,0,1-.89.54,1.07,1.07,0,0,1-.92-.26,1,1,0,0,0-.42-.23c-.18,0-.37,0-.56,0A1,1,0,0,1,83,72a1.38,1.38,0,0,1-.31-.33.62.62,0,0,0-.31-.29.9.9,0,0,0-.46,0c-.16,0-.3.11-.46.15a2.55,2.55,0,0,1-.55.11,1.67,1.67,0,0,0-.55.08,2.71,2.71,0,0,0-.49.22,3,3,0,0,0-.39.31,1.3,1.3,0,0,1-.44.29,2.52,2.52,0,0,1-.47.13c-.19,0-.38.13-.58.18a1.56,1.56,0,0,1-1-.17,3.42,3.42,0,0,0-.43-.21,1.06,1.06,0,0,0-.53,0c-.29.08-.6.34-.91.2a1.65,1.65,0,0,0-.36-.16.22.22,0,0,0-.22.18.76.76,0,0,1,0,.21.81.81,0,0,0,0,.22,5.26,5.26,0,0,0,.15.53,1.61,1.61,0,0,1,.06.49c0,.19.08.36.07.54a.29.29,0,0,1-.18.29,4.51,4.51,0,0,1-.52,0,.4.4,0,0,0-.33.15c-.06.09-.08.26-.2.29a.37.37,0,0,1-.18,0,1.35,1.35,0,0,1-.29,0,1.59,1.59,0,0,0-.57-.06c-.16,0-.23.15-.35.24s-.35,0-.5,0a2,2,0,0,0-.47-.14.89.89,0,0,0-.57.12.82.82,0,0,1-.48.12,5.67,5.67,0,0,1-.57-.1,1,1,0,0,0-.9.21,2,2,0,0,1-.4.29c-.18.09-.37.15-.55.24a4.68,4.68,0,0,1-1,.35c-.13,0-.26,0-.31-.12a3.45,3.45,0,0,0-.12-.43,2.44,2.44,0,0,0-.32-.4,2.38,2.38,0,0,1-.35-.36,1.08,1.08,0,0,1-.12-.5,1.6,1.6,0,0,0,0-.49,1.57,1.57,0,0,1-.13-.42c0-.12.13-.24.06-.36s-.12-.09-.17-.12a.87.87,0,0,1-.16-.17A.54.54,0,0,1,65,73a1.6,1.6,0,0,1,0-.23.69.69,0,0,0-.27-.36,1.63,1.63,0,0,1-.4-.24c-.1-.11-.12-.27-.23-.37s-.25-.13-.37-.2a.77.77,0,0,1-.26-.35,2.88,2.88,0,0,0-.24-.46,1.19,1.19,0,0,0-.36-.31.53.53,0,0,1-.14-.12c-.07-.07-.06-.13,0-.22s0-.37.05-.55a2.54,2.54,0,0,0,0-.29s0-.09,0-.12-.14,0-.18,0c-.36,0-.69-.17-1.06-.21A1.43,1.43,0,0,0,61,69c-.17,0-.19.18-.26.32a2,2,0,0,1-.3.45A1.7,1.7,0,0,1,60,70a2.11,2.11,0,0,0-.47.19.94.94,0,0,0-.3.43c-.08.17-.18.34-.27.5a4.67,4.67,0,0,1-.27.49,2.73,2.73,0,0,1-.81.74c-.14.09-.29.15-.43.23a1.43,1.43,0,0,0-.2.14l-.26.13c-.13.07-.23.19-.37.26a4.9,4.9,0,0,0-.52.24c-.3.18-.52.46-.82.65a.92.92,0,0,1-.48.19,1.64,1.64,0,0,1-.54-.08A3,3,0,0,0,53.7,74c-.16,0-.29.16-.38.28a3.11,3.11,0,0,0-.22.4,1.37,1.37,0,0,1-.15.21l-.06.09c0,.06-.07.06-.15.05-.35-.08-.66-.31-1-.41a1.28,1.28,0,0,0-.51-.06.75.75,0,0,0-.41.26,1.83,1.83,0,0,0-.21.39,1.9,1.9,0,0,1-.3.44A2.07,2.07,0,0,0,50,76a4.76,4.76,0,0,0-.19.53,1.18,1.18,0,0,1-.26.43c-.13.11-.29.19-.43.3a1.67,1.67,0,0,0-.24.35,1.49,1.49,0,0,1-.34.41.4.4,0,0,1-.34,0A1.63,1.63,0,0,1,48,78a.61.61,0,0,0-.27,0l-.28,0a1.55,1.55,0,0,1-.23.06,1,1,0,0,1-.48-.12,2.66,2.66,0,0,0-1.09-.07,2.26,2.26,0,0,1-.52,0,1.74,1.74,0,0,1-.49-.2c-.29-.14-.64-.34-.86,0a1.37,1.37,0,0,1-.35.33c-.1.07-.24.12-.31.23a2.52,2.52,0,0,0-.12.39.78.78,0,0,0-.11.2c0,.09,0,.15,0,.24s-.11-.06-.17-.08a.67.67,0,0,0-.19-.05l-.55,0a3.16,3.16,0,0,1-.92,0,1.3,1.3,0,0,0-.34-.08.38.38,0,0,0-.15,0c-.07,0-.09,0-.14-.06s-.17-.12-.24-.2-.22-.2-.34-.3a1,1,0,0,0-.34-.22.77.77,0,0,1-.34-.22,1.86,1.86,0,0,0-.31-.26.81.81,0,0,1-.27-.28,6.14,6.14,0,0,0-.49-.76.62.62,0,0,1-.17-.32.74.74,0,0,1,0-.14A.85.85,0,0,1,38,76a2.67,2.67,0,0,0-.12-.84,2.54,2.54,0,0,0-.07-.47,1.62,1.62,0,0,1-.07-.44,1.8,1.8,0,0,1,.25-.91c.08-.13.16-.25.22-.37s.19-.22.21-.35,0-.27,0-.41a2.64,2.64,0,0,1,.13-.46,3.09,3.09,0,0,1,.27-.81.74.74,0,0,1,.28-.21,4.4,4.4,0,0,0,.39-.26c.09-.07.21-.13.22-.25a1.77,1.77,0,0,0,0-.46,1.71,1.71,0,0,1,0-.45c0-.15.07-.28.07-.44s.14-.55.16-.84c0-.12,0-.24,0-.36s.09-.18.16-.26a2.2,2.2,0,0,0,.47-.71.76.76,0,0,0,0-.39,2.1,2.1,0,0,0-.06-.24,1,1,0,0,0-.05-.23c0-.09-.12-.12-.13-.23a.62.62,0,0,1,.13-.37,2.64,2.64,0,0,0,.23-.35,1.41,1.41,0,0,1,.21-.38c.07-.09.2-.12.3-.18a.55.55,0,0,0,.26-.26,1.12,1.12,0,0,0,.1-.4,1.1,1.1,0,0,0-.08-.4.51.51,0,0,1,0-.21.75.75,0,0,0,0-.21c0-.11-.15-.22-.07-.33s.46-.05.61,0a1.61,1.61,0,0,0,.33.2,1.32,1.32,0,0,0,.44.05,2.34,2.34,0,0,0,.45-.07,1.48,1.48,0,0,0,.41-.12.87.87,0,0,0,.54-.58,2.67,2.67,0,0,0,0-.4,1.6,1.6,0,0,1,.12-.49,3.56,3.56,0,0,0,.2-1c0-.14,0-.29,0-.43a1.45,1.45,0,0,0-.07-.47,1.91,1.91,0,0,1-.1-.34c0-.14.05-.18.14-.27s0-.49-.23-.62a2.45,2.45,0,0,0-.79-.26,1.2,1.2,0,0,0-.42,0,4.46,4.46,0,0,1-.51.07,2.77,2.77,0,0,1-.41,0,1.71,1.71,0,0,0-.44.13c-.13,0-.26.13-.4.08a.72.72,0,0,0-.37-.09,1.75,1.75,0,0,1-.84-.22.93.93,0,0,0-.4-.09,2.76,2.76,0,0,0-.49.07.45.45,0,0,1-.37-.08.8.8,0,0,1-.19-.32c-.11-.25-.15-.53-.39-.68s-.48-.2-.63-.44,0-.52-.19-.72-.41-.39-.65-.33-.45.32-.67.45a1.06,1.06,0,0,1-.82.09l-.46-.1a4.1,4.1,0,0,1-.48-.1c-.1,0-.17-.13-.27-.17a.43.43,0,0,0-.4,0,1.73,1.73,0,0,0-.31.22,2.19,2.19,0,0,1-.4.21,1.12,1.12,0,0,1-.41,0,1.47,1.47,0,0,1-.47,0,.68.68,0,0,0-.37-.06,1,1,0,0,0-.36.19,1.46,1.46,0,0,1-.67.43.61.61,0,0,1-.66-.2c-.06-.08-.11-.18-.21-.21s-.29.06-.43.09a2.23,2.23,0,0,0-.72.27c-.12.09-.25.16-.37.24a1.72,1.72,0,0,1-.37.22,1.3,1.3,0,0,1-.8.06.89.89,0,0,0-.39-.06,3.24,3.24,0,0,1-.44,0,2.58,2.58,0,0,0-.39,0c-.15,0-.31,0-.47.05A.92.92,0,0,0,25,57a.51.51,0,0,0-.19.3c0,.11-.11.2-.11.31a.72.72,0,0,0,.16.38c.05.09.15.24.13.34s-.15.18-.21.23c-.22.18-.47.31-.7.47a1.51,1.51,0,0,1-.8.34c-.29,0-.55-.12-.85-.11-.14,0-.3,0-.44,0l-.42-.08c-.3,0-.44-.33-.66-.5s-.23-.11-.18-.21.1-.1.13-.15a.62.62,0,0,0,.11-.17.46.46,0,0,0,.11-.3,1.46,1.46,0,0,1,0-.2,1.64,1.64,0,0,1,0-.22c0-.13.13-.21.16-.33a.74.74,0,0,0-.1-.35c0-.12-.13-.24-.18-.36a.88.88,0,0,0-.05-.15s-.07-.06-.08-.12a1.53,1.53,0,0,1,.08-.37.41.41,0,0,0-.15-.33c-.12-.12-.28-.44-.08-.55a1.78,1.78,0,0,1,.33-.09,1.47,1.47,0,0,0,.4-.19c.22-.16.23-.47.3-.71a1.33,1.33,0,0,0,.12-.37.54.54,0,0,0-.13-.32l-.22-.3c-.09-.13-.22-.23-.24-.39a1.29,1.29,0,0,1,.08-.39c0-.16,0-.22-.11-.33a.88.88,0,0,0-.6-.39.81.81,0,0,1-.39-.1l-.15-.1c-.05,0-.13-.06-.16-.11A.24.24,0,0,0,20,51c-.13-.12-.38,0-.53,0a.89.89,0,0,1-.51-.1l-.24-.14-.24-.1A5.21,5.21,0,0,1,18,50.4a1.25,1.25,0,0,0-1.07-.19c-.18.08-.34.19-.51.28a1.35,1.35,0,0,0-.26.15c-.06.06-.1.13-.15.19a.93.93,0,0,1-.46.29c-.19.06-.34-.15-.53-.19a1,1,0,0,0-.54,0,.67.67,0,0,1-.52,0c-.3-.16-.3-.59-.65-.71a2.57,2.57,0,0,1-.47-.15,5.46,5.46,0,0,0-.6-.27,1.3,1.3,0,0,0-.59,0,.41.41,0,0,1-.19,0c-.11,0-.13-.05-.18-.14a.44.44,0,0,0-.41-.23,3,3,0,0,1-.59.06,1.11,1.11,0,0,1-.29-.1l-.19-.08a2.62,2.62,0,0,0-.51-.3,2.54,2.54,0,0,1-.47-.14c-.07,0-.09-.1-.14-.16a.38.38,0,0,0-.21-.12c-.12,0-.34,0-.39-.17s0-.16.06-.24a1,1,0,0,1,.1-.26c.1-.17.15-.37.25-.54a1.05,1.05,0,0,1,.36-.3.66.66,0,0,0,.29-.26,1.71,1.71,0,0,0,.07-.64,4.17,4.17,0,0,1,.09-.51,2.44,2.44,0,0,0,0-.66,3.82,3.82,0,0,1,0-.59,1.29,1.29,0,0,0,0-.48c-.06-.16-.23-.23-.33-.35s-.21-.33-.33-.49a3.15,3.15,0,0,0-.38-.35c-.16-.15-.31-.31-.48-.45s-.3-.24-.44-.36-.32-.3-.3-.46.2-.24.31-.29a2.24,2.24,0,0,1,.57-.13A5,5,0,0,1,8.51,41a3.18,3.18,0,0,0,.62,0l.63-.14a2.51,2.51,0,0,1,.27,0,.18.18,0,0,0,.16-.15.75.75,0,0,1,.13-.32c.13-.13.31,0,.37.15.15.3.1.75.54.76.21,0,.43,0,.64,0s.4,0,.45-.18a.76.76,0,0,0,0-.26.46.46,0,0,1,.05-.21,3.9,3.9,0,0,1,.45-.46l.41-.39a4.91,4.91,0,0,1,.48-.43,2.25,2.25,0,0,1,.47-.28c.17-.07.36-.08.52-.16a.94.94,0,0,0,.38-.41,2.93,2.93,0,0,1,.36-.43,1.91,1.91,0,0,1,.46-.3,2.47,2.47,0,0,0,.53-.29.87.87,0,0,0,.19-1c-.11-.31-.53-.49-.45-.86a.82.82,0,0,1,.24-.41,1.21,1.21,0,0,0,.16-.16c.07-.07.06-.11,0-.19a1.6,1.6,0,0,0-.1-.23c0-.06-.08-.09-.08-.17a.41.41,0,0,1,.24-.36,2.18,2.18,0,0,0,.9-.68,3.89,3.89,0,0,0,.27-.54,1,1,0,0,0,.13-.59c0-.15-.31-.15-.42-.1a.79.79,0,0,1-.49.11c-.13,0-.1-.11,0-.21a.43.43,0,0,0,.09-.22.39.39,0,0,0-.06-.21s-.08-.1-.09-.14,0-.07.06-.11a1.46,1.46,0,0,1,.44-.16,4.53,4.53,0,0,0,.59-.28.58.58,0,0,0,.29-.29c0-.06,0-.15,0-.22a.45.45,0,0,0,0-.23c-.08-.14-.31-.19-.46-.24s-.39-.1-.59-.16a1.13,1.13,0,0,1-.47-.22.46.46,0,0,1-.1-.43,2.82,2.82,0,0,1,.33-.36.67.67,0,0,0,.22-.52,3.33,3.33,0,0,0-.1-.55c-.05-.21-.08-.43-.12-.65C17,27,17,27,17,26.88Z"/></g></svg>