<svg width="100" height="100" viewBox="0 0 100 100" fill="none" xmlns="http://www.w3.org/2000/svg">
<rect width="100" height="100" fill="white"/>
<path d="M96 66.547C94.9163 66.7253 93.8057 66.4905 92.8855 65.8894C92.4043 65.3192 92.0633 64.6434 91.8909 63.9169C91.7602 63.4304 91.2629 62.2863 90.8182 62.9438C90.3735 63.6013 90.6875 64.2589 90.7006 64.9032H90.6999C90.724 65.8748 90.6094 66.8442 90.3596 67.7828C90.2158 68.3354 90.085 69.0978 89.3782 68.8483C88.8809 68.6641 88.5669 68.1512 88.0696 67.9802C87.324 67.7175 87.638 68.6905 87.6249 69.1639C87.6424 69.6152 87.5569 70.065 87.3759 70.4789C86.8179 71.5921 85.8438 72.4383 84.6674 72.833C84.092 72.9908 84.3797 73.0957 84 72.5835C82.5344 70.6374 82.8616 68.1783 82.901 65.8902V65.8894C82.9236 65.1468 82.7381 64.4129 82.3642 63.7722C81.9582 63.4435 81.2915 63.9696 80.9512 64.1802C80.6109 64.3909 80.5328 65.1401 80.1268 65.4953C79.7207 65.8504 79.1585 65.4953 78.648 65.587C77.7579 65.7844 78.177 67.2572 78.0726 67.8618H78.0719C77.7885 69.0712 77.3482 70.2387 76.7633 71.3335C76.5931 71.7283 76.3054 72.8196 75.9388 73.0302C75.5722 73.2408 74.5126 73.0302 74.1329 73.0302C74.0153 73.0302 73.897 73.0302 73.832 72.9384V72.9377C73.7897 72.8768 73.7546 72.81 73.7276 72.7403C73.5706 72.0828 73.4136 71.4252 73.2435 70.7942C73.2194 70.6614 73.1756 70.5322 73.1128 70.4126C72.825 69.8997 72.197 70.0575 71.8699 69.7023C71.5427 69.3471 71.6997 68.0717 70.9279 68.3872C70.4174 68.65 70.3393 69.4264 69.6193 69.3339L68.3107 69.1761C67.7739 69.0844 67.6038 68.479 67.0934 68.9391L67.0926 68.9398C66.5486 69.5298 66.3244 70.3495 66.4909 71.1361C66.5822 72.6354 66.4909 73.0037 64.8289 72.4512C63.9518 72.1488 64.2271 71.3203 64.1877 70.61C64.1804 69.7866 63.7225 69.0337 62.9967 68.6506C62.2117 68.2169 62.709 66.5071 62.0415 66.2576C61.3741 66.0081 60.7329 67.7304 60.5891 68.164C59.9311 69.8173 59.8983 71.6564 60.4978 73.3325C60.5365 73.4653 60.5628 73.6018 60.5759 73.7398C60.4211 75.4034 59.539 76.9107 58.1683 77.8558C57.6111 78.0562 57.0963 78.3592 56.6501 78.7504C56.1791 79.4343 56.8466 80.1571 57.108 80.8022V80.8015C57.4359 81.6212 57.3584 82.548 56.8991 83.3002C56.3485 83.0515 55.8374 82.7234 55.381 82.3272C55.2941 82.2618 55.1889 82.2244 55.0801 82.2222C55.0005 82.2281 54.9238 82.2552 54.8574 82.3007C54.049 82.7528 53.1595 83.039 52.2402 83.1424C51.5223 83.1777 50.8213 83.3707 50.186 83.7082C49.5712 84.0766 49.6493 84.1551 48.8774 83.9188V83.9181C48.386 83.6613 47.8683 83.4587 47.333 83.3134C46.0244 83.2085 47.2541 85.4569 46.456 85.8642H46.4567C46.2734 85.9369 46.0762 85.964 45.8805 85.9435C44.9254 85.9435 43.9571 85.9435 43.002 85.8385C41.8241 85.8385 41.6934 84.7862 41.1303 83.9321C40.5673 83.0772 38.5131 83.5505 37.5711 83.5241C37.3615 83.5241 36.4721 84.6946 36.2625 84.9309C35.7053 85.6111 35.303 86.4059 35.0846 87.2587C34.5479 88.8232 31.4466 87.4561 30.3739 87.2587C29.5085 86.9387 28.6929 86.4962 27.9532 85.9436C26.5401 85.1548 25.1528 84.2998 23.7915 83.4317C23.0094 83.0802 22.2857 82.6098 21.6454 82.0382C21.0568 81.0123 21.9988 79.6972 21.6848 78.645C21.6271 78.5312 21.5614 78.4212 21.4883 78.3162C20.6508 77.0012 19.8526 75.7654 19.0018 74.4628H18.923C18.7528 73.963 18.5958 72.8586 18.0985 72.6216C17.3916 72.2796 15.9917 72.0433 16.0311 71.162L16.0318 71.1627C16.1845 70.5991 16.3955 70.0524 16.6599 69.5321C16.7774 69.1902 17.1046 67.9148 16.8957 67.6389L16.895 67.6381C15.969 66.7223 15.1716 65.6825 14.5268 64.548C14.3829 63.6336 14.3829 62.7017 14.5268 61.7866C14.5589 61.6707 14.5589 61.5474 14.5268 61.4314C14.4845 61.3544 14.4268 61.2869 14.3567 61.234C13.5614 60.4407 12.6837 59.7355 11.7395 59.1301L8.31094 56.947C7.86476 56.6667 7.45143 56.3357 7.08048 55.9607C6.41304 55.2636 6.07275 54.7374 5 54.6457H8.78184C10.3504 54.6728 11.9081 54.3822 13.3619 53.7915C15.0525 53.1347 16.6261 52.2064 18.0202 51.0425C18.6292 50.2441 18.9724 49.2732 19.0016 48.2678C19.1323 47.2947 19.2499 46.3217 19.3813 45.3486C19.3989 45.2202 19.439 45.0954 19.4989 44.9802C19.6953 44.6911 20.1006 44.5465 20.3759 44.3491C20.6505 44.1517 20.3759 43.9939 20.3759 43.7576C20.3759 43.1397 21.2267 42.7449 21.2267 42.2584C21.2267 41.7719 19.8392 41.1276 19.4339 40.9434C18.6883 40.4965 17.4974 40.1413 17.0913 39.2996C16.7905 38.113 16.9248 36.8566 17.4711 35.7617C17.5463 35.5805 17.6434 35.408 17.7588 35.2488C18.1933 34.5311 18.8505 33.9763 19.6305 33.671C20.0233 33.5661 20.5856 33.671 20.8602 33.4472C21.1347 33.2234 21.3312 32.3949 21.6058 31.8952V31.8959C22.206 31.0146 23.0217 30.3035 23.9747 29.8309C24.8057 29.3136 25.4695 28.5643 25.8851 27.6743C26.1078 27.2406 26.2779 26.7797 26.4736 26.3592C26.9446 25.2019 29.0908 25.7149 29.9547 26.0305C30.5849 26.3233 31.0807 26.845 31.3422 27.4908C31.6693 28.069 31.9307 28.9636 32.6507 28.5299C33.3708 28.0962 33.7111 27.0703 34.1952 26.2814C34.6794 25.4925 35.674 25.1505 36.6554 24.7036L36.6546 24.7029C37.4513 24.2171 38.2166 23.6814 38.9447 23.098C40.0306 22.3876 41.1558 21.7829 42.2951 21.0858V21.0865C43.1852 20.5714 43.9739 19.8992 44.6246 19.1008C46.4305 16.9308 48.93 15.5373 50.9449 13.6036C51.6255 12.9593 52.5675 13.4458 53.3656 13.1567C54.1638 12.8675 54.2426 11.7756 54.8838 11.2503C55.3154 10.9083 56.0354 11.4477 56.4407 11.6054L56.4414 11.6047C57.2892 11.8982 58.21 11.8982 59.0586 11.6047C59.3595 11.513 60.1189 11.0264 60.3672 11.0917C61.0215 11.2231 60.6549 12.315 61.5582 11.9863L64.1754 11C64.3193 11.2627 65.484 11.4601 65.8112 11.6179C66.426 11.9467 67.1198 12.2622 67.6696 12.591C68.2195 12.9197 68.8344 14.4974 69.201 15.221H69.2002C69.577 16.7709 70.1809 18.2554 70.993 19.6262C71.9693 21.1328 73.3735 22.3106 75.0233 23.0062C75.7301 23.1728 76.4713 23.1134 77.1432 22.8353C77.5492 22.7039 78.1378 22.4148 78.5431 22.7039C78.9491 22.993 78.9096 23.4407 79.0535 23.743V23.7423C79.4566 24.5282 79.8151 25.3362 80.127 26.1625C80.3395 26.8868 80.7002 27.559 81.1866 28.1351C81.7496 28.6612 82.2856 29.2131 82.8223 29.7789C82.9245 29.8867 83.0341 29.9873 83.1495 30.0812C83.3313 30.1905 83.5241 30.2786 83.7256 30.3439C84.81 30.6712 85.8762 31.0572 86.9182 31.5012C87.5199 31.7903 87.7427 31.9092 87.2716 32.4214C86.2113 33.6051 86.12 35.3406 85.7929 36.8134V36.8142C85.7608 36.9617 85.7608 37.1136 85.7929 37.2611C85.836 37.4049 85.9075 37.5392 86.0025 37.6559L87.4155 39.5492C87.8449 40.1047 88.2217 40.6991 88.5408 41.3243C89.022 42.8888 88.9052 44.5766 88.2136 46.059C87.9778 46.6637 87.7295 46.7826 88.3181 47.1634H88.3188C89.0724 47.658 89.7902 48.2077 90.4649 48.8072C91.8151 50.0151 93.0384 51.3588 94.1153 52.8185C94.1679 52.8698 94.2081 52.9329 94.2329 53.0019C94.2526 53.0973 94.2526 53.1964 94.2329 53.2918C93.8671 54.4571 93.6772 55.6724 93.6706 56.895C93.7027 57.0799 93.7553 57.2604 93.8276 57.4336C94.2833 58.425 94.6638 59.4494 94.9661 60.498L95.6598 64.5482L96 66.547Z" fill="black"/>
</svg>
