<svg xmlns="http://www.w3.org/2000/svg" viewBox="0 0 100 100"><g id="Sarlahi"><path d="M8,57c.24.44.77.65,1.2.92l3.34,2a15.23,15.23,0,0,1,2.52,2,.82.82,0,0,1,.17.2.74.74,0,0,1,0,.33,8.76,8.76,0,0,0,0,2.66c.4,1,1.64,2,2.35,2.92.21.27-.09,1.5-.19,1.84a6.9,6.9,0,0,0-.58,1.57c0,.85,1.32,1,2,1.37.48.21.65,1.27.83,1.75l2.55,3.72a3.3,3.3,0,0,1,.18.32c.36,1-.54,2.25.17,3.21.38.53,1.54,1,2.1,1.31,1.33.81,2.68,1.6,4.06,2.34a9.59,9.59,0,0,0,2.35,1.27c1.06.15,4.08,1.4,4.56-.1a6.13,6.13,0,0,1,1.09-2.27c.21-.22,1-1.37,1.25-1.37.86,0,2.88-.57,3.45.33s.7,1.77,1.83,1.79c.93,0,1.86,0,2.79,0a1.07,1.07,0,0,0,.56-.08c.75-.4-.52-2.54.8-2.47a8,8,0,0,1,1.5.56c.7.2.62.13,1.21-.23a4.64,4.64,0,0,1,2-.58,6.71,6.71,0,0,0,2.45-.86.83.83,0,0,1,.22-.08.56.56,0,0,1,.28.1,6.33,6.33,0,0,0,1.5.83,2.67,2.67,0,0,0,.16-2.4c-.27-.61-.92-1.3-.47-2a4.26,4.26,0,0,1,1.44-.89,5.37,5.37,0,0,0,2.24-4,1.78,1.78,0,0,0-.07-.39c-.44-1.7-.77-3.3,0-5,.19-.42.86-2,1.37-1.86s.18,1.89,1,2.28A2.17,2.17,0,0,1,63.44,70c.05.67-.2,1.48.66,1.75,1.55.49,1.69.14,1.57-1.3a2.35,2.35,0,0,1,.54-2.12c.49-.45.66.13,1.18.2s.86.09,1.28.13c.73.08.78-.67,1.29-.93.74-.38.58.8.93,1.18s.93.17,1.21.66a1.22,1.22,0,0,1,.14.36l.51,1.86a.46.46,0,0,0,.09.2.42.42,0,0,0,.29.07c.38,0,1.45.2,1.76,0s.6-1.26.77-1.64a14.17,14.17,0,0,0,1.14-3.36c.09-.58-.34-2,.51-2.19.5-.12.93.27,1.43-.12s.35-1,.78-1.24,1-.72,1.36-.42a4,4,0,0,1,.55,2c0,2.2-.27,4.56,1.19,6.41.37.48.09.39.64.22a4.5,4.5,0,0,0,2.58-2.3,2.85,2.85,0,0,0,.21-1.23c0-.46-.31-1.39.42-1.15.47.15.78.64,1.25.81.7.25.81-.5.94-1a10,10,0,0,0,.28-2.78c0-.56-.26-1.37.07-1.88s.92.45,1.06.91a4.65,4.65,0,0,0,1,2c.65.64,2.17.66,3,.56l-.39-1.94-.75-3.87a18.22,18.22,0,0,0-1-3,2,2,0,0,1-.16-.53,11.82,11.82,0,0,1,.48-3.47.61.61,0,0,0,0-.27.49.49,0,0,0-.11-.18,26.28,26.28,0,0,0-3.59-3.79,20.19,20.19,0,0,0-2.12-1.55c-.56-.35-.33-.47-.12-1.06.5-1.39.9-3.17.23-4.56a9.69,9.69,0,0,0-1.11-1.67L84.1,38a1.22,1.22,0,0,1-.22-.38,1,1,0,0,1,0-.43c.3-1.42.34-3.09,1.35-4.24.44-.51.22-.62-.36-.88A28.31,28.31,0,0,0,81.8,31a2.09,2.09,0,0,1-.55-.24,2.22,2.22,0,0,1-.33-.28c-.53-.54-1.06-1.06-1.61-1.56A4.77,4.77,0,0,1,78.25,27a24.26,24.26,0,0,0-1.08-2.31c-.15-.29-.24-.79-.52-1s-1,0-1.34.14a3.36,3.36,0,0,1-2,.22,8.76,8.76,0,0,1-4-3.18,15.69,15.69,0,0,1-1.8-4.21c-.37-.71-.8-2.17-1.53-2.53l-1.81-.89c-.3-.15-1.45-.32-1.6-.57L60,13.7c-.87.34-.53-.72-1.17-.84-.28,0-1,.43-1.31.52a3.87,3.87,0,0,1-2.58.1c-.4-.15-1.1-.65-1.51-.31-.62.51-.53,1.51-1.43,1.86s-1.69-.17-2.33.47c-1.91,1.9-4.31,3.28-6,5.39a8.16,8.16,0,0,1-2.22,2c-1.08.64-2.16,1.28-3.2,2a19.42,19.42,0,0,1-2.19,1.6c-.93.43-1.81.62-2.35,1.56-.44.76-.63,1.72-1.44,2.19s-1-.43-1.34-1a2.66,2.66,0,0,0-1.35-1.39c-.82-.28-2.93-.73-3.37.39-.17.44-.33.88-.54,1.31a5,5,0,0,1-1.81,2.11,5.84,5.84,0,0,0-2.25,2c-.26.49-.27,1.11-.69,1.51-.26.25-.81.13-1.18.24a3.58,3.58,0,0,0-1.82,1.53,2.57,2.57,0,0,0-.29.44,4.91,4.91,0,0,0-.3,3.41c.41.79,1.56,1.12,2.29,1.53.4.23,1.75.73,1.76,1.29s-.79.86-.79,1.45c0,.23.34.33,0,.57s-.65.34-.83.62a.76.76,0,0,0-.11.36l-.32,2.81c-.09.77-.26,2.14-.9,2.69A16.18,16.18,0,0,1,14,54.81a11.12,11.12,0,0,1-4.41.91H5.92A3.15,3.15,0,0,1,8,57Z"/></g></svg>