<?xml version="1.0" encoding="UTF-8"?>
<svg width="700pt" height="700pt" version="1.1" viewBox="0 0 700 700" xmlns="http://www.w3.org/2000/svg">
 <path d="m593.53 441c-5.7969 0.94922-11.738-0.30078-16.66-3.5-2.5742-3.0352-4.3984-6.6328-5.3203-10.5-0.69922-2.5898-3.3594-8.6797-5.7383-5.1797s-0.69922 7-0.62891 10.43h-0.003906c0.12891 5.1719-0.48438 10.332-1.8203 15.328-0.76953 2.9414-1.4688 7-5.25 5.6719-2.6602-0.98047-4.3398-3.7109-7-4.6211-3.9883-1.3984-2.3086 3.7812-2.3789 6.3008 0.09375 2.4023-0.36328 4.7969-1.332 7-2.9844 5.9258-8.1953 10.43-14.488 12.531-3.0781 0.83984-1.5391 1.3984-3.5703-1.3281-7.8398-10.359-6.0898-23.449-5.8789-35.629v-0.003906c0.12109-3.9531-0.87109-7.8594-2.8711-11.27-2.1719-1.75-5.7383 1.0508-7.5586 2.1719s-2.2383 5.1094-4.4102 7-5.1797 0-7.9102 0.48828c-4.7617 1.0508-2.5195 8.8906-3.0781 12.109h-0.003906c-1.5156 6.4375-3.8711 12.652-7 18.48-0.91016 2.1016-2.4492 7.9102-4.4102 9.0312-1.9609 1.1211-7.6289 0-9.6602 0-0.62891 0-1.2617 0-1.6094-0.48828v-0.003907c-0.22656-0.32422-0.41406-0.67969-0.55859-1.0508-0.83984-3.5-1.6797-7-2.5898-10.359-0.12891-0.70703-0.36328-1.3945-0.69922-2.0312-1.5391-2.7305-4.8984-1.8906-6.6484-3.7812s-0.91016-8.6797-5.0391-7c-2.7305 1.3984-3.1484 5.5312-7 5.0391l-7-0.83984c-2.8711-0.48828-3.7812-3.7109-6.5117-1.2617l-0.003906 0.003906c-2.9102 3.1406-4.1094 7.5039-3.2188 11.691 0.48828 7.9805 0 9.9414-8.8906 7-4.6914-1.6094-3.2188-6.0195-3.4297-9.8008-0.039063-4.3828-2.4883-8.3906-6.3711-10.43-4.1992-2.3086-1.5391-11.41-5.1094-12.738-3.5703-1.3281-7 7.8398-7.7695 10.148-3.5195 8.8008-3.6953 18.59-0.48828 27.512 0.20703 0.70703 0.34766 1.4336 0.41797 2.168-0.82812 8.8555-5.5469 16.879-12.879 21.91-2.9805 1.0664-5.7344 2.6797-8.1211 4.7617-2.5195 3.6406 1.0508 7.4883 2.4492 10.922v-0.003906c1.7539 4.3633 1.3398 9.2969-1.1172 13.301-2.9453-1.3242-5.6797-3.0703-8.1211-5.1797-0.46484-0.34766-1.0273-0.54688-1.6094-0.55859-0.42578 0.03125-0.83594 0.17578-1.1914 0.41797-4.3242 2.4062-9.082 3.9297-14 4.4805-3.8398 0.1875-7.5898 1.2148-10.988 3.0117-3.2891 1.9609-2.8711 2.3789-7 1.1211v-0.003906c-2.6289-1.3672-5.3984-2.4453-8.2617-3.2188-7-0.55859-0.42188 11.41-4.6914 13.578h0.003907c-0.98047 0.38672-2.0352 0.53125-3.082 0.42188-5.1094 0-10.289 0-15.398-0.55859-6.3008 0-7-5.6016-10.012-10.148-3.0117-4.5508-14-2.0312-19.039-2.1719-1.1211 0-5.8789 6.2305-7 7.4883-2.9805 3.6211-5.1328 7.8516-6.3008 12.391-2.8711 8.3281-19.461 1.0508-25.199 0-4.6289-1.7031-8.9922-4.0586-12.949-7-7.5586-4.1992-14.98-8.75-22.262-13.371-4.1836-1.8711-8.0547-4.375-11.48-7.418-3.1484-5.4609 1.8906-12.461 0.21094-18.062-0.30859-0.60547-0.66016-1.1914-1.0508-1.75-4.4805-7-8.75-13.578-13.301-20.512h-0.42188c-0.91016-2.6602-1.75-8.5391-4.4102-9.8008-3.7812-1.8203-11.27-3.0781-11.059-7.7695l0.003907 0.003906c0.81641-3 1.9453-5.9102 3.3594-8.6797 0.62891-1.8203 2.3789-8.6094 1.2617-10.078l-0.003906-0.003906c-4.9531-4.875-9.2188-10.41-12.668-16.449-0.76953-4.8672-0.76953-9.8281 0-14.699 0.17187-0.61719 0.17187-1.2734 0-1.8906-0.22656-0.41016-0.53516-0.76953-0.91016-1.0508-4.2539-4.2227-8.9492-7.9766-14-11.199l-18.34-11.621c-2.3867-1.4922-4.5977-3.2539-6.582-5.25-3.5703-3.7109-5.3906-6.5117-11.129-7h20.23c8.3906 0.14453 16.723-1.4023 24.5-4.5469 9.043-3.4961 17.461-8.4375 24.918-14.633 3.2578-4.25 5.0938-9.418 5.25-14.77 0.69922-5.1797 1.3281-10.359 2.0312-15.539 0.09375-0.68359 0.30859-1.3477 0.62891-1.9609 1.0508-1.5391 3.2188-2.3086 4.6914-3.3594 1.4688-1.0508 0-1.8906 0-3.1484 0-3.2891 4.5508-5.3906 4.5508-7.9805 0-2.5898-7.4219-6.0195-9.5898-7-3.9883-2.3789-10.359-4.2695-12.531-8.75-1.6094-6.3164-0.89063-13.004 2.0312-18.832 0.40234-0.96484 0.92187-1.8828 1.5391-2.7305 2.3242-3.8203 5.8398-6.7734 10.012-8.3984 2.1016-0.55859 5.1094 0 6.5781-1.1914s2.5195-5.6016 3.9883-8.2617v0.003906c3.2109-4.6914 7.5742-8.4766 12.672-10.992 4.4453-2.7539 7.9961-6.7422 10.219-11.48 1.1914-2.3086 2.1016-4.7617 3.1484-7 2.5195-6.1602 14-3.4297 18.621-1.75 3.3711 1.5586 6.0234 4.3359 7.4219 7.7734 1.75 3.0781 3.1484 7.8398 7 5.5312 3.8516-2.3086 5.6719-7.7695 8.2617-11.969 2.5898-4.1992 7.9102-6.0195 13.16-8.3984l-0.003906-0.003906c4.2617-2.5859 8.3555-5.4375 12.25-8.543 5.8086-3.7812 11.828-7 17.922-10.711v0.003907c4.7617-2.7422 8.9805-6.3203 12.461-10.57 9.6602-11.551 23.031-18.969 33.809-29.262 3.6406-3.4297 8.6797-0.83984 12.949-2.3789 4.2695-1.5391 4.6914-7.3516 8.1211-10.148 2.3086-1.8203 6.1602 1.0508 8.3281 1.8906l0.003906-0.003907c4.5352 1.5625 9.4609 1.5625 14 0 1.6094-0.48828 5.6719-3.0781 7-2.7305 3.5 0.69922 1.5391 6.5117 6.3711 4.7617l14-5.25c0.76953 1.3984 7 2.4492 8.75 3.2891 3.2891 1.75 7 3.4297 9.9414 5.1797s6.2305 10.148 8.1914 14h-0.003906c2.0156 8.25 5.2461 16.152 9.5898 23.449 5.2227 8.0195 12.734 14.289 21.559 17.992 3.7812 0.88672 7.7461 0.57031 11.34-0.91016 2.1719-0.69922 5.3203-2.2383 7.4883-0.69922 2.1719 1.5391 1.9609 3.9219 2.7305 5.5312v-0.003906c2.1562 4.1836 4.0742 8.4844 5.7422 12.883 1.1367 3.8555 3.0664 7.4336 5.668 10.5 3.0117 2.8008 5.8789 5.7383 8.75 8.75 0.54688 0.57422 1.1328 1.1094 1.75 1.6094 0.97266 0.58203 2.0039 1.0508 3.082 1.3984 5.8008 1.7422 11.504 3.7969 17.078 6.1602 3.2188 1.5391 4.4102 2.1719 1.8906 4.8984-5.6719 6.3008-6.1602 15.539-7.9102 23.379v0.003907c-0.17188 0.78516-0.17188 1.5938 0 2.3789 0.23047 0.76562 0.61328 1.4805 1.1211 2.1016l7.5586 10.078c2.2969 2.957 4.3125 6.1211 6.0195 9.4492 2.5742 8.3281 1.9492 17.312-1.75 25.203-1.2617 3.2188-2.5898 3.8516 0.55859 5.8789h0.003906c4.0312 2.6328 7.8711 5.5586 11.48 8.75 7.2227 6.4297 13.766 13.582 19.527 21.352 0.28125 0.27344 0.49609 0.60938 0.62891 0.97656 0.10547 0.50781 0.10547 1.0352 0 1.543-1.957 6.2031-2.9727 12.672-3.0078 19.18 0.17188 0.98438 0.45313 1.9453 0.83984 2.8672 2.4375 5.2773 4.4727 10.73 6.0898 16.312l3.7109 21.559z"/>
</svg>
