<svg xmlns="http://www.w3.org/2000/svg" viewBox="0 0 100 100"><g id="Baara"><path d="M74.64,23.85c.16.21,0,.48-.06.7a4.81,4.81,0,0,0-.17.84,2.56,2.56,0,0,1-.29.8,2,2,0,0,0-.2,1A17.17,17.17,0,0,1,74.05,29a2.37,2.37,0,0,1-.21.88,6.07,6.07,0,0,0-.43.89,6.36,6.36,0,0,1-.25.88,4.27,4.27,0,0,0-.32.84,2.26,2.26,0,0,0,.46,1.75c.37.49.9.13,1.4.18a5.18,5.18,0,0,1,1,.28,3.11,3.11,0,0,1,.92.39,4.32,4.32,0,0,0,1.79.6l1,.13a1.64,1.64,0,0,0,.82,0,1.78,1.78,0,0,0,.57-.45q.33-.33.69-.63c.51-.43,1-.86,1.57-1.25A2.6,2.6,0,0,1,84.65,33a7.21,7.21,0,0,1,2,.11c.62.18,1.29.12,1.9.31s1.23.46,1.85.67,3.85.74,3.2,2.08c-.09.18-.25.15-.43.17a7.74,7.74,0,0,0-.84.14c-.33.06-.67,0-1,.06a3.07,3.07,0,0,0-1.43.56,12.94,12.94,0,0,0-1.21,1.13c-.45.4-.94.74-1.39,1.14a2.82,2.82,0,0,0-.93,1.58,2.33,2.33,0,0,0,0,.91,2.56,2.56,0,0,1,.1.87c-.07.53-.46.69-.82,1s-.3.88-.24,1.4a4.65,4.65,0,0,1,0,1.93,1.94,1.94,0,0,1-.47.67,9.11,9.11,0,0,0-.58.77,3.17,3.17,0,0,1-1.08,1.19,10,10,0,0,1-1.68.64,1,1,0,0,1-.66,0c-.28-.13-.26-.46-.49-.6s-.51,0-.69.06a3.31,3.31,0,0,0-.83.39,7.94,7.94,0,0,0-1.49,1.22,3.79,3.79,0,0,1-1.37,1c-.63.23-1.3.4-1.94.61a2.65,2.65,0,0,0-.81.35c-.25.19-.47.39-.73.55A7.66,7.66,0,0,0,71,55.06,5.36,5.36,0,0,0,70,56.55a14.1,14.1,0,0,1-1,1.76,1.7,1.7,0,0,1-1.25.74,1.3,1.3,0,0,0-.66.22,2.27,2.27,0,0,1-.79.48c-1.17.32-2.34-.15-3.5-.3a2.47,2.47,0,0,0-1.47.17c-.49.26-.57.7-.69,1.2a2,2,0,0,1-.27.67,1.6,1.6,0,0,0-.37.72c0,.29.18.5.23.78s-.2.48-.29.77c-.19.6.62.95.35,1.55-.07.17-.23.23-.32.38s.13.41.24.63c.23.49-.15,1.14-.45,1.52s-.79.63-.86,1.07c0,.24.16.39.28.57s.12.4.23.57.28.12.21.23-.37,0-.46,0a2.2,2.2,0,0,1-1-.54A8.3,8.3,0,0,0,57,68.42a1.72,1.72,0,0,0-1.5-.15,1.4,1.4,0,0,0-1.05,1.06c-.12.49-.15,1.14-.64,1.42s-1,.14-1.43.44a3.71,3.71,0,0,0-.58.54c-.12.13-.24.3-.43.27-.35-.06-.47-.63-.88-.38a1.46,1.46,0,0,0-.48,1.3,2.54,2.54,0,0,1,0,.87c-.07.33-.23.64-.3,1a4.3,4.3,0,0,0-.08.88,1,1,0,0,1-.12.63c-.15.19-.37.19-.44.46s0,.58,0,.87a2,2,0,0,1-1,1.08,4.22,4.22,0,0,1-1.8.75,6.35,6.35,0,0,1-1.79-.11c-.26,0-.47-.1-.55-.38,0-.11,0-.24-.05-.35a1,1,0,0,0-.31-.41c-.48-.37-.92.08-1.4.18-.28,0-.58,0-.87,0a4.91,4.91,0,0,0-1,.33,5.12,5.12,0,0,1-1.79,0,2.89,2.89,0,0,0-.88,0c-.26.07-.53.32-.82.19s-.29-.3-.41-.46a3.47,3.47,0,0,0-.58-.57,4.34,4.34,0,0,0-1.52-.63c-.26-.08-.75-.14-.68-.51,0-.2.31-.38.16-.6s-.46-.12-.65-.09a.72.72,0,0,0-.55.29c-.12.19-.12.43-.33.54a.75.75,0,0,1-.76-.11c-.22-.21,0-.39-.1-.62s-.67-.27-.94-.26c-.56,0-1.12.08-1.68.1a16.35,16.35,0,0,1-2.1,0,3.36,3.36,0,0,0-1,0c-.38.07-.73.2-1.11.24-.61.07-1.22,0-1.83,0a5.63,5.63,0,0,1-2.08.16c-.63-.15-1.22-.36-1.87-.46a21.51,21.51,0,0,0-2.27-.21c-.62,0-1.23,0-1.85,0-.46,0-1.37.07-1.67-.37a3.24,3.24,0,0,1-.21-.69,2.29,2.29,0,0,0-.41-.73,5.5,5.5,0,0,1-.68-1.85,6.77,6.77,0,0,0-.72-1.6A11.59,11.59,0,0,0,9.67,69,6.77,6.77,0,0,0,8.38,67.8a5.68,5.68,0,0,0-1.6-.68c-.23-.06-.38-.09-.27-.35A3.05,3.05,0,0,1,7,66.2c.39-.46.79-1,1.45-1.1s1.18.17,1.77.12a6.71,6.71,0,0,0,1.72-.58l.88-.37a1.12,1.12,0,0,0,.57-.43c.2-.42,0-.92.18-1.36.37-.85,1.31-1.12,2.07-1.48s1.39-.79,1.07-1.61a2.59,2.59,0,0,0-1.15-1.27,2.44,2.44,0,0,1-.92-1.26c-.25-.63-.43-1.28-.64-1.92a16.48,16.48,0,0,1-.67-2,4.86,4.86,0,0,1,0-2,6.33,6.33,0,0,1,.77-1.51,10.63,10.63,0,0,0,.58-1.84,5.58,5.58,0,0,1,1-1.73A6.73,6.73,0,0,1,17,44.62a7.51,7.51,0,0,0,1.28-.89,1.53,1.53,0,0,0,.29-1.47,2.74,2.74,0,0,0-.38-.69,1.84,1.84,0,0,1-.28-.94c0-.63-.15-1.28-.13-1.91,0-.48.09-1.25.61-1.42A11.74,11.74,0,0,1,20.19,37a7.42,7.42,0,0,0,1.92-.55c.57-.28,1.06-.67,1.61-1s1.13-.44,1.42-.9.28-.92.87-1.09a2.2,2.2,0,0,0,1.34-.74,6,6,0,0,0,.49-1.14c.17-.41.43-.54.82-.26a5.56,5.56,0,0,0,.67.5c.27.16.56.3.84.46a5.69,5.69,0,0,1,1.61,1.31,1.94,1.94,0,0,1,.44.79,2.28,2.28,0,0,1-.07.82,1.75,1.75,0,0,0-.07.72,1.3,1.3,0,0,0,.49.71,6,6,0,0,0,1.45,1,6.08,6.08,0,0,0,2.06.44,3.16,3.16,0,0,0,1.72-.26,7.69,7.69,0,0,0,1.6-1.18,2.79,2.79,0,0,1,.69-.49c.29-.12.62-.14.89-.28.46-.24.43-.74.28-1.17s-.47-1-.11-1.45a4.05,4.05,0,0,1,.61-.56c.26-.23.47-.5.72-.74a4.29,4.29,0,0,1,1.46-.78.61.61,0,0,0,.43-.46c.08-.32,0-.67.09-1a2.13,2.13,0,0,1,.89-1.12c.42-.35.67-.88,1.12-1.21a1.19,1.19,0,0,1,.77-.25c.28,0,.52.2.8.21a1.32,1.32,0,0,0,.8-.32c.31-.21.63-.39.95-.57s1-.54,1-1.11c0-.25-.14-.52-.06-.76s.45-.27.73-.2A1.85,1.85,0,0,0,53,24.17a2.26,2.26,0,0,0,.57-.62,1.14,1.14,0,0,1,.8-.44c.33-.07.67-.1,1-.19s.48-.21.72-.31c.46-.19.6.24.91.47a.45.45,0,0,0,.54,0c.19-.13.21-.42.29-.62a1.73,1.73,0,0,0,.17-.77c0-.33,0-.59.3-.77s.46-.22.67-.32a.63.63,0,0,1,.66,0c.19.12.29.37.46.52a1.21,1.21,0,0,0,.91.27,4.38,4.38,0,0,1,1.73,0c.51.18.78.87,1.35.91s1.05-.43,1.54-.58a5.51,5.51,0,0,1,1.93-.24,4.93,4.93,0,0,1,1.78.42c.29.13.58.27.89.38s.73.16,1.08.3c.56.21,1.1.49,1.67.69.31.11.62.21.93.29S74.49,23.64,74.64,23.85Z"/></g></svg>