<?xml version="1.0" encoding="UTF-8"?>
<svg width="700pt" height="700pt" version="1.1" viewBox="0 0 700 700" xmlns="http://www.w3.org/2000/svg">
 <path d="m592.9 148.47c-6.1719 1.0391-12.508-0.25781-17.777-3.6406-2.8477-3.4062-4.7969-7.4727-5.6719-11.828-0.76953-2.8008-3.6406-9.3086-6.2305-5.6016-2.5898 3.7109-0.69922 7.9102-0.62891 11.199v0.003906c0.12109 5.5469-0.53906 11.086-1.9609 16.449-0.83984 3.2188-1.5391 7.6289-5.6719 6.0898-2.7305-1.1211-4.5508-3.9883-7-4.9688-4.2695-1.5391-2.5195 4.0586-2.5898 7h0.003906c0.03125 2.4023-0.44531 4.7891-1.4023 7-3.2109 6.332-8.7969 11.141-15.539 13.367-3.2891 0.91016-1.6094 1.5391-3.7812-1.3984-8.4688-11.129-6.5781-25.129-6.3711-38.148l0.003906-0.003907c0.11719-4.2422-0.94922-8.4375-3.082-12.109-2.3086-1.8203-6.1602 1.1211-8.0508 2.3086-1.8906 1.1914-2.4492 5.5312-4.7617 7-2.3086 1.4688-5.5312 0-8.5391 0.55859-5.0391 1.1211-2.6602 9.5195-3.2891 12.949v0.003907c-1.6172 7.0703-4.1602 13.895-7.5586 20.301-1.0508 2.2383-2.6602 8.4688-4.6914 9.6602s-8.1914 0-10.43 0c-0.62109 0.054688-1.2422-0.12109-1.75-0.48828-0.27344-0.34375-0.44141-0.75781-0.48828-1.1914l-2.8008-11.059c-0.1875-0.87109-0.46875-1.7148-0.83984-2.5234-1.6797-2.8711-5.3203-1.9609-7-3.9883-1.6797-2.0312-0.98047-9.3086-5.3906-7-3.0781 1.5391-3.4297 5.9492-7.7695 5.3906-2.5195 0-5.0391-0.48828-7.5586-0.91016s-4.0586-3.9219-7-1.3281v-0.003906c-3.1523 3.3789-4.4375 8.0938-3.4297 12.602 0.55859 8.4688 0 10.57-9.5195 7.4883-5.0391-1.6797-3.4297-6.4414-3.6406-10.5-0.10938-4.7148-2.7969-8.9883-7-11.129-4.5508-2.4492-1.6094-12.25-5.3906-14s-7 8.4688-8.3984 10.922h-0.003906c-3.7617 9.4297-3.9336 19.918-0.48828 29.469 0.074219 0.79297 0.074219 1.5898 0 2.3789-0.91797 9.5195-6.0547 18.125-14 23.449-3.1836 1.1562-6.125 2.8906-8.6797 5.1133-2.6602 3.9219 1.1211 8.0508 2.6602 11.691v-0.003907c1.7461 4.6133 1.2812 9.7734-1.2617 14-3.1289-1.3047-6.0742-3.0234-8.75-5.1094-0.32812-0.023438-0.65625 0-0.98047 0.070312-0.45313-0.14062-0.94141-0.14062-1.3984 0-4.5312 2.5117-9.4961 4.1484-14.629 4.8281-4.1172 0.14062-8.1445 1.2461-11.762 3.2227-3.5 2.0312-3.0781 2.4492-7 1.1914v-0.003907c-2.8164-1.457-5.7695-2.6289-8.8203-3.5-7.8398-0.55859-0.48828 12.25-5.0391 14.559v0.003906c-1.0586 0.44922-2.2227 0.59766-3.3594 0.41797-5.4609 0-10.988-0.35156-16.52-0.55859-7 0-7.6992-6.0195-10.641-10.852-2.9414-4.8281-15.469-2.3086-20.23-2.3086-1.2617 0-6.3711 6.6484-7.5586 7.9805-3.2695 3.875-5.6602 8.4102-7 13.301-3.0781 8.8906-21 1.1211-27.09 0-5.0078-1.957-9.7188-4.5938-14-7.8398-8.0508-4.4805-15.961-9.3086-23.801-14-4.4922-1.9883-8.6484-4.6562-12.32-7.9102-4.0586-5.8086 1.3984-13.23-0.69922-19.109-0.25781-0.66797-0.58594-1.3008-0.98047-1.8906l-5.6719-8.6094-5.8789-8.6836-1.8203-2.7305-0.83984-1.3281s0-0.62891-0.55859-0.83984c-0.55859-0.21094-0.69922 0.48828-0.83984 0.76953-0.83203 1.332-1.7695 2.5977-2.8008 3.7812-0.30078 0.33203-0.58203 0.68359-0.83984 1.0508-2.1758 3.1719-4.5117 6.2344-7 9.168-3.1484 3.4414-6.5664 6.625-10.223 9.5195-2.8711 2.2383-8.8906 4.3398-9.0312 8.3984l0.003906 0.003906c-0.078125 11.773-1.4141 23.508-3.9922 35-1.2695 5.3203-3.0039 10.52-5.1797 15.539-1.3281 3.0117-4.6211 7.7695-3.5703 11.27 1.0508 3.5 7.9805 7 10.078 10.711h0.003906c3.1523 4.8555 4.9648 10.457 5.25 16.238-0.097656 0.76172-0.26172 1.5117-0.49219 2.2422-0.83594 5.3867-2.3867 10.637-4.6172 15.609-1.8906 2.7305-7 2.1016-8.2617 4.1289-1.2617 2.0312 1.6094 10.781 1.9609 13.23 1.3281 9.5195 2.3086 19.18 2.9414 28.77 0.76953 13.371-0.42188 26.879 0.48828 40.18 0.007813 3.1055 0.33594 6.2031 0.98047 9.2422 0.69922 2.3086 2.1719 4.2695 2.8711 6.5781 1.75 5.8789-1.4688 14 3.5703 18.48h-0.003906c2.6484 1.918 4.4141 4.8164 4.9023 8.0508v7.5586c0.76953 6.1602 5.6719 8.75 9.5898 12.738 5.7383 5.8789 10.781 12.25 16.031 18.48l3.5703 0.62891 4.8984 0.76953 8.6094 1.4688v0.003907c3.1875 0.37891 6.2734 1.3516 9.1016 2.8711 0.76953 0.42188 1.75 0.62891 2.5195 1.0508 2.4023 1.7344 4.6094 3.7305 6.5781 5.9492l4.0586 3.7812h0.003906c0.95312 0.95313 1.7969 2.0078 2.5195 3.1484 0.62891 0.91016 0.83984 1.8906 1.8203 1.5391 0.98047-0.35156 2.3789-2.1719 3.1484-2.8008 0.76953-0.62891 4.9688-5.3203 6.6484-4.8984 0.31641 0.12891 0.58594 0.34766 0.77344 0.62891l5.8086 7c0.34766 0.46484 0.77344 0.87109 1.2617 1.1914 1.6797 0.60547 3.4648 0.86719 5.25 0.76953l6.5781 0.76953c3.2969-5.7227 6.0391-11.746 8.1914-17.988l2.6602-23.73 7.5586-6.2305c0.42188-2.7305 0.48828-5.4609 0.91016-8.1914 0-1.3281 0-4.3398 1.3984-5.25 2.7305-1.8906 7.7695 3.1484 9.7305 4.6211 7.25 4.9688 14.062 10.543 20.371 16.66l9.8711 10.57c3.0781 3.2891 9.0312 2.1719 13.02 1.8906 3.9883-0.28125 3.5703-1.0508 4.8984-4.4102 2.5156-4.6172 3.9727-9.7344 4.2695-14.98-0.125-1.7695 0.42578-3.5195 1.543-4.8984l7.6992-8.6797v-0.003906c3.5742-3.125 7.7383-5.5039 12.25-7 2.1055-1.1758 4.2773-2.2266 6.5078-3.1484 3.5-0.83984 7.4219 3.2188 9.8008 5.25 2.3789 2.0312 2.8711 2.1719 3.0781 4.7617h0.003907c0.77734 3.957 0.16016 8.0664-1.75 11.617-0.91016 1.3281-3.9883 3.8516-3.4297 5.7383 2.2383 8.0508 19.039 2.1016 19.672 5.3203l-0.003906 0.003906c0.046875 0.62109-0.125 1.2422-0.48828 1.75-1.3281 2.3789-2.4492 4.8281-3.7109 7s-6.3711 6.4414-2.1016 8.8203c2.8008 1.6094 11.898 2.3789 11.551 6.3008v-0.003907c-0.48438 2.7109-0.48438 5.4844 0 8.1914 1.1914 2.1719 5.6719 2.3086 7.8398 2.8711 5.7383 1.1523 11.262 3.1836 16.379 6.0195 2.5195 1.4688 4.5508 4.0586 7 5.3906 5.1992 2.5586 10.941 3.8047 16.73 3.6406 2.1719 0 15.121-2.3789 16.102 0 0.066407 0.15625 0.066407 0.33203 0 0.48828-0.69922 5.8789-1.2617 11.762-1.8203 17.57-0.59375 2.2969-0.59375 4.7031 0 7 1.5586 2.6016 3.4922 4.9609 5.7383 7 1.3281 1.3281 4.4805 5.6016 6.4414 5.7383 0.6875-0.042969 1.3555-0.23438 1.9609-0.55859 3.2695-1.6406 6.4062-3.5352 9.3789-5.668 2.8711-2.0312 5.6719-4.2695 8.4688-6.4414 0.28516-0.17969 0.52344-0.41797 0.70312-0.69922 0.066406-0.30078 0.066406-0.61328 0-0.91016v-13.441c0-1.4688-0.55859-4.8281 0.35156-5.9492 0.91016-1.1211 4.7617-2.1016 7-2.5195h-0.003907c3.2578-0.5625 6.4023-1.6523 9.3086-3.2227 3.9141-3.0117 7.2969-6.6562 10.012-10.777 4.7617-5.8086 9.8711-11.34 14.98-16.801 2.5898-2.8008 5.25-5.4609 7.8398-8.1914 1.6094-1.6094 5.9492-4.7617 6.3008-7 0.070312-0.39062 0.070312-0.79688 0-1.1875-0.007813-5.0273-0.47656-10.043-1.4023-14.98-1.582-4.582-1.332-9.6016 0.70312-14l7.4219-12.738-0.003906-0.003906c0.65625-0.94531 1.1094-2.0195 1.332-3.1484 0.13281-0.64844 0.13281-1.3125 0-1.9609l-1.75-6.3008c-0.24219-1.1094-0.66797-2.1758-1.2617-3.1484-0.80469-1.0625-1.8047-1.9648-2.9414-2.6602-3.8633-2.9141-7.0391-6.6445-9.3086-10.918-0.23047-0.35938-0.375-0.76953-0.42188-1.1914 0.066406-0.54297 0.28516-1.0508 0.63281-1.4688 4.4609-5.3555 9.6445-10.07 15.398-14 0 0 0.35156 0 0.35156-0.42188 0.097656-0.19922 0.097656-0.43359 0-0.62891-1.8906-2.3789-3.9219-4.6211-5.8086-7h-0.003906c-0.21875-0.23438-0.36328-0.52734-0.41797-0.83984 0.015625-0.34375 0.19922-0.65625 0.48828-0.83984 1.6797-1.9609 3.7109-3.8516 5.25-5.8789 1.5391-2.0312 1.3281-2.1719 0.62891-4.4102l0.003906-0.003907c-0.97266-2.5938-1.7461-5.2617-2.3125-7.9766 0-1.4688-0.55859-3.3594 0.69922-4.5508 1.2617-1.1914 4.3398 0 5.6016-1.6797 0.34766-0.53125 0.58594-1.1289 0.69922-1.75l1.8906-7c0.085937-0.39844 0.28125-0.76172 0.55859-1.0508h0.69922l6.5117-1.8906c1.6094-0.48828 2.8711-11.129 3.4297-13.09 1.6094-5.9492 2.9414-11.969 3.9883-18.129h0.003906c0.082031-5.4883 1.3008-10.895 3.5703-15.891 0.99609-1.4492 2.1719-2.7656 3.5-3.9219 2.2891-1.9414 4.8594-3.5234 7.6289-4.6875 2.0312-0.98047 6.0195-1.6094 7.4219-3.3594h-0.003907c0.66406-1.0156 1.0938-2.1641 1.2617-3.3633l3.6406-11.762v0.003906c1.6797-9.375 2.1719-18.922 1.4688-28.422 1.1719-12.418 3.5156-24.699 7-36.68 4.1133-19.156 6.4531-38.652 7-58.238z"/>
</svg>
