<svg xmlns="http://www.w3.org/2000/svg" viewBox="0 0 100 100"><g id="Baara"><path d="M88.8,30.9l0,0a1.16,1.16,0,0,1,0,.84,6.92,6.92,0,0,1-.33.86,6.46,6.46,0,0,1-.42.83,1.9,1.9,0,0,0-.33.79.66.66,0,0,0,.1.41,1.39,1.39,0,0,0,.32.27,7.2,7.2,0,0,1,1.49.94,2.64,2.64,0,0,1,.64,1.61,3.87,3.87,0,0,0,0,.48,1.75,1.75,0,0,0,.17.43,2.46,2.46,0,0,0,.48.75,6.57,6.57,0,0,0,.62.55,1.9,1.9,0,0,1,.29.28,1.36,1.36,0,0,1,.21.37,2.72,2.72,0,0,1,.21.85c0,.16,0,.32,0,.47s0,.31,0,.47a1.65,1.65,0,0,1-.72,1.36,5,5,0,0,1-.63.37l-.89.4c-.28.13-.58.25-.86.39a2.1,2.1,0,0,0-.68.5A3.39,3.39,0,0,0,88,46.67a1.73,1.73,0,0,1-.34.71,3.16,3.16,0,0,1-.65.56,2.4,2.4,0,0,0-.61.58.73.73,0,0,0-.14.37.78.78,0,0,0,.06.4c0,.13.1.25.13.39a.81.81,0,0,1,0,.41,3.1,3.1,0,0,0-.08.42.85.85,0,0,0,.12.41c.13.23.33.43.48.65a1.9,1.9,0,0,1,.2.37,1.37,1.37,0,0,1,.07.45,1.7,1.7,0,0,0,0,.45.93.93,0,0,0,.15.39,1.46,1.46,0,0,0,.59.54c.27.14.55.25.82.4a3.17,3.17,0,0,0,.41.21l.44.17c.27.11.5.31.77.42s.27.09.4.15a1.25,1.25,0,0,1,.35.21.7.7,0,0,1,.32.67,1.78,1.78,0,0,1-.18.43l-.24.4a3.32,3.32,0,0,1-.57.67,2.26,2.26,0,0,1-.75.4l-.43.14a3.12,3.12,0,0,0-.42.18,5.29,5.29,0,0,1-.85.36,3.57,3.57,0,0,1-.92.18c-.32,0-.63-.08-1-.09a3.66,3.66,0,0,0-.94.09,2.64,2.64,0,0,0-.81.3,1.54,1.54,0,0,1-.8.28,4.51,4.51,0,0,1-.88-.21,1.41,1.41,0,0,0-.46,0,.94.94,0,0,1-.44,0l-.44-.14a3.55,3.55,0,0,0-.47-.09,4.86,4.86,0,0,0-1.9.09,17,17,0,0,1-1.82.51,2.77,2.77,0,0,0-1.68.5,1.8,1.8,0,0,0-.43.67,1.27,1.27,0,0,1-.44.63c-.43.28-1,.16-1.44.38a.8.8,0,0,0-.44.57,2.32,2.32,0,0,0,.08.87c0,.32.12.64.14,1a2.2,2.2,0,0,1-.14.88,6.8,6.8,0,0,1-.46.79.56.56,0,0,0-.09.17,1.13,1.13,0,0,0,0,.18c0,.09-.06.17-.16.14s-.12-.07-.18-.09L71.79,66c-.15,0-.31-.07-.46-.12s-.6-.2-.9-.31c-.6-.23-1.17-.51-1.78-.7-.31-.09-.62-.16-.92-.26s-.58-.23-.88-.35A4,4,0,0,0,66,64,4.12,4.12,0,0,0,65,64a4.88,4.88,0,0,0-1.82.31c-.28.11-.53.27-.81.38a.86.86,0,0,1-.75,0,3.3,3.3,0,0,1-.6-.52,1.35,1.35,0,0,0-.78-.34,3.53,3.53,0,0,0-.92.05,1.92,1.92,0,0,1-.86,0,1.4,1.4,0,0,1-.68-.5.94.94,0,0,0-.3-.26.51.51,0,0,0-.42,0,3,3,0,0,0-.4.2c-.13.07-.28.11-.4.18a.65.65,0,0,0-.28.62c0,.14,0,.27,0,.41a1,1,0,0,1-.15.41,3,3,0,0,0-.12.4.43.43,0,0,1-.22.3.63.63,0,0,1-.68-.24c-.08-.08-.14-.19-.23-.27a.35.35,0,0,0-.38-.06c-.14.06-.27.14-.41.21a2.25,2.25,0,0,1-.44.14c-.31.07-.63.09-.94.17a1.14,1.14,0,0,0-.4.15,1.1,1.1,0,0,0-.31.26,3.43,3.43,0,0,1-.55.59,2,2,0,0,1-.8.33,1.36,1.36,0,0,1-.45,0,3.6,3.6,0,0,1-.44-.12.55.55,0,0,0-.4,0,.36.36,0,0,0-.2.29c-.06.28.1.55.07.83a1,1,0,0,1-.44.63,7.45,7.45,0,0,1-.77.46c-.28.16-.54.34-.81.51a1.05,1.05,0,0,1-.8.19c-.15,0-.28-.11-.42-.15a.82.82,0,0,0-.44,0,1.47,1.47,0,0,0-.68.4,2.42,2.42,0,0,0-.32.32,3,3,0,0,0-.26.36,4,4,0,0,1-.63.6,1.67,1.67,0,0,0-.51.64,3,3,0,0,0-.13.85,1.67,1.67,0,0,1-.06.44.42.42,0,0,1-.24.25,3.47,3.47,0,0,1-.41.16,3.2,3.2,0,0,0-.43.17,2.77,2.77,0,0,0-.7.47c-.23.21-.43.45-.66.66s-.45.36-.64.58a1,1,0,0,0-.19.35.82.82,0,0,0,0,.44c.11.51.63,1.08.25,1.6a.82.82,0,0,1-.32.26,2.73,2.73,0,0,1-.41.1,2.2,2.2,0,0,0-.79.37,3.27,3.27,0,0,0-.35.3c-.11.1-.21.2-.33.29s-.25.15-.37.24-.22.19-.34.28A2.47,2.47,0,0,1,36,80a2.78,2.78,0,0,1-.91.12,7.3,7.3,0,0,1-1.86-.24,5.69,5.69,0,0,1-.87-.32,3.7,3.7,0,0,1-.74-.5l-.37-.31a2.42,2.42,0,0,1-.33-.31.91.91,0,0,1-.19-.38,1.42,1.42,0,0,1,0-.46,2.54,2.54,0,0,1,.07-.47,2.12,2.12,0,0,0,.06-.43,1.34,1.34,0,0,0-.34-.81,4.1,4.1,0,0,0-.58-.67,6.25,6.25,0,0,0-.73-.54c-.52-.32-1.08-.56-1.57-.92a2.22,2.22,0,0,1-.33-.28.25.25,0,0,0-.16-.1s-.12,0-.16,0,.05-.12.08-.14l.06-.06a.62.62,0,0,0,.07-.19,7.36,7.36,0,0,1,.25-.92c.1-.31.16-.63.23-1a4.14,4.14,0,0,0,.18-.93,3.91,3.91,0,0,0-.18-.89,1.63,1.63,0,0,1,0-.44,1.19,1.19,0,0,1,.15-.41,3.37,3.37,0,0,0,.19-.38.94.94,0,0,0,.05-.44,1.69,1.69,0,0,0-.35-.77,1.82,1.82,0,0,0-.59-.55c-.26-.15-.55-.2-.8-.36s-.46-.38-.7-.57a1.9,1.9,0,0,0-.78-.38,3.7,3.7,0,0,1-.87-.22c-.13-.07-.24-.17-.36-.25a3.73,3.73,0,0,0-.37-.23,3.41,3.41,0,0,1-.64-.62,3.42,3.42,0,0,0-.63-.57,3.15,3.15,0,0,0-.82-.36,1.21,1.21,0,0,1-.65-.34,1.75,1.75,0,0,1-.25-.81A2.16,2.16,0,0,0,20,60.8a2,2,0,0,0-.57-.61,5.35,5.35,0,0,0-1.61-.74,1.53,1.53,0,0,1-.75-.35c-.18-.2-.24-.47-.41-.68-.34-.39-1-.39-1.2-.92a1.25,1.25,0,0,1,0-.83,1.27,1.27,0,0,1,.18-.37c.08-.12.18-.21.27-.33a.84.84,0,0,0,.15-.38,2.4,2.4,0,0,0,0-.46.51.51,0,0,1,0-.21.57.57,0,0,1,.1-.19c.08-.11,0-.18-.06-.25a.56.56,0,0,1-.22-.21,2,2,0,0,1-.11-.37.65.65,0,0,0-.21-.33l-.31-.3A3.31,3.31,0,0,0,15,53a3.47,3.47,0,0,0-.37-.21,2,2,0,0,1-.38-.26,2.6,2.6,0,0,0-.38-.27c-.25-.14-.54-.22-.8-.34a1.81,1.81,0,0,1-.37-.24c-.11-.09-.18-.21-.32-.23s-.26,0-.38,0a1.13,1.13,0,0,1-.41,0,1.25,1.25,0,0,1-.63-.48c-.15-.22-.25-.48-.39-.71a1.4,1.4,0,0,0-.59-.54l-.38-.17-.41-.2a3.17,3.17,0,0,0-.42-.19A1.55,1.55,0,0,0,8.31,49,.43.43,0,0,1,8,48.84c-.09-.12-.17-.24-.25-.37a.6.6,0,0,1-.09-.39.45.45,0,0,1,.16-.25,2.1,2.1,0,0,1,.61-.32,4.89,4.89,0,0,0,.82-.34,2.28,2.28,0,0,0,.58-.58,1.61,1.61,0,0,1,.25-.32.38.38,0,0,1,.37,0l.45.14.41.19a1,1,0,0,0,.84,0,.53.53,0,0,0,.27-.28,1.29,1.29,0,0,0,.06-.4,1,1,0,0,1,.22-.74,2.25,2.25,0,0,1,.68-.27,1.58,1.58,0,0,0,.65-.49,3.71,3.71,0,0,0,.39-.77,2.49,2.49,0,0,0,.14-.44c0-.15.05-.31.09-.46a1,1,0,0,1,.2-.37c.09-.11.2-.21.29-.32s.29-.51.46-.74a1.71,1.71,0,0,1,.66-.53,4,4,0,0,1,.84-.29,1.52,1.52,0,0,0,.73-.33,1.1,1.1,0,0,0,.33-.71,4.56,4.56,0,0,0,0-.9,3.58,3.58,0,0,0-.09-.45c0-.14-.1-.27-.15-.41a2.13,2.13,0,0,1-.22-.89c0-.3.19-.56.22-.86a4.63,4.63,0,0,0-.12-.9,3,3,0,0,1,0-.85,1.43,1.43,0,0,1,.09-.41,1.66,1.66,0,0,1,.18-.38,2.48,2.48,0,0,0,.17-.37.78.78,0,0,0,0-.4,7.76,7.76,0,0,1-.25-.82,2.8,2.8,0,0,1,.07-.91,5,5,0,0,0,.16-.94,8.22,8.22,0,0,0-.06-1,3.84,3.84,0,0,1,0-.48c0-.14,0-.28,0-.43s0-.22.13-.26l.17,0a.5.5,0,0,0,.2-.08,2.87,2.87,0,0,1,.39-.2,2.34,2.34,0,0,1,.46-.09c.31,0,.63-.07.94-.12s.62-.14.92-.22a3.13,3.13,0,0,0,.83-.33,1.43,1.43,0,0,0,.32-.28c.09-.12.17-.24.26-.35l.3-.31c.1-.11.2-.23.3-.33s.22-.21.31-.33a1.36,1.36,0,0,0,.21-.37c.05-.14.08-.29.14-.43a.42.42,0,0,1,.23-.26,1.36,1.36,0,0,1,.41-.09,1.93,1.93,0,0,1,.48,0,2.91,2.91,0,0,0,.93,0A1.72,1.72,0,0,1,26.9,24a1,1,0,0,1,.55.45.81.81,0,0,0,.21.24.27.27,0,0,0,.33,0,2.7,2.7,0,0,1,.31-.2,1,1,0,0,1,.45,0,1.37,1.37,0,0,0,.45,0,.8.8,0,0,0,.35-.19A3.5,3.5,0,0,0,30,23.5a1.39,1.39,0,0,1,.6-.55,1.63,1.63,0,0,1,.76-.09c.26,0,.52.09.79.13a3.09,3.09,0,0,0,1,0c.31-.05.62-.14.93-.19a2.31,2.31,0,0,1,.83,0,2,2,0,0,1,.75.34,2.76,2.76,0,0,1,.63.6,3.49,3.49,0,0,1,.48.76,1.49,1.49,0,0,0,.44.69,1,1,0,0,0,.8.16,2.32,2.32,0,0,0,.68-.52,2.06,2.06,0,0,1,.72-.44,1.44,1.44,0,0,1,.87,0,2.41,2.41,0,0,1,.76.4,7.22,7.22,0,0,1,.68.56,1,1,0,0,1,.25.33,2.18,2.18,0,0,1,.11.44,3.29,3.29,0,0,1,.11.93,3.45,3.45,0,0,1-.12.46A1.68,1.68,0,0,0,42,28a1.42,1.42,0,0,0,.33.75,2,2,0,0,0,.68.44,3,3,0,0,1,.72.46,7.36,7.36,0,0,0,.7.55,2.16,2.16,0,0,0,.81.31,3.65,3.65,0,0,1,.46.07,1.27,1.27,0,0,1,.4.17c.23.14.43.35.67.48a.86.86,0,0,0,.41.1,1,1,0,0,0,.41-.14c.12-.07.22-.16.34-.22a.84.84,0,0,1,.44-.08,3.75,3.75,0,0,0,.47.05c.16,0,.32,0,.48,0s.57.16.87.18a.6.6,0,0,0,.35-.07.71.71,0,0,0,.19-.23c.11-.24.12-.51.22-.75a3.23,3.23,0,0,1,.22-.41c.07-.14.14-.28.22-.42a1.31,1.31,0,0,1,.24-.34,2.9,2.9,0,0,1,.36-.25l.82-.49a1.31,1.31,0,0,1,.4-.17.74.74,0,0,1,.44,0c.27.08.49.31.8.29a1.73,1.73,0,0,0,.79-.39,3.06,3.06,0,0,1,1.67-.6,4.22,4.22,0,0,1,.94.09,2.42,2.42,0,0,0,.93,0,1.36,1.36,0,0,0,.65-.34.52.52,0,0,0,.14-.34c0-.16-.08-.31-.09-.47a1.4,1.4,0,0,1,.27-.75,1.69,1.69,0,0,0,.08-.89,1.38,1.38,0,0,1,0-.45c0-.14.12-.27.17-.4a.85.85,0,0,0,.07-.44c0-.16-.07-.31-.09-.46a1.79,1.79,0,0,1,0-.46,2.33,2.33,0,0,1,.1-.44,2.62,2.62,0,0,1,.38-.79,3,3,0,0,1,.54-.64,4.08,4.08,0,0,1,.77-.42,1.89,1.89,0,0,1,.41-.18,1.3,1.3,0,0,1,.44-.05,2.22,2.22,0,0,1,.81.18,3,3,0,0,1,.7.4,3.2,3.2,0,0,1,.59.63,2.92,2.92,0,0,0,.55.61,1.41,1.41,0,0,0,.81.27,3.68,3.68,0,0,0,.47,0,2.43,2.43,0,0,0,.47,0,2.52,2.52,0,0,0,.84-.32,7.9,7.9,0,0,0,.69-.49,1.2,1.2,0,0,1,.77-.28c.6.06.9.69,1.12,1.17s.51,1.18.79,1.76a3.61,3.61,0,0,0,.22.39l.27.37a2.33,2.33,0,0,1,.37.78c.07.3.07.6.15.89a.6.6,0,0,0,.45.48,2.4,2.4,0,0,0,.46,0,3.4,3.4,0,0,1,.46.06c.29.07.56.18.85.25a1.74,1.74,0,0,0,.85,0,1.52,1.52,0,0,0,.69-.43,4.46,4.46,0,0,0,.47-.72,3.85,3.85,0,0,1,.47-.67,4.37,4.37,0,0,1,.6-.53,7.3,7.3,0,0,1,.77-.44,5.3,5.3,0,0,0,.73-.51c.23-.2.44-.43.65-.65A6.42,6.42,0,0,1,81.06,22a2.06,2.06,0,0,1,.75-.31h.44c.33,0,.39.27.43.54a3.41,3.41,0,0,0,.1.46,9.36,9.36,0,0,0,.24.91c0,.15.1.3.13.45a1.37,1.37,0,0,1,0,.45,3.63,3.63,0,0,0-.1.45c0,.16,0,.32,0,.48a3.58,3.58,0,0,0,0,1.81c.12.26.31.47.44.73a3,3,0,0,1,.2.89.89.89,0,0,0,1,1h.47a2.44,2.44,0,0,1,.47,0c.33,0,.66.07,1,.1a5.05,5.05,0,0,1,1,.13,2.86,2.86,0,0,1,.8.35A1.47,1.47,0,0,1,88.8,30.9Z"/></g></svg>