<svg xmlns="http://www.w3.org/2000/svg" viewBox="0 0 100 100"><g id="Sarlahi"><path d="M13.87,13.54l0,0,.1,0,.08-.05.22-.15a.84.84,0,0,1,.44-.13,2.43,2.43,0,0,1,.53.08,5.14,5.14,0,0,0,.55.06c.18,0,.37,0,.55.05a2.77,2.77,0,0,1,.49.15l.52.14c.17.06.34.1.51.15a.79.79,0,0,1,.22.06.33.33,0,0,1,.19.14.93.93,0,0,1,.16.18,1,1,0,0,1,.15.21,1.24,1.24,0,0,0,.32.36.87.87,0,0,0,.46.15l.23,0a.94.94,0,0,1,.24.06.76.76,0,0,1,.35.29,1.55,1.55,0,0,0,.28.39l.19.13a1.14,1.14,0,0,1,.19.19c.23.28.47.54.71.81l.37.41a1.24,1.24,0,0,1,.14.18,1.25,1.25,0,0,1,.09.25c.1.32.41.51.67.71s.28.21.43.3l.41.26a3.68,3.68,0,0,0,.49.23l.48.2a3.31,3.31,0,0,0,1,.28,4.93,4.93,0,0,0,.54,0,1.11,1.11,0,0,1,.48,0,.7.7,0,0,1,.17.13l.2.18.15.15a.35.35,0,0,0,.21.1,1.91,1.91,0,0,0,.53,0,2.33,2.33,0,0,1,.53,0,1,1,0,0,1,.4.19,1.64,1.64,0,0,0,.35.29,1,1,0,0,0,.49.06c.19,0,.37,0,.56,0a1,1,0,0,0,.25,0,2.48,2.48,0,0,1,.27,0,1.17,1.17,0,0,1,.51.13,1.87,1.87,0,0,0,.4.2.45.45,0,0,0,.36-.16.61.61,0,0,1,.16-.12.52.52,0,0,1,.22-.07c.17,0,.33,0,.5,0l.25,0a1.33,1.33,0,0,1,.28,0,2.85,2.85,0,0,1,.5.14,1.65,1.65,0,0,1,.44.22,3.51,3.51,0,0,1,.33.34,1.22,1.22,0,0,0,.41.27,1.43,1.43,0,0,0,.34.09c.17,0,.41.09.49.26a.41.41,0,0,1,0,.34,4.22,4.22,0,0,1-.27.36.33.33,0,0,0,0,.39.65.65,0,0,0,.36.22,3.8,3.8,0,0,0,.51.14c.17,0,.34.09.52.12l.27,0a2.44,2.44,0,0,0,.26.06,4.78,4.78,0,0,0,.53,0,1.11,1.11,0,0,1,.47.14A3.19,3.19,0,0,1,39,24a1.64,1.64,0,0,0,.42.26c.15.07.3.12.45.2a1.25,1.25,0,0,1,.37.28,2.63,2.63,0,0,1,.27.41.85.85,0,0,1,.09.22.82.82,0,0,1,0,.27.94.94,0,0,0,0,.5.75.75,0,0,0,.13.18l.15.18A1,1,0,0,1,41,27a1.81,1.81,0,0,1-.08.51.56.56,0,0,0,0,.22.68.68,0,0,0,.1.21,1.72,1.72,0,0,0,.33.33c.12.09.26.15.38.24l.14.14c0,.08.06.17.1.25a.8.8,0,0,0,.31.32,1,1,0,0,0,.21.09,1.17,1.17,0,0,0,.25.07.39.39,0,0,0,.4-.16,1.54,1.54,0,0,0,.17-.42,2.37,2.37,0,0,1,.2-.46c.1-.14.2-.27.31-.4a2.22,2.22,0,0,0,.32-.36.89.89,0,0,0,.11-.48,1.47,1.47,0,0,1,0-.51,2.94,2.94,0,0,1,.25-.46c.09-.16.18-.32.28-.48s.18-.3.26-.45.16-.31.25-.46a1,1,0,0,1,.7-.51.81.81,0,0,1,.46.05.89.89,0,0,1,.33.31,1.08,1.08,0,0,0,.32.32,1.14,1.14,0,0,0,.48.16,4.79,4.79,0,0,1,1,.18,1.63,1.63,0,0,1,.7.57.59.59,0,0,1,.13.44,1,1,0,0,1-.22.42,1.89,1.89,0,0,0-.2.46,2.11,2.11,0,0,0-.1.5,2.28,2.28,0,0,0,0,.26.18.18,0,0,0,.09.18,2.09,2.09,0,0,0,.23.08,1.84,1.84,0,0,1,.25.09,4.16,4.16,0,0,1,.47.24l.21.11a.88.88,0,0,0,.22.1c.06,0,.13,0,.15-.06a.52.52,0,0,0,0-.25.53.53,0,0,1,0-.22.17.17,0,0,1,.17-.11.23.23,0,0,1,.15.07.91.91,0,0,1,.09.17.18.18,0,0,0,.09.1.26.26,0,0,0,.19,0,.73.73,0,0,1,.37-.16.34.34,0,0,1,.3.24.9.9,0,0,0,.22.36.29.29,0,0,0,.38,0,2.34,2.34,0,0,0,.29-.35,1.45,1.45,0,0,1,.35-.35.66.66,0,0,1,.19-.09l.25,0c.18,0,.34-.08.52-.1a1.94,1.94,0,0,1,1,.13c.14.07.24.18.38.26l.44.19a2.92,2.92,0,0,0,.44.19.87.87,0,0,0,.48,0,2.34,2.34,0,0,0,.24-.09l.11,0,.1,0c.07,0,.13-.09.17-.13l.21-.15a2.7,2.7,0,0,1,.44-.24.85.85,0,0,1,.47-.07,1,1,0,0,1,.21.1,2.39,2.39,0,0,1,.22.12.92.92,0,0,0,.21.13.63.63,0,0,0,.24,0,.89.89,0,0,0,.23,0,.1.1,0,0,1,.09,0s0,.05.06.09a.37.37,0,0,0,.1.17l.17.17a2.14,2.14,0,0,0,.83.47l.5.13a2.91,2.91,0,0,1,.48.21l.48.23a4.19,4.19,0,0,0,.49.2,2.8,2.8,0,0,1,.86.48,1.71,1.71,0,0,1,.32.39,3.83,3.83,0,0,0,.28.42c.1.14.2.28.31.41a4.31,4.31,0,0,1,.32.4c.09.14.17.28.25.42s.19.28.28.42a1.06,1.06,0,0,1,.12.2l.12.25a2.45,2.45,0,0,0,.31.41c.23.25.49.47.7.73L67,35a2,2,0,0,0,.31.35.64.64,0,0,0,.18.1.82.82,0,0,0,.27,0,4.58,4.58,0,0,0,.53,0l.55-.06.26,0a.41.41,0,0,1,.19,0c.15,0,.19.2.2.33s0,.31,0,.45a.71.71,0,0,0,.27.39.59.59,0,0,0,.18.13.8.8,0,0,0,.26.09l.49.16a1.67,1.67,0,0,1,.44.23c.14.09.25.22.39.31l.18.14a1.56,1.56,0,0,1,.16.2c.09.13.19.26.29.38a1.12,1.12,0,0,0,.37.31,1.32,1.32,0,0,0,.49.06,2,2,0,0,0,.24,0c.09,0,.18-.06.27-.09a5.63,5.63,0,0,1,1-.21.85.85,0,0,0,.72-.45,2.46,2.46,0,0,0,.1-.47,2.08,2.08,0,0,1,.19-.49,2.89,2.89,0,0,1,.27-.44,1.88,1.88,0,0,1,.36-.33c.23-.15.58-.39.84-.18a.71.71,0,0,1,.21.39,3.64,3.64,0,0,0,.14.47c.06.17.14.34.2.5a3.51,3.51,0,0,0,.22.48c.09.15.19.3.28.46a2.75,2.75,0,0,1,.24.41,2,2,0,0,1,0,1.07,1,1,0,0,0,0,.45.43.43,0,0,0,.12.17c.07.06.13,0,.21,0l.25,0a.85.85,0,0,0,.22-.09,3.69,3.69,0,0,0,.4-.29.78.78,0,0,1,.43-.18.75.75,0,0,1,.44.09,1.09,1.09,0,0,1,.28.36,1.87,1.87,0,0,0,.26.35,1.46,1.46,0,0,0,.34.26,2.16,2.16,0,0,0,.47.15,4.84,4.84,0,0,1,.51.14l.49.22.41.25a.51.51,0,0,0,.47.09l.2-.11a.37.37,0,0,0,.18-.17.24.24,0,0,0,0-.2L84,40.84a1.56,1.56,0,0,0-.32-.36c-.13-.1-.27-.17-.4-.26a.56.56,0,0,1-.24-.36c0-.07,0-.15,0-.22a2.45,2.45,0,0,1,0-.27,2.54,2.54,0,0,1,0-.55,3.25,3.25,0,0,1,.12-.52,3.21,3.21,0,0,0,.07-.53,2.09,2.09,0,0,1,.08-.51c0-.14.08-.34.23-.4a.5.5,0,0,1,.21,0l.22.07a.35.35,0,0,1,.19.32,3.23,3.23,0,0,0,0,.44,1.58,1.58,0,0,0,.37.88,1.51,1.51,0,0,0,.39.27l.47.24a3.7,3.7,0,0,1,.9.57l.33.34a.76.76,0,0,1,.12.19,1.14,1.14,0,0,1,.06.25,5,5,0,0,1,0,.53c0,.18,0,.36,0,.53a.57.57,0,0,0,.2.39,2.75,2.75,0,0,0,.4.26.63.63,0,0,1,.29.33,1.55,1.55,0,0,1,0,.21.49.49,0,0,1,0,.24,1.33,1.33,0,0,1-.14.19.78.78,0,0,1-.2.11,1.55,1.55,0,0,0-.22.12l-.21.15a.69.69,0,0,0-.3.33.79.79,0,0,0,0,.48.9.9,0,0,0,.08.23.75.75,0,0,0,.15.16,1.35,1.35,0,0,0,.43.22c.15.06.32.09.47.16a1,1,0,0,1,.34.31,2.73,2.73,0,0,1,.26.43,1.91,1.91,0,0,1,.13.51c0,.18.06.36.1.53a3.18,3.18,0,0,1,.1.52,2.37,2.37,0,0,0,.32,1,2.05,2.05,0,0,0,.32.34,1.26,1.26,0,0,1,.28.4,1.38,1.38,0,0,1,.14.49.94.94,0,0,1-.12.49c-.11.22-.41.46-.28.73a.78.78,0,0,0,.53.32c.15,0,.31.08.47.14a1.22,1.22,0,0,1,.24.1,2.12,2.12,0,0,1,.2.12.49.49,0,0,1,.16.38,2.19,2.19,0,0,1,0,.51,1.05,1.05,0,0,1-.16.46.9.9,0,0,1-.15.19.61.61,0,0,0-.11.21,1,1,0,0,0,0,.24.32.32,0,0,0,0,.25,1.48,1.48,0,0,0,.3.36c.14.11.29.2.44.3a3.81,3.81,0,0,1,.41.29.92.92,0,0,1,.23.36l.15.47c0,.16.09.32.15.48l.09.24.06.24a3.3,3.3,0,0,0,.19.43,3.57,3.57,0,0,1,.19.45A5.66,5.66,0,0,1,93,58.86a1.94,1.94,0,0,1,0,.54,1.08,1.08,0,0,1-.2.45,3,3,0,0,1-.32.39,7.9,7.9,0,0,1-.81.62l-.17.14a.74.74,0,0,0-.11.24.69.69,0,0,1-.25.31,1.81,1.81,0,0,1-.44.22l-.24.06-.27.08c-.15.07-.29.17-.44.24l-.24.08a.58.58,0,0,0-.17.14c-.12.12-.26.2-.37.32a2.82,2.82,0,0,0-.29.39,1.68,1.68,0,0,1-.35.3,1.58,1.58,0,0,1-.44.24l-.26,0a2.18,2.18,0,0,0-.23.09,4.25,4.25,0,0,1-.51.14,2.13,2.13,0,0,0-.82.45,3.24,3.24,0,0,0-.57.8l-.26.48c-.09.16-.19.31-.28.46a9.12,9.12,0,0,0-.45,1c-.07.17-.13.34-.2.5a4.39,4.39,0,0,1-.27.47c-.19.3-.4.6-.61.89a2.57,2.57,0,0,1-.34.4l-.4.32c-.14.11-.29.2-.43.3a1.56,1.56,0,0,0-.35.33c-.1.14-.17.3-.26.44a2.37,2.37,0,0,1-.34.37,4,4,0,0,0-.61.79c-.09.16-.17.32-.27.48s-.19.3-.3.45a5.92,5.92,0,0,1-.61.81,4.51,4.51,0,0,1-.81.63,8.62,8.62,0,0,0-.86.58,1.3,1.3,0,0,0-.32.38,5,5,0,0,0-.24.46,4.89,4.89,0,0,1-.51.89,4.77,4.77,0,0,1-.72.7c-.27.24-.56.47-.85.68s-.56.45-.83.68a5.13,5.13,0,0,1-.85.62,4.93,4.93,0,0,0-.9.5l-.38.37-.39.36-.17.14a1,1,0,0,1-.23.11l-.49.17a.82.82,0,0,0-.2.12,1,1,0,0,0-.17.18,1.42,1.42,0,0,0-.23.44,2.46,2.46,0,0,0-.1.47,2.83,2.83,0,0,1-.13.5l-.21.51-.22.52c-.15.32-.31.64-.49,1s-.38.61-.58.91a3.91,3.91,0,0,0-.26.44,5.08,5.08,0,0,0-.17.51c0,.08,0,.15-.07.23a.3.3,0,0,0,0,.1.19.19,0,0,1,0,.08c0,.06-.06,0-.1,0s-.08-.11-.12-.15-.25-.25-.37-.37l-.38-.39a1.68,1.68,0,0,0-.4-.3l-.45-.22a1.43,1.43,0,0,0-.46-.13.29.29,0,0,0-.18,0,.29.29,0,0,0-.1.18,3.69,3.69,0,0,0,0,1,2.09,2.09,0,0,1,0,.25c0,.08-.08,0-.13,0a1.37,1.37,0,0,1-.2-.13c-.07,0-.14-.12-.21-.18-.24-.25-.46-.53-.68-.81s-.22-.29-.34-.43a3.25,3.25,0,0,0-.35-.39s-.11-.07-.14-.13,0-.07.05-.09l.42-.19c.34-.16.66-.33,1-.5.15-.07.3-.15.46-.21a.16.16,0,0,0,.08-.06.08.08,0,0,0,0-.09l-.13-.21-.27-.49a2.12,2.12,0,0,1-.11-.21c0-.05-.06-.13-.14-.1l-.08,0-.11.07-.22.13-.47.27a.64.64,0,0,1-.44.15.42.42,0,0,1-.16-.11.38.38,0,0,1-.14-.19.63.63,0,0,1,0-.24,2.45,2.45,0,0,1,0-.27,4.21,4.21,0,0,1,.12-.51,4.5,4.5,0,0,0,.14-.49c0-.13,0-.31-.16-.35H63l-.28,0H62a.56.56,0,0,0-.23.07,3.3,3.3,0,0,0-.35.28,2.77,2.77,0,0,0-.36.4.75.75,0,0,1-.15.16,1.67,1.67,0,0,1-.23.12l-.21.1a1.09,1.09,0,0,1-.25,0c-.16,0-.32,0-.48,0a.43.43,0,0,0-.33.22.94.94,0,0,1-.12.18.74.74,0,0,1-.2.16.44.44,0,0,1-.23,0l-.26,0A3.31,3.31,0,0,0,58,82.7a.48.48,0,0,0-.12,0h-.07c-.07,0,0-.15,0-.21A2.22,2.22,0,0,1,58,82a2.16,2.16,0,0,1,.27-.4,2.24,2.24,0,0,1,.37-.32,3.25,3.25,0,0,0,.39-.35l.17-.16s.12-.09.1-.14-.13,0-.17,0l-.26,0a1.46,1.46,0,0,0-1,.28c-.11.1-.19.23-.29.33a1.45,1.45,0,0,1-.4.3.61.61,0,0,1-.23.11h-.26a.23.23,0,0,1-.18,0,.74.74,0,0,1-.13-.21l-.28-.44c-.08-.13-.14-.28-.28-.33a1.93,1.93,0,0,0-.42,0l-.54,0-.24,0a.41.41,0,0,1-.21-.1c-.1-.13.08-.29.15-.39s.1-.11.16-.16a1.13,1.13,0,0,1,.22-.11,1.59,1.59,0,0,0,.39-.2.35.35,0,0,0,.15-.17c0-.07,0-.12-.1-.15a.31.31,0,0,0-.23,0l-.27,0a1.41,1.41,0,0,0-.4.29l-.38.35a3.47,3.47,0,0,1-.36.31.87.87,0,0,1-.22,0h-.27a.91.91,0,0,1-.23,0,.41.41,0,0,1-.21-.14l-.13-.18c0-.05-.06-.12-.13-.11s-.15.07-.21.1l-.23.11a.7.7,0,0,1-.19.06.12.12,0,0,1-.08-.06s0-.09-.07-.13l-.27-.46a7,7,0,0,1-.47-1,3.13,3.13,0,0,1-.16-.52.69.69,0,0,1,0-.47,1.64,1.64,0,0,1,.14-.22l.15-.23a1.41,1.41,0,0,0,.21-.38.42.42,0,0,0,0-.22c0-.09,0-.18,0-.27s-.2-.22-.33-.3a1.9,1.9,0,0,1-.39-.31,3,3,0,0,1-.31-.4.93.93,0,0,0-.32-.36,1.89,1.89,0,0,0-.21-.09l-.25-.1a1.55,1.55,0,0,0-.52-.1c-.19,0-.37,0-.55-.06a3.16,3.16,0,0,0-1.06.07,4.32,4.32,0,0,0-.51.16.72.72,0,0,0-.5.71.9.9,0,0,0,.08.23l.11.26.19.52.09.24a.52.52,0,0,1,.06.16c0,.06-.05,0-.09,0a.94.94,0,0,1-.23-.1,4.56,4.56,0,0,0-.52-.18A9.65,9.65,0,0,0,45,76.4a2.18,2.18,0,0,1-.51-.09c-.06,0-.13-.06-.14-.14a.76.76,0,0,1,0-.21.65.65,0,0,0,0-.24,1.28,1.28,0,0,0-.11-.24.85.85,0,0,0-.1-.19.8.8,0,0,0-.17-.15l-.9-.6-.91-.62a4.66,4.66,0,0,0-.47-.3l-.45-.26a.84.84,0,0,0-.21-.11.69.69,0,0,0-.25,0c-.18,0-.35,0-.52,0a6.75,6.75,0,0,1-1.1-.14,1.76,1.76,0,0,1-.46-.14,1.16,1.16,0,0,1-.36-.3.91.91,0,0,1-.16-.47,2.51,2.51,0,0,1,0-.55,1.11,1.11,0,0,0,0-.48c0-.08-.07-.15-.1-.22a.92.92,0,0,0-.13-.21l-.17-.14a1.64,1.64,0,0,0-.22-.14,4.1,4.1,0,0,0-.5-.14,2.7,2.7,0,0,1-.4-.14.48.48,0,0,1-.16-.12.84.84,0,0,1-.11-.21,3,3,0,0,1-.2-.49,1.93,1.93,0,0,0-.19-.47,2.12,2.12,0,0,0-.3-.36,1.86,1.86,0,0,0-.43-.25c-.33-.15-.67-.27-1-.4l-.5-.18a.41.41,0,0,0-.45,0,.36.36,0,0,0-.08.19.62.62,0,0,0,0,.13s0,.09,0,.13-.12,0-.17,0a.29.29,0,0,1-.22,0l-.2-.14-.22-.14a1.68,1.68,0,0,0-.48-.2,1.1,1.1,0,0,0-.51,0c-.17,0-.34.08-.51.12l-.28.06a.43.43,0,0,1-.25,0,.78.78,0,0,1-.2-.11l-.24-.14a3,3,0,0,1-.39-.31,3.39,3.39,0,0,0-.42-.33c-.15-.09-.3-.18-.44-.28a3.34,3.34,0,0,1-.4-.35.25.25,0,0,1-.08-.17.72.72,0,0,1,.07-.25,4.32,4.32,0,0,0,.16-.51,1,1,0,0,0,0-.24c0-.1,0-.19,0-.28a.28.28,0,0,0,0-.2c0-.06-.13-.07-.2-.09L28,64.47a.75.75,0,0,0-.26,0,3,3,0,0,1-.52,0L27,64.34l-.24-.11a.19.19,0,0,1-.14-.12.62.62,0,0,1,0-.23,3,3,0,0,0,0-.52,3.31,3.31,0,0,0-.07-.55,1.19,1.19,0,0,0-.16-.48c-.1-.13-.22-.24-.33-.36a1.58,1.58,0,0,1-.27-.42,1.24,1.24,0,0,1-.1-.5,2.31,2.31,0,0,0-.12-.52,2.09,2.09,0,0,0-.08-.23l0-.12a.38.38,0,0,0,0-.1s-.1,0-.14,0l-.19.13-.45.29a3,3,0,0,1-.42.27,1,1,0,0,1-.25.06l-.24,0c-.17,0-.26-.15-.37-.25a3.09,3.09,0,0,0-.39-.33l-.19-.13a.22.22,0,0,0-.22,0l-.22.14-.22.13-.22.1-.25.06a2,2,0,0,1-.54.09l-.25,0-.26,0a2.43,2.43,0,0,1-.52-.17l-.21-.1a1.54,1.54,0,0,1-.19-.17l-.34-.39c-.11-.13-.21-.27-.32-.42l-.15-.23s-.05-.1-.09-.13-.11,0-.15.06l-.22.14a2.72,2.72,0,0,1-.46.21l-.23.08s-.11,0-.11-.05a.66.66,0,0,1,0-.15l.09-.26a1,1,0,0,1,.09-.22s.08-.11,0-.16-.05,0-.08,0l-.12,0-.26-.08a2.86,2.86,0,0,1-.51-.09l-.23-.11a1,1,0,0,1-.22-.13.3.3,0,0,1-.06-.18,1.5,1.5,0,0,1,0-.3,1.92,1.92,0,0,1,.15-.48c.07-.17.14-.35.2-.52a2.46,2.46,0,0,1,.2-.47c0-.05.06-.12,0-.16l-.1,0-.13-.06-.49-.19L15.2,55.4a4.74,4.74,0,0,0-.5-.15,5.12,5.12,0,0,0-.54-.1l-.54-.1a1.71,1.71,0,0,0-.5-.1c-.12,0-.26,0-.36,0a.8.8,0,0,1-.13-.19l-.15-.22a4.16,4.16,0,0,1-.4-.95,2.9,2.9,0,0,1-.14-.48c0-.09,0-.18,0-.28a.55.55,0,0,1,0-.22.86.86,0,0,1,.14-.18l.07-.08a.19.19,0,0,1,.06-.07c.06,0,.09.06.12.1a1,1,0,0,0,.15.2.63.63,0,0,0,.4.21,1.18,1.18,0,0,0,.49-.09c.06,0,.36-.19.26-.29s-.13-.05-.19-.07a.25.25,0,0,1-.18-.11c0-.05-.09-.12,0-.18s.13-.09.2-.12l.23-.08.1,0,.13-.05c.09,0,0-.11,0-.15l-.23-.16a3.61,3.61,0,0,0-.44-.22,3.62,3.62,0,0,1-.48-.25,4.17,4.17,0,0,1-.44-.29.81.81,0,0,1-.16-.16,1.37,1.37,0,0,1-.16-.18c-.06-.15.08-.28.2-.35a4.55,4.55,0,0,0,.87-.52,1.1,1.1,0,0,0,.16-.15.25.25,0,0,0,0-.21,1.9,1.9,0,0,1,0-.25.6.6,0,0,0-.06-.22.49.49,0,0,0-.18-.13l-.24-.13-.45-.3-.18-.13a2.15,2.15,0,0,1-.34-.65,1.25,1.25,0,0,1,0-.51.56.56,0,0,1,.21-.36,2.87,2.87,0,0,1,.4-.18.55.55,0,0,0,.18-.16,1.54,1.54,0,0,0,.17-.19c.1-.14,0-.31,0-.45a.67.67,0,0,0-.09-.21L12.42,45a7.68,7.68,0,0,0-.71-.79c-.14-.12-.28-.22-.41-.34a3.89,3.89,0,0,1-.34-.36c-.1-.13-.21-.26-.31-.4a4.13,4.13,0,0,0-.31-.42,1.39,1.39,0,0,0-.39-.28l-.46-.22-.22-.13-.2-.17c-.08-.07-.21-.12-.23-.24a.46.46,0,0,1,0-.2A1.89,1.89,0,0,1,9,41.2c0-.07.09-.14.13-.22a.85.85,0,0,0,.08-.24l.08-.24a.28.28,0,0,0,0-.22,1.74,1.74,0,0,0-.11-.18A1.66,1.66,0,0,0,9,39.89a1.22,1.22,0,0,0-.17-.15l-.21-.17-.2-.16a.91.91,0,0,1-.13-.19A2.17,2.17,0,0,1,8.2,39l-.09-.25c-.06-.17-.12-.35-.19-.52s-.13-.32-.18-.49a5,5,0,0,1-.14-.52c-.07-.35-.13-.71-.23-1.05a3.94,3.94,0,0,0-.18-.48A3.57,3.57,0,0,1,7,35.22,2.09,2.09,0,0,1,7,35c0-.1,0-.2,0-.3a4.86,4.86,0,0,1,0-.54c0-.19,0-.37,0-.56s0-.36,0-.54a2.38,2.38,0,0,1,.15-.52c.06-.16.13-.31.2-.47A5.6,5.6,0,0,1,8,31.18a10.13,10.13,0,0,1,.67-.8A4.24,4.24,0,0,0,9,30c.1-.14.19-.29.29-.44a.52.52,0,0,0,.09-.2.88.88,0,0,0,0-.28.69.69,0,0,0,0-.25,1.2,1.2,0,0,0-.11-.23.85.85,0,0,1,0-.5,1,1,0,0,1,0-.24,1.38,1.38,0,0,1,.08-.27,1,1,0,0,0,.07-.23,1.13,1.13,0,0,0,0-.26,1.23,1.23,0,0,0,0-.27.7.7,0,0,0-.08-.23.51.51,0,0,0-.12-.2.35.35,0,0,0-.18-.1.78.78,0,0,1-.21-.09A.65.65,0,0,1,8.6,26a2.25,2.25,0,0,0-.12-.21,1.64,1.64,0,0,0-.14-.22,2.33,2.33,0,0,1-.21-.49C8.07,25,8,24.78,8,24.6s-.12-.34-.17-.52a1.51,1.51,0,0,1-.06-.52c0-.18,0-.36,0-.55a4.36,4.36,0,0,0,0-.51.39.39,0,0,1,.1-.33.72.72,0,0,1,.22-.1L8.37,22a2.9,2.9,0,0,0,.51,0,1.45,1.45,0,0,0,.22-.09,1.09,1.09,0,0,0,.23-.14,1.29,1.29,0,0,0,.16-.17,1.13,1.13,0,0,0,.15-.21.67.67,0,0,1,.14-.19c.06-.06.13-.1.19-.15l.43-.23a1.78,1.78,0,0,0,.7-.63.93.93,0,0,0,.11-.49,5,5,0,0,0,0-.55,1.23,1.23,0,0,0-.14-.46c-.08-.16-.18-.29-.27-.44s-.08-.16-.13-.24l-.15-.21-.33-.41a.66.66,0,0,1-.14-.45,3.32,3.32,0,0,0,0-.55c0-.18,0-.36-.05-.54s-.06-.36-.1-.53-.06-.31.05-.43a.63.63,0,0,0,.15-.18,2,2,0,0,1,.11-.2.66.66,0,0,1,.37-.19c.17,0,.35,0,.52-.05a2.35,2.35,0,0,0,.53-.09l.53-.16a3.1,3.1,0,0,1,.53-.1,3.85,3.85,0,0,1,.48,0,1.26,1.26,0,0,0,.47-.08.42.42,0,0,0,.18-.11C13.87,13.66,13.83,13.59,13.87,13.54Z"/></g></svg>