<svg xmlns="http://www.w3.org/2000/svg" viewBox="0 0 100 100"><g id="Baara"><path d="M78.42,16a.94.94,0,0,1,0,.43,4.84,4.84,0,0,0,0,.76c0,.48.07,1,.11,1.45a2.56,2.56,0,0,1-.08.67c0,.23,0,.46-.1.69a4.11,4.11,0,0,0-.13.7,4.34,4.34,0,0,0,0,.72,2.71,2.71,0,0,0,.2.67,2.08,2.08,0,0,1,.12.3c0,.1,0,.21.06.31a.61.61,0,0,1,0,.33c0,.1-.08.2-.13.3s-.25.36-.34.56a1,1,0,0,0-.08.29,2.33,2.33,0,0,0-.06.35,3.47,3.47,0,0,0,0,.72A5.35,5.35,0,0,0,78,26c.05.23.09.46.12.7a1.22,1.22,0,0,1,0,.57c-.08.19-.15.39-.23.59a2.06,2.06,0,0,0,.16,1.31l.09.3a3,3,0,0,0,.16.3.6.6,0,0,1,.07.27c0,.13,0,.26,0,.4s.07.47.1.71a2.41,2.41,0,0,1,0,.71,1.63,1.63,0,0,1-.07.3.62.62,0,0,1-.09.27c-.06.09-.13.15-.19.23s-.11.16-.18.23a.39.39,0,0,1-.19.1l-.32.11c-.22.08-.44.14-.67.21l-.65.22a2.66,2.66,0,0,0-.59.28,1.56,1.56,0,0,0-.45.4,3.47,3.47,0,0,0-.37.57,2.94,2.94,0,0,1-.3.55c-.15.18-.32.36-.48.52a.37.37,0,0,0-.13.2c0,.1,0,.2-.07.3s-.13.48-.19.72a2,2,0,0,1-.08.33,2,2,0,0,1-.15.29c-.11.19-.13.41-.23.61a1.91,1.91,0,0,1-.39.46,2.09,2.09,0,0,1-.22.2,1.59,1.59,0,0,1-.29.15c-.21.08-.4.2-.62.26a2,2,0,0,0-.26.08.92.92,0,0,0-.27.16c-.08,0-.09.11-.11.2s-.06.24-.08.35a3.22,3.22,0,0,0-.12.69,1.82,1.82,0,0,1,0,.32.4.4,0,0,1-.16.2,2,2,0,0,1-.51.23.57.57,0,0,1-.29,0,1.28,1.28,0,0,1-.33-.06c-.2-.08-.41-.19-.61-.28A2.34,2.34,0,0,0,68.2,41a1.94,1.94,0,0,1-.33-.07c-.06,0-.16-.05-.23,0a.79.79,0,0,0-.18.22l-.22.26c-.15.18-.29.36-.44.53a1.89,1.89,0,0,1-.2.2,1,1,0,0,1-.28.17,2.63,2.63,0,0,1-.59.22,2.24,2.24,0,0,0-.6.25l-.31.16a1.73,1.73,0,0,0-.3.16l-.2.19a.5.5,0,0,0-.06.24.8.8,0,0,0,.21.56c.13.19.25.39.37.59s.06.06.14.06h.29a2.93,2.93,0,0,1,1.19.48c.38.22.81.29,1.18.52a1.76,1.76,0,0,1,.43.47,4.4,4.4,0,0,1,.31.56,2.77,2.77,0,0,0,.28.54,3.09,3.09,0,0,0,.43.46,1.49,1.49,0,0,0,.58.24,2,2,0,0,0,.69,0,2.17,2.17,0,0,1,.25,0c.11,0,.17.07.23.14a1.72,1.72,0,0,0,.48.37,4.2,4.2,0,0,0,.6.3c.22.08.45.14.66.24a2.08,2.08,0,0,1,.51.37c.08.07.13.16.21.22a.76.76,0,0,0,.23.13,3.81,3.81,0,0,1,.57.29,3.57,3.57,0,0,1,.5.45l.18.23A2.72,2.72,0,0,0,75,51l.21.19a.24.24,0,0,1,.11.23,2.31,2.31,0,0,0,0,.37.53.53,0,0,0,.13.2,1,1,0,0,0,.21.21.41.41,0,0,0,.11.07s.1,0,.12.09a.39.39,0,0,1-.08.14l-.09.15a.9.9,0,0,0-.12.36.51.51,0,0,0,0,.13,1.24,1.24,0,0,1,0,.18,1,1,0,0,1,0,.33c0,.12-.07.23-.1.35a.5.5,0,0,1-.14.28l-.24.23a1,1,0,0,0-.19.25,4.1,4.1,0,0,0-.23.7,1.55,1.55,0,0,0,0,.37,2.82,2.82,0,0,0,0,.41.91.91,0,0,0,.41.59c.21.12.46.18.68.29a1.64,1.64,0,0,1,.53.37,2.56,2.56,0,0,1,.2.26,2.06,2.06,0,0,1,.17.33,1.64,1.64,0,0,0,.14.3,1.43,1.43,0,0,0,.2.23.65.65,0,0,0,.28.12l.4.15.79.26c.25.09.47.21.7.3a2.67,2.67,0,0,1,.34.15c.12.06.23.14.35.21l.3.18a1.72,1.72,0,0,1,.29.31,2.65,2.65,0,0,1,.48.58,3.18,3.18,0,0,1,.25.67c.06.27.11.54.17.8s.06.24.09.36a.55.55,0,0,0,.11.3,1.47,1.47,0,0,0,.22.21.77.77,0,0,0,.26.12l.33.1.42.11a3.6,3.6,0,0,1,.68.34c.1.06.2.11.3.18a3.85,3.85,0,0,1,.3.27,6.11,6.11,0,0,1,.56.58,5.91,5.91,0,0,0,.48.52,2.84,2.84,0,0,0,.61.35,2.83,2.83,0,0,1,.28.2,3.88,3.88,0,0,0,.31.26,1.68,1.68,0,0,0,.32.09,3.15,3.15,0,0,0,.42.09,6.57,6.57,0,0,1,.77.16,2.4,2.4,0,0,1,.61.38l.3.25c.1.07.22.12.32.19a2.61,2.61,0,0,1,.23.24,1.35,1.35,0,0,0,.27.2A1.73,1.73,0,0,0,90,68l.38.11a2.41,2.41,0,0,1,1.11.89,2.14,2.14,0,0,1,.39.67c0,.11.07.22.11.33a.85.85,0,0,1,0,.32.61.61,0,0,1,0,.3l-.19.36-.18.34a1.27,1.27,0,0,0-.11.38,2.9,2.9,0,0,0,0,.72c0,.26.14.52.2.77a1.35,1.35,0,0,1,.06.35,3.21,3.21,0,0,1-.07.43c0,.26-.11.53-.18.78s-.06.24-.08.37,0,.26-.07.39-.14.53-.22.8-.18.5-.25.76-.06.25-.08.38,0,.17-.09.24-.18.11-.27.18a2.18,2.18,0,0,0-.31.22.82.82,0,0,0-.12.25c0,.12-.09.25-.13.37s-.19.49-.26.74a1.77,1.77,0,0,1-.35.61,2.12,2.12,0,0,1-.53.46,4,4,0,0,1-.63.29c-.25.1-.52.11-.77.19a1,1,0,0,0-.5.4,1.08,1.08,0,0,0-.16.3,1.38,1.38,0,0,1-.12.34c0,.11-.11.21-.16.32a.48.48,0,0,1-.18.24,10.33,10.33,0,0,1-1.39.82,5.83,5.83,0,0,0-.72.32c-.22.14-.43.27-.64.42s-.41.31-.63.45-.46.25-.7.37a4.37,4.37,0,0,1-.71.28c-.25.07-.51.11-.77.16l-.82.19a7.32,7.32,0,0,1-.8.11c-.27,0-.53.09-.8.14a3.37,3.37,0,0,0-.77.21,1,1,0,0,1-.33.12c-.11,0-.2-.08-.29-.12l-.7-.4a3.44,3.44,0,0,0-.68-.37.48.48,0,0,0-.26-.06l-.39.05-.35,0a.82.82,0,0,0-.34.16,3,3,0,0,1-.31.15,1,1,0,0,1-.38,0,4.06,4.06,0,0,1-.78-.1.73.73,0,0,0-.29,0,3.89,3.89,0,0,0-.4.1,1.78,1.78,0,0,0-.3.17.85.85,0,0,0-.25.25l-.25.29a.41.41,0,0,1-.23.16c-.11,0-.22.09-.33.11a2.2,2.2,0,0,1-.36,0,.45.45,0,0,0-.28.06.7.7,0,0,0-.19.26c-.06.1-.09.22-.15.31s-.21.1-.29.12a2,2,0,0,1-.76.11l-.8-.1c-.26,0-.53-.05-.79-.09s-.5-.08-.73-.15a1.49,1.49,0,0,1-.64-.32A3.82,3.82,0,0,0,64.52,86l-.33-.15a2.62,2.62,0,0,0-.4-.11c-.27-.06-.54-.1-.82-.15s-.54-.1-.8-.17a1.67,1.67,0,0,1-.32-.08,3.24,3.24,0,0,1-.35-.21,1.46,1.46,0,0,1-.28-.21A2.91,2.91,0,0,1,61,84.6c-.18-.2-.34-.4-.52-.59A15.15,15.15,0,0,0,59.26,83a4.08,4.08,0,0,1-.6-.5c-.17-.19-.31-.41-.47-.61l-.46-.62a3.89,3.89,0,0,0-.48-.58,3.25,3.25,0,0,0-.6-.35l-.35-.18a1.45,1.45,0,0,0-.36-.08,6.92,6.92,0,0,0-1.64-.09,4.58,4.58,0,0,0-1.54.42l-.73.35a3.65,3.65,0,0,1-.73.23,3,3,0,0,1-.74.1,1.14,1.14,0,0,1-.32-.07c-.14,0-.28-.09-.42-.12a1.15,1.15,0,0,1-.48-.34c-.07-.09-.13-.19-.19-.28A1.9,1.9,0,0,0,48.9,80a1.18,1.18,0,0,0-.25-.19l-.35-.12a1.66,1.66,0,0,0-.31-.12c-.12,0-.23,0-.35,0a1.6,1.6,0,0,0-.31,0,1.19,1.19,0,0,0-.29.12.81.81,0,0,1-.33.14l-.39,0a.4.4,0,0,1-.23-.08c-.1-.05-.15-.08-.16-.2a2,2,0,0,0,0-.35c0-.12-.09-.24-.14-.36s-.12-.14-.21-.2a1,1,0,0,0-.32-.21c-.25-.07-.49-.13-.73-.22l-.36-.13c-.08,0-.18,0-.22-.13s0-.19-.07-.28a1.09,1.09,0,0,0-.17-.34,5.69,5.69,0,0,0-.49-.61c-.17-.18-.36-.35-.52-.55a4.88,4.88,0,0,0-.48-.62,1.29,1.29,0,0,0-.19-.21c-.09-.06-.23,0-.32,0a1.39,1.39,0,0,0-.35,0l-.37.14a4.89,4.89,0,0,1-.77.23c-.26.05-.53.09-.79.12L38.6,76l-.4.07a2,2,0,0,0-.34.14c-.24.11-.49.24-.74.33a2.09,2.09,0,0,1-.7.11c-.28,0-.55,0-.82,0a5,5,0,0,1-.78-.08,4.52,4.52,0,0,1-.73-.16c-.24-.07-.45-.23-.69-.3L33.1,76c-.11,0-.16,0-.25.07l-.33.17a2.21,2.21,0,0,1-.34.18.88.88,0,0,1-.36,0,1.51,1.51,0,0,0-.37.06.66.66,0,0,0-.3.12l-.3.23c-.08.07-.15.16-.23.24a1.65,1.65,0,0,1-.31.2c-.2.12-.48,0-.66-.12l-.28-.16a3.76,3.76,0,0,1-.31-.25c-.19-.16-.37-.35-.58-.51a2,2,0,0,0-.35-.19,1.66,1.66,0,0,0-.37-.14,3.43,3.43,0,0,1-.34-.06l-.34-.15a4.56,4.56,0,0,0-.72-.21,2.92,2.92,0,0,0-.4-.1l-.38,0c-.26,0-.52,0-.78,0a4,4,0,0,1-.75-.16,4.89,4.89,0,0,1-.73-.26.9.9,0,0,1-.25-.23l-.28-.31a1,1,0,0,1-.19-.22,3.11,3.11,0,0,1,0-.32,2.13,2.13,0,0,0-.11-.33,1.36,1.36,0,0,1-.06-.36,2.49,2.49,0,0,1,.08-.72c0-.13.06-.25.08-.38s0-.29.06-.43.13-.51.18-.77a4,4,0,0,0,0-.77v-.39a2.69,2.69,0,0,1,0-.4A3.78,3.78,0,0,1,23.59,68c.16-.22.32-.43.49-.64s.33-.38.47-.58a3.14,3.14,0,0,0,.37-.64c.11-.24.22-.49.31-.75l.12-.33a1,1,0,0,0,0-.38c0-.28,0-.55-.05-.82s0-.25,0-.37,0-.24,0-.36a.42.42,0,0,0-.14-.25l-.26-.31s-.06-.13-.13-.11-.12.07-.17.1l-.37.25-.73.48a2,2,0,0,1-.31.19c-.09,0-.18-.06-.25-.1s-.14,0-.23,0a.92.92,0,0,1-.37,0,2.2,2.2,0,0,1-.36,0c-.11,0-.2-.1-.31-.13a2.08,2.08,0,0,0-.36-.06,1.87,1.87,0,0,1-.4-.07c-.52-.14-1-.33-1.53-.49a1.79,1.79,0,0,1-.32-.13l-.29-.2a1.1,1.1,0,0,1-.42-.53,4.08,4.08,0,0,0-.32-.71c-.11-.22-.18-.47-.31-.69a2.53,2.53,0,0,0-.18-.27,1.43,1.43,0,0,0-.26-.23,2,2,0,0,0-.61-.31,2.2,2.2,0,0,0-.36,0l-.41,0a4,4,0,0,0-.77.08,7,7,0,0,1-1.64.15l-.33,0a.43.43,0,0,1-.26-.13,1.94,1.94,0,0,1-.27-.21,1.07,1.07,0,0,1-.14-.35,3.93,3.93,0,0,1-.15-.76c0-.13,0-.25,0-.38s0-.19-.09-.28l-.29-.33a2.21,2.21,0,0,0-.29-.22,4.17,4.17,0,0,1-.53-.41.38.38,0,0,1-.14-.21,1.08,1.08,0,0,1,0-.36c.06-.26.18-.5.26-.76a1,1,0,0,0,.05-.34.94.94,0,0,0,0-.37c-.07-.23-.15-.46-.23-.69a1.87,1.87,0,0,0-.2-.29,2.34,2.34,0,0,1-.24-.31,2,2,0,0,1-.35-.63c0-.11-.07-.21-.1-.32a1,1,0,0,1,.05-.38,5.17,5.17,0,0,1,.27-.75,3.65,3.65,0,0,0,.14-.35c0-.12,0-.25.06-.37a5,5,0,0,0,.07-.78,2.18,2.18,0,0,1,.1-.76,2.88,2.88,0,0,1,.13-.31,1.14,1.14,0,0,1,.21-.28,4.43,4.43,0,0,1,.51-.55,6.38,6.38,0,0,0,.52-.52,1.79,1.79,0,0,0,.23-.25,1.83,1.83,0,0,0,.14-.32.41.41,0,0,0,0-.24l-.06-.44a.94.94,0,0,0-.15-.32l-.21-.37-.19-.33a.81.81,0,0,1-.08-.38,2.47,2.47,0,0,1,0-.38,2.76,2.76,0,0,1,.06-.4c0-.12,0-.24,0-.37a1.44,1.44,0,0,0-.07-.36.53.53,0,0,0-.13-.26,2.73,2.73,0,0,0-.25-.23.69.69,0,0,0-.28-.08,2.2,2.2,0,0,0-.36,0l-.82,0a4.15,4.15,0,0,1-.78-.09,2.18,2.18,0,0,1-.75-.23c-.09,0-.2-.09-.29-.15S8.06,42,8,41.87s0-.15.09-.23a1,1,0,0,1,.27-.17A2.72,2.72,0,0,0,9,41.12c.2-.15.39-.3.6-.44a3.92,3.92,0,0,1,.64-.34.83.83,0,0,0,.26-.17,1.81,1.81,0,0,1,.32-.22,3.3,3.3,0,0,0,.55-.51c.38-.38.82-.71,1.18-1.11a6.71,6.71,0,0,0,.48-.58l.22-.32a1.2,1.2,0,0,0,.13-.36c.09-.27.17-.54.26-.81a1.31,1.31,0,0,1,.12-.33c.06-.11.13-.21.18-.31a.39.39,0,0,1,.19-.19,3.54,3.54,0,0,1,.34-.16c.24-.09.51-.12.76-.19A5.58,5.58,0,0,0,16,34.8a1.5,1.5,0,0,0,.51-.35c.17-.2.32-.41.48-.61s.32-.36.48-.53a5.25,5.25,0,0,1,1.19-.9,3.81,3.81,0,0,0,.61-.37,1.44,1.44,0,0,0,.46-.46c.12-.23.26-.45.37-.69a7.09,7.09,0,0,0,.26-.73,6,6,0,0,1,.33-.73,1.51,1.51,0,0,1,.43-.6l.29-.21s.08-.09.14-.08a.61.61,0,0,1,.18.09.85.85,0,0,1,.29.17,1.25,1.25,0,0,1,.21.3,3.64,3.64,0,0,0,.5.54c.06.06.17.24.27.2a.83.83,0,0,0,.15-.11l.17-.1a.45.45,0,0,0,.18-.25L23.7,29c.06-.11.11-.23.17-.34a1,1,0,0,1,.24-.33l.22-.26a1.56,1.56,0,0,1,.28-.23c.09-.06.17-.14.25-.2a.73.73,0,0,1,.29-.11,7.06,7.06,0,0,1,1.5-.33c.26,0,.52,0,.78,0a1.43,1.43,0,0,0,.35-.06l.39-.17a3.87,3.87,0,0,1,.72-.2l.82-.2c.13,0,.26,0,.39-.09a1,1,0,0,1,.39,0c.26,0,.5.08.77.09H32c.11,0,.22,0,.33,0a.65.65,0,0,1,.31.18c.44.29.83.64,1.25.95l.27.21c.1.09.18.2.27.29a1.36,1.36,0,0,1,.3.6,3.64,3.64,0,0,1,.15.73,3.6,3.6,0,0,1-.06.8q-.06.41-.15.81c0,.13-.07.25-.1.38a2.31,2.31,0,0,0,0,.37,1.93,1.93,0,0,0,0,.34c0,.11.12.19.19.28a1.42,1.42,0,0,0,.2.28,2,2,0,0,0,.28.21,4.41,4.41,0,0,1,.58.47l.29.27a2.78,2.78,0,0,0,.33.27,5.05,5.05,0,0,0,.71.33,1.46,1.46,0,0,0,.72,0l1.68-.23.83-.12a.57.57,0,0,1,.29,0,1.08,1.08,0,0,0,.35.1,1.3,1.3,0,0,0,.62-.25l.31-.2.28-.25a3.54,3.54,0,0,1,.63-.44,1.69,1.69,0,0,1,.31-.13l.4-.12a3.47,3.47,0,0,1,.78-.1,2.38,2.38,0,0,1,.38,0,2.58,2.58,0,0,0,.4,0,2,2,0,0,0,.34,0,2.07,2.07,0,0,0,.34-.15l.33-.14c.12,0,.24-.06.37-.09a3.47,3.47,0,0,1,.79-.07c.27,0,.54,0,.8.05a6.87,6.87,0,0,1,.79,0,4.5,4.5,0,0,0,.82,0,1.17,1.17,0,0,0,.37,0,1.57,1.57,0,0,0,.25-.2s.16-.1.19-.16,0-.19,0-.25a.68.68,0,0,0-.05-.29,2,2,0,0,0-.25-.25.44.44,0,0,1-.11-.24.86.86,0,0,1,.1-.32,1.2,1.2,0,0,1,.13-.33c.06-.09.2-.14.29-.2s.48-.28.7-.44a1.59,1.59,0,0,0,.44-.49,5.65,5.65,0,0,1,.31-.66,2.82,2.82,0,0,0,.18-.29,2.34,2.34,0,0,1,.24-.31c.15-.19.29-.41.44-.6a4,4,0,0,1,.54-.55,5.83,5.83,0,0,0,.56-.55c.08-.1.17-.2.25-.31a1.44,1.44,0,0,0,.22-.27,1.06,1.06,0,0,0,.14-.33,1.12,1.12,0,0,0,0-.36.34.34,0,0,1,.11-.25,2.2,2.2,0,0,0,.21-.32l.21-.32c0-.09.1-.2.16-.29a.72.72,0,0,1,.21-.18,1.7,1.7,0,0,0,.3-.23,4.18,4.18,0,0,0,.54-.57,4.66,4.66,0,0,0,.4-.68,6.61,6.61,0,0,1,.47-.58c.16-.21.35-.42.49-.64s.25-.47.39-.69l.19-.33a1.45,1.45,0,0,0,.12-.35,4.82,4.82,0,0,1,.31-.7.83.83,0,0,1,.19-.26,1.9,1.9,0,0,0,.25-.24,2.23,2.23,0,0,0,.22-.61,3.65,3.65,0,0,1,.27-.69,1.56,1.56,0,0,0,.08-.68,5,5,0,0,0-.1-.76,3.33,3.33,0,0,1-.1-.78,1.86,1.86,0,0,1,0-.34,2.32,2.32,0,0,0,0-.37c0-.12,0-.24,0-.35a.5.5,0,0,0,0-.18c0-.06,0-.14,0-.2a.61.61,0,0,1,.25.08l.21.07.53.15a2.3,2.3,0,0,0,.45.12,4.55,4.55,0,0,1,.53,0,2,2,0,0,0,.49,0,2.66,2.66,0,0,0,.49-.1,2.71,2.71,0,0,0,.39-.17,1.25,1.25,0,0,1,.51-.1,1.68,1.68,0,0,0,.45,0c.14-.05.28-.13.42-.19a6.81,6.81,0,0,1,.91-.41,1.59,1.59,0,0,1,.89,0,8.48,8.48,0,0,0,1,.15,8.45,8.45,0,0,1,1,.21,4.12,4.12,0,0,1,.91.33,7.79,7.79,0,0,1,.85.56c.29.21.59.41.89.61a5.32,5.32,0,0,0,.83.49c.13.06.27.09.41.14a.66.66,0,0,0,.2.06.83.83,0,0,0,.21-.06,5.44,5.44,0,0,1,1-.22l.51-.08a1.94,1.94,0,0,1,.48,0c.35,0,.67.19,1,.27a3.33,3.33,0,0,0,.55.1c.18,0,.36,0,.54,0a2.16,2.16,0,0,1,1.06.29l.48.28A.91.91,0,0,1,78.42,16Z"/></g></svg>