<svg xmlns="http://www.w3.org/2000/svg" viewBox="0 0 100 100"><g id="Sarlahi"><path d="M79.77,25.39s0,.06,0,.08a2.58,2.58,0,0,0,0,.39c0,.33,0,.65-.07,1,0,.16,0,.32,0,.48a1.06,1.06,0,0,0,0,.47c0,.14.1.28.14.42s.09.3.14.45c.1.31.21.61.31.92a2,2,0,0,0,.18.4l.25.39c.08.12.15.25.23.38a.51.51,0,0,0,.32.19l.21.08a.59.59,0,0,1,.17.1,1.08,1.08,0,0,1,.16.3,1.14,1.14,0,0,1,.1.19.85.85,0,0,1,0,.23c0,.16,0,.32,0,.47a1.11,1.11,0,0,1-.08.41,1.77,1.77,0,0,0-.15.42c0,.15,0,.3,0,.45a1,1,0,0,0,0,.41,3.89,3.89,0,0,0,.19.42.73.73,0,0,1,.07.19,1,1,0,0,1,0,.24v.22a.54.54,0,0,1,0,.22,1.55,1.55,0,0,1-.21.35c-.09.13-.17.26-.25.4a2.27,2.27,0,0,1-.26.35c-.1.12-.21.22-.32.33l-.3.34c-.4.47-.76,1-1.14,1.47a2.82,2.82,0,0,0-.24.36c-.07.14-.13.28-.19.42s-.11.29-.16.44a2.28,2.28,0,0,0-.15.44,2.4,2.4,0,0,0,0,.46,3.71,3.71,0,0,1,0,.47c0,.32-.06.65-.06,1s0,.64,0,.95a1.19,1.19,0,0,0,.06.46c0,.14.13.27.19.41s.12.28.17.43.09.31.14.47a9.28,9.28,0,0,1,.22.91,7.47,7.47,0,0,0,.18.92,6.78,6.78,0,0,0,.33.85c.12.3.22.61.32.91l.15.44a.59.59,0,0,0,.17.32l.34.28.37.3a1.14,1.14,0,0,1,.16.14.71.71,0,0,1,.12.18l.12.19a1.37,1.37,0,0,1,.13.2.25.25,0,0,1,0,.17c0,.08,0,.15-.07.22a3.17,3.17,0,0,1-.12.44,3.27,3.27,0,0,0-.37.75,1.42,1.42,0,0,0,0,.2.12.12,0,0,0,0,.15l.14.11.18.16a1.76,1.76,0,0,0,.34.27c.14.08.28.13.42.2l.4.21c.13.08.27.15.4.24a1.67,1.67,0,0,1,.28.31l.27.36.57.76a2.2,2.2,0,0,0,.3.31l.35.29a8.05,8.05,0,0,1,.68.63c.21.22.4.47.59.71a4.11,4.11,0,0,1,.27.35,1.4,1.4,0,0,1,.11.4l.06.19a.25.25,0,0,1,0,.19,1.42,1.42,0,0,1-.12.13l-.15.17a.83.83,0,0,1-.3.26l-.44.19a.44.44,0,0,0-.15.08.59.59,0,0,0-.1.17.56.56,0,0,0-.09.17,1,1,0,0,0,0,.24,1.36,1.36,0,0,0,0,.45,1.6,1.6,0,0,1,0,.21,1.66,1.66,0,0,0,.06.21,2,2,0,0,0,.21.35,1,1,0,0,0,.22.31c.11.09.24.16.36.24l.38.25.4.24.18.1s.11.06.12.12a1.25,1.25,0,0,1,0,.19l0,.23,0,.22a.41.41,0,0,1,0,.19.25.25,0,0,1-.11.12l-.17.16a1.31,1.31,0,0,1-.32.25l-.4.2-.41.25-.19.11a.33.33,0,0,0-.13.13.84.84,0,0,0-.05.17.17.17,0,0,0,.06.15c.09.09.17.19.26.29a1.07,1.07,0,0,0,.31.25c.23.15.45.31.69.44l.39.18.4.19a1.38,1.38,0,0,1,.34.18l.14.15c.1.09.18.16,0,.25l-.22.12c-.13.05-.28.07-.41.13a1.53,1.53,0,0,0-.16.11s-.09,0-.09.1,0,.09.08.13.06.12.12.15a.73.73,0,0,0,.19.07l.2.07s.11,0,.08.09l-.05,0a.27.27,0,0,0-.07.08.44.44,0,0,1-.15.12l-.18.07-.2.08-.23,0-.21,0a.54.54,0,0,1-.22-.05.64.64,0,0,1-.18-.1.57.57,0,0,1-.15-.16c-.1-.11-.19-.22-.28-.34s-.07-.09-.12,0-.09.12-.14.18l-.15.17a.34.34,0,0,0-.09.18c0,.07,0,.14,0,.21s0,.16,0,.24a2.93,2.93,0,0,0,.24.9l.15.45c0,.15.09.29.15.43a2.4,2.4,0,0,0,.23.38l.27.37c.07.11.16.22.13.35s0,.09-.11.09h-.2c-.16,0-.31.08-.46.12l-.22,0h-.22l-.21.06-.23.07a2,2,0,0,0-.41.15,3,3,0,0,0-.37.25l-.38.25c-.14.08-.28.14-.43.21s-.25.16-.38.24a3,3,0,0,0-.36.26,2.22,2.22,0,0,1-.37.21c-.13.06-.25.15-.37.22s-.27.14-.4.21a1.79,1.79,0,0,0-.38.22l-.34.28a2.52,2.52,0,0,0-.35.3c-.09.1-.2.19-.31.29a2.24,2.24,0,0,0-.27.34,1.63,1.63,0,0,0-.23.35c0,.07,0,.14,0,.2s0,.15,0,.22a2,2,0,0,0,.08.43,1.78,1.78,0,0,0,.13.45c.06.14.13.27.18.41a3.15,3.15,0,0,1,.11.44,4,4,0,0,1,.09.48,3.54,3.54,0,0,0,.08.45,4.1,4.1,0,0,1,.1.48,3.54,3.54,0,0,0,.08.45.78.78,0,0,1,0,.22,1.77,1.77,0,0,0,0,.23,1.41,1.41,0,0,0,.11.45c0,.15.1.3.14.46a3.11,3.11,0,0,1,.08.44,3.55,3.55,0,0,0,.06.47c.08.29.22.56.31.85s.07.31.1.46l.09.45c0,.15,0,.3.06.45a2.14,2.14,0,0,0,.16.42,1.48,1.48,0,0,1,.12.41,2.37,2.37,0,0,1,0,.46,7.48,7.48,0,0,0,.13,1l.09.48a.75.75,0,0,1,0,.21.55.55,0,0,1-.06.22.56.56,0,0,0,0,.4,2.69,2.69,0,0,0,.19.38,2.35,2.35,0,0,0,.3.33,1.3,1.3,0,0,0,.31.26c.12.07.26.11.38.17a1.29,1.29,0,0,1,.3.27c.18.2.43.44.37.73a2.11,2.11,0,0,1-.12.43l-.17.45c-.06.15-.12.29-.19.43a1.27,1.27,0,0,1-.2.36c-.09.12-.19.22-.28.34a.47.47,0,0,1-.14.14l-.21.08-.44.16a1.78,1.78,0,0,1-.45.08.28.28,0,0,1-.28-.14,2.07,2.07,0,0,1-.14-.42,4,4,0,0,0-.14-.46c-.06-.13-.14-.24-.2-.37s-.1-.27-.17-.4a1.46,1.46,0,0,0-.26-.34,1.23,1.23,0,0,0-.72-.37c-.13,0-.27,0-.4-.06a.34.34,0,0,1-.27-.19,1.29,1.29,0,0,1,0-.44,1.67,1.67,0,0,0-.11-.44.62.62,0,0,0-.21-.31l-.18-.07-.23-.1-.44-.16a3.2,3.2,0,0,0-.42-.1.89.89,0,0,1-.33-.21,1.35,1.35,0,0,0-.32-.27.87.87,0,0,0-.36,0,2.07,2.07,0,0,0-.43.1l-.44.1a.11.11,0,0,1-.14,0,.44.44,0,0,1-.1-.19,1.12,1.12,0,0,1,.07-.4,2.74,2.74,0,0,1,.15-.4.43.43,0,0,0-.08-.39,1.44,1.44,0,0,0-.32-.23c-.12-.08-.22-.18-.33-.25a1,1,0,0,1-.28-.22s0-.12-.08-.17a1.24,1.24,0,0,0-.1-.2L74,84.1a3,3,0,0,1-.19-.41,2.25,2.25,0,0,1-.13-.42,7,7,0,0,0-.27-.89,4.36,4.36,0,0,0-.45-.82,1.66,1.66,0,0,0-.25-.34,3.17,3.17,0,0,0-.34-.28c-.13-.09-.25-.17-.37-.27a2.7,2.7,0,0,0-.34-.25,3.17,3.17,0,0,0-.41-.21L70.87,80A6.4,6.4,0,0,0,70,79.6c-.28-.1-.57-.21-.86-.3a5.66,5.66,0,0,0-.91-.19,2.28,2.28,0,0,0-.45,0,2.34,2.34,0,0,0-.46.09,3.12,3.12,0,0,0-.43.15,1.4,1.4,0,0,1-.41.13,2.67,2.67,0,0,1-.49,0h-.47c-.32,0-.64.08-1,.13s-.61.12-.92.19a9,9,0,0,0-.88.28,3.26,3.26,0,0,1-.44.15,2.13,2.13,0,0,1-.44.07c-.32,0-.65,0-1,.09l-.93.13a1.48,1.48,0,0,1-.21,0,.82.82,0,0,1-.19-.09l-.19-.07-.2-.1c-.14-.07-.27-.15-.4-.23s-.26-.14-.38-.22l-.32-.27a1.86,1.86,0,0,1-.27-.29,1.31,1.31,0,0,1-.13-.41c0-.14,0-.29,0-.44a1.45,1.45,0,0,0-.42-.74c-.2-.22-.43-.4-.65-.61a5.44,5.44,0,0,0-.67-.59,6,6,0,0,0-.79-.42l-.88-.38c-.29-.12-.58-.24-.85-.38s-.26-.16-.39-.24-.25-.15-.36-.24a.53.53,0,0,1-.23-.3c0-.12-.07-.25-.1-.38s-.05-.3-.08-.45,0-.31-.05-.47-.07-.29-.11-.43a1.63,1.63,0,0,1,0-.44,3.09,3.09,0,0,0-.18-1.78,1.91,1.91,0,0,0-.58-.62,3.11,3.11,0,0,0-.76-.36l-.46-.14a2.87,2.87,0,0,1-.4-.18c-.27-.15-.51-.35-.77-.5a4.18,4.18,0,0,0-.8-.38c-.15,0-.29-.12-.44-.16a1.7,1.7,0,0,0-.44-.08,7.61,7.61,0,0,0-.95-.08c-.15,0-.3,0-.45,0a1.33,1.33,0,0,1-.45-.06,1.3,1.3,0,0,1-.33-.23c-.11-.09-.23-.18-.33-.28l-.69-.68-.33-.33a2.37,2.37,0,0,1-.34-.29,7.73,7.73,0,0,1-.49-.64.31.31,0,0,1-.06-.16.68.68,0,0,1,.07-.2A1.59,1.59,0,0,1,43,65a1.22,1.22,0,0,1,.15-.17l.15-.12a.81.81,0,0,0,.16-.16,1.15,1.15,0,0,0,.14-.17.76.76,0,0,0,.12-.19.61.61,0,0,0,0-.19,1.7,1.7,0,0,1,0-.22c0-.15-.08-.3-.12-.45a5,5,0,0,0-.34-.83,4.23,4.23,0,0,0-.54-.72,2.22,2.22,0,0,0-.64-.58,2,2,0,0,0-.85-.16,3.87,3.87,0,0,0-.48,0,.85.85,0,0,1-.42,0A2.14,2.14,0,0,1,39.9,61c-.13-.07-.25-.15-.39-.21a.71.71,0,0,0-.41,0l-.21.06-.23.06a3.45,3.45,0,0,0-.43.12c-.14.05-.27.11-.41.15a1.88,1.88,0,0,1-.47.05,3.69,3.69,0,0,1-.47,0,2.57,2.57,0,0,1-.44-.11L36,60.92a3.85,3.85,0,0,1-.71-.41c-.12-.08-.25-.16-.36-.25a2.18,2.18,0,0,0-.34-.26c-.26-.15-.54-.27-.81-.41A5.69,5.69,0,0,1,33,59.1a3,3,0,0,0-.37-.25l-.41-.21c-.28-.16-.54-.34-.81-.51a8.18,8.18,0,0,1-.79-.51c-.25-.18-.47-.39-.72-.57a5.26,5.26,0,0,1-.67-.58l-.33-.35a3,3,0,0,0-.33-.28c-.13-.09-.24-.19-.36-.29l-.37-.3c-.23-.19-.48-.38-.71-.59s-.22-.22-.34-.32l-.34-.29-.29-.34-.31-.35-.65-.66c-.11-.11-.2-.23-.3-.34a3,3,0,0,0-.32-.3c-.23-.19-.49-.34-.73-.51-.49-.37-1-.76-1.48-1.08l-.42-.23a1.1,1.1,0,0,0-.37-.16,2.52,2.52,0,0,0-.47-.06,4,4,0,0,0-.49,0,1.61,1.61,0,0,0-.44.06,2.37,2.37,0,0,1-.46.11,3.73,3.73,0,0,0-.47,0,3.43,3.43,0,0,1-.46.11l-.48.09-.47.08a3.65,3.65,0,0,0-.46.07l-.49.08c-.31.05-.63.09-1,.11a1.18,1.18,0,0,1-.46,0c-.13,0-.2-.17-.29-.26s-.11-.08-.15-.13a1.22,1.22,0,0,1-.12-.19,3.07,3.07,0,0,1-.17-.42,3.07,3.07,0,0,0-.17-.42c-.07-.12-.16-.23-.22-.36a1,1,0,0,0-.1-.18.61.61,0,0,0-.15-.13l-.36-.29-.17-.12a.75.75,0,0,1-.15-.16.89.89,0,0,1-.17-.37,3,3,0,0,0-.1-.43,2.32,2.32,0,0,1-.06-.45,1.21,1.21,0,0,1,.12-.41.63.63,0,0,1,.22-.33c.26-.15.56-.23.8-.4a1.58,1.58,0,0,0,.5-.67,2,2,0,0,0,.13-.88,1.75,1.75,0,0,0,0-.46c-.05-.14-.11-.28-.17-.42s-.13-.28-.2-.43l-.09-.19a.36.36,0,0,0-.11-.16l-.15-.09-.17-.13a.37.37,0,0,0-.17,0,.72.72,0,0,0-.25,0l-.2.07-.22.09a3.09,3.09,0,0,1-.43.14l-.21.05a1,1,0,0,1-.23,0,.26.26,0,0,1-.17-.07,1,1,0,0,1-.14-.15,1.15,1.15,0,0,1-.14-.38,1,1,0,0,1,0-.45.78.78,0,0,1,.21-.35,2.57,2.57,0,0,0,.28-.29.33.33,0,0,0,0-.36,1.22,1.22,0,0,1-.18-.36.5.5,0,0,1,0-.4,1,1,0,0,1,.31-.27l.38-.26.18-.11a.51.51,0,0,0,.16-.13.36.36,0,0,0,.07-.18,1.57,1.57,0,0,0,0-.23,2.42,2.42,0,0,0,0-.47,2.59,2.59,0,0,1,.06-.92,1.21,1.21,0,0,1,.16-.41.77.77,0,0,1,.27-.32,1.09,1.09,0,0,0,.33-.23,1,1,0,0,0,.17-.4c0-.14.07-.28.12-.41a3.39,3.39,0,0,0,.18-.39c.05-.15.08-.3.12-.45a.83.83,0,0,1,.06-.21,1,1,0,0,0,.1-.18s0-.11,0-.17a1.14,1.14,0,0,1,.1-.19l.26-.4c.36-.52.74-1,1.08-1.54.18-.25.34-.52.5-.79s.35-.53.53-.79.35-.53.52-.79a5,5,0,0,1,.53-.74,3.92,3.92,0,0,0,.55-.67,3.39,3.39,0,0,0,.18-.39,3.29,3.29,0,0,1,.17-.39,1.91,1.91,0,0,1,.64-.52.88.88,0,0,0,.15-.12l.12-.17a.93.93,0,0,0,.13-.15,1,1,0,0,0,.08-.18c0-.13.06-.27.11-.4s.14-.26.18-.4a3.43,3.43,0,0,0,.09-.44c0-.16.08-.31.11-.46.13-.63.23-1.27.4-1.89.08-.3.21-.59.3-.89s.08-.31.12-.47.09-.28.14-.41c.1-.29.21-.57.31-.85a8.44,8.44,0,0,0,.21-.9c.06-.3.13-.61.21-.91s.2-.6.3-.9.18-.61.26-.91a3.74,3.74,0,0,1,.12-.45c.05-.14.11-.28.17-.42s.12-.29.17-.44.08-.29.12-.43.11-.29.17-.44.09-.29.14-.44a9,9,0,0,1,.36-.85c.07-.14.13-.27.19-.41a3.33,3.33,0,0,1,.16-.4c.07-.13.15-.26.21-.4a3.69,3.69,0,0,0,.17-.42c.06-.14.12-.27.19-.41s.16-.27.23-.41.14-.27.22-.4A3,3,0,0,1,26,9.67,5.35,5.35,0,0,1,26.56,9a7,7,0,0,0,.66-.56s.05-.09.1-.08.08.06.1.09a1.31,1.31,0,0,0,.32.26l.18.1a.48.48,0,0,0,.19.09,3,3,0,0,0,.42,0c.16,0,.31,0,.47,0a3.43,3.43,0,0,1,.44.09l.45.13a3.9,3.9,0,0,1,.46.12l.16.1.21.1a3,3,0,0,1,.39.22l.35.27a2.85,2.85,0,0,1,.32.27c.1.11.18.23.27.34a1.9,1.9,0,0,1,.21.4c.06.13.12.27.19.39a2.42,2.42,0,0,0,.27.36,3.26,3.26,0,0,1,.57.66,1.72,1.72,0,0,0,.25.35c.1.11.19.22.29.32l.34.28.36.28a7.6,7.6,0,0,1,.63.64c.22.21.45.41.66.62s.21.23.32.34l.33.3a8,8,0,0,1,.65.65,7.67,7.67,0,0,1,.53.74c.08.12.17.24.26.35a1,1,0,0,0,.33.25,1.16,1.16,0,0,0,.4.16.54.54,0,0,0,.22,0l.26,0a.89.89,0,0,0,.39-.12,2.69,2.69,0,0,1,.38-.19l.41-.17.44-.15c.31-.08.61-.18.92-.23a7.45,7.45,0,0,1,.94-.08,3.55,3.55,0,0,1,.92.09,5.22,5.22,0,0,1,.86.32,3,3,0,0,1,.41.18l.18.08a.62.62,0,0,0,.23,0,1.2,1.2,0,0,0,.19,0,.3.3,0,0,0,.17-.1,2.21,2.21,0,0,1,.29-.32,3.85,3.85,0,0,1,.73-.37c.29-.12.57-.26.86-.39a1.17,1.17,0,0,1,.41-.14l.49,0c.15,0,.31-.05.47-.06h.46c.33,0,.66,0,1,0a1.83,1.83,0,0,1,.47,0,3.69,3.69,0,0,1,.45.11,3.24,3.24,0,0,1,.83.37l.37.24a3.49,3.49,0,0,0,.39.19.63.63,0,0,0,.45,0l.44-.12.93-.23c.15,0,.3-.07.45-.12a3.17,3.17,0,0,1,.44-.12.74.74,0,0,1,.21,0,1.6,1.6,0,0,1,.23,0,1.84,1.84,0,0,1,.4.19c.26.15.51.32.78.47a3.37,3.37,0,0,0,.85.37c.3.09.6.15.9.23a6,6,0,0,0,.94.17l.46.05a3.7,3.7,0,0,0,.47,0,1.71,1.71,0,0,0,.45,0c.15,0,.28-.09.42-.14l.44-.12a.34.34,0,0,1,.2,0,.93.93,0,0,1,.2.1,1.51,1.51,0,0,1,.37.22c.1.09.11.23.21.31a.8.8,0,0,0,.32.22l.42.12.89.29c.15.06.3.1.44.17a3.52,3.52,0,0,1,.38.24,3.73,3.73,0,0,1,.39.25c.13.09.26.19.39.27l.37.26a3.9,3.9,0,0,0,.36.25,2.26,2.26,0,0,0,.8.25,2.57,2.57,0,0,0,.48,0,3.54,3.54,0,0,0,.47-.07,5.73,5.73,0,0,0,.9-.25c.27-.12.49-.31.76-.44s.53-.29.81-.4a3.16,3.16,0,0,1,.43-.16,3.84,3.84,0,0,1,.46-.11l.47-.08A1,1,0,0,1,73,19a.35.35,0,0,1,.16.08,1.85,1.85,0,0,1,.14.14c.09.09.1.23.16.34a.9.9,0,0,0,.65.47.94.94,0,0,1,.4.13.81.81,0,0,1,.28.3,1.46,1.46,0,0,1,.1.8.37.37,0,0,0,0,.15c0,.05.1.05.15.07l.41.12a1.58,1.58,0,0,1,.35.16.37.37,0,0,1,.16.33,1.17,1.17,0,0,1-.13.4,3.06,3.06,0,0,0-.13.43c0,.15-.08.3-.11.46a1.55,1.55,0,0,1-.12.42,1.32,1.32,0,0,0-.13.38.35.35,0,0,0,.08.34,1.59,1.59,0,0,0,.32.26,2.6,2.6,0,0,0,.4.23c.28.12.57.2.85.31a2.44,2.44,0,0,0,.46.14l.44,0a3.59,3.59,0,0,0,.47,0c.16,0,.33,0,.49,0a1.46,1.46,0,0,1,.22,0,.57.57,0,0,1,.22,0c.11,0,.27.12.38,0S79.71,25.39,79.77,25.39Z"/></g></svg>