<svg xmlns="http://www.w3.org/2000/svg" viewBox="0 0 100 100"><g id="Baara"><path d="M35.76,22.82c.2,0,.4,0,.61,0l1,.06a.42.42,0,0,0,.16,0l.46-.1.42-.09c.07,0,.16.05.23.07.52.18,1,.37,1.55.57a12,12,0,0,0,1.2.39l1.55.4.42.1a.81.81,0,0,0,.22,0l.52,0h.22a.41.41,0,0,0,.11,0,.94.94,0,0,0,.22-.07l.49-.17a4.1,4.1,0,0,0,.59-.2l.43-.21.34-.17.26-.07.5-.14.58-.16.51-.15.25-.06a1.22,1.22,0,0,1,.27,0l.53,0H50c.54,0,1.09,0,1.64,0H52l.26-.06.66-.14,1.63-.38a6,6,0,0,1,.73-.07l.72-.09a.42.42,0,0,0,.2-.1l.45-.26.17-.1a.1.1,0,0,0,0,0,1.1,1.1,0,0,0,.09-.14l.13-.23c.05-.09.1-.18.16-.27a4.15,4.15,0,0,1,.24-.34l.18-.26.31-.29.18-.17.08-.07a.36.36,0,0,0,0-.09l.11-.22.22-.43a2,2,0,0,0,.07-.23c.11-.49.21-1,.35-1.46l.07-.26a1.09,1.09,0,0,1,0-.17l0,0,.18,0,.51-.13a1.14,1.14,0,0,1,.25-.06c.13,0,.26,0,.39,0l.48,0c.24,0,.48.06.72.09a5.54,5.54,0,0,0,.71,0h.33c.13,0,.26,0,.39.06s.48.08.72.13l.24.05s.1,0,.14,0a.05.05,0,0,0,0,0l.16-.12.43-.31a.66.66,0,0,1,.2-.14l.15,0,.26-.06.41-.09c.25-.05.51-.06.77-.1a2.3,2.3,0,0,0,.26,0c.07,0,.14-.07.2-.09a.6.6,0,0,1,.16-.08l.1,0,.24,0,.46.09.27,0a2.08,2.08,0,0,1,.36,0,1.84,1.84,0,0,1,.25.09l.49.19.46.18a.49.49,0,0,0,.17.06,3.46,3.46,0,0,0,.45,0,1.22,1.22,0,0,0,.27,0l.47-.13s.1,0,.13,0,0,0,.07.05l.4.27a3.88,3.88,0,0,1,.33.23,1,1,0,0,1,.17.19l.33.39a6.1,6.1,0,0,1,.4.59l.11.17,0,0,.2.05.26.07a.46.46,0,0,0,.2,0l.46,0,.5,0a.62.62,0,0,1,.19,0c.3,0,.6.09.89.13s.42.09.63.14l.45.1a.65.65,0,0,0,.2,0l.51,0a1.49,1.49,0,0,1,.21,0c.28.05.55.12.82.18l.5.12a2.3,2.3,0,0,1,.28.06,2.25,2.25,0,0,1,.21.12l.45.25.14.08a.11.11,0,0,1,0,.06l.17.45a.65.65,0,0,0,.09.23l.25.36a4.91,4.91,0,0,0,.39.51l.66.63.12.16.32.42c.32.41.65.81,1,1.21a.23.23,0,0,0,.11.11l.42.12.47.15a.7.7,0,0,0,.14,0c.57,0,1.13-.08,1.7-.1s.87,0,1.3,0l.92,0a6,6,0,0,0,.61-.05.85.85,0,0,1,.06.17.9.9,0,0,1,0,.16l.1.65c0,.27.08.53.13.79l.13.66a2.47,2.47,0,0,0,.06.29l.15.57c0,.13.07.25.1.38.08.35.12.72.18,1.07s.11.61.16.91a2,2,0,0,1,0,.35c0,.18,0,.37,0,.56s0,.24.07.36l.12.64c0,.1,0,.2.07.3l.1.33a1.6,1.6,0,0,1,0,.21.4.4,0,0,1,0,.11l0,.29c0,.19,0,.39,0,.58a.1.1,0,0,0,0,.07l.1.24.27.59c.12.28.24.56.37.83,0,.11.1.21.13.32s.07.35.11.52l.11.55c0,.1.07.2.1.3.1.28.19.58.32.86l.26.59.11.27a.31.31,0,0,1,0,.1c0,.06,0,.13,0,.19l0,.33a1.25,1.25,0,0,1,0,.33c0,.32,0,.63,0,.94l-.08.65a2.7,2.7,0,0,0,0,.28l0,1.13v.58a1.48,1.48,0,0,0,0,.21c0,.36-.09.72-.14,1.08s-.11.64-.16,1-.16.58-.21.87a3.15,3.15,0,0,0,0,.43l0,.32a.68.68,0,0,0,0,.14.65.65,0,0,0,0,.13l.07.29.17.61,0,.11s.06.08.08.12l.37.54c.06.09.13.17.18.26s.15.33.23.49l.24.51a1.24,1.24,0,0,1,.06.29l.13.66a1.45,1.45,0,0,1,0,.29l0,.61a.15.15,0,0,1,0,.09l-.11.23c-.14.27-.27.55-.43.81s-.33.53-.48.8l-.3.56c0,.1-.12.21-.17.32-.13.28-.26.56-.38.85l-.13.32a1.8,1.8,0,0,0-.08.21.49.49,0,0,0,0,.12l0,.31a3.27,3.27,0,0,0,0,.44,5.58,5.58,0,0,0,.08.57.19.19,0,0,1,0,.13l-.13.28a.38.38,0,0,1-.1.12l-.22.22-.31.28-.24.19a.25.25,0,0,0-.07.08l-.27.55a.39.39,0,0,1-.06.11c0,.06-.12.11-.18.17l-.69.65c.13.17.27.33.39.5s.27.45.4.66L90,62a.61.61,0,0,0,.13.15l.3.29.19.22.15.18s0,0,.06.07a.65.65,0,0,1,0,.13l.06.23.06.2s0,.05,0,.07,0,.07.07.11l.13.18.38.52.28.37A1.11,1.11,0,0,1,92,65l.17.42a.71.71,0,0,0,.11.17c.15.19.29.38.44.56l.26.31.14.17s0,0,0,.06a.78.78,0,0,1,0,.16V67s0,.08,0,.11.09.07.11.11,0,.08,0,.11l0,.21,0,.47a5.06,5.06,0,0,1-.08.52l-.15.76-.09.62-.06.47,0,.14s0,0,0,0l-.08.07-.16.15-.34.32a4.41,4.41,0,0,1-.49.36l-.19.12s-.07,0-.08.06a.27.27,0,0,0,0,.09V72c0,.22,0,.44,0,.66v.44a.06.06,0,0,1,0,.06.83.83,0,0,1-.11.15l-.13.2s-.06.06-.06.09,0,.08,0,.11l0,.22a2.38,2.38,0,0,1,.11.38v.09l0,.23a.48.48,0,0,0,0,.12s0,.07.06.09l.28.39a.39.39,0,0,1,.1.16l.08.38.1.47s0,.12,0,.17-.11.22-.16.33l-.21.41c-.19.38-.36.77-.53,1.16a2,2,0,0,0-.15.33,1.25,1.25,0,0,0,0,.19l-.08.86s0,.09.08.13l.3.36.14.17a.31.31,0,0,0,.07.09l.06,0,.2.1.59.3.37.2s0,0,0,.07a1.22,1.22,0,0,1,0,.17c0,.13,0,.26,0,.39s0,.07,0,.09-.07,0-.09,0l-.75.4a.07.07,0,0,0,0,0l-.11.18-.12.18a.19.19,0,0,0,0,.07l-.09.43a1,1,0,0,1-.09.22,3,3,0,0,1-.17.37l-.07.07-.15.12-.9-.69-.13-.1a1.13,1.13,0,0,1-.12-.18c-.1-.14-.21-.29-.3-.43s-.31-.58-.49-.85-.46-.67-.68-1-.32-.48-.49-.7l-.43-.57a1.21,1.21,0,0,0-.21-.25l-.54-.44a2.43,2.43,0,0,0-.25-.2l-.59-.41-.22-.14s0,0-.07,0l-2.19-.41-.38-.07-.66-.08c-.12,0-.24,0-.36,0h-.7l-.81,0-1.38.09c-.56,0-1.11.09-1.67.13L76,77.71c-.25,0-.49,0-.73,0l-1,0-1.17,0c-.38,0-.76.06-1.14.09L71,78c-.61.06-1.23.07-1.85.11l-1.36.11c-.32,0-.65.07-1,.1s-.69.06-1,.08-.67,0-1,.09l-1,.09c-.37,0-.74,0-1.11.07s-.64.06-.95.1l-.65.07-.11,0-.16,0-1-.3c-.33-.11-.67-.22-1-.31L58.14,78l-.31,0-1.28-.21a2.53,2.53,0,0,1-.36-.12c-.17-.06-.35-.11-.52-.18-.33-.14-.63-.34-1-.47l-.14,0-.36-.08a1.78,1.78,0,0,0-.39-.07l-1,0h-.72l-.33,0-.66-.12a1.17,1.17,0,0,1-.24-.09c-.7-.28-1.39-.56-2.09-.82l-1-.4a1,1,0,0,1-.18-.07,1.34,1.34,0,0,1-.11-.14L47,74.49a1,1,0,0,1-.21-.3,5.38,5.38,0,0,1-.2-.51c0-.09,0-.18-.08-.27a1.46,1.46,0,0,0-.07-.19,4.5,4.5,0,0,0-.2-.51c-.09-.18-.2-.36-.3-.54s-.15-.24-.23-.36a2.66,2.66,0,0,0-.28-.38l-.24-.26A1.21,1.21,0,0,0,45,71a.67.67,0,0,0-.14-.09l-.31-.2-.28-.18-.12-.07-.3-.09-.16,0-.6-.09a3,3,0,0,0-.94-.08l-.66.09-.41.07c-.15,0-.29.12-.44.16l-.53.15-.65.17a.61.61,0,0,1-.23,0c-.76,0-1.52,0-2.28.09s-1.48,0-2.22,0c-.31,0-.63,0-.95,0s-.69,0-1-.06-.7-.08-1-.12l-.88-.1-.55-.09-.58-.12c-.31-.06-.61-.16-.91-.24a4,4,0,0,0-.47-.11l-.36,0-.21,0a1.53,1.53,0,0,0-.26.08l-.28.08-.46.15c-.14,0-.28.11-.43.15l-.48.12-1,.26-1.1.26c-.16,0-.33,0-.5,0a2,2,0,0,1-.35,0l-1.31-.11-.4,0L20.57,71l-1-.13c-.32,0-.64-.07-1-.14l-1.15-.25-.42-.08a4.1,4.1,0,0,0-.48-.1l-1.14-.08h-.52l-.47,0a7.09,7.09,0,0,1-.91-.12L13,69.87l-.45-.07,0-.89a.43.43,0,0,1,0-.11l.08-.28a2.13,2.13,0,0,1,.11-.33c.07-.17.14-.33.2-.5h.24a.38.38,0,0,0,.15,0l.27-.08a.31.31,0,0,0,.12,0c.05,0,.1-.12.15-.18l.18-.22a.27.27,0,0,1,.07-.08,1.74,1.74,0,0,1,.22,0l.29-.07s.07,0,.09,0a1.36,1.36,0,0,0,.11-.25s.05-.06,0-.1-.2-.27-.3-.41-.17-.24-.26-.35-.23-.23-.34-.35l-.31-.3a1.17,1.17,0,0,0,.1-.26c0-.12,0-.24,0-.36l-.29-.19c0-.25.09-.49.13-.74l0-.2s0,0,0-.06a3.18,3.18,0,0,0-.23-.4l-.16-.26-.06-.09s0,0,0-.07,0-.09.06-.12l.09-.17s0-.12.07-.18.08,0,.12-.06l.2-.08a2,2,0,0,0,.31-.19l.36-.21a2.3,2.3,0,0,0,0-.26s0,0,0,0l-.1,0L13.72,61c.08-.16.16-.3.25-.45l.2-.32a.39.39,0,0,0,.08-.14,1.43,1.43,0,0,0,0-.29l0-.37a.3.3,0,0,1,0-.13l.13-.27.18-.33a1,1,0,0,1,.09-.18c.09-.15.21-.29.32-.44l.23-.31a1,1,0,0,0,.11-.15,1.06,1.06,0,0,0,.06-.19l.13-.37a.42.42,0,0,0,0-.15c0-.1,0-.21,0-.31V56.2a.27.27,0,0,0,0-.12l-.35-.63a.61.61,0,0,0-.07-.14c0-.06-.13-.11-.19-.17l-.3-.25-.11-.11a2,2,0,0,1-.16-.24l-.21-.32a3,3,0,0,0-.28-.34c-.11-.13-.23-.25-.33-.38L13.21,53,13,52.81a.76.76,0,0,1-.11-.16l-.08-.17s-.06-.1-.07-.14a.76.76,0,0,1,0-.21l0-.19a.34.34,0,0,0,0-.14s0,0,0,0l-.1-.15-.16-.22.29-.31a.86.86,0,0,0,.13-.14.25.25,0,0,0,0-.09l.19-.48s0,0,0-.09a1.27,1.27,0,0,0-.13-.22c-.06-.12-.11-.25-.17-.38l.29-.2a2.29,2.29,0,0,0,.23-.21.36.36,0,0,0-.07-.1s-.08,0-.11-.05S13,49,12.89,49a1.37,1.37,0,0,0-.28-.05.32.32,0,0,1-.09,0l-.14-.1a4.89,4.89,0,0,1,.4-.39l.16-.14s.07,0,.08-.07a.27.27,0,0,0,0-.09v-.21a.49.49,0,0,0,0-.12s0,0,0-.07l-.23-.33a.44.44,0,0,0-.12-.15,1.73,1.73,0,0,0-.3-.16L12.15,47l-.1-.05c-.09,0-.3.06-.28-.11a1.29,1.29,0,0,1,.07-.21.43.43,0,0,0,.06-.22c0-.1-.06-.2-.09-.3a.41.41,0,0,0-.08-.19l-.3-.26-.13-.13-.22-.27-.15-.19a.76.76,0,0,0-.08-.11l-.08,0-.21,0-.13,0-.16.06-.15.07-.13.1,0-.06a.53.53,0,0,1-.06-.1s0-.1,0-.14a1.89,1.89,0,0,0,.05-.23.48.48,0,0,0,0-.12l0-.12a.41.41,0,0,0,0-.11s-.1,0-.14-.06l-.15-.05a1.66,1.66,0,0,0-.22,0H9.05a.29.29,0,0,1,0-.13s0,0,.06-.06l.23-.18.07-.06.08,0s0,0,.05,0a.25.25,0,0,0,0-.12.22.22,0,0,0,0-.11,1.15,1.15,0,0,0-.14-.19L9.29,43s-.06,0-.07-.08,0,0,0-.06v-.6l0,0L9.46,42a1.07,1.07,0,0,0,.14-.16s0-.06,0-.08l0-.18a2.45,2.45,0,0,0,.08-.29.29.29,0,0,0,0-.13l0-.68a.48.48,0,0,0,0-.12c0-.08-.05-.16-.08-.23l-.2-.64a.16.16,0,0,0,0-.07l-.18-.21-.43-.53a1.79,1.79,0,0,1-.2-.28l-.39-.58a.86.86,0,0,0-.07-.1,1.66,1.66,0,0,1-.06-.21c-.06-.2-.14-.41-.19-.62v-.06l0-.2.1-.68.11-.71c0-.11,0-.23,0-.35s.05-.15.07-.23l-.06,0s-.07,0-.09,0,0,0,0,0L8,34.26c0-.22-.07-.45-.11-.67a3.88,3.88,0,0,0-.14-.45c-.07-.21-.13-.43-.2-.64s-.16-.68-.22-1l-.07-.38a.8.8,0,0,0,0-.15c-.07-.18-.19-.34-.26-.53s-.07-.22-.1-.32,0-.2-.08-.3-.06-.19-.1-.29a3,3,0,0,0-.1-.32s0,0,0,0,0-.06,0-.09l.09-.29c0-.05,0-.11,0-.15a.46.46,0,0,1,.07-.07L7,28.44s.07-.09.12-.11a2,2,0,0,1,.26-.06l.42-.1.45-.07c.1,0,.2,0,.3,0a7.87,7.87,0,0,0,.84,0h1l.07,0,.23-.11.29-.13a1.63,1.63,0,0,0,.19-.09s0,0,.07-.06l.2-.2.2-.21.07-.08a1,1,0,0,0,.08-.18l.14-.28.15-.31.23-.44.14-.27a.83.83,0,0,1,.09-.16.15.15,0,0,1,.1,0l.3-.07.17,0,.2-.08a1.11,1.11,0,0,1,.7,0q.4.07.81.12l.28,0c.13,0,.25,0,.38,0l.52,0,1.41,0,1.32,0a10.25,10.25,0,0,1,1.36,0h.08c0,.18.08.36.11.54a.36.36,0,0,0,0,.11l.15.26.16.28s0,.06.07.08c.19.08.4.14.59.21l.34.11.34.11.22.07c.06,0,.1.12.14.17a1.1,1.1,0,0,1,.09.14l.23.42.15.28.14.25s.06,0,.09.06l.28.16.29.16s.09.07.13.07.05,0,.07,0l.17,0,.32,0h.06a.24.24,0,0,0,0-.09l.12-.28.17-.42.13-.31s0-.12.06-.15.11-.06.15-.09l.3-.17a1.54,1.54,0,0,1,.34-.17l.63-.13.12,0a.5.5,0,0,1,.17,0l.69,0a2.17,2.17,0,0,0,.36,0,3.55,3.55,0,0,0,.47-.08l.68-.1a.9.9,0,0,0,.16,0l0,0,.15-.11.13-.07.32-.13a4.53,4.53,0,0,1,.44-.15l.43-.13a4.5,4.5,0,0,0,.49-.14c.35-.12.69-.27,1-.4s.61-.19.92-.28l.41-.12a.94.94,0,0,0,.15-.06l.28-.17c.26-.17.55-.3.82-.47s.28-.18.42-.28a1.35,1.35,0,0,0,.22-.14l.16-.15c.12-.12.23-.25.34-.38a.31.31,0,0,0,.07-.14l.09-.32s0-.05,0-.07,0-.06,0-.08Z"/></g></svg>