<svg xmlns="http://www.w3.org/2000/svg" viewBox="0 0 100 100"><g id="Baara"><path d="M93.5,31.75c0,.22-.17.43-.31.58a5.74,5.74,0,0,1-.78.69c-.54.42-1.07.87-1.6,1.31a11.65,11.65,0,0,0-1.42,1.3,2.17,2.17,0,0,0-.47.8,2.65,2.65,0,0,0,0,1,1.94,1.94,0,0,1,0,.93,2.6,2.6,0,0,1-.56.87A17.6,17.6,0,0,1,87,40.47,16.24,16.24,0,0,0,85.58,42c-.21.23-.43.44-.66.65a1.31,1.31,0,0,0-.49.75,5,5,0,0,0,0,1c0,.39,0,.78,0,1.16,0,.71,0,1.42,0,2.13a3.56,3.56,0,0,1-.09,1c-.1.31-.28.59-.37.9s-.11.61-.22.9-.32.64-.42,1c-.18.58-.08,1.21-.44,1.73s-.88.83-1.1,1.4-.06,1.24-.23,1.85a3.29,3.29,0,0,1-1,1.37.91.91,0,0,0-.35.67,1.35,1.35,0,0,0,.45.7c.46.51.78,1.11,1.25,1.61a2.8,2.8,0,0,0,.69.54,2.41,2.41,0,0,1,.77.57,2.74,2.74,0,0,1,.47,1.5c0,.35,0,.7,0,1s.14.66.21,1a11.07,11.07,0,0,1-.1,2.15c0,.32,0,.65,0,1a4.08,4.08,0,0,1-.27,1,13.62,13.62,0,0,1-.65,1.79,3.32,3.32,0,0,1-1.28,1.27c-.37.21-1.26.42-1,1s1.07.32,1.57.43A3.84,3.84,0,0,1,84,75a1.08,1.08,0,0,1,.43.77c0,.33,0,.66,0,1a15.16,15.16,0,0,0,.58,2,5.66,5.66,0,0,0,.32.9c.13.31.22.64.34,1a7,7,0,0,0,.44.81.53.53,0,0,1,0,.7,2.61,2.61,0,0,1-.73.3,1.36,1.36,0,0,0-.69.56c-.31.55.05,1,.41,1.44a2.45,2.45,0,0,1,.46.69c.12.33.23.66.36,1a4.1,4.1,0,0,1,.29,1,3.27,3.27,0,0,1-.1,1c0,.11,0,.21-.18.24s-.22-.07-.31-.13a1.76,1.76,0,0,0-.89-.45,1.16,1.16,0,0,0-.73.28,1.74,1.74,0,0,1-.88.29,10.15,10.15,0,0,0-2-.1,2.7,2.7,0,0,0-1.25,1c-.33.34-.78.68-1.27.46s-.71-.69-1.11-1a1.89,1.89,0,0,0-.89-.3,4.07,4.07,0,0,1-1-.25,4,4,0,0,0-2-.36c-.67.07-1.3.32-2,.38a3.09,3.09,0,0,1-1.9-.43,5.89,5.89,0,0,0-1.62-.95,1.25,1.25,0,0,0-.83.12c-.31.14-.61.3-.91.45a2.69,2.69,0,0,0-.74.55c-.21.24-.39.5-.6.74a2.11,2.11,0,0,1-.75.57c-.31.15-.64.24-.95.38a3.1,3.1,0,0,1-1.89.44,12.11,12.11,0,0,1-1.72-.69c-.65-.25-1.34-.42-2-.66a1.33,1.33,0,0,1-.65-.52,2.39,2.39,0,0,0-.6-.67,2.9,2.9,0,0,0-1.62-.32,3.92,3.92,0,0,1-1-.15,2.66,2.66,0,0,1-.86-.38,2.82,2.82,0,0,1-.6-.73A3.25,3.25,0,0,1,52,85a1.44,1.44,0,0,1,0-.87,2.11,2.11,0,0,0,.14-1c-.16-.58-.84-.61-1.31-.79s-.87-.85-1.5-1a4.93,4.93,0,0,0-1.79.16,7.1,7.1,0,0,0-.92.17,3.87,3.87,0,0,1-1.06.23c-.3,0-.52-.26-.81-.34s-.6-.08-.9-.13a5.34,5.34,0,0,1-2.95-1.18,2.15,2.15,0,0,1-.69-1.57,2.58,2.58,0,0,0-.1-1A1.84,1.84,0,0,0,39.6,77,17.19,17.19,0,0,0,38,76a8.41,8.41,0,0,1-1.45-1.41,2.84,2.84,0,0,0-1.27-.93,4.13,4.13,0,0,0-1-.12,3.9,3.9,0,0,1-1-.18c-.3-.1-.58-.23-.88-.3a2.91,2.91,0,0,0-1.1,0,2,2,0,0,1-1.62-.28,10.64,10.64,0,0,1-1.29-1.22,3.61,3.61,0,0,0-1.67-.91,12.41,12.41,0,0,0-1.93-.06,1.83,1.83,0,0,1-1.39-.75,3.73,3.73,0,0,0-1.17-1.17c-.17-.08-.56-.17-.64-.36s.37-.51.53-.62a12.17,12.17,0,0,0,1.52-1.25A6,6,0,0,0,24.92,65a1.61,1.61,0,0,0,.25-.82.64.64,0,0,0-.47-.56,7.48,7.48,0,0,0-1.94-.43c-.32,0-.63-.06-1-.12a7.38,7.38,0,0,1-1-.29,14.84,14.84,0,0,0-2.08-.56c-.52-.09-1.38,0-1.47-.72s.66-1,.74-1.54-.71-.73-1.13-.85a1.2,1.2,0,0,1-.72-.41c-.17-.28.05-.51.26-.69a7.8,7.8,0,0,1,.7-.56c.22-.16.66-.35.77-.63s-.14-.47-.33-.6a3,3,0,0,0-.82-.35,5.14,5.14,0,0,1-1.63-1.15c-.52-.49-1-1-1.58-1.44s-1.13-.77-1.15-1.4a3.52,3.52,0,0,0,0-.86,3.12,3.12,0,0,0-.42-.86,3.83,3.83,0,0,0-.68-.77,4.64,4.64,0,0,1-.67-.66,1.14,1.14,0,0,1-.16-.79,2.39,2.39,0,0,0-.06-1,2.31,2.31,0,0,0-1.23-1.17,6.45,6.45,0,0,1-.89-.49,4.15,4.15,0,0,1-.7-.69c-.2-.22-.42-.43-.63-.65a2,2,0,0,1-.52-.8c-.13-.59.62-1,1.12-.83.29.09.57.26.87.37a5.6,5.6,0,0,0,1,.28,2.69,2.69,0,0,0,1.83-.21,1.69,1.69,0,0,0,.87-1.41,8.9,8.9,0,0,0-.22-1.92,3.62,3.62,0,0,1,.27-2,18.92,18.92,0,0,1,1-1.76,5.92,5.92,0,0,0,.69-1.85A5.47,5.47,0,0,1,14.36,32a2.27,2.27,0,0,1,1.47-1,4,4,0,0,0,1.66-.6,3.74,3.74,0,0,0,1-1.5,8.09,8.09,0,0,1,1.11-1.71c.21-.23.43-.45.62-.7s.35-.54.53-.81a2.17,2.17,0,0,1,.55-.62,2,2,0,0,1,.82-.33c.27-.05.55-.06.83-.1a3.07,3.07,0,0,0,.88-.26,5,5,0,0,0,1.48-1.07,2.11,2.11,0,0,0,.59-1.7A2.8,2.8,0,0,0,25,20c-.87-.89-2.09-1.47-2.75-2.57a2.48,2.48,0,0,1,.24-3.08,6.55,6.55,0,0,1,1.55-1.06A9.48,9.48,0,0,1,26,12.49c.31-.08.61-.16.91-.27a8.92,8.92,0,0,0,1-.44A14.11,14.11,0,0,1,29.74,11c.67-.22,1.28-.56,1.94-.79a1.58,1.58,0,0,1,.88-.14,5.29,5.29,0,0,1,1,.43,10.17,10.17,0,0,0,3.87.85c.7,0,1.39,0,2.09,0a5.52,5.52,0,0,1,1.91.43,3.39,3.39,0,0,0,1.82.39c.66-.08,1.29-.33,2-.43a4.21,4.21,0,0,1,3.41.71c1,.77,1.63,2,3,2a8,8,0,0,1,2-.06,3.52,3.52,0,0,1,1.61.92,12.74,12.74,0,0,0,1.53,1.31,5.44,5.44,0,0,0,1.82.73,7.87,7.87,0,0,1,1.92.44A4.73,4.73,0,0,1,61.84,19a18.88,18.88,0,0,0,1.43,1.53c.22.2.46.37.7.55a2.67,2.67,0,0,0,.89.49,6.91,6.91,0,0,0,2,.12,11.77,11.77,0,0,1,2.14,0,4.12,4.12,0,0,0,1.93.23c.53-.14,1-.48,1.61-.22a2.61,2.61,0,0,1,.68.56c.24.24.5.44.73.68.43.45.67,1,1.06,1.52a5.31,5.31,0,0,0,3.41,1.56,2.92,2.92,0,0,1,.92.25A1.73,1.73,0,0,1,80,27a13.74,13.74,0,0,1,.7,1.74,1,1,0,0,0,.52.57,3.89,3.89,0,0,0,.89.17c.34.06.68.14,1,.19a3.88,3.88,0,0,1,1,.22c.29.12.53.31.81.44a2.62,2.62,0,0,0,.92.2c.69.05,1.39,0,2.08,0a13.14,13.14,0,0,0,2.08,0c.32,0,.64-.12,1-.13a3.25,3.25,0,0,1,1.82.76c.12.08.23.17.35.24a1,1,0,0,1,.34.24A.37.37,0,0,1,93.5,31.75Z"/></g></svg>