<svg id="Parsa" xmlns="http://www.w3.org/2000/svg" viewBox="0 0 100 100"><path d="M27.08,29.86l2.17.14c2.67-1.68,4.66-4.32,6.7-6.66a4.68,4.68,0,0,1,4.39-1.58,56.25,56.25,0,0,1,6.87.34c1.11.15,2.6,0,3.71.11a14.27,14.27,0,0,1,2.53.35c.34,0,1.81.06,2.17.07,1.19-.25,2.37-1,3.54-1.31l1.94.13a7.12,7.12,0,0,0,2.7.55,25.39,25.39,0,0,0,4.93.14,8.45,8.45,0,0,0,3.56-.63l.3-.61c5.29.69,2.24,6.3,5.39,8.09a9.13,9.13,0,0,1,3.78.47,6.53,6.53,0,0,1,2.08,1,2.46,2.46,0,0,0,.55.61c.17.49.57,1.63.68,2.13.29,1.65-.38,3.4-.93,4.93.15,3.26,3.83,2.58,5.86,3.9-1.34.26-2.91.7-4.24,1a9.75,9.75,0,0,0-2.7.26,33,33,0,0,1-3.54.69c-.2,0-.82.08-1,.13s-1.79-.18-1.85-.47a5.59,5.59,0,0,1-2,.41,2.45,2.45,0,0,0-.76-.26A8.56,8.56,0,0,1,72.5,43a8.18,8.18,0,0,0-3.94-.53,18.6,18.6,0,0,0-1.92.89,4.84,4.84,0,0,0-1.16.35c-.45.1-1.17.08-1.54.39a10,10,0,0,0-.38,1.17l-.69.76C62,46.62,60.92,47.39,60,48a17.16,17.16,0,0,1-1.85.84c-1.08.55-2.23,1.47-3.33,2a5.52,5.52,0,0,0-2,.68A6.83,6.83,0,0,0,50.92,54a2.29,2.29,0,0,1-.15.77,3.86,3.86,0,0,1-.48,1.42,3.44,3.44,0,0,1-2.53.29c-.36-.27-.74-.75-1.08-1-1.19-.63-2.08-1.86-3.23-2.53A7.88,7.88,0,0,0,39.66,51a6.33,6.33,0,0,0-2.3.21,12.06,12.06,0,0,0-1.09,1,17.29,17.29,0,0,0-.53,2.12,3.49,3.49,0,0,1-.61,1.16,2.91,2.91,0,0,0,0,1.1,4,4,0,0,1,.46,1c.07.94-.82,1.64-1.47,2.19a12.51,12.51,0,0,0-.91,1.44,4.6,4.6,0,0,1-.55.76c0,.11-.2,1.13-.15,1.22a2.91,2.91,0,0,0,.55.84c.85.55,1.91,1.14,2.07,2.24.14.21,0,.81-.07,1a21.4,21.4,0,0,1-.54,2.74c.14.38.51.81.46,1.24-.6.32-.75,1.15-1.16,1.65s-1.06.54-1.52.74a23.11,23.11,0,0,1-1,3.08c-.75.9-1.83,1.43-2.61,2.27l-.15-.82a2.91,2.91,0,0,0-1.46-.4,23.4,23.4,0,0,0-3-.4c-1.37-.61-3.38-.78-4.24-2.13a3,3,0,0,1,.85-1.58A4.8,4.8,0,0,0,22,72.27a5.69,5.69,0,0,0-1.54-5.48c-2-.3-4.28,0-6.16-.8L14,65.44l.46-.69A6.32,6.32,0,0,0,16.11,64a11,11,0,0,0,1-1.44A5.13,5.13,0,0,1,18.41,61,10.19,10.19,0,0,1,19,59.88L19,59.12a25,25,0,0,1-4.24-1.77c-1.57-1.11-3.16-2.47-4.72-3.61.74-1.35,1.48-2.92,2.25-4.26a13.56,13.56,0,0,1,3.84-3.56c1.49-.68,3.35-1.25,4.39-2.61.49-1.36.18-3.08.84-4.39l1.08-.76h1.85l1.31-.76a6.73,6.73,0,0,1,2.08.28l1.08-.36a3.59,3.59,0,0,0,.15-4.11,25.35,25.35,0,0,0-.7-2.59Z"/></svg>