<svg id="Parsa" xmlns="http://www.w3.org/2000/svg" viewBox="0 0 100 100"><path d="M26.69,13c1-.28,2.42-.24,3.37-.79,1.3-.68,2.8-1.64,4.32-1.11a4.43,4.43,0,0,1,2.08,2.86,9.4,9.4,0,0,0,2.3,3.24,13.06,13.06,0,0,0,3.48,1.1,14.44,14.44,0,0,0,2,.19c.27.05.9-.34,1.12-.44,1.17.95,2.29,2.4,3.64,3.15a3.7,3.7,0,0,0,1.8,1.05,15.23,15.23,0,0,1,2.3.69,5.7,5.7,0,0,1,1.29,1,3.9,3.9,0,0,1,.74.54l2.06,1.3c.3.11.79,1,1,1.21a5.56,5.56,0,0,0,.44,1.75,3.08,3.08,0,0,1,.78,1.09,27.69,27.69,0,0,1,1.29,2.55,10,10,0,0,0,1.06,1.19c.49.45.49,1.3.56,1.9,0,.29.1.89.44,1H63c.53-.55.31-1.43.62-2.09A12.4,12.4,0,0,1,66,31.71a5,5,0,0,1,1.13-1.4,5.83,5.83,0,0,1,1.86,0c.64.15,1.54.24,2.17.46,1.7.26,3.45.6,5.12,1a14.43,14.43,0,0,0,4-.29l1-.19.85.34a16.47,16.47,0,0,0,1,1.65,18.82,18.82,0,0,0,1.84,1.26,12.7,12.7,0,0,1,2.47,2l.17,0c1.76,1.29,4.17,2.33,4.82,4.59A9.66,9.66,0,0,0,92,42a2.39,2.39,0,0,0-.48,1.19c-1.2.61-2.71,1.12-3.3,2.46a1.59,1.59,0,0,1-.47,1.19c-1,.36-2.19-.23-3.14.21a1.75,1.75,0,0,0-.7,1.48c.07.22.17.68.21.9.14,1.1.86,2.24.56,3.36S83.4,54.59,83,55.54a3.49,3.49,0,0,0-.09,1.29c-.22.42-.74.62-1,1a3.59,3.59,0,0,0-.51.7,10.35,10.35,0,0,1-1.14.44c0,.29-.51.6-.73.73a2.14,2.14,0,0,1-.46.49l.72.83a6,6,0,0,0,.43,1.36,1.81,1.81,0,0,1,.43.73,6.66,6.66,0,0,0,.2,1.17c.19.27.64.43.79.73a1.53,1.53,0,0,1,0,1.61c-1.39,1.14-.7,1.8.53,2.61-.25.37-.8.52-1.15.76s-.6.51-.78.79c-.43.34-.31,1-.4,1.54a2.37,2.37,0,0,1-.36.9,1.75,1.75,0,0,1-.36.72,14.28,14.28,0,0,1-2.54,1.6,2.49,2.49,0,0,0-1.69.66c0,.48.32,1.09.14,1.56a2.45,2.45,0,0,1-2.47.47c-1.48-.36-2.74-1.54-4.28-1.71a10.66,10.66,0,0,0-1.28-.17,1.85,1.85,0,0,0-1.29,0,18.21,18.21,0,0,0-1.7,1.22c-.32.4-.58,1.06-.86,1.48s-.9.63-1.18,1.06c-.11.66-.43,1.37-.54,2a5.27,5.27,0,0,0-.14,1.9c.25.49,1,.9,1.32,1.31a2.33,2.33,0,0,1,.14,1.9c-.56.93-1.83.92-2.76,1.17-.34-.23-.68-.68-1.11-.72a1.44,1.44,0,0,0-2.18.22c-.92.31-1.66,1.17-2.67,1.19v0a10.48,10.48,0,0,1-1.6-.58,7.41,7.41,0,0,0-.84-.74c-.17-.46,0-.94-.42-1.33a1.89,1.89,0,0,0-1.82.36c-.16.32-1.05.56-1.35.66-1.81.56-4,.2-5.84.13-.57.09-1.38.15-1.94.3l-.79.4-.71-.07c-.76.3-1.61-.49-2.36-.57a9.39,9.39,0,0,1-2.35-1.17A6.48,6.48,0,0,0,33,85.71a8.8,8.8,0,0,0-2.33.9,4.11,4.11,0,0,1-1.56-.38,5.6,5.6,0,0,0-.62-.83,3.35,3.35,0,0,1-.19-.9c.1-.16.36-.5.2-.68a3.09,3.09,0,0,1-.45-.36,4.74,4.74,0,0,0-1.45-1.37c-.32,0-.78-.27-1.1-.27a5.32,5.32,0,0,0-1.47.39c-.61.29-1.65.29-1.54,1.21l-.27-.17v-.34c.21-.28.53-.63.74-.9-.16-.26-.64-.3-.78-.56a1.24,1.24,0,0,1-.34-.65l-.56-.54a1.63,1.63,0,0,0-.72.15c-.63,0-.75-.46-.9-1a.92.92,0,0,0-1,.06.93.93,0,0,1-1,.4c-.57-.61,0-1.56-.62-2.15A2.23,2.23,0,0,0,16,77.42a8.51,8.51,0,0,1-1.22-.35,2.06,2.06,0,0,0-.85.14c-.11.07-.59.43-.73.36-.16-.51-.62-1-.78-1.5A2.2,2.2,0,0,1,11.83,75a15.46,15.46,0,0,1-.17-2.24,13.2,13.2,0,0,1,.44-1.25c.18-.29.55-.56.74-.85v-.25a1.15,1.15,0,0,0-1-.15L11,70c.28-1.23,1.49-1.82,2.47-2.44a11.38,11.38,0,0,0,3-2.55,3.22,3.22,0,0,0,.24-1.44,1.92,1.92,0,0,1,.16-2,3.82,3.82,0,0,1-.11-3.25,33.38,33.38,0,0,0-.55-4.18,2.18,2.18,0,0,0-1.81-.75,19.44,19.44,0,0,1-2-.66,6.85,6.85,0,0,1-3.26-.94,3.17,3.17,0,0,1-1-1.59c-1-.93-.25-1.57.56-2.25a4.57,4.57,0,0,0,1.18-1.5,5.48,5.48,0,0,0,.33-2,7.45,7.45,0,0,1,1-3.39A4,4,0,0,1,14,39.18a8.47,8.47,0,0,1,2.19-.75,6.76,6.76,0,0,0,2.36-1,2.87,2.87,0,0,1,1.9-.11,1.68,1.68,0,0,0,1.06-.19l.63-.85a4.08,4.08,0,0,1,2.24-1.11c1-.44,1.24-1.91,1.57-2.84.22-.61.62-1.41.9-2,.49-.85.87-2.17,1.75-2.69a9.68,9.68,0,0,0,1.86-.34,6.73,6.73,0,0,0,.79-3.25c0-.28-.07-.93-.11-1.2s.24-.87.33-1.15l-.11-.35a8.71,8.71,0,0,0-3.32-1.3,2.06,2.06,0,0,1-1.56-1.94c.11-.33.33-1,.45-1.31A5.17,5.17,0,0,0,26.69,13Z"/></svg>