<?xml version="1.0" encoding="UTF-8"?>
<svg width="700pt" height="700pt" version="1.1" viewBox="0 0 700 700" xmlns="http://www.w3.org/2000/svg">
 <path d="m325.92 159.67c1.1914 7.4883 0.91016 15.121 1.75 22.609 0.32031 3.9141 1.1445 7.7734 2.4492 11.48 1.1211 2.8711 3.6406 5.6719 3.0781 8.9609-0.55859 3.2891-6.0195 8.5391-8.4688 11.129-2.4492 2.5898-6.5781 4.7617-8.0508 8.1211-1.4688 3.3594 2.2383 4.7617 3.2188 8.4688 0.67187 3.5117 0.37891 7.1367-0.83984 10.5-2.9414 8.2617-14.699 12.949-21.488 17.5-4.0586 2.7305-10.922 2.8008-15.609 5.8086-4.6914 3.0117-2.5898 4.8984-3.6406 9.1719-0.62891 2.7305-16.941 3.8516-20.371 6.1602-3.4297 2.3086-5.0391 7.7695-10.57 8.6094-9.1719 1.4688-20.578-7-28 1.75s-17.078 24.359-28.699 30.449c-3.7461 2.1523-7.8477 3.6211-12.109 4.3398-3.0117 0-6.2305-2.9414-9.1719-1.8203-1.5391 0.62891-3.6406 4.1289-4.8281 5.3203-3.0117 3.3594-5.8789 7-9.1719 10.012v-0.003907c-1.6523 2.043-3.8242 3.6055-6.2852 4.5273-2.4609 0.92578-5.125 1.1758-7.7148 0.72266-0.96875-0.20703-1.9688-0.20703-2.9375 0-0.72266 0.25391-1.4062 0.60547-2.0312 1.0508-4.6797 3.168-8.7969 7.0938-12.18 11.621l3.6406 1.8203c0.44141 0.32422 0.82031 0.73047 1.1211 1.1914 0.33594 1.0547 0.066406 2.2109-0.70312 3.0078-0.73047 0.65625-1.5 1.2617-2.3086 1.8203-1.8203 1.4688-4.6211 6.0195-3.2891 8.4688 1.3281 2.4492 6.0195 0 8.6094 0 0.54688-0.17578 1.1328-0.17578 1.6797 0 0.51562 0.28125 0.95312 0.69141 1.2617 1.1914 3.0781 4.2695 6.6484 8.3984 9.3086 12.949 1.5781 3.293 2.7305 6.7773 3.4297 10.359 0.050781 0.33984 0.19922 0.65234 0.42188 0.91016 1.6094 1.75 9.7305 0 11.48-0.83984h-0.003906c2.2461-1.5586 4.9961-2.2109 7.7031-1.8203 0.48828 0 7 3.7109 7 3.6406 1.0508-3.0117 1.75-6.3008 4.7617-7.9102s7 0 10.289-0.55859h-0.003906c1.6758-0.45312 3.2266-1.2656 4.5508-2.3789l4.5508-3.1484v-0.003906c0.73047-0.46094 1.3906-1.0273 1.9609-1.6797 0.57812-0.8125 1.0273-1.707 1.3281-2.6602l3.2188-8.8906h0.003907c0.25391-0.70703 0.58203-1.3867 0.97656-2.0273 1.9609-2.7305 5.7383-2.7305 8.6797-3.5h0.003906c3.4844-1.082 6.8594-2.4883 10.078-4.2031 7.0469-3.1328 14.418-5.4805 21.98-7 3.9883-0.91016 4.4102-0.83984 7 2.1016 7.4883 8.4688 21.84 7.9805 32.27 10.219 3.9219 0.83984 8.1211 7 11.551 8.6797 5.7383 3.2188 13.441 2.0312 17.922 7.6289 4.4805 5.6016 7 10.148 15.609 13.371 7 2.7305 11.41 3.8516 14.77 11.27v0.003906c1.7539 5.7969 3.8828 11.48 6.3672 17.008 5.8555 10.805 12.375 21.23 19.531 31.219 10.5 13.301 19.738 27.02 18.969 44.59 0.33984 6.8477 1.7344 13.602 4.1328 20.023 2.5195 11.34 1.8203 23.379 3.7109 35 1.0508 6.0195 2.3086 11.969 3.7109 17.852 1.3984 5.8789 1.4688 12.672 7 17.988h-0.003907c7.9414 7.9062 17.145 14.438 27.23 19.32 7.2188 1.2148 14.578 1.3555 21.84 0.41797 1.25-3.9414 3.0898-7.6719 5.4609-11.059 6.2773-4.6211 13.418-7.9297 21-9.7305l9.8008-3.3594c9.4492 0.55859 18.762 4.2695 28 3.9219v-0.003906c2.0742-0.0625 4.082-0.77344 5.7383-2.0312 3.2188-2.7305 3.5703-5.8789 8.4688-7 5.3125-0.65625 10.543-1.8516 15.613-3.5664 4.4102-1.8203 5.4609-8.1211 7-12.039v-0.003906c2.0195-5.5195 4.5508-10.84 7.5586-15.891 3.0234-6.7305 4.5781-14.035 4.5508-21.418 0.19531-5.9102 0.007812-11.824-0.5625-17.711-5.0391-1.5391-11.41-3.6406-8.8203-10.078 1.2617-3.2188 3.5703-5.9492 4.8984-9.1016 1.3281-3.1484-0.48828-3.7109-4.1992-5.9492-3.707-2.2422-9.0977-3.5703-11.059-7.4219-2.7305-5.3203 1.4688-16.73 2.3086-22.328h0.003906c0.65234-4.0117 2.3125-7.7969 4.8281-10.992 1.7461-2.2188 3.3359-4.5586 4.7617-7-2.7266-2.9609-5.2305-6.1172-7.4922-9.4492-1.4375-3.043-2.6758-6.1758-3.7109-9.3789-3.2422-6.5547-8.918-11.578-15.816-14-6.4414-2.7305-14.559-3.6406-19.461-8.75-3.2188-3.3594-12.039-7.9102-9.5195-13.09 3.4297-7 12.949-9.8711 15.539-17.988 3.7148-8.3828 3.7148-17.941 0-26.32-0.5-0.65234-0.87891-1.3867-1.1211-2.1719-0.14062-0.76172-0.14062-1.5469 0-2.3086l1.1211-9.5195c0.83984-7 8.2617-8.8203 9.8711-14 1.5039-7.2031 1.5039-14.641 0-21.84-0.26953-2.3672-2.1211-4.2461-4.4805-4.5508-4.5508-0.48828-5.7383 0-7.9805-3.9883-2.2383-3.9883-3.7109-7-5.8086-10.57-3.9219-6.4414-7.8398-7.7695-3.2188-15.121 4.6211-7.3516 5.5312-8.8906 13.16-9.1016h-0.003907c5.4023 0.046874 10.801 0.37109 16.172 0.98047 4.7617 0.42188 10.43-3.8516 14.629-5.8789 2.6523-2.3867 4.8164-5.2617 6.3711-8.4727 1.9531-3.293 3.1719-6.9688 3.5703-10.777 0.76953-7 7-10.922 12.531-14.559 1.8203-1.1914 0-3.4297 0-4.9688 0-1.5391-10.5-3.5-12.039-4.0586-3.0781-1.0508-7-7.4883-9.5195-9.8008l-0.003906-0.003906c-0.65625-0.60156-1.1992-1.3125-1.6094-2.1016-0.27344-0.66797-0.4375-1.3789-0.49219-2.0977-0.60156-3.9414-0.92969-7.918-0.98047-11.902 0-6.0195 0.48828-7.6992-6.1602-7.4219-5.3906 0-10.922-7-14.699-10.219-3.7812-3.2188 2.5898-13.371 3.6406-17.078 1.0508-3.7109-4.1992-4.0586-6.5117-6.0898h0.003906c-4.6133-4.7734-8.3164-10.348-10.922-16.449-3.5703-7.6992 3.5-26.32-4.7617-24.641-7.4844 1.6562-15.055 2.8945-22.68 3.7109-15.902 0.48438-31.762-1.8867-46.828-7-0.48047-0.13672-0.98828-0.13672-1.4688 0-0.38281 0.17578-0.71875 0.4375-0.98047 0.76953-2.6055 2.7266-4.6914 5.9062-6.1602 9.3789-2.4492 6.0898 0 11.199-7.4219 13.09-4.1289 0.98047-10.148 2.0312-14 3.2188-10.289 3.0117-20.301 6.5117-30.52 9.5195-8.6641 2.6797-17.504 4.7383-26.461 6.1602-7.3398 1.1094-14.781 1.4141-22.188 0.91016-2.1055-0.20313-3.9805 1.3281-4.2031 3.4297 0 3.7812 0 7.5586-0.83984 11.34v0.003906c-0.62891 4.5117-1.7344 8.9453-3.2891 13.227z"/>
</svg>
