<svg id="Parsa" xmlns="http://www.w3.org/2000/svg" viewBox="0 0 100 100"><path d="M72.74,28.71c-1.94,1-3,3.26-3.46,5.32C69,35.62,69,37.5,68.7,39.09a12,12,0,0,1-1.29,2.42,26.32,26.32,0,0,0-2.55,2.4l-.18.67.28.83a3,3,0,0,1,.76,1.16,8.68,8.68,0,0,1,.46,1.09,4.53,4.53,0,0,0,2.33,1.75c1.12.7,2.85.64,4.12.9.57.23,1.74.64,2.33.83a11.51,11.51,0,0,0,2.33.42l.86.32.74.76a55.5,55.5,0,0,1,.92,7,6.08,6.08,0,0,0-.55,2.75A11.32,11.32,0,0,0,80,65a3.2,3.2,0,0,0-.28,3.42,5.33,5.33,0,0,1-.39,2.4,18.75,18.75,0,0,1-5,4.25c-1.63,1-3.63,2-4.11,4.06l1.5.42a1.85,1.85,0,0,1,1.59.25v.42c-.3.48-.92.93-1.22,1.41a19,19,0,0,0-.74,2.08,14.23,14.23,0,0,0,.18,2.75A4.29,4.29,0,0,0,72.23,89c.38.4.59,1.16.93,1.6a10,10,0,0,0-2.34.67c-.26-.12-.88.2-1.1.32a3.12,3.12,0,0,1-2.8-1c-1.1-.57-2.63-.28-3.74-.84A10.22,10.22,0,0,0,60,87.41a10.22,10.22,0,0,0-2.51-1.73,5.31,5.31,0,0,0-3.56-1,9.42,9.42,0,0,0-1.39-.25c-.61-.16-1.46-.69-2-.9a13.33,13.33,0,0,1-3.1-.92,23.46,23.46,0,0,0-2.52-.33h-.74l-.5-.25v-.16c-.3-.41-1.28-1.39-1.64-1.76l-3.28-1.55h.09c-3.12-1.2-7.29-.46-10.44-1.38-.35-.53-1.12-1.69-1.44-2.22a17.79,17.79,0,0,0-1.22-3c-.69-.9-1.81-2.37-2.56-3.19,0-1.36,0-3.4-1.39-4.18a1.68,1.68,0,0,1-1-.86,4.86,4.86,0,0,1-.42-1.61,19.7,19.7,0,0,1,.35-2.18c.63-2.2.77-2.59,3-3.39a3.3,3.3,0,0,0,.05-1.71,12.42,12.42,0,0,0-2.91-1.94A2.72,2.72,0,0,1,20,51.33a17.81,17.81,0,0,1,2.55-2.66,8.86,8.86,0,0,0,1.87-1.8,8.72,8.72,0,0,1,1.59-3c.8-.28,1.93-1.08,2.7-1.38a5.59,5.59,0,0,1,.93-.83,9.75,9.75,0,0,1,1-.74c.28-.42.91-.76,1.2-1.18a3.71,3.71,0,0,0,.37-.9,2.13,2.13,0,0,0,.27-.93c.24-.55.32-1.37.58-1.91.57-.25,1.51-.32,1.85-.9.5-.61.68-1.62,1.41-2,.06-.51-.39-1.05-.56-1.51a21.89,21.89,0,0,0,.65-3.32c.07-.3.25-1,.09-1.25A5.12,5.12,0,0,0,36,25.66l-1.22-.92a2.87,2.87,0,0,1-1.41-1.5,11.26,11.26,0,0,1,.18-1.48,6.47,6.47,0,0,0,1-1.43c.25-.36.55-.91.83-1.25.79-.67,1.86-1.51,1.78-2.66a5.13,5.13,0,0,0-.56-1.24,3.55,3.55,0,0,1,0-1.34,4.06,4.06,0,0,0,.74-1.41,19,19,0,0,1,.65-2.57c.06-.23,1.16-1.09,1.32-1.27a6.26,6.26,0,0,1,3.46-.07,8.93,8.93,0,0,1,3.93,2.15A20,20,0,0,1,49.43,13a12.38,12.38,0,0,1,1.51,1.06,8.17,8.17,0,0,0,.94.92,3.86,3.86,0,0,0,2,.07,8.47,8.47,0,0,1,1.84-.55,2.14,2.14,0,0,1,.56.83,2.59,2.59,0,0,0,.48,1.34,6.91,6.91,0,0,0,1.11.32,3.88,3.88,0,0,1,1.13.74,19.26,19.26,0,0,1,3.93,1.59,5.35,5.35,0,0,1,2.24,1.74,8.59,8.59,0,0,1,2.06,2.15,7.21,7.21,0,0,1,1.29,1.24c.28.13.88.43,1.13.58a6.62,6.62,0,0,1,1.23,1.25,3.92,3.92,0,0,1,1.22,1.31A3,3,0,0,1,72.74,28.71Z"/></svg>