<svg xmlns="http://www.w3.org/2000/svg" viewBox="0 0 100 100"><g id="Baara"><path d="M71.19,15.48h.07c.21,0,.36.44.47.59a3.22,3.22,0,0,0,1.45.89A4.39,4.39,0,0,1,74.64,18a5.71,5.71,0,0,1,1,1.54,7.87,7.87,0,0,0,.84,1.6,3.34,3.34,0,0,0,1.33,1.08,4.11,4.11,0,0,0,1.88.16c2.57-.11,3.93,1.28,4.86,3.52a4.58,4.58,0,0,0,1,1.46c.46.45,1,.83,1.44,1.28a12.37,12.37,0,0,1,1.26,1.44c.38.5.77,1,1.12,1.53A4.09,4.09,0,0,1,90,33.22a2.79,2.79,0,0,0,.67,1.43A14.56,14.56,0,0,0,92,35.83a2,2,0,0,1,.81,1.32,2.43,2.43,0,0,1-.77,1.59,4.57,4.57,0,0,1-1.41,1.14,8,8,0,0,0-1.41.62A2.52,2.52,0,0,0,88.53,42a17.06,17.06,0,0,1-1.38,3.73c-.32.6-.67,1.19-1,1.78a4.36,4.36,0,0,0-.71,1.69,4.27,4.27,0,0,0,.32,1.79A4.35,4.35,0,0,1,86,52.83a9.31,9.31,0,0,1-.51,1.93,6.78,6.78,0,0,1-.84,1.76c-.36.5-.8.93-1.12,1.45a3,3,0,0,0-.47,1.8,17,17,0,0,0,.48,2,6.43,6.43,0,0,1,.27,2,4.42,4.42,0,0,1-1.82,3c-.45.39-.91.77-1.37,1.15a4.17,4.17,0,0,0-1.26,1.35,8.45,8.45,0,0,1-.59,1.57,9.57,9.57,0,0,1-1.17,1.5c-.91.87-2.2,1.12-3.26,1.76a3.16,3.16,0,0,0-1.23,1.15,5.32,5.32,0,0,1-.42.67,2,2,0,0,1-.7.5,14.22,14.22,0,0,1-1.67.45,1.45,1.45,0,0,0-1,1.06,4,4,0,0,1-.32.87c-.15.27-.33.52-.49.78a3.63,3.63,0,0,1-1.19,1.33,10.42,10.42,0,0,1-1.88.72l-2,.74c-.65.25-1.3.49-1.93.77a4.94,4.94,0,0,1-1.8.65,9,9,0,0,1-1.88-.56c-.37-.08-1.17-.09-1.22.46s.73.7,1.08.89c.5.27.5.73.44,1.24a2.43,2.43,0,0,0,0,.66,6.49,6.49,0,0,0,.23.75c.14.56-.16.89-.66,1.08a1.79,1.79,0,0,1-.67.14c-.3,0-.44-.17-.59-.4-.34-.53-.75-1-1.06-1.55a14,14,0,0,0-.94-1.58c-.4-.51-.88-1-1.33-1.42s-1-.93-1.45-1.41-.77-.92-1.2-1.33a2.15,2.15,0,0,0-.66-.41,1.71,1.71,0,0,1-.77-.39,5,5,0,0,0-.42-.6,2.53,2.53,0,0,0-.81-.34A15.12,15.12,0,0,1,46.09,78l-1.81-1a5.15,5.15,0,0,0-1.86-.68,8.17,8.17,0,0,0-2,.18,14.3,14.3,0,0,1-2.07,0,5.1,5.1,0,0,1-.87-.07c-.3-.06-.59-.2-.89-.29a2.33,2.33,0,0,0-1.72.16,5.38,5.38,0,0,1-1.81.43,4.85,4.85,0,0,0-1.78.13,4.42,4.42,0,0,0-1.32.9c-.42.36-.8.76-1.23,1.11a9.31,9.31,0,0,1-1.6,1,13.27,13.27,0,0,1-1.74.72,8.73,8.73,0,0,0-1.8.63c-.5.3-.88.75-1.38,1a4.46,4.46,0,0,1-1.74.29,4.07,4.07,0,0,0-1.67.78,10.9,10.9,0,0,1-1.69.89,4.83,4.83,0,0,1-.92.26,4.71,4.71,0,0,0-.83.26c-.55.2-.85-.54-1.05-.93A5,5,0,0,1,13.61,82a5.12,5.12,0,0,1,.09-1,2.79,2.79,0,0,0-.09-1A12.82,12.82,0,0,0,13,78.18a3.92,3.92,0,0,0-.47-.75,3.3,3.3,0,0,1-.51-.67,1.06,1.06,0,0,1,.55-1.38,3.73,3.73,0,0,1,.74-.31c.2-.06.43-.13.48-.37a1.34,1.34,0,0,0-.2-.75c-.14-.31-.3-.6-.42-.91s-.21-.62-.33-.92a7.41,7.41,0,0,1-.35-.93c-.08-.28-.12-.57-.22-.85a8.41,8.41,0,0,1-.36-1c-.14-.62.12-1.29-.1-1.9a2.34,2.34,0,0,0-1-1,3.52,3.52,0,0,0-1.62-.61c-.38,0-.89.07-1.18-.24s0-.78.33-1a5.71,5.71,0,0,0,1.41-.92,4.34,4.34,0,0,0,1-1.51,19.61,19.61,0,0,0,.71-1.94,9.45,9.45,0,0,0,.06-2,10.05,10.05,0,0,0,.22-1.89c-.07-.64-.31-1.24-.37-1.88A6.45,6.45,0,0,0,11,52.66a2.6,2.6,0,0,0-1.21-1.24,4.91,4.91,0,0,1-1.28-1.29L8,49.41c-.16-.21-.35-.39-.51-.6a1.07,1.07,0,0,1-.25-.6,1.17,1.17,0,0,1,.37-.72,3.81,3.81,0,0,0,1-1.31,12.42,12.42,0,0,0,.24-1.82,2.68,2.68,0,0,1,.83-1.49,2.34,2.34,0,0,0,.81-1.41c0-.3,0-.6.1-.9a3.61,3.61,0,0,1,.42-.94,2.7,2.7,0,0,0,.24-.84,2.75,2.75,0,0,1,.3-.89,4.17,4.17,0,0,0,.34-2c0-1.4,0-2.8,0-4.19A2,2,0,0,1,12,31a2.21,2.21,0,0,1,.56-.76c.43-.43.85-.84,1.24-1.3a8.86,8.86,0,0,1,1.34-1.26,8.45,8.45,0,0,0,1.19-1,2.46,2.46,0,0,0,.64-1.45,5.32,5.32,0,0,1,0-1.91A4,4,0,0,1,18.05,22c.5-.46,1-.93,1.52-1.37s1-.76,1.51-1.18a8.8,8.8,0,0,0,1.3-1.49,8.44,8.44,0,0,1,1.09-1.43,3.5,3.5,0,0,1,1.58-.68c1.22-.3,2.54-.64,3.63.18.49.38.89.88,1.38,1.27a8.52,8.52,0,0,0,1.61,1,9.87,9.87,0,0,0,1.87.65c.62.18,1.19.51,1.83.64a2.84,2.84,0,0,0,1.72-.26,2.12,2.12,0,0,1,1.71,0c1.12.48,2.11,1.34,3.41,1.17a4.35,4.35,0,0,0,2.8-2c.76-1.11.82-2.48,1.28-3.71a5.16,5.16,0,0,1,2-2.8,3.73,3.73,0,0,1,3.29,0,5.77,5.77,0,0,1,1.53,1,6.72,6.72,0,0,1,1.19,1.52c.35.55.78,1.06,1.12,1.61a8.38,8.38,0,0,0,.93,1.55,3.41,3.41,0,0,0,.59.49c.27.17.57.27.83.46.42.31.44.91.95,1.15a2.3,2.3,0,0,0,1.65-.07c.64-.22,1.26-.51,1.89-.76a7.2,7.2,0,0,1,3.88-.75,3.71,3.71,0,0,0,1.84.07,4.94,4.94,0,0,0,1.53-.94,3.88,3.88,0,0,0,.64-.64c.19-.23.33-.49.51-.73S71,15.51,71.19,15.48Z"/></g></svg>