<svg id="Parsa" xmlns="http://www.w3.org/2000/svg" viewBox="0 0 100 100"><path d="M68.68,20.6s0,0,0,0-.27.17-.39.26a1.53,1.53,0,0,0-.38.46,2.6,2.6,0,0,0-.31,1.25.77.77,0,0,0,.17.55,5.62,5.62,0,0,0,.5.35l.26.18a.91.91,0,0,1,.24.24,1.33,1.33,0,0,1,.1.28.93.93,0,0,1,0,.33,1.63,1.63,0,0,1-.59,1c-.32.34-.63.7-.93,1.06l-.46.54a.8.8,0,0,1-.42.33,2,2,0,0,1-.34,0H65c-.14,0-.43,0-.46.19s.11.28.22.36a1.5,1.5,0,0,0,.54.26,2.43,2.43,0,0,1,.48.14c.18.1.19.32.25.5a.66.66,0,0,1,.06.31.57.57,0,0,1-.14.28,9.55,9.55,0,0,1-.91,1,6.54,6.54,0,0,0-.85,1,1.68,1.68,0,0,0-.36,1.23,1.48,1.48,0,0,0,.1.27c0,.11.09.22.13.33a4.51,4.51,0,0,1,.12.72,5.79,5.79,0,0,1-.09,1.44,11.4,11.4,0,0,1-.4,1.38,9.24,9.24,0,0,0-.33,1.38c-.08.49-.12,1-.22,1.45s-.3.86-.38,1.3-.1,1-.16,1.43-.2,1-.3,1.43-.11,1-.2,1.42a4,4,0,0,1-.46,1.25,1.7,1.7,0,0,1-.38.51,2.11,2.11,0,0,0-.23.19.59.59,0,0,0-.13.29A2.26,2.26,0,0,0,61.2,49c.17.45.32.91.51,1.36a8.41,8.41,0,0,0,.65,1.22l.4.57a2.28,2.28,0,0,0,.42.51,2.25,2.25,0,0,0,.56.32,3.11,3.11,0,0,0,.65.22,1.28,1.28,0,0,1,.57.22.67.67,0,0,1,.19.5c0,.11,0,.22,0,.32a.81.81,0,0,0,.08.34,1.62,1.62,0,0,1,.14.65.78.78,0,0,1-.16.57,1.22,1.22,0,0,0-.28.57,3.87,3.87,0,0,0,0,.68,3.76,3.76,0,0,1-.17.66c-.09.44,0,.9-.12,1.35a4.21,4.21,0,0,1-.45,1.32,5.16,5.16,0,0,1-.79,1c-.12.12-.39.28-.24.46a1.73,1.73,0,0,1,.17.21,1.64,1.64,0,0,1,.14.3,3.55,3.55,0,0,1,.31,1.36,2.26,2.26,0,0,1-.47,1.19,8.65,8.65,0,0,1-.9,1c-.16.17-.33.34-.49.52l-.22.26a.92.92,0,0,0-.19.28.88.88,0,0,0,.09.65,5.46,5.46,0,0,0,.27.6,2.71,2.71,0,0,1,.4,1.26,4.29,4.29,0,0,1-.08.72c0,.25-.08.49-.11.74-.07.48-.13,1-.2,1.46a6.47,6.47,0,0,1-.31,1.37c-.08.22-.18.43-.28.65A4.78,4.78,0,0,0,61,75a.76.76,0,0,0,.05.61c.1.21.23.39.34.59a5,5,0,0,1,.29.62,3,3,0,0,0,.3.59,4.12,4.12,0,0,0,.95.77c.26.2.53.52.41.87a1.07,1.07,0,0,1-.16.27,2.88,2.88,0,0,1-.22.27,2.83,2.83,0,0,1-.52.39,1.69,1.69,0,0,0-.48.44.83.83,0,0,0,0,.62.82.82,0,0,1,0,.31.42.42,0,0,0,0,.31c.07.14.24.21.3.35a.62.62,0,0,1,0,.33c0,.08,0,.23,0,.29s-.14,0-.2.06a.85.85,0,0,0-.3.15c-.18.14-.34.31-.52.45s-.39.26-.58.39a2.88,2.88,0,0,0-.52.4,4.74,4.74,0,0,1-.4.49.78.78,0,0,1-.5.19.91.91,0,0,0-.58.13c-.16.13-.25.32-.4.46a1.44,1.44,0,0,1-.51.29,1.18,1.18,0,0,0-.41.19c-.17.15-.09.37-.1.56A1.46,1.46,0,0,1,57,87a.43.43,0,0,1-.44.29,4.38,4.38,0,0,0-.51,0,.47.47,0,0,0-.41.3.65.65,0,0,0,0,.27.74.74,0,0,0,.14.28.73.73,0,0,1,.13.62,1.74,1.74,0,0,1-.15.26c0,.06-.06.18-.15.2s-.19-.07-.27-.11a2.15,2.15,0,0,0-.36-.11,5.84,5.84,0,0,1-1.28-.43c-.13-.07-.31-.24-.44-.09a.67.67,0,0,0-.11.18,2.18,2.18,0,0,0-.11.27,2.12,2.12,0,0,1-.2.6,1.1,1.1,0,0,1-.47.35,1.42,1.42,0,0,1-.64.14,3.41,3.41,0,0,1-.64-.1.86.86,0,0,1-.52-.28c-.13-.15-.23-.34-.37-.49a4.14,4.14,0,0,0-.5-.44,3.34,3.34,0,0,1-.45-.47,1.17,1.17,0,0,1-.26-.59,1.23,1.23,0,0,0-.17-.6.83.83,0,0,0-.48-.27,5.73,5.73,0,0,0-.69-.16c-.48-.08-1-.12-1.45-.19s-.95-.13-1.42-.23a1.77,1.77,0,0,1-.63-.23c-.19-.12-.35-.27-.54-.39-.72-.47-1.63-.35-2.42-.65a2.37,2.37,0,0,1-1-.73c-.13-.16-.25-.34-.38-.49s-.33-.31-.49-.46S39,83,39,82.74s.23-.35.36-.49a.61.61,0,0,0,.16-.55.9.9,0,0,0-.08-.28.58.58,0,0,0-.22-.22l-.57-.37a1.57,1.57,0,0,1-.46-.39,2.2,2.2,0,0,1-.29-1.21,7.81,7.81,0,0,1,0-1.45A11.22,11.22,0,0,0,38,76.36a2.94,2.94,0,0,0-.08-.72,3.08,3.08,0,0,1-.13-.66.85.85,0,0,1,.25-.51.64.64,0,0,0,.15-.25,1.5,1.5,0,0,0,0-.37,4.09,4.09,0,0,1,0-.7c0-.21.15-.4.21-.61s.12-.46.21-.68.2-.44.29-.66a1.22,1.22,0,0,0,.15-.65,2.9,2.9,0,0,0-.21-.65c-.09-.21-.18-.43-.28-.63a1,1,0,0,1-.14-.61c0-.23.09-.46.12-.7s0-.5.08-.74c.07-.48.21-.94.28-1.41a14.14,14.14,0,0,0,.13-1.46,5.45,5.45,0,0,0-.14-1.45,8.1,8.1,0,0,0-.51-1.26c-.19-.43-.27-.89-.44-1.33a3.26,3.26,0,0,0-.74-1.13,8.22,8.22,0,0,0-1-.87,10,10,0,0,0-2.31-1.42c-.43-.17-.86-.33-1.28-.53a4.8,4.8,0,0,0-.57-.26.61.61,0,0,1-.38-.32,2.71,2.71,0,0,1-.25-1.19c0-.11,0-.23,0-.35a1.55,1.55,0,0,0-.07-.31,2.88,2.88,0,0,1-.18-1.39,1,1,0,0,1,.09-.3A.66.66,0,0,1,31.5,52a3.5,3.5,0,0,0,.91-.89,1.38,1.38,0,0,0,.2-.59.42.42,0,0,1,.1-.28c.07-.06.17-.1.24-.16a2.58,2.58,0,0,0,.5-.43,1.37,1.37,0,0,0,.18-.24.51.51,0,0,1,.17-.24c.14-.07.36.1.46-.07a.58.58,0,0,0,.05-.26c0-.13,0-.25,0-.37a1.92,1.92,0,0,1,.18-.62,3.87,3.87,0,0,1,.37-.53l.23-.24a.9.9,0,0,0,.2-.23,1.12,1.12,0,0,0,.09-.6,7.81,7.81,0,0,1,0-1.45c0-.23.09-.45.13-.68a2,2,0,0,1,.23-.64c.12-.2.26-.38.36-.58a5.44,5.44,0,0,0,.3-.65c.18-.43.33-.87.52-1.29a3.91,3.91,0,0,1,.31-.57,3.28,3.28,0,0,1,.43-.48A2.12,2.12,0,0,0,38,39.4a4.73,4.73,0,0,1,.35-.56,1.51,1.51,0,0,0,.32-.58,5.05,5.05,0,0,0,.06-.67,5.81,5.81,0,0,1,.11-.71c.06-.22.2-.41.27-.63a2.27,2.27,0,0,0-.2-1.3,2.08,2.08,0,0,1-.06-.7,2.33,2.33,0,0,1,.17-.64,1.32,1.32,0,0,1,.42-.46,1.27,1.27,0,0,0,.34-.52c.08-.22.12-.45.19-.67a4,4,0,0,0,.17-.68c0-.24.06-.47.1-.7a5.56,5.56,0,0,1,.19-.7l.22-.7a3.58,3.58,0,0,1,.26-.64,5.75,5.75,0,0,1,.77-1.08,9.87,9.87,0,0,1,1-1,10.47,10.47,0,0,0,1-1c.29-.34.53-.73.79-1.1a3,3,0,0,1,.45-.49,1.89,1.89,0,0,0,.41-.53l.14-.29c0-.1.09-.2.12-.3a1.25,1.25,0,0,0-.08-.66,3.64,3.64,0,0,1-.14-1.35c.06-.47.21-.93.31-1.4s.2-.93.32-1.4.22-.93.38-1.38c.07-.21.16-.42.23-.64a3.11,3.11,0,0,0,.11-.69c0-.48,0-1,.07-1.45a1.15,1.15,0,0,1,.21-.61,1.53,1.53,0,0,1,.46-.38,20.32,20.32,0,0,0,2.38-1.19,3.41,3.41,0,0,0,.46-.47,1.49,1.49,0,0,1,.48-.42c.11,0,.22-.06.33-.1a1.08,1.08,0,0,0,.28-.15,2,2,0,0,0,.21-.2,1.73,1.73,0,0,1,.24-.23,1,1,0,0,1,.6-.05,2.59,2.59,0,0,1,.66.23l.59.32.3.18a1.6,1.6,0,0,1,.25.18.55.55,0,0,1,.09.28.45.45,0,0,1,0,.32,1.92,1.92,0,0,1-.18.22l-.19.24a.9.9,0,0,0-.15,1.06,1.79,1.79,0,0,0,.91.58,6.86,6.86,0,0,1,1.26.49,3.2,3.2,0,0,1,.79.85c.07.09.13.18.2.26a1.37,1.37,0,0,0,.19.22.3.3,0,0,0,.29,0,.7.7,0,0,0,.27-.11c.16-.12.22-.34.32-.5a4,4,0,0,1,.39-.53,3.67,3.67,0,0,1,1-.85,2.8,2.8,0,0,1,.61-.28.86.86,0,0,1,.65,0c.2.1.36.25.56.35a5.59,5.59,0,0,0,.61.26,3.51,3.51,0,0,1,.6.26c.19.12.37.27.55.41a2.2,2.2,0,0,0,.55.34c.22.09.46.15.69.24.87.32,1.7.74,2.6,1a1.56,1.56,0,0,1,.62.23.87.87,0,0,1,.17.21,2.2,2.2,0,0,1,.17.25.85.85,0,0,1,0,.61,1.27,1.27,0,0,0,0,.67c.07.22.17.43.26.65s.17.47.26.7.17.45.25.68.09.19.13.29A.28.28,0,0,1,68.68,20.6Z"/></svg>