<svg id="Parsa" xmlns="http://www.w3.org/2000/svg" viewBox="0 0 100 100"><polygon points="59.07 26.05 59.36 26.28 59.55 26.42 59.84 26.64 60.25 26.95 60.6 27.24 60.79 27.4 61.02 27.54 61.33 27.72 61.78 27.91 62.07 28.02 62.38 28.13 62.63 28.22 62.77 28.27 62.8 28.59 62.67 28.79 62.54 29.04 62.26 29.3 62.01 29.69 61.91 29.83 61.82 30 61.59 30.29 61.31 30.46 60.92 30.6 60.73 30.88 60.86 31.11 61.15 31.22 61.53 31.31 62.04 31.36 62.61 31.39 62.96 31.39 63.4 31.44 63.56 31.58 63.82 31.95 63.98 32.34 64.1 32.85 64.13 33.47 64.04 33.7 63.79 34.07 63.47 34.32 63.18 34.69 63.12 34.97 63.32 35.23 63.69 35.43 64.05 35.57 64.39 35.68 64.87 35.85 65.35 35.91 65.73 35.93 66.11 36.02 66.43 36.04 66.72 36.18 66.78 36.52 66.66 36.56 66.31 36.78 65.86 36.99 65.69 37.21 65.56 37.39 65.32 38.02 65.05 38.34 64.68 38.63 64.31 38.97 64.02 39.29 63.82 39.54 63.87 39.79 64.08 40.07 64.68 40.4 65.07 40.73 65.09 40.89 65.1 41.18 65.05 41.31 64.42 41.59 64.23 41.88 64.04 42.47 63.92 43.09 63.92 43.21 63.93 43.38 64.06 43.76 64.21 43.96 64.42 44.05 64.69 44.29 64.86 44.78 64.89 45.47 65.01 45.63 65.12 45.71 65.3 45.95 65.76 46.55 66 47.04 66.18 47.57 66.36 47.86 66.66 48.33 66.69 48.33 67.2 48.44 67.27 48.48 68.53 48.53 68.55 48.53 69.47 48.59 70.21 48.8 70.18 48.8 71.3 49.33 71.68 49.72 71.86 49.92 71.86 49.98 72.03 50.06 72.28 50.06 72.53 50.09 72.82 50.12 73.14 50.17 73.43 50.28 73.74 50.4 74.19 50.49 74.38 50.57 74.72 50.74 74.89 50.79 75.14 50.83 75.36 50.88 75.68 50.88 75.96 50.94 76.28 51.02 76.57 51.22 76.85 51.36 77.17 51.59 77.42 51.81 77.64 51.92 78.15 52.26 78.34 52.4 78.5 52.6 78.81 52.71 79.11 52.74 79.48 52.77 79.77 52.88 80.02 53.08 80.21 53.19 80.46 53.25 80.72 53.22 80.97 53.1 81.1 53.11 81.39 52.99 81.55 52.96 81.89 52.88 82.05 53.13 82.11 53.31 82.22 53.31 82.53 53.1 82.78 53.02 83.01 53.02 83.2 53.08 83.42 53.16 83.7 53.22 83.96 53.24 84.18 53.33 84.34 53.42 84.4 53.5 84.49 53.64 84.52 53.81 84.52 54.01 84.52 54.23 84.56 54.43 84.69 54.63 84.85 54.66 85.07 54.6 85.25 54.41 85.41 54.32 85.7 54.32 85.8 54.38 85.86 54.57 85.98 54.83 86.08 54.88 86.31 54.92 86.56 54.83 86.72 54.83 87.03 55.14 87.09 55.34 87.23 55.51 87.29 55.59 87.54 55.7 87.67 55.82 87.51 56.02 87.38 56.16 87.25 56.33 87.25 56.53 87.4 56.62 87.38 56.69 87.31 56.83 87.24 56.98 87.12 57.17 86.98 57.31 86.86 57.42 86.73 57.5 86.57 57.59 86.38 57.64 86.03 57.75 85.9 57.75 85.74 57.74 85.58 57.8 85.43 57.83 85.17 57.94 85.11 58.02 84.97 58.16 84.85 58.27 84.69 58.48 84.62 58.55 84.56 58.66 84.49 58.78 84.46 58.87 84.17 59.09 84.01 59.2 83.79 59.28 83.63 59.36 83.43 59.45 83.21 59.58 82.98 59.76 82.8 59.87 82.67 60.03 82.57 60.17 82.51 60.26 82.34 60.71 82.31 60.97 82.3 61.13 82.3 61.44 82.33 61.67 82.39 61.9 82.45 62.12 82.47 62.38 82.57 62.66 82.69 62.94 82.78 63.17 82.88 63.43 82.94 63.63 83.02 63.85 83.18 64.08 83.31 64.26 83.46 64.4 83.65 64.54 83.87 64.68 84.06 64.8 84.31 64.92 84.53 65.03 84.78 65.17 85 65.23 85.25 65.29 85.54 65.36 85.8 65.44 86.05 65.53 86.24 65.61 86.49 65.7 86.71 65.79 86.96 65.91 87.18 65.99 87.43 66.13 87.71 66.37 87.9 66.54 88.09 66.79 88.46 67.53 88.48 67.76 88.52 68.04 88.51 68.36 88.47 68.61 88.47 68.87 88.47 69.03 88.46 69.37 88.49 69.63 88.48 69.86 88.55 70 88.58 70.16 88.64 70.33 88.73 70.48 88.85 70.62 89.01 70.74 89.2 70.82 89.42 70.94 89.68 71 89.87 71.08 90.08 71.14 90.21 71.2 90.34 71.29 90.46 71.4 90.52 71.55 90.55 71.8 90.55 71.94 90.54 72.14 90.6 72.37 90.67 72.53 90.76 72.71 90.85 72.88 90.88 73.11 90.82 73.27 90.68 73.45 90.49 73.56 90.11 73.58 89.89 73.57 89.61 73.52 89.39 73.45 89.14 73.4 88.84 73.37 88.69 73.42 88.62 73.59 88.65 73.78 88.74 73.99 88.84 74.15 88.93 74.3 88.92 74.52 88.61 74.61 88.29 74.72 88.07 74.8 87.97 74.88 87.9 75.08 87.97 75.28 88.15 75.45 88.34 75.51 88.5 75.42 88.72 75.54 88.91 75.68 89.1 75.74 89.48 75.72 89.67 75.61 89.92 75.55 90.06 75.53 89.73 76.09 89.58 76.3 89.13 76.61 88.74 76.83 88.35 76.93 87.79 76.96 87.01 76.87 86.34 76.84 85.91 76.61 85.49 76.16 85.18 75.58 84.9 74.98 84.52 74.66 83.95 74.67 83.47 74.34 83.06 74.14 82.41 74.19 81.73 74.27 81.29 73.96 81 73.8 80.49 73.8 79.94 73.59 79.75 73.1 79.71 72.76 79.58 72.63 79.32 72.54 78.74 72.54 78.12 72.41 77.67 72.14 76.99 72.13 76.32 72.16 75.63 71.86 75.41 71.47 75.21 71.14 74.81 71.1 74.34 71.17 73.85 71.11 73.25 70.94 72.6 70.71 71.78 70.38 71.14 70.25 70.39 70.3 69.44 70.33 68.77 70.32 68.17 70.33 67.37 70.47 66.88 70.73 66.84 70.81 66.61 70.67 66.33 70.31 66.05 69.83 65.82 69.29 65.7 68.82 65.14 68.43 64.28 68.44 63.77 68.56 63.34 68.69 62.67 68.71 61.83 68.63 61.11 68.54 60.52 68.48 60.12 68.77 59.72 68.96 58.97 68.66 58.6 68.17 58.64 67.94 58.63 67.58 58.54 67.35 57.91 67.19 57.5 67.07 57.15 66.97 56.7 66.94 56.31 66.82 55.9 66.58 55.52 66.2 55.13 65.74 54.87 65.39 54.77 64.92 54.52 64.38 54.19 64.06 53.85 63.82 53.39 63.56 53.09 63.12 52.78 62.72 52.49 62.13 52.51 61.77 52.14 61.39 51.74 61.3 51.22 61.1 50.96 60.87 50.77 60.66 50.48 60.29 50.18 59.9 50 59.43 49.92 59.03 49.85 58.58 49.7 58.13 49.68 57.79 49.49 57.49 49.27 57.29 48.79 57.15 48.27 57.09 47.66 57.05 47.14 57.13 46.7 57.09 46.46 56.93 46 56.98 45.52 57.17 45.14 57.38 44.66 57.48 44.1 57.52 43.61 57.57 43.02 57.72 42.7 57.91 42.28 57.96 41.84 57.92 41.37 57.83 41.1 57.77 40.87 57.68 40.87 57.4 40.86 57.2 40.74 57.04 40.48 56.97 40.1 57 39.72 57.15 39.28 57.22 38.95 57.19 38.75 57.25 38.53 57.46 38.41 57.64 38.24 57.81 37.87 57.7 37.47 57.5 36.21 57.07 36.07 57.02 35.98 56.99 35.77 57.17 35.64 57.37 35.5 57.38 35.19 57.29 34.8 57.12 34.48 57.02 33.86 56.95 33.27 56.76 32.62 56.46 32.11 56.1 31.66 55.92 31.25 55.92 30.89 55.96 30.64 55.63 30.54 55.29 30.36 54.95 29.52 54.73 28.66 54.19 28.29 53.83 27.8 53.74 27.12 53.75 26.44 53.7 26.2 53.59 26.04 53.3 25.84 52.87 25.43 52.48 24.48 52 24 51.74 23.53 51.73 22.86 51.87 22.04 51.77 21.83 51.34 21.56 50.83 21.17 50.65 20.89 50.33 20.68 49.99 20.54 49.98 20.35 49.92 19.67 49.95 19.14 49.87 18.81 49.8 18.39 49.85 17.61 49.92 16.93 49.94 16.46 49.79 15.89 49.6 15.42 49.46 15 49.36 14.56 49.24 14.03 49.49 13.5 49.63 13.26 49.95 13.13 50.13 12.3 49.8 11.79 49.52 11.34 49.25 10.94 48.86 10.57 48.44 10.34 48 10.19 47.92 10.23 47.86 10.19 47.63 10.17 47.36 10.21 47.08 10.27 46.88 10.31 46.64 10.42 46.32 10.54 45.98 10.54 45.77 10.5 45.6 10.35 45.19 10.24 44.67 10.21 44.41 10.17 44.07 10.03 43.61 9.79 43.1 9.51 42.6 9.33 42.11 9.21 41.69 9.14 41.21 9.12 40.8 9.14 40.16 9.18 39.73 9.25 39.2 9.34 38.78 9.49 38.33 9.65 38.04 9.75 37.82 9.87 37.67 9.98 37.51 10.12 37.24 10.44 37.26 10.87 37.3 11.26 37.35 11.81 37.33 12.33 37.17 12.51 36.96 12.62 36.81 12.8 36.61 12.95 36.44 13.06 36.29 13.13 36.18 13.43 36.07 13.76 35.83 13.92 35.7 14.05 35.58 14.16 35.28 14.17 35.04 14.23 34.53 14.6 33.62 14.81 32.87 14.8 32.73 14.69 32.47 14.61 32.24 14.51 31.97 14.32 31.68 14.11 31.37 13.83 31.12 13.59 30.98 13.3 30.77 13.11 30.5 13.03 30.22 13.02 29.88 13.1 29.55 13.34 29.28 13.54 29.09 13.77 28.89 14.06 28.55 14.23 28.31 14.3 28.17 14.6 27.96 14.78 27.93 15.04 28.02 15.24 28.2 15.39 28.46 15.51 28.75 15.66 28.86 15.82 28.8 16.09 28.66 16.67 28.35 17.05 28.27 17.37 28.18 17.56 28.12 17.72 27.75 17.81 27.48 18.11 27.1 18.52 26.82 18.81 26.66 19.08 26.32 19.29 25.9 19.53 25.61 19.78 25.54 20.43 25.67 20.37 26.2 20.4 26.57 20.6 26.99 20.79 27.02 21.2 26.82 21.55 26.53 21.96 26.25 22.31 26.02 22.69 25.68 23.13 25.23 23.48 25 23.71 24.91 24.27 24.94 24.72 25.05 25.04 25.16 25.45 25.35 25.93 25.58 26.38 25.75 26.79 25.94 27.21 26.17 27.46 26.3 27.72 26.51 28.04 26.78 28.42 27.1 28.71 27.18 29.09 27.07 29.31 26.75 29.53 26.38 29.78 25.96 29.87 25.81 29.86 25.79 30.01 25.56 30.3 25.11 30.45 24.8 30.55 24.61 30.79 24.43 31.34 24.25 31.7 24.28 31.75 24.32 32.06 24.46 32.61 24.85 32.89 25.03 33.17 25.15 33.93 25.23 34.48 25.27 35.43 25.34 35.83 25.2 36.34 25.06 36.68 24.87 37.14 24.69 37.29 24.69 37.73 24.5 37.86 24.46 37.86 24.46 38.01 24.31 38.46 23.97 38.8 23.74 39.22 23.57 39.63 23.48 39.98 23.45 40.3 23.51 40.74 23.63 41.19 23.73 41.58 23.7 42.02 23.62 42.4 23.53 42.84 23.41 43.26 23.3 43.67 23.22 44.18 23.13 44.59 23.04 45.01 23.07 45.46 23.21 45.87 23.44 46.19 23.66 46.76 23.91 47.18 24.02 47.52 23.94 48 23.73 48.41 23.77 48.42 23.78 48.68 23.86 48.68 23.95 48.69 24.26 48.65 24.57 48.65 24.8 48.76 24.98 48.86 25.02 49.61 25.14 50.72 25.34 51.32 25.38 51.63 25.52 51.93 25.56 52.18 25.6 52.23 25.6 52.28 25.64 52.99 25.76 53.3 25.85 53.7 26.15 54.01 26.55 54.36 26.95 54.82 27.13 55.13 27.03 55.72 26.84 56.12 26.75 56.63 26.74 57.34 26.41 57.61 26.26 58.09 26.14 58.66 26.05 59.07 26.05"/></svg>