<svg xmlns="http://www.w3.org/2000/svg" viewBox="0 0 100 100"><g id="Baara"><path d="M54.31,26.78l.13,0a11.38,11.38,0,0,0,1.54.05,4.58,4.58,0,0,0,1.37.15c.43-.09.61-.53,1-.65a1.38,1.38,0,0,1,1.12.38,13.46,13.46,0,0,0,1.23.91,8,8,0,0,0,2.86,1.49,3.48,3.48,0,0,1,1.42.33c.2.12.39.36.62.42a.63.63,0,0,0,.61-.21,1.69,1.69,0,0,1,1.18-.61c.5.05.79.54,1.06.9a1,1,0,0,0,1.08.45c.49-.07,1-.24,1.46-.29a6.36,6.36,0,0,1,1.51,0c.65.1,2,.59,2,1.4a.81.81,0,0,1-.41.71c-.19.12-.45.2-.58.39a.49.49,0,0,0,.17.68c.59.48,1.25-.2,1.9-.05a3.25,3.25,0,0,1,.88.55,2.63,2.63,0,0,0,.57.31,2.63,2.63,0,0,1,.58.19c.06.23-.45.54-.54.74a2.15,2.15,0,0,0,.11,1.32c.17.47.7.43,1,.78a1.83,1.83,0,0,1,.39,1.34c-.11.36-.47.6-.61.95s.09.7.5.8.75,0,1,.29.31.73.54,1,.65.2,1,.31.34.24.54.33.43,0,.63.15c.39.21.58.67.9,1,.14.12.32.12.46.21s.1.44,0,.62c-.19.39-.66.55-.66,1s.46,1,.76,1.35a5.15,5.15,0,0,0,.91,1.06,3.14,3.14,0,0,0,1.38.52c.27.05.67.06.87.27s-.18.67-.32.88a1.47,1.47,0,0,0-.19,1.24,1.9,1.9,0,0,0,.79,1c.38.31.56.57.2,1-.17.19-.26.24,0,.45a4.44,4.44,0,0,0,.62.41,1,1,0,0,1,.43.41c.1.19.11.42.21.61.2.39.68.68.78,1.11a1.5,1.5,0,0,1-.07.63,3.09,3.09,0,0,0-.07.74,5,5,0,0,0,.32,1.62A11.36,11.36,0,0,1,90,59.86a9.68,9.68,0,0,1,.15,1.7c0,.29,0,.57.07.86a2.15,2.15,0,0,0,.08.62c.15.39.77.39.91.8a1.91,1.91,0,0,1,0,.63,1.89,1.89,0,0,0,.06.67,8.5,8.5,0,0,0,.65,1.32,5,5,0,0,1,.5,1.33c.07.57-.39.93-.45,1.47s.14.95,0,1.37a3.36,3.36,0,0,1-1,1.21,3.22,3.22,0,0,1-1.25.73,1,1,0,0,1-.63,0,2,2,0,0,0-.76-.13,9,9,0,0,0-3.08,1,2.26,2.26,0,0,1-1.09.18.79.79,0,0,1-.44-.25c-.13-.18-.16-.4-.33-.55a5,5,0,0,0-.61-.31,1.38,1.38,0,0,1-.45-.45c-.11-.18-.18-.38-.28-.56a5.2,5.2,0,0,0-.51-.72c-.15-.21-.32-.41-.45-.63a4.42,4.42,0,0,0-.34-.6,4.6,4.6,0,0,0-1.18-.88,2.39,2.39,0,0,0-2.63.19,5.34,5.34,0,0,0-1.24,2.73,2.62,2.62,0,0,1-.58,1.25,3.62,3.62,0,0,1-1.1,1,1.84,1.84,0,0,1-1.4.13,9,9,0,0,1-1.39-.7,1.28,1.28,0,0,0-1.24.06,1.68,1.68,0,0,1-.66.19,2.35,2.35,0,0,1-.72-.24,6.39,6.39,0,0,0-.74-.24,5.62,5.62,0,0,1-.83-.22A7.8,7.8,0,0,1,65.68,72c-.4-.3-.68-.79-1.1-1a2.31,2.31,0,0,0-1.64-.09,6.16,6.16,0,0,0-1.35.39c-.46.24-.56.82-1,1.12-.21.17-.44-.12-.62-.25a5.67,5.67,0,0,0-.58-.42,1.45,1.45,0,0,0-.59-.24,2,2,0,0,0-.72.11,6.12,6.12,0,0,1-1.6,0c-.56-.05-1.11,0-1.67,0S54,71.14,53.54,71s-1.1-.16-1.64-.3a1,1,0,0,1-.5-.22,1.88,1.88,0,0,1-.3-.64c-.16-.47-.32-1.07-.8-1.31a7.76,7.76,0,0,0-1.44-.35,3.31,3.31,0,0,1-1.39-.62,7.18,7.18,0,0,1-.85-1.12,2.39,2.39,0,0,0-.54-.56c-.18-.15-.31-.34-.48-.49-.48-.44-.93-.05-1.45,0a8.05,8.05,0,0,1-1.55-.23c-.51,0-1,0-1.54,0a3.37,3.37,0,0,1-1.6-.25,4.31,4.31,0,0,1-1-.89l-1.09-1.14a2.21,2.21,0,0,0-1.22-.67,8.55,8.55,0,0,1-1.55-.38c-.94-.38-1.48-1.25-2.34-1.74a1.82,1.82,0,0,0-1.17-.24,2.51,2.51,0,0,1-1.51-.06,4.17,4.17,0,0,1-1-.91,2.82,2.82,0,0,0-1.31-.84,4.53,4.53,0,0,0-1.47-.05c-.55.05-1.07.25-1.62.29A3,3,0,0,1,22.81,58a3.64,3.64,0,0,0-1.5-.28,9.09,9.09,0,0,1-3.44-.36l-.71-.29a2,2,0,0,1-.62-.32,1.32,1.32,0,0,1-.18-.44c-.11-.26-.24-.51-.38-.77a8.33,8.33,0,0,0-.67-1.25,15,15,0,0,0-1-1.26c-.31-.32-.64-.63-.94-.95a12.93,12.93,0,0,0-1.15-1.19,11.09,11.09,0,0,0-1.36-.85,15.14,15.14,0,0,0-1.61-.81,10.79,10.79,0,0,1-1.45-.6c-.14-.09-.23-.16-.21-.33s.38-.49.56-.64a10,10,0,0,1,2.56-1.8A5.42,5.42,0,0,0,12,45.41a3,3,0,0,1,1.26-.76,3.24,3.24,0,0,1,1.48.19,3.23,3.23,0,0,0,.67.15,1.2,1.2,0,0,0,.78-.31,2.62,2.62,0,0,0,.54-.51,3.41,3.41,0,0,1,.5-.58,14.35,14.35,0,0,0,1.24-.85A2.19,2.19,0,0,0,19,41.55a1.66,1.66,0,0,1,.21-.56c.13-.21.16-.45.27-.67s.41-.86.8-1a5.29,5.29,0,0,1,1.54-.19,2.18,2.18,0,0,0,1.2-.47,4.24,4.24,0,0,0,1-1.07,1.63,1.63,0,0,0,.15-1.36c-.14-.44-.45-.78-.31-1.26a1.2,1.2,0,0,0,.1-.37c0-.12,0-.23,0-.34a.79.79,0,0,1,.22-.52,1.52,1.52,0,0,1,1.08-.48,2.69,2.69,0,0,1,1.32.41,1.61,1.61,0,0,0,.69.14c.22,0,.53-.11.74,0s.2.22.29.35a.8.8,0,0,0,.45.3,2.73,2.73,0,0,1,1.24.93,2.64,2.64,0,0,0,2.33,1.32c.42-.08.61-.53.89-.8a5.1,5.1,0,0,1,1.31-.83,1.46,1.46,0,0,0,.89-.86,10.18,10.18,0,0,1,.3-1.21,1.14,1.14,0,0,1,.73-.68c.53-.12,1.07.19,1.59,0A3.33,3.33,0,0,0,39,31.5a1.57,1.57,0,0,0,.58-1.27,3,3,0,0,1,.23-1.41c.12-.21.28-.39.41-.58a4.09,4.09,0,0,1,.42-.58c.4-.4.82-.28,1.3-.14a1.61,1.61,0,0,0,.69.07c.24,0,.48,0,.71,0s.39-.15.66-.1a4,4,0,0,0,.6,0c.48,0,.68.54,1.08.75s.86.18,1.26.4a.66.66,0,0,0,.44.16c.25,0,.4-.22.56-.39l.93-1.08A5.13,5.13,0,0,1,50,26.26a2.3,2.3,0,0,1,1.32-.21,11,11,0,0,1,1.61.26C53.4,26.42,53.84,26.65,54.31,26.78Z"/></g></svg>