<?xml version="1.0" encoding="UTF-8"?>
<svg width="700pt" height="700pt" version="1.1" viewBox="0 0 700 700" xmlns="http://www.w3.org/2000/svg">
 <path d="m561.19 533.47c-5.7383-7-11.129-13.578-17.359-19.949-4.1992-4.3398-9.5195-7-10.359-14v-8.1211h-0.003906c-0.68359-3.3555-2.5781-6.3438-5.3203-8.3984-5.4609-5.0391-1.9609-13.648-3.8516-19.879-0.76953-2.5195-2.3789-4.6914-3.1484-7-0.67578-3.2695-1.0078-6.6016-0.97656-9.9414-1.0508-14.422 0-28.98-0.55859-43.398-0.62891-10.43-1.6797-21-3.2188-31.078 0-2.5898-3.4297-12.25-2.0312-14 1.3984-1.75 7-1.4688 8.8203-4.4102l-0.003906-0.003907c2.4688-5.5039 4.168-11.32 5.0391-17.289 0.22266-0.78125 0.38672-1.5742 0.49219-2.3789-0.28516-6.2578-2.2422-12.328-5.6719-17.57-2.2383-4.1289-9.5898-7-10.852-11.621-1.2617-4.6211 2.4492-8.8203 3.8516-12.109 2.3281-5.4141 4.1992-11.008 5.6016-16.73 2.7461-12.344 4.1992-24.941 4.3398-37.59 0-4.3398 6.5781-6.5781 9.6602-9.0312 3.9648-3.1172 7.6641-6.5586 11.059-10.289 2.8242-3.1406 5.4453-6.4609 7.8398-9.9414 1.7227-1.9492 3.293-4.0312 4.6914-6.2266-1.0508-3.0781-2.0312-9.8711-5.1094-11.27-4.4102-2.1719-13.09-3.5703-12.738-9.0312 0-3.5 2.8711-7 3.8516-10.012 0.69922-2.1016 2.7305-10.012 1.3984-11.691l-0.003906 0.003907c-5.7188-5.6289-10.641-12.012-14.629-18.973-0.875-5.6367-0.875-11.371 0-17.008 0.21094-0.68359 0.21094-1.418 0-2.1016-0.26562-0.50391-0.62109-0.95313-1.0508-1.3281-4.8047-4.8398-10.109-9.1562-15.82-12.883l-21-13.512v0.003907c-2.75-1.7266-5.3086-3.7461-7.6289-6.0195-4.1289-4.3398-6.3008-7.5586-12.809-8.1211-5.2422-0.73047-10.531-1.082-15.82-1.0508-10.301 0.63672-20.633 0.30859-30.871-0.98047-1.0273-0.070312-2.0547-0.070312-3.0781 0-4.5508 0.42188-8.3984 3.8516-12.879 4.7617h-0.003907c-5.8281 0.98828-11.727 1.5273-17.641 1.6094-3.7109 0-3.7812-6.5117-5.1797-8.8906-3.0117-5.25-9.8711-4.0586-14.91-3.9883-6.0859 0.95312-11.918 3.1172-17.148 6.3672-4.4062 2.0312-9.1562 3.2188-14 3.5-2.1211-0.046876-4.2305-0.30469-6.3008-0.76953-7.6289-1.3281-15.609-0.98047-23.238-2.6602-4.0586-0.83984-7-4.0586-11.41-4.1289-5.3672-1.1133-10.941-0.625-16.031 1.3984-7.7695 5.1094-12.18 15.75-21 19.531-2.6836 0.49219-5.4336 0.49219-8.1211 0-7.4883 0-15.82-3.8516-19.32 5.1094-5.1094 12.949-1.1914 30.379-10.012 41.441h0.003907c-5.0625 5.1992-10.441 10.086-16.102 14.629-0.86719 0.73828-1.582 1.6445-2.0977 2.6602-2.3125 8.125-0.36328 16.867 5.1797 23.242l11.969 8.8906v-0.003907c0.4375 0.27734 0.82031 0.63281 1.1211 1.0508 0.14062 0.62109 0.14062 1.2695 0 1.8906 0.38672 5.5469 0.38672 11.113 0 16.66-1.6797 10.359-12.32 18.898-17.43 28-6.0195 10.711-12.109 21.559-17.359 32.762-1.75 3.7812-1.3281 11.27-6.3711 12.672-1.8203 0.42187-3.9883 0-5.4609 0.91016v-0.003906c-0.76172 0.71875-1.2969 1.6445-1.5391 2.6602-1.5391 4.2695-4.8281 8.6797-3.2891 13.301 3.6406 10.781 11.34 20.512 16.031 31.012l-0.003906-0.003906c0.42188 0.77344 0.63672 1.6406 0.63281 2.5234-0.0625 0.78906-0.30078 1.5547-0.70312 2.2383-3.9219 7.8398-7.8398 15.609-11.969 23.309s-1.4688 19.18-2.5195 28c0 2.1719-1.3984 18.48-4.6211 18.41h-6.6484c-4.4805 0-5.3203 0-7 4.2695-1.7148 5.4844-3.7461 10.859-6.0898 16.102-1.8906 4.0586-5.1094 7.4883-7 11.621-1.2812 4.168-1.8711 8.5195-1.75 12.879 0 8.6094-0.83984 17.148-1.75 25.691-0.76953 6.5117-4.8281 17.57-2.4492 23.66 0.69922 1.75 1.75 3.2891 2.4492 5.0391 1.2852 5.793 1.4531 11.781 0.48828 17.641-0.72656 7.5898-2.0859 15.105-4.0586 22.469-0.76953 4.5508 0 9.0312-0.42188 13.512h1.1211c1.043-0.17969 2.1094-0.17969 3.1484 0l12.879 4.4102h0.003906c0.27344-0.066406 0.5625-0.066406 0.83984 0 0.69922 0.69922 0.48828 2.6602 0.69922 3.5 0.48828 2.5898 0.91016 5.1797 1.4688 7.7695 1.3984 7 2.5195 14.422 3.5703 21.629-0.074219 0.58203-0.074219 1.168 0 1.75v0.76953c0 0.28125 2.8711 0 3.7812 0.55859 0.91016 0.55859 3.5 0.91016 5.25 1.2617l8.8906 1.75c2.9609 0.11719 5.793 1.2266 8.0508 3.1484 0.83984 0.83984 1.5391 1.8906 2.5898 2.2383h1.2617l11.477 0.70312h7.9805c1.1602 2.0508 2.1211 4.207 2.8711 6.4414l1.8203 3.9883s1.1211 0.69922 1.3984 0.83984l3.5703 2.2383 8.3281 5.1094c0.42188 0 3.9883-1.5391 4.5508-1.75l7-2.6602h0.62891v0.003907c0.22656-0.22656 0.41406-0.48828 0.5625-0.76953 1.0508-1.8906 2.1719-3.7812 3.2188-5.7383v-0.003906c2.3789-2.9297 3.8828-6.4727 4.3398-10.219-0.98047-12.109-1.8906-24.148-2.8008-36.191v-0.48828c5.8711-1.2578 11.809-2.1914 17.781-2.8008 0.27734 0.039062 0.5625 0.039062 0.83984 0 0.27734-0.16016 0.5-0.40625 0.62891-0.69922l3.9883-5.7383 0.003907-0.003906c0.4375-0.74609 0.98047-1.4297 1.6094-2.0273 1.2109-1.0547 2.6484-1.8203 4.1992-2.2422 1.6797-0.55859 3.2891-1.3984 4.9688-2.1016l7-2.9414v0.003906c2.2148-1.2422 4.5664-2.2266 7-2.9414 1.5352-0.17578 3.0859-0.17578 4.6211 0 9.5508 0.72656 19.152 0.39844 28.629-0.98047l2.5898-0.69922c1.0664-0.47266 2.0742-1.0586 3.0117-1.75 2.8711-1.8203 5.8086-3.6406 8.8203-5.3203l4.5508-2.4492c1.457-0.57031 2.9531-1.0391 4.4805-1.3984l11.059-4.1289v-0.003906c0.39453-0.070313 0.79688-0.070313 1.1914 0 0.53125-0.097656 1.0781-0.097656 1.6094 0l9.5195 2.7305c11.359 2.5664 22.941 4.0195 34.578 4.3398 0.30078-0.070313 0.61328-0.070313 0.91016 0 0.19922 0.15234 0.36719 0.34375 0.49219 0.5625 1.5391 2.4492 3.2188 4.8281 4.8984 7 0.74219 1.293 1.6094 2.5117 2.5898 3.6406 0.96484 0.59375 2.0859 0.88672 3.2227 0.83984 1.75 0 5.8086 0 7 1.6797 0.55859 0.76172 0.91797 1.6523 1.0469 2.5898l3.1523 12.039c0.11328 0.51562 0.30078 1.0117 0.55859 1.4688 0.36328 0.35938 0.78906 0.64453 1.2617 0.83984 9.8789 4.168 20.496 6.3086 31.219 6.3008 1.2617-0.10547 2.5039 0.32812 3.4297 1.1914 0.32422 0.48438 0.53906 1.0352 0.62891 1.6094l2.9414 10.641c0.082031 0.41016 0.30469 0.78125 0.62891 1.0508 0.32031 0.10547 0.66406 0.10547 0.98047 0l15.82-2.1016c0.95312 0.10547 1.918 0.10547 2.8711 0 0.92969-0.52734 1.7773-1.1875 2.5195-1.9609 1.75-1.6797 3.5-3.8516 5.4609-5.4609 1.2773-0.96094 2.8125-1.5234 4.4102-1.6094l14-1.3281c3.0273-0.21094 6.0039-0.89453 8.8203-2.0312 1.3984-0.76953 0.98047-1.75 1.0508-3.5l-0.003906-9.5898c0-0.76953-0.35156-3.2891 0-3.8516 0.35156-0.55859 3.0781-0.55859 3.8516-0.62891l4.2695-0.62891 8.6094-1.1914 3.9219-0.55859c1.75 0 2.1016 0 2.5195-1.3984 0.28906-1.6914 0.28906-3.4219 0-5.1133-0.035157-2.8359 0.66406-5.6328 2.0312-8.1172 1.5508-2.4414 3.2539-4.7812 5.1094-7l0.62891-0.55859z"/>
</svg>
