<svg xmlns="http://www.w3.org/2000/svg" viewBox="0 0 100 100"><g id="Baara"><path d="M66.94,26.85s.06.08.07.1.06.07.12.07h.14a1,1,0,0,0,.24,0,1.1,1.1,0,0,0,.46-.19,3,3,0,0,0,.78-.64,2,2,0,0,0,.25-.43,1.5,1.5,0,0,1,.18-.41c.2-.27.5-.15.75,0s.31.15.48.21a.82.82,0,0,1,.41.22,2.44,2.44,0,0,0,.27.29,1.11,1.11,0,0,0,.43.19c.22.07.62.1.72.34a1.08,1.08,0,0,1,0,.44,4,4,0,0,0,.08.5,2,2,0,0,0,.41.9,3.11,3.11,0,0,0,.63.72,5.27,5.27,0,0,0,.84.3.45.45,0,0,1,.27.27c.06.17,0,.35,0,.53a.33.33,0,0,0,.2.3.83.83,0,0,1,.29.3c.14.25.21.52.34.77a1.68,1.68,0,0,0,.64.63,6.92,6.92,0,0,0,.83.59,3.48,3.48,0,0,0,1,.25,2.6,2.6,0,0,1,.87.27c.24.12.49.37.37.66s-.44.36-.67.52a.51.51,0,0,0-.24.32c0,.16,0,.29-.18.4s-.45.27-.63.46-.31.51-.06.71a1.3,1.3,0,0,0,.41.2,4.48,4.48,0,0,0,.52.16,1.46,1.46,0,0,0,.51,0,1.81,1.81,0,0,0,.46-.17,2.26,2.26,0,0,1,.43-.11c.19,0,.36-.12.54-.18a3.92,3.92,0,0,1,.49-.13c.15,0,.3-.12.45-.15s.59,0,.88-.06a1.22,1.22,0,0,0,.7-.48,1.14,1.14,0,0,1,.82-.44c.3,0,.45.36.61.57s.24.23.36.36a3.68,3.68,0,0,0,.32.37c.27.22.59.09.9.1s.44.22.49.51a2.59,2.59,0,0,0,.33.89c.08.13.15.26.24.38s.15.21.09.36-.13.28-.19.43a.74.74,0,0,1-.28.35,8.6,8.6,0,0,1-.84.47,2.1,2.1,0,0,1-.84.43c-.28,0-.82-.13-1,.18s.06.51-.08.75a.86.86,0,0,1-.31.29c-.11.08-.27.16-.32.29s0,.33,0,.49a1.07,1.07,0,0,0,0,.47.33.33,0,0,0,.25.21,1.27,1.27,0,0,0,.39.06,3.81,3.81,0,0,0,.47-.07.53.53,0,0,0,.39-.2c.08-.1.12-.19.24-.24s.25,0,.38.07c.32.19.47-.11.69-.27a.45.45,0,0,1,.39-.07,5.29,5.29,0,0,0,.56.05,1.89,1.89,0,0,1,.94.15,1.15,1.15,0,0,0,.44.15,1.43,1.43,0,0,1,.41.09c.31.14.36.47.43.76a4.43,4.43,0,0,0,.17.47,2.78,2.78,0,0,0,.18.48c.15.27.33.53.17.83,0,.11-.18.24-.18.37s.17.19.29.18a.46.46,0,0,1,.43.12,1.66,1.66,0,0,0,.34.25c.28.13.59,0,.83.23a.72.72,0,0,0,.34.21,1.36,1.36,0,0,0,.4,0,6.37,6.37,0,0,0,1-.05c.38,0,1-.24,1.26.14s-.27.73-.38,1.11.12.59.31.8a3.7,3.7,0,0,0,.33.36,3,3,0,0,0,.37.25c.13.08.09.24.09.36s0,.41,0,.61c0,.37.08.73.09,1.1s.07.67.09,1a.56.56,0,0,1-.08.34c-.1.14-.27.14-.42.17A4.2,4.2,0,0,0,94,53a3.38,3.38,0,0,0-.52.22,3,3,0,0,0-.85.5c-.4.44-.22,1.05-.13,1.56a3.71,3.71,0,0,0,.31,1c.15.31.37.57.5.89s.26.69.38,1,.22.68.3,1a1.58,1.58,0,0,1,.09,1c-.13.26-.43.35-.67.49a5.56,5.56,0,0,0-1.34,1.55c-.11.14-.23.27-.33.41a.73.73,0,0,0-.14.45.71.71,0,0,1-.42.69,1,1,0,0,1-.41,0,1.41,1.41,0,0,0-.54.07c-.29.11-.5.37-.83.4a2.22,2.22,0,0,0-.45.07l-.53.16a2.53,2.53,0,0,1-1.06.15c-.23,0-.47-.06-.62.14a1.06,1.06,0,0,0-.18.55,5.62,5.62,0,0,0,0,.58c0,.37-.07.73-.06,1.1a.7.7,0,0,0,.18.41l.3.42a.31.31,0,0,1,.08.35,3.71,3.71,0,0,1-.28.41c-.21.31-.4.63-.59,1a4.79,4.79,0,0,0-.46.79,7.08,7.08,0,0,1-.25.78,1,1,0,0,1-.65.52c-.57.16-1.3,0-1.69.56a7.23,7.23,0,0,1-.51.84,1.77,1.77,0,0,1-.81.53,4.5,4.5,0,0,0-.89.24.9.9,0,0,0-.35.29,3.6,3.6,0,0,1-.37.41.71.71,0,0,1-.69.21,3.37,3.37,0,0,1-.73-.32,2.92,2.92,0,0,0-.38-.14,1,1,0,0,1-.44-.2.86.86,0,0,1-.1-.81c0-.16.06-.32.1-.48a2,2,0,0,0,.07-.48c0-.33-.27-.44-.56-.46a15,15,0,0,0-2.11.08,3.11,3.11,0,0,0-1.09.21,3.77,3.77,0,0,1-.9.39c-.35.07-.72,0-1.06.15-.15,0-.28.14-.43.06s-.27-.21-.42-.3a2.37,2.37,0,0,0-1-.32c-.36,0-.72-.09-1.08-.11a3.28,3.28,0,0,1-1-.08.54.54,0,0,1-.32-.25,1.29,1.29,0,0,1-.1-.48,2,2,0,0,0-.34-.91,1.53,1.53,0,0,1-.21-.4,1.31,1.31,0,0,1,0-.59c.05-.36,0-.73.1-1.09a2.19,2.19,0,0,0,.1-.51,2.27,2.27,0,0,0-.14-.51,5,5,0,0,1-.24-1c0-.12,0-.33-.13-.37s-.1,0-.15,0a1.51,1.51,0,0,1-.3,0,1.72,1.72,0,0,0-.91.41A4.58,4.58,0,0,0,65,67a5.88,5.88,0,0,1-.73.68c-.27.2-.58.32-.86.5a2.34,2.34,0,0,0-.7.7,4.6,4.6,0,0,1-.55.83,1.09,1.09,0,0,1-.89.3c-.34,0-.66-.2-1-.26s-.62,0-.82-.2a1.38,1.38,0,0,1-.2-.75,1.79,1.79,0,0,0-.38-.84,5.84,5.84,0,0,1-.52-1c-.15-.33-.28-.66-.43-1a1.44,1.44,0,0,0-.57-.69.77.77,0,0,0-.88.18,3.06,3.06,0,0,1-.87.51,2.52,2.52,0,0,1-1.06.07,1.09,1.09,0,0,1-.78-.48c-.09-.13-.18-.26-.28-.38a1.51,1.51,0,0,0-.38-.33,2,2,0,0,0-.92-.38,1.54,1.54,0,0,0-.48,0,3.35,3.35,0,0,0-.47.21,2.53,2.53,0,0,0-.36.2,2.5,2.5,0,0,0-.32.33,2.59,2.59,0,0,0-.47.9,2.78,2.78,0,0,0-.08.49,3,3,0,0,0,.08.51.86.86,0,0,1-.15.43.87.87,0,0,0-.08.5,1.29,1.29,0,0,1,0,.48,1.72,1.72,0,0,1-.21.43.67.67,0,0,0,0,.42.51.51,0,0,1,0,.42,1,1,0,0,1-.77.39,5.78,5.78,0,0,1-1-.1,2.41,2.41,0,0,0-1.06.2c-.29.12-.49.37-.78.49a.67.67,0,0,1-.42,0c-.15,0-.29-.16-.45-.21-.33-.1-.66.13-.93.31a2.28,2.28,0,0,0-.67.48c-.09.13-.15.29-.23.43a2.07,2.07,0,0,0-.2.46c-.07.24-.1.59-.38.68s-.52-.09-.77-.12-.29,0-.44,0a3,3,0,0,0-.52,0c-.16,0-.25.15-.38.22a.73.73,0,0,1-.5.09c-.31-.08-.51-.37-.79-.49s-.66-.1-1-.23a4.14,4.14,0,0,1-.76-.56,2,2,0,0,0-.39-.26c-.14-.07-.29-.12-.42-.2a1.06,1.06,0,0,1-.46-.75c0-.34.17-.63.12-1,0-.17-.07-.33-.1-.49a1,1,0,0,0-.15-.42,2.11,2.11,0,0,0-.36-.31,4.54,4.54,0,0,0-.41-.33,1.31,1.31,0,0,0-1-.23,1.56,1.56,0,0,0-.72.43.86.86,0,0,1-.76.34.77.77,0,0,1-.59-.55,2.48,2.48,0,0,0-.5-.78,2,2,0,0,0-.82-.58,1.77,1.77,0,0,0-1,0,3,3,0,0,1-1.11.1,3.53,3.53,0,0,0-1-.11,1,1,0,0,0-.76.53,1.15,1.15,0,0,1-.58.59c-.29.09-.59-.06-.85.13-.11.09-.22.19-.35.09a2.69,2.69,0,0,1-.26-.33.9.9,0,0,0-.34-.2,1,1,0,0,0-.49,0,4,4,0,0,1-1,0,1.32,1.32,0,0,0-.44.08c-.16.06-.19.19-.24.34a1.43,1.43,0,0,1-.19.44c-.1.12-.22.21-.32.34a2.81,2.81,0,0,1-.29.31,1.49,1.49,0,0,0-.27.35,1.5,1.5,0,0,1-.86.47c-.34.09-.69.19-1,.25a2.82,2.82,0,0,0-.95.19,1,1,0,0,1-.35.17.46.46,0,0,1-.36-.16,1.69,1.69,0,0,0-.92-.33,4.34,4.34,0,0,1-.52-.07A4.71,4.71,0,0,0,16,69.9a2.49,2.49,0,0,0-1,.1.77.77,0,0,1-.42.07,2,2,0,0,1-.49-.24c-.3-.19-.57-.41-.87-.6a2.65,2.65,0,0,0-1-.42,7.83,7.83,0,0,0-1.06-.18,1.7,1.7,0,0,0-.9.28,1.4,1.4,0,0,1-.46.1,1.55,1.55,0,0,0-.47.12,1.75,1.75,0,0,1-1,0L7.79,69a.26.26,0,0,1-.21-.26,3.18,3.18,0,0,0-.19-1c-.14-.33-.33-.64-.5-1a7.77,7.77,0,0,0-.53-.87c-.2-.29-.38-.6-.57-.9a1.73,1.73,0,0,0-.2-.32s-.1,0-.13-.07,0-.12,0-.16c.07-.33.14-.67.24-1,0-.15.16-.2.29-.28a.86.86,0,0,0,.3-.3,3.83,3.83,0,0,0,.22-1,6.2,6.2,0,0,1,.39-1,2.39,2.39,0,0,0,.11-1,4.79,4.79,0,0,0,0-1.07,2,2,0,0,0-.17-.44c-.08-.17-.15-.34-.23-.52a1.42,1.42,0,0,0-.54-.71A2.17,2.17,0,0,0,5.63,57c-.11,0-.32-.08-.38-.19s0-.12,0-.19a.19.19,0,0,0-.09-.11.29.29,0,0,1-.08-.36,3.17,3.17,0,0,0,.19-.46.63.63,0,0,1,.21-.38c.12-.1.26-.17.39-.26a1.33,1.33,0,0,0,.29-.29.58.58,0,0,1,.23-.21.61.61,0,0,1,.44,0c.32.11.59.3.91.4a3.13,3.13,0,0,0,1.06,0,2.81,2.81,0,0,1,1,.09,2.16,2.16,0,0,0,.43.14,1.49,1.49,0,0,0,.47-.07,1.34,1.34,0,0,1,.44-.06,2.52,2.52,0,0,1,.47.13c.34.09.58-.21.75-.46a2.13,2.13,0,0,1,.56-.67,1.58,1.58,0,0,0,.6-.68,4.11,4.11,0,0,1,.42-1,5.54,5.54,0,0,0,.57-.8A1.39,1.39,0,0,1,15,51,1.14,1.14,0,0,1,16,51c.33.11.64.3,1,.42.12,0,.26.12.37,0a1.6,1.6,0,0,0,.3-.42,2.34,2.34,0,0,1,.48-.71c.25-.19.55-.07.82,0a1.84,1.84,0,0,0,1,0,2.94,2.94,0,0,0,.77-.55,3.48,3.48,0,0,1,.8-.56A3.68,3.68,0,0,0,22,49c.15-.09.28-.21.44-.29l.37-.22a3,3,0,0,1,.43-.25,4.22,4.22,0,0,0,.81-.57,2.79,2.79,0,0,0,.61-.8c.16-.31.34-.6.48-.92a1,1,0,0,1,.63-.63A2.86,2.86,0,0,0,26.6,45c.26-.2.32-.54.51-.8s.51-.22.76-.21a7.15,7.15,0,0,1,1.12.22c.13,0,.27,0,.4,0s.13.13.11.26a5.9,5.9,0,0,0-.11,1c0,.27.28.33.46.48a1.79,1.79,0,0,1,.48.76,1.86,1.86,0,0,0,.19.34.88.88,0,0,0,.38.24.6.6,0,0,1,.32.27,1.72,1.72,0,0,0,.22.33c.2.19.47.26.65.46a.76.76,0,0,1,.17.35.68.68,0,0,0,.14.42,1.15,1.15,0,0,0,.33.29.21.21,0,0,1,.09.31.5.5,0,0,0,0,.4,3,3,0,0,1,.18.5c0,.16,0,.32,0,.47a1.43,1.43,0,0,0,.07.46c.1.29.39.46.59.68a1.61,1.61,0,0,1,.42.78.47.47,0,0,0,.12.27.51.51,0,0,0,.4,0,6.81,6.81,0,0,0,1-.39,4.68,4.68,0,0,0,1-.45c.12-.08.21-.19.32-.27a1.2,1.2,0,0,1,.45-.23,2.24,2.24,0,0,1,1.06.08,1.71,1.71,0,0,0,.45,0,1.21,1.21,0,0,0,.49-.18,1.24,1.24,0,0,1,1,0c.25.08.59.29.84.13.09-.06.15-.15.23-.21a.51.51,0,0,1,.39-.12c.31,0,.62.12.93.16a.3.3,0,0,0,.32-.1,1.57,1.57,0,0,1,.15-.32c.19-.19.51-.13.74-.11s.5-.08.51-.38a2.32,2.32,0,0,0-.06-.38,2.46,2.46,0,0,1,0-.54,8.28,8.28,0,0,0-.25-1,1.94,1.94,0,0,1,0-.48c0-.13,0-.24.17-.28s.51.22.77.23.63-.24,1-.31a1.3,1.3,0,0,1,.94.17,2.48,2.48,0,0,0,1,.34,3.24,3.24,0,0,0,1-.2,3.35,3.35,0,0,0,.92-.32c.3-.18.53-.46.83-.65a2.42,2.42,0,0,1,.94-.34,6.16,6.16,0,0,0,1.06-.16,1.71,1.71,0,0,1,1-.18c.32.08.43.36.63.6a1.05,1.05,0,0,0,.72.33,4.36,4.36,0,0,1,.81.08c.31.08.51.33.79.47A1.55,1.55,0,0,0,58.36,48a3,3,0,0,0,.6-.77,4.1,4.1,0,0,0,.42-.87,1.92,1.92,0,0,0,.11-.46.91.91,0,0,0-.15-.48,4.86,4.86,0,0,0-.63-.73,1.35,1.35,0,0,1-.33-.88,1,1,0,0,1,0-.42,1.21,1.21,0,0,1,.27-.43c.11-.13.22-.27.32-.41a2.09,2.09,0,0,0,.29-.44.7.7,0,0,0-.25-.78,1.22,1.22,0,0,1-.27-.33.88.88,0,0,1,0-.43.71.71,0,0,0-.06-.38,1.2,1.2,0,0,1-.17-.34c-.1-.54.58-.7,1-.72A4.68,4.68,0,0,0,60.4,39c.17,0,.34-.11.5-.16l.49-.1a.79.79,0,0,0,.61-.46c.07-.13.13-.27.21-.41a3,3,0,0,1,.28-.34.61.61,0,0,0,.1-.74c-.13-.28-.44-.49-.36-.83a1.77,1.77,0,0,1,.6-.76,3,3,0,0,0,.63-.7,1.23,1.23,0,0,0,0-1,1.82,1.82,0,0,1-.09-.51c0-.19.07-.36.07-.55s-.28-.63,0-.9.55-.23.82-.37a.85.85,0,0,0,.47-.71,3.72,3.72,0,0,0-.17-.87.37.37,0,0,1,0-.31c.09-.13.29-.13.43-.15a1.37,1.37,0,0,0,.79-.5,5.67,5.67,0,0,0,.73-.74,2.78,2.78,0,0,0,.3-.85C66.84,27,66.86,26.85,66.94,26.85Z"/></g></svg>