<svg xmlns="http://www.w3.org/2000/svg" viewBox="0 0 100 100"><g id="Baara"><path d="M50.07,22l.06,0a4.7,4.7,0,0,1,.84-.1A3.19,3.19,0,0,1,52,21.74a2.91,2.91,0,0,1,.83.32l1,.5a16.85,16.85,0,0,0,2.07.71c.29.08.58.17.87.24a3.27,3.27,0,0,1,.76.27,1.35,1.35,0,0,1,.57,1.5,1.16,1.16,0,0,0,0,.82c.13.29.35.52.3.87a1.67,1.67,0,0,1-.41.76,8.69,8.69,0,0,0-.63.95c-.35.61-.77,1.19-1.09,1.81a8,8,0,0,0-.42.89c-.13.34-.23.7-.38,1a3.91,3.91,0,0,0-.33.86,1.46,1.46,0,0,0,.3,1,7.49,7.49,0,0,1,.72,1.93,3.21,3.21,0,0,0,.63,1.51c.4.43,1.07.39,1.48.83a2,2,0,0,1,.4.81,7.56,7.56,0,0,1,.23,1c.11.69-.1,1.4.07,2.09a7.15,7.15,0,0,0,.37,1c.14.32.27.65.44,1a4.39,4.39,0,0,0,.59.84.92.92,0,0,0,.7.41c.52,0,.82-.59,1.35-.61a3.27,3.27,0,0,1,1,.22c.34.1.68.2,1,.32a9,9,0,0,0,1.82.66,2.66,2.66,0,0,0,1-.06,2.64,2.64,0,0,1,.68-.19c.31,0,.33.25.4.49s.28.34.54.33a8.42,8.42,0,0,0,1-.14,6,6,0,0,0,1-.22,1.67,1.67,0,0,0,1-1.17c.1-.3.14-.61.21-.91s.29-.64.36-1a1.91,1.91,0,0,1,.23-.78c.18-.24.5-.28.76-.39A2.13,2.13,0,0,0,74.68,41a12.35,12.35,0,0,1,1-1.83,8.29,8.29,0,0,1,.55-.77,2.23,2.23,0,0,1,.8-.47,2.55,2.55,0,0,0,.77-.34.92.92,0,0,0,.17-.75,1.53,1.53,0,0,1,0-.9c.13-.28.41-.4.64-.58a.94.94,0,0,0,.34-.59,1.71,1.71,0,0,1,.27-.86c.44-.5,1.27-.23,1.83-.18a5.28,5.28,0,0,0,2-.22,5.37,5.37,0,0,1,1-.23,3.87,3.87,0,0,0,.48,0,.8.8,0,0,1,.43-.05c.13,0,.23.17.35.24s.32.13.48.2l.93.37a10.51,10.51,0,0,1,3.49,2.13c.26.26.5.53.75.8l.73.74A14.68,14.68,0,0,1,93,39.29a13.62,13.62,0,0,1,1,1.8,2.94,2.94,0,0,1,.26.57c.08.28-.1.31-.34.37-.65.16-1.22.53-1.86.73-.34.11-.67.23-1,.37s-.59.3-.9.45a5,5,0,0,1-.93.27,4.78,4.78,0,0,0-1,.41,5.72,5.72,0,0,0-1.56,1A1.78,1.78,0,0,0,86.27,47c.32,1.26,1.67,1.79,2.46,2.71a1.85,1.85,0,0,1,.47,1.69A2.53,2.53,0,0,1,88,52.68a2.5,2.5,0,0,1-.79.33,8.8,8.8,0,0,0-1,.14c-.57.18-.84.71-1.14,1.17a3.78,3.78,0,0,1-.56.64,3.52,3.52,0,0,0-.6.83c-.15.28-.28.56-.42.85a2,2,0,0,1-.54.81c-.5.39-1.19.34-1.75.61a1.81,1.81,0,0,0-.93,1.35c-.06.3-.1.61-.17.91a4.35,4.35,0,0,1-.42,1c-.15.27-.34.51-.5.77a3.86,3.86,0,0,0-.46,1,2.54,2.54,0,0,0-.11,1c0,.34.14.67.19,1a1.71,1.71,0,0,1-.37,1.55,1.92,1.92,0,0,1-1.72.34,6,6,0,0,1-1-.34,3.25,3.25,0,0,0-.43-.18.71.71,0,0,0-.4.09c-.3.1-.61,0-.92.06a1.77,1.77,0,0,0-.82.46,4.26,4.26,0,0,0-.82,1.58c-.26.69-.55,1.36-.86,2-.15.31-.32.6-.49.89a3,3,0,0,1-.57.76,1.23,1.23,0,0,1-.82.39,1.67,1.67,0,0,1-.9-.32,4.1,4.1,0,0,1-1.2-1.35,9.47,9.47,0,0,0-1.25-1.57,5.74,5.74,0,0,0-.65-.74.94.94,0,0,0-.78-.13,1.87,1.87,0,0,1-.94,0,4.69,4.69,0,0,0-.89-.31,1.6,1.6,0,0,0-.89.13,6.17,6.17,0,0,0-.86.58,5.1,5.1,0,0,1-.76.48,1.8,1.8,0,0,0-.74.38,1.62,1.62,0,0,0-.27.74,3.83,3.83,0,0,0-.09,1.12c0,.32.09.64.15,1s0,.33.08.5a.64.64,0,0,0,.19.45c.18.15.45.11.65.25s.4.49.65.69.5.3.73.49a8.38,8.38,0,0,1,.72.74,3.27,3.27,0,0,1,.56.67,3.6,3.6,0,0,1,.34,1c.07.21.18.56,0,.76s-.44,0-.61,0c-.55-.27-1-.73-1.53-1a5.27,5.27,0,0,0-3.79-.8,4.93,4.93,0,0,0-.91.4,1.57,1.57,0,0,1-.82.34,1.53,1.53,0,0,1-.81-.41,2.49,2.49,0,0,0-.79-.45c-.3-.08-.62,0-.92-.11a3.4,3.4,0,0,1-.82-.38,2.39,2.39,0,0,0-.87-.37,4.43,4.43,0,0,0-1,.06,8,8,0,0,1-2.19-.1A17.9,17.9,0,0,0,46.13,75a1.62,1.62,0,0,1-.84-.19,1.41,1.41,0,0,1-.38-.77.81.81,0,0,0-.54-.63,4.22,4.22,0,0,0-.87,0c-.56,0-.86-.5-1.16-.92A1.65,1.65,0,0,0,41,71.67a5,5,0,0,0-1,.2,1.05,1.05,0,0,1-.8,0c-.11-.06-.19-.19-.3-.24a.48.48,0,0,0-.42,0,.82.82,0,0,1-.9-.07c-.22-.17-.4-.39-.63-.56a4.57,4.57,0,0,0-.9-.54,3.52,3.52,0,0,0-2-.34,11.33,11.33,0,0,0-1.88.66,2.21,2.21,0,0,0-.79.37,2.6,2.6,0,0,1-.8.55,4.85,4.85,0,0,1-.86.17,1.18,1.18,0,0,1-.94-.11c-.18-.16-.27-.4-.44-.57a2.07,2.07,0,0,0-.82-.42,1.08,1.08,0,0,1-.58-.47,3.71,3.71,0,0,1-.3-1,1.8,1.8,0,0,1-.06-.89,2.09,2.09,0,0,1,.54-.84,1.89,1.89,0,0,0,.41-.71,2.51,2.51,0,0,1,.33-.89c.28-.42.69-.95.27-1.43a4,4,0,0,0-.67-.46,2,2,0,0,1-.54-.66,6.28,6.28,0,0,0-.59-.77.64.64,0,0,1-.14-.68c.18-.36.69-.47,1-.56a2.16,2.16,0,0,0,1.22-.59,1.61,1.61,0,0,0-.09-1.65,2.15,2.15,0,0,0-.57-.67c-.22-.18-.47-.33-.69-.52-.5-.44-.65-1.12-1.08-1.61a2.62,2.62,0,0,0-1.73-.62,4.27,4.27,0,0,1-.93-.19,1.91,1.91,0,0,1-.73-.56,2,2,0,0,0-.72-.55,3.71,3.71,0,0,1-.79-.41,2.75,2.75,0,0,0-.69-.48,1.48,1.48,0,0,0-.93,0,3.29,3.29,0,0,0-1.42,1.11,2.35,2.35,0,0,1-.67.55,2.93,2.93,0,0,1-1,.24,7.16,7.16,0,0,0-.93.11,10.34,10.34,0,0,0-1.09.3,2.32,2.32,0,0,1-.9.17,5.37,5.37,0,0,1-.87-.33,2.84,2.84,0,0,0-.92,0c-.39,0-.78,0-1.17,0a3.38,3.38,0,0,0-.55,0,1.2,1.2,0,0,1-.32.06c-.28,0-.12-.41-.11-.58s0-.29,0-.44a4.17,4.17,0,0,0,0-.5,2.33,2.33,0,0,0-.4-.93,2.69,2.69,0,0,1-.32-.81,1.71,1.71,0,0,0-.35-.89,2.13,2.13,0,0,0-.75-.38,5.94,5.94,0,0,1-.87-.53,1.74,1.74,0,0,0-.33-.18c-.12,0-.26-.07-.38-.13s-.14-.2-.12-.35a1.06,1.06,0,0,0,0-.53c0-.12-.07-.25-.09-.38s0-.32-.07-.49a2.18,2.18,0,0,1-.14-1,.81.81,0,0,1,.51-.58c.24-.12.48-.2.59-.47a2.9,2.9,0,0,0-.06-1.34,3.52,3.52,0,0,0-.17-1c-.12-.31-.32-.58-.46-.88a1.21,1.21,0,0,1-.09-1,2.78,2.78,0,0,0,.33-.84c0-.27-.1-.52-.08-.78s.26-.38.53-.38c.09,0,.21,0,.19-.11s0-.09-.06-.15a.38.38,0,0,1,0-.18c0-.14.08-.28.1-.43a3.91,3.91,0,0,1,.05-.48,2.33,2.33,0,0,1,.42-.85A1.65,1.65,0,0,0,8,37.49a4.67,4.67,0,0,0-.07-1,1.75,1.75,0,0,1-.1-.9.47.47,0,0,1,.6-.31,2.22,2.22,0,0,0,1,.06,1.09,1.09,0,0,0,.73-.5,1.76,1.76,0,0,0,.12-.91c0-.27,0-.62.22-.8s.43-.14.6-.31.18-.85.08-1.22a3.43,3.43,0,0,0-.39-.82,2.64,2.64,0,0,1-.26-.91,5.89,5.89,0,0,1-.24-2,1.18,1.18,0,0,1,.38-.72,1.24,1.24,0,0,1,.88-.26,5.18,5.18,0,0,1,1,.08,5.23,5.23,0,0,0,1.12,0,5.83,5.83,0,0,1,2,.45,9.44,9.44,0,0,1,.89.32c.33.14.61.37.93.53a2.82,2.82,0,0,0,.78.33,1.47,1.47,0,0,0,1-.33c.51-.33.8-.94,1.49-.94.52,0,.79.46,1.12.8.18.18.4.28.58.45a5.36,5.36,0,0,0,.71.72,1.64,1.64,0,0,0,.81.25,5.85,5.85,0,0,1,1.1.17,1.69,1.69,0,0,0,.92,0,8.41,8.41,0,0,0,1-.43c.63-.27,1.3-.42,1.94-.67a3.85,3.85,0,0,1,1-.26c.34,0,.68,0,1-.06a10.55,10.55,0,0,1,2.09-.24c.69.07,1.34.36,2,.39a1.61,1.61,0,0,0,.92-.19,2.33,2.33,0,0,0,.63-.66A19.13,19.13,0,0,1,37.53,26a2.66,2.66,0,0,1,1.55-.83,6.68,6.68,0,0,1,1,0,3.73,3.73,0,0,0,1.05-.13c.7-.19,1.38-.45,2.08-.62a10.34,10.34,0,0,1,1.08-.22c.34-.05.69,0,1-.09a2.88,2.88,0,0,0,1.48-.85,3.5,3.5,0,0,1,1.69-.72,9.32,9.32,0,0,0,.92-.17.88.88,0,0,0,.35-.17A1.79,1.79,0,0,1,50.07,22Z"/></g></svg>