<svg id="Parsa" xmlns="http://www.w3.org/2000/svg" viewBox="0 0 100 100"><path d="M31.18,23.74a2.65,2.65,0,0,1,2.47,1.19A6.1,6.1,0,0,1,34.39,28c0,.79-.82,1.45-1.25,2.05a2.81,2.81,0,0,0-.25,2.23c.5.69,1.9.82,2.66,1s2.12.43,2.62.61c.8.46,2,.06,2.78.64,0,.49-.33.93-.37,1.38a2.54,2.54,0,0,0,.17,1,1.19,1.19,0,0,1,.16.74c-.44,1.71-1.65,2.18-.57,4.09a26.43,26.43,0,0,0,2.67,0,11.78,11.78,0,0,0,1.68.15,17.32,17.32,0,0,0,4.07,0c.5-.13,1,.19,1.52.14a6.71,6.71,0,0,0,.89.09c.1.12.44.1.57.09a9.75,9.75,0,0,0,1.48.38c.83.17,1.62.94,2.47,1,.87-.38,1.48-1.37,2.14-2a5.91,5.91,0,0,1,2.72-1.63c1.31-.2,3.05.26,4.14-.66a7.87,7.87,0,0,0,1-1.16c.09-.34.28-1.09.36-1.44a2.64,2.64,0,0,1,2.31-1.34c1.86-.26,3.35-1.58,4.93-2.48a14.77,14.77,0,0,1,1.62-1.34,6.33,6.33,0,0,0,1.15-.61c.32-.77.56-1.76.84-2.55a1.19,1.19,0,0,1,1.21-.84,4,4,0,0,0,1.68-.14c.29-.52.43-1.32.68-1.86A3.66,3.66,0,0,1,82.55,24c.57,2.14,3.21,2.38,4.67,3.71A27.86,27.86,0,0,1,89.15,30c2.06,1.39,2,3.41,1.73,5.62-.07.5-.09,1.22-.17,1.72s-.41,1.23-.51,1.76a6.61,6.61,0,0,1,.25,2.79c-.32.51-.88.28-1.36.37a6.82,6.82,0,0,0-.31,1.68,13.43,13.43,0,0,0,.15,3.29c.6,2,1.52,3.12.21,5.16a10.94,10.94,0,0,0-1.06,3c-.33.75-1.34,1-2,1.31a3.62,3.62,0,0,0-1.72,1.53,4.31,4.31,0,0,0,1,2.56,1.66,1.66,0,0,1,.52,1.48c-.35.42-1,.83-1.41,1.21a4.16,4.16,0,0,0-.53,1.72,6.69,6.69,0,0,0-.15,2l-.21.42c-1.78.7-3.88.46-5.75.33A4.75,4.75,0,0,1,76,67.61l-1.32-.09c-.79.18-1.59.72-2.4.89-1,0-2.18-.2-3.18-.29-.75-.1-1.77,0-2.52-.07-1.25-.1-2.56-.26-3.81-.24s-2.46-.15-3.41.61c-1.55,1.72-3,3.73-5,5-.6,0-1.74-.2-2.26.19-.61.13-1.22.37-1.82.52a5.43,5.43,0,0,1-1.93,0l-.27.18-.26-.09a1.22,1.22,0,0,0-.36.18,5.29,5.29,0,0,0-1.32,0c-.62.06-1.3.3-1.92.38a15.34,15.34,0,0,1-2.56.14c-.59,0-1.26-.19-1.83-.22a5.75,5.75,0,0,1-1.77.84c-.18,0-.79-.08-.94,0a1.62,1.62,0,0,0-1.68.14,3.94,3.94,0,0,1-1.15-.14,6.33,6.33,0,0,0-1.15,0c-.89.29-2.06,1.14-2.92.38-.42-.62-.76-1.5-1.47-1.81a6.32,6.32,0,0,1-2.57-1.48,12.45,12.45,0,0,0-2.88-1.42,4.85,4.85,0,0,1-1.93-.14,4,4,0,0,1-2.15-.83,8.3,8.3,0,0,1-.79-1.39c0-.17,0-.69-.21-.79a2.69,2.69,0,0,0-2.09-.68,2.84,2.84,0,0,0-1.52.19A4.65,4.65,0,0,0,13,68.5,29.05,29.05,0,0,1,14,65a13.63,13.63,0,0,0,.31-1.67c.13-.22.34-.52.46-.75a9.55,9.55,0,0,0-.22-2,13.38,13.38,0,0,0-1.36-2.27c-.6-1.19-.36-2.68-.75-4a10,10,0,0,0-.38-2,14.59,14.59,0,0,1,.11-3.3,7.25,7.25,0,0,0-.07-2.23,4.27,4.27,0,0,1,1.2-2.78,5,5,0,0,0,0-3.2A4.45,4.45,0,0,0,13,38.37l-.69.05a7.27,7.27,0,0,0-1.74-2.16C9.94,35.3,9.52,34,9,33a12.62,12.62,0,0,0,1.83.27,3.92,3.92,0,0,0,1.58.32c.36.18,1.53-.35,1.88-.48s.63,0,.89-.09c.53-.33,1.55-.82,2-1.21s.71-.92,1.14-1.26a4.2,4.2,0,0,0,.74-.43,10.86,10.86,0,0,1,1.68-.41,12.76,12.76,0,0,0,1.71-2.1,4.36,4.36,0,0,0,.94-.93,6.12,6.12,0,0,1,2.1-.52c.73-.12,1.53-.56,2.25-.71A6.29,6.29,0,0,0,31.18,23.74Z"/></svg>