<?xml version="1.0" encoding="UTF-8"?>
<svg width="700pt" height="700pt" version="1.1" viewBox="0 0 700 700" xmlns="http://www.w3.org/2000/svg">
 <path d="m243.53 86.941c-6.0898 4.1289-13.23 12.602-19.602 15.121-5.25 2.0312-5.3203 4.5508-8.1211 9.0312-6.3008 10.289-13.09 19.809-20.301 29.398l0.003907-0.003907c-1.8008 3.0898-3.9883 5.9375-6.5117 8.4727-2.7422 1.7031-5.7812 2.8672-8.9609 3.4297-4.8281 1.5391-12.949 2.8008-16.238 7-2.1719 2.8711-0.76953 7-0.69922 10.219 0 5.6719-2.3789 6.3008-7 8.1211-6.75 1.8008-12.984 5.1562-18.203 9.8008l-8.6094 8.8203c-4.1992 5.3164-7.3125 11.402-9.168 17.918-2.9492 7.6367-5.0625 15.57-6.3008 23.66-0.11328 1.0625-0.44531 2.0859-0.98047 3.0117-0.98047 1.6094-2.5195 1.3984-4.1289 1.4688-2.9141 0.27344-5.7578 1.0547-8.4023 2.3086-0.5 0.1875-0.97266 0.44922-1.3984 0.76953-0.46875 0.45312-0.82812 1.0039-1.0508 1.6133-3.1484 6.3711-6.2305 12.738-9.3789 19.18-1.4375 3.0039-2.0664 6.3359-1.8203 9.6602 0.30859 20.156-3.5781 40.156-11.41 58.73-3.1172 8.4492-4.1484 17.523-3.0117 26.457-0.070312 5.8047 1.0977 11.559 3.4336 16.871 3.6406 6.0898 7.8398 12.531 11.199 19.039 2.4492 4.6914 7.8398 13.02 7 18.551l-0.91016 5.6016c-0.76953 4.3398-4.2695 6.4414-7.4219 9.3086-4.1406 3.6172-8.0664 7.4727-11.758 11.551-5.6211 7.3867-10.652 15.203-15.051 23.379-0.69922 1.1914-3.0781 3.8516-2.8711 5.25 0.21094 1.3984 3.5 3.4297 4.9688 4.6211 2.8359 2.6133 5.9062 4.957 9.1719 7 5.2656 3.3359 11.523 4.7461 17.711 3.9883 8.6094-1.3984 13.512-8.3281 21-11.48l8.2617-3.5703h-0.003906c1.2773-0.54297 2.5195-1.1758 3.7109-1.8867 5.2305-2.9727 11.641-2.9727 16.871 0 4.6914 2.9414 9.6602 5.3203 14.488 7.9805v-0.003906c8.9648 4.9766 17.41 10.84 25.199 17.5 2.2188 2.1602 4.7422 3.9766 7.4922 5.3906 5.1992 1.2617 10.621 1.2617 15.82 0 7.0859-1.5625 14.465-1.1758 21.348 1.1211 0.44141 0.17969 0.82422 0.46875 1.1211 0.83984 0.28516 0.46094 0.43359 0.99609 0.42188 1.5391 0.42188 5.4609 0 11.059 1.0508 16.52h-0.003907c1.1094 5.4297 2.8945 10.699 5.3203 15.684 0.83984 2.1016 7 4.2695 9.1719 5.4609 4.6914 2.9414 9.1719 6.4414 14 9.6602v-0.003907c0.46094 0.3125 0.95312 0.57031 1.4688 0.76953 0.76172 0.17578 1.5508 0.17578 2.3125 0 3.207-0.75781 6.5859-0.066406 9.2383 1.8906l10.5 11.48c0.46875 0.41016 0.80859 0.94141 0.98047 1.5391h0.48828l12.738 8.8203 11.828 5.1094h0.003906c4.1484 1.125 8.1094 2.8477 11.762 5.1133 3.9219 3.7109 1.3984 10.57 1.3281 15.609-0.070312 5.0391-1.2617 6.1602 2.8711 7 7.5586 2.2383 6.4414-2.7305 13.371 2.4492l2.4492 1.8203c5.0469-6.707 11.172-12.527 18.129-17.219 0.91016-0.67969 1.9297-1.1992 3.0117-1.543 1.4336-0.24609 2.9023-0.24609 4.3398 0 3.875 0.73047 7.875 0.39062 11.574-0.97656 3.6992-1.3672 6.957-3.7148 9.4258-6.793 4.7617-4.6211 9.1016-9.8008 13.578-14.77 1.6797-1.8203 4.7617-7 7-7.9102 4.2695-1.6094 9.1016 2.9414 14 2.6602 6.0234-1.0391 11.824-3.0977 17.152-6.0898 17.219-9.0312 30.238-30.66 42.629-45.078 11.129-12.879 28-0.48828 41.578-2.5898 8.2617-1.332 9.3828-8.332 15.684-12.953 5.1094-3.5 29.262-5.0391 30.238-9.1719 1.5391-6.3711-1.5391-9.0312 5.4609-13.578 7-4.5508 17.078-4.5508 23.102-8.5391 10.148-7 27.512-14 31.922-25.969h-0.003906c1.7734-5.0039 2.207-10.387 1.2578-15.609-1.5391-5.4609-7-7-4.7617-12.602 2.2383-5.6016 8.2617-8.1914 11.898-12.039 3.6445-3.8516 11.625-11.27 12.465-16.52s-2.8711-9.0312-4.5508-13.301c-1.9219-5.4922-3.125-11.211-3.5703-17.012-1.2617-11.129-1.8203-14.559-3.5703-25.621l-3.2891 1.3984c-4.4805 12.109-8.1914 14-21 18.34v0.003906c-7.8242 2.1953-15.977 3-24.078 2.3789l-42-0.69922-21.629-0.42188h-18.828l-0.003906 0.003906c-0.40234 0.019531-0.80078-0.10547-1.1211-0.35156-0.14062-0.35937-0.14062-0.76172 0-1.1211 0.11328-9.7812-2.2969-19.422-7-28-5.3984-9.4336-12.301-17.922-20.438-25.129-15.609-14-34.02-26.391-45.012-44.449-4.9688-8.1211-10.012-18.41-19.461-18.969s-19.32 9.6602-27.23 4.4102v-0.003906c-2.7344-2.2148-4.7148-5.2227-5.668-8.6094l-28.98-75.527c-11.895-1.5-23.047-6.6016-31.953-14.625-8.9102-8.0195-15.152-18.574-17.887-30.246l-10.781-1.8203c-4.6211-0.76953-9.4492-1.1914-14-2.3086-4.7344-1.2812-9.1953-3.4141-13.16-6.3008l-7-4.8281v-0.003907c-2.5898-2.0977-5.3516-3.9688-8.2578-5.5977z"/>
</svg>
