<svg xmlns="http://www.w3.org/2000/svg" viewBox="0 0 100 100"><g id="Baara"><path d="M14.82,38.35c.25-.21.63,0,1,.14a2.56,2.56,0,0,0,1.23.09c.59-.07,1.59-.24,1.8-.9.16-.5-.44-.82-.51-1.28-.15-1,1.38-1.08,2.05-1.15A12.84,12.84,0,0,1,22.13,35a2.9,2.9,0,0,1,1.5.56,4.11,4.11,0,0,1,.85,1.09,2,2,0,0,0,1.05.83,2.07,2.07,0,0,0,1.41,0c.33-.19.49-.67.91-.68a1.18,1.18,0,0,1,.57.22c.22.12.47.1.67.22s.29.34.55.39a1.35,1.35,0,0,0,.6,0,2.07,2.07,0,0,1,1.53,0c.44.22.82.55,1.27.76a1.8,1.8,0,0,0,1.57,0,2.42,2.42,0,0,1,1.16-.11c.45,0,.67-.24.57-.68-.07-.28-.19-.62.18-.75s1,.37,1.17.74.34,1.19.79.61c.21-.27.08-1.14.6-1.08.36,0,.51.62.71.87.37.45.89.33,1.35.09a3.23,3.23,0,0,1,.59-.29,3.07,3.07,0,0,0,.79-.27,4.81,4.81,0,0,1,.93-.61c.35-.12.56.07.48.43s-.1.4.16.48a2.51,2.51,0,0,0,.82,0,1.42,1.42,0,0,1,1.31.54,1.17,1.17,0,0,0,1.38.17c.32-.13.71-.37,1.07-.27.53.14.11.74.34,1.06s.72.16,1,.41,0,.69.1,1,.75.38,1.11.42a1.85,1.85,0,0,0,1.41-.26c.76-.59.68-1.78,1.48-2.36.35-.25.78-.33,1,.08s.31.64.79.44a.82.82,0,0,1,.59-.12c.25.07.43.26.66.34.55.22,1.14-.08,1.69-.17a1.58,1.58,0,0,1,1.37.51,8.06,8.06,0,0,1,.64.52,9.47,9.47,0,0,0,.73.69c.16.12.64.45.84.25s-.07-.37-.07-.55.24-.22.4-.13c.35.19.65.74,1,.29.12-.13.19-.31.35-.4a1.09,1.09,0,0,1,.9.09,2.67,2.67,0,0,1,1.08.86,6.67,6.67,0,0,0,1,1.3c.41.33.9.54,1.3.87s.69.76,1.19.89.8-.2,1.23-.3,1,.29,1.52.53c.28.15.71.35,1,.18s.05-.76.18-1.11.53-.06.68.18.6.65.86.21c.11-.19.1-.43.22-.62a1.32,1.32,0,0,1,.56-.43,1.21,1.21,0,0,1,1.29,0c.21.15.32.33.61.3s.42-.14.65-.15a3.6,3.6,0,0,1,.8.12,4.19,4.19,0,0,1,.94.15c.5.19.63.75,1.09,1a1.78,1.78,0,0,0,1.36.08,2,2,0,0,0,.68-.38,1.2,1.2,0,0,1,.54-.32.42.42,0,0,1,.46.25c.18.28.28.43.65.4a14.21,14.21,0,0,0,1.6-.16,1.5,1.5,0,0,1,.73,0c.25.09.41.31.64.43.49.24,1.07,0,1.57.22s.66.68,1.07,1a4.22,4.22,0,0,0,1,.43,1.86,1.86,0,0,0,.87.18.23.23,0,0,0,.22-.18c0-.19-.18-.29-.18-.47,0-.45.83-.18,1-.06.35.21.13.57,0,.82A1.85,1.85,0,0,0,93,47.87a1.93,1.93,0,0,0,.23.62c.14.25.16.34,0,.57a15.06,15.06,0,0,0-.7,1.46c-.26.43-.41.92-.7,1.33s-.81.78-1.15,1.22a6,6,0,0,0-1,3.18c0,.39-.09.85-.46,1.06s-1.15.13-1.63.18-1.18.24-1.76.35a7.91,7.91,0,0,0-1.65.45c-.41.17-.84.32-1.23.53a1.63,1.63,0,0,0-.49.37c-.18.22-.1.44-.21.67-.43.81-1.86-1.08-2.46-.72-.19.12-.22.38-.43.49a.78.78,0,0,1-.58,0,10.13,10.13,0,0,0-1.89-.34,8.37,8.37,0,0,0-1.66,0,5.09,5.09,0,0,0-.77.19,2.81,2.81,0,0,1-1,0c-.43,0-.54.17-.62.55,0,.2-.1.4-.14.6a2.54,2.54,0,0,1-.23.9c-.28.4-.74.25-1.12.11-.53-.18-1.08-.15-1.62-.3s-1-.46-1.49-.6a7.4,7.4,0,0,0-2-.28,6.14,6.14,0,0,0-1.47.27,16.53,16.53,0,0,1-2,.17,3.18,3.18,0,0,0-2.56,1.66,1.43,1.43,0,0,0-.09.79c0,.25.19.46.23.7.09.49-.27.66-.69.73a7.7,7.7,0,0,1-3.41-.09,9.94,9.94,0,0,1-1.66-.59,3.34,3.34,0,0,1-1.42-1c-.55-.73-.38-2.06-1.38-2.41a4.39,4.39,0,0,0-1.77-.06,3.17,3.17,0,0,0-1.65.45c-.43.29-.76.72-1.2,1a2,2,0,0,1-1.51.22,5.06,5.06,0,0,0-.87-.12c-.26,0-.53,0-.79,0a4.65,4.65,0,0,1-1.67-.63,12.85,12.85,0,0,0-1.58-.55c-.58-.19-1.16-.41-1.75-.55l-.89-.18c-.26-.07-.51-.17-.77-.23-.52-.11-1,.32-1.52.13-.21-.08-.35-.27-.56-.36a1.15,1.15,0,0,0-.61,0,10.41,10.41,0,0,1-2,.09c-.62,0-1.22.06-1.84.09a3.1,3.1,0,0,1-1.49-.37c-.81-.41-1.75-1.28-2.7-1a2.69,2.69,0,0,1-.67.19,1.94,1.94,0,0,1-.79-.18A10.79,10.79,0,0,0,23.82,58a1.5,1.5,0,0,0-1.4.48c-.33.29-.66.91-1.18.62-.37-.21-.52-.69-.74-1a1.84,1.84,0,0,0-1.15-.74,3.4,3.4,0,0,1-1.28-.81c-.43-.39-.82-.78-1.44-.58a2.51,2.51,0,0,1-1.51.09,1.66,1.66,0,0,1-.59-.27c-.21-.15-.34-.38-.54-.54-.45-.34-.9.08-1.38.11-.27,0-.53,0-.79,0a5.59,5.59,0,0,0-.82.26c-.8.17-.45-1.2-.39-1.58.17-1.19-1.1-1.59-1.93-2.08a3.61,3.61,0,0,1-.56-.27A1.28,1.28,0,0,1,7.78,51a1.78,1.78,0,0,0-.84-1c-.15-.09-.63-.3-.51-.56s.38-.17.53-.22c.31-.11.6-.28.91-.38a4.48,4.48,0,0,1,1.71-.09c.64,0,1.29.09,1.92.18.45.07,1,.16,1.22-.34s.11-.86.44-1.22c.68-.75,1.82-.91,2.54-1.64a11.53,11.53,0,0,0,.94-1.24,3.15,3.15,0,0,1,.41-.48c.11-.11.39-.29.25-.45s-.65-.05-.87-.1a2.16,2.16,0,0,1-1.33-.89,4.36,4.36,0,0,1-.4-1.33,1.35,1.35,0,0,0-.73-.82c-.18-.09-.5-.16-.59-.37s.11-.34.27-.44a6.44,6.44,0,0,0,.63-.36,1.25,1.25,0,0,0,.38-.63A.62.62,0,0,1,14.82,38.35Z"/></g></svg>