<?xml version="1.0" encoding="UTF-8"?>
<svg width="700pt" height="700pt" version="1.1" viewBox="0 0 700 700" xmlns="http://www.w3.org/2000/svg">
 <path d="m587.37 87.988c-0.09375 0.71094-0.58203 1.3086-1.2617 1.543-2.4492 1.0508-5.1094 1.1914-7.5586 2.1016-2.4492 0.91016-6.0898 2.3789-9.1719 3.4297v-0.003906c-0.30078 0.12109-0.58594 0.28906-0.83984 0.49219-0.37891 0.32031-0.62891 0.76953-0.69922 1.2578-3.0938 7.8594-5.4375 15.992-7 24.293-0.34766 6.707-0.066406 13.434 0.83984 20.09-0.066407 0.50781-0.066407 1.0273 0 1.5391 0.23828 0.55078 0.54297 1.0664 0.91016 1.5391l8.3281 11.34h0.003906c0.57422 0.76562 1.1133 1.5586 1.6094 2.3789 1.1484 2.5195 1.9492 5.1797 2.3789 7.9102 0.55859 2.3086 1.8906 4.4102 0.76953 7-1.8633 5.1641-4.3555 10.078-7.418 14.633-2.5898 2.8711-7.4883 4.2695-8.5391 8.3984h-0.003906c-0.3125 3.1172-0.3125 6.2617 0 9.3789 0.042969 3.25-0.59766 6.4688-1.8906 9.4531-0.69922 1.6094-1.75 3.0117-2.4492 4.6211v-0.003906c-0.71484 1.7344-1.2305 3.543-1.5391 5.3906-1.0234 5.3594-1.6328 10.789-1.8203 16.242 0.3125 4.5859-0.23438 9.1914-1.6094 13.578-2.0312 4.6914-5.1094 8.75-7 13.441-0.79688 1.9102-1.2461 3.9492-1.332 6.0195l-1.4688 18.621c-0.76953 8.9609-1.4688 17.922-2.1719 26.879-0.91016 11.762-3.6406 22.891-5.25 34.441-0.48828 3.1484-6.0898 4.6211-8.6094 5.8789-2.5195 1.2617-3.3594 3.4297-4.0586 7-0.69922 3.5703-1.3281 7-2.2383 10.359-0.55859 2.3086-3.1484 5.4609-1.8906 7.7695v1.5391l-14 5.25c-4.8281 1.75-2.8008-4.0586-6.3711-4.7617-1.5391 0-5.6016 2.2383-7 2.7305v0.003907c-4.5352 1.5625-9.4648 1.5625-14 0-2.1719-0.83984-5.9492-3.7109-8.3281-1.8906-2.3789 1.8203-3.0781 8.3281-8.1211 10.148-5.0391 1.8203-9.3086-1.0508-12.879 2.3789-10.781 10.289-24.148 17.711-33.809 29.262h-0.003906c-3.6172 4.293-7.9805 7.8984-12.879 10.641-6.0195 3.5-12.109 7-17.922 10.711-3.8828 3.1211-7.9766 5.9727-12.25 8.5391-5.25 2.3789-10.148 3.2891-13.23 8.3984-3.0781 5.1094-3.6406 9.5195-8.1211 11.969-4.4805 2.4492-5.6016-2.4492-7.3516-5.5312l0.003906 0.003906c-1.2891-3.3672-3.7852-6.1367-7-7.7695-4.4805-1.6797-16.172-4.4102-18.691 1.75-0.98047 2.4492-1.8906 4.8984-3.0781 7-2.2695 4.7031-5.8086 8.6797-10.219 11.48-5.1367 2.457-9.5117 6.2539-12.672 10.988-1.5391 2.6602-1.6797 6.0898-4.0586 8.2617-2.3789 2.1719-4.4805 0.62891-6.5117 1.1914v-0.003907c-4.2266 1.582-7.8164 4.5078-10.219 8.332-0.62109 0.74609-1.1836 1.543-1.6797 2.3789-2.8984 5.8359-3.5938 12.523-1.9609 18.828 2.1719 4.4805 8.5391 6.3711 12.461 8.75 2.1719 1.2617 9.5898 4.1992 9.6602 7 0.070313 2.8008-4.4805 4.6914-4.5508 7.9805 0 1.2617 1.8203 1.8203 0 3.1484v0.003907c-1.7266 0.86719-3.3125 2-4.6875 3.3594-0.33594 0.60156-0.52734 1.2734-0.5625 1.9609l-2.1016 15.539h0.003907c-0.16016 5.3516-1.9961 10.52-5.25 14.77-7.4609 6.1953-15.875 11.137-24.922 14.629-4.6484 1.9023-9.5156 3.2188-14.488 3.9219-1.5391 0-3.2188 0.42188-4.8281 0.55859h-11.551c-4.6914 0-9.3086 0-14-0.55859-3.2188 0-6.5117-0.55859-9.8008-0.55859h-4.3398c-1.1211 0-1.4688-0.62891-1.8906-1.6797-0.42188-1.0508-0.69922-2.5898-1.2617-3.7812-0.98828-2.1719-2.1562-4.2578-3.5-6.2305-2.9102-3.2578-6.4609-5.8789-10.43-7.6992-2.6602-1.5391-7-4.9688-10.43-3.7812-5.8242 3.3164-12.5 4.8242-19.18 4.3398-3.2891-0.91016-1.2617-6.3711-0.35156-8.6094 1.9609-4.7617 3.7109-9.4492 5.3906-14 0.058593-0.30078 0.058593-0.60938 0-0.91016 0.027343-0.46875-0.097657-0.93359-0.35156-1.332-4.1133-7.6289-6.2305-16.18-6.1562-24.848 1.6562-6.0859 2.6875-12.324 3.0781-18.621-0.48828-3.0781-9.8008-5.8086-12.809-7-4.3438-1.5898-8.5352-3.5547-12.531-5.8789-2.6836-3.2773-2.6836-7.9922 0-11.27l24.57-22.191 5.1797-5.7383c0.91016-0.91016 5.3906-4.4102 5.3906-5.6016 0.41016-0.375 0.69922-0.86328 0.83984-1.3984 0.054687-0.67969-0.14453-1.3516-0.5625-1.8906-4.5508-8.6797 1.1914-16.379 6.6484-22.82h0.003907c6.5273-6.7344 12.43-14.043 17.641-21.84 1.1914-2.1016 2.1016-4.4102 3.3594-6.5781v-0.003906c1.3711-2.3047 2.9141-4.5039 4.6211-6.5781l11.059-14c2.3789-3.0117 5.8086-9.7305 9.8711-10.641h7.4922-0.003907c3.6758-0.40234 7.1914-1.7266 10.219-3.8516 2.9414-1.5391 7-2.3086 8.75-5.1094 1.4922-2.707 2.5312-5.6367 3.082-8.6797-0.027343-0.27734-0.027343-0.55859 0-0.83984 0.28516-0.25391 0.61719-0.44141 0.98047-0.55859 7.7656-3.4844 15.82-6.2695 24.078-8.332l10.641-2.3789c1.7969-0.10938 3.5664-0.48438 5.25-1.1211l7.6992-6.2305c1.4922-1 2.8945-2.125 4.2031-3.3594 1.7812-2.668 2.9336-5.707 3.3594-8.8906 0.92188-5.8359 1.4609-11.73 1.6094-17.637 0-1.4688 0-5.1094 1.0508-6.0898 1.0508-0.98047 5.0391-0.83984 6.3711-1.0508h-0.003906c3.1875-0.19141 6.3398-0.77734 9.3828-1.75 0.64453-0.41016 1.2344-0.90234 1.75-1.4727l4.1289-4.1289c2.5195-2.5195 6.2305-5.5312 7-9.2383 0.69141-3.2422 0.99609-6.5586 0.91016-9.8711l-7.6289-5.7383c-4.4102-3.4297-2.8711-13.301-8.75-15.191-6.1445-1.6055-12.07-3.957-17.641-7-5.3906-3.2891-9.5898-8.0508-14.629-11.828-1.2617-0.91016-7.7695-4.1992-7.7695-5.8789l-0.003906-0.003907c1.7969-5.6055 4.1406-11.023 7-16.168 1.3984-2.3789 4.1289-2.4492 6.5781-3.0781h14l0.003906-0.003907c0.34766-0.066406 0.70312-0.066406 1.0508 0 0.42969 0.19141 0.8125 0.48047 1.1172 0.83984 1.9609 1.8906 4.6914 5.8789 7 7 3.5977 0.56641 7.2578 0.56641 10.852 0 7.2578-0.15234 14.516 0.29297 21.699 1.332 7.3516 1.1914 14.629 3.2188 21.98 4.3398 6.0898 0.91016 11.969-3.0117 17.988-3.6406 3.0781 0.21484 6.1641-0.26172 9.0312-1.4023 0.91016-0.55859 1.5391-1.3984 2.4492-2.0312v0.003907c2.418-1.1719 4.9844-1.9961 7.6328-2.4492 1.9609-0.62891 4.3398-2.3086 6.5117-1.8203h-0.003906c0.84375 0.25391 1.6641 0.58203 2.4492 0.98047 2.7305 1.2617 6.1602 0.76953 8.5391 2.4492 2.3789 1.6797 3.1484 4.1992 5.4609 3.5 2.3086-0.69922 3.0781-2.6602 4.5508-3.4297 2.1016-0.875 4.3984-1.168 6.6523-0.83984h12.32l24.5 0.48828c5.1016 0.28125 10.219 0 15.258-0.83984 7.7969-1.8984 14.754-6.3008 19.809-12.531 6.0625-6.4648 11.699-13.316 16.871-20.508 4.1602-5.5625 9.0586-10.531 14.562-14.77 2.1836-1.9688 3.6602-4.6016 4.1992-7.4922 0.98047-4.4102 4.4805-7 5.7383-11.48 0.57422-3.9609 0.80859-7.9648 0.69922-11.969 0.48438-5.6562 1.7578-11.215 3.7812-16.52 3.4922-7.5508 6.5078-15.312 9.0312-23.242 0.66797-4.6602 2.5273-9.0703 5.3906-12.809l6.6484-6.5781c5.4414-3.7148 11.672-6.1094 18.199-7l2.7305 6.1602c0.14844 0.30469 0.24609 0.63672 0.28125 0.97656z"/>
</svg>
