<svg xmlns="http://www.w3.org/2000/svg" viewBox="0 0 100 100"><g id="Baara"><path d="M30.92,29.19a1.35,1.35,0,0,1,0-.33,1.92,1.92,0,0,0-.08-.92,8.08,8.08,0,0,0-.2-.85,5.5,5.5,0,0,0-.25-.88,5.27,5.27,0,0,0-1.14-1.4c-.39-.41-.72-.86-1.09-1.29a4.48,4.48,0,0,0-1.4-.9,1.79,1.79,0,0,1-.63-.53,8,8,0,0,0-.57-.73,3.22,3.22,0,0,0-.66-.42c-.25-.13-.51,0-.74-.19a.83.83,0,0,1-.38-.55c-.06-.3-.07-.6-.11-.9-.09-.64-.22-1.27-.31-1.91a4.77,4.77,0,0,1,0-1.92c.07-.28.16-.55.24-.82a3.25,3.25,0,0,1,.2-.74c.3-.51.88-.61,1.39-.83a7,7,0,0,0,1.53-1c.46-.36,1-.59,1.44-.94a2.32,2.32,0,0,1,1.69-.3,5.22,5.22,0,0,1,.69,0,4.94,4.94,0,0,1,.84.39,1.84,1.84,0,0,0,.68.2,6.5,6.5,0,0,0,1-.06,6,6,0,0,1,.84-.11,1.42,1.42,0,0,1,.79.11,1.84,1.84,0,0,1,.41.51,4.59,4.59,0,0,0,.54.71c.21.22.4.44.62.65a7.59,7.59,0,0,1,.66.6c.22.25.4.52.61.77a7.83,7.83,0,0,1,.59.83,7.15,7.15,0,0,0,.42.77l.52.77a3.68,3.68,0,0,0,1.29,1.22,4.36,4.36,0,0,0,1.68.7.89.89,0,0,0,.67-.15,5.44,5.44,0,0,0,.83-.51,4.62,4.62,0,0,0,1.12-1.4,7.77,7.77,0,0,0,.48-.78c.13-.25.33-.48.44-.74a7.71,7.71,0,0,1,.3-.8,8.86,8.86,0,0,0,.44-.87c.22-.55.37-1.14.63-1.68s.45-1.16.69-1.73a4.58,4.58,0,0,1,.89-1.6A3.71,3.71,0,0,1,50,7.78a2.06,2.06,0,0,1,1.52-.07,1.37,1.37,0,0,0-.2.46,1.54,1.54,0,0,0,.06.6,2.46,2.46,0,0,0,.77,1.11,5.53,5.53,0,0,1,.87,1,3.62,3.62,0,0,0,1.11.95c.42.23.84.43,1.24.68a3.66,3.66,0,0,1,1.16.86A2,2,0,0,1,57,14.64v.69c0,.14,0,.27,0,.41a3.12,3.12,0,0,0-.06.41c0,.16.17.24.28.35s.39.36.57.55a11.71,11.71,0,0,0,1,1.08,2.36,2.36,0,0,1,.58,1c.08.2.18.39.27.58s.2.34.06.57a.86.86,0,0,0-.17.46,1.59,1.59,0,0,0,.1.57,2.64,2.64,0,0,0,.89.93c.38.32.75.66,1.14,1s.72.7,1.1,1.06c.18.18.38.35.56.54s.37.27.54.44a10.1,10.1,0,0,0,1.29,1.06,1.81,1.81,0,0,0,.59.29,4.17,4.17,0,0,1,.85.19,1.87,1.87,0,0,1,.47.42,1.1,1.1,0,0,1,.2.23,1.42,1.42,0,0,0,.08.18.49.49,0,0,1,.13.12,2.48,2.48,0,0,1-.59.52l-.69.53A10.46,10.46,0,0,0,65,29.88c-.07.07-.24.19-.25.29s.11.19.15.26a1.11,1.11,0,0,0,.53.4c.52.22,1,.47,1.55.65.35.12.7.4.53.8a7.46,7.46,0,0,1-.78,1.3,1.09,1.09,0,0,0-.25.64,2.72,2.72,0,0,0,.11.38,2.47,2.47,0,0,0,.14.41.72.72,0,0,0,.46.2l.75.14a12.13,12.13,0,0,1,1.67.36c.58.17,1.17.35,1.76.5s1,.36,1.48.44a6.32,6.32,0,0,0,.75.06,2.67,2.67,0,0,1,.4,0,2,2,0,0,1,.35.11,5.76,5.76,0,0,0,.82.11l.82.15a4.72,4.72,0,0,1,1.3.52c.14.07.24.07.26.24s0,.45,0,.67a2.52,2.52,0,0,1-.6,1.29,16.67,16.67,0,0,1-2.24,2.12,6.35,6.35,0,0,1-1.15,1,3.87,3.87,0,0,0-.55.43l-.26.24c-.1.09-.28.18-.34.29s.17.48.24.64a4.12,4.12,0,0,1,.18,2.36,5.51,5.51,0,0,1-.38.67c-.12.22-.2.46-.33.67a6.37,6.37,0,0,1-1.06,1.08,4.87,4.87,0,0,1-1.27.94,1.72,1.72,0,0,1-1.34.32A5.74,5.74,0,0,1,67,49.87c-.28-.19-.67-.6-1-.39a2,2,0,0,0-.55.56,7.38,7.38,0,0,0-.41.72,8.53,8.53,0,0,1-.87,1.2,2.15,2.15,0,0,0-.52,1.38,3.68,3.68,0,0,0,.49,1.51c.24.39.73.69.86,1.14.08.25.07.33-.13.49s-.37.11-.62,0a1.93,1.93,0,0,0-1.49.14,5,5,0,0,0-1.14,1,4.4,4.4,0,0,0-.86,1.26,7,7,0,0,0-.33,1.37c-.09.43-.47.48-.85.51a5.11,5.11,0,0,0-1.45.34,5.26,5.26,0,0,0-1.47.76,3,3,0,0,1-.46.42,5.35,5.35,0,0,1-.73.34,6.8,6.8,0,0,0-1.37.88,3.6,3.6,0,0,0-1,1,3,3,0,0,0-.47,1.44A1.38,1.38,0,0,0,53,67.15c.19.14.38.3.58.44a3,3,0,0,1,.64.49,2.9,2.9,0,0,0,1.17.88,3.87,3.87,0,0,0,.67.1l.88.14a2.66,2.66,0,0,1,1.32.6,2.23,2.23,0,0,1,.46.46,1.78,1.78,0,0,1,.18.72,1.29,1.29,0,0,1-.63,1.08c-.41.3-.83.59-1.25.87l-.64.46a4.87,4.87,0,0,1-.73.53,4.47,4.47,0,0,1-1.51.45,2.73,2.73,0,0,0-1.34.37c-.39.29-.31.82-.27,1.25a3.76,3.76,0,0,0,.14.73c.07.21.27.37.38.58.19.36.3,1,.68,1.18a3.48,3.48,0,0,0,1,.25c.19,0,.66.11.61.38s-.26.32-.36.43a3,3,0,0,1-.59.48,17.64,17.64,0,0,0-2.6,2c-.17.18-.35.36-.52.56a1.68,1.68,0,0,0-.32.69,4.8,4.8,0,0,0-.24,1.64,6.26,6.26,0,0,0,.1.87,2.44,2.44,0,0,1,.14.79c0,.14,0,.21-.16.26s-.27.07-.4.11a7.85,7.85,0,0,0-.8.32,4.94,4.94,0,0,0-1.31.73c-.34.29-.52.76-.88,1a1.43,1.43,0,0,1-.57.16,4,4,0,0,1-.68.12,2.88,2.88,0,0,1-.64-.17,2.85,2.85,0,0,0-.77,0c-.27,0-.54,0-.81.07a3.72,3.72,0,0,1-.88.11c-.27,0-.53-.06-.8-.09s-.53,0-.79,0a1.4,1.4,0,0,0-1.12.48,7,7,0,0,0-.6,1.31c-.11.23-.24.43-.36.64s-.2.66-.36.67a1,1,0,0,1-.38-.13,2.92,2.92,0,0,1-.36-.17c-.24-.13-.45-.29-.68-.44a7.87,7.87,0,0,0-1.48-.87,5.34,5.34,0,0,1-.7-.27c-.25-.12-.49-.26-.74-.37-.45-.2-.91-.39-1.37-.57a1.1,1.1,0,0,0-.67,0,2.35,2.35,0,0,0-.35.11,2.43,2.43,0,0,1-.37.16c-.06-.07-.06-.16-.11-.23a3.45,3.45,0,0,0-.28-.26,4.77,4.77,0,0,0-.65-.62,3.12,3.12,0,0,1-.54-.55c-.19-.23-.45-.29-.68-.46s-.41-.22-.61-.34-.28-.34-.43-.54a1,1,0,0,0-.59-.35,2,2,0,0,1-.34,0,1,1,0,0,1-.33-.28,7.55,7.55,0,0,0-.54-.59,1.5,1.5,0,0,0-.72-.34,8.72,8.72,0,0,0-1.77-.08,3.54,3.54,0,0,1-.84-.2,2,2,0,0,1-.62-.26c-.19-.14-.12-.34-.13-.55s-.1-.67-.14-1a5.92,5.92,0,0,1-.12-.93,4.09,4.09,0,0,1,.28-1.08A6.51,6.51,0,0,0,23,79.36a2.09,2.09,0,0,1,.23-.81,1.51,1.51,0,0,1,.63-.54,4.89,4.89,0,0,0,.64-.45,3.25,3.25,0,0,0,.5-.67,2.29,2.29,0,0,1,.48-.55c.23-.17.43-.39.67-.54.49-.33,1.16-.08,1.64-.4a2.43,2.43,0,0,0,.58-.41c.17-.23.25-.51.41-.75.33-.51.7-1,1-1.53a10.91,10.91,0,0,0,.82-1.64c.12-.27.26-.52.38-.79s.23-.59.4-.86c.65-1.11,1.89-1.54,2.94-2.17a16.51,16.51,0,0,0,1.52-1.12A5.53,5.53,0,0,0,37,64.75a5.23,5.23,0,0,0,1-1.39,4.15,4.15,0,0,0,.2-.77,7.22,7.22,0,0,0,0-.93,3.34,3.34,0,0,0-.17-.89,1.71,1.71,0,0,1,.09-.87,11.27,11.27,0,0,1,.45-1.73c.11-.23.29-.42.4-.66a2.72,2.72,0,0,0,.25-.84c.08-.58-.1-1.17,0-1.75a4.25,4.25,0,0,1,.93-1.55,9.33,9.33,0,0,1,1.31-1.28,17.33,17.33,0,0,1,2.78-2.27l.63-.36c.22-.12.23-.18.23-.43a1.51,1.51,0,0,1,.15-.69A1.89,1.89,0,0,0,45.5,48c.06-.16.07-.34.13-.51a3.13,3.13,0,0,0,.28-1.7,3.77,3.77,0,0,0-.69-1.72,4.65,4.65,0,0,0-1.43-.91,5.8,5.8,0,0,1-.62-.27c-.25-.17-.41-.44-.67-.61a1.66,1.66,0,0,0-.88-.2c-.33,0-.68,0-1-.07-.63-.07-.93-.54-1.39-.91a5.18,5.18,0,0,0-1.55-1,17.93,17.93,0,0,1-1.75-.58l-.77-.35a2.67,2.67,0,0,1-.73-.57L33.76,38a5.85,5.85,0,0,1-.55-.68A1.86,1.86,0,0,1,33,37c-.06-.12-.08-.25-.13-.37-.11-.28-.27-.53-.38-.81s-.11-.58-.23-.85-.3-.57-.46-.86a2.09,2.09,0,0,1-.16-.74,2.56,2.56,0,0,1,.11-.91,1.34,1.34,0,0,0,0-.74c-.08-.26-.33-.41-.49-.61-.39-.46-.2-1-.32-1.53A1.49,1.49,0,0,1,30.92,29.19Z"/></g></svg>