<svg id="Parsa" xmlns="http://www.w3.org/2000/svg" viewBox="0 0 100 100"><path d="M49.23,15.82a2.28,2.28,0,0,1,.49-.63,2.74,2.74,0,0,1,.7-.41,3.15,3.15,0,0,1,1.76-.27c.33.07.64.2,1,.29l.95.29c.31.1.63.21,1,.29a5.57,5.57,0,0,0,1,.11c.69,0,1.38-.14,2.07-.15a6.85,6.85,0,0,1,1,.06,6.51,6.51,0,0,0,1,.09,4,4,0,0,1,1,0,1.14,1.14,0,0,1,.72.45,3.21,3.21,0,0,0,.56.66,3.67,3.67,0,0,1,.65.53,2.94,2.94,0,0,1,.4.74,1.08,1.08,0,0,0,.52.61,2,2,0,0,0,.92.11c.34,0,.67-.08,1-.13a2.87,2.87,0,0,1,1,0,3.14,3.14,0,0,1,.89.36c.26.14.52.29.79.42a7.89,7.89,0,0,1,.74.43,2.44,2.44,0,0,1,.62.62c.16.25.27.52.42.78a1.17,1.17,0,0,0,.62.54,2.64,2.64,0,0,0,.89.08,4.43,4.43,0,0,1,1.92.14,11.58,11.58,0,0,1,1.51,1.09,3.88,3.88,0,0,0,.86.38,8.65,8.65,0,0,1,.87.25,1,1,0,0,1,.53.5c.09.21.12.43.2.64a.83.83,0,0,0,.4.5,1.79,1.79,0,0,0,.83.06,2.44,2.44,0,0,1,.93.17,5.12,5.12,0,0,1,.8.44,9.09,9.09,0,0,0,.78.48,4.62,4.62,0,0,0,.87.34c.62.17,1.27.22,1.88.41.31.1.6.27.91.38a.83.83,0,0,0,.75,0c.19-.13.25-.45.49-.52s.18.46.16.61c0,.33,0,.65,0,1a1.71,1.71,0,0,1-.33.83c-.34.45-.86.79-1.08,1.33a.94.94,0,0,0,0,.77,2.54,2.54,0,0,0,.56.62,2.3,2.3,0,0,1,.55.69,3.19,3.19,0,0,1,.27.86c0,.29.1.59.18.88s.21.65.33,1c.23.64.44,1.29.68,1.94a16.09,16.09,0,0,0,.81,1.86c.29.57.65,1.09.94,1.65a4.61,4.61,0,0,1,.36.86,2.79,2.79,0,0,1,.09,1,5.78,5.78,0,0,1-.16,1,5.87,5.87,0,0,1-.28.93c-.12.31-.27.6-.39.91a7.89,7.89,0,0,0-.3.94c-.08.33-.13.66-.21,1a4.63,4.63,0,0,0-.25.88,3.48,3.48,0,0,0,.15,1c.07.32.16.64.21,1a1.39,1.39,0,0,1-.09.88,4.29,4.29,0,0,1-.4.55,1.37,1.37,0,0,0-.34.58.75.75,0,0,0,.2.71.45.45,0,0,1,.16.32.71.71,0,0,1-.2.37,5.16,5.16,0,0,0-.51.8,11,11,0,0,0-.61,1.78c-.2.66-.43,1.3-.62,2a9.12,9.12,0,0,0-.36,1.93,4.86,4.86,0,0,0,.2,2,3.6,3.6,0,0,0,.44.82c.17.25.36.49.51.76a1.83,1.83,0,0,1,.28.81,1.25,1.25,0,0,1-.2.78,2.39,2.39,0,0,1-1.28.92,2.33,2.33,0,0,0-.76.41,1.54,1.54,0,0,0-.38.71,7,7,0,0,0-.11.92,5.07,5.07,0,0,1-.14.95,2.9,2.9,0,0,1-1,1.47,1.77,1.77,0,0,1-.8.42c-.27,0-.56-.06-.78.16a1,1,0,0,0-.17.29l-.21.47c-.15.31-.31.61-.47.91-.66,1.19-1.38,2.35-2.07,3.53-.35.59-.69,1.19-1,1.79s-.62,1.16-1,1.72a3.58,3.58,0,0,1-.28.37,1.32,1.32,0,0,0-.24.29c-.12.32.4.34.59.33a3.56,3.56,0,0,0,1-.24,8,8,0,0,1,.94-.31c.34-.08.67-.13,1-.18l.51-.08c.09,0,.22,0,.29,0s0,.24,0,.34a2.57,2.57,0,0,0-.15.47c-.07.32-.12.64-.22,1a3.72,3.72,0,0,1-1.12,1.46,5.56,5.56,0,0,0-.64.74c-.2.27-.38.55-.58.82a8.25,8.25,0,0,1-1.41,1.36,5.3,5.3,0,0,0-.66.68,3.1,3.1,0,0,1-.47.55.68.68,0,0,1-.74,0,.83.83,0,0,0-.75,0,.76.76,0,0,0-.35.53c-.07.2-.18.39-.42.35a1,1,0,0,1-.36-.18,2.77,2.77,0,0,0-.37-.22c-.28-.14-.58-.25-.87-.38a1.14,1.14,0,0,1-.64-.54,1.47,1.47,0,0,1-.08-.88,6.64,6.64,0,0,0,.09-1c0-.15,0-.31,0-.46a1.5,1.5,0,0,0,0-.42.58.58,0,0,0-.49-.47,5.93,5.93,0,0,1-.84-.06c-.61-.19-.8-.89-1.12-1.36A2,2,0,0,0,67,81.79a4.39,4.39,0,0,0-1.86.34,5.31,5.31,0,0,0-.89.35.64.64,0,0,0-.28.26,1.37,1.37,0,0,0-.12.44,1.26,1.26,0,0,1-.15.45,3,3,0,0,0-.21.4c-.11.26-.08.58-.29.79-.41.44-1.07-.11-1.54.19a1.15,1.15,0,0,0-.41.64c-.07.18-.25.67-.52.5s-.19-.52-.19-.76a2.45,2.45,0,0,0-.22-1,3.44,3.44,0,0,0-1-1.32,1.5,1.5,0,0,0-.77-.37,1.69,1.69,0,0,0-.88.21,4.53,4.53,0,0,0-1.4,1.14c-.1.11-.2.24-.3.36a1.44,1.44,0,0,1-.32.33.79.79,0,0,1-.83-.1c-.62-.31-1.23-.65-1.84-1a4.23,4.23,0,0,0-.9-.39,3.48,3.48,0,0,0-1-.11,3.57,3.57,0,0,1-1,0,4.19,4.19,0,0,1-.82-.41,2.5,2.5,0,0,1-.72-.52,4.51,4.51,0,0,0-.53-.69A3.2,3.2,0,0,0,46.43,81a13.32,13.32,0,0,1-2-.49c-.61-.21-1.2-.46-1.81-.68l-1.87-.7A6.7,6.7,0,0,0,39,78.63c-.6-.07-1.72,0-1.71-.88a4,4,0,0,1,.23-.9,2,2,0,0,0,0-.95,5,5,0,0,1-.21-.93,2.09,2.09,0,0,1,.68-1.51,2.71,2.71,0,0,1,.71-.55c.28-.15.6-.23.89-.35a2,2,0,0,0,1.1-1.09c.11-.3.1-.63.22-.92a1.59,1.59,0,0,1,.49-.6,1.55,1.55,0,0,0,.57-.65,1.64,1.64,0,0,0,0-.88,1.14,1.14,0,0,1,0-.45,3.73,3.73,0,0,1,.14-.44,1.84,1.84,0,0,0,.06-.93,4.32,4.32,0,0,1-.09-1,2.62,2.62,0,0,1,.32-.9c.15-.3.31-.59.43-.89a4.39,4.39,0,0,0,.27-.94c.06-.32.09-.65.12-1a2.5,2.5,0,0,1,.19-.94c.1-.21.42-.45.33-.72s-.34-.21-.52-.22-.39,0-.44-.24a1.68,1.68,0,0,1,0-.44,1,1,0,0,0-.13-.43,1.08,1.08,0,0,1-.13-.43A1.1,1.1,0,0,1,42.6,58a4.43,4.43,0,0,0,.36-.84c.07-.32.1-.65.17-1s.15-.63.19-.95a7,7,0,0,0,0-1,2.61,2.61,0,0,1,.15-1,2.78,2.78,0,0,0,.26-.88c0-.15,0-.29,0-.44a1,1,0,0,1,.15-.46,2.39,2.39,0,0,0,.39-.74,2.76,2.76,0,0,0,0-1,4.24,4.24,0,0,0-.6-1.76c-.34-.56-.75-1.08-1.09-1.65L42,45.5c-.18-.28-.36-.56-.52-.85-.34-.58-.6-1.2-.9-1.79a16.53,16.53,0,0,0-1-1.68c-.38-.58-.75-1.17-1.1-1.76l-2.14-3.6L35.27,34a11.6,11.6,0,0,0-1-1.59,2.32,2.32,0,0,0-1.33-.9,3.12,3.12,0,0,0-1,0,4,4,0,0,1-1,0c-.33,0-.65-.12-1-.19s-.66-.14-1-.2a15,15,0,0,1-2-.5c-.64-.21-1.27-.46-1.93-.65a13.39,13.39,0,0,0-2-.36c-.7-.09-1.39-.16-2.09-.22a19.21,19.21,0,0,1-2-.27A14.53,14.53,0,0,0,17,28.72c-.35,0-.7,0-1,0a4.15,4.15,0,0,1-1-.13c-.66-.16-1.3-.38-2-.51-.34-.06-.68-.11-1-.14a2.64,2.64,0,0,0-.93,0,2,2,0,0,0-.4.17.5.5,0,0,1-.35.1.21.21,0,0,1-.14-.24.49.49,0,0,1,.19-.26,2.35,2.35,0,0,1,.71-.35,2.71,2.71,0,0,0,.76-.43,3.6,3.6,0,0,0,.57-.73,2.2,2.2,0,0,1,.63-.66c.26-.16.54-.28.81-.43s.52-.34.79-.49a4.22,4.22,0,0,1,.89-.35c.33-.1.66-.2,1-.28a3.17,3.17,0,0,1,1-.09,1.46,1.46,0,0,1,.8.33.45.45,0,0,0,.31.16c.13,0,.18-.12.23-.22a.47.47,0,0,1,.2-.28.64.64,0,0,1,.41,0c.23,0,.52.06.61-.21a1,1,0,0,0-.15-.69,2.4,2.4,0,0,1-.12-.38,2.43,2.43,0,0,1,0-.54c0-.16,0-.31,0-.47a1.59,1.59,0,0,1,0-.38.54.54,0,0,1,.54-.4,1.62,1.62,0,0,0,.84-.15.46.46,0,0,0,.21-.61.83.83,0,0,0-.66-.31,3.42,3.42,0,0,1-.89-.17.83.83,0,0,1-.57-.55c0-.28.19-.52.4-.67s.52-.32.78-.49a2.71,2.71,0,0,0,1.15-1.41c.1-.28.15-.58.27-.86a4,4,0,0,1,.49-.72,1.75,1.75,0,0,0,.38-.8,6.94,6.94,0,0,0,.05-.91,1.9,1.9,0,0,1,.56-1.36,1.25,1.25,0,0,1,1.56-.09c.23.18.4.43.62.62a1.56,1.56,0,0,0,.81.35c.32.05.65.05,1,.07l1,.08a10.58,10.58,0,0,1,2,.3l.94.31a4.57,4.57,0,0,0,1,.17,10.09,10.09,0,0,1,1.9.16,4.48,4.48,0,0,1,.89.4,7.6,7.6,0,0,0,.89.37,1.35,1.35,0,0,1,.63.47,2.37,2.37,0,0,1,.32.66c.17.45.31,1.13.87,1.23a2,2,0,0,0,.89-.15,2.21,2.21,0,0,1,.92-.13,7.94,7.94,0,0,1,1,.2,3.16,3.16,0,0,0,1,.08c.35,0,.69-.12,1-.19l1-.2a15.53,15.53,0,0,1,2-.23,9.84,9.84,0,0,1,2,.1l.47.09a1.45,1.45,0,0,0,.51.05c.3-.05.44-.4.57-.63Z"/></svg>