<svg xmlns="http://www.w3.org/2000/svg" viewBox="0 0 100 100"><g id="Baara"><path d="M68.75,8.44c.19.1.34.23.53.32a2.71,2.71,0,0,0,1.52.08,5.22,5.22,0,0,1,1.89-.05A3.45,3.45,0,0,1,74,9.45a17.8,17.8,0,0,1,1.47,1.12c.66.63.67,1.71,1.42,2.24a1.68,1.68,0,0,0,1.26.46c.22,0,.45-.25.69-.16s.33.35.44.55A3.11,3.11,0,0,0,81.69,15a2.49,2.49,0,0,0,1.38-.34,1.25,1.25,0,0,1,1.24,0,7.5,7.5,0,0,0,1.19.91,14.81,14.81,0,0,0,1.74.45,1.78,1.78,0,0,1,1.12.81,2.42,2.42,0,0,1,.25.68,7,7,0,0,0,.14.8c.15.43.56.6.93.8a3.78,3.78,0,0,1,1.39,1c.32.41.59.86.89,1.28a10.42,10.42,0,0,1,.63,1.36,1.36,1.36,0,0,0,.45.53c.18.13.39.18.46.42.13.47-.2,1.06-.34,1.48a1.65,1.65,0,0,0-.12.69c0,.19.17.35.13.54a1.63,1.63,0,0,1-.31.52,6.25,6.25,0,0,1-.56.69,11.73,11.73,0,0,0-.94,1.05A7.9,7.9,0,0,0,90.75,30c-.51,1.07-1.73.68-2.63.5a4.71,4.71,0,0,0-3.29.76c-.43.26-.7.53-1.22.45A2.42,2.42,0,0,1,82.22,31c-.31-.32-.57-.68-1.06-.61a2,2,0,0,0-1.17.91,13.28,13.28,0,0,1-1.1,1.28c-.12.12-.36.27-.38.45s.21.32.37.41c1,.58,2.14,1,3.15,1.55.82.5,1.83,1.4,1.53,2.48a11.69,11.69,0,0,1-.71,1.47,3.78,3.78,0,0,0-.32,1.62,5.76,5.76,0,0,1,0,.83,2.1,2.1,0,0,1-.24.69,1.54,1.54,0,0,0-.16,1.45,6.8,6.8,0,0,0,2,2.3,11.08,11.08,0,0,1,2.27,2.16,1,1,0,0,1,0,1.17,2.73,2.73,0,0,0-.25.48c-.08.25,0,.3.14.47s-.18.75-.43.94a1.56,1.56,0,0,0-.45.35,1.82,1.82,0,0,0-.23.64c-.1.37-.24.85-.61,1s-1,0-1.36-.1a6.11,6.11,0,0,1-1.51-.45,8.71,8.71,0,0,0-1.43-.8,1.71,1.71,0,0,0-1.36.4c-.47.3-.92.65-1.37,1a2.17,2.17,0,0,0-.5.46c-.14.19-.2.51-.39.67a1.91,1.91,0,0,1-.52.19,2.66,2.66,0,0,0-.68.47c-.84.73-1.06,1.93-1.81,2.75-.33.36-.75.63-1.08,1a3.54,3.54,0,0,0-.75,1.32,23.21,23.21,0,0,0-.71,3.31,2.54,2.54,0,0,0,0,1.72,6.36,6.36,0,0,1,.79,1.56,2.91,2.91,0,0,1-.13,1.37,6.8,6.8,0,0,0-.15.76,2.27,2.27,0,0,1-.16.79,2,2,0,0,1-1,.61q-.37.15-.78.27c-.51.16-1.38.36-1.56.95a.54.54,0,0,0,.35.72A3.5,3.5,0,0,0,69,72c.31,0,.36.16.57.33.36.28.78-.22,1.15-.28a1,1,0,0,1,1.12.47c.17.35.11.79.45,1a1,1,0,0,0,.6.14,1.51,1.51,0,0,1,.8.22c.36.23.62.87,1.07,1,.19,0,.36-.09.55-.12a.9.9,0,0,1,.66.11,1.11,1.11,0,0,1,.31.48,3,3,0,0,0,.5.63,10.41,10.41,0,0,1,1.15,1.41c.3.45.57.91.84,1.38a2.69,2.69,0,0,1,.5,1.5A14.89,14.89,0,0,1,78.88,82c-.09.54-.11,1.08-.15,1.62,0,.28,0,.74-.27.94s-.62-.09-.76-.34a4,4,0,0,0-.51-.9,1.24,1.24,0,0,0-1.43-.39,3.88,3.88,0,0,1-1.37.37c-.22,0-.43-.12-.65-.16a3.35,3.35,0,0,0-1,0A14.82,14.82,0,0,1,69.16,83c-.61-.08-1.22-.14-1.83-.23a3.76,3.76,0,0,0-.66-.1c-.3,0-.41.25-.61.44-.76.67-1.91.58-2.38,1.6A10.78,10.78,0,0,1,63.05,86,4,4,0,0,1,62.18,87a1.86,1.86,0,0,1-1.45,0,15.31,15.31,0,0,1-1.7-.66,2.46,2.46,0,0,0-1.51-.17,13.2,13.2,0,0,0-1.52.83,2.34,2.34,0,0,1-1.43.14,5,5,0,0,0-1.68-.35,15.94,15.94,0,0,0-1.67.48,5,5,0,0,1-1.73.09,7.17,7.17,0,0,1-1.66-.39c-.47-.17-1-.42-1.47-.09a3.33,3.33,0,0,0-.77,1.08,6.6,6.6,0,0,1-1.16,1.47,7.4,7.4,0,0,0-1,1.19l-.44.64c-.14.19-.31.51-.58.52a1.74,1.74,0,0,1-.54-.19,5.62,5.62,0,0,0-.73-.22,1.63,1.63,0,0,1-1.17-.75c-.2-.46.08-.86.15-1.31a4.4,4.4,0,0,0-.29-1.71,7.19,7.19,0,0,0-1.53-3c-.76-.9-1.37-1.9-2.14-2.79-.33-.38-.68-.77-1-1.11a1.84,1.84,0,0,0-.57-.38,2.75,2.75,0,0,0-.57-.05c-1-.15.75-2,1-2.25A19.45,19.45,0,0,0,37,75.36c.19-.32.47-.86.15-1.2s-.76-.19-1.06-.07a5.54,5.54,0,0,0-.62.36,1.87,1.87,0,0,1-.7.19,4.1,4.1,0,0,1-1.56-.09c-1-.29-1.51-1.16-2.06-2-.28-.4-.65-.72-.93-1.11s-.31-.82-.73-1A3,3,0,0,0,28,70.32a4.47,4.47,0,0,1-1.7-.17,5.57,5.57,0,0,1-2.72-1.89,1.5,1.5,0,0,1-.14-1.42A3,3,0,0,1,24,65.3a10.93,10.93,0,0,1,1.24-1,8.9,8.9,0,0,1,1.33-1.05c.18-.1.9-.28.83-.57s-.9-.43-1.1-.51a9.07,9.07,0,0,0-1.63-.42,8.43,8.43,0,0,0-1.81,0,5.79,5.79,0,0,1-1.61-.06,8.39,8.39,0,0,1-1.76-.63c-.5-.2-1-.41-1.5-.59s-1.2-.3-1.79-.47a27.21,27.21,0,0,0-3.26-1.11c-.46-.08-.94-.1-1.4-.22s-.58-.39-.64-.86a2.78,2.78,0,0,0-.76-1.34A14.7,14.7,0,0,0,9,55.24a2,2,0,0,0-1.18-.61c-.29-.05-1,0-1.23-.25.13-.11.31-.11.44-.23a2.14,2.14,0,0,0,.25-.41,3.17,3.17,0,0,0,.43-1.23c.06-.46.07-.93.13-1.4a3.89,3.89,0,0,0,.05-.68,1.34,1.34,0,0,1,0-.69,2.86,2.86,0,0,1,.71-.84,4.82,4.82,0,0,0,.88-1c.26-.46-.36-.63-.7-.71s-1.08-.09-1.39-.5c-.14-.17-.28-.64-.05-.79a1.24,1.24,0,0,1,.39-.1,3.06,3.06,0,0,0,.48-.17c.52-.22,1-.59,1-1.22a5.55,5.55,0,0,1,0-1.35,9.34,9.34,0,0,1,.19-1.49,1.26,1.26,0,0,1,.64-.74c.41-.26.85-.49,1.28-.73a8.08,8.08,0,0,1,1.25-.62c.46-.18.94-.31,1.4-.49a12.27,12.27,0,0,1,2.54-1.08c.48-.07,1-.06,1.46-.14s1-.16,1.5-.2c.31,0,.85-.14,1.11.08s.09.65.34.89a.66.66,0,0,0,.8,0c.23-.22.22-.64.28-.93a4,4,0,0,1,.54-1.1,3.93,3.93,0,0,0,.61-1.14,6,6,0,0,1,.07-.94c.16-.46.72-.2,1-.08a2.84,2.84,0,0,0,1.28.27c.23,0,.45,0,.67,0a4.22,4.22,0,0,1,.7.1c.36,0,.78-.19,1.12,0,.13.08.24.2.36.29a4.15,4.15,0,0,0,.64.38c.4.21.79.45,1.19.66a5.45,5.45,0,0,1,1.08.54,3.83,3.83,0,0,1,.59.89,3.44,3.44,0,0,0,1,.93c.64.47,1.4,1.28,2.27,1.24a3.9,3.9,0,0,1,1.18-.08c.49.12.94.33,1.43.44A1.89,1.89,0,0,0,39,40a2.94,2.94,0,0,0,.91-.74,3.1,3.1,0,0,1,.76-.73,3.21,3.21,0,0,1,1.38,0c.38,0,.77.06,1.14.05a2.08,2.08,0,0,0,1.08-.48,3.35,3.35,0,0,0,.91-.67,2.49,2.49,0,0,0,.45-1,23.29,23.29,0,0,1,.24-2.36,5.93,5.93,0,0,1,1.64-2.18,2.42,2.42,0,0,1,1-.71,7.09,7.09,0,0,0,1.2-.51,1.78,1.78,0,0,0,.82-.87,1.53,1.53,0,0,0-.07-1.13c-.22-.61-.7-1.74,0-2.17a2.38,2.38,0,0,1,1.08-.25,3.63,3.63,0,0,0,1.35-.47,15.2,15.2,0,0,0,2.49-1.39A4,4,0,0,0,57,22.59c.24-.75-.11-1.71.44-2.34a15.07,15.07,0,0,0,1.76-1.9,7.78,7.78,0,0,1,.77-1.16A5.76,5.76,0,0,1,61,16.35a5.19,5.19,0,0,0,1.83-1.45,6.33,6.33,0,0,0,.64-2.38A5.63,5.63,0,0,1,64.38,10a9.42,9.42,0,0,1,.91-1,2.31,2.31,0,0,1,2.44-.82c.29.08.59.09.87.17Z"/></g></svg>