<svg id="Parsa" xmlns="http://www.w3.org/2000/svg" viewBox="0 0 100 100"><path d="M68.91,51.11c-.06,0-.15,0-.24,0a2.52,2.52,0,0,0-.46.1,5.64,5.64,0,0,0-.87.39,2.17,2.17,0,0,0-.33.19,2.22,2.22,0,0,0-.28.33l-.62.81c-.21.26-.42.51-.64.76a6.13,6.13,0,0,0-.62.63,7,7,0,0,1-1.31,1.3c-.26.2-.53.38-.8.56a5.11,5.11,0,0,0-.75.57A9.46,9.46,0,0,1,60.52,58a7.54,7.54,0,0,1-.83.46c-.13.07-.27.12-.4.18a1.8,1.8,0,0,0-.39.27,3.55,3.55,0,0,0-1,1.42c-.19.5-.3,1-.53,1.52a2.64,2.64,0,0,1-.43.67,1.74,1.74,0,0,1-.32.28c-.13.08-.27.14-.39.22a1.65,1.65,0,0,0-.58.65,2,2,0,0,0,0,.42,1.76,1.76,0,0,1-.15.44,1.27,1.27,0,0,1-.24.33c-.11.12-.2.25-.31.37a2.64,2.64,0,0,0-.53.71,1.8,1.8,0,0,0-.06.22.93.93,0,0,1-.1.2c-.07.14-.15.28-.21.42a1,1,0,0,0,0,.84,4.05,4.05,0,0,1,.35.83c0,.08,0,.26,0,.34s-.09,0-.13.07l-.2.08a.85.85,0,0,0-.28.22.21.21,0,0,0-.05.15c0,.07.08.14.11.2a.38.38,0,0,1,0,.37,2.44,2.44,0,0,0-.19.44,3.9,3.9,0,0,0-.13,1,6.22,6.22,0,0,1-.06.86,1.38,1.38,0,0,0,.06.7.45.45,0,0,0,.24.25c.07,0,.23,0,.24.12s0,.08-.06.11a.31.31,0,0,0-.1.15.48.48,0,0,0,0,.29c0,.08.19.07.26.07a2.57,2.57,0,0,1,.4.07c.28.08.37.33.5.57s.14.25.22.37.11.28.19.41.18.23.27.35.09.08.09.14a.32.32,0,0,1-.05.19,1.8,1.8,0,0,0-.14.41,1.62,1.62,0,0,1,0,.22.63.63,0,0,0,0,.19c0,.12.2.21.29.28s.21.16.18.27-.11.1-.15.13l-.18.11a1.44,1.44,0,0,0-.33.27,4.47,4.47,0,0,1-.62.61,2.55,2.55,0,0,0-.31.24c-.1.1-.15.23-.24.33s-.52.21-.72.42a.71.71,0,0,1-.1.14s-.1,0-.14,0a.6.6,0,0,0-.3.24,1.4,1.4,0,0,0-.1.35,1,1,0,0,1-.24.37c-.09.09-.19.16-.29.25a1,1,0,0,0-.2.35c-.05.11-.09.22-.15.33s-.16.06-.27,0a2.43,2.43,0,0,0-.91-.19,3.89,3.89,0,0,0-1,.07c-.15,0-.3.06-.45.09a2.46,2.46,0,0,1-.47.1,5,5,0,0,0-1.92.2.78.78,0,0,0-.28.16,1.51,1.51,0,0,0-.1.17l-.12.23a1.18,1.18,0,0,0-.11.19s0,.08-.07.1-.11,0-.15,0l-.23-.08a3.75,3.75,0,0,1-.41-.19c-.14-.07-.3-.13-.44-.21a1.14,1.14,0,0,1-.31-.27c-.1-.12-.2-.24-.29-.37a8.88,8.88,0,0,1-.52-.83,1.88,1.88,0,0,0-.21-.36,1.47,1.47,0,0,0-.3-.31,3.41,3.41,0,0,0-.74-.43l-.41-.18a.8.8,0,0,0-.42-.11,1.07,1.07,0,0,0-.39.18.69.69,0,0,0-.13.11.23.23,0,0,1-.18.06,3.29,3.29,0,0,1-1-.07,4,4,0,0,1-1.68-.77l-.33-.27a.63.63,0,0,1-.25-.31,1.27,1.27,0,0,1,0-.34c0-.14,0-.28,0-.43a.22.22,0,0,0,0-.16s-.09-.09-.14-.12L37.56,77c-.08,0-.13,0-.2,0a2.4,2.4,0,0,1-.85.19l-.45,0c-.15,0-.3,0-.45,0s-.08,0-.1-.11a.4.4,0,0,0-.07-.18,1.18,1.18,0,0,0-.28-.31c-.12-.1-.24-.18-.37-.27a.77.77,0,0,0-.36-.12,1.18,1.18,0,0,1-.68-.35,2.71,2.71,0,0,1-.24-.35,1.48,1.48,0,0,0-.21-.37,1,1,0,0,0-.75-.17,1.38,1.38,0,0,0-.2,0s-.11,0-.14,0,0-.14,0-.18a1.18,1.18,0,0,0,0-.2,2.12,2.12,0,0,0-.41-.77,2.77,2.77,0,0,0-.69-.59,1.2,1.2,0,0,1-.29-.26,4.08,4.08,0,0,0-.36-.36,7.92,7.92,0,0,0-.69-.61.47.47,0,0,0-.35,0h-.51a3.87,3.87,0,0,0-.48,0l-.24,0a.37.37,0,0,1-.18,0,.65.65,0,0,1-.25-.27,1.25,1.25,0,0,1-.12-.43c0-.16,0-.32,0-.48s-.06-.34-.09-.51-.17-.63-.26-1c0-.15-.09-.3-.12-.45a2.49,2.49,0,0,0-.09-.46,1.81,1.81,0,0,0-.53-.7c-.09-.09-.2-.16-.29-.25a1.17,1.17,0,0,1-.24-.38c-.07-.14-.14-.27-.22-.4a1.31,1.31,0,0,0-.24-.34,1,1,0,0,0-.73-.15,2,2,0,0,0-.35,0c-.14,0-.16.17-.23.28a3.13,3.13,0,0,1-.22.36c-.05.08-.15.26-.25.25a.71.71,0,0,1-.18-.08l-.2-.12a3.27,3.27,0,0,1-.36-.25,4.3,4.3,0,0,1-.64-.64,4.14,4.14,0,0,0-.51-.66,5.22,5.22,0,0,1-.67-.66,1.21,1.21,0,0,0-.25-.3,2.4,2.4,0,0,0-.46-.21L20,64.2a1.85,1.85,0,0,1-.44-.18,8.78,8.78,0,0,0-.79-.44,1.11,1.11,0,0,0-.43-.15.33.33,0,0,0-.15,0l-.25.08a1.69,1.69,0,0,1-.38.07c-.14,0-.19-.1-.28-.2a2.94,2.94,0,0,0-.3-.31c-.09-.07-.26,0-.36,0a2,2,0,0,0-.41.13s-.09.07-.14.07a.39.39,0,0,1-.14-.05l-.37-.18c-.13,0-.27.07-.39.12s-.19,0-.3-.06a2.91,2.91,0,0,1-.42-.25l-.36-.25-.21-.15a1.21,1.21,0,0,0-.14-.1c-.06,0-.1,0-.15,0a.65.65,0,0,1-.2,0,1.69,1.69,0,0,1-.49-.09l-.41-.16a.31.31,0,0,1-.15-.08.76.76,0,0,1-.06-.16c0-.11-.12-.12-.22-.16a3.74,3.74,0,0,1-.45-.22,6.06,6.06,0,0,1-.76-.48.62.62,0,0,1-.23-.28,2.35,2.35,0,0,0-.15-.42,1.48,1.48,0,0,0-.21-.34.8.8,0,0,0-.4-.2,7.08,7.08,0,0,1-.77-.28c-.42-.19-1.06-.7-.7-1.21.14-.2.38-.32.47-.55a1,1,0,0,0-.05-.78.6.6,0,0,0-.23-.29.71.71,0,0,1-.29-.28,2.66,2.66,0,0,1-.17-.78,1.2,1.2,0,0,0-.2-.37,1.56,1.56,0,0,1-.21-.43c0-.14-.08-.27-.11-.41a.76.76,0,0,0-.23-.33L7.23,54s-.11-.09-.11-.14,0-.06.06-.08l.16-.17a2.09,2.09,0,0,1,.29-.23l.14-.12s.06-.12.1-.17A.34.34,0,0,1,8,53,1.17,1.17,0,0,0,8.28,53a.68.68,0,0,0,.37-.21,2.45,2.45,0,0,1,.26-.37,2.74,2.74,0,0,1,.36-.32c.09-.08.23-.18.25-.3a.47.47,0,0,0,0-.17v-.24a2,2,0,0,1,.29-.78,5.1,5.1,0,0,0,.83-1.45,3.75,3.75,0,0,0-.3-1.74,5.55,5.55,0,0,1-.18-.92,1.12,1.12,0,0,1,.24-.78,1,1,0,0,1,.78-.26c.31,0,.62.07.93.06a1.24,1.24,0,0,0,.43-.06s.08-.07.12-.08.13,0,.19,0c.32,0,.65.07,1,.11a2.84,2.84,0,0,1,.91.23l.87.4a1.14,1.14,0,0,0,.4.11,4.87,4.87,0,0,0,.54,0,2.48,2.48,0,0,0,.9-.12.79.79,0,0,0,.31-.23.57.57,0,0,1,.34-.2,1.24,1.24,0,0,1,.43,0,3.47,3.47,0,0,1,.46.13,4.58,4.58,0,0,0,1,.08h.4c.13,0,.13.06.15.18a2.47,2.47,0,0,0,.28.83,2.77,2.77,0,0,0,.22.37.53.53,0,0,0,.12.14.76.76,0,0,0,.21.08,1.44,1.44,0,0,0,.46.05.42.42,0,0,0,.16,0c.07,0,.12-.08.17-.12l.16-.15c.06-.05.1-.06.07-.13a1.4,1.4,0,0,1-.09-.17,1.18,1.18,0,0,1-.06-.27,3.54,3.54,0,0,1,0-.46,1.22,1.22,0,0,1,.07-.47,3.87,3.87,0,0,1,.21-.34l.27-.43a1.69,1.69,0,0,0,.19-.38,2.07,2.07,0,0,0,0-.5c0-.12,0-.25,0-.37s0-.08,0-.09a.56.56,0,0,1,.23.07c.31.12.57.31.86.44a.4.4,0,0,0,.38,0,2.24,2.24,0,0,0,.34-.27,1.84,1.84,0,0,1,.76-.36l.42-.12c.13,0,.24.09.33.17a.89.89,0,0,1,.23.28,1.16,1.16,0,0,1,0,.18l.07.25a4.57,4.57,0,0,1,.06,1c0,.33.09.67.12,1a2.78,2.78,0,0,0,.18.91,5.82,5.82,0,0,0,1.06,1.53c.1.09.25.18.3.31a1.42,1.42,0,0,1,.08.41,3,3,0,0,1-.11,1,1.11,1.11,0,0,0-.05.25c0,.07,0,.1.07.15a3.5,3.5,0,0,1,.23.35l.06.09.06.07c0,.06,0,.11,0,.17s-.12.31-.17.47-.14.61-.21.91c0,.13,0,.18.13.24a1.5,1.5,0,0,0,.42.15,1.59,1.59,0,0,1,.74.41,1.64,1.64,0,0,0,.33.26l.2.11a.58.58,0,0,0,.21.1.55.55,0,0,0,.18,0l.21,0,.48-.07a2.75,2.75,0,0,0,.41-.11l.21-.09a.44.44,0,0,1,.23,0c.31,0,.62,0,.92.09a1.62,1.62,0,0,1,.78.27c.18.13.36.35.6.36a1.38,1.38,0,0,0,.4-.1l.5-.1a2.39,2.39,0,0,1,1,0,.58.58,0,0,0,.39,0c.13,0,.25-.13.38-.19a1.31,1.31,0,0,1,.83,0,1.79,1.79,0,0,1,.39.13c.06,0,.11.06.16.08a.24.24,0,0,0,.22,0,6.32,6.32,0,0,0,1-.21,3.69,3.69,0,0,1,.45-.11.69.69,0,0,1,.42.1,1.84,1.84,0,0,1,.66.58c.07.1.11.23.19.33s.18.19.26.3A4.36,4.36,0,0,0,42,56l.3.24a.38.38,0,0,1,.11.11s0,.1,0,.17a.75.75,0,0,1,0,.15.6.6,0,0,1-.09.13s-.07.12-.06.16.14.08.19.08.25-.13.34-.2a2.82,2.82,0,0,0,.36-.33c.44-.46.78-1,1.18-1.48a3,3,0,0,1,.29-.33,1.21,1.21,0,0,1,.32-.22c.22-.12.5-.26.55-.53a.71.71,0,0,0-.06-.43.91.91,0,0,1,0-.46.73.73,0,0,1,.15-.35,1.67,1.67,0,0,1,.34-.31,2.61,2.61,0,0,0,.66-1.67c0-.14,0-.29,0-.44a.81.81,0,0,1,.22-.39,7.06,7.06,0,0,1,.66-.68,15.17,15.17,0,0,1,1.34-1.32c.24-.18.5-.34.73-.53a6.87,6.87,0,0,0,.69-.63l.35-.29a3.31,3.31,0,0,0,.32-.33l.29-.29c.11-.12.2-.24.3-.36a1.65,1.65,0,0,1,.3-.29,1,1,0,0,1,.39-.13l1-.17c.32-.05.64-.09,1-.16a1.58,1.58,0,0,0,.36-.14,1.79,1.79,0,0,1,.47-.1,4.91,4.91,0,0,0,.93-.17c.32-.09.63-.21,1-.33a7.19,7.19,0,0,1,1.89-.54,3.48,3.48,0,0,0,1.72-.36,1.15,1.15,0,0,0,.27-.27.4.4,0,0,1,.29-.21,1.61,1.61,0,0,1,.44,0h.33s0-.06.06-.1.07-.12.1-.18,0-.15.12-.17h.2a2.06,2.06,0,0,0,.26,0,.3.3,0,0,0,.24-.16,1,1,0,0,0,.09-.3.46.46,0,0,1,.15-.31,1.1,1.1,0,0,0,.26-.35,2.62,2.62,0,0,0,.15-.39,3.61,3.61,0,0,0,.17-.46c.15-.54,0-1.27.53-1.67,0,0,.1-.07.15-.12a.61.61,0,0,0,.12-.15l.27-.37a4.76,4.76,0,0,1,.63-.64,2.7,2.7,0,0,1,.34-.25,1.28,1.28,0,0,0,.32-.24c.19-.25.38-.51.55-.77a2.46,2.46,0,0,0,.37-.83,1.57,1.57,0,0,0,0-.43,1.08,1.08,0,0,1,.11-.47,1.53,1.53,0,0,1,.54-.64l.37-.22L68.4,33a1.67,1.67,0,0,1,.89-.28c.31,0,.63.05.95.07a2.45,2.45,0,0,0,.93-.1,2.24,2.24,0,0,0,.78-.44c.23-.2.44-.44.67-.64a5.17,5.17,0,0,1,.78-.54c.28-.16.54-.33.8-.51a5.4,5.4,0,0,1,.8-.47,9.08,9.08,0,0,1,.9-.22,1.38,1.38,0,0,0,.39-.18.83.83,0,0,0,.15-.11.44.44,0,0,0,.1-.22,3.35,3.35,0,0,0,.24-.93c0-.26-.29-.47-.49-.61a3.83,3.83,0,0,1-.66-.48,1.46,1.46,0,0,1-.34-.65c-.08-.3-.08-.61-.13-.91a3.11,3.11,0,0,1-.06-.44c0-.15.06-.29.07-.44a4.21,4.21,0,0,1,.07-.94.61.61,0,0,1,.19-.33l.37-.31a1.93,1.93,0,0,0,.27-.31c.06-.1.15-.27.07-.39a1.23,1.23,0,0,0-.31-.24,1.27,1.27,0,0,1-.28-.24c-.19-.23,0-.5.16-.7a1.2,1.2,0,0,0,.2-.37,2.3,2.3,0,0,0,0-.45,3.07,3.07,0,0,1,.09-.8.72.72,0,0,1,.21-.33.56.56,0,0,1,.32-.15,1.25,1.25,0,0,0,.75-.45,1.56,1.56,0,0,0,.23-.34c.07-.13.1-.29.18-.41a1.65,1.65,0,0,1,.64-.53,1.42,1.42,0,0,1,.82-.19,1.6,1.6,0,0,1,.7.48,2.08,2.08,0,0,0,.32.27.84.84,0,0,0,.44.1,3.68,3.68,0,0,1,1.71.25,1,1,0,0,1,.45.63,2.08,2.08,0,0,1,0,.23,1.48,1.48,0,0,0,0,.21c0,.11.22.2.32.23.59.18,1.19-.38,1.76-.06a2.6,2.6,0,0,0,.73.4,2.36,2.36,0,0,0,.46,0l.54,0c.31,0,.63,0,.94,0a2.54,2.54,0,0,0,.47-.07c.08,0,.15-.07.24-.09a.61.61,0,0,1,.19,0H89c.1,0,.12,0,.18-.1a1.85,1.85,0,0,1,.14-.14,4.11,4.11,0,0,0,.29-.3c.06-.07.08-.09.17-.07l.23,0a.78.78,0,0,1,.31.07,1.29,1.29,0,0,0,.35.18,5.42,5.42,0,0,0,.65.14c.42.07,1.06.18,1.06.73,0,0,0,.09,0,.13s.08.11.11.17a.53.53,0,0,1,.08.22,1.56,1.56,0,0,1-.13.9,1.42,1.42,0,0,0-.14.41,1.91,1.91,0,0,0,0,.47,1.3,1.3,0,0,1,0,.21.27.27,0,0,1,0,.15c-.06.14-.12.29-.17.44a1.3,1.3,0,0,0,0,.89,2.23,2.23,0,0,0,.52.62c.08.08.2.18.22.3a.43.43,0,0,1-.14.33c-.16.18-.4.3-.5.53a3.58,3.58,0,0,0-.09.35.7.7,0,0,1-.21.35,2,2,0,0,0-.58.62,5.19,5.19,0,0,0-.13.88c-.08.32-.18.65-.28,1s-.2.62-.33.91a2.21,2.21,0,0,1-.54.74,5.7,5.7,0,0,0-.64.56c-.17.23-.24.53-.42.76a1.17,1.17,0,0,1-.78.32,4,4,0,0,1-1,0,.68.68,0,0,1-.37-.12,2.38,2.38,0,0,0-.45-.23,1.7,1.7,0,0,0-.87-.08c-.31,0-.61.12-.93.17a4.4,4.4,0,0,0-.89.19c-.28.1-.52.29-.79.41a4.92,4.92,0,0,0-.82.43,17.57,17.57,0,0,1-1.38,1.21c-.11.08-.24.15-.36.22s-.22.12-.26.26a8.93,8.93,0,0,0-.17.9,1.85,1.85,0,0,0,0,.47c0,.16,0,.31,0,.47a1.05,1.05,0,0,1,0,.4,1.09,1.09,0,0,1-.23.33c-.36.4-1,.67-1.06,1.24a2.28,2.28,0,0,1-.36.83c-.07.11-.16.22-.22.33a2.54,2.54,0,0,0-.14.47c-.08.32-.17.64-.22,1l-.06.41c0,.12-.16.17-.25.22a7.53,7.53,0,0,0-.81.53,5.86,5.86,0,0,0-.61.71,2.17,2.17,0,0,1-.67.57,6.06,6.06,0,0,1-.84.32,6.87,6.87,0,0,0-.88.38c-.27.15-.52.33-.8.47a6.75,6.75,0,0,0-.82.48,2.89,2.89,0,0,0-.32.29,3.19,3.19,0,0,1-.31.33,3.61,3.61,0,0,0-.3.25.54.54,0,0,0-.1.16.92.92,0,0,1-.13.21,1.9,1.9,0,0,0-.38.75,2.78,2.78,0,0,1-.38.84c-.18.25-.41.47-.58.72a2.59,2.59,0,0,0-.3.86A4.68,4.68,0,0,1,69,51,.11.11,0,0,1,68.91,51.11Z"/></svg>