<svg id="Parsa" xmlns="http://www.w3.org/2000/svg" viewBox="0 0 100 100"><path d="M7.76,29.74a1,1,0,0,0,.49-.18H9a3.57,3.57,0,0,0,2.65,1,5.41,5.41,0,0,1,1.75,0c.76.09,1.6.83,2.32.28.48-.28.64-.94,1.06-1.26.64-.47,1.55-.09,2.12.32s1.28.9,1.91,1.29a6.62,6.62,0,0,1,1.84,1.15,11.5,11.5,0,0,1,1.18,2.15c.54,1.15,1.74.19,2.61.5,1,1.06,1.37,1.24,2.79.76a9.34,9.34,0,0,1,2-.33,4.26,4.26,0,0,0,1.38-.43c.71-.27,1.43-.65,2.16-.87a1,1,0,0,1,1.05,0,1.89,1.89,0,0,1,.33.61c0,.4-.06,1,.37,1.19a3.46,3.46,0,0,0,1.5.21,1.12,1.12,0,0,1,1,.07c.3.28.48.66.82,1a5.13,5.13,0,0,1,1.38-1c.53-.54,1.11-1.15,1.67-1.66A7,7,0,0,0,44.28,33c.2-.52.18-1.13.33-1.66s.52-.59.94-.61a7.84,7.84,0,0,0,.81-.18A14.59,14.59,0,0,0,47.74,30a17.09,17.09,0,0,1,2.57-.26,21.21,21.21,0,0,1,2.61.54c.43,0,.95.09,1.38.07a7.13,7.13,0,0,1,2.35-.19,22.42,22.42,0,0,1,3.59,1.48,12.5,12.5,0,0,0,3.33,1.51c1.19.26,2.52.13,3.71.36.34.54,0,1.45.24,2.05a11.75,11.75,0,0,0,1.25,4.29,6.08,6.08,0,0,0,2.41-1,9.79,9.79,0,0,0,1.67-2.06,24.19,24.19,0,0,1,2-2c.22-.28.71-.52.74-.9-.27-.6-1.09-1-.85-1.8.27-.48.88-.85,1-1.4.2-.91.24-2.25,1.39-2.45.38.07.86.32,1.26.21a2.25,2.25,0,0,0,0-2c.18-.8-.12-1.74.29-2.49a2.2,2.2,0,0,1,1.43-.25c.46,0,1-.17,1.47-.14.2.15.32.47.49.65s.59.53.73.83,0,.94,0,1.37a7.46,7.46,0,0,0,1.38,2.59,4.59,4.59,0,0,1,0,1.77,5.82,5.82,0,0,0,.69,1.08l.2.75c.07,1.27-.53,2.62,0,3.85a12,12,0,0,1,.56,3.21,5.52,5.52,0,0,0,2.43,4c.4.43,1.08.67,1.42,1.16,0,.2.08.59.12.79.61.76,1.84.92,2.64,1.44a2.18,2.18,0,0,1-.45,1.55c-.48.37-.94,1-1.43,1.3-1,.63-2.36.27-3.5.35-1.39.21-3,.74-4.31.14l-.41.29c-.08.22-.24.65-.33.86a1.64,1.64,0,0,1-.73.22,14.54,14.54,0,0,1-2.36.79c-.85.13-1.81.09-2.65.28A5.4,5.4,0,0,0,75,53a10.72,10.72,0,0,1-1.14.87,3.83,3.83,0,0,0-1.26,1.11c-.21.34-.58.85-1,.9A2.53,2.53,0,0,1,70,55a8,8,0,0,0-.16-1.54,1.9,1.9,0,0,0-2.28-1c-1,.45-2.12-.08-3-.47-1.45-.62-3.12-1.35-4.68-.65a4.24,4.24,0,0,1-1.14.79c-.74.4-1.77.27-2.52.62-.35.32-.9.73-1.22,1.08-.21.16-.72.54-.69.86a10.94,10.94,0,0,0,.65,1.44,1.46,1.46,0,0,1-.21,1.26c-.83,1.84-1.21,1.17-2.76,1.66a7.38,7.38,0,0,0-1.47,1,15,15,0,0,1-1.58.86c-.83.42-1.93.75-2.36,1.66-.19.41-.31,1-.53,1.44a3.15,3.15,0,0,1-1.3.11.94.94,0,0,0-.94.65c-.21.62-.4,1.38-.65,2a8.19,8.19,0,0,0-2.15,1.51c-1.22.7-2.38,1.72-3.82,1.92a2,2,0,0,0-1.79,1,3.1,3.1,0,0,1-1,2c-.85.71-2.19.35-3.21.51A4.62,4.62,0,0,0,29,75c-.51.5-1,1.27-1.66,1.56-.66-.06-1.27-.65-1.91-.79a8.07,8.07,0,0,1-1.15-.29c-.11,0-.36,0-.44-.07s-.47,0-.69-.07c-.39,0-.79-.21-1.18-.11a13.37,13.37,0,0,1-3.16,0,9.5,9.5,0,0,1-1.3-.11,20.42,20.42,0,0,1-2.07,0c-.84-1.46.11-1.85.44-3.17,0-.47-.33-.87-.25-1.37,0-.33.29-.72.28-1.07-.62-.45-1.5-.13-2.15-.5-.64-.2-1.38-.29-2-.47s-1.68-.25-2.07-.78A2.19,2.19,0,0,1,9.81,66c.33-.47,1-1,1-1.59A4.67,4.67,0,0,0,10.2,62,2.06,2.06,0,0,0,8.29,61,8,8,0,0,0,8,59c.23-.57,1-.65,1.5-.9,1-.34,2.45-.46,3.21-1.31a1.52,1.52,0,0,0,0-1,2.24,2.24,0,0,1-.41-1.58A12.87,12.87,0,0,1,13.52,53a5.68,5.68,0,0,1,1.05-1c.77-.46,1.79-.62,2.52-1.16a1.21,1.21,0,0,1,.29-.94c.06-.36.16-.8.24-1.15a7.15,7.15,0,0,1,.32-2.34c.23-.38.76-.53,1.1-.79A3.49,3.49,0,0,0,20,42.81a14.2,14.2,0,0,0-1.47-1.72c-.4-.52-.63-1.23-1-1.76A10.57,10.57,0,0,1,16,38.21a4.43,4.43,0,0,0-.94-1c-.58.21-1.14.49-1.71.11-.6-.54-.76-1.46-1.35-2a13,13,0,0,1-2.93-2.22,5,5,0,0,1-1.31-1.8A4,4,0,0,1,7.76,29.74Z"/></svg>