<svg id="Parsa" xmlns="http://www.w3.org/2000/svg" viewBox="0 0 100 100"><path d="M38.71,10.73a.71.71,0,0,1,.12-.13,2,2,0,0,1,.32-.18l.37-.16A5.54,5.54,0,0,1,41.13,10c.58,0,1.15,0,1.73,0s1.16,0,1.74,0a8.05,8.05,0,0,1,1.7,0,8.18,8.18,0,0,1,1.59.51q.78.33,1.59.6a5.78,5.78,0,0,0,1.64.34,7.92,7.92,0,0,0,.85,0,1.67,1.67,0,0,1,.63,0c.23.07.32.31.42.51a2.9,2.9,0,0,0,.4.66,1.94,1.94,0,0,0,.68.36,1.79,1.79,0,0,0,.76.2l.42,0,.42,0a7.69,7.69,0,0,1,.83,0,1.61,1.61,0,0,1,.73.26,2.7,2.7,0,0,0,.72.31,3.69,3.69,0,0,0,.81.12c.26,0,.53,0,.79,0a.83.83,0,0,1,.61.28,1.54,1.54,0,0,1,.2.67,2,2,0,0,0,.23.68.93.93,0,0,0,.57.35,2.85,2.85,0,0,0,.39.11,3,3,0,0,0,.42,0,1.64,1.64,0,0,1,.76.15,4,4,0,0,1,.6.42.92.92,0,0,0,.3.18.73.73,0,0,0,.36,0l.37-.06.42,0,.43,0,.4-.05a1,1,0,0,1,.39,0,1.46,1.46,0,0,1,.36.16A5.5,5.5,0,0,1,67,17a1.69,1.69,0,0,0,.32.19,1,1,0,0,0,.38.07c.26,0,.52-.09.75.06a2.26,2.26,0,0,1,.29.23,2,2,0,0,1,.24.26,3.52,3.52,0,0,1,.37.69A6.5,6.5,0,0,0,70.17,20a4.08,4.08,0,0,0,.55.55,2.3,2.3,0,0,0,.33.21,1.81,1.81,0,0,0,.37.18,1.37,1.37,0,0,0,.4.05h.43l.84.08a6.22,6.22,0,0,0,1.67.05,3.74,3.74,0,0,0,1.49-.61,4.11,4.11,0,0,0,.62-.48,2.79,2.79,0,0,0,.45-.63,3.24,3.24,0,0,0,.17-.32.82.82,0,0,1,.16-.25.21.21,0,0,1,.25,0,.32.32,0,0,1,.15.22.46.46,0,0,1-.07.32,1.05,1.05,0,0,0-.17.29.5.5,0,0,0,.09.35.4.4,0,0,1,0,.35.46.46,0,0,1-.24.17l-.39.17c-.24.12-.49.24-.73.38a2,2,0,0,0-.89,1,3.64,3.64,0,0,0-.1,1.54,1.84,1.84,0,0,1-.13.77,2.23,2.23,0,0,1-.45.62A14.65,14.65,0,0,0,73.9,26a4.45,4.45,0,0,0-.72,1.34c-.08.26-.15.53-.22.8a4.05,4.05,0,0,1-.23.75,1.25,1.25,0,0,1-.45.54,2.13,2.13,0,0,1-.73.26,4.44,4.44,0,0,0-1.4.3,1.06,1.06,0,0,0-.44.45,1.44,1.44,0,0,0-.1.74c0,.49.24,1,0,1.48a2.09,2.09,0,0,1-1.26.72c-.25.09-.51.16-.76.26a1,1,0,0,0-.54.42,1.29,1.29,0,0,0-.09.7,6.48,6.48,0,0,1,.06.76,1.41,1.41,0,0,1-.17.73,1.74,1.74,0,0,1-.45.49,5.83,5.83,0,0,1-1.29.72c-.48.21-1,.37-1.43.62a2.67,2.67,0,0,0-.57.43,2.44,2.44,0,0,0-.39.61,5.16,5.16,0,0,0-.37,1.5A5.48,5.48,0,0,1,62,42.19a2.09,2.09,0,0,1-.81.93c-.3.2-.63.37-.91.6a1.29,1.29,0,0,0-.52,1,2.44,2.44,0,0,0,.13.8c.08.27.18.53.28.8a9.52,9.52,0,0,1,.49,1.57c.1.56.17,1.13.29,1.69s.27,1.11.38,1.66a10.6,10.6,0,0,1,.23,1.68,12,12,0,0,0,.12,1.7,9.9,9.9,0,0,1,.24,1.62,16.28,16.28,0,0,1-.16,1.7,5.54,5.54,0,0,1-.31,1.57,3.94,3.94,0,0,1-.86,1.2,4.29,4.29,0,0,0-.94,1.18c-.22.48-.21,1-.46,1.49a3.8,3.8,0,0,1-1,1,14,14,0,0,0-1.2,1,5.61,5.61,0,0,0-1.39,2.55,8.71,8.71,0,0,0-.23,1.68,2.61,2.61,0,0,1-.33,1.4,4,4,0,0,1-1.11.93,5,5,0,0,0-.66.47,2.88,2.88,0,0,0-.52.58A11.66,11.66,0,0,0,52,74.3c-.26.48-.55.93-.76,1.43s-.46,1-.72,1.56-.49,1-.7,1.46a1.55,1.55,0,0,0-.14,1.19,1,1,0,0,0,.52.43,2.63,2.63,0,0,1,.61.39,1.07,1.07,0,0,1,.33.64.76.76,0,0,1-.23.63,2.05,2.05,0,0,1-.63.4,3.27,3.27,0,0,0-.64.4A1.94,1.94,0,0,0,49,84.07a2.74,2.74,0,0,0,0,.81,7.41,7.41,0,0,0,.25.8,1.9,1.9,0,0,1,.11.82,5.64,5.64,0,0,1-.2.81,5.74,5.74,0,0,0-.13.83c0,.29,0,.57,0,.85a4.61,4.61,0,0,1-.12.83.46.46,0,0,1-.13.27.24.24,0,0,1-.29,0c-.22-.15-.43-.33-.66-.47a4,4,0,0,0-.73-.34,10.84,10.84,0,0,0-3.24-.64c-1.16-.06-2.32,0-3.49,0a16.31,16.31,0,0,1-1.71-.08A9.19,9.19,0,0,1,37,88.12c-.55-.17-1.09-.35-1.65-.48a5.79,5.79,0,0,0-.83-.16,6,6,0,0,0-.85,0c-.29,0-.57,0-.86,0a7.58,7.58,0,0,0-.83.15c-.28.06-.55.11-.83.15a6,6,0,0,1-.84.1,2.8,2.8,0,0,1-.81-.18,4.11,4.11,0,0,1-.76-.29,2.55,2.55,0,0,1-.61-.47c-.17-.19-.27-.43-.45-.6s-.4-.27-.58-.42a2.56,2.56,0,0,1-.46-.58,2,2,0,0,1-.34-.7,4.5,4.5,0,0,1,0-.82c0-.14,0-.28,0-.42a1.41,1.41,0,0,0,0-.41,1.51,1.51,0,0,0-.14-.35.65.65,0,0,0-.21-.28,2.3,2.3,0,0,0-.63-.25L25,82a.37.37,0,0,1-.22-.22c0-.1-.06-.2-.1-.3a1,1,0,0,1-.1-.34,2,2,0,0,1,.05-.34.31.31,0,0,0,0-.31c-.06-.07-.14-.12-.2-.19a1.14,1.14,0,0,1-.15-.29,3.43,3.43,0,0,1-.29-1.13.85.85,0,0,1,0-.35.92.92,0,0,1,.23-.25c.1-.09.19-.19.28-.28.39-.38.8-.74,1.17-1.14a2,2,0,0,0,.43-.6,2.85,2.85,0,0,0,.11-.39c0-.12.08-.25.11-.38a6,6,0,0,0,0-.85c0-.29,0-.58,0-.86s-.07-.56-.11-.84a4.13,4.13,0,0,1,0-.86,1.62,1.62,0,0,1,.09-.38,4,4,0,0,1,.17-.36c.07-.14.14-.28.22-.41s0-.35-.05-.56a1.92,1.92,0,0,0-.14-.33.77.77,0,0,0-.56-.19,7.9,7.9,0,0,1-.85-.11,1.35,1.35,0,0,0-.4,0,2.74,2.74,0,0,1-.37.08,1.19,1.19,0,0,1-.61-.31,5.89,5.89,0,0,1-.61-.51.68.68,0,0,1-.18-.29.83.83,0,0,1,0-.35c0-.11.12-.13.23-.13a.32.32,0,0,0,.27-.13c.1-.15,0-.36-.06-.5a1.67,1.67,0,0,0-.35-.55,1.57,1.57,0,0,0-.3-.2,2.21,2.21,0,0,0-.35-.16,1.27,1.27,0,0,0-.28-.06c-.05,0-.14,0-.14-.1s.13-.14.19-.17a1.4,1.4,0,0,1,.35-.1l.38,0,.4-.07a1.55,1.55,0,0,0,.31-.07.24.24,0,0,0,.14-.26,2.19,2.19,0,0,0-.26-.7c-.23-.55.57-.72.59-1.21a1,1,0,0,0-.1-.38,1.71,1.71,0,0,1-.13-.38c-.07-.26-.12-.53-.18-.8a2,2,0,0,1-.06-.78A.86.86,0,0,1,24,61a1.39,1.39,0,0,0,.27-.21.9.9,0,0,0,.17-.3c.09-.22.19-.52,0-.7a.54.54,0,0,0-.3-.1,2.57,2.57,0,0,1-.4-.08l-.39-.13a1,1,0,0,1-.32-.16,3.64,3.64,0,0,1-.43-.6,1,1,0,0,1-.22-.29.32.32,0,0,1,0-.3,1,1,0,0,1,.6-.38,3.58,3.58,0,0,1,.35-.09.44.44,0,0,0,.32-.13.46.46,0,0,0,.07-.31,1.15,1.15,0,0,0-.06-.37,4.49,4.49,0,0,0-.37-.59.76.76,0,0,1-.11-.35,1.51,1.51,0,0,1,0-.42c.05-.28.1-.56.16-.84A5.4,5.4,0,0,0,23.54,53a2.56,2.56,0,0,0-.24-.77,1.24,1.24,0,0,0-.45-.58.41.41,0,0,1-.23-.22.47.47,0,0,1,0-.31,4.43,4.43,0,0,1,.32-.7,7.21,7.21,0,0,0,.3-.77,5,5,0,0,1,.32-.75c.25-.49.58-.94.86-1.41.13-.22.23-.44.49-.53a2.22,2.22,0,0,1,.37-.09,1.17,1.17,0,0,0,.34-.16c.14-.1.42-.24.28-.43a2.41,2.41,0,0,0-.21-.24,1.66,1.66,0,0,0-.26-.27c-.17-.14-.38-.28-.34-.54s.3-.36.5-.46c.5-.24,1-.35,1.53-.62.23-.14.45-.3.68-.46l.32-.23.25-.16a.48.48,0,0,0,.19-.21.79.79,0,0,0,.06-.34,2,2,0,0,0-.1-.78,2.19,2.19,0,0,0-.39-.61,1.44,1.44,0,0,1-.37-.63,2.71,2.71,0,0,1,0-.4.53.53,0,0,0-.75-.52,4.83,4.83,0,0,1-.74.22l-.39,0c-.1,0-.22,0-.23-.13a.55.55,0,0,1,.06-.28q.07-.2.15-.36a4.93,4.93,0,0,1,.44-.68,7.9,7.9,0,0,1,.91-1.24c.3-.31.87-.61.72-1.13a.59.59,0,0,0-.18-.28,1.67,1.67,0,0,1-.23-.23.41.41,0,0,1-.07-.34,2.58,2.58,0,0,0,0-.39,5.89,5.89,0,0,1,0-.84,7.79,7.79,0,0,1,.2-.8,1.51,1.51,0,0,0,0-.79,1.75,1.75,0,0,0-.39-.57,2,2,0,0,1-.48-1.33,2.33,2.33,0,0,1,.54-1.35,4.42,4.42,0,0,1,1.11-1c.47-.3.95-.57,1.44-.84s1-.56,1.5-.83c.24-.14.49-.27.74-.4a2.19,2.19,0,0,0,.56-.35.74.74,0,0,0,.17-.63,1,1,0,0,1,0-.35,1.43,1.43,0,0,1,.14-.34,9.2,9.2,0,0,1,1-1.27,7.2,7.2,0,0,0,.83-1.35,15.87,15.87,0,0,1,.69-1.51c.28-.46.6-.9.84-1.38a2.78,2.78,0,0,0,.29-.74,4,4,0,0,0,.11-.84,4.19,4.19,0,0,1,.12-.79,5,5,0,0,1,.28-.73,6.17,6.17,0,0,1,.38-.72,6.1,6.1,0,0,0,.39-.71c0-.12.08-.25.13-.37s.11-.24.17-.36a3,3,0,0,0,.25-.76,16.57,16.57,0,0,0,.12-1.72A1.15,1.15,0,0,1,38.71,10.73Z"/></svg>