<svg xmlns="http://www.w3.org/2000/svg" viewBox="0 0 100 100"><g id="Baara"><path d="M17,22.12c.36-.32,1,.12,1.58.27a18.31,18.31,0,0,0,2.09.24,7.18,7.18,0,0,0,2.06.21A3.55,3.55,0,0,0,24.25,22c.73-.51,1.68-.58,2.39-1.13a1.57,1.57,0,0,0,.62-1.1c.07-.48.07-1.17.64-1.36a1.72,1.72,0,0,1,.87.05,4.77,4.77,0,0,0,1.07,0A8.77,8.77,0,0,0,31.65,18c.43-.14,1.05-.31,1.41.06s.17,1.09.31,1.58.71.89,1,1.4a3.33,3.33,0,0,0,1,1.44c.52.32,1.12.14,1.65.39s1.06.65,1.64.9a2.46,2.46,0,0,0,.84.2c.36,0,.7-.09,1.06-.1.64,0,.83.47,1.31.78a1.75,1.75,0,0,0,1.56.06,1.91,1.91,0,0,1,1.65-.05c.49.29.81.79,1.33,1.05a4,4,0,0,0,1.82.2c1.34,0,2.73.3,4-.41a9.72,9.72,0,0,1,1.86-.84,3.9,3.9,0,0,1,1-.21,3.77,3.77,0,0,1,1,.16,2.68,2.68,0,0,0,1.84-.41,4.39,4.39,0,0,1,1.87-.54c.59,0,1.32-.16,1.79.28a6.42,6.42,0,0,0,.61.56,5.37,5.37,0,0,0,.89.46A16.19,16.19,0,0,0,65,25.6a16,16,0,0,0,1.94.32,15,15,0,0,0,2.11.24,5.68,5.68,0,0,1,2,.43c.63.28,1.22.65,1.84,1s1.26.64,1.89,1a4.1,4.1,0,0,0,1.89.4,14.28,14.28,0,0,0,2.17,0,9.18,9.18,0,0,1,2.16,0c.45.06,1,0,1.21.51a4.72,4.72,0,0,1,.19.67,6.4,6.4,0,0,0,.08.87c.07.23.28.39.37.62s.11.56.3.79c.34.41,1,.44,1.42.62A4.18,4.18,0,0,1,86,34a1.91,1.91,0,0,1,.6,1.48,1.83,1.83,0,0,0,.2,1c.15.28.38.52.51.82.26.58-.17,1.13-.06,1.73s.61.76,1.18.69,1.25-.3,1.77.07a3.26,3.26,0,0,1,.87,1.42q.41,1,.78,1.92c.13.31.24.62.35.94a3.69,3.69,0,0,1,.28.83c0,.57-1,0-1.24,0-.68-.13-1.07.23-1.5.72a6,6,0,0,0-1.2,1.6A11.35,11.35,0,0,0,88.1,49a3.69,3.69,0,0,1-.68,1.66,6.07,6.07,0,0,1-1.44,1,4.11,4.11,0,0,0-1.2,1.42,3.35,3.35,0,0,1-.51.72c-.22.23-.49.4-.72.61A2,2,0,0,0,83,56a2.18,2.18,0,0,1-.68,1.45,7,7,0,0,1-1.58,1.12c-.28.16-.58.3-.87.45a4.38,4.38,0,0,1-.91.41c-.41.09-1,0-1.31.31a1.07,1.07,0,0,0-.14.89c.11.72.59,1.59-.05,2.19a6.08,6.08,0,0,1-1.54.74,5.57,5.57,0,0,0-1.33,1.28,2.52,2.52,0,0,0-.72,1.61,3.63,3.63,0,0,1-.26,1.79,3,3,0,0,1-1.37,1.12,3.54,3.54,0,0,1-1.71,0,1.4,1.4,0,0,0-.7.08,2.54,2.54,0,0,0-.62.56,1.68,1.68,0,0,1-1.52.66,4.7,4.7,0,0,1-.9-.28,2,2,0,0,0-1-.09A2.17,2.17,0,0,1,64,69.61c-.23-.17-.48-.31-.71-.48a2,2,0,0,1-.55-.65,2.69,2.69,0,0,0-.44-.62,3,3,0,0,0-.82-.49c-.27-.13-.56-.24-.82-.38s-.52-.4-.8-.55a1.44,1.44,0,0,0-.87-.1c-.35,0-.69,0-1,0a2.92,2.92,0,0,1-1-.08,4.11,4.11,0,0,1-.6-.28c-.18-.08-.4-.14-.53,0s0,.54-.05.79c0,.61-.6,1.06-.84,1.6-.16.38-.09,1.32-.75,1.18-.49-.11-.22-.77-.68-.9a2.21,2.21,0,0,0-.85,0l-1,.11a5.07,5.07,0,0,0-2,.38,15.84,15.84,0,0,1-1.93.84,14.71,14.71,0,0,0-1.94.89c-.49.26-1,.49-1.16,1.08a6.14,6.14,0,0,0-.08.75c0,.32-.13.65-.14,1a2.22,2.22,0,0,1,0,.89,1.21,1.21,0,0,1-.64.56c-.23.09-.55.06-.74.23s-.09.49.08.67.73.27,1.11.35.66.26.44.66-.79.71-1.09,1.14a1.39,1.39,0,0,0-.2.82,9.14,9.14,0,0,1,0,1,3.85,3.85,0,0,1-.41,1.67c-.72,1.18-1.62-.58-2.12-1.07-.93-.89-2.32-1-3.25-1.84a2.54,2.54,0,0,1-.66-1.51,7,7,0,0,0-.5-1.87A1.12,1.12,0,0,0,35,75c-.29.08-.58.21-.87.29s-.62.12-.92.18a5.14,5.14,0,0,0-.94.3,2,2,0,0,1-.95.31c-.71-.08-.27-.93-.13-1.3a1.25,1.25,0,0,0-.35-1.46c-.56-.48-.86.42-1.11.79a4.92,4.92,0,0,1-.63.66c-.27.24-.5.51-.74.77a5,5,0,0,1-.73.64,3,3,0,0,0-.7.58c-.12.16-.22.45-.44.49s-.32-.27-.36-.45c-.13-.59-.13-1.09-.72-1.41a2,2,0,0,0-1.53-.15,2.51,2.51,0,0,0-.81.28,1.55,1.55,0,0,0-.49.72c-.18.5-.15,1.18-.73,1.4a1.66,1.66,0,0,1-1.42-.32c-.54-.35-1-.77-1.58-1.09s-1.1-.38-1.42-.84a.89.89,0,0,1,.19-1.23c.17-.11.75-.28.67-.57s-.41-.26-.56-.28c-.3-.05-.6,0-.89-.07a2.94,2.94,0,0,1-1.47-.81,6.73,6.73,0,0,1-1.22-1.64,3.41,3.41,0,0,1-.34-.94,2.79,2.79,0,0,0-.36-.81,3.36,3.36,0,0,1-.41-.71c-.06-.28.18-.53.33-.73a3.54,3.54,0,0,0,.5-1.6,1.69,1.69,0,0,1,1-1.16,4.64,4.64,0,0,0,1.46-1.06,3.58,3.58,0,0,0,.93-1.44,1.58,1.58,0,0,0-.6-1.35c-.41-.47-.52-1.09-.93-1.56a14.78,14.78,0,0,1-1.21-1.53c-.36-.54-.4-1.2-.74-1.73a10.48,10.48,0,0,0-1.21-1.44,13.8,13.8,0,0,1-1.25-1.5,1.09,1.09,0,0,1-.25-.81,2.21,2.21,0,0,0,.06-.92c-.07-.27-.23-.52-.3-.79a4.52,4.52,0,0,0-.17-.83c-.22-.45-.73-.55-1-.91s-.12-1.09.19-1.5a1.56,1.56,0,0,1,.59-.49,4.89,4.89,0,0,0,.76-.27c.48-.33.23-1.13.31-1.61a4.73,4.73,0,0,1,.28-.88c.1-.26.3-.6.2-.89a1,1,0,0,0-.53-.44,1.83,1.83,0,0,1-.67-.46,1.71,1.71,0,0,1-.37-.78c-.05-.36,0-.72,0-1.08a2.28,2.28,0,0,0-.94-1.43A6.87,6.87,0,0,1,8,38c-.28-.34-.65-.87-.51-1.33s.75-.45,1.14-.48a5.31,5.31,0,0,0,1.9-.32,1.35,1.35,0,0,0,.71-1.37,5.37,5.37,0,0,0-.43-1.85c-.15-.34-.57-1-.16-1.28a2,2,0,0,1,.7-.21l1-.28c.53-.16,1-.37,1.07-1,0-.3,0-.61,0-.92a5.23,5.23,0,0,1,.09-1,1.8,1.8,0,0,1,.51-1.22c.44-.31,1.08-.24,1.55-.49.24-.13.4-.26.3-.54a1.18,1.18,0,0,1-.13-.88c.16-.51.65-.82.87-1.29a3,3,0,0,0,.23-.93A.83.83,0,0,1,17,22.12Z"/></g></svg>