<svg xmlns="http://www.w3.org/2000/svg" viewBox="0 0 100 100"><g id="Baara"><path d="M70.47,12.81a2.23,2.23,0,0,1,.44.13c.35.14.69.28,1,.44s.71.35,1.08.49a2.83,2.83,0,0,0,1.11.23,4.22,4.22,0,0,1,1.12.17,10,10,0,0,0,1.2.2l1.14.18a7.43,7.43,0,0,0,1.15,0,6.1,6.1,0,0,0,1.13-.11,9.71,9.71,0,0,0,1-.31,5.13,5.13,0,0,1,1-.39,1.57,1.57,0,0,1,.48,0,1,1,0,0,1,.41.2c.28.19.49.46.78.63a2.8,2.8,0,0,1,.41.25,3.3,3.3,0,0,1,.91,1.38,3.78,3.78,0,0,1,.16,1.06,4.53,4.53,0,0,0,.18,1.16,6.14,6.14,0,0,0,.41,1,13.19,13.19,0,0,0,1.25,2,10.5,10.5,0,0,1,1.14,2,2.19,2.19,0,0,0,.2.44.58.58,0,0,0,.39.24c.14,0,.29,0,.43.06a1.5,1.5,0,0,1,.46.22,1.79,1.79,0,0,1,.63.68c.08.14.14.29.23.43a4.7,4.7,0,0,0,.35.43c.23.26.46.53.7.78a.87.87,0,0,1,.23.42,2,2,0,0,1,0,.54,1.13,1.13,0,0,1-.22.42.8.8,0,0,0-.09.53,2.57,2.57,0,0,1-.06,1.07,2.23,2.23,0,0,1-.57.88c-.13.13-.26.26-.4.38a1.24,1.24,0,0,0-.31.34,1,1,0,0,0,0,.48c0,.12,0,.3,0,.4a.81.81,0,0,1-.41.15l-.51.17c-.33.11-.68.17-1,.3a5,5,0,0,0-.92.66,8.53,8.53,0,0,1-1,.68.69.69,0,0,1-.47.05l-.53-.11a2.19,2.19,0,0,1-.86-.65,3.13,3.13,0,0,1-.76-.78c-.08-.15-.13-.32-.2-.47a.84.84,0,0,0-.35-.35,4.67,4.67,0,0,0-.49-.27.65.65,0,0,0-.51,0c-.16.06-.32.14-.49.19a.67.67,0,0,0-.41.22,3.23,3.23,0,0,0-.22.41l-.28.57c-.07.16-.14.33-.2.5s-.06.29-.18.35a1.27,1.27,0,0,1-.48.08,4.17,4.17,0,0,0-.51.08.57.57,0,0,0-.3.27c-.11.17-.23.33-.33.5a1.39,1.39,0,0,0-.2,1,.74.74,0,0,1,0,.51,3.38,3.38,0,0,1-.24.51,8.1,8.1,0,0,1-.58.86,3.79,3.79,0,0,1-.32.38,3.11,3.11,0,0,1-.38.25.23.23,0,0,0-.07.33c.06.17.13.34.18.51a3,3,0,0,0,.18.5,4.3,4.3,0,0,0,.29.45.76.76,0,0,1,.13.41,1.68,1.68,0,0,1,0,.5.32.32,0,0,1-.26.19,4.94,4.94,0,0,0-.52.13.65.65,0,0,0-.37.23,1.15,1.15,0,0,1-.34.32,9.33,9.33,0,0,0-.84.55.7.7,0,0,0-.28.31.32.32,0,0,1-.3.25c-.16,0-.22.13-.3.25a2.3,2.3,0,0,1-.35.41,2.38,2.38,0,0,1-.4.31.92.92,0,0,1-.52,0c-.23,0-.63.24-.54.52,0,.11.17.23.13.36s-.2.17-.27.26-.14.27-.26.36a1.37,1.37,0,0,1-.45.13,1.24,1.24,0,0,0-.42.15,3.09,3.09,0,0,0-.39.33,5.51,5.51,0,0,1-.88.57,1.78,1.78,0,0,0-.38.28c-.05,0-.09.12-.15.18a.24.24,0,0,1-.21.08c-.28,0-.06.41-.33.46s-.47-.22-.63,0,0,.26.13.33.23.14.24.29a2,2,0,0,1-.07.54c0,.15,0,.28.11.37s.24.09.29.23a.65.65,0,0,1,0,.24,1.71,1.71,0,0,0,0,.32,1.05,1.05,0,0,1-.07.5,1.22,1.22,0,0,0-.13.53,2.64,2.64,0,0,0,0,.28.53.53,0,0,0,0,.18c.06.16.25,0,.36,0,.37,0,.55.36.83.51a.72.72,0,0,0,.48,0,3.1,3.1,0,0,1,.61,0,10.5,10.5,0,0,0,1.12.2,1.33,1.33,0,0,0,.93-.23,1.07,1.07,0,0,1,.42-.28,2,2,0,0,1,.55,0,2,2,0,0,1,.42,0c.17,0,.1.33.1.46s0,.39,0,.59a2.47,2.47,0,0,0,0,.61,2.49,2.49,0,0,1,.12.47,1.78,1.78,0,0,0,.1.56,4.73,4.73,0,0,1,.2.47,1.35,1.35,0,0,1,0,.53,4.34,4.34,0,0,0,0,.51.36.36,0,0,0,.23.32l.48.18a2.4,2.4,0,0,1,.53.27c.14.09.28.2.41.3a.33.33,0,0,1,.13.43c-.07.16-.16.32-.22.49a2.59,2.59,0,0,0-.11.54,3.1,3.1,0,0,0,0,1c.07.24.3.41.34.67s-.41.34-.63.39-.68.06-1,.13a.78.78,0,0,0-.41.19,1.71,1.71,0,0,0-.37.39.67.67,0,0,0,0,.42,4.17,4.17,0,0,1,0,.61,3,3,0,0,1-.21.93,1.33,1.33,0,0,1-.2.37.78.78,0,0,1-.43.2,2.51,2.51,0,0,0-1,.29,1.19,1.19,0,0,1-.35.25.88.88,0,0,1-.48-.06,1.28,1.28,0,0,0-1,.25c-.12.11-.21.25-.32.36a4.83,4.83,0,0,1-.38.4,10.13,10.13,0,0,1-.9.72,4.89,4.89,0,0,0-.86.78,3.1,3.1,0,0,1-.72.68.86.86,0,0,1-.46.14,2.27,2.27,0,0,1-.54-.22,3,3,0,0,0-.49-.21,1.36,1.36,0,0,0-.6,0,2,2,0,0,1-.55,0,1.45,1.45,0,0,1-.46-.09c-.15-.07-.1-.19-.14-.31s-.2-.14-.33-.14a1.53,1.53,0,0,1-.91-.46c-.29-.21-.68-.27-.92-.54-.11-.12-.18-.27-.29-.39a1.37,1.37,0,0,0-.45-.3.56.56,0,0,0-.49,0,.89.89,0,0,1-.45.15,2.38,2.38,0,0,1-.53-.11,3.74,3.74,0,0,1-.57-.17L59,64.56a.56.56,0,0,1-.33-.36c-.1-.24-.19-.63-.48-.68l-.51-.07a2.18,2.18,0,0,1-.55-.22A3.56,3.56,0,0,0,56,62.92c-.18,0-.37-.06-.55-.09a1,1,0,0,0-.52,0c-.27.1-.42.42-.71.48a1,1,0,0,1-.49-.09,1.34,1.34,0,0,0-.56,0,.74.74,0,0,1-.44,0c-.14-.05-.17-.22-.29-.29s-.19,0-.23.13-.07.29-.22.33a.78.78,0,0,1-.37-.05l-.58-.1-.51-.1a.34.34,0,0,0-.35.17c-.22.31-.46.6-.69.9l-.34.48a2.83,2.83,0,0,0-.32.45c-.07.16.1.19.22.21s.38.09.57.14l.53.12a.55.55,0,0,1,.39.21c.08.13.13.27.2.41s.1.31.23.35.26-.1.36-.16.26-.08.36.07.15.24.23.36.15.27.29.33a1,1,0,0,0,.48,0,1.32,1.32,0,0,1,.55.11,1.22,1.22,0,0,0,.5.11,3.31,3.31,0,0,0,.55-.07,4.67,4.67,0,0,1,.52-.08.63.63,0,0,1,.46.14,10.71,10.71,0,0,0,.9.59c.69.38,1.43.68,2.14,1,.34.16.68.3,1,.43.13,0,.25.09.29.23s0,.23.06.34.19.12.31.1a1.43,1.43,0,0,1,.58,0,5,5,0,0,0,1.08.28c.41,0,.81,0,1.21.08a7.3,7.3,0,0,1,1.12.27,2.26,2.26,0,0,0,1,.17c.1,0,.34,0,.38-.15s-.13-.22-.17-.32.08-.17.18-.2a1.89,1.89,0,0,1,.41-.18c.16,0,.27.09.41.15s.33,0,.3.16-.21.15-.28.18a.84.84,0,0,0-.34.25,1.24,1.24,0,0,0-.11.43c0,.12,0,.24.06.33a2.31,2.31,0,0,0,.45.21.79.79,0,0,0,.45.13.56.56,0,0,1,.41.13l.48.38c.27.2.53.47.89.38a3.16,3.16,0,0,1,.53-.13c.18,0,.36.07.54.06a2,2,0,0,0,.84-.39c.1-.06.25-.18.38-.12a.88.88,0,0,1,.26.31c.21.31.07.72,0,1.06a.84.84,0,0,0,0,.47,1.09,1.09,0,0,1,.15.46,2.2,2.2,0,0,1-.18,1.05,1.09,1.09,0,0,0-.19.41.52.52,0,0,0,.21.35c.08.06.21.16.22.27s-.19.14-.27.18a.68.68,0,0,0-.35.27c-.08.13-.13.28-.21.4a.58.58,0,0,1-.34.24l-.53.16a1.7,1.7,0,0,1-.5.15c-.18,0-.3-.14-.45-.21s-.31-.09-.45-.16a.87.87,0,0,0-.55,0,.5.5,0,0,1-.44-.1c-.09-.08-.16-.2-.3-.16a.84.84,0,0,0-.31.25l-.43.34c-.13.11-.27.21-.4.33a3.54,3.54,0,0,0-.32.44.61.61,0,0,1-.43.19c-.18,0-.36.08-.54.12a1,1,0,0,0-.75.45,3.6,3.6,0,0,1-.28.4,1.54,1.54,0,0,0-.3.42,2.58,2.58,0,0,0-.18.46c0,.12-.07.26,0,.35s.48.21.42.32-.12,0-.16,0l-.24,0a2.4,2.4,0,0,0-.6,0,4.94,4.94,0,0,0-1,.4,5.5,5.5,0,0,1-1.12.32,3.9,3.9,0,0,1-1.18,0l-.55-.06c-.18,0-.35-.06-.52-.09-.32,0-.58.3-.7.56a1.65,1.65,0,0,0-.1.44,3.83,3.83,0,0,1-.1.59,3.41,3.41,0,0,1-.14.55.81.81,0,0,1-.29.39,4.14,4.14,0,0,1-.88.68,9.41,9.41,0,0,1-1.05.39,3.09,3.09,0,0,0-1,.46c-.13.1-.24.21-.36.32a8.61,8.61,0,0,1-.87.6,1.22,1.22,0,0,1-.53.1,11.23,11.23,0,0,1-1.16,0A8.39,8.39,0,0,1,49.77,87c-.77-.15-1.57,0-2.34-.22A11.86,11.86,0,0,1,45.18,86a.24.24,0,0,1-.13-.11c0-.06,0-.13,0-.19s-.28-.08-.39-.1a11.57,11.57,0,0,1-1.16-.29,1.33,1.33,0,0,0-.56-.06,1.1,1.1,0,0,0-.44.26,6.5,6.5,0,0,1-.74.65,2.25,2.25,0,0,1-.45.19.71.71,0,0,1-.53-.09,4.84,4.84,0,0,1-.93-.55,1.66,1.66,0,0,1-.56-.77,1.53,1.53,0,0,1,.13-1c.13-.31.29-.64,0-.92s-.54-.33-.7-.63a2.6,2.6,0,0,1-.18-1.07c0-.17,0-.35,0-.52a1.23,1.23,0,0,0-.2-.52,1.58,1.58,0,0,0-.31-.41,3.54,3.54,0,0,0-.46-.33,6.1,6.1,0,0,0-1-.55,8.1,8.1,0,0,1-2-.93,7.9,7.9,0,0,0-.84-.69,6.14,6.14,0,0,0-1-.54,15.65,15.65,0,0,0-2.25-.64,5.32,5.32,0,0,0-1.19-.22,1.89,1.89,0,0,1-.53-.08,4.84,4.84,0,0,0-.54-.17c-.17,0-.34,0-.52,0a1.14,1.14,0,0,1-.47-.19,1.87,1.87,0,0,0-1-.23c-.37,0-.73.15-1.1.2a3.18,3.18,0,0,1-1.19,0,11,11,0,0,0-1.15-.18c-.4,0-.79-.13-1.18-.21a10.39,10.39,0,0,0-1.23-.17c-.4,0-.81,0-1.21,0A6.25,6.25,0,0,1,18,74.68c-.39-.09-.78-.16-1.16-.26a16.47,16.47,0,0,1-2.17-.89,15.88,15.88,0,0,1-2.1-1.06c-.33-.2-.64-.43-1-.62a4.83,4.83,0,0,0-1.06-.4c-.37-.1-.75-.17-1.14-.24l-.55-.11A2.83,2.83,0,0,1,8.45,71c-.13,0-.15-.12-.08-.22s.2-.26.28-.4A1.44,1.44,0,0,0,8.84,70a5.8,5.8,0,0,0,0-.59c0-.19,0-.38,0-.57a.36.36,0,0,1,.19-.34c.14-.07.28-.08.39-.2a.63.63,0,0,0,.13-.45,6.5,6.5,0,0,1,.3-2.23,3.75,3.75,0,0,0,.33-1.08,6.46,6.46,0,0,0-.07-1.16,1.65,1.65,0,0,1,.23-1c.13-.25.31-.6.6-.7s.55.25.77.41a.73.73,0,0,0,.39.2c.14,0,.23-.15.31-.24a8.5,8.5,0,0,1,.82-.77,2.22,2.22,0,0,1,1-.45,8.54,8.54,0,0,0,1-.18,1.13,1.13,0,0,0,.67-.63,8,8,0,0,0,.28-1,5.7,5.7,0,0,1,.31-1.07,1.22,1.22,0,0,1,.62-.54,4.24,4.24,0,0,1,1-.4,2.62,2.62,0,0,1,1.08,0,2.29,2.29,0,0,1,.82.46A13.1,13.1,0,0,1,21.33,59a2.52,2.52,0,0,0,.84.68,2.2,2.2,0,0,0,1,.3.5.5,0,0,0,.27-.07c.1-.06.08-.14,0-.15s-.21,0-.24-.09a2.6,2.6,0,0,0-.09-.47,2.13,2.13,0,0,0-.23-.42,4.59,4.59,0,0,1-.33-.44.48.48,0,0,1,0-.48,3.29,3.29,0,0,1,.33-.41,6.36,6.36,0,0,0,1.31-1.78,1.93,1.93,0,0,0,.16-1.06.8.8,0,0,0-.18-.41c-.1-.11-.25-.18-.28-.35,0-.33.38-.42.48-.68s.08-.3.13-.45a.43.43,0,0,0-.1-.47,2.2,2.2,0,0,1-.49-1,.91.91,0,0,1,0-.49,1.68,1.68,0,0,1,.27-.42.58.58,0,0,0,.17-.39,1.77,1.77,0,0,0-.15-.46c-.06-.16-.15-.31-.2-.47a.75.75,0,0,1,.05-.55,3.68,3.68,0,0,1,.23-.49c.1-.15.23-.29.33-.45A2.51,2.51,0,0,0,25,46.46a4.46,4.46,0,0,1,.07-.51,1.71,1.71,0,0,1,.29-.48,1.74,1.74,0,0,1,.87-.45,2.94,2.94,0,0,1,1.14-.19,9.43,9.43,0,0,1,1.17.17c.39.07.79.13,1.18.21s.78.18,1.17.22a5.9,5.9,0,0,0,1.19,0,3,3,0,0,0,1.07-.22,4.16,4.16,0,0,0,.73-.6,2.13,2.13,0,0,1,1-.26,3.21,3.21,0,0,0,1.05-.37,1.09,1.09,0,0,0,.37-.3c.1-.15.18-.31.27-.47.18-.32.37-.65.58-1a8.57,8.57,0,0,0,.59-.89c.17-.32.27-.66.44-1a5.06,5.06,0,0,1,.66-.93c.24-.29.5-.55.77-.82a9.85,9.85,0,0,1,.83-.75,8.79,8.79,0,0,1,1-.61,9,9,0,0,0,.89-.63,3.55,3.55,0,0,1,.9-.53c.35-.14.71-.26,1.07-.39s.75-.27,1.13-.38.76-.16,1.13-.29a5,5,0,0,0,1.66-1.32,14.39,14.39,0,0,1,1.74-1.47,6.51,6.51,0,0,1,1-.57A5.57,5.57,0,0,1,52,31.35c.12,0,.28-.07.38,0a1.39,1.39,0,0,1,.11.21,1.13,1.13,0,0,0,.16.26,1.42,1.42,0,0,0,.32.37.8.8,0,0,0,.53.06,10.15,10.15,0,0,0,2.19-.76,5.84,5.84,0,0,0,1-.46,3,3,0,0,0,.67-.78l.66-1a4.46,4.46,0,0,1,.7-.86,3.68,3.68,0,0,0,.35-.33.81.81,0,0,0,.21-.46,5.38,5.38,0,0,0,.07-1.2c-.05-.81-.1-1.62-.21-2.42a.84.84,0,0,1,.3-.88c.25-.2.54-.35.79-.56a1.38,1.38,0,0,0,.46-.87,2.86,2.86,0,0,0-.07-1.09,2.46,2.46,0,0,1-.07-1.11,5.18,5.18,0,0,1,.26-1.1,4.16,4.16,0,0,1,1.41-1.65l.91-.79.41-.35c.14-.1.3-.18.43-.29a9.71,9.71,0,0,0,.75-.81,8,8,0,0,1,.83-.71,3.72,3.72,0,0,1,2-.78,11.42,11.42,0,0,0,1.17,0c.37,0,.71-.21,1.08-.25A2.5,2.5,0,0,1,70.47,12.81Z"/></g></svg>