<svg xmlns="http://www.w3.org/2000/svg" viewBox="0 0 100 100"><g id="Baara"><path d="M9.53,9.59c.33-.48,1-.77,2.22-.94.79-.11,1.58-.13,2.37-.17a8.61,8.61,0,0,1,1.9,0,10.61,10.61,0,0,1,1.88.85,3.34,3.34,0,0,0,1.91-.27c.4-.11,1.12-.35,1.17.25a7,7,0,0,1-.28,1.49c0,.34-.1,1.41.2,1.66s1-.16,1.29-.28a2.3,2.3,0,0,1,1-.25,7.14,7.14,0,0,0,1,.14c.58,0,1.13-.49,1.7-.43s.91.92,1.42,1.26a4.06,4.06,0,0,0,1.72.44,4.41,4.41,0,0,0,1,0,5.51,5.51,0,0,0,1.1-.38,1.48,1.48,0,0,1,1.44.53A19.72,19.72,0,0,0,34.21,15a3.85,3.85,0,0,0,1.67.62,1.89,1.89,0,0,1,1.24.89c.28.42.48.88.8,1.27a3.94,3.94,0,0,0,.66.63c.31.25.43.23.75,0a13.56,13.56,0,0,1,1.44-1.28c.62-.38,1.33-.86,2.07-.55s1.27.68,1.92,1a3.15,3.15,0,0,0,2.05.5,3.57,3.57,0,0,1,1.69-.43,6.5,6.5,0,0,1,2,.84c.67.35,1.34.69,2,1.07a3,3,0,0,0,2.06.46c.76-.08,1.5-.18,2.26-.19s1.68.1,2.53.09,1.47-.28,2.2-.23,1,.63,1.63.76,1.06-.33,1.68-.37a3,3,0,0,1,1.07.22,10.87,10.87,0,0,0,1.26.27,36.73,36.73,0,0,1,4.55,1.4,11.4,11.4,0,0,1,2,.74,14.21,14.21,0,0,0,1.87.94,4,4,0,0,0,2,0,9,9,0,0,1,2.17.34c1.58.14,2.43-1,3.53-1.88A4.35,4.35,0,0,1,85,21.12,9.63,9.63,0,0,1,87.17,21c1.16,0,2.46-.23,3.14.93a6,6,0,0,1,.7,1.83,8,8,0,0,1-.33,2.2c0,.45.06.91-.44,1.09s-1.2-.3-1.73-.6-1.3-.7-2-1a1.61,1.61,0,0,0-1.77.16,1.7,1.7,0,0,0-.59,1.46,3.57,3.57,0,0,1,0,1c-.1.41-.27.79-.34,1.21a6.8,6.8,0,0,1-.5,1.83c-.33.71-.66,1.4-.94,2.13a8.51,8.51,0,0,1-1,1.8,6.89,6.89,0,0,0-.88,2c-.4,1.37-1.62,2.23-2.1,3.56a4.92,4.92,0,0,0,.08,3.91c.29.49.7.9,1,1.41a4.24,4.24,0,0,1,.34,2,7,7,0,0,1-.37,2c-.23.69-.75,1.16-.78,1.92a18.38,18.38,0,0,0,.16,2.09,5.11,5.11,0,0,1,.06,1.1c0,.34-.21.44-.42.66-.43.46.47.43.67.73s-.22.7-.08,1.06c.09.21.42.35.56.52a1.14,1.14,0,0,1,.26.58,15.56,15.56,0,0,0,.12,2.16A2.7,2.7,0,0,0,81,62.24a7.79,7.79,0,0,1,.85.56,2.42,2.42,0,0,1,.58.87,15.28,15.28,0,0,1,.68,2c.07.26.17.52.23.79s.08.58-.35.61c-.66,0-1.38-.11-2-.12-.87,0-1.74,0-2.61-.07-1.71-.08-3.41-.22-5.12-.3-3.38-.16-6.76-.31-10.14-.54-1.71-.12-3.41-.29-5.12-.45s-3.27-.06-4.92-.14a71.31,71.31,0,0,0-9.91-.24.8.8,0,0,0-.77,1c.06.7.63.8,1.18,1,1.22.47.71,1.84.31,2.74a2.47,2.47,0,0,1-1.33,1.19c-.42.22-1.22.56-1.29,1.1s.74,1.3,1.06,1.66a12.91,12.91,0,0,0,1.63,1.51c.43.36,1.09.77,1.28,1.33a1.48,1.48,0,0,1-.27,1.2A12.1,12.1,0,0,1,42.78,80a5.25,5.25,0,0,0-1.17,1.48,3.9,3.9,0,0,0-.32,1.07,11.51,11.51,0,0,1-.06,1.18c-.12.52-.6.71-1,.9a2,2,0,0,0-1.11,1.06,8.13,8.13,0,0,1-1.22,1.7,11.35,11.35,0,0,0-1.18,1.66c-.74,1.17-2.14,1.43-3.32,2s-2.42-.45-3.71,0c-.29.09-.32.25-.54.42a1.11,1.11,0,0,1-.76.11,18.63,18.63,0,0,1-2.48-.28,6.31,6.31,0,0,1-3.42-2.08c-.5-.51-1-1-1.47-1.54a2.25,2.25,0,0,1-.76-1.84c.07-.63.54-1.07.67-1.67a1.66,1.66,0,0,0-.52-1.66c-1.27-.9-2.48-1.8-3.68-2.8a8.9,8.9,0,0,0-1.5-1.17c-.69-.36-1.42-.63-2.11-1a10.6,10.6,0,0,1-1.49-.88c-.19-.15-.34-.26-.27-.51s.19-.27.25-.4a3.33,3.33,0,0,0,.18-.56,1.45,1.45,0,0,1,.55-.85c.18-.12.4-.14.58-.25.62-.42.13-1-.33-1.24s-1.3-.66-1.49-1.31a3.44,3.44,0,0,1,.51-2.17c.27-.54.77-1.14.72-1.77a2.6,2.6,0,0,0-.23-.91,4,4,0,0,1-.46-.92,4.14,4.14,0,0,1-.13-1c0-.26.23-.45.28-.7.12-.54-.23-1.18.2-1.62s.89-.53,1.18-1a2.49,2.49,0,0,0,.24-1.05c.06-.43.14-.85.22-1.28a4.14,4.14,0,0,0,0-2c-.16-.62-.79-1-1.1-1.54a10.48,10.48,0,0,0-.47-1c-.18-.26-.42-.49-.6-.75-.39-.54-.39-1.16-.9-1.64a10.29,10.29,0,0,1-1.12-1.42c-.17-.22-.49-.54-.36-.85s.51-.46.68-.66a9.52,9.52,0,0,1,1-1.33,1.48,1.48,0,0,0,.66-1.39,7.16,7.16,0,0,1,1.4-4.13,6.29,6.29,0,0,0,.9-1.77,4.11,4.11,0,0,0-.29-2.16C13,37.35,12,36.4,11.93,35.11a9.45,9.45,0,0,1,.43-2.29,16,16,0,0,0,.28-2.4c0-.76,0-1.51.11-2.26a6.31,6.31,0,0,0-.08-2.56c-.21-.69-.53-1.33-.73-2a16.88,16.88,0,0,0-.72-2.29,4,4,0,0,1-.63-1.94,8.07,8.07,0,0,0-.25-2.18c-.15-.75-.19-1.52-.3-2.28s-.27-1.52-.45-2.27C9.27,11.18,9.1,10.22,9.53,9.59Z"/></g></svg>