<svg xmlns="http://www.w3.org/2000/svg" viewBox="0 0 100 100"><g id="Baara"><path d="M63.27,21.34a.74.74,0,0,1,.32.05,12.75,12.75,0,0,1,2,.48,4.8,4.8,0,0,1,.88.51,7.08,7.08,0,0,0,.89.51l1,.43,1,.48a6.21,6.21,0,0,0,1,.35c.34.09.69.14,1,.21a6.29,6.29,0,0,0,1.06.15,9.4,9.4,0,0,1,1.06,0c.35,0,.7.12,1,.18s.72.08,1.08.16c.15,0,.3.08.45.1a2.09,2.09,0,0,0,.56,0c.36-.05.7-.15,1.06-.19a1.62,1.62,0,0,1,.49,0,1,1,0,0,1,.48.17.76.76,0,0,0,.38.16,1.67,1.67,0,0,1,.5,0c.14,0,.27.12.42.15s.37,0,.55.06c.35.06.69.15,1,.24s.68.15,1,.24a3.73,3.73,0,0,1,.94.41,5.66,5.66,0,0,1,.82.56,3.49,3.49,0,0,0,.77.55c.32.15.67.24,1,.38a4.89,4.89,0,0,1,.86.49,2.29,2.29,0,0,1,.63.61.93.93,0,0,1,.18.42c0,.17,0,.35,0,.52a1.19,1.19,0,0,0,.06.46,1.08,1.08,0,0,0,.2.45c.17.18.44.27.55.5a.53.53,0,0,1,0,.41c-.06.15-.11.31-.18.45a.74.74,0,0,0,0,.44.86.86,0,0,0,.13.38,1.59,1.59,0,0,0,.29.35,2.8,2.8,0,0,0,.4.27c.13.08.26.13.39.2s.24.15.38.11l.21-.08a.9.9,0,0,0,.21-.08,1.34,1.34,0,0,0,.31-.27L91,33a.59.59,0,0,1,.38-.16,4.12,4.12,0,0,1,.91.2,1.06,1.06,0,0,1,.83,1.28c0,.17-.06.33-.09.51a1.31,1.31,0,0,1-.12.44,1.85,1.85,0,0,1-.29.33c-.12.14-.22.28-.33.42a1,1,0,0,0-.2.37,1.29,1.29,0,0,0,0,.48,1.2,1.2,0,0,0,.21.34c.08.13,0,.19-.14.25a7,7,0,0,1-1,.35l-.45.15-.21.06a.23.23,0,0,0-.19.1.59.59,0,0,0,0,.19l-.06.24c0,.18-.09.35-.14.52a4.75,4.75,0,0,0-.15,1.06,4,4,0,0,0,0,.49,1.62,1.62,0,0,1,0,.54.76.76,0,0,1-.24.35,1.1,1.1,0,0,1-.4.24l-.46.11-.55.15c-.31.08-.61.2-.91.31s-.06.21,0,.33a4.05,4.05,0,0,0,.12.5c.06.16.14.31.19.47a4.76,4.76,0,0,1,.1.52,1.86,1.86,0,0,0,.09.48,1.52,1.52,0,0,1,.12.51c0,.17,0,.34,0,.5a.65.65,0,0,1,0,.2.56.56,0,0,1-.16.21c-.11.1-.22.21-.32.32a.84.84,0,0,1-.44.22,7.22,7.22,0,0,1-1,.14,3.91,3.91,0,0,0-1.07.16l-.19.07a.3.3,0,0,0-.17.1s0,.13,0,.19a2,2,0,0,0,0,.26,3.16,3.16,0,0,0,.16.43c.07.13.13.28.21.41a1.88,1.88,0,0,0,.7.67,3.66,3.66,0,0,1,.8.49,2.42,2.42,0,0,1,.61.74,1.67,1.67,0,0,1,.13.45,1.88,1.88,0,0,1,.06.53c0,.14,0,.29,0,.43a.8.8,0,0,0,.15.47c.07.13.13.26.21.38a.67.67,0,0,0,.34.23,2.26,2.26,0,0,1,.77.53c.1.12,0,.23,0,.36l-.18.51c-.05.17-.11.33-.17.49a2.55,2.55,0,0,0-.15.54,2.36,2.36,0,0,0,0,.46,4.1,4.1,0,0,1,0,.49.26.26,0,0,1-.18.26,3.61,3.61,0,0,0-.46.17l-.45.22a.81.81,0,0,0-.35.31,4.05,4.05,0,0,0-.21.35,1.46,1.46,0,0,0-.12.5,1.85,1.85,0,0,0,0,.23.33.33,0,0,0,.08.19c.08.13.13.27.27.34a1.63,1.63,0,0,1,.38.17c.12.11.2.25.31.36a.4.4,0,0,1,.17.3,2.46,2.46,0,0,0,0,.47,1.12,1.12,0,0,0,.2.41,1.5,1.5,0,0,1,.18.41,1.38,1.38,0,0,1,0,.45,2.57,2.57,0,0,1-.11.48.4.4,0,0,0,0,.37,5,5,0,0,0,.3.45c.2.28.42.53.64.79.47.54.91,1.1,1.39,1.63a1.27,1.27,0,0,1,.26.39,4.24,4.24,0,0,1,.18.5c0,.15.06.3.1.45a.91.91,0,0,0,.24.4,5,5,0,0,1,.57.79c.2.28.46.49.68.75a1.15,1.15,0,0,1,.25.37c.07.15.1.32.18.47a4.6,4.6,0,0,0,.53.72,3.19,3.19,0,0,1,.26.38.75.75,0,0,1,.1.2,1.4,1.4,0,0,1,0,.29.75.75,0,0,1-.07.42c-.08.13-.19.26-.28.39a6.23,6.23,0,0,1-.57.78c-.11.12-.23.23-.35.34a3.11,3.11,0,0,1-.44.3c-.29.16-.6.3-.88.48a1.12,1.12,0,0,0-.51.66c-.08.32,0,.66-.14,1a2.8,2.8,0,0,1-.45.81c-.11.15-.42.54-.17.69.08,0,.17.07.14.18a.54.54,0,0,1-.25.34,1.71,1.71,0,0,1-.88.24,2.13,2.13,0,0,1-.5,0,1.8,1.8,0,0,1-.5-.15,4.21,4.21,0,0,1-1.41-1.1c-.23-.25-.47-.51-.72-.75l-.34-.31a1.64,1.64,0,0,0-.4-.29,4.09,4.09,0,0,0-1-.29c-.35-.07-.7-.12-1-.22A8.08,8.08,0,0,1,81,73.48a3.21,3.21,0,0,1-.77-.59,1.8,1.8,0,0,1-.4-.82,2.73,2.73,0,0,1-.06-.49,4.69,4.69,0,0,1,0-.53c0-.18,0-.35,0-.52a2.26,2.26,0,0,0,0-.52.73.73,0,0,0-.63-.53,1.47,1.47,0,0,0-.47,0l-.54.08-1,.13a4.55,4.55,0,0,1-1-.1l-.51-.06a1.71,1.71,0,0,0-.55,0,7.09,7.09,0,0,0-1,.25,5.79,5.79,0,0,1-1,.23c-.14,0-.28,0-.38.11a2.51,2.51,0,0,1-.25.32.86.86,0,0,1-.35.12,3.43,3.43,0,0,1-.56,0c-.35,0-.7,0-1.05-.06a4.4,4.4,0,0,1-.51,0,1.48,1.48,0,0,1-.5-.17,5.71,5.71,0,0,1-.84-.54,2.78,2.78,0,0,0-.83-.45,1.94,1.94,0,0,0-1,.07,7.14,7.14,0,0,0-.9.38,4.27,4.27,0,0,1-.48.13l-.23.07a.33.33,0,0,1-.24,0l-.4-.16c-.15-.08-.29-.18-.43-.27a2.46,2.46,0,0,0-.91-.35c-.35-.07-.71-.1-1.06-.17a1.78,1.78,0,0,0-.46,0,2.34,2.34,0,0,0-.5.14,1.41,1.41,0,0,0-.42.22l-.37.31a4.65,4.65,0,0,1-.91.54l-.4.2a.76.76,0,0,1-.47.06l-.49-.05a.67.67,0,0,1-.4-.18l-.78-.7a2.89,2.89,0,0,0-.74-.56,2.1,2.1,0,0,0-1-.13,9.21,9.21,0,0,0-1,.18,2.08,2.08,0,0,1-1-.15c-.33-.09-.63-.25-1-.33a.89.89,0,0,0-.43,0l-.22.08-.26.11a4.12,4.12,0,0,0-.85.52l-.88.68a2.55,2.55,0,0,1-.38.26,1.76,1.76,0,0,1-.5.18,5.25,5.25,0,0,1-1.05.07,10.32,10.32,0,0,0-1.11.06l-.47.07a2,2,0,0,0-.43,0c-.13,0-.18.2-.23.32a2.55,2.55,0,0,1-.23.43c-.18.32-.37.63-.54,1a4.11,4.11,0,0,0-.21.42c-.08.16-.13.32-.21.48s-.39.44-.62.63l-.38.32a2.39,2.39,0,0,0-.35.28.84.84,0,0,0-.14.37c0,.18-.09.36-.14.54a7,7,0,0,0-.28,1,3.54,3.54,0,0,1-.07.47c0,.18-.11.36-.15.54a2.47,2.47,0,0,1-.15.46c-.06.15-.15.28-.21.43a3.54,3.54,0,0,0-.07.47,1.22,1.22,0,0,1-.2.47c-.08.13-.16.25-.23.38a3.7,3.7,0,0,0-.25.43,1,1,0,0,0-.05.45.58.58,0,0,0,0,.18c.05.07.13.11.17.18s.08.22,0,.27a.65.65,0,0,1-.19,0l-.3,0-.47.08a2,2,0,0,1-.55-.05,1.28,1.28,0,0,1-.66-.48c-.09-.12-.17-.24-.27-.35a2.12,2.12,0,0,0-.39-.34,3.7,3.7,0,0,1-.69-.68,2.83,2.83,0,0,0-.32-.37,1.59,1.59,0,0,0-.41-.26,3.68,3.68,0,0,1-.44-.23l-.19-.13-.17-.19a.78.78,0,0,0-.36-.13,1.27,1.27,0,0,1-.44-.15,2.72,2.72,0,0,1-.38-.29,1.32,1.32,0,0,1-.26-.36.84.84,0,0,0-.19-.33,1.63,1.63,0,0,0-.19-.09,1.23,1.23,0,0,1-.26-.12,4.52,4.52,0,0,0-.47-.18L33,76.33a3.91,3.91,0,0,1-.94-.4c-.3-.17-.6-.35-.88-.54a2.52,2.52,0,0,1-.35-.3,2.89,2.89,0,0,0-.29-.32,3.07,3.07,0,0,0-.85-.47.8.8,0,0,1-.29-.23,4.09,4.09,0,0,1-.25-.46c-.17-.31-.33-.61-.49-.93a2.4,2.4,0,0,0-.2-.39,1.2,1.2,0,0,0-.4-.3c-.13-.08-.25-.18-.39-.26a2.71,2.71,0,0,0-.49-.22c-.32-.11-.65-.21-1-.29a5.7,5.7,0,0,1-1-.29c-.31-.13-.6-.31-.91-.44a2.5,2.5,0,0,0-.48-.18.65.65,0,0,0-.45.07l-.46.2a.81.81,0,0,1-.51,0,1.84,1.84,0,0,0-.47-.07h-.2s-.14,0-.19,0,0-.1,0-.15l0-.25a2.54,2.54,0,0,0,0-.55c0-.16-.05-.31-.08-.47a.63.63,0,0,0-.14-.37c-.12-.11-.27-.2-.4-.3l-.39-.31c-.27-.24-.53-.5-.79-.74s-.53-.47-.8-.69a4.48,4.48,0,0,0-.8-.57,11.85,11.85,0,0,0-2-.67c-.34-.1-.66-.21-1-.3a7,7,0,0,0-1-.19.63.63,0,0,0-.4.12,1.59,1.59,0,0,0-.41.26.46.46,0,0,1-.36.16.71.71,0,0,1-.43-.11A.94.94,0,0,1,12.3,65a2.73,2.73,0,0,0-.25-.48,5.72,5.72,0,0,0-.56-.8,4,4,0,0,0-.81-.61c-.28-.19-.57-.38-.87-.55a3.28,3.28,0,0,1-.85-.5c-.1-.1-.17-.23-.28-.32a.72.72,0,0,0-.45-.13l-.46,0a1,1,0,0,1-.5-.05,2.74,2.74,0,0,1-.36-.32l-.37-.29a.24.24,0,0,1-.12-.16.63.63,0,0,1,0-.24c0-.18.06-.36.1-.54a10,10,0,0,1,.3-1A2.15,2.15,0,0,1,7,58.58c.07-.15.15-.29.21-.44a8.52,8.52,0,0,0,.33-1c0-.14.07-.29.1-.44s0-.37,0-.55a1,1,0,0,1,.18-.44l.28-.44c.21-.31.4-.62.6-.94a5.32,5.32,0,0,0,.49-.91L9.43,53a1.34,1.34,0,0,0,.05-.49c0-.14.11-.19.22-.26S10,52,10.1,52a1.44,1.44,0,0,1,.91-.12l.51.09a1,1,0,0,0,.24,0,.63.63,0,0,0,.24-.09,2.16,2.16,0,0,1,.41-.13,2.19,2.19,0,0,0,.49-.17,1.64,1.64,0,0,1,.95-.15,4,4,0,0,0,.49,0,.82.82,0,0,1,.48.14c.26.18.5.4.75.6a2,2,0,0,0,.83.41,3,3,0,0,0,1,0,2.22,2.22,0,0,1,1,0,1.23,1.23,0,0,1,.62.53.79.79,0,0,0,.28.32,1.2,1.2,0,0,0,.46.16,2.27,2.27,0,0,0,.45,0,.81.81,0,0,1,.22.07,1.17,1.17,0,0,0,.26.1,2.62,2.62,0,0,1,.46.19,5.14,5.14,0,0,0,.47.23,2.2,2.2,0,0,0,.44.12,1.37,1.37,0,0,1,.47.19,1.28,1.28,0,0,0,.4.21,2,2,0,0,0,.48.08l.48,0a.84.84,0,0,1,.44.22.54.54,0,0,1,.16.34,2.12,2.12,0,0,1,0,.5,7,7,0,0,0-.12,1v.52c0,.18-.05.36-.07.54a.88.88,0,0,0,.08.42,1.73,1.73,0,0,0,.25.41A.64.64,0,0,0,25,59a1.25,1.25,0,0,0,.47-.07c.14-.06.26-.15.4-.2a.72.72,0,0,1,.48,0,2,2,0,0,1,.83.45l.41.34a1.84,1.84,0,0,0,.34.27,1.16,1.16,0,0,0,1-.09,4.13,4.13,0,0,0,.88-.47c.27-.19.52-.41.79-.6a6.8,6.8,0,0,1,.91-.51c.3-.16.6-.31.89-.49s.57-.4.87-.57a3.28,3.28,0,0,1,.92-.34,6.58,6.58,0,0,0,1-.25,1.59,1.59,0,0,0,.76-.57,3.29,3.29,0,0,1,.61-.73.72.72,0,0,1,.19-.11,1.21,1.21,0,0,1,.18,0c.11,0,0-.13,0-.19a1,1,0,0,1-.2-.22,1.7,1.7,0,0,1-.16-.48c-.07-.35-.12-.7-.18-1.05,0-.16-.06-.33-.07-.5a2,2,0,0,1,0-.48,1.19,1.19,0,0,1,.53-.73,2.53,2.53,0,0,0,.7-.47c.06-.08.17-.19.15-.31s-.16-.17-.25-.2a1.39,1.39,0,0,0-.35-.09.54.54,0,0,1-.19-.07,1,1,0,0,1-.16-.19c-.1-.12-.24-.21-.35-.32a1.73,1.73,0,0,1-.31-.35,7.64,7.64,0,0,1-.57-.83c-.15-.3-.28-.6-.46-.89s-.38-.5-.52-.77a.84.84,0,0,1-.13-.46,1.71,1.71,0,0,1,.13-.54,3,3,0,0,1,.19-.41,1.88,1.88,0,0,0,.22-.45.41.41,0,0,0-.06-.4c-.08-.11-.19-.18-.27-.28a.3.3,0,0,1-.08-.32.31.31,0,0,1,.25-.18,1.32,1.32,0,0,1,.83.24,3.14,3.14,0,0,0,.87.36.86.86,0,0,0,.78-.22,1.32,1.32,0,0,0,.29-.79,1.31,1.31,0,0,1,.12-.44.92.92,0,0,1,.31-.34,1.68,1.68,0,0,1,.42-.22,4.37,4.37,0,0,0,.49-.23,6.41,6.41,0,0,1,.93-.41,2.08,2.08,0,0,0,.79-.48.9.9,0,0,0,.11-.77,1.24,1.24,0,0,1,0-.43,1.16,1.16,0,0,1,.25-.41,3.47,3.47,0,0,1,.31-.36c.11-.12.24-.23.36-.35a3.08,3.08,0,0,0,.61-.73,1.21,1.21,0,0,0,.18-.89,1.11,1.11,0,0,0-.15-.43,1.67,1.67,0,0,1-.25-.4,1.39,1.39,0,0,1-.05-.81.76.76,0,0,1,.17-.35,2.21,2.21,0,0,0,.29-.32.58.58,0,0,0,.12-.42.82.82,0,0,0-.28-.36A4,4,0,0,0,42,34a.7.7,0,0,1-.27-.37,1.68,1.68,0,0,1-.07-.5c0-.17,0-.34,0-.51a3.93,3.93,0,0,0-.06-.48,1.4,1.4,0,0,0-.2-.43,3.06,3.06,0,0,0-.3-.32,4.16,4.16,0,0,1-.32-.39c-.2-.28-.39-.57-.6-.84-.1-.12-.19-.24-.29-.34s-.24-.22-.35-.34a1.5,1.5,0,0,1-.23-.41A4.51,4.51,0,0,0,39,28.6a1.22,1.22,0,0,1-.11-.9c.09-.28.33-.48.44-.75a.81.81,0,0,0,.06-.46,1.14,1.14,0,0,1,0-.45c.08-.3.37-.44.6-.59a1.36,1.36,0,0,0,.51-.65,1.1,1.1,0,0,0-.25-.83c-.09-.14-.19-.26-.28-.39a.7.7,0,0,1-.14-.44c0-.13,0-.27.08-.37a.84.84,0,0,1,.4-.17,3.85,3.85,0,0,1,.48,0,2.9,2.9,0,0,1,.51,0l.52,0a1,1,0,0,0,.46,0c.28-.13.11-.6,0-.79s-.35-.56-.24-.89a1.47,1.47,0,0,1,.24-.37c.1-.13.21-.27.3-.41s.21-.5.42-.65a1,1,0,0,1,.86,0,2.53,2.53,0,0,1,.36.2.67.67,0,0,0,.5.08.57.57,0,0,0,.32-.18,1.08,1.08,0,0,0,.16-.42.51.51,0,0,1,.25-.29,2.22,2.22,0,0,1,.5-.1,2.88,2.88,0,0,1,.41,0,.31.31,0,0,1,.29.22.82.82,0,0,1-.15.42.57.57,0,0,0-.11.36c0,.13.21.17.32.2l.52.21c.14.06.29.13.44.18s.34.08.5.14.31.14.46.21A1.07,1.07,0,0,1,49,21a5,5,0,0,1,.64.66c.17.26.36.53.7.41a3.68,3.68,0,0,0,.45-.21,1.13,1.13,0,0,1,.48-.08h.24a2,2,0,0,1,.23.06c.17,0,.34,0,.52,0s.32.07.49.09a2.33,2.33,0,0,0,.53,0,4,4,0,0,0,1-.27,2.12,2.12,0,0,1,1-.23,2.27,2.27,0,0,0,.52,0,1.43,1.43,0,0,0,.46-.13c.3-.14.55-.37.9-.31a1,1,0,0,1,.63.44.86.86,0,0,1,.13.2.52.52,0,0,1,0,.21.65.65,0,0,0,.09.41.52.52,0,0,0,.35.18l.53.1a3.69,3.69,0,0,0,.46.08,15.62,15.62,0,0,0,1.57-.08,4.74,4.74,0,0,0,1-.37c.3-.16.57-.37.86-.54l.21-.12.18-.13A.21.21,0,0,1,63.27,21.34Z"/></g></svg>