<?xml version="1.0" encoding="UTF-8"?>
<svg width="700pt" height="700pt" version="1.1" viewBox="0 0 700 700" xmlns="http://www.w3.org/2000/svg">
 <path d="m164.64 427.91c3.9336-0.42188 7.9023 0.33594 11.41 2.168 6.6016-6.1055 14.715-10.344 23.496-12.277 8.7852-1.9297 17.926-1.4844 26.484 1.2891 3.8516 1.3281 8.1914 4.1289 7.7695 8.2617 0 3.0117-3.1484 5.0391-5.1797 7.3516-9.5195 10.711-1.0508 28 10.148 36.961 11.199 8.9609 25.48 15.68 31.078 28.84l-3.1484 19.809v-0.003906c-0.50391 2.3086-0.50391 4.6953 0 7 0.98047 3.7812 4.4805 6.2305 7 9.1016 10.148 11.059 7.5586 28 4.4102 43.051 15.281 8.5938 26.68 22.727 31.852 39.48 0.49219 3.1484 2.0781 6.0234 4.4805 8.1172 7 4.2695 14.422-7 22.469-6.1602 3.7812 0.42187 6.5781 3.5 9.9414 5.1094 13.23 6.4414 29.609-9.5195 42.84-3.0117 9.6602 4.8281 11.129 21.559 16.801 29.82 2.1016 3.0781 9.7305 9.8711 11.34 4.3398 0.42188-1.6797-0.83984-4.9688-0.55859-7l-0.003907 0.003906c0.54688-2.8242 1.6914-5.4961 3.3594-7.8398 2.2383-3.2773 5.2109-5.9883 8.6797-7.9102 9.5898-5.3906 21.98-8.0508 28-17.5 2.4727-4.8164 4.082-10.027 4.7617-15.398 4.0469-19.883 12.836-38.496 25.621-54.25 2.4492-2.3359 4.0742-5.4102 4.6172-8.75 0.42188-9.8711-17.711-15.121-14-24.359-7.793-9.6133-15.145-19.484-22.051-29.609l0.003907-0.003907c-4.4844-5.7422-7.7461-12.34-9.5898-19.391-2.3086-11.27 2.1016-22.539 5.0391-33.32 1.6719-5.2617 2.6602-10.723 2.9375-16.238 0-4.5508-2.7305-8.9609-2.2383-13.441 1.1367-4.8438 2.8281-9.5391 5.0391-14 3.4922-10.277 6.0938-20.84 7.7695-31.57 0.79297-10.105 3.0078-20.051 6.582-29.539 2.3672-5.1289 6.0625-9.5273 10.711-12.738 4.1289-2.7305 10.711-1.8906 14-6.2305 2.3867-4.8086 4.1055-9.918 5.1094-15.191 3.0781-6.1641 4.5938-12.992 4.4102-19.879-0.39453-1.7734-0.65234-3.5781-0.76953-5.3906 0.082031-2.4141 0.62891-4.7891 1.6094-7l7.9805-21c0.98047-2.4492 2.1719-5.1797 4.6914-5.9492h-0.003907c2.3711-0.48828 4.8086 0.40625 6.3008 2.3086 1.4062 1.9219 2.6016 3.9883 3.5703 6.1602 0.46875 0.98828 1.1641 1.8516 2.0312 2.5195 0.98828 0.63281 2.1172 1.0156 3.2891 1.1211 6.3711 1.1211 17.289 3.7812 20.09-3.7812 1.0156-5.8906 1.2969-11.887 0.83984-17.848 0.015625-0.84375 0.25781-1.6641 0.69922-2.3789 2.5195-3.3594 11.059 1.6094 14-2.6602 0.78125-1.2461 1.3242-2.6211 1.6094-4.0625 1.8906-7.9102 5.8789-15.168 11.551-21 0.83203-0.77344 1.543-1.668 2.1016-2.6602 0.39453-1.0508 0.58203-2.168 0.55859-3.2891 0.81641-8.9141 4.6445-17.281 10.852-23.73 0.41797-0.35156 0.73047-0.8125 0.91016-1.3281 0.12891-0.55469 0.12891-1.1289 0-1.6797-2.3086-5.1094-4.5508-10.289-7-15.469-2.4492-5.1797-5.5312-8.6797-0.55859-13.16l-0.003906-0.003906c1.0469-0.91016 1.9258-2 2.5898-3.2188 0.50391-0.71094 0.67969-1.6016 0.49219-2.4492-1.1211-3.5-21 0.98047-24.359 2.2383-3.3555 1.5195-6.375 3.6836-8.8906 6.3711-1.6797 1.6797-4.7617 7.6289-7 8.1914-2.2383 0.55859-10.57-6.5117-14-7.4883-0.35156 0-0.62891 0-0.76953-0.42188-0.074218-0.25391-0.074218-0.51953 0-0.76953 0.59766-4.6484 0.59766-9.3555 0-14-1.332-5.3438-4.1445-10.195-8.1211-14-3.7773-4.0781-8.9492-6.5781-14.492-7-5.6016 0.55859-8.0508 12.879-10.078 18.129 0 0.35156 0 0.76953-0.69922 0.98047-0.41016 0.13672-0.85156 0.13672-1.2617 0-11.551-2.0742-23.434-1.2305-34.578 2.4492-7 3.1484-13.16 8.6094-20.441 11.621-9.6406 3.625-20.301 3.4492-29.82-0.49219-2.0312-1.0508-7-5.1094-5.3203-7.8398 1.6797-2.7305 10.359-2.1016 12.809-3.7812 6.0195-3.9883 2.3789-11.27-4.2695-12.039h0.003906c-4.8125 0.03125-9.5 1.5195-13.441 4.2695l-25.691 14.699v0.003906c-6.2266 4.293-13.461 6.8984-21 7.5586-4.1602-0.019531-8.168-1.5625-11.27-4.3398-4.8984-4.4805-3.1484-8.1914-9.8711-9.6602-8.4883-2.3594-17.359-3.0273-26.109-1.9609-9.332 1.4414-17.391 7.3086-21.629 15.75-1.4688 2.9414-0.48828 3.0781-3.3594 4.0586-3.5781 0.45703-7.2031 0.45703-10.781 0h-21.488c-2.8633 0.31641-5.75 0.31641-8.6094 0-4.0586-1.1211-1.3984-0.35156-3.5-3.0781-1.9141-3.3867-5.2148-5.7656-9.0312-6.5117-4.9688-0.085937-9.918-0.67188-14.77-1.75-2.8398-1.2656-5.2812-3.2852-7.0586-5.8398-1.7773-2.5547-2.8203-5.543-3.0234-8.6484-0.46484-3.2695-0.72266-6.5664-0.76953-9.8711 0-7.3516-5.8086-4.8984-10.289-9.1719v0.003907c-3.0625-3.1055-5.2383-6.9727-6.3008-11.199-2.3086-7.7695-4.1992-17.219-11.621-20.441-2.4102-0.73047-4.75-1.668-7-2.8008-2.5625-2.4062-4.5703-5.3438-5.8789-8.6094-7.9805-13.16-27.16-11.828-42-8.8906-9.543 16.086-11.883 35.445-6.4414 53.34 4.457 13.242 5.6133 27.371 3.3633 41.16 8.2617 0.98047 20.301 7 14.422 17.289-2.3789 4.0586-7 6.3711-10.078 9.8711h-0.003906c-3.0156 3.9844-4.7734 8.7695-5.0625 13.754-0.28516 4.9883 0.91406 9.9453 3.4492 14.246 4.9844 8.6367 11.676 16.164 19.672 22.121-18.691 39.41-37.801 80.988-35 124.53v-0.003906c1.0391 6.2852 0.65625 12.719-1.1211 18.832-2.3086 5.7383-7.6289 10.219-9.0312 16.309-1.3984 6.0898 2.4492 14 4.7617 21 1.2539 5.6992 0.91406 11.633-0.98047 17.152-0.83984 5.25 1.8203 7.9102 6.0195 10.641 10.633 6.9883 23.469 9.8086 36.051 7.9102 5.8125-0.91016 11.48-2.5938 16.941-3.0117z"/>
</svg>
