<svg id="Parsa" xmlns="http://www.w3.org/2000/svg" viewBox="0 0 100 100"><path d="M90.54,40.83a.09.09,0,0,1,0,.09.76.76,0,0,1-.06.18c0,.08,0,.15-.07.22-.09.3-.15.61-.24.91s-.21.61-.33.9c-.24.58-.51,1.15-.78,1.72a6.24,6.24,0,0,0-.36.84c-.09.31-.16.62-.26.92a5.29,5.29,0,0,1-.69,1.64,4.51,4.51,0,0,1-1.42.94,4.08,4.08,0,0,0-1.26,1.22,9.64,9.64,0,0,1-1,1.42,6.87,6.87,0,0,0-.63.58,2.08,2.08,0,0,0-.42.7c-.09.29-.11.59-.18.87a2.21,2.21,0,0,1-.37.81c-.17.24-.41.43-.59.66a1.62,1.62,0,0,0-.32.69c-.06.26-.09.53-.15.78a3.61,3.61,0,0,1-.31.79c-.13.27-.29.53-.44.79l-.42.81A16.8,16.8,0,0,0,79.4,61,15.42,15.42,0,0,0,79,62.74a6.46,6.46,0,0,1-.58,1.72,8.81,8.81,0,0,1-1,1.43,8,8,0,0,0-1,1.57c-.29.58-.56,1.17-.82,1.76a5,5,0,0,0-.3.85A4.63,4.63,0,0,1,75,71l-.39.83-.38.89c-.12.28-.25.56-.35.84a3.52,3.52,0,0,0-.13.43,2.12,2.12,0,0,0,0,.5.72.72,0,0,1-.06.36.4.4,0,0,1-.32.16l-.41,0-.5.06c-.31,0-.63.06-.94.07s-.6,0-.77.22a1.37,1.37,0,0,0-.15.8,5.39,5.39,0,0,0,.22.88c0,.14,0,.29.07.43s.08.29.11.43a.73.73,0,0,1-.06.66.61.61,0,0,1-.32.16c-.13,0-.27.08-.41.12-.31.07-.62.14-.92.24s-.58.24-.87.35a2.05,2.05,0,0,1-.88.16c-.29,0-.56-.18-.85-.19a.79.79,0,0,0-.63.26c-.16.18-.24.42-.41.6a1,1,0,0,1-.6.31c-.44.12-.93.17-1.17.62-.11.21-.19.49-.45.56a1.86,1.86,0,0,1-.41,0,1.51,1.51,0,0,0-.42,0,3.19,3.19,0,0,1-.85.2,3.84,3.84,0,0,1-.9-.14c-.61-.13-1.2-.34-1.81-.49L58,81.19a5.05,5.05,0,0,1-.82-.3,6.15,6.15,0,0,0-.84-.34,5.14,5.14,0,0,1-.84-.35c-.25-.14-.51-.28-.78-.4a7,7,0,0,0-.91-.32,4.51,4.51,0,0,0-.88-.21,1,1,0,0,0-.77.23c-.23.17-.44.36-.66.55a5.47,5.47,0,0,1-.74.52c-.26.14-.53.26-.77.42a1.92,1.92,0,0,0-.57.6l-.23.37c-.08.12-.17.23-.24.34a.91.91,0,0,0-.14.34,1.68,1.68,0,0,0,0,.45.62.62,0,0,1,0,.38,1.18,1.18,0,0,1-.23.32,1.79,1.79,0,0,1-.67.51,3.93,3.93,0,0,1-.83.23,2,2,0,0,1-.9-.07c-.55-.21-.8-.79-1.09-1.26a1,1,0,0,0-.55-.5.86.86,0,0,0-.39,0,3.91,3.91,0,0,1-.49,0,3.32,3.32,0,0,1-.94-.12A2.1,2.1,0,0,1,42,82.3a1.33,1.33,0,0,1-.45-.66,3.5,3.5,0,0,0-.41-.73,1.5,1.5,0,0,0-.59-.53,2.52,2.52,0,0,0-.81-.19,7.5,7.5,0,0,1-.93-.15l-.89-.23c-.62-.16-1.22-.34-1.83-.55a9.32,9.32,0,0,0-1.83-.4l-.46,0c-.15,0-.31,0-.46,0a.51.51,0,0,1-.32-.17c-.08-.09-.13-.19-.21-.28s-.46-.2-.72-.23a1.79,1.79,0,0,1-.8-.25.88.88,0,0,1-.36-.68,2,2,0,0,0,0-.42.77.77,0,0,0-.19-.34,1.42,1.42,0,0,0-.25-.24c-.12-.08-.26-.12-.39-.19a2.06,2.06,0,0,1-.5-.56.9.9,0,0,0-.68-.34,4.63,4.63,0,0,1-.91,0c-.28-.08-.54-.23-.82-.34s-.61-.21-.92-.3a14.35,14.35,0,0,0-1.85-.48c-.3,0-.61-.09-.91-.17a3,3,0,0,1-.79-.31,3.69,3.69,0,0,1-.64-.48,1.71,1.71,0,0,1-.5-.69c0-.13-.06-.27-.1-.41a2.31,2.31,0,0,0-.16-.41,5.27,5.27,0,0,0-.46-.7,4.64,4.64,0,0,1-.41-.8,4.94,4.94,0,0,0-.41-.79,8.37,8.37,0,0,0-.53-.79,3,3,0,0,0-.58-.6,6,6,0,0,0-1.6-.84c-.3-.1-.58-.23-.87-.34a1.83,1.83,0,0,0-.83-.15,1.82,1.82,0,0,0-.77.33,1.68,1.68,0,0,1-.79.26,4.18,4.18,0,0,1-.92-.14,7,7,0,0,0-.92-.09,2.23,2.23,0,0,1-.88-.18,8,8,0,0,1-.68-.45,2.13,2.13,0,0,0-.35-.14c-.12,0-.2-.11-.17-.24s.25-.47.2-.75a.89.89,0,0,0-.48-.59,1,1,0,0,1-.34-.19A.47.47,0,0,1,9.41,64a.49.49,0,0,1,.1-.27.66.66,0,0,1,.38-.17l.94-.16a.64.64,0,0,0,.32-.13.4.4,0,0,0,.11-.31,2.19,2.19,0,0,0,0-.36,1.93,1.93,0,0,1,0-.48,2.16,2.16,0,0,1,.24-.77,3.5,3.5,0,0,1,.58-.64,3.35,3.35,0,0,0,.51-.72,6.16,6.16,0,0,0,.39-.82,4.32,4.32,0,0,0,.2-.88c.05-.31.09-.63.11-.95s0-.62.09-.92.1-.65.15-1a5.15,5.15,0,0,0,.05-1c0-.31-.07-.63-.12-.94-.11-.62-.32-1.22-.46-1.83a11.19,11.19,0,0,1-.29-1.9c0-.33,0-.66,0-1l-.06-.95a12.05,12.05,0,0,1,.13-1.9,5.65,5.65,0,0,1,.16-.93,9.07,9.07,0,0,1,.26-.89,3.52,3.52,0,0,1,.15-.42c.07-.13.14-.27.2-.41a1.14,1.14,0,0,0,.12-.41,3.24,3.24,0,0,0,0-.44,2.25,2.25,0,0,0-.1-.93c-.08-.3-.17-.6-.23-.9a1.43,1.43,0,0,1,0-.89,2.34,2.34,0,0,1,.5-.71,2.61,2.61,0,0,1,.68-.56,7.67,7.67,0,0,0,.8-.43,1.23,1.23,0,0,0,.45-.6,3.29,3.29,0,0,0,.23-.87,6.05,6.05,0,0,0,0-1.85c-.1-.6-.4-1.15-.47-1.76a2.66,2.66,0,0,1,.07-.89,2.4,2.4,0,0,1,.31-.82c.17-.24.38-.44.55-.68a3.33,3.33,0,0,0,.44-.78A3.68,3.68,0,0,0,17,28c0-.31-.09-.61-.15-.92a6,6,0,0,1-.16-.94,2.27,2.27,0,0,1,.2-.89l.33-.85c.11-.3.23-.6.33-.9a5.39,5.39,0,0,0,.22-.88,5.91,5.91,0,0,0,0-1.78c0-.3-.1-.61-.13-.92a6.46,6.46,0,0,1,0-.88,5.78,5.78,0,0,0-.13-1.5c-.12-.49-.48-1.61.13-1.92a2,2,0,0,1,.83-.16,12.06,12.06,0,0,1,1.9,0c.54.06,1.25.11,1.51.66a1.86,1.86,0,0,0,.39.7c.11.1.23.17.34.26l.39.3a1.26,1.26,0,0,1,.55.59c0,.13.06.28.09.42l.09.5c0,.31.08.62.1.93a5.74,5.74,0,0,0,.06.93,2.76,2.76,0,0,0,.37.8,3.58,3.58,0,0,0,.55.73,7.23,7.23,0,0,0,.63.61,5.17,5.17,0,0,1,.65.58A6.1,6.1,0,0,1,26.83,25a4.65,4.65,0,0,1,.3.84,7.09,7.09,0,0,1,.05.92,7.89,7.89,0,0,0,.17.95,7.4,7.4,0,0,1,.12.93,8.22,8.22,0,0,1,.06,1,5.9,5.9,0,0,1-.11.93,1.92,1.92,0,0,0,.18,1.47,1.74,1.74,0,0,0,.66.44l.81.39,1.68.9q.84.45,1.71.84c.59.26,1.19.51,1.78.78a9.56,9.56,0,0,1,1.62.84,7.45,7.45,0,0,1,.69.57,2.32,2.32,0,0,1,.53.64,1.9,1.9,0,0,1,.22.83,1.75,1.75,0,0,1-.1.85c-.06.11-.14.2-.21.31a.8.8,0,0,0-.09.43,3.65,3.65,0,0,1,0,.47,1.43,1.43,0,0,1-.15.44,6.86,6.86,0,0,0-.42.75,1.51,1.51,0,0,0-.1.42.54.54,0,0,0,.12.36,3,3,0,0,0,.28.34c.1.1.2.2.29.31a1.65,1.65,0,0,1,.2.37,2.55,2.55,0,0,0,.24.39,6.09,6.09,0,0,0,.58.65,5.43,5.43,0,0,0,.69.58,1.15,1.15,0,0,0,.39.18,2,2,0,0,0,.43,0,3.23,3.23,0,0,0,.44,0,1.88,1.88,0,0,0,.47-.1,1.38,1.38,0,0,0,.74-.41c.22-.21.43-.43.65-.63a2.93,2.93,0,0,0,.57-.65c.06-.11.1-.23.16-.34a1.35,1.35,0,0,1,.27-.32.46.46,0,0,1,.32-.17.66.66,0,0,1,.38.17.91.91,0,0,0,.71.21,2,2,0,0,0,.7-.41,2.61,2.61,0,0,1,.74-.43,4,4,0,0,1,.91-.18,3.44,3.44,0,0,1,.45,0,1.27,1.27,0,0,1,.42.09,1.05,1.05,0,0,1,.34.2,1.07,1.07,0,0,1,.2.38,2,2,0,0,0,.15.41c.06.13.13.26.2.38a.72.72,0,0,0,.26.26c.14.08.29.13.43.21a3.74,3.74,0,0,1,.66.53,2,2,0,0,1,.47.65,1.41,1.41,0,0,0,.2.45c.18.19.42-.05.57-.16a8.53,8.53,0,0,0,.69-.65,5.17,5.17,0,0,1,.64-.6A4.07,4.07,0,0,1,53,43.5c.56-.26,1.15-.4,1.73-.61a2.87,2.87,0,0,0,.37-.15,2.31,2.31,0,0,0,.36-.25l.32-.25a1.16,1.16,0,0,1,.4-.16l.37-.08c.16,0,.31-.09.47-.12a2.09,2.09,0,0,1,.93,0l.89.2.46.09a1.11,1.11,0,0,0,.48,0,1.76,1.76,0,0,0,.37-.17c.12-.08.25-.15.38-.22a2,2,0,0,1,.88-.26,1.76,1.76,0,0,1,1.36.48,1.91,1.91,0,0,1,.3.79,6.16,6.16,0,0,1,0,1c0,.14,0,.29,0,.44a.46.46,0,0,0,.15.31.52.52,0,0,0,.35,0,.85.85,0,0,1,.44.07.66.66,0,0,0,.39.06c.13,0,.18-.16.24-.27a.9.9,0,0,1,.5-.38,3.81,3.81,0,0,0,.71-.4,3.28,3.28,0,0,1,.31-.2c.12-.07.25-.13.36-.21a.91.91,0,0,0,.26-.29c.08-.13.13-.27.21-.4l.19-.35a.6.6,0,0,1,.24-.3,1.5,1.5,0,0,1,.36-.11,2.6,2.6,0,0,1,.47-.09,8.48,8.48,0,0,0,.87-.06,1.27,1.27,0,0,0,.68-.32,3.54,3.54,0,0,0,.42-.52,3.21,3.21,0,0,1,.45-.58,4,4,0,0,1,.61-.48,6.24,6.24,0,0,0,.65-.5,3,3,0,0,0,.53-.59,3.16,3.16,0,0,0,.41-.74A2.73,2.73,0,0,0,73,37c0-.31,0-.62,0-.93s0-.64.08-1a5.42,5.42,0,0,1,.13-.9,1.31,1.31,0,0,1,.51-.67.43.43,0,0,1,.35-.12,2,2,0,0,1,.43.13,2,2,0,0,1,.7.48A3.14,3.14,0,0,1,76,35.52a2.89,2.89,0,0,0,.25.77,2.31,2.31,0,0,0,.47.6,3.57,3.57,0,0,0,1.46.78,2.81,2.81,0,0,0,.87.11c.32,0,.63-.08.95-.11a2.11,2.11,0,0,1,.83,0,.88.88,0,0,1,.51.54,1.2,1.2,0,0,1,.12.42,2.42,2.42,0,0,1,0,.47,2.89,2.89,0,0,0,0,.88,1.42,1.42,0,0,0,.31.77,1.33,1.33,0,0,0,.66.4,3.05,3.05,0,0,0,1,.11,2.6,2.6,0,0,0,.87-.14,2.43,2.43,0,0,1,.38-.13A.82.82,0,0,1,85,41a1.93,1.93,0,0,1,.4.15,3.26,3.26,0,0,0,.38.18,2.21,2.21,0,0,0,.89.07,5.77,5.77,0,0,0,.93-.12c.33-.06.64-.14,1-.21a9.21,9.21,0,0,1,.91-.2c.15,0,.3,0,.45,0l.22,0a1.42,1.42,0,0,0,.22-.07C90.42,40.78,90.51,40.78,90.54,40.83Z"/></svg>