<svg id="Parsa" xmlns="http://www.w3.org/2000/svg" viewBox="0 0 100 100"><path d="M86.62,22.28s0,0-.05.06a1.85,1.85,0,0,1-.14.14c-.18.19-.34.4-.53.57a4.4,4.4,0,0,1-1.23.65,6.86,6.86,0,0,0-1.34.64c-.1.06-.19.14-.29.21a.69.69,0,0,0-.23.25,1.83,1.83,0,0,0-.14.32,1,1,0,0,0,0,.39c0,.28,0,.55,0,.83s0,.57,0,.85a2.59,2.59,0,0,1-.21.72c-.09.24-.19.48-.26.73s-.13.54-.19.81-.15.54-.23.81c-.13.51-.18,1-.33,1.55a7.31,7.31,0,0,0-.18.78,2.56,2.56,0,0,0,0,.78,1.87,1.87,0,0,0,.08.34,2.7,2.7,0,0,1,.08.39c0,.13,0,.26.08.39a.48.48,0,0,1,0,.35c0,.12-.11.23-.16.35s-.11.26-.17.39a1.44,1.44,0,0,1-.44.48,3.17,3.17,0,0,0-.47.56l-.47.69a5.38,5.38,0,0,1-.48.59c-.18.18-.37.34-.56.51L78,39c-.2.18-.4.36-.58.55a8.57,8.57,0,0,0-.92,1.23,2.69,2.69,0,0,0-.19.32c0,.12-.09.25-.13.37s-.16.53-.26.79a3.79,3.79,0,0,0-.21.75c0,.27-.07.54-.11.81s0,.26-.07.38a3.42,3.42,0,0,1-.13.34,1.37,1.37,0,0,0-.08.35,2.8,2.8,0,0,1-.13.41,1.87,1.87,0,0,1-.15.32,2.72,2.72,0,0,1-.24.24,3.47,3.47,0,0,0-.29.25.64.64,0,0,0-.13.26c0,.13-.06.26-.1.38a1.15,1.15,0,0,0-.07.36c0,.12,0,.24,0,.36s0,.28.08.42.06.24.1.36a.93.93,0,0,1,.08.75,1.45,1.45,0,0,1-.12.35,1.32,1.32,0,0,0-.15.29,1.8,1.8,0,0,0-.08.39c0,.27-.08.54-.11.81a1.39,1.39,0,0,1-.14.67c-.15.23-.32.43-.46.66l-.18.31a1.9,1.9,0,0,1-.2.37,4.67,4.67,0,0,1-.45.44,3.21,3.21,0,0,0-.37.65c-.12.25-.24.5-.34.76l-.31.78c-.1.24-.19.48-.3.72a5.79,5.79,0,0,1-.42.59,2,2,0,0,0-.21.69A4.49,4.49,0,0,0,70.54,59a2.81,2.81,0,0,1,.06.82c0,.12,0,.24-.07.36s-.11.19-.2.27-.17.15-.24.23a2.08,2.08,0,0,0-.24.34,2,2,0,0,0-.33.63c0,.12,0,.25,0,.37s0,.26-.08.39,0,.23-.07.27a.26.26,0,0,1-.15,0H69a.17.17,0,0,0-.16.1c-.07.1-.11.21-.18.31a2.51,2.51,0,0,1-.57.51l-.26.18a.39.39,0,0,0-.16.28c0,.1,0,.21,0,.32a1,1,0,0,1-.18.35,2.34,2.34,0,0,1-.47.57,3.65,3.65,0,0,1-.31.24,3.25,3.25,0,0,0-.29.23.56.56,0,0,0-.15.27c-.05.13-.09.26-.13.4a1.39,1.39,0,0,0,.1.75,6.57,6.57,0,0,1,.21.76,5.36,5.36,0,0,1,0,.8,2.45,2.45,0,0,0,.2.75c0,.1.09.2.13.31s0,.05-.09,0a12.32,12.32,0,0,0-3-.78A14.76,14.76,0,0,0,62,68.93l-.37,0-.4,0a.8.8,0,0,1-.5-.4,3.9,3.9,0,0,1-.35-.71c-.1-.25-.16-.51-.24-.76a2.88,2.88,0,0,0-.6-1.15,1.53,1.53,0,0,0-.58-.39.93.93,0,0,0-.33,0c-.15,0-.29,0-.43,0a1.18,1.18,0,0,0-.33.12,1.63,1.63,0,0,0-.34.19,7.52,7.52,0,0,0-.64.51c-.41.35-.78.73-1.16,1.11a2.64,2.64,0,0,1-.55.45c-.23.12-.48.21-.72.32-.48.22-1,.42-1.43.68l-.32.2a2,2,0,0,1-.3.2c-.06,0-.19.08-.24,0a.76.76,0,0,1,0-.16,1.62,1.62,0,0,1,0-.22c0-.12,0-.24,0-.36a1.82,1.82,0,0,0-.11-.4,1.16,1.16,0,0,0-.26-.52.79.79,0,0,0-.31-.17.82.82,0,0,0-.34-.06,1.27,1.27,0,0,0-.31.15l-.36.19a2.22,2.22,0,0,0-.53.44,1.81,1.81,0,0,0-.35.62,5.1,5.1,0,0,0-.14.78c0,.12-.08.16-.17.23s-.16.15-.26.16a.84.84,0,0,1-.35-.07.9.9,0,0,0-.4,0,1.16,1.16,0,0,0-.31.07.53.53,0,0,0-.23.24,1,1,0,0,0-.1.34l0,.17a.86.86,0,0,1,0,.17c0,.08-.12.07-.19.08a.77.77,0,0,1-.37,0,.64.64,0,0,0-.31-.07c-.13,0-.26,0-.38.07a1.72,1.72,0,0,0-.71.17c-.2.14-.39.3-.58.46a4.2,4.2,0,0,0-.55.48,7.11,7.11,0,0,0-.49.6,7.72,7.72,0,0,1-.53.61,7.29,7.29,0,0,1-.58.53c-.08.06-.16.14-.24.21a.48.48,0,0,1-.33.1,5,5,0,0,1-.77,0,7.37,7.37,0,0,0-.82,0c-.12,0-.24,0-.35,0a.74.74,0,0,0-.38.12,1.6,1.6,0,0,0-.5.47,2.77,2.77,0,0,0-.22.29,2.07,2.07,0,0,0-.15.34l-.13.34c0,.12-.09.25-.14.36a1.17,1.17,0,0,1-.5.51.39.39,0,0,1-.28,0l-.35-.11a2.35,2.35,0,0,1-.37-.14A1.2,1.2,0,0,0,36.9,76a.78.78,0,0,0-.37,0,.41.41,0,0,0-.13.1.71.71,0,0,1-.14.1c-.19.16-.2.39-.29.6a.82.82,0,0,1-.2.25c-.09.08-.16.17-.24.25a.8.8,0,0,1-.34.11,2.85,2.85,0,0,0-.39.11c-.24.09-.5.16-.74.26a4.32,4.32,0,0,0-.67.36c-.23.14-.47.26-.71.4a5.13,5.13,0,0,1-.69.39,1.11,1.11,0,0,1-.3.12.43.43,0,0,1-.16,0l-.21-.08a.9.9,0,0,1-.3-.17,3.45,3.45,0,0,1-.28-.26,5.7,5.7,0,0,0-.62-.48l-.32-.17a.88.88,0,0,0-.39-.08.69.69,0,0,0-.32,0c-.14,0-.26.11-.39.16a2.2,2.2,0,0,1-.36.13,2.34,2.34,0,0,1-.39,0c-.11,0-.22,0-.31,0l-.24-.23a1.12,1.12,0,0,0-.28-.16l-.39-.14a2.34,2.34,0,0,0-.75-.07.73.73,0,0,0-.36,0l-.32.14a.4.4,0,0,0-.23.23c-.05.11-.09.23-.14.34a3.05,3.05,0,0,1-.13.32,1.44,1.44,0,0,1-.27.33,3.44,3.44,0,0,1-.54.47,3.62,3.62,0,0,1-.72.33c-.25.1-.49.2-.73.32a2.43,2.43,0,0,0-.62.37,2.06,2.06,0,0,0-.45.56,4,4,0,0,1-.38.62,1.27,1.27,0,0,1-.25.22,3.88,3.88,0,0,0-.31.26,1.55,1.55,0,0,1-.65.3,1.16,1.16,0,0,1-.37,0c-.13,0-.26,0-.38,0S18.65,82,18.4,82a.62.62,0,0,0-.3-.06.87.87,0,0,0-.17.07l-.21.09a3.75,3.75,0,0,0-1,.85l-.27.26a1.59,1.59,0,0,1-.27.18,2.15,2.15,0,0,0-.51.49,2.22,2.22,0,0,1-.53.43,1.31,1.31,0,0,1-.59.29,2,2,0,0,0-.35,0,2.07,2.07,0,0,1-.33.1.57.57,0,0,1-.28-.11c-.24-.15-.16-.29-.1-.52a2.43,2.43,0,0,0,0-.38c0-.12.05-.23.06-.35s0-.27,0-.4a2,2,0,0,1,0-.35c0-.13.08-.24.09-.37s0-.24,0-.36.1-.23.15-.35a1.16,1.16,0,0,0,.07-.37,1.64,1.64,0,0,0,0-.38,6.65,6.65,0,0,0-.23-.76l-.09-.36a.76.76,0,0,1,0-.16.9.9,0,0,1,0-.23c0-.13,0-.25,0-.37a1.27,1.27,0,0,1,.05-.39,1.28,1.28,0,0,1,.17-.3,3.5,3.5,0,0,1,.24-.3,1.21,1.21,0,0,1,.25-.21,2.75,2.75,0,0,1,.38-.2,1.78,1.78,0,0,0,.6-.41.62.62,0,0,0,.14-.62,1.09,1.09,0,0,0-.34-.55,6.29,6.29,0,0,0-.67-.37.66.66,0,0,1-.34-.44,1.74,1.74,0,0,1,.14-.74,6.66,6.66,0,0,1,.31-.73c.11-.25.22-.5.34-.74.24-.5.49-1,.71-1.5,0-.11.09-.22.14-.34a3.87,3.87,0,0,1,.21-.34,2.69,2.69,0,0,0,.16-.29,2.11,2.11,0,0,1,.18-.33c.13-.23.23-.48.35-.72s.29-.41.44-.62.13-.18.21-.26a1.31,1.31,0,0,1,.32-.25c.22-.13.42-.29.63-.44s.22-.13.32-.21.18-.18.27-.26A1.37,1.37,0,0,0,19,67a.84.84,0,0,0,.16-.33,1.88,1.88,0,0,0,0-.33c0-.15,0-.29,0-.44s0-.54,0-.81a8.31,8.31,0,0,1,.4-1.54c0-.1.07-.21.12-.31a3.45,3.45,0,0,1,.2-.32c.15-.23.29-.45.45-.67a3.12,3.12,0,0,1,.53-.56c.2-.16.44-.28.64-.45s.37-.34.55-.52l.29-.26a1.18,1.18,0,0,0,.24-.26,2.31,2.31,0,0,0,.16-.69,4.61,4.61,0,0,1,.25-.71,2.35,2.35,0,0,1,.38-.6c.18-.19.38-.36.56-.55a3.29,3.29,0,0,0,.48-.58,2.47,2.47,0,0,0,.29-.69,5.32,5.32,0,0,0,.12-.8c0-.28.08-.55.13-.83a7.72,7.72,0,0,0,.06-.83,4.28,4.28,0,0,0,0-.8c0-.13-.07-.25-.11-.38L25,52.38a5.56,5.56,0,0,1-.09-.82c0-.27,0-.55,0-.83a7.4,7.4,0,0,0-.08-.81c-.09-.55-.23-1.09-.36-1.63-.07-.25-.13-.51-.18-.77s-.09-.53-.13-.79a5.6,5.6,0,0,0-.13-.82,6.91,6.91,0,0,0-.25-.77c-.08-.24-.19-.47-.28-.71a3.86,3.86,0,0,1-.2-.76,1.11,1.11,0,0,1,.07-.74,2.61,2.61,0,0,1,.19-.27,1.74,1.74,0,0,1,.29-.25l.65-.43a2.7,2.7,0,0,0,.58-.48,1.55,1.55,0,0,0,.3-.65,6.63,6.63,0,0,0,.15-.75c0-.26.05-.52.09-.78a3,3,0,0,1,.22-.76,2.52,2.52,0,0,1,.32-.66,1.9,1.9,0,0,1,.54-.44c.23-.12.47-.22.71-.32l.73-.33a4.88,4.88,0,0,0,1.22-.73,1.1,1.1,0,0,0,.38-.52,3,3,0,0,0,0-.79,4.25,4.25,0,0,1,0-.8.75.75,0,0,1,.38-.49,1.54,1.54,0,0,1,.34-.12l.39-.13.75-.3a.86.86,0,0,0,.5-.35,1.1,1.1,0,0,0,.18-.66c0-.26-.13-.5-.14-.77a1.59,1.59,0,0,1,.15-.71.74.74,0,0,1,.46-.37,6.63,6.63,0,0,1,.77-.18l.37-.07.4-.07a1.17,1.17,0,0,0,.54-.37,1.65,1.65,0,0,0,.29-.66c.08-.26.1-.52.19-.78a6.37,6.37,0,0,1,.29-.72,2.24,2.24,0,0,1,.36-.64,5.68,5.68,0,0,1,.52-.57c.17-.18.39-.31.55-.5a3.9,3.9,0,0,0,.42-.56.16.16,0,0,1,.2-.09c.13,0,.26,0,.39.06a1.71,1.71,0,0,0,.39,0l.41,0h.83a3.54,3.54,0,0,1,.79.05,5,5,0,0,0,.77.09c.57,0,1.13.09,1.69.11a3.05,3.05,0,0,0,.8-.05l.36-.07a.87.87,0,0,0,.3-.16,2.39,2.39,0,0,1,.34-.21,1.58,1.58,0,0,1,.35-.16,1.51,1.51,0,0,1,.76.08,6.25,6.25,0,0,0,.72.17.87.87,0,0,0,.39,0,2.21,2.21,0,0,1,.37-.08,4.29,4.29,0,0,1,.8,0,1.8,1.8,0,0,1,.72.2c.25.11.48.23.73.33a2.24,2.24,0,0,0,.36.14.74.74,0,0,0,.36,0,5.42,5.42,0,0,1,.8-.17,5.47,5.47,0,0,1,.81,0c.28,0,.55,0,.83,0h.41l.41,0a1.17,1.17,0,0,1,.37,0,2,2,0,0,0,.43.05,1.93,1.93,0,0,1,.34,0,2.52,2.52,0,0,1,.34.15,4.22,4.22,0,0,0,1.55.12l.82.05a6.85,6.85,0,0,0,.79,0,7.36,7.36,0,0,0,1.62-.23c.25-.07.5-.17.74-.26l.74-.26a2.58,2.58,0,0,0,.69-.33c.2-.15.38-.33.59-.48.42-.32.87-.61,1.3-.91a4,4,0,0,1,.66-.4l.74-.33a3,3,0,0,0,.62-.36,4.26,4.26,0,0,0,.52-.52,4.48,4.48,0,0,0,.48-.58,4.28,4.28,0,0,1,.44-.61,5.87,5.87,0,0,1,1.14-1,2.26,2.26,0,0,1,.65-.3l.75-.23c.54-.16,1.07-.31,1.6-.49a5.16,5.16,0,0,0,.74-.29,2.07,2.07,0,0,1,.62-.29,2.44,2.44,0,0,1,.39-.06.67.67,0,0,1,.37.05c.24.1.47.2.72.28A3.77,3.77,0,0,0,75,18c.27,0,.53.09.79.15.53.13,1.07.27,1.59.43s1,.29,1.54.47a23.37,23.37,0,0,1,2.94,1.29c.24.13.49.24.73.35a7.37,7.37,0,0,1,.69.34,9,9,0,0,0,1.49.58l.8.28.78.27c.06,0,.22,0,.25.11A0,0,0,0,1,86.62,22.28Z"/></svg>