<svg id="Parsa" xmlns="http://www.w3.org/2000/svg" viewBox="0 0 100 100"><path d="M9,26.47a25.77,25.77,0,0,0,2.44-1.28A7.51,7.51,0,0,1,13,24.12c1.64-.52,2,.2,2.9-1.75a1.52,1.52,0,0,0,.23-1.32,10.91,10.91,0,0,1-.69-1.52c0-.34.49-.73.73-.9a17.1,17.1,0,0,1,1.28-1.14c.79-.37,1.87-.24,2.66-.66a4.23,4.23,0,0,0,1.2-.83c1.67-.74,3.37,0,4.93.69,1,.41,2.16,1,3.21.49a2,2,0,0,1,2.4,1.07,9.67,9.67,0,0,1,.17,1.62,2.6,2.6,0,0,0,1.66.91c.47-.05.85-.58,1.08-.94a4.1,4.1,0,0,1,1.32-1.17,12.27,12.27,0,0,0,1.2-.92,5.46,5.46,0,0,1,1.25-.26c.88-.2,1.9-.16,2.79-.3a14.74,14.74,0,0,0,2.48-.83,1.58,1.58,0,0,0,.77-.23c.09-.22.27-.68.35-.91l.43-.3c1.72.76,3.62-.22,5.39-.18a3.66,3.66,0,0,0,3.66-1.1,6,6,0,0,0,.94-.94,3.55,3.55,0,0,0,.22-1.3,1.59,1.59,0,0,0,1.24.16A1.81,1.81,0,0,1,58,11.22c.35.31.27,1,.64,1.25.82,1.29,2.29.67,3.51,1,.56.72.44,1.82,1.06,2.51a5.1,5.1,0,0,1,1.15,1.3,6.15,6.15,0,0,1,1,1.44,7,7,0,0,1,0,2.23,1.9,1.9,0,0,0,1.87,1.37,6.09,6.09,0,0,1,1.64.8,6.37,6.37,0,0,1,.53,3.69c-.13.73-.67,1.46-.4,2.23a9.74,9.74,0,0,0,.55,1.48c.58.49,1.35.88,1.93,1.37A6.25,6.25,0,0,1,73,33.52l1.71,1.25c1.13.85,2.26,1.82,3.33,2.74.84.43,1.85.44,1.44,1.72a3.91,3.91,0,0,1-.6,1,7.66,7.66,0,0,0-1.11.86A2.69,2.69,0,0,0,77,42.36c-.07.23,0,.62-.1.84a6.19,6.19,0,0,1-1.59,2c.75.57,1.82.7,2.6,1.22,1.4.92,2.63,2.22,4.22,2.86a2,2,0,0,0,1.41-.07A2.31,2.31,0,0,1,84.91,49a7.59,7.59,0,0,0,1.87.93,3.13,3.13,0,0,0,1.46,0,1.52,1.52,0,0,1,1.44.2A4.65,4.65,0,0,0,91,51.21a4.52,4.52,0,0,0-1.79,1.91c-.34.63-.47,1.53-1.1,2-.42.2-1,.5-1.14,1s-.21.95-.41,1.37-.56.5-.82.67a12.37,12.37,0,0,0-1.31,1.3c-.66.8.2,1.69.77,2.26A4.49,4.49,0,0,1,86,62.85a1.58,1.58,0,0,1,.33.8c0,.34-.27.86-.12,1.18a6.61,6.61,0,0,1,.63.77,4.71,4.71,0,0,1-.53,1.05,1.74,1.74,0,0,0,.09,1.71c.5.56,1.31.91,1.73,1.55l0,.29a6.36,6.36,0,0,0-1.18,1.35c-.27.3-.81.2-1.16.18a6.16,6.16,0,0,0-2.21-.27c-.48.07-1.07.36-1.54.44a3,3,0,0,1-1.68.62c-.91-.67-2.13-1.3-2.61.19A9.2,9.2,0,0,0,76.78,74a6.21,6.21,0,0,1-1.57,1.54c-.24.18-.59.37-.7.66a.76.76,0,0,0,.09.57c.12.42.29.93.44,1.34-.07.43-.69.76-.83,1.24.08.59.63,1,.73,1.6l-.17.34a5.27,5.27,0,0,1-2.15.69c-.44,0-.94-.25-1.36-.17L71,81.6c-1.27,1.29-.63,1.53.12,2.81.19.18.43.44.29.72a7.81,7.81,0,0,1-1.65,1.27c-.51.31-1.23.43-1.55,1-.07.13-.17.33-.09.48a.63.63,0,0,1,.2.28l-.12.26-.35.1a1.79,1.79,0,0,0-.42-.3c-.36.13-.85.19-1,.59-.5-1.72-2.33-2.51-3.67-3.49l-.13,0a9.52,9.52,0,0,0-1.87-1.55,15.16,15.16,0,0,1-1.4-1,13.59,13.59,0,0,1-.76-1.26L58,81.3l-.73.15a11,11,0,0,1-3,.22c-1.27-.3-2.6-.56-3.89-.76a6.93,6.93,0,0,0-3.06-.31,3.85,3.85,0,0,0-.86,1.06,9.36,9.36,0,0,0-1.8,2c-.24.5-.07,1.17-.47,1.59h-.21c-.62-.44-.12-1.66-.76-2.2a8.77,8.77,0,0,1-.81-.91,19.59,19.59,0,0,0-1-1.94,2.39,2.39,0,0,0-.59-.83A4.28,4.28,0,0,1,40.45,78C40,77,39,76.71,38.16,76.11A13,13,0,0,0,36.62,75a11.77,11.77,0,0,0-1.75-.53,2.77,2.77,0,0,1-1.37-.8,20.84,20.84,0,0,1-2.76-2.39,3,3,0,0,1-2.35.19,9.89,9.89,0,0,1-2.64-.83A7.14,7.14,0,0,1,24,68.15,3.33,3.33,0,0,0,22.42,66c-1.15-.4-2.29.32-3.28.84a11.1,11.1,0,0,1-2.56.6,3.53,3.53,0,0,0-1-.76A7.89,7.89,0,0,0,14,66.25H13c-.23,0-.52-.43-.63-.61-.57-1.56-.15-3.63-2.35-3.87a5.61,5.61,0,0,1,.12-1.63,3.48,3.48,0,0,1,.44-1.4c.31-.31.86-.64,1.14-1a1.34,1.34,0,0,0-.42-1.21,3.55,3.55,0,0,1-.85-2.08,2.94,2.94,0,0,1,1.41-1.26c.57-.21,1.39-.46,1.66-1.06a8.73,8.73,0,0,1,.87-2.5A3.43,3.43,0,0,0,15,47.7c-.15-.72-.54-1.56-.73-2.27a11,11,0,0,1-.13-2.69,5.35,5.35,0,0,1,.26-1.37c.38-.07.86.1,1.11-.3a5.53,5.53,0,0,0-.21-2.28,8.25,8.25,0,0,0,.52-2.46c.21-1.87.42-3.8-1.37-5a23.49,23.49,0,0,0-1.58-1.86C11.66,28.41,9.5,28.22,9,26.47Z"/></svg>