<svg id="Parsa" xmlns="http://www.w3.org/2000/svg" viewBox="0 0 100 100"><path d="M42.38,26.79a6.68,6.68,0,0,1,.83.27,1.73,1.73,0,0,1,.38.75,4.34,4.34,0,0,0,1.24.74l.08.21c.28.12.78.34,1.08.19a5.47,5.47,0,0,0,1.08.68l.3-.14.46.2a2.1,2.1,0,0,1,.7-.21l.38.41a1.36,1.36,0,0,0,.69-.14,4.37,4.37,0,0,1,1.08.54,4.18,4.18,0,0,1,1,.4,4,4,0,0,0,.78.81,3.1,3.1,0,0,0,1.39,1.29,2.65,2.65,0,0,0,.45-.69,1.48,1.48,0,0,1,.93.07,4.08,4.08,0,0,1,.47.81c.31.28.79.63.77,1.09a14.61,14.61,0,0,1,.4,1.71.82.82,0,0,0,.31.82,8.16,8.16,0,0,1,1.31-.08,10,10,0,0,1,1,.95,1.91,1.91,0,0,1,1,1.43.9.9,0,0,1,.91.13,1.66,1.66,0,0,0,.4.61,1.17,1.17,0,0,0,.61.2c.25.18.67.41.7.75a3.53,3.53,0,0,0,1.52-.21.83.83,0,0,1,.32.2,2.1,2.1,0,0,0,.08.83l.39.34a3.16,3.16,0,0,0,2.22.66.86.86,0,0,1,.54-.28c.5.22,1.19.44,1.46.95a4.67,4.67,0,0,0,.93,1.3,4.27,4.27,0,0,0,1,.4c0-.09.26-.45.31-.54A3.34,3.34,0,0,1,73.73,44,3.09,3.09,0,0,1,76,44v.11a4.82,4.82,0,0,1,1.35.83,1.31,1.31,0,0,0,1.8-.09c.35-.36.91-.44,1.28-.76s.62-.86,1.11-.7c.11.17.13.46.28.6.47.25,1.08.37,1.54.64a3.6,3.6,0,0,0,.89.51,3.33,3.33,0,0,1,1,.42,5.55,5.55,0,0,0,2.19.27c1.14,0,.7,1.19.67,2s1,.59,1.57.83c.27.14.62.39.91.51a2.3,2.3,0,0,1,.63.25c.28.26.55.62.83.88l-.17,0A4.7,4.7,0,0,1,90.73,52c0,.26.1.6,0,.87a1.66,1.66,0,0,1-1,.81c-.47.11-.84-.3-1.26-.41-.32.08-.53.5-.65.78a11.48,11.48,0,0,0-.75,1.32,1.19,1.19,0,0,1-.9.86,2.27,2.27,0,0,0-1.07.1l-.08.17a1.56,1.56,0,0,0,.8.27,7.13,7.13,0,0,0,2,.25,1.37,1.37,0,0,1,1.65.45,1.91,1.91,0,0,1-.18,1c-.15.56-.61,1.2-.25,1.77.18.22.55.36.73.59s.26.89.49,1.25,1,.53,1.38.95a2.78,2.78,0,0,0-.94,1.47,5.68,5.68,0,0,1-.51,2,2.41,2.41,0,0,1-.27,1.81,9.2,9.2,0,0,1-.82.83,6.64,6.64,0,0,0-1.78.1c-.65.16-1.41-.07-2,0s-1.07.51-1.92.76a2.25,2.25,0,0,0-.61.62,3.46,3.46,0,0,1-.16.79,3.16,3.16,0,0,1-1,.65A4.27,4.27,0,0,0,81,73.21c-.13-.1-.41-.33-.42-.51s.22-.47.19-.7a7.32,7.32,0,0,0-1.49-.72c-.26-.1-.42-.41-.61-.59a1.6,1.6,0,0,0-.5-.21,1.42,1.42,0,0,0-.77-.31L77.23,70a1.24,1.24,0,0,0,0-.43,8.67,8.67,0,0,0-1.46-.9,1.48,1.48,0,0,1-.65-.41L75,68l-.45-.16a1.17,1.17,0,0,0-.27-.36A8.44,8.44,0,0,1,72.49,67a14.86,14.86,0,0,1-1.88-.82,20.41,20.41,0,0,0-2.54-1.43,13.18,13.18,0,0,0-1.74-.38c-1.74-.25-3.53.25-5.25-.13-.49,0-1.07-.08-1.57-.07a3.06,3.06,0,0,1-2.27-.64,19.46,19.46,0,0,0-1.36-1.75c-.26-.69-.34-1.5-.55-2.21s-1-.85-1.51-1.19c-.46-.18-.83-1.71-1-2.09a2.62,2.62,0,0,0,.07-.62l-.24-.36c-.86-.23-1.71-.66-2.55-.93-.45-.47-1.18-.6-1.69-1-.77,0-1.38.74-1.71,1.37l-.3.1c-.33-.3-.56-.81-1-1s-1.22-.27-1.22-.85a2.52,2.52,0,0,1,.46-.69l0-.27c-.39-.29-1-.71-1.5-.58a2.47,2.47,0,0,1-.42.37c-.09,0-.27,0-.34.12A41.17,41.17,0,0,1,38,50.13c-.62-.22-1.31-.39-1.95-.57a5.29,5.29,0,0,1-1.47-.37,10.07,10.07,0,0,0-1.46.5A3.53,3.53,0,0,0,31,50.76a4.39,4.39,0,0,1-1,1.09,7.89,7.89,0,0,0-1.15.61c-.39.25-.77.59-1.16.83a5.36,5.36,0,0,1-2.75.55c-.28,0-.67,0-1,0a1.43,1.43,0,0,0-.67-.15,8.78,8.78,0,0,0-1,0,4.14,4.14,0,0,0-1.4.13c-.33-.1-.69-.34-1-.41s-.88.14-1.22,0a1.67,1.67,0,0,0-.62-.12,2.37,2.37,0,0,1-.93.39,11,11,0,0,1-1.9-.14,11.77,11.77,0,0,1-1.57-.05,11.5,11.5,0,0,1,.08-1.16c.23-.49.78-.62,1.21-.89a.59.59,0,0,0-.1-.28.38.38,0,0,1,.14-.27v-.15l-.11-.12c-.31,0-.61.21-.93.18s-.36-.2-.53-.27l-.13.07a.47.47,0,0,1-.39-.38c.07-.38.61-.37.9-.49v-.2c-.14-.22-.37-.51-.22-.77.4-.15.84.17,1.26.14s.87-.33.57-.77a1.91,1.91,0,0,1-.19-.5c0-.25.05-.6-.18-.76s-.82-.27-1.17-.48a1.11,1.11,0,0,1-.46-1c-.09-.54.07-1.12,0-1.65a2.23,2.23,0,0,0-1.15-1.56c-.47-.2-1-.41-1.45-.57a2.74,2.74,0,0,1-1.08-.38,2.54,2.54,0,0,1-1-.74,3.94,3.94,0,0,1-.43-1A2.8,2.8,0,0,1,8.22,37c.3-.51.94-.67,1.41-1a1,1,0,0,0,.4-.47c.14-.19.34-.37.48-.54.38-.2.84-.15,1.24-.32a1.32,1.32,0,0,0,.71-.79.54.54,0,0,0,0-.25.65.65,0,0,1,.4-.3A6,6,0,0,1,14,33.1a1.58,1.58,0,0,1,1,.52,1.91,1.91,0,0,0,.47.47c.09.09-.05.27-.1.35a1.47,1.47,0,0,0,.41.87,2.13,2.13,0,0,0,.78.19A4.46,4.46,0,0,1,17.74,35a5.62,5.62,0,0,0,1.72,1c.38,0,.8.43,1.18.28a1,1,0,0,0,.75-.17c.28-.07.69-.1,1-.14a7.5,7.5,0,0,0,3.43-.24,1,1,0,0,1,1.08-.34c.19.17.13.45.21.67a2.48,2.48,0,0,0,1.22.66v0c.51,0,.88-.44,1.34-.6.38-.66,1.24-.11,1.64.25.41-.11,1-.11,1.27-.44a1,1,0,0,0,0-1.09c-.18-.21-.53-.42-.66-.66a2.76,2.76,0,0,1,.07-1c.06-.34.22-.69.27-1a5,5,0,0,1,.59-.53c.15-.21.27-.54.43-.74a3,3,0,0,1,1.16-.69c.28.1.69.1,1,.17.77.08,1.4.68,2.14.85a1.23,1.23,0,0,0,1.24-.23c.09-.23-.07-.54-.07-.78.3-.36.9-.28,1.27-.52a8.15,8.15,0,0,1,.84-.61,2.87,2.87,0,0,0,.45-1.46c.14-.18.35-.35.5-.52S42.26,27,42.38,26.79Z"/></svg>