<svg id="Parsa" xmlns="http://www.w3.org/2000/svg" viewBox="0 0 100 100"><path d="M35.67,15.41a3,3,0,0,0,.18-.36c.13-.29.21-.6.33-.89a3.43,3.43,0,0,1,.45-.82,1.33,1.33,0,0,1,.28-.3,1.58,1.58,0,0,1,.42-.24c.29-.14.57-.3.85-.44a.57.57,0,0,1,.4-.09,2.08,2.08,0,0,1,.42.26,4.87,4.87,0,0,0,1.74.6,13.81,13.81,0,0,0,2,.1,13.54,13.54,0,0,1,2,.3,15.93,15.93,0,0,1,1.94.55c.63.24,1.24.53,1.86.78.32.13.65.24,1,.38s.57.3.87.44a11.06,11.06,0,0,0,1.88.49c.32.08.63.19,1,.29s.65.18,1,.25c.64.14,1.27.34,1.91.47a8.37,8.37,0,0,0,1,.18,5.35,5.35,0,0,0,1,0c.69-.05,1.38-.09,2.07-.09s1.4,0,2.1.05a9.15,9.15,0,0,1,2,.25A34,34,0,0,1,68.1,18.9c.31.12.62.23.92.37s.59.32.87.49a13,13,0,0,0,1.65,1,5.7,5.7,0,0,0,.9.33,7.81,7.81,0,0,0,1,.25,11.26,11.26,0,0,0,2,.13c.35,0,.69,0,1,0s.7,0,1,.05a13.19,13.19,0,0,0,2.08.11,3.36,3.36,0,0,0,.94-.2,6.09,6.09,0,0,1,.81-.4,6.9,6.9,0,0,1,1-.08,8.22,8.22,0,0,1,1-.07,3.71,3.71,0,0,1,1,.21c.14,0,.27.1.4.13a1,1,0,0,0,.49,0,3.56,3.56,0,0,0,.47-.1l.46-.17a1.25,1.25,0,0,1,.93,0,4.24,4.24,0,0,0,.84.31,7.22,7.22,0,0,0,1,0c.19,0,.68,0,.62.27,0,.15-.08.29-.11.43s0,.31,0,.46a12.53,12.53,0,0,0,.25,2,6.18,6.18,0,0,1,.07,1.05c0,.35,0,.7,0,1.05,0,.68.16,1.36.23,2a7,7,0,0,1,0,2,24.43,24.43,0,0,1-1.22,3.65,3.23,3.23,0,0,0-.2.91,4.15,4.15,0,0,0,.14,1,11,11,0,0,1,.3,2,5,5,0,0,1,0,1,4.25,4.25,0,0,1-.28.94,5.29,5.29,0,0,1-.42.82c-.18.27-.41.5-.61.75a3.53,3.53,0,0,0-.7,1.65,4.23,4.23,0,0,0,.18,1.9c.1.32.21.64.29,1a6.5,6.5,0,0,1,.18,1,7.45,7.45,0,0,1,.06,1.06,5.44,5.44,0,0,1-.11,1,4.79,4.79,0,0,1-.24.92c-.06.13-.13.25-.2.37a1.58,1.58,0,0,1-.29.39,3.34,3.34,0,0,1-.73.43,7,7,0,0,0-.76.42,4.64,4.64,0,0,0-.69.64,5,5,0,0,0-.52.77,1,1,0,0,0-.15.42,2.41,2.41,0,0,0,.07.53c.06.32.13.63.22.94a8.8,8.8,0,0,1,.25,1,4.78,4.78,0,0,1,0,1,2.68,2.68,0,0,1,0,.49,1.33,1.33,0,0,1-.14.41,8.08,8.08,0,0,0-.37.85,14,14,0,0,0-.54,1.89c-.13.67-.19,1.35-.26,2a12.15,12.15,0,0,0,0,2.09c0,.7.06,1.4.12,2.1a15.46,15.46,0,0,0,.32,2c.15.66.34,1.3.51,2a9.22,9.22,0,0,1,.3,2A10.16,10.16,0,0,1,84.16,75c0,.34-.1.67-.13,1s0,.69-.07,1-.08.69-.14,1a6.29,6.29,0,0,1-.24,1,7.23,7.23,0,0,1-.93,1.73,5.87,5.87,0,0,1-.65.67,2,2,0,0,0-.5.75,2.92,2.92,0,0,0-.2.92,2.36,2.36,0,0,0,0,.46,2.49,2.49,0,0,1,0,.47c0,.66-.82.63-1.3.68a2.59,2.59,0,0,0-.78.17.54.54,0,0,0-.35.51.56.56,0,0,0,.38.57,1.68,1.68,0,0,1,.65.43,1,1,0,0,1,.2.76c0,.13-.12.25-.17.38l-.06.22a.37.37,0,0,1-.05.18c-.08.09-.18,0-.26,0l-.44-.26c-.27-.16-.53-.34-.79-.53a4,4,0,0,0-.86-.47c-.3-.12-.61-.23-.9-.36a14.26,14.26,0,0,1-1.74-1,8.51,8.51,0,0,0-1.67-.92,8.74,8.74,0,0,0-2-.38,16.37,16.37,0,0,1-2-.45c-.65-.18-1.31-.33-2-.52a18.55,18.55,0,0,1-1.93-.71c-.63-.25-1.27-.45-1.91-.65-.33-.11-.65-.22-1-.35l-.42-.18a.56.56,0,0,1-.31-.21,1.45,1.45,0,0,1-.1-.41L61.59,80a3.7,3.7,0,0,1,0-.47.42.42,0,0,0-.13-.37,1.57,1.57,0,0,0-.76-.33c-.34-.06-.68-.1-1-.14s-.64-.08-1-.15-.64-.22-1-.34a16.84,16.84,0,0,0-3.88-1,19,19,0,0,1-2-.26,1,1,0,0,1-.38-.14,1.16,1.16,0,0,1-.27-.31.58.58,0,0,1-.1-.38.77.77,0,0,1,.19-.37c.14-.2.37-.46.25-.73s-.38-.32-.59-.4a5.62,5.62,0,0,0-.88-.28,6.44,6.44,0,0,0-1-.05h-1a4.93,4.93,0,0,1-1-.09c-.33-.05-.65-.09-1-.12s-.69-.06-1-.06a3,3,0,0,0-1,.15,7.31,7.31,0,0,0-.84.42L42.3,75a1.5,1.5,0,0,1-.41.18,1.4,1.4,0,0,1-.5-.05c-.33-.07-.67-.1-1-.2s-.6-.23-.91-.33a6.42,6.42,0,0,0-1-.24,2.19,2.19,0,0,0-1,.06c-1.31.33-2.63.61-3.91,1a5.85,5.85,0,0,0-.93.38,5.19,5.19,0,0,0-.83.55,8.69,8.69,0,0,0-.75.61,2.21,2.21,0,0,0-.57.65,2.06,2.06,0,0,0-.06.89,3.47,3.47,0,0,1-.13,1,.57.57,0,0,1-.44.43,1.28,1.28,0,0,1-.85-.19,1.21,1.21,0,0,0-.8-.21l-.42.14a2.07,2.07,0,0,1-.5.06,1.11,1.11,0,0,1-.74-.25,1.54,1.54,0,0,0-.3-.22.49.49,0,0,0-.47,0,.92.92,0,0,1-.88.08,2.58,2.58,0,0,1-.65-.58,1.92,1.92,0,0,0-.28-.29.55.55,0,0,0-.42-.06,1.28,1.28,0,0,0-.75.28c-.08.07-.15.19-.26.2s-.19-.11-.22-.21a1,1,0,0,1,0-.39l0-.51a3.2,3.2,0,0,0-.09-.93,1.7,1.7,0,0,0-.47-.71c-.12-.13-.37-.37-.21-.56s.51-.21.3-.44a.94.94,0,0,0-.71-.21c-.32,0-.65,0-1,0l-1.06-.07a1.61,1.61,0,0,1-.44,0c-.15-.05-.28-.14-.43-.2a1.15,1.15,0,0,0-.88.16A3.17,3.17,0,0,1,17,75a2.07,2.07,0,0,1-.49.07H16a1,1,0,0,0-.46,0,2.72,2.72,0,0,0-.69.49,1.36,1.36,0,0,1-.74.36l-.44,0c-.11,0-.17,0-.11-.14a2.5,2.5,0,0,0,.21-.35,2.91,2.91,0,0,0,.16-.5c.08-.32.13-.65.22-1a14.86,14.86,0,0,1,.68-1.9,6,6,0,0,1,1-1.54c.42-.51.88-1,1.35-1.46a9.29,9.29,0,0,0,1.23-1.42,7.76,7.76,0,0,1,1-1.44,5.93,5.93,0,0,1,.75-.57c.29-.19.58-.37.86-.57a4.69,4.69,0,0,0,1.29-1.22A3.68,3.68,0,0,0,23,62.19c.05-.67-.14-1.34-.13-2s.09-1.38,0-2.07a2.5,2.5,0,0,0-.2-.89,3.28,3.28,0,0,0-.53-.75l-.66-.79a3.11,3.11,0,0,1-.53-.72,3,3,0,0,1-.27-.94,7.55,7.55,0,0,0-.17-1,2.31,2.31,0,0,0-.38-.79,2.2,2.2,0,0,0-.69-.52c-.28-.15-.58-.24-.86-.39a3.43,3.43,0,0,1-.75-.51c-.26-.22-.5-.46-.75-.69s-.47-.43-.69-.67a7.87,7.87,0,0,1-1-1.59c-.59-1.13-1.36-2.17-1.86-3.34a7.31,7.31,0,0,1-.3-.9c-.08-.33-.17-.66-.23-1a15,15,0,0,1-.13-2,8.13,8.13,0,0,1,.12-2,5.73,5.73,0,0,1,.27-.92,5.65,5.65,0,0,1,.37-.88c.33-.57.75-1.07,1.12-1.61a5.69,5.69,0,0,0,.76-1.76c.07-.34.11-.68.19-1s.2-.65.32-1A1.91,1.91,0,0,0,16.1,31a2.35,2.35,0,0,0,0-.53c0-.34,0-.67,0-1a1.18,1.18,0,0,0,0-.42,1.34,1.34,0,0,0-.23-.4c-.19-.27-.35-.56-.54-.84-.36-.54-.78-1-1.18-1.56s-.83-1.1-1.22-1.67-.73-1.15-1.11-1.71a19.17,19.17,0,0,1-1-1.66c-.17-.31-.31-.62-.48-.92a2.3,2.3,0,0,1-.18-.43,2.28,2.28,0,0,1,0-.45,2.63,2.63,0,0,1,.5-1.58c.18-.24.39-.45.56-.7a2.53,2.53,0,0,0,.37-.82c.08-.3.11-.61.19-.91s.22-.59.33-.89a4.83,4.83,0,0,1,.36-.84,3.53,3.53,0,0,1,2.07-1.6,1.1,1.1,0,0,1,.85.09.76.76,0,0,1,.25.28,2.44,2.44,0,0,1,.09.47,2.59,2.59,0,0,0,.14.42,1,1,0,0,0,.22.37,1.34,1.34,0,0,0,.73.34,2.5,2.5,0,0,1,.86.24,3.67,3.67,0,0,1,.67.57,9.2,9.2,0,0,0,.72.68c.23.21.49.4.72.61.45.4.81.89,1.29,1.25a2.41,2.41,0,0,0,.78.4,5.2,5.2,0,0,0,1,.16,4.57,4.57,0,0,1,1,.27,2.71,2.71,0,0,1,.42.2c.12.07.24.16.36.24a5,5,0,0,0,.89.39,4.6,4.6,0,0,1,.82.44,3.19,3.19,0,0,1,.68.64,1.67,1.67,0,0,0,.61.54c.22.1.54.21.68,0a2.39,2.39,0,0,0,.33-.85l.06-.47a4.55,4.55,0,0,1,0-.53c.06-.3.42-.23.66-.25a6.46,6.46,0,0,0,1-.07A2.55,2.55,0,0,0,31,18.1a3.28,3.28,0,0,0,.71-.58c.2-.23.35-.49.55-.71s.23-.2.34-.3a1.24,1.24,0,0,1,.34-.22.94.94,0,0,1,.44,0l.54.1a3.11,3.11,0,0,0,.44.08,1.58,1.58,0,0,0,.48-.1,1.28,1.28,0,0,0,.38-.16,1,1,0,0,0,.22-.35C35.49,15.72,35.59,15.56,35.67,15.41Z"/></svg>