<?xml version="1.0" encoding="UTF-8"?>
<svg width="700pt" height="700pt" version="1.1" viewBox="0 0 700 700" xmlns="http://www.w3.org/2000/svg">
 <path d="m238 159.39c2.0312-16.301 6.7617-32.152 14-46.902 3.8203 0.011719 7.5234-1.2969 10.484-3.7109 2.9609-2.4102 4.9961-5.7734 5.7539-9.5156 1.2617-7.5312 1.2617-15.219 0-22.75-0.57812-2.6992 0.12109-5.5156 1.8906-7.6328 2.0469-1.4062 4.6172-1.8164 7-1.1172 8.3008 1.2969 16.012 5.0781 22.121 10.848-3.0625 3.125-4.4844 7.5039-3.8516 11.832 9.1016 3.4297 20.02 7 28 1.0508v-0.003907c2.8672-2.4336 5.4492-5.1797 7.7031-8.1875 9.1953-10.492 23.195-15.43 36.938-13.027 13.742 2.4023 25.238 11.797 30.332 24.785-3.9492 3.8281-6.7617 8.6758-8.1211 14-0.55469 2.6758-0.015625 5.4609 1.4961 7.7383 1.5117 2.2734 3.8711 3.8516 6.5547 4.375 2.0312 0 4.0586-0.62891 6.0898-0.42188 3.0156 0.82422 5.707 2.5586 7.6992 4.9688 5.5078 4.7969 12.289 7.8945 19.52 8.9141 7.2305 1.0195 14.602-0.085937 21.219-3.1719 2.4766-1.5547 5.2383-2.6016 8.1211-3.082 10.219-0.48828 12.531 15.328 21.422 20.371 7 3.9219 17.219 0.76953 22.469 7 1.9805 3.1367 3.4023 6.5977 4.1992 10.219 5.1797 12.879 21.699 15.82 35.488 16.941-6.1602 16.66-12.391 35-7 51.871 2.3086 6.6484 6.3711 12.672 8.1211 19.461v-0.003907c1.1641 3.332 1.2344 6.9492 0.20312 10.32-1.0352 3.375-3.1133 6.332-5.9414 8.4414 1.3281 4.2695 7.8398 2.1016 12.18 3.1484 2.5898 1.1172 4.5703 3.293 5.4414 5.9727 0.87109 2.6797 0.54688 5.6055-0.89062 8.0273-3.1992 4.7305-7.7656 8.3711-13.09 10.43-7 18.828 3.4297 36.75 19.109 46.551 0 0 0.48828 0.35156 0.62891 0.62891v0.003907c0.13672 0.33594 0.13672 0.71094 0 1.0469-9.1016 23.52-18.621 46.969-27.02 70.77-4.8242 10.336-7.2188 21.641-7 33.043 1.0508 10.359 6.3711 21 2.7305 30.801s-15.051 17.289-11.551 26.738c1.6523 2.9922 3.5742 5.8281 5.7422 8.4688 3.0156 5.9648 3.0156 13.008 0 18.973-7.9102 18.199-29.398 26.672-49 27.512v-0.003906c-12.781 0.57031-25.562-1.1602-37.73-5.1094-0.36328-0.13281-0.75781-0.13281-1.1211 0-0.33203 0.089844-0.62891 0.28906-0.83984 0.55859-2.0625 2.1758-3.6992 4.7148-4.8281 7.4922-2.0312 4.7617 0 8.8203-5.9492 10.359-3.2188 0.83984-8.0508 1.6797-11.27 2.5898-8.1914 2.3789-16.172 5.1797-24.289 7.5586h-0.003906c-6.875 2.1289-13.895 3.7656-21 4.9023-5.8359 0.88281-11.75 1.1406-17.641 0.76953-0.80078-0.097657-1.6055 0.12891-2.2344 0.62891-0.63281 0.49609-1.0391 1.2305-1.125 2.0312 0 3.0117 0 6.0195-0.69922 9.0312-0.46484 3.7734-1.3555 7.4844-2.6602 11.059-1.9922 6.7305-6.9375 12.191-13.441 14.84-4.1875 1.1602-8.5469 1.5859-12.879 1.2578l-22.609-0.42188h-11.621-10.078v0.003906c-0.18359 0.070313-0.38281 0.070313-0.5625 0v-0.55859c0.3125-5.6211-1-11.207-3.7812-16.102-2.8555-5.082-6.5469-9.6484-10.918-13.512-9.1055-6.7852-17.23-14.793-24.148-23.797-2.5898-4.3398-5.3203-9.8711-10.43-10.219-5.1094-0.35156-10.289 5.1797-14.559 2.3789h-0.003907c-1.4922-1.1602-2.5547-2.7852-3.0078-4.6211l-15.609-40.18h-0.003906c-6.3711-0.78516-12.348-3.5078-17.117-7.8008-4.7695-4.2969-8.1055-9.957-9.5508-16.211-7.9102 1.1914-30.871 4.1289-28.352-9.8008 2.5195-13.93 13.02-23.871 22.328-32.691l2.6602-2.4492c10.922-10.078 22.609-20.578 37.172-23.52 12.039-2.4492 27.578-0.98047 33.25-11.898 1.8203-3.5 2.0312-7.7695 4.1289-11.199h0.003906c1.8086-2.7422 5.125-4.0781 8.3281-3.3594 0.98047 0 1.1211 0.76953 1.9609 0 0.83984-0.76953 0.83984-2.4492 0.98047-3.0781 0.42188-2.0312 0.48828-4.0586 0.91016-6.0898 0.76953-3.3594 1.5391-7 2.4492-10.078 1.6797-6.6484 3.6406-13.301 5.7383-19.879v-0.007813c4.3906-13.27 9.6289-26.246 15.68-38.848 3.082-14.227-0.84766-29.066-10.57-39.902-2.3359-2.1133-4.2773-4.625-5.7383-7.418-1.1562-3.7383-1.1562-7.7422 0-11.48 3.6094-13.066 5.9531-26.453 7-39.969 1.0703-13.75-4.0625-27.258-14-36.82-3.4727-2.3633-6.625-5.1641-9.3789-8.332-2.7305-4.8477-3.832-10.438-3.1523-15.957 1.1211-3.1523 1.1211-6.5117 1.1211-9.8711z"/>
</svg>
