<?xml version="1.0" encoding="UTF-8"?>
<svg width="700pt" height="700pt" version="1.1" viewBox="0 0 700 700" xmlns="http://www.w3.org/2000/svg">
 <path d="m470.96 611.59c0.55859-4.8281 0-9.7305 0.48828-14.559 2.1797-8.0078 3.7031-16.176 4.5508-24.43 1.2305-6.2891 1.2305-12.754 0-19.043-0.69922-1.8203-1.8203-3.5-2.5898-5.3906-2.5898-6.5117 1.8203-18.48 2.5898-25.48 0.98047-9.2383 1.6797-18.48 1.9609-28v0.003906c-0.21094-4.7383 0.40234-9.4766 1.8203-14 1.6797-4.4805 5.1094-8.1914 7-12.461 2.5312-5.7227 4.7305-11.59 6.5781-17.57 1.6797-4.8281 2.5898-4.7617 7.4219-4.6914h7c3.4297 0 4.6211-17.5 4.9688-19.879 1.1211-9.5195-1.8906-21.629 2.6602-30.238 4.5508-8.6094 8.75-16.66 12.879-25.059v-0.003907c0.47656-0.73437 0.76563-1.5781 0.83984-2.4492-0.015625-0.95312-0.25391-1.8867-0.69922-2.7305-5.0391-11.27-13.371-21.77-17.289-33.391-1.6797-4.9688 1.8906-9.7305 3.5-14.352v0.003906c0.31641-1.0977 0.91797-2.0898 1.75-2.8711 1.6094-1.1914 3.8516-0.48828 5.8086-1.0508 5.4609-1.3984 5.0391-9.5195 7-13.578 5.6016-12.039 12.18-23.801 18.762-35 5.3906-9.6602 16.941-18.828 18.762-30.031h-0.003906c0.38672-5.9688 0.38672-11.953 0-17.918 0.17969-0.66797 0.17969-1.3672 0-2.0312-0.32422-0.46484-0.72656-0.86719-1.1875-1.1914l-12.879-9.5898h-0.003906c-5.9805-6.8398-8.0898-16.25-5.5977-24.988 0.53516-1.125 1.3008-2.125 2.2383-2.9414 6.0547-4.8438 11.785-10.082 17.152-15.68 3.0664-4.1211 5.0859-8.9258 5.8789-14 0.98047-5.25 1.2617-10.641 1.8203-15.961 0.39453-5.1875 1.5-10.301 3.2891-15.188 0.49219-1.2695 1.1016-2.4883 1.8203-3.6406 0 0 0.91016-1.3281 0.62891-1.6094s-0.91016 0-1.1211 0l-1.1914 0.35156-2.5898 0.69922 0.003907-0.003906c-1.6641 0.49219-3.457 0.28906-4.9688-0.55859-1.0508-0.62891-2.4492-6.4414-2.4492-6.4414-5.25 0-10.148 3.2188-15.609 1.9609-1.8203-0.42188-0.98047 0-2.1719-1.5391-0.82812-1.4844-1.4844-3.0586-1.9609-4.6914-1.3438-4.1875-3.7578-7.9492-7-10.918-3.3594-2.7305-7-4.6914-10.781-7-3.7812-2.3086-8.75-5.8789-12.531-4.7617-12.18 3.8516-24.148 7.9102-36.051 12.531h0.003907c-0.89063 0.58984-2.0508 0.58984-2.9414 0-7.0586-4.6914-14.402-8.9453-21.98-12.742-2.7305-1.1211-2.8008-0.42188-5.1797 1.75s-4.6914 4.1289-7 6.2305-8.2617 9.1719-12.391 8.9609c-7-0.35156-17.711 0-22.961-5.3906l-4.6211-4.8984h0.003906c-0.96484-1.0898-2.0156-2.0977-3.1523-3.0117-4.3672-2.6016-9.0781-4.582-14-5.8789h-0.69922c-0.52344 0.625-1.1992 1.1055-1.9609 1.3984-2.9883 1.9727-5.4023 4.7031-7 7.9102-4.4141 7.5703-7.2695 15.949-8.3984 24.641-0.55859 4.1289-1.1211 9.0312-4.7617 11.129-1.3281 0.76953-3.1484 1.1914-3.9219 2.5898l0.003906 0.003906c-0.28125 0.93359-0.28125 1.9336 0 2.8672 0.24219 4.6641 0.24219 9.3359 0 14 0.039062 2.9414-0.38672 5.8711-1.2617 8.6797-1.0508 2.4414-2.3125 4.7852-3.7773 7-4.3867 8.9844-7.9258 18.359-10.57 28-3.4766 9.2305-8.5742 17.762-15.051 25.203-4.5703 5.6367-9.5273 10.945-14.84 15.887-1.9961 2.5703-5.2891 3.7656-8.4688 3.082-6.6445-0.72656-13.359-0.53906-19.953 0.55859-3.1484 0.69922-9.2383 4.8281-11.898 4.2695-2.6602-0.55859-4.9688-4.4102-7-5.8789s-5.4609-4.8984-8.6094-4.0586c-3.0859 0.87891-5.9492 2.4062-8.3984 4.4805-1.6797 1.9609-1.6797 4.8984-3.0781 7-3.5 5.3906-6.3008 11.199-9.3789 16.801s-7.6992 10.781-10.57 16.52c-1.4688 3.0781-2.0312 6.5117-3.2188 9.6602l1.8906 2.0312-0.007812-0.003907c0.59766 1.6562 0.8125 3.4297 0.63281 5.1797v20.23c0 5.6016 0.55859 11.828 0 17.57-0.66406 3.0586-1.8242 5.9922-3.4297 8.6797-0.58594 1.4023-1.3125 2.7383-2.1719 3.9922-2.4492 2.8711-7.7695 1.8203-10.5 4.7617v-0.003906c-0.40625 0.48437-0.73828 1.0273-0.98047 1.6094-2.4805 7.1523-3.8984 14.629-4.1992 22.191 0 0.83984-3.0117 2.8711-3.5703 3.4297-1.6797 1.2617-3.207 2.7188-4.5508 4.3398-1.3984 2.4492 0.69922 3.6406 2.1719 5.5312 2.3711 2.7109 4.3711 5.7227 5.9492 8.957 0.75781 1.3633 1.2344 2.8633 1.3984 4.4102 0.35156 4.0586-3.4297 7.6992-4.6211 11.41h0.003906c-1.2266 4.0234-1.9336 8.1875-2.1016 12.391 0.007812 3.7891 1.3438 7.457 3.7812 10.359 0.62891 0.91016 2.5898 2.8711 2.7305 3.9219 0.14063 1.0508-2.4492 4.6211-3.4297 6.0898-5.4805 8.1953-11.711 15.859-18.621 22.891-1.0625 1.1133-2.207 2.1445-3.4297 3.0781-1.8203 1.1133-3.7422 2.0508-5.7422 2.8008-10.5 4.1289-21 8.2617-31.641 12.25-2.5391 0.96094-4.3789 3.1992-4.8281 5.8789-0.48828 3.2891-1.0508 6.5781-1.6094 9.8711-0.16406 1.2891-0.46875 2.5586-0.91016 3.7812-0.83984 1.625-1.9258 3.1133-3.2188 4.4102-3.3359 3.8867-6.2266 8.1367-8.6133 12.668-1.1914 2.3789-5.8789 10.078-3.5703 12.391 2.5391 1.3828 5.2812 2.3516 8.1211 2.8711 0.71484 0.31641 1.4688 0.52734 2.2422 0.62891 0.99609 0.039062 1.9922-0.10547 2.9375-0.41797l7-1.6797c1.3984 0 4.8984-0.42188 5.8789-1.3984 0.98047-0.98047 1.1211-3.5 1.3984-4.6914 0.83984-4.6211 1.1211-9.3086 1.9609-14l0.003906-0.003906c0.042969-0.34766 0.16016-0.67969 0.34766-0.97656 0.24219-0.28906 0.55859-0.50781 0.91016-0.63281l20.16-10.289c4.1133-1.1992 8.3945-1.6953 12.672-1.4688 5.3594-0.38672 10.738-0.38672 16.098 0 1.0859 0.20703 2.2031 0.20703 3.293 0 1.0664-0.35547 2.0664-0.89844 2.9375-1.6094l27.301-20.09v-0.003906c1.5078-1.0273 2.9141-2.1992 4.1992-3.5 1.1641-1.4023 2.1719-2.9297 3.0117-4.5469 1.9609-3.3594 3.7812-7 6.0195-10.078s4.4102-5.4609 6.3008-8.3984v-0.003907c2.3672-3.6562 4.0508-7.7109 4.9688-11.973 0.76953-3.1484 0-9.7305 2.9414-11.898 2.9414-2.1719 9.0312 0 11.898-0.62891 2.3945-0.48438 4.7344-1.1875 7-2.1016 3.3594-1.2617 9.2383-5.5312 10.781-0.98047 1.5391 4.5508 2.5898 9.5898 3.9883 14l-0.35156 21v12.18h0.003907c0.019531 9.6016 0.88672 19.184 2.5898 28.633l2.7305 14c2.2383 10.922 5.3906 21.629 7 32.621 1.2617 7 1.6797 14.629 2.4492 21.98v-0.003906c0.097656 1.7812 0.67578 3.4961 1.6797 4.9727 1 1.2305 2.0742 2.3984 3.2188 3.5l3.5703 4.1289 4.4102 5.1797c4.6602 5.2656 9.9219 9.9648 15.68 14 5.8789 3.9883 11.762 7.9102 17.781 11.551 7.9805 4.6914 16.801 8.1914 25.129 12.18 1.7109 1.0508 3.5156 1.9414 5.3906 2.6602 2.3047 0.43359 4.6562 0.59766 7 0.48828h18.969c0.79688 0.25 1.6523 0.25 2.4492 0 0.66406-0.35937 1.2188-0.89062 1.6133-1.5391l2.6602-3.3594h-0.003906c0.27344-0.35547 0.60547-0.66406 0.98047-0.91016 0.52734-0.14062 1.082-0.14062 1.6133 0h7.9102-0.003906c2.043 0.050781 4 0.81641 5.5312 2.168 2.3789 1.9609 5.0391 3.6406 7.4883 5.6016 1.3281 1.0508 2.4492 2.6602 4.0586 3.2188s0.55859 0 1.2617-0.48828h0.003906c0.48047-0.64844 0.92578-1.3281 1.3281-2.0312 1.8906-2.8008 3.8516-5.5312 5.8789-8.2617v0.003906c0.41016-0.61328 1.0859-1.0039 1.8203-1.0508z"/>
</svg>
