<svg xmlns="http://www.w3.org/2000/svg" viewBox="0 0 100 100"><g id="Baara"><path d="M15.35,23.24h.11a2,2,0,0,1,.94,0,2.19,2.19,0,0,1,.78.49c.22.21.4.47.64.66s.54.29.76.49.31.46.51.65a5.14,5.14,0,0,0,.67.48c.26.2.47.45.72.65a2.91,2.91,0,0,0,.82.47,4.09,4.09,0,0,0,1,.29,3.89,3.89,0,0,1,1,.19,7.9,7.9,0,0,1,.8.46,1.05,1.05,0,0,0,.41.17,2.18,2.18,0,0,0,.51,0c.34,0,.68,0,1,0a1.76,1.76,0,0,0,.91-.12c.23-.14.32-.44.57-.54s.54.13.72.32.39.46.71.48c.63,0,.78-.63,1.16-1l.34-.28a2.24,2.24,0,0,1,.34-.27,3,3,0,0,1,.89-.21,1.45,1.45,0,0,1,.92,0c.12.06.21.15.32.21a1.15,1.15,0,0,0,.37.12.83.83,0,0,1,.6.44c.14.25.24.55.53.66a.92.92,0,0,0,.37,0,.42.42,0,0,1,.34.2c.13.2.17.45.29.66.31.57,1,.61,1.64.61a3.57,3.57,0,0,0,1.83-.47,3.83,3.83,0,0,0,.68-.52,1.87,1.87,0,0,1,.71-.48c.32-.1.63-.18.94-.3a1.45,1.45,0,0,1,.94-.1A3.86,3.86,0,0,0,43,28a.77.77,0,0,1,.42.1,1.85,1.85,0,0,1,.28.28,2.1,2.1,0,0,0,.71.54,4.86,4.86,0,0,0,.91.23,1.59,1.59,0,0,1,.85.27.54.54,0,0,1,0,.68,1.33,1.33,0,0,0-.26.81,2.82,2.82,0,0,0,.32.88.44.44,0,0,1,0,.37c0,.14-.17.24-.19.38s.19.41.39.51a7.89,7.89,0,0,0,.92.46,2,2,0,0,1,.82.35,2.28,2.28,0,0,1,.44.71,7,7,0,0,0,.47.85,2.58,2.58,0,0,0,1.28,1.16c.23.08.58.15.67.41s-.14.5-.24.7a3,3,0,0,0-.24.82.62.62,0,0,0,.2.7c.22.14.49.16.69.33a1.76,1.76,0,0,1,.45.69c.1.24.2.53,0,.73s-.49.26-.72.42c-.06.05-.16.14-.15.23s.17.15.27.16a7.79,7.79,0,0,0,1,.09,5.17,5.17,0,0,0,1-.18c.31-.08.63-.16.94-.26l.48-.15c.09,0,.25-.13.29,0s0,.25-.07.34-.07.32-.1.48a6.34,6.34,0,0,0,0,1,1.08,1.08,0,0,1-.37.74,6.8,6.8,0,0,0-.63.56.77.77,0,0,0-.18.74c.09.24.33.42.47.65a5.24,5.24,0,0,0,.43.77,5.07,5.07,0,0,0,.66.65,3.15,3.15,0,0,0,.77.54,3,3,0,0,1,.8.45c.23.2.44.43.67.63a1.83,1.83,0,0,0,1.7.5,2.44,2.44,0,0,0,.71-.53c.26-.2.53-.41.8-.6a2.6,2.6,0,0,1,.84-.4,6.44,6.44,0,0,1,1-.15,5.66,5.66,0,0,1,2,0,4.13,4.13,0,0,1,1.65.85,4.78,4.78,0,0,0,.67.6,3,3,0,0,0,.86.38,3.29,3.29,0,0,1,.93.2c.24.13.42.35.65.49a2.76,2.76,0,0,0,.88.29,5.14,5.14,0,0,1,1,.27,9.27,9.27,0,0,1,.89.45,1.8,1.8,0,0,0,.8.29.49.49,0,0,0,.51-.45c0-.26-.19-.48-.14-.75.09-.48.8-.37,1.08-.69s.11-.49.18-.73a1,1,0,0,1,.6-.54,2.17,2.17,0,0,0,.72-.42c.24-.27.1-.53,0-.82a1.2,1.2,0,0,1-.08-.87c.11-.25.33-.42.4-.7a6.25,6.25,0,0,0,.08-.87c0-.23.1-.57.38-.61s.53.15.75.23a3.49,3.49,0,0,1,.86.44,8.77,8.77,0,0,1,1.23,1.28,5.21,5.21,0,0,1,1,1.54,7.59,7.59,0,0,1,.27.93,1.69,1.69,0,0,0,.14.45,2.8,2.8,0,0,0,.27.4,3.58,3.58,0,0,1,.32.82.63.63,0,0,0,.53.35,15.15,15.15,0,0,0,2,.06,14.37,14.37,0,0,1,2.08.21,4.74,4.74,0,0,1,.91.26,1.78,1.78,0,0,0,1,.07c.33-.06.65-.15,1-.18s.67,0,1,0a6.74,6.74,0,0,0,.9-.14,3,3,0,0,1,.94,0,11.59,11.59,0,0,0,2,0,3.46,3.46,0,0,1,.85,0c.11,0,.81.34.48.48-.15.07-.29,0-.43,0s-.35.33-.48.51-.35.4-.34.65.27.45.27.72-.28.27-.48.25a4.44,4.44,0,0,0-.89-.06c-.21,0-.37.14-.36.37s.26.46.38.69a.55.55,0,0,1-.15.72c-.19.15-.48.27-.51.55s0,.27,0,.41a1.28,1.28,0,0,1-.19.41.73.73,0,0,0-.16.37.92.92,0,0,0,.11.46c.07.15.13.29.2.43a2.3,2.3,0,0,0,.28.34c.22.24.4.5.6.75a2.44,2.44,0,0,1,.53.75,4.71,4.71,0,0,1,.11.84c0,.32.27.41.48.63a.35.35,0,0,1,.11.37,1.32,1.32,0,0,1-.26.36.77.77,0,0,0,0,.8,1.31,1.31,0,0,1,.25.68c0,.48-.51.8-.81,1.12a.94.94,0,0,0-.36.75.68.68,0,0,1-.22.67,4.8,4.8,0,0,1-.83.38,3.12,3.12,0,0,0-.81.42c-.33.33-.16,1.12-.78,1.15a1.32,1.32,0,0,1-.66-.24c-.18-.1-.48-.26-.68-.14s.06.38.13.52-.11.56-.21.78a.8.8,0,0,0,0,.79c.14.26.34.48.49.74a5.56,5.56,0,0,0,.53.83,1.5,1.5,0,0,0,.66.59.54.54,0,0,1,.27.09.2.2,0,0,1,0,.28c-.13.18-.36.25-.53.38-.5.38-.33,1.08-.21,1.61a1.29,1.29,0,0,0,.12.38c0,.08.2.24.18.32s-.2.14-.27.18a1.38,1.38,0,0,0-.29.3,1.45,1.45,0,0,1-.68.55c-.3.11-.62.14-.91.26a5.5,5.5,0,0,0-.81.47c-.29.18-.6.32-.9.49s-.51.34-.76.52a2.33,2.33,0,0,1-.82.44.83.83,0,0,1-.79-.23,1.58,1.58,0,0,0-.7-.47c-.28,0-.52.14-.79.18a.53.53,0,0,1-.59-.38,3.39,3.39,0,0,1,0-.9c0-.31.1-.61.1-.91a.51.51,0,0,0-.42-.52,3.32,3.32,0,0,0-.44-.06,1.3,1.3,0,0,1-.43-.15c-.29-.14-.6-.2-.89-.34a2.71,2.71,0,0,0-.87-.29.85.85,0,0,1-.35-.08,1,1,0,0,1-.31-.3.76.76,0,0,0-.69-.31,4.32,4.32,0,0,1-1,0,1.48,1.48,0,0,1-.73-.41,2.34,2.34,0,0,0-.3-.25,1.11,1.11,0,0,0-.48-.09,2.47,2.47,0,0,0-.47,0,1.81,1.81,0,0,0-.45.14,1.82,1.82,0,0,1-.91.19,1.38,1.38,0,0,0-.9.06.9.9,0,0,0-.29.21c-.09.14-.06.33-.1.48s-.15.51-.42.53a2.87,2.87,0,0,1-.65-.12c-.34-.08-.66-.18-1-.28a16.51,16.51,0,0,1-1.95-.65,8,8,0,0,1-1.64-1c-.5-.4-.93-.88-1.39-1.33a1.63,1.63,0,0,0-.71-.48,5.21,5.21,0,0,0-1,0,1.92,1.92,0,0,1-.84-.36c-.29-.19-.58-.36-.88-.53a6.84,6.84,0,0,1-1.49-1.19,4.86,4.86,0,0,0-1.38-1.13,4.19,4.19,0,0,1-.82-.48,7.27,7.27,0,0,0-.78-.55,14.38,14.38,0,0,1-1.66-1c-.52-.41-1-.91-1.56-1.27a1.21,1.21,0,0,0-.77-.21c-.28,0-.55.05-.75-.19s-.27-.49-.46-.7a2.39,2.39,0,0,0-.74-.47,2.77,2.77,0,0,1-.75-.42,5.45,5.45,0,0,1-.57-.7,4.77,4.77,0,0,0-1.53-1,3.49,3.49,0,0,0-.81-.37,1.87,1.87,0,0,1-.75-.36c-.19-.2-.26-.49-.47-.67a1.15,1.15,0,0,0-.8-.23,2.66,2.66,0,0,1-1-.11,1.81,1.81,0,0,1-.69-.47c-.42-.45-.55-1.06-1-1.5a1,1,0,0,1-.3-.66,1,1,0,0,0-.42-.65,1.19,1.19,0,0,0-.36-.24c-.15-.05-.3-.06-.45-.11a3.63,3.63,0,0,1-.73-.5,3.15,3.15,0,0,0-.82-.41c-.28-.09-.58-.14-.86-.25a4.78,4.78,0,0,1-.82-.53,2.74,2.74,0,0,0-.82-.41,12.76,12.76,0,0,1-1.92-.55,7,7,0,0,0-.9-.36,3.28,3.28,0,0,1-.84-.36,1.71,1.71,0,0,1-.5-.63,4.9,4.9,0,0,0-.56-.79,3.77,3.77,0,0,0-.66-.6c-.26-.2-.5-.42-.75-.63A2.71,2.71,0,0,1,30.59,47a2.91,2.91,0,0,0-.29-.76,1.75,1.75,0,0,0-.61-.5.72.72,0,0,1-.41-.65c0-.29.27-.52.33-.81a.81.81,0,0,0-.16-.73c-.2-.2-.53-.19-.79-.28s-.43-.24-.32-.5.17-.23.23-.35a.83.83,0,0,0,.06-.44,1.56,1.56,0,0,0-.42-.75,1.51,1.51,0,0,1-.37-.72,4.24,4.24,0,0,0-.45-1.69,1.14,1.14,0,0,0-.63-.42.83.83,0,0,1-.57-.44.61.61,0,0,1,.24-.67c.19-.15.46-.22.59-.43s0-.53-.23-.69a.84.84,0,0,1-.44-.5,8.85,8.85,0,0,0-.08-.9,1.24,1.24,0,0,0-.54-.67c-.4-.28-.93-.4-1.26-.78a1.39,1.39,0,0,1-.26-.8c0-.23-.12-.55-.42-.5s-.3.3-.32.5a8.85,8.85,0,0,1-.12.9,2.28,2.28,0,0,0,0,.9.85.85,0,0,0,.46.55c.19.13.47.36.41.62s-.41.28-.63.19a2.14,2.14,0,0,1-.32-.2,2.34,2.34,0,0,0-.46-.19A3.68,3.68,0,0,1,22,35c-.24-.14-.34-.39-.52-.6a.56.56,0,0,0-.76-.1c-.23.14-.43.38-.72.38s-.31-.21-.31-.41a5.08,5.08,0,0,0,0-.78,2.8,2.8,0,0,0-.44-.88,5.65,5.65,0,0,1-.4-.94c-.06-.19-.11-.49-.35-.55a.85.85,0,0,0-.64.27,1.62,1.62,0,0,0-.42.64,4.26,4.26,0,0,1-.25.71,1,1,0,0,1-.77.34c-.3,0-.59.18-.9.22a.79.79,0,0,1-.71-.3,5.79,5.79,0,0,0-.57-.64,2.17,2.17,0,0,0-.8-.41,1.15,1.15,0,0,1-.66-.39c-.12-.18-.05-.4-.11-.6s-.43-.15-.65-.12a2.36,2.36,0,0,1-.88,0c-.29-.08-.46-.36-.63-.59s-.39-.44-.59-.67a4.32,4.32,0,0,1-.54-.8A6.08,6.08,0,0,0,8.85,28c-.19-.24-.36-.49-.54-.74a1.66,1.66,0,0,0-.67-.56l-.84-.36c-.3-.13-.6-.24-.91-.34s-1.22-.5-.76-1a5.08,5.08,0,0,1,.7-.52A3,3,0,0,1,6.66,24a1.77,1.77,0,0,1,.94,0c.28.06.62.23.86,0s.33-.42.53-.6a3.69,3.69,0,0,1,.76-.5,1.58,1.58,0,0,0,.36-.26,3,3,0,0,0,.23-.27.53.53,0,0,1,.67-.07c.26.12.49.29.76.4a4.16,4.16,0,0,0,.9.25c.32.05.65.07,1,.09a2.34,2.34,0,0,1,.45.07c.15,0,.29.11.45.14A2.47,2.47,0,0,0,15.35,23.24Z"/></g></svg>