<svg xmlns="http://www.w3.org/2000/svg" viewBox="0 0 100 100"><g id="Baara"><path d="M59.4,24.35l.06,0c.18-.06.45.17.58.27a3.8,3.8,0,0,1,.62.65A2.58,2.58,0,0,0,62,26.36c.62.14,1.27,0,1.9.09a3.26,3.26,0,0,1,1.7.84,8.84,8.84,0,0,0,1.49,1.24,3.77,3.77,0,0,0,2,.2,12.41,12.41,0,0,1,2.08.36,4.31,4.31,0,0,1,1.84.64,14.33,14.33,0,0,1,1.47,1.34,16.68,16.68,0,0,0,1.61,1.14A2.07,2.07,0,0,1,77,33.63a3.55,3.55,0,0,0,.58,1.77c.8,1,2.08,1.08,3.22,1.32a5.26,5.26,0,0,0,1.87.32,14.59,14.59,0,0,1,1.49-.32c1.33-.1,3.76.21,4.07,1.85a5,5,0,0,1,0,1c0,.26.11.62,0,.86-.29.48-1,.17-1.39.34a1,1,0,0,0-.51.6,1.53,1.53,0,0,1-.52.71,3.15,3.15,0,0,1-.78.33,3.44,3.44,0,0,0-.84.46,4.59,4.59,0,0,1-.81.51,4.24,4.24,0,0,1-.93.24c-.36.08-.91.29-.92.74s.61.73,1,1c.5.36.37.84,0,1.27s-.76.83-.67,1.46c.05.32.18.63.22,1a7,7,0,0,0,.1,1c.18.55.74.76,1.23.94a1.67,1.67,0,0,0,1.72-.2,2.54,2.54,0,0,1,1.28-.81c.9-.09,1.19.7,1.46,1.39a2.14,2.14,0,0,0,.57.93,2.45,2.45,0,0,0,1.61.37,2.45,2.45,0,0,1,1.64.46c.37.31.79.89.4,1.34a2.41,2.41,0,0,1-1.69.54,3.54,3.54,0,0,0-1.65.26c-.55.33-.69,1-1,1.52a4.74,4.74,0,0,1-1.48,1.3A3.74,3.74,0,0,0,85,59c-.36.53-.06,1.09,0,1.64a2.32,2.32,0,0,1-.54,1.73,3.68,3.68,0,0,0-.72,1.73,6.81,6.81,0,0,0,.38,2c.08.31.12.62.22.93s.24.67.35,1c.3.89.65,2.71-.6,3a9.17,9.17,0,0,0-1.72.33,6.3,6.3,0,0,0-.8.55,1.8,1.8,0,0,1-.91.33c-.45,0-1.05.08-1.3.52s.14.74.31,1.09a.39.39,0,0,1,0,.45c-.17.17-.48.1-.69.14a2.07,2.07,0,0,0-.7.38,3,3,0,0,1-.88.46,2.15,2.15,0,0,1-1.67-.12,2,2,0,0,1-.55-.52,2.52,2.52,0,0,0-.52-.64,1.88,1.88,0,0,0-.9-.26c-.37,0-.73-.12-1.1-.18a3,3,0,0,0-.94,0,1.46,1.46,0,0,1-.83,0c-.46-.19-.75-.58-1.29-.54a2.06,2.06,0,0,0-1.44.74c-.23.29-.27.69-.48,1s-.77.16-1-.21c-.12-.21-.19-.49-.43-.59a.43.43,0,0,0-.56.24c-.13.38.14.78,0,1.15s-.64.41-1,.32A12.16,12.16,0,0,1,63.25,75a2.3,2.3,0,0,0-1.76.13,1.61,1.61,0,0,1-1.62-.34c-.23-.19-.44-.42-.66-.62a5.23,5.23,0,0,0-.87-.61,5.67,5.67,0,0,1-1.42-1.11c-.82-.94-1.37-2.3-2.75-2.54a1,1,0,0,0-.78.16c-.2.17-.32.43-.53.58-.55.38-.94-.54-1.43-.61-.28,0-.37.16-.29.4s.31.54,0,.68c-.5.21-1.13-.51-1.43-.82-.84-.85-1.84-2-3.15-1.81-.66.08-1.33.44-2,.25a4.59,4.59,0,0,1-.77-.38.86.86,0,0,0-.9,0c-.22.11-.44.25-.68.15a.9.9,0,0,1-.41-.49,1,1,0,0,0-.38-.51.79.79,0,0,0-.72,0c-1.12.46-1.24,2-1.87,2.85a2,2,0,0,1-1.52.83,4.89,4.89,0,0,1-1.57-.12.82.82,0,0,1-.51-.32.9.9,0,0,1,0-.72,1,1,0,0,0,0-.65.73.73,0,0,0-.61-.36,1.51,1.51,0,0,1-.64-.16.69.69,0,0,1-.25-.63,1.19,1.19,0,0,0-.1-.7A.62.62,0,0,0,33,67.3a14.4,14.4,0,0,0-1.66.51,1.59,1.59,0,0,1-1.42-.59,1.72,1.72,0,0,0-.66-.43,2.49,2.49,0,0,0-1,0c-.43,0-1.28.2-1.21-.48,0-.21.14-.44,0-.64s-.46-.22-.67-.12a5,5,0,0,0-.72.56,2.85,2.85,0,0,1-.89.44,7.54,7.54,0,0,0-.9.34,9.33,9.33,0,0,1-1,.44,1.17,1.17,0,0,1-1.35-.55c-.22-.3-.64-1.26-1.13-.84-.3.25-.27.74-.38,1.09s-.55.75-.81.28a5.28,5.28,0,0,1-.19-.71,1.76,1.76,0,0,0-.55-.74c-.3-.25-1.14-.67-1.36-.11-.16.4.16.82,0,1.22-.19.59-.93.4-1.38.37a12.9,12.9,0,0,0-1.94.42c-1.42.14-2.26-1.38-3.66-1.34-.59,0-1.17.34-1.76.2a1,1,0,0,1-.72-1.25,2.05,2.05,0,0,1,1.2-1.18,6,6,0,0,0,1.66-1,16.12,16.12,0,0,0,1.14-1.57,5.87,5.87,0,0,1,1.45-1.36A3.25,3.25,0,0,1,15,59.53a2.56,2.56,0,0,1,1.65.83c1,.93,2.09,1.74,3.55,1.53a6,6,0,0,0,2-.73A3.76,3.76,0,0,1,24,60.39c.56,0,1.11.17,1.67.23a4.47,4.47,0,0,0,1.59-.09,1.94,1.94,0,0,0,1.22-.83c.13-.22.21-.46.35-.68a1.42,1.42,0,0,1,.64-.49,2.94,2.94,0,0,0,1.35-.89,3.67,3.67,0,0,0,.39-1.11,2.31,2.31,0,0,1,.48-1.08,1.45,1.45,0,0,1,1.39-.25,7.92,7.92,0,0,1,1.85.9,8.62,8.62,0,0,1,.8.54c.25.17.58.41.9.25s.49-1,.75-1.39a1.34,1.34,0,0,1,1.3-.6,7.22,7.22,0,0,0,1,0,8.3,8.3,0,0,1,1.11,0,2.1,2.1,0,0,0,1.75-.44,5.34,5.34,0,0,1,.66-.6,3.07,3.07,0,0,1,.79-.33.91.91,0,0,0,.6-.46,2.19,2.19,0,0,0,0-.95A3.19,3.19,0,0,1,46.54,49c.31-.19,1-.5,1.11-.92.05-.26-.28-.36-.48-.41a1.68,1.68,0,0,1-.77-.37,2.08,2.08,0,0,1-.61-1.67c.08-.59.56-.81,1.09-.92a4.49,4.49,0,0,0,1.61-.6,5.38,5.38,0,0,0,1.3-1,1,1,0,0,0,0-1.34,3.66,3.66,0,0,0-1.7-.63c-1.11-.29-2.6-1.31-2.12-2.63a2.73,2.73,0,0,1,1.2-1.29c.56-.36,1.11-.73,1.68-1.06a2.91,2.91,0,0,1,.84-.34,4.86,4.86,0,0,0,.91-.23,1.69,1.69,0,0,0,.86-1.23A2.42,2.42,0,0,1,52.36,33a1.52,1.52,0,0,1,.81-.28,2.12,2.12,0,0,0,.87,0c.56-.28-.33-1.09-.49-1.38a1.65,1.65,0,0,1,.18-1.73l.46-.72a2.27,2.27,0,0,1,.49-.66c.54-.47,1.06,0,1.56.28,1,.55,2.06-.35,2.66-1.11a3.17,3.17,0,0,0,.73-1.56,1.47,1.47,0,0,0-.14-.8C59.41,24.87,59.2,24.49,59.4,24.35Z"/></g></svg>