<?xml version="1.0" encoding="UTF-8"?>
<svg width="700pt" height="700pt" version="1.1" viewBox="0 0 700 700" xmlns="http://www.w3.org/2000/svg">
 <path d="m602 209.16c1.1211 2.2383-5.25 7-7 8.3984l-0.69922 0.83984c-0.074219 0.46484-0.074219 0.9375 0 1.4023-0.42188 7.4883-0.83984 14.98-1.5391 22.469 0.078125 0.17969 0.078125 0.38281 0 0.55859h-0.48828-12.043c-0.25391-0.070313-0.51953-0.070313-0.76953 0-0.21875 0.19141-0.38672 0.43359-0.49219 0.70312-2.5898 5.9492-5.3203 11.898-7.7695 17.988-0.30469 0.72266-0.53906 1.4727-0.69922 2.2422-0.14062 0.99609-0.14062 2.0117 0 3.0078l2.9414 12.461c0.41406 1.3867 0.625 2.8242 0.62891 4.2695-0.035156 1.2812-0.24609 2.5547-0.62891 3.7812-1.5234 10.348-5.9375 20.055-12.742 28-2.0352 1.6836-3.9766 3.4844-5.8086 5.3906-2.5273 3.7852-3.8203 8.2578-3.7109 12.809-0.51953 4.5664-1.9219 8.9883-4.1289 13.02-2.6484 3.9414-5.8555 7.4805-9.5195 10.5-4.2266 4.3828-8.1328 9.0625-11.691 14-0.55469 0.72656-1.0469 1.5-1.4688 2.3086-0.39844 0.98828-0.65625 2.0234-0.76953 3.082l-1.6797 10.078c-0.078125 2.7422-0.64844 5.4414-1.6836 7.9805-0.98047 1.5391-2.7305 2.3789-3.8516 3.7812h0.003906c-1.3828 2.0664-2.0938 4.5117-2.0312 7-0.69141 6.1367-1.8164 12.219-3.3594 18.199-0.98047 3.9883-3.5703 4.4102-5.9492 7-1.582 1.8203-2.9453 3.8164-4.0625 5.9492-0.33594 0.45312-0.55469 0.98047-0.62891 1.543-0.13672 0.47656-0.13672 0.98828 0 1.4688l2.7305 8.0508c0.78906 2.75 2.4023 5.1914 4.6211 7 5.2656 4.9844 9.5391 10.922 12.598 17.5l2.3789 9.2383h0.003906c-5.4727 0.76562-10.684 2.8281-15.191 6.0195l-5.4609 5.4609c-2.3945 3.0625-3.918 6.7148-4.4102 10.57-2.1289 6.5508-4.6328 12.98-7.4883 19.25-1.7422 4.4844-2.8047 9.2031-3.1523 14 0 3.1875-0.25781 6.3711-0.76953 9.5195-1.0508 3.5-3.9219 5.8789-4.8281 9.5195-0.40234 2.3711-1.5859 4.5391-3.3594 6.1602-4.5703 3.5469-8.6445 7.6914-12.109 12.32-4.3164 5.9492-8.9922 11.633-14 17.012-4.2227 5.168-10.027 8.8086-16.523 10.359-4.1562 0.72266-8.3867 0.95703-12.598 0.69922l-20.301-0.42187h-10.148c-1.8984-0.26172-3.8281-0.023438-5.6016 0.70312-1.1211 0.69922-2.5195 2.5195-3.7109 2.8711-1.1914 0.35156-3.2188-2.0312-4.5508-2.9414-1.3281-0.91016-4.8281-0.98047-7-2.0312-0.69922 0-1.3281-0.62891-2.0312-0.83984-0.69922-0.21094-3.7109 1.0508-5.3906 1.5391h0.003906c-2.2031 0.39062-4.3477 1.0742-6.3711 2.0312-0.69922 0.48828-1.2617 1.1914-1.9609 1.6797-2.4062 0.92578-4.9844 1.332-7.5586 1.1914-4.9688 0.48828-9.8008 3.7109-14.84 3.0117-6.1602-0.98047-12.18-2.6602-18.199-3.6406v-0.003906c-5.957-0.83984-11.977-1.1914-17.992-1.0469-2.9688 0.45312-5.9883 0.45312-8.957 0-2.0312-0.83984-4.3398-4.1289-5.9492-5.7383l-0.91016-0.69922h-12.18c-2.1016 0.55859-4.2695 0.62891-5.5312 2.5898v-0.003907c-2.3008 4.2812-4.2188 8.7539-5.7422 13.371l-1.3984-0.42188-7-1.9609-7 1.3281h-8.3984l-7-3.3594-16.73-3.0117-16.449-2.7305-12.879 0.98047-16.73-5.7383-12.602-2.1016-8.1211-1.8906v-1.1914c0.42188-9.9414-17.781-15.191-14-24.43-7.6992-9.5898-15.191-19.531-22.121-29.68v0.003906c-4.5195-5.9844-7.7383-12.852-9.4492-20.16-2.3086-11.27 2.1016-22.609 5.0391-33.391v0.003906c1.6797-5.2891 2.668-10.77 2.9414-16.312 0-4.4805-2.6602-8.9609-2.2383-13.512l-0.003907 0.003906c1.1914-4.7188 2.8828-9.293 5.043-13.652 3.4922-10.328 6.0898-20.938 7.7695-31.707 0.81641-10.113 3.0547-20.059 6.6484-29.543 2.3477-5.1562 6.0469-9.5859 10.711-12.809 4.1289-2.7305 10.711-1.8906 14-6.2305 2.3789-4.8359 4.0977-9.9688 5.1094-15.258 3.3555-6.1641 5.0898-13.078 5.0391-20.094-0.41016-1.7969-0.69141-3.6211-0.83984-5.457 0.15234-2.4141 0.72266-4.7812 1.6797-7 2.6602-7 5.3203-14 8.0508-21 0.91016-2.4492 2.1719-5.1797 4.6914-5.9492 2.3828-0.49219 4.8359 0.43359 6.3008 2.3789 1.3789 1.8984 2.5547 3.9414 3.5 6.0898 0.49609 0.98828 1.1875 1.8711 2.0273 2.5898 1.043 0.57812 2.1797 0.96094 3.3594 1.1211 6.4414 1.0508 17.289 3.7812 20.16-3.7812 1.0156-5.918 1.2969-11.934 0.83984-17.922-0.015625-0.84375 0.23047-1.6758 0.70312-2.3789 2.5195-3.4297 11.059 1.5391 14-2.6602 0.83594-1.2148 1.3867-2.6016 1.6094-4.0586 1.9844-7.875 5.9609-15.109 11.551-21 0.89062-0.73828 1.625-1.6406 2.168-2.6602 0.35938-1.0352 0.55078-2.125 0.5625-3.2188 0.80469-8.9375 4.6328-17.332 10.848-23.801 0.40625-0.39062 0.71875-0.87109 0.91016-1.4023 0.12891-0.52734 0.12891-1.0781 0-1.6094l-7-15.539-0.83984-2.0312 0.42188 0.83984 5.3906-1.3984c3.2188-1.9609 2.7305-1.2617 6.4414-1.1914h-0.003906c0.98047-0.27734 1.9922-0.41797 3.0117-0.41797 2.8672 0.30469 5.6914 0.96094 8.3984 1.957l9.6602 2.5898v0.003906c0.51172 0.066406 1.0273 0.066406 1.5391 0 0.54688-0.10156 1.0859-0.24219 1.6094-0.42188l5.1094-2.1719h0.003906c2.1797-0.96484 3.8047-2.8711 4.4062-5.1797 1.1484-4.418 2.5508-8.7617 4.2031-13.02 0.37891-0.55078 0.88281-1.0078 1.4688-1.3281 1.9688-0.73438 4.0117-1.25 6.0898-1.5391h0.69922c0.19141-0.20312 0.33203-0.44141 0.42188-0.70312 1.6797-3.7812 3.3594-7.4883 4.8984-11.27s3.2891-3.6406 5.6719-5.1797c2.3789-1.5391 4.6211-2.4492 4.7617-4.4805h-0.003907c-0.10156-3.9766 0.10547-7.9531 0.63281-11.898 0.43359-1.7266 1.0195-3.4141 1.75-5.0391 2.418-5.7383 6.6484-10.531 12.039-13.652 0.5-0.26953 0.94922-0.625 1.3281-1.0508 0.42969-0.5625 0.73828-1.2031 0.91016-1.8867 0.78125-3.2031 2.0312-6.2695 3.7109-9.1016 0.47266-0.4375 1.1133-0.64062 1.75-0.55859h9.8711c0.31641 0.10547 0.66016 0.10547 0.98047 0 1.3281-0.91016-2.0312-7-1.6797-8.8203 0.34766-1.8203 2.168-18.621 8.2578-15.262l4.1289 2.3789c0.42188 0 5.8086 3.2188 6.0195 2.6602 0.21094-0.55859 0.55859-5.7383 2.3086-4.8984 0.48828 0 0.69922 0.83984 0.83984 1.3281 1.1211 4.1992-0.98047 8.3281 0 12.461h0.003906c1.3008 4.7188 3.6992 9.0586 7 12.672 0.32812 0.42187 0.73047 0.77734 1.1875 1.0508 0.55078 0.17969 1.1133 0.32031 1.6836 0.41797l14 1.6094c4.0586 0.42188 7.4219-3.5 11.621-3.6406 1.5391 0 3.0117 0.35156 4.5508 0.48828l-0.003906 0.003906c7.8438 0.63672 15.48 2.8281 22.469 6.4375 11.551 6.2305 11.898 5.3906 14 7.9805 0.55859 0.69922 3.4297 3.2891 3.4297 4.1289v0.003906c0.38672 0.52734 0.89062 0.95703 1.4727 1.2578 0.48828 0.28125 1.0469 0.42578 1.6094 0.42188 3.6406 0.42188 6.6484 1.8906 8.1211-2.0312 0.76953-2.0312 0.98047-5.5312 3.0781-7 2.1016-1.4688 4.4805 0 5.7383 0.35156 1.2617 0.35156 3.6406 0 5.4609 0 3.0781 0 4.7617-1.6094 7.4883-2.5195h0.003906c1.7617-0.49609 3.625-0.49609 5.3906 0l8.4688 1.8203v-0.003907c0.99609 0.15625 1.9648 0.46094 2.8711 0.91016 0.62109 0.44141 1.1875 0.95703 1.6797 1.543 2.1016 2.1719 4.2695 4.3398 6.3008 6.5781h0.42188c2.4492-2.0312 9.1016-8.4688 12.391-7.6992 3.2891 0.76953 4.8281 4.5508 6.5781 6.3008h-0.003906c0.62891 0.55469 1.1484 1.2188 1.543 1.957 0.039063 0.5625 0.039063 1.1211 0 1.6836 0 3.4297 0.62891 7 0.98047 10.219 2.7539 1.7344 5.8633 2.8359 9.0977 3.2188 4.043 0.16406 7.9961-1.2109 11.059-3.8477l3.3594-3.5h0.003906c0.32422-0.42187 0.73047-0.77734 1.1875-1.0508 0.38672-0.17188 0.78516-0.3125 1.1914-0.42188 3.4023-0.35547 6.8398 0.30078 9.8711 1.8906 6.0898 2.9414 11.762 6.5781 17.852 9.5195l9.4492 4.4805h-0.003907c0.58984 0.27344 1.1523 0.60156 1.6836 0.98047 0.49609 0.53906 0.94141 1.125 1.3281 1.75 1.8906 3.0117 3.7812 6.0898 5.8086 9.1016 0.24219 0.45313 0.44922 0.91797 0.63281 1.3984 0.48828 2.5898-3.7109 4.8984-5.3906 6.1602-1.7734 1.2734-3.6211 2.4414-5.5312 3.5-2.1016 1.1914-5.3906 2.3789-2.4492 4.4102 1.2188 0.69531 2.2891 1.6211 3.1484 2.7305 0.50391 0.79297 0.92578 1.6406 1.2617 2.5195 3.7109 6.9297 6.1602 13.93 9.5195 20.09z"/>
</svg>
