<?xml version="1.0" encoding="UTF-8"?>
<svg width="700pt" height="700pt" version="1.1" viewBox="0 0 700 700" xmlns="http://www.w3.org/2000/svg">
 <path d="m566.02 241.64c-0.48828 5.4609-6.0898 9.9414-9.8711 13.648-1.9609 2.1016-3.9883 4.1992-6.0898 6.2305-0.74609 0.83203-1.6211 1.5391-2.5898 2.1016-4.5156 1.5312-9.2305 2.4062-14 2.5898-1.8203 0-8.0508 0-9.4492 1.5391-1.3984 1.5391-1.1914 7-1.3984 9.1719-0.35938 8.7383-1.1758 17.453-2.4492 26.109-0.6875 4.6836-2.4062 9.1562-5.043 13.09-1.9492 1.8516-4.0312 3.5586-6.2305 5.1094l-11.41 9.1016c-1.4688 1.2617-5.9492 1.3281-7.7695 1.75l-15.191 3.2188h0.003906c-12.262 3.0117-24.211 7.1602-35.703 12.391-0.50781 0.11328-0.97266 0.38281-1.3281 0.76953-0.29297 0.375-0.50391 0.80078-0.62891 1.2578-0.82812 4.4648-2.3672 8.7656-4.5508 12.742-3.0117 4.2695-8.6094 5.4609-12.949 7.6289-4.4688 3.1094-9.6406 5.0586-15.051 5.6719h-9.3789c-0.60156-0.13672-1.2227-0.13672-1.8203 0-6.0195 1.2617-11.129 11.199-14.629 15.68l-16.309 21h-0.003906c-2.5977 2.9961-4.9375 6.2031-7 9.5898-1.75 3.2188-3.1484 7-4.9688 9.8711v-0.003906c-7.7422 11.566-16.504 22.414-26.18 32.41-8.1211 9.5195-16.59 21-9.8711 33.672 0.61328 0.85938 0.95703 1.8828 0.98047 2.9414-0.30469 0.75391-0.78516 1.4258-1.4023 1.957 0 1.75-7 7-7.9805 8.3984-2.5898 2.7305-5.0391 5.6016-7.5586 8.3984-12.109 10.988-19.602 17.641-31.781 28.629l-2.1719 1.75 0.003906 0.003906c-4.9492 0.75781-9.8047 2.0234-14.488 3.7812-0.48047 0.16016-0.92969 0.39844-1.332 0.69922-3.4297 2.8008-2.3086 13.371-9.1719 11.969-3.4297-0.76953-4.7617-5.1094-8.8203-3.1484-2.3086 1.1211-9.9414 12.461-12.25 11.969l-6.5117-6.1602 0.003907 0.003906c-4.8984 0.69922-9.8711 0.69922-14.77 0-4.5508-1.6797-1.9609-9.1719-1.8203-12.602 0-7 0.62891-14.84 0.42188-22.191 0.25-3.7812-0.53125-7.5625-2.2539-10.941-1.7266-3.375-4.3359-6.2227-7.5469-8.2383-1.4688-0.83984-3.0781-1.3281-3.9219-2.7305-0.47266-0.86328-0.75781-1.8164-0.83984-2.7969-0.69922-7.8398 0.69922-15.609-0.42188-23.52l0.003906-0.003906c-1.0156-7.2812-3.75-14.215-7.9805-20.227-5.6016-7.9102-14-11.969-20.371-18.969v-0.003906c-3.625-4.0117-6.2812-8.8008-7.7695-14v-2.4492c0-2.7305 1.0508-7.5586 0-9.8711-1.2695-1.3516-2.7305-2.5078-4.3398-3.4297-2.7617-1.5-4.9844-3.8203-6.3672-6.6445-1.3789-2.8242-1.8438-6.0039-1.332-9.1055 0.17578-6.4648 0.73828-12.918 1.6797-19.32 0.10938-5.0469 0.98047-10.051 2.5898-14.84 1.1992-2.2109 2.5039-4.3594 3.918-6.4375 4.9336-7.9062 6.8242-17.336 5.3203-26.531v-11.129c1-5.0273 3.0234-9.793 5.9492-14 4.0195-5.8164 9.3438-10.609 15.543-14 17.219-9.8008 39.41-14.422 49.91-31.5 4.418-8.6289 7.2852-17.961 8.4688-27.582 7.2852-35.664 23.113-69.027 46.129-97.23 3.7109-4.6211 7-4.1992 7.3516-10.219l0.62891-3.3594 14.629 3.3594 22.469 3.9219 29.891 10.148 22.961-1.75 29.539 4.8984 30.031 5.3906 11.828 5.8789h14.98l12.391-2.3789 15.262 4.2695 0.62891 0.48828c0 2.5195 9.0312 7 10.852 8.3281 7.4883 5.4609 14 12.672 21.699 17.5v0.003906c8.25 4.5703 17.016 8.1406 26.109 10.641 8.6797 2.8008 6.3711 17.43 13.02 22.609 3.6406 2.8008 7.6289 5.6016 11.34 8.3984v0.003907c0.10547 4.918-0.39062 9.8281-1.4688 14.629z"/>
</svg>
