<?xml version="1.0" encoding="UTF-8"?>
<svg width="700pt" height="700pt" version="1.1" viewBox="0 0 700 700" xmlns="http://www.w3.org/2000/svg">
 <path d="m639.17 381.29c0.10156 0.32031 0.10156 0.66406 0 0.98047-0.31641 0.35156-0.69922 0.63672-1.1211 0.83984-1.6523 1.0938-3 2.5859-3.9219 4.3398-2.4258 4.2031-3.9961 8.8398-4.6172 13.652 0 2.3086-0.62891 5.0391-2.6602 6.2305-0.76953 0.42188-1.75 0.62891-2.1719 1.4688-0.14453 0.50391-0.14453 1.0352 0 1.5391v7.8398c0.050781 1.6406-0.18359 3.2734-0.69922 4.832-0.55859 1.375-1.2656 2.6914-2.1016 3.918-2.4336 5.0352-4.4023 10.285-5.8789 15.68-1.9102 5.1289-4.7344 9.875-8.3281 14-2.5508 3.0391-5.2852 5.9141-8.1914 8.6094-1.1367 1.4258-2.9844 2.0781-4.7617 1.6797-3.668-0.52344-7.3906-0.52344-11.059 0-1.75 0.35156-5.1094 2.6602-6.5781 2.3789s-2.8008-2.4492-3.7812-3.2891c-0.98047-0.83984-3.0781-2.7305-4.8281-2.2383h-0.003906c-1.7188 0.47266-3.3164 1.3086-4.6875 2.4492-0.91016 1.1211-0.91016 2.7305-1.6797 3.9219-1.8906 3.0117-3.5 6.2305-5.1797 9.3789s-4.2695 5.9492-5.8789 9.1719h-0.003907c-0.6875 1.6875-1.2695 3.418-1.75 5.1797-0.94922-0.91406-2.3438-1.1875-3.5703-0.70312-2.1016 0.76953-3.3594 3.1484-4.6211 4.8281h-0.42188l-3.2188-0.98047s-0.48828 0-0.62891-0.42188v-0.48828c-0.42188-3.0117-0.91016-5.9492-1.3984-8.8906v-0.42187c0-0.42188-2.6602-1.1211-3.5-1.8906v0.007813c-1.0664-0.90234-1.9258-2.0234-2.5195-3.2891-1.1211-1.8906-1.2617-4.5508-2.5898-6.2305-0.48437-0.54297-1.1641-0.87109-1.8906-0.91016-4.0781 0.33984-8.1797-0.18359-12.039-1.5391-4.4961-1.7266-8.5039-4.5117-11.691-8.1211-0.25-0.35156-0.46094-0.72656-0.62891-1.1211-0.10937-0.60156-0.10937-1.2188 0-1.8203v-5.3906c0-1.8203-1.3281-1.8203-3.2188-1.0508v0.003906c-1.3867 0.52344-2.6133 1.3906-3.5703 2.5195-0.83984 1.2617 0 3.5703 0 4.9688v5.4609c0.066406 0.41797 0.066406 0.83984 0 1.2578-0.10156 0.25391-0.24609 0.49219-0.42188 0.69922l-4.6914 7-4.8281 5.3906-3.0117 2.8711c-1.1211 1.1211-2.8008 3.5-4.4102 3.5-0.48828 0-4.1992-0.69922-4.4102-0.35156h0.003907c-1.4297 2.8945-3.0703 5.6758-4.9023 8.332-1.1211 1.3281-2.5195 3.9883-4.1289 4.8984-0.39453 0.074219-0.79688 0.074219-1.1914 0-1.1211 0-6.3008 1.75-7 0.91016-0.69922-0.83984 0.42188-3.7109 0-5.1094-0.42187-1.3984-2.3789-7-4.4805-7h-5.3906c-0.62891 0-1.5391 0.91016-2.1016 1.1914h0.003906c-0.85937 0.45312-1.8281 0.67187-2.8008 0.62891-2.5898 0-3.7109 0.42188-5.6719-1.3281-1.9609-1.75-3.4297 0-4.8281 0-2.0703 0.82422-4.043 1.8828-5.8789 3.1484-2.4297 1.3867-5.082 2.332-7.8398 2.8008-2.0664 0.15625-4.1055 0.53125-6.0898 1.1172-0.27344 0.19141-0.53125 0.40234-0.76953 0.63281-1.1641 0.96484-2.4062 1.832-3.7109 2.5898-1.5391 1.0508-2.6602 3.7812-4.0586 1.3984-1.1758-2.457-2.1367-5.0078-2.8711-7.6289-0.054687-0.29687-0.20312-0.56641-0.42188-0.76953h-0.69922c-2.3086-0.55859-4.5508-1.5391-7-1.8906-2.1211-0.011718-4.2344 0.22266-6.3008 0.69922-2.1719 0-4.2695-1.1914-6.4414-1.0508h0.003906c-0.37891 0.011718-0.74609 0.13281-1.0508 0.35156-0.30469 0.27344-0.50391 0.64453-0.5625 1.0508-0.76953 2.2383-1.2617 4.4102-1.9609 6.5781-0.69922 2.1719-1.3281 7-2.8008 7.6992h0.003906c-0.32422 0.074219-0.65625 0.074219-0.98047 0-1.8203 0-4.2695 0.42188-6.1602 0-0.70703-0.16797-1.3711-0.48047-1.9609-0.91016-2.0977-1.1758-3.9688-2.7148-5.5273-4.5469-0.98047-1.3281-0.76953-3.9219-1.2617-5.4609-0.48828-1.5391-0.62891-2.1719-1.3984-2.1016s-0.83984 3.5703-0.91016 4.4102c-0.14453 2.0664-1.1953 3.9648-2.8711 5.1797-1.1914 1.0078-2.5391 1.8086-3.9883 2.3828-2.3789 0.69922-4.3398-3.6406-5.0391-5.3906h-0.003906c-0.25391-1.3828-0.75391-2.7109-1.4688-3.9219-1.1211-1.2617-1.75 0-2.6602 1.6094s-1.8203 5.1797-3.8516 7c-2.0312 1.8203-0.69922-4.1289-3.5-3.2188-2.7461 1.6016-5.7969 2.6016-8.957 2.9414-2.5195 0-2.8711-2.9414-4.2695-4.4805-1.3125-1.1445-3.0234-1.7266-4.7617-1.6094-1.5195-0.1875-2.8398-1.1367-3.5-2.5195-0.62891-1.9609-0.42188-3.9219-1.1211-5.7383v-0.003906c-0.72656-1.5-1.5938-2.9297-2.5898-4.2695-1.4766-2.1836-2.6992-4.5352-3.6406-7-0.55859-1.5391-0.76953-3.2891-1.2617-4.8281-0.62891-2.6602-0.91016-0.83984-2.6602-1.8906-1.75-1.0508-2.3086-1.6094-3.5-2.2383-1.1914-0.62891-2.5898-0.83984-2.8008-1.5391-0.21094-0.69922 2.1719-3.7812 2.5898-4.5508 0.42188-0.76953 2.1016-3.5 3.2188-5.1797 1.1211-1.6797 4.4805-3.8516 5.1797-6.1602 0.69922-2.3086 2.6602-4.2695 2.1719-6.3711-0.48828-2.1016-0.69922-0.83984-1.8203-0.48828s-3.7109 1.8203-4.4102 1.3281c-0.69922-0.48828-0.55859-2.2383-0.69922-2.7305-1.1914-3.0117-2.7305-3.1484-5.3203-1.6797-1.1211 0.55859-4.9688 3.7109-6.2305 3.0781-1.2617-0.62891-10.289-3.6406-9.5195-5.6719 0-0.91016 2.6602-1.4688 3.5-1.6797 0.83984-0.21094 2.1719 0 2.9414-1.1914l0.003906 0.003906c0.33984-0.39062 0.64453-0.8125 0.91016-1.2617 1.2617-2.4492 2.5898-4.8281 3.8516-7h-0.003907c0.96094-2.3711 1.2969-4.9492 0.98047-7.4883 0.20312-2.3281 0.20312-4.6719 0-7 0-1.6797-0.83984-1.4688-2.3789-1.3984v-0.003906c-1.3203 0.058593-2.6289 0.22266-3.9219 0.49219l-7 2.0312c-2.3789 0.62891-2.5195-1.4688-3.5-3.2891v-0.003906c-3.0352-5.6289-6.3984-11.074-10.078-16.309-0.26172-0.32031-0.54297-0.625-0.83984-0.91016-0.42969-0.24219-0.91016-0.38672-1.4023-0.42188l-6.0898-1.0508c-2.1719-0.42188-3.6406 0-3.6406-2.4492v-5.5312l0.003906 0.003907c0.20703-1.7227 0.20703-3.4609 0-5.1797 0-1.2617 0-0.69922-0.98047-1.2617-0.69141-0.30469-1.4219-0.51562-2.1719-0.62891-1.5742-0.51562-3.1914-0.89062-4.8281-1.1211l-11.059-1.3984c-6.3008-0.83984-11.27-5.8086-17.43-7.4219-1.6094-0.42188-3.2188-0.62891-4.8984-0.91016l-13.301-1.75h-0.003906c-0.55078-0.13672-1.1289-0.13672-1.6797 0-0.5625 0.10156-1.0938 0.34375-1.5391 0.69922l-3.7109 2.1719c-2.8008 1.6094-3.0117 7.9805-3.6406 10.922-0.62891 2.9414 0 5.25-1.5391 7s-7.5586-0.91016-10.012-1.2617c-4.0586-0.62891-7.9805 0.91016-12.039 0.55859-2.8086-0.42188-5.5547-1.1758-8.1914-2.2383-2.6289-0.66797-5.332-1.0195-8.0469-1.0508-3.0742-0.28125-6.168-0.28125-9.2422 0-2.793 0.26562-5.5312 0.94922-8.1211 2.0312l-4.9688 2.1719v-0.003907c-0.31641 0.09375-0.60156 0.26172-0.83984 0.49219-0.21484 0.19141-0.38281 0.42969-0.48828 0.69922-0.83984 1.3984-2.5195 6.6484-4.1289 7h-0.003906c-0.33984 0.10156-0.70703 0.10156-1.0469 0-1.75-0.42188-3.6406-0.48828-5.3906-0.91016-2.9414-0.69922-3.5-3.2188-4.8281-5.7383 0-0.42188-0.91016-2.2383-1.3281-2.4492-7.5586-3.2188-14.352-7.7695-22.051-10.641l-0.003906-0.003907c-1.7812-0.55859-3.4922-1.3086-5.1094-2.2383-1.9336-1.4531-3.6953-3.1211-5.25-4.9688-1.8867-1.9805-3.9492-3.7852-6.1602-5.3906-1.4688-0.98047-3.2188-2.1719-3.0117-4.1289 0.19531-1.0195 0.57422-1.9922 1.1211-2.8711 0.55859-1.0508 0.48828-1.5391 1.5391-1.3984 1.0508 0.14062 1.75 1.2617 2.3789 1.6797l4.4805 3.4297c2.7539 2.1719 5.3711 4.5078 7.8398 7 1.8438 1.9766 4.3203 3.2383 7 3.5703 2.7148 0.50391 5.293 1.5742 7.5625 3.1484 0.98047 0.76953 5.8086 6.3008 5.8789 2.1719 0-1.8906 0-5.6719 2.3086-6.2305 2.5078-0.30859 4.9883-0.80078 7.4219-1.4727 2.0312-0.83984 3.1484-3.9219 5.1094-4.5508l4.3398-1.2617c2.5898-0.83984 3.7812-4.8281 4.8281-7 0 0 0-0.55859 0.42188-0.69922v0.003906c1.3008-0.99219 2.8516-1.5977 4.4805-1.75 2.1719 0 2.2383 0 2.9414-2.1719 1.0859-2.043 1.8672-4.2383 2.3086-6.5078 0.48828-1.3281 0.76953-5.25 1.8906-6.0898 1.1211-0.83984 1.9609 0 2.5195 0 3.9883 0 4.7617-1.2617 6.4414-4.8281v-0.003906c0.085938-0.26172 0.23047-0.5 0.41797-0.69922 0.98047-0.91016 4.3398-0.76953 5.6016-0.98047l3.7812-0.55859h-0.003907c1.9609-0.10547 3.9219-0.10547 5.8828 0h9.2383c0.37109 0.070313 0.75 0.070313 1.1211 0h0.62891c2.0898-1.3203 4.0547-2.8164 5.8789-4.4805 1.6797-1.8906 3.6406-3.3594 4.0586-5.9492h0.003906c0.69922-3.4648 0.69922-7.0352 0-10.5 0-1.6797-0.69922-2.4492 0.98047-3.5 1.2266-0.58984 2.3047-1.4531 3.1484-2.5234 0.22656-0.70312 0.36719-1.4297 0.42187-2.168 0.60938-3.1484 1.6211-6.207 3.0078-9.1016 0.62891-1.3281 3.6406-5.6016 2.2383-7l-1.3281-0.98047c-0.41016-0.32812-0.85547-0.60938-1.3281-0.83984-1.5781-0.51953-3.2422-0.73438-4.9023-0.62891-2.8008 0-2.5195-1.1211-2.8008-3.7109s-0.48828-4.8281-0.69922-7c-0.023437-0.54688-0.19141-1.0781-0.48828-1.5391-0.83984-0.91016-2.3086-0.35156-3.5703 0-2.3555-0.21094-4.5039-1.4375-5.8789-3.3594-0.38281-0.35156-0.62891-0.82031-0.70312-1.332-0.023438-0.42188 0.097656-0.84375 0.35156-1.1875 3.0273-5.5547 5.3789-11.457 7-17.57 0.29297-0.64453 0.29297-1.3867 0-2.0312l-1.1211-1.6797c-0.61328-1.3789-1.7422-2.4609-3.1484-3.0078-1.8203-0.35156-3.5 1.1211-5.0391 2.1016v-0.003906c-2.4961 1.4258-5.1836 2.4883-7.9805 3.1523h-0.76953c-0.23438 0.039063-0.46875 0.039063-0.70312 0-1.6094-0.76953-3.3594-1.0508-4.8984-1.8906-1.7109-1.1211-2.6992-3.0664-2.5898-5.1094 0.48828-1.8906 3.4297-2.0312 4.8281-2.5898 1.7305-0.42188 3.3711-1.1562 4.832-2.1719 0.42188-0.46094 0.73438-1.0117 0.91016-1.6094 1.2617-3.0117 2.5898-5.9492 3.8516-8.9609 0.69922-1.4688 1.1914-3.0117 1.8203-4.5508 1.1211-2.8008 1.5391-4.8281 4.9688-3.6406l6.5117 2.1719c1.0508 0.35156 4.8281 2.3789 5.3203 0.98047 1.1211-2.9414 2.3789-5.8789 3.5-8.75h-0.003907c2.793-5.6836 4.9062-11.676 6.3008-17.852v-0.69922l5.9492 4.1289 5.5312 2.3789v0.003906c1.918 0.51172 3.7578 1.2891 5.4609 2.3086 1.8906 1.75 0.69922 4.9688 0.62891 7.3516-0.070312 2.3789-0.55859 2.9414 1.3281 3.4297 3.5703 1.0508 6.3711 0 9.5898 2.3086 0.30859 0.19922 0.57031 0.46484 0.77344 0.76953 0.28906 0.73438 0.09375 1.5703-0.49219 2.1016-0.52734 0.50391-1.0898 0.97266-1.6797 1.3984-1.1914 1.0508-3.2188 4.1289-2.2383 5.8789 0.98047 1.75 4.1992 0 5.9492 0 0.36719-0.10156 0.75391-0.10156 1.1211 0 0.42188 0 0.62891 0.48828 0.91016 0.83984 2.1016 2.9414 4.6211 5.8086 6.5117 8.9609h-0.003906c1.0938 2.2344 1.9414 4.582 2.5195 7-0.039063 0.20703-0.039063 0.42188 0 0.63281 1.1211 1.1914 7 0 7.9102-0.62891v-0.003907c1.5742-1.0273 3.4531-1.4727 5.3203-1.2578 0 0 4.6914 2.5195 4.8281 2.5195 0.69922-2.1016 1.1914-4.4102 3.2891-5.4609 2.1016-1.0508 4.6914 0 7 0h0.003906c1.1484-0.34766 2.2188-0.91797 3.1484-1.6797l3.1484-2.1719h0.003906c1.1484-0.64453 1.9805-1.7305 2.3086-3.0078 0.69922-2.1016 1.4688-4.1289 2.2383-6.1602 0.14062-0.49609 0.35156-0.96875 0.63281-1.3984 1.3984-1.8906 4.0586-1.8906 6.0195-2.4492v-0.003906c2.4102-0.75 4.7539-1.7109 7-2.8672 4.8633-2.2109 9.957-3.8789 15.188-4.9727 2.8008-0.62891 3.0781-0.55859 4.8984 1.4688 5.1797 5.8789 15.121 5.5312 22.328 7 2.7305 0.55859 5.6016 4.6211 8.0508 5.9492 3.9219 2.3086 9.2383 1.4688 12.32 5.3203 3.0781 3.8516 4.8984 7 10.852 9.3086 5.9492 2.3086 7.9102 2.6602 10.219 7.7695l0.003906 0.003907c1.2188 4.0117 2.6914 7.9375 4.4102 11.762 3.9961 7.5273 8.4609 14.801 13.371 21.77 8.0781 8.293 12.77 19.301 13.16 30.871 0.20703 4.7812 1.1484 9.5039 2.7969 14 1.75 7.7695 1.2617 16.172 2.5898 24.078 0.69922 4.1992 1.6094 8.3281 2.5898 12.391 0.22656 4.5273 1.8398 8.8789 4.6211 12.461 5.5117 5.4492 11.871 9.9648 18.832 13.367 5.0117 0.76562 10.109 0.76562 15.117 0 0.87891-2.75 2.1797-5.3438 3.8516-7.6992 4.3398-3.1602 9.2656-5.418 14.488-6.6484l7-2.3789c6.5039 1.2539 13.07 2.168 19.672 2.7266 1.457-0.027344 2.8633-0.54688 3.9883-1.4688 2.1719-1.8203 2.4492-3.9883 5.8086-4.6914h0.003907c3.6914-0.42188 7.332-1.2461 10.848-2.4492l1.6094-0.35156 0.003906 0.003906c3.793 1.9766 7.9727 3.0977 12.25 3.2891 0.97266-0.14062 1.9648-0.14062 2.9375 0 2.5195 0.48828 2.7305 3.0117 3.0781 5.0391 0.35156 2.0312 0 1.3984 1.5391 2.0312h0.003907c1.4062 0.49609 2.8594 0.84766 4.3398 1.0508 1.9258 0.67578 3.9219 1.1211 5.9492 1.3281 2.3086 0 4.0586-2.4492 6.0195-3.5 3.7852-1.793 7.6914-3.3125 11.691-4.5508 4.9609-0.91016 9.707-2.7383 14-5.3906 0.69922-0.48828 1.6797-2.1016 2.5898-2.1719 0.91016-0.070312 1.8906 1.3984 2.5195 2.1016v0.003906c0.14062 0.25 0.36328 0.44922 0.62891 0.55859 0.32031 0.10156 0.66406 0.10156 0.98047 0 2.3633-0.42578 4.7031-0.98438 7-1.6797 4.7969-1.3281 9.4766-3.0352 14-5.1094 3.8789-1.7695 7.9414-3.1055 12.109-3.9922 2.668-0.80078 5.4141-1.293 8.1914-1.4688 4.1992 0 4.7617 4.2695 6.3008 7.5586 0.23828 0.64063 0.62109 1.2148 1.1211 1.6797 0.77344 0.52344 1.625 0.92188 2.5195 1.1914 1.5508 0.84375 2.7266 2.2461 3.2891 3.918 0.70312 4.1484 0.51172 8.3945-0.55859 12.461z"/>
</svg>
