<svg xmlns="http://www.w3.org/2000/svg" viewBox="0 0 100 100"><g id="Baara"><path d="M82.06,46.93a5.43,5.43,0,0,0-.33,1,7.18,7.18,0,0,0-.1,2,3,3,0,0,0,1.45,2.49,3.76,3.76,0,0,0,3.48,0,3.94,3.94,0,0,0,1.24-.82c.35-.34.66-.73,1-1a2.36,2.36,0,0,1,2.91-.09c1,.62,1.92,1.89,1.37,3.06A6.69,6.69,0,0,1,90.66,56c-.9.56-1.9.84-2.83,1.32a2.21,2.21,0,0,0-1.11,2.8,7.41,7.41,0,0,1,.18,3.77A5.67,5.67,0,0,1,85.18,67a4.32,4.32,0,0,1-1.6.65c-.7.2-1.4.45-2.1.66-2.78.81-5.67,1.16-8.46,1.94-1.15.32-2.32.73-2.53,2.07-.17,1.17.5,2.19,1,3.21a5.28,5.28,0,0,1,.49,1.7,11.15,11.15,0,0,1-.24,2c-.14,1.53,1.58,1.49,2.66,1.57.72,0,1.44.08,2.15.11a7.08,7.08,0,0,1,1.9.14c.48.16.51.59.49,1a9.4,9.4,0,0,1-.21,1.75,5.36,5.36,0,0,1-2.3,2.84A14,14,0,0,1,73,88.6a9.52,9.52,0,0,0-1.63.81,2.66,2.66,0,0,1-1.72.49c-1.3-.16-2.49-1.21-3.51-1.94s-2.38-1.5-3.57-2.25-2.11-1.48-3.24-2.1A30.6,30.6,0,0,0,55.4,82C54,81.51,52.65,81,51.29,80.4c-2.68-1.13-5.3-2.39-8-3.57S38,74.65,35.4,73.47s-5.22-2.69-7.89-3.93-5.29-2.31-7.87-3.62c-1.28-.65-2.53-1.38-3.85-2-.51-.23-1-.4-1.56-.6a1.32,1.32,0,0,1-1-1.09,12,12,0,0,0-.38-1.68,15.18,15.18,0,0,0-.77-2A3.54,3.54,0,0,0,11,57.33a5.4,5.4,0,0,1-1.38-1.18A3.32,3.32,0,0,1,9,54.58c-.07-.64.06-1.26,0-1.9a1.4,1.4,0,0,0-.69-1.2.89.89,0,0,1-.43-.54A1.53,1.53,0,0,1,8,50.25c.11-.5-.19-.63-.58-.79s-.52-.47-.12-.76a1,1,0,0,0,.48-1.06c-.06-.65-.17-1.3-.22-2a10.61,10.61,0,0,1-.08-1.95A5.29,5.29,0,0,1,8.31,42a6.09,6.09,0,0,0,.45-3.72,5.57,5.57,0,0,0-.52-1.65C8,36,7.54,35.55,7.23,35a4,4,0,0,1-.42-1.7,7.89,7.89,0,0,1,.09-2.17,8.45,8.45,0,0,1,1.84-3.39,6.13,6.13,0,0,0,.91-1.54,19.15,19.15,0,0,1,.67-1.93c.55-1.13,1.37-2.09,1.84-3.26a39.47,39.47,0,0,0,1.57-3.68c.16-.58.23-1.18.38-1.76a7.66,7.66,0,0,0,.28-1.9c0-3,3-2.17,4.8-1.29.7.34,1.89,1.52,2.73,1,.59-.35.53-1.32.58-1.91s.18-1.91.9-1c.37.45.6,1,1,1.39a4.91,4.91,0,0,0,1.56.92,22.64,22.64,0,0,0,3.65,1.47,16.13,16.13,0,0,0,4.25.63,13.45,13.45,0,0,0,2.1-.2l.87-.19a5.61,5.61,0,0,1,.89-.25c.17,0,.3,0,.23.21s-.34.23-.45.34c-.6.58.62.73,1,.71a9.14,9.14,0,0,1,1.87-.25,17.86,17.86,0,0,0,1.88.48c.62,0,1.16-.34,1.77-.36a10.58,10.58,0,0,1,1.9.48c.65.1,1.31.08,2,.18a21.15,21.15,0,0,1,2.1.44,14.71,14.71,0,0,1,3.94,1.3c.53.32,1,.71,1.53,1.05a2.39,2.39,0,0,0,1.82.34,2.48,2.48,0,0,1,1.68,0,5.77,5.77,0,0,1,1.3,1.31,3,3,0,0,0,1.3,1,7.66,7.66,0,0,0,2.19.09c.67,0,1.33,0,2,0,.3,0,.59,0,.89-.05a4.2,4.2,0,0,1,1.06-.11c.47.06.6.45.68.86s.31,1.06.45,1.61c.34,1.25-.52,2.51-1,3.64-.24.61-.47,1.23-.72,1.84a7.46,7.46,0,0,0-.67,1.73,1.15,1.15,0,0,0,.8,1.17,3.54,3.54,0,0,0,1.8,0c.38-.06,1.1-.33,1.42,0s0,1,0,1.42c0,.62.35.91.72,1.34a2.9,2.9,0,0,1,.46,1.71,5,5,0,0,0,.7,1.75c.32.57.54,1.19.88,1.74a2.66,2.66,0,0,0,1.22,1c.63.3,1.24.64,1.87,1a1.93,1.93,0,0,0,1.69,0c.66-.27,1.32-.57,2-.9s.86-.34,1.34.08.86.62,1,1.09-.08,1.18,0,1.74a4.47,4.47,0,0,1,0,2C82.25,46.44,82.15,46.68,82.06,46.93Z"/></g></svg>